<?xml version="1.0" encoding="UTF-8" standalone="no"?>
<!-- Created with Inkscape (http://www.inkscape.org/) -->

<svg
   version="1.1"
   id="svg1"
   width="119.10933"
   height="211.94667"
   viewBox="0 0 119.10933 211.94667"
   xmlns="http://www.w3.org/2000/svg"
   xmlns:svg="http://www.w3.org/2000/svg">
  <defs
     id="defs1" />
  <g
     id="g1">
    <path
       id="path1"
       d="M 8.92975,0 C 8.92975,4.93182 4.93182,8.92975 0,8.92975 -4.93182,8.92975 -8.92975,4.93182 -8.92975,0 c 0,-4.93182 3.99793,-8.92975 8.92975,-8.92975 4.93182,0 8.92975,3.99793 8.92975,8.92975 z"
       style="fill:#e6e6ff;fill-opacity:1;fill-rule:nonzero;stroke:#000000;stroke-width:0.3985;stroke-linecap:butt;stroke-linejoin:miter;stroke-miterlimit:10;stroke-dasharray:none;stroke-opacity:1"
       transform="matrix(1.3333333,0,0,-1.3333333,76.886667,89.953333)" />
    <path
       id="path2"
       d="M 5.5549219,-6.5625e-4 V -0.24675 h -0.140625 c -0.46875,0 -0.515625,-0.0703125 -0.5859375,-0.26953125 L 3.1291406,-4.8170625 c -0.035156,-0.1054687 -0.058594,-0.1523437 -0.1992187,-0.1523437 -0.1289063,0 -0.1523438,0.046875 -0.1875,0.1523437 L 1.1252344,-0.72721875 C 1.0549219,-0.56315625 0.93773437,-0.24675 0.31664062,-0.24675 v 0.24609375 c 0.234375,-0.0234375 0.48046875,-0.0234375 0.71484378,-0.0234375 0.28125,0 0.796875,0.0234375 0.8320312,0.0234375 V -0.24675 c -0.3046875,0 -0.4921875,-0.140625 -0.4921875,-0.33984375 0,-0.0585938 0,-0.0703125 0.035156,-0.140625 l 0.328125,-0.85546875 h 1.9804687 l 0.4101563,1.01953125 c 0.011719,0.0351563 0.035156,0.0820313 0.035156,0.1171875 0,0.19921875 -0.3867187,0.19921875 -0.5742187,0.19921875 v 0.24609375 l 1.0429687,-0.0234375 c 0.328125,0 0.8554688,0.01171875 0.9257818,0.0234375 z M 3.6213281,-1.8287812 H 1.8283594 l 0.9023437,-2.2734375 z m 5.2998047,0.9960937 c 0,-0.09375 -0.082031,-0.09375 -0.1171875,-0.09375 -0.082031,0 -0.09375,0.0234375 -0.1289062,0.12890625 C 8.5226953,-0.37565625 8.1476953,-0.153 7.7258203,-0.153 c -0.4804687,0 -1.1015625,-0.3515625 -1.1015625,-1.359375 0,-0.890625 0.421875,-1.3710937 1.078125,-1.3710937 0.082031,0 0.421875,0 0.6679688,0.1054687 -0.1171875,0.046875 -0.1875,0.1640625 -0.1875,0.3046875 0,0.1875 0.1289062,0.328125 0.328125,0.328125 0.1875,0 0.328125,-0.1171875 0.328125,-0.3398437 0,-0.6210938 -0.9609375,-0.6210938 -1.1601563,-0.6210938 -1.0429687,0 -1.6992187,0.796875 -1.6992187,1.59375 0,0.87890625 0.75,1.58203125 1.6640625,1.58203125 1.0429687,0 1.2773437,-0.8203125 1.2773437,-0.90234375 z m 2.8974612,-0.046875 v -0.3867187 h -0.234375 v 0.37499995 c 0,0.48046875 -0.222657,0.73828125 -0.492188,0.73828125 -0.480469,0 -0.480469,-0.5859375 -0.480469,-0.71484375 V -2.7545625 h 1.078125 v -0.2460937 h -1.078125 v -1.2890625 h -0.246093 c 0,0.6328125 -0.292969,1.3242187 -0.9609378,1.3359375 v 0.1992187 h 0.6562498 v 1.88671875 c 0,0.7734375 0.585938,0.9375 0.972656,0.9375 0.46875,0 0.785157,-0.3984375 0.785157,-0.94921875 z m 2.408203,0.87890625 V -0.24675 c -0.398438,0 -0.46875,0 -0.46875,-0.29296875 V -3.0709687 l -1.03125,0.070312 v 0.2578125 c 0.445312,0 0.503906,0.035156 0.503906,0.375 v 1.8164062 c 0,0.3046875 -0.07031,0.3046875 -0.527344,0.3046875 v 0.24609375 c 0,0 0.503907,-0.0234375 0.785157,-0.0234375 0.246093,0 0.492187,0 0.738281,0.023438 z M 13.840078,-4.1959687 c 0,-0.2226563 -0.175781,-0.4101563 -0.398437,-0.4101563 -0.234375,0 -0.398438,0.1992188 -0.398438,0.3984375 0,0.2226563 0.175781,0.4101563 0.398438,0.4101563 0.246093,0 0.398437,-0.1992188 0.398437,-0.3984375 z m 4.69043,1.4414062 v -0.2460937 c -0.175781,0.011719 -0.351563,0.023437 -0.527344,0.023437 -0.1875,0 -0.445312,-0.011719 -0.632812,-0.023437 v 0.2460937 c 0.292968,0.011719 0.292968,0.2460938 0.292968,0.2695313 0,0.035156 -0.01172,0.1054687 -0.05859,0.1992187 l -0.78516,1.72265625 -0.867187,-1.89843745 c 0,0 -0.04687,-0.082031 -0.04687,-0.1289063 0,-0.1640625 0.234375,-0.1640625 0.363281,-0.1640625 v -0.2460937 c 0,0 -0.515625,0.023437 -0.796875,0.023437 -0.210937,0 -0.480469,-0.011719 -0.691406,-0.023437 v 0.2460937 c 0.386719,0 0.46875,0.011719 0.574219,0.2460938 l 1.101562,2.4257812 c 0.03516,0.09375 0.08203,0.15234375 0.199219,0.15234375 0.128906,0 0.164062,-0.05859375 0.199219,-0.140625 l 1.019531,-2.24999995 c 0.199219,-0.421875 0.539062,-0.4335938 0.65625,-0.4335938 z m 3.585937,2.12109375 V -1.0084687 h -0.246093 v 0.37499995 c 0,0.0703125 0,0.3984375 -0.257813,0.3984375 -0.257812,0 -0.257812,-0.328125 -0.257812,-0.41015625 v -1.21875 c 0,-0.375 0,-0.6445312 -0.316407,-0.9023437 -0.28125,-0.234375 -0.621093,-0.3398438 -1.03125,-0.3398438 -0.667968,0 -1.125,0.2460938 -1.125,0.6679688 0,0.2226562 0.152344,0.3398437 0.328125,0.3398437 0.1875,0 0.328125,-0.1289062 0.328125,-0.3164062 0,-0.1289063 -0.05859,-0.2695313 -0.246093,-0.328125 0.257812,-0.1757813 0.65625,-0.1757813 0.703125,-0.1757813 0.386718,0 0.808593,0.2578125 0.808593,0.84375 v 0.2226563 c -0.375,0.011719 -0.84375,0.035156 -1.347656,0.2226562 -0.632812,0.2226563 -0.820312,0.609375 -0.820312,0.92578125 0,0.59765625 0.726562,0.7734375 1.21875,0.7734375 0.5625,0 0.878906,-0.31640625 1.03125,-0.5859375 0.02344,0.28125 0.210937,0.55078125 0.539062,0.55078125 0,0 0.691406,0 0.691406,-0.66796875 z m -1.3125,-0.3515625 c 0,0.66796875 -0.585937,0.85546875 -0.890625,0.85546875 -0.363281,0 -0.691406,-0.234375 -0.691406,-0.57421875 0,-0.38671875 0.328125,-0.92578125 1.582031,-0.97265625 z m 4.098633,0.10546875 v -0.3867187 h -0.234375 v 0.37499995 c 0,0.48046875 -0.222656,0.73828125 -0.492187,0.73828125 -0.480469,0 -0.480469,-0.5859375 -0.480469,-0.71484375 V -2.7545625 h 1.078125 v -0.2460937 h -1.078125 v -1.2890625 h -0.246094 c 0,0.6328125 -0.292969,1.3242187 -0.960937,1.3359375 v 0.1992187 h 0.65625 v 1.88671875 c 0,0.7734375 0.585937,0.9375 0.972656,0.9375 0.46875,0 0.785156,-0.3984375 0.785156,-0.94921875 z m 2.405274,0.87890625 V -0.24675 c -0.398438,0 -0.46875,0 -0.46875,-0.29296875 V -3.0709687 l -1.03125,0.070312 v 0.2578125 c 0.445312,0 0.503906,0.035156 0.503906,0.375 v 1.8164062 c 0,0.3046875 -0.07031,0.3046875 -0.527344,0.3046875 v 0.24609375 c 0,0 0.503906,-0.0234375 0.785156,-0.0234375 0.246094,0 0.492188,0 0.738282,0.023438 z M 26.921133,-4.1959687 c 0,-0.2226563 -0.175781,-0.4101563 -0.398438,-0.4101563 -0.234375,0 -0.398437,0.1992188 -0.398437,0.3984375 0,0.2226563 0.175781,0.4101563 0.398437,0.4101563 0.246094,0 0.398438,-0.1992188 0.398438,-0.3984375 z m 4.420898,2.7070312 c 0,-0.8671875 -0.75,-1.6171875 -1.710937,-1.6171875 -0.960938,0 -1.710938,0.75 -1.710938,1.6171875 0,0.8671875 0.773438,1.55859375 1.710938,1.55859375 0.9375,0 1.710937,-0.69140625 1.710937,-1.55859375 z m -0.632812,-0.058594 c 0,0.328125 -0.02344,0.70312495 -0.222657,0.98437495 C 30.299062,-0.293625 29.970937,-0.153 29.631094,-0.153 c -0.257813,0 -0.632813,-0.0820313 -0.867188,-0.421875 -0.1875,-0.29296875 -0.210937,-0.65625 -0.210937,-0.9726562 0,-0.3046875 0.01172,-0.7148438 0.257812,-1.0078125 0.175781,-0.2109375 0.46875,-0.3632813 0.820313,-0.3632813 0.410156,0 0.703125,0.1992188 0.855468,0.4101563 0.199219,0.28125 0.222657,0.6210937 0.222657,0.9609372 z m 5.024414,1.54687495 V -0.24675 c -0.457031,0 -0.527344,0 -0.527344,-0.3046875 v -1.5585937 c 0,-0.609375 -0.292969,-0.9609375 -1.042969,-0.9609375 -0.574218,0 -0.9375,0.3046875 -1.136718,0.6679687 v -0.6679687 l -1.03125,0.070312 v 0.2578125 c 0.46875,0 0.527343,0.046875 0.527343,0.3867187 v 1.8046875 c 0,0.3046875 -0.07031,0.3046875 -0.527343,0.3046875 v 0.24609375 c 0,0 0.503906,-0.0234375 0.796875,-0.0234375 0.257812,0 0.738281,0.01171875 0.796875,0.0234375 V -0.24675 c -0.445313,0 -0.515625,0 -0.515625,-0.3046875 v -1.2539062 c 0,-0.7382813 0.574218,-1.078125 1.03125,-1.078125 0.492187,0 0.550781,0.3867187 0.550781,0.7382812 v 1.59375 c 0,0.3046875 -0.07031,0.3046875 -0.515625,0.3046875 v 0.24609375 c 0,0 0.503906,-0.0234375 0.796875,-0.0234375 0.257812,0 0.738281,0.01171875 0.796875,0.0234372 z m 0,0"
       style="fill:#000000;fill-opacity:1;fill-rule:nonzero;stroke:none"
       aria-label="Activation"
       transform="matrix(1.3333333,0,0,1.3333333,50.32,125.704)" />
    <path
       id="path3"
       d="m 2.7775781,-4.3935078 c 0,-0.3046875 -0.3046875,-0.515625 -0.6796875,-0.515625 -0.5625,0 -1.18359373,0.3867187 -1.18359373,1.125 v 0.7851562 H 0.31664062 v 0.2460938 h 0.59765625 v 2.20312499 c 0,0.3046875 -0.0703125,0.3046875 -0.52734375,0.3046875 v 0.24609375 c 0.0351563,0 0.515625,-0.0234375 0.79687498,-0.0234375 l 0.9140625,0.0234375 v -0.24609375 h -0.140625 c -0.515625,0 -0.515625,-0.0820313 -0.515625,-0.31640625 V -2.7528828 H 2.3088281 V -2.9989766 H 1.4064844 v -0.7851562 c 0,-0.6328125 0.375,-0.9257813 0.6796875,-0.9257813 0.058594,0 0.1289062,0.011719 0.1992187,0.035156 -0.09375,0.058594 -0.1523437,0.1640625 -0.1523437,0.28125 0,0.1875 0.1289062,0.3164062 0.3164062,0.3164062 0.1992188,0 0.328125,-0.1289062 0.328125,-0.3164059 z m 3.8056641,4.39453124 v -0.24609375 c -0.46875,0 -0.5273438,-0.0585938 -0.5273438,-0.3984375 V -3.0692891 l -1.0664062,0.070312 v 0.2578125 c 0.46875,0 0.515625,0.046875 0.515625,0.3867188 v 1.1953125 c 0,0.60937499 -0.3867188,1.03124999 -0.9257813,1.03124999 -0.6328125,0 -0.65625,-0.29296875 -0.65625,-0.65625 V -3.0692891 l -1.078125,0.070312 v 0.2578125 c 0.5273438,0 0.5273438,0.011719 0.5273438,0.6328125 v 1.0546875 c 0,0.48046879 0,1.12500004 1.1601562,1.12500004 0.1523438,0 0.6679688,0 0.9960938,-0.5859375 h 0.011719 v 0.5859375 z m 4.4003908,0 v -0.24609375 c -0.457031,0 -0.527344,0 -0.527344,-0.3046875 V -2.1083516 c 0,-0.609375 -0.292969,-0.9609375 -1.0429687,-0.9609375 -0.5742187,0 -0.9375,0.3046875 -1.1367187,0.6679688 v -0.6679688 l -1.03125,0.070312 v 0.2578125 c 0.46875,0 0.5273437,0.046875 0.5273437,0.3867188 v 1.80468749 c 0,0.3046875 -0.070312,0.3046875 -0.5273437,0.3046875 v 0.24609375 c 0,0 0.5039062,-0.0234375 0.796875,-0.0234375 0.2578125,0 0.7382812,0.01171875 0.796875,0.0234375 v -0.24609375 c -0.4453125,0 -0.515625,0 -0.515625,-0.3046875 V -1.8036641 c 0,-0.7382812 0.5742187,-1.078125 1.03125,-1.078125 0.4921875,0 0.5507812,0.3867188 0.5507812,0.7382813 v 1.59374999 c 0,0.3046875 -0.070312,0.3046875 -0.515625,0.3046875 v 0.24609375 c 0,0 0.5039063,-0.0234375 0.7968752,-0.0234375 0.257812,0 0.738281,0.01171875 0.796875,0.0234375 z m 3.544922,-0.83203125 c 0,-0.09375 -0.08203,-0.09375 -0.117188,-0.09375 -0.08203,0 -0.09375,0.0234375 -0.128906,0.12890625 -0.152344,0.421875 -0.527344,0.64453125 -0.949219,0.64453125 -0.480469,0 -1.101562,-0.3515625 -1.101562,-1.35937499 0,-0.890625 0.421875,-1.3710938 1.078125,-1.3710938 0.08203,0 0.421875,0 0.667968,0.1054688 -0.117187,0.046875 -0.1875,0.1640625 -0.1875,0.3046875 0,0.1875 0.128907,0.328125 0.328125,0.328125 0.1875,0 0.328125,-0.1171875 0.328125,-0.3398438 0,-0.6210937 -0.960937,-0.6210937 -1.160156,-0.6210937 -1.042969,0 -1.699219,0.796875 -1.699219,1.59375 0,0.87890624 0.75,1.58203124 1.664063,1.58203124 1.042969,0 1.277344,-0.8203125 1.277344,-0.90234375 z m 2.897461,-0.046875 V -1.2646016 h -0.234375 v 0.37500004 c 0,0.48046875 -0.222657,0.73828125 -0.492188,0.73828125 -0.480469,0 -0.480469,-0.5859375 -0.480469,-0.71484375 V -2.7528828 h 1.078125 v -0.2460938 h -1.078125 v -1.2890625 h -0.246093 c 0,0.6328125 -0.292969,1.3242188 -0.960938,1.3359375 v 0.1992188 h 0.65625 v 1.88671874 c 0,0.7734375 0.585938,0.9375 0.972656,0.9375 0.46875,0 0.785157,-0.3984375 0.785157,-0.94921875 z m 2.408203,0.87890625 v -0.24609375 c -0.398438,0 -0.46875,0 -0.46875,-0.29296875 V -3.0692891 l -1.03125,0.070312 v 0.2578125 c 0.445312,0 0.503906,0.035156 0.503906,0.375 v 1.81640629 c 0,0.3046875 -0.07031,0.3046875 -0.527344,0.3046875 v 0.24609375 c 0,0 0.503906,-0.0234375 0.785156,-0.0234375 0.246094,0 0.492188,0 0.738282,0.023438 z M 19.4475,-4.1942891 c 0,-0.2226562 -0.175781,-0.4101562 -0.398438,-0.4101562 -0.234375,0 -0.398437,0.1992187 -0.398437,0.3984375 0,0.2226562 0.175781,0.4101562 0.398437,0.4101562 0.246094,0 0.398438,-0.1992187 0.398438,-0.3984375 z m 4.417969,2.7070313 c 0,-0.8671875 -0.75,-1.6171875 -1.710938,-1.6171875 -0.960937,0 -1.710937,0.75 -1.710937,1.6171875 0,0.86718749 0.773437,1.55859374 1.710937,1.55859374 0.9375,0 1.710938,-0.69140625 1.710938,-1.55859374 z m -0.632813,-0.058594 c 0,0.328125 -0.02344,0.70312504 -0.222656,0.98437504 -0.1875,0.26953125 -0.515625,0.41015625 -0.855469,0.41015625 -0.257812,0 -0.632812,-0.0820313 -0.867187,-0.421875 -0.1875,-0.29296875 -0.210938,-0.65624999 -0.210938,-0.97265629 0,-0.3046875 0.01172,-0.7148437 0.257813,-1.0078125 0.175781,-0.2109375 0.46875,-0.3632812 0.820312,-0.3632812 0.410156,0 0.703125,0.1992187 0.855469,0.4101562 0.199219,0.28125 0.222656,0.6210938 0.222656,0.9609375 z m 5.024414,1.54687504 v -0.24609375 c -0.457031,0 -0.527343,0 -0.527343,-0.3046875 V -2.1083516 c 0,-0.609375 -0.292969,-0.9609375 -1.042969,-0.9609375 -0.574219,0 -0.9375,0.3046875 -1.136719,0.6679688 v -0.6679688 l -1.03125,0.070312 v 0.2578125 c 0.46875,0 0.527344,0.046875 0.527344,0.3867188 v 1.80468749 c 0,0.3046875 -0.07031,0.3046875 -0.527344,0.3046875 v 0.24609375 c 0,0 0.503906,-0.0234375 0.796875,-0.0234375 0.257813,0 0.738281,0.01171875 0.796875,0.0234375 v -0.24609375 c -0.445312,0 -0.515625,0 -0.515625,-0.3046875 V -1.8036641 c 0,-0.7382812 0.574219,-1.078125 1.03125,-1.078125 0.492188,0 0.550781,0.3867188 0.550781,0.7382813 v 1.59374999 c 0,0.3046875 -0.07031,0.3046875 -0.515625,0.3046875 v 0.24609375 c 0,0 0.503907,-0.0234375 0.796875,-0.0234375 0.257813,0 0.738282,0.01171875 0.796875,0.0234373 z m 0,0"
       style="fill:#000000;fill-opacity:1;fill-rule:nonzero;stroke:none"
       aria-label="function"
       transform="matrix(1.3333333,0,0,1.3333333,50.32,136.33067)" />
    <path
       id="path4"
       d="M 4.98138,4.98138 H 0 v -9.96276 h -4.98138"
       style="fill:none;stroke:#000000;stroke-width:0.79701;stroke-linecap:butt;stroke-linejoin:miter;stroke-miterlimit:10;stroke-dasharray:none;stroke-opacity:1"
       transform="matrix(1.3333333,0,0,-1.3333333,76.886667,89.953333)" />
    <path
       id="path5"
       d="M 0,7.47208 V -7.47208"
       style="fill:none;stroke:#000000;stroke-width:0.3985;stroke-linecap:butt;stroke-linejoin:miter;stroke-miterlimit:10;stroke-dasharray:none;stroke-opacity:1"
       transform="matrix(1.3333333,0,0,-1.3333333,76.886667,89.953333)" />
    <path
       id="path6"
       d="M 7.47208,0 H -7.47208"
       style="fill:none;stroke:#000000;stroke-width:0.3985;stroke-linecap:butt;stroke-linejoin:miter;stroke-miterlimit:10;stroke-dasharray:none;stroke-opacity:1"
       transform="matrix(1.3333333,0,0,-1.3333333,76.886667,89.953333)" />
    <path
       id="path7"
       d="M 9.12901,0 H 21.24043"
       style="fill:none;stroke:#000000;stroke-width:0.3985;stroke-linecap:butt;stroke-linejoin:miter;stroke-miterlimit:10;stroke-dasharray:none;stroke-opacity:1"
       transform="matrix(1.3333333,0,0,-1.3333333,76.886667,89.953333)" />
    <path
       id="path8"
       d="M 3.58653,0 C 2.52383,0.19925 0.797,0.797 -0.3985,1.49438 V -1.49438 C 0.797,-0.797 2.52383,-0.19925 3.58653,0"
       style="fill:#000000;fill-opacity:1;fill-rule:nonzero;stroke:none"
       transform="matrix(1.3333333,0,0,-1.3333333,105.20724,89.953333)" />
    <path
       id="path9"
       d="m -0.19925,0 c 0,6.485 -5.25699,11.742 -11.742,11.742 -6.48502,0 -11.74201,-5.257 -11.74201,-11.742 0,-6.485 5.25699,-11.742 11.74201,-11.742 6.48501,0 11.742,5.257 11.742,11.742 z"
       style="fill:#e6e6ff;fill-opacity:1;fill-rule:nonzero;stroke:#000000;stroke-width:0.3985;stroke-linecap:butt;stroke-linejoin:miter;stroke-miterlimit:10;stroke-dasharray:none;stroke-opacity:1"
       transform="matrix(1.3333333,0,0,-1.3333333,76.886667,89.953333)" />
    <path
       id="path10"
       d="M 4.1954766,5.3206875 0.65641406,9.6917812 c -0.0820313,0.1054688 -0.09375,0.1171875 -0.09375,0.1640625 0,0.1054688 0.09375,0.1054688 0.26953125,0.1054688 H 9.0939141 L 9.9493828,7.4769375 H 9.7032891 c -0.2460938,0.75 -0.9140625,1.359375 -1.7695313,1.6523437 -0.1523437,0.046875 -0.84375,0.28125 -2.3085937,0.28125 H 1.3946953 l 3.4570313,-4.265625 c 0.070312,-0.09375 0.09375,-0.1289062 0.09375,-0.1640625 0,-0.035156 -0.011719,-0.046875 -0.070312,-0.140625 L 1.6290703,0.3988125 h 3.9492188 c 1.1367187,0 3.421875,0.0703125 4.125,1.9335937 H 9.9493828 L 9.0939141,3.75e-4 H 0.83219531 c -0.26953125,0 -0.26953125,0.01171875 -0.26953125,0.31640625 z m 0,0"
       style="fill:#000000;fill-opacity:1;fill-rule:nonzero;stroke:none"
       aria-label="P"
       transform="matrix(1.3333333,0,0,1.3333333,54.324,83.312)" />
    <path
       id="path11"
       d="M 0,0 H -5.54247"
       style="fill:none;stroke:#000000;stroke-width:0.3985;stroke-linecap:butt;stroke-linejoin:miter;stroke-miterlimit:10;stroke-dasharray:none;stroke-opacity:1"
       transform="matrix(1.3333333,0,0,-1.3333333,76.886667,89.953333)" />
    <path
       id="path12"
       d="M 3.58653,0 C 2.52383,0.19925 0.797,0.797 -0.3985,1.49438 V -1.49438 C 0.797,-0.797 2.52383,-0.19925 3.58653,0"
       style="fill:#000000;fill-opacity:1;fill-rule:nonzero;stroke:none"
       transform="matrix(-1.3333333,0,0,1.3333333,69.496707,89.953333)" />
    <path
       id="path13"
       d="m -16.80315,-6.21251 h 16.6039 V 6.21251 h -16.6039 z"
       style="fill:#ccccff;fill-opacity:1;fill-rule:nonzero;stroke:#000000;stroke-width:0.3985;stroke-linecap:butt;stroke-linejoin:miter;stroke-miterlimit:10;stroke-dasharray:none;stroke-opacity:1"
       transform="matrix(1.3333333,0,0,-1.3333333,76.886667,89.953333)" />
    <path
       id="path14"
       d="m 4.6050859,-3.3756953 c 0.046875,-0.2226563 0.140625,-0.5859375 0.140625,-0.6445313 0,-0.1875 -0.1289062,-0.2695312 -0.28125,-0.2695312 -0.1171875,0 -0.3046875,0.070312 -0.375,0.2695312 -0.023437,0.070312 -0.4921875,1.9804688 -0.5625,2.2382813 -0.070312,0.2929687 -0.09375,0.4804687 -0.09375,0.65625 0,0.1054687 0,0.12890624 0.011719,0.17578124 -0.2226563,0.52734375 -0.5273438,0.84375 -0.9140625,0.84375 -0.796875,0 -0.796875,-0.73828125 -0.796875,-0.91406254 0,-0.3164062 0.046875,-0.703125 0.515625,-1.9335937 0.1054687,-0.2929688 0.1757812,-0.4335938 0.1757812,-0.6328125 0,-0.4453125 -0.328125,-0.8203125 -0.8203125,-0.8203125 -0.94921871,0 -1.31249996,1.453125 -1.31249996,1.5351562 0,0.1054688 0.09375,0.1054688 0.1171875,0.1054688 0.09375,0 0.10546875,-0.023437 0.15234375,-0.1875 0.26953125,-0.9257813 0.66796871,-1.2304688 1.00781251,-1.2304688 0.09375,0 0.2578125,0.011719 0.2578125,0.328125 0,0.2460938 -0.1171875,0.5273438 -0.1875,0.703125 -0.4335938,1.171875 -0.5507813,1.6289063 -0.5507813,2.0039063 0,0.91406249 0.6679688,1.25390624 1.40625,1.25390624 0.1757813,0 0.6445313,0 1.0429688,-0.69140625 0.2578125,0.6328125 0.9492187,0.69140625 1.2421875,0.69140625 0.75,0 1.1835937,-0.62109375 1.4414062,-1.21875004 0.3398438,-0.7851562 0.65625,-2.109375 0.65625,-2.5898437 0,-0.5507813 -0.2695312,-0.703125 -0.4335937,-0.703125 -0.2460938,0 -0.5039063,0.2578125 -0.5039063,0.4804687 0,0.1289063 0.070312,0.1875 0.1523438,0.2695313 0.1171875,0.1054687 0.3632812,0.3632812 0.3632812,0.84375 0,0.3398437 -0.2929687,1.3125 -0.5507812,1.82812499 -0.2578125,0.52734375 -0.609375,0.87890625 -1.0898438,0.87890625 -0.46875,0 -0.7382812,-0.3046875 -0.7382812,-0.8671875 0,-0.28125004 0.070312,-0.58593754 0.1054687,-0.72656254 z m 0,0"
       style="fill:#000000;fill-opacity:1;fill-rule:nonzero;stroke:none"
       aria-label="w"
       transform="matrix(1.3333333,0,0,1.3333333,58.910667,91.817333)" />
    <path
       id="path15"
       d="m 3.5170313,-1.2661797 h -0.234375 c -0.023437,0.1523438 -0.082031,0.56250001 -0.1757813,0.63281251 -0.058594,0.0351563 -0.5976562,0.0351563 -0.6914062,0.0351563 H 1.1264063 c 0.7382812,-0.64453121 0.984375,-0.84374991 1.3945312,-1.17187491 0.515625,-0.4101563 0.9960938,-0.8437501 0.9960938,-1.5000001 0,-0.8437499 -0.7382813,-1.3593749 -1.6289063,-1.3593749 -0.8671875,0 -1.453125,0.609375 -1.453125,1.2421874 0,0.3632812 0.3046875,0.3984375 0.375,0.3984375 0.1640625,0 0.375,-0.1171875 0.375,-0.375 0,-0.1289063 -0.058594,-0.3632813 -0.421875,-0.3632813 0.22265625,-0.5039061 0.6914063,-0.6562499 1.0195313,-0.6562499 0.703125,0 1.0664062,0.5507813 1.0664062,1.1132812 0,0.609375 -0.4335937,1.0898438 -0.65625,1.3359376 l -1.6875,1.66406241 C 0.435,-0.21149219 0.435,-0.19977344 0.435,-5.546875e-4 h 2.8828125 z m 0,0"
       style="fill:#000000;fill-opacity:1;fill-rule:nonzero;stroke:none"
       aria-label="2"
       transform="matrix(1.3333333,0,0,1.3333333,68.42,93.809333)" />
    <path
       id="path16"
       d="m -26.48074,0 c 0,5.72574 -4.64151,10.36725 -10.36726,10.36725 -5.72576,0 -10.36727,-4.64151 -10.36727,-10.36725 0,-5.72574 4.64151,-10.36725 10.36727,-10.36725 5.72575,0 10.36726,4.64151 10.36726,10.36725 z"
       style="fill:#ccccff;fill-opacity:1;fill-rule:nonzero;stroke:#000000;stroke-width:0.3985;stroke-linecap:butt;stroke-linejoin:miter;stroke-miterlimit:10;stroke-dasharray:none;stroke-opacity:1"
       transform="matrix(1.3333333,0,0,-1.3333333,76.886667,89.953333)" />
    <path
       id="path17"
       d="m 3.3270859,-3.0124141 c 0.058594,-0.2578125 0.2929688,-1.171875 0.984375,-1.171875 0.046875,0 0.2929688,0 0.5039063,0.1289063 -0.28125,0.046875 -0.4804688,0.3046875 -0.4804688,0.5390625 0,0.1640625 0.1054688,0.3515625 0.375,0.3515625 0.2226563,0 0.5390625,-0.1875 0.5390625,-0.5859375 0,-0.515625 -0.5859375,-0.65625 -0.9257812,-0.65625 -0.5742188,0 -0.9257813,0.5273437 -1.0429688,0.7617187 -0.2578125,-0.65625 -0.7851562,-0.7617187 -1.078125,-0.7617187 -1.0429687,0 -1.60546871,1.2890625 -1.60546871,1.5351562 0,0.1054688 0.10546875,0.1054688 0.1171875,0.1054688 0.0820313,0 0.1171875,-0.023437 0.12890625,-0.1171875 0.33984376,-1.0546875 0.99609376,-1.3007813 1.33593746,-1.3007813 0.1875,0 0.5390625,0.09375 0.5390625,0.6679688 0,0.3046875 -0.1640625,0.9726562 -0.5390625,2.3671875 -0.1523437,0.62109374 -0.5039062,1.04296874 -0.9492187,1.04296874 -0.058594,0 -0.28125001,0 -0.49218751,-0.12890625 0.24609375,-0.0585938 0.46875001,-0.26953125 0.46875001,-0.5390625 0,-0.26953129 -0.22265626,-0.35156249 -0.37500001,-0.35156249 -0.29296875,0 -0.5390625,0.25781249 -0.5390625,0.57421874 0,0.45703125 0.4921875,0.65625 0.93750001,0.65625 0.65625,0 1.0078125,-0.69140625 1.0429687,-0.75 0.1171875,0.36328125 0.4804688,0.75 1.078125,0.75 1.0195313,0 1.59375,-1.27734374 1.59375,-1.53515624 0,-0.09375 -0.09375,-0.09375 -0.1289062,-0.09375 -0.082031,0 -0.1054688,0.035156 -0.1289063,0.1054687 -0.328125,1.06640629 -0.9960937,1.31250004 -1.3242187,1.31250004 -0.3867188,0 -0.5390625,-0.328125 -0.5390625,-0.65625 0,-0.22265625 0.058594,-0.44531254 0.1640625,-0.87890624 z m 0,0"
       style="fill:#000000;fill-opacity:1;fill-rule:nonzero;stroke:none"
       aria-label="x"
       transform="matrix(1.3333333,0,0,1.3333333,21.114667,91.817333)" />
    <path
       id="path18"
       d="m 3.5158984,-1.2661797 h -0.234375 c -0.023437,0.1523438 -0.082031,0.56250001 -0.1757812,0.63281251 -0.058594,0.0351563 -0.5976563,0.0351563 -0.6914063,0.0351563 H 1.1252734 c 0.7382813,-0.64453121 0.984375,-0.84374991 1.3945313,-1.17187491 0.515625,-0.4101563 0.9960937,-0.8437501 0.9960937,-1.5000001 0,-0.8437499 -0.7382812,-1.3593749 -1.6289062,-1.3593749 -0.8671875,0 -1.45312501,0.609375 -1.45312501,1.2421874 0,0.3632812 0.3046875,0.3984375 0.375,0.3984375 0.1640625,0 0.37500001,-0.1171875 0.37500001,-0.375 0,-0.1289063 -0.058594,-0.3632813 -0.42187501,-0.3632813 0.22265625,-0.5039061 0.69140621,-0.6562499 1.01953121,-0.6562499 0.703125,0 1.0664063,0.5507813 1.0664063,1.1132812 0,0.609375 -0.4335938,1.0898438 -0.65625,1.3359376 l -1.68750001,1.66406241 c -0.0703125,0.0585938 -0.0703125,0.0703125 -0.0703125,0.2695312525 H 3.3166797 Z m 0,0"
       style="fill:#000000;fill-opacity:1;fill-rule:nonzero;stroke:none"
       aria-label="2"
       transform="matrix(1.3333333,0,0,1.3333333,28.706667,93.809333)" />
    <path
       id="path19"
       d="m -26.2815,0 h 5.69256"
       style="fill:none;stroke:#000000;stroke-width:0.3985;stroke-linecap:butt;stroke-linejoin:miter;stroke-miterlimit:10;stroke-dasharray:none;stroke-opacity:1"
       transform="matrix(1.3333333,0,0,-1.3333333,76.886667,89.953333)" />
    <path
       id="path20"
       d="M 3.58653,0 C 2.52383,0.19925 0.797,0.797 -0.3985,1.49438 V -1.49438 C 0.797,-0.797 2.52383,-0.19925 3.58653,0"
       style="fill:#000000;fill-opacity:1;fill-rule:nonzero;stroke:none"
       transform="matrix(1.3333333,0,0,-1.3333333,49.434747,89.953333)" />
    <path
       id="path21"
       d="M 0,0 V 3.58653"
       style="fill:none;stroke:#000000;stroke-width:0.3985;stroke-linecap:butt;stroke-linejoin:miter;stroke-miterlimit:10;stroke-dasharray:none;stroke-opacity:1"
       transform="matrix(1.3333333,0,0,-1.3333333,76.886667,89.953333)" />
    <path
       id="path22"
       d="M 3.58653,0 C 2.52383,0.19925 0.797,0.797 -0.3985,1.49438 V -1.49438 C 0.797,-0.797 2.52383,-0.19925 3.58653,0"
       style="fill:#000000;fill-opacity:1;fill-rule:nonzero;stroke:none"
       transform="matrix(0,-1.3333333,-1.3333333,0,76.886667,94.735373)" />
    <path
       id="path23"
       d="m 1.9114297,-0.52759375 c 0,-0.29296875 -0.234375,-0.52734375 -0.5273438,-0.52734375 -0.28125,0 -0.52734371,0.234375 -0.52734371,0.52734375 0,0.29296875 0.24609371,0.52734375 0.52734371,0.52734375 0.2929688,0 0.5273438,-0.234375 0.5273438,-0.52734375 z m 0,0"
       style="fill:#000000;fill-opacity:1;fill-rule:nonzero;stroke:none"
       aria-label="."
       transform="matrix(1.3333333,0,0,1.3333333,63.705333,127.12533)" />
    <path
       id="path24"
       d="m 1.9114297,-0.52821875 c 0,-0.29296875 -0.234375,-0.52734375 -0.5273438,-0.52734375 -0.28125,0 -0.52734371,0.234375 -0.52734371,0.52734375 0,0.29296875 0.24609371,0.52734375 0.52734371,0.52734375 0.2929688,0 0.5273438,-0.234375 0.5273438,-0.52734375 z m 0,0"
       style="fill:#000000;fill-opacity:1;fill-rule:nonzero;stroke:none"
       aria-label="."
       transform="matrix(1.3333333,0,0,1.3333333,63.705333,132.43867)" />
    <path
       id="path25"
       d="m 1.9114297,-0.52591406 c 0,-0.29296875 -0.234375,-0.52734374 -0.5273438,-0.52734374 -0.28125,0 -0.52734371,0.23437499 -0.52734371,0.52734374 0,0.29296875 0.24609371,0.52734375 0.52734371,0.52734375 0.2929688,0 0.5273438,-0.234375 0.5273438,-0.52734375 z m 0,0"
       style="fill:#000000;fill-opacity:1;fill-rule:nonzero;stroke:none"
       aria-label="."
       transform="matrix(1.3333333,0,0,1.3333333,63.705333,137.752)" />
    <path
       id="path26"
       d="m 1.9097734,-0.52759375 c 0,-0.29296875 -0.234375,-0.52734375 -0.5273437,-0.52734375 -0.28125,0 -0.52734376,0.234375 -0.52734376,0.52734375 0,0.29296875 0.24609376,0.52734375 0.52734376,0.52734375 0.2929687,0 0.5273437,-0.234375 0.5273437,-0.52734375 z m 0,0"
       style="fill:#000000;fill-opacity:1;fill-rule:nonzero;stroke:none"
       aria-label="."
       transform="matrix(1.3333333,0,0,1.3333333,25.910667,127.12533)" />
    <path
       id="path27"
       d="m 1.9097734,-0.52821875 c 0,-0.29296875 -0.234375,-0.52734375 -0.5273437,-0.52734375 -0.28125,0 -0.52734376,0.234375 -0.52734376,0.52734375 0,0.29296875 0.24609376,0.52734375 0.52734376,0.52734375 0.2929687,0 0.5273437,-0.234375 0.5273437,-0.52734375 z m 0,0"
       style="fill:#000000;fill-opacity:1;fill-rule:nonzero;stroke:none"
       aria-label="."
       transform="matrix(1.3333333,0,0,1.3333333,25.910667,132.43867)" />
    <path
       id="path28"
       d="m 1.9097734,-0.52591406 c 0,-0.29296875 -0.234375,-0.52734374 -0.5273437,-0.52734374 -0.28125,0 -0.52734376,0.23437499 -0.52734376,0.52734374 0,0.29296875 0.24609376,0.52734375 0.52734376,0.52734375 0.2929687,0 0.5273437,-0.234375 0.5273437,-0.52734375 z m 0,0"
       style="fill:#000000;fill-opacity:1;fill-rule:nonzero;stroke:none"
       aria-label="."
       transform="matrix(1.3333333,0,0,1.3333333,25.910667,137.752)" />
    <path
       id="path29"
       d="m -16.80315,-62.90613 h 16.6039 v 12.42502 h -16.6039 z"
       style="fill:#ccccff;fill-opacity:1;fill-rule:nonzero;stroke:#000000;stroke-width:0.3985;stroke-linecap:butt;stroke-linejoin:miter;stroke-miterlimit:10;stroke-dasharray:none;stroke-opacity:1"
       transform="matrix(1.3333333,0,0,-1.3333333,76.886667,89.953333)" />
    <path
       id="path30"
       d="m 4.6050859,-3.3763125 c 0.046875,-0.2226563 0.140625,-0.5859375 0.140625,-0.6445313 0,-0.1875 -0.1289062,-0.2695312 -0.28125,-0.2695312 -0.1171875,0 -0.3046875,0.070312 -0.375,0.2695312 -0.023437,0.070312 -0.4921875,1.9804688 -0.5625,2.2382813 -0.070312,0.2929687 -0.09375,0.4804687 -0.09375,0.65625 0,0.1054687 0,0.12890625 0.011719,0.17578125 -0.2226563,0.52734375 -0.5273438,0.84375 -0.9140625,0.84375 -0.796875,0 -0.796875,-0.73828125 -0.796875,-0.91406255 0,-0.3164062 0.046875,-0.703125 0.515625,-1.9335937 0.1054687,-0.2929688 0.1757812,-0.4335938 0.1757812,-0.6328125 0,-0.4453125 -0.328125,-0.8203125 -0.8203125,-0.8203125 -0.94921871,0 -1.31249996,1.453125 -1.31249996,1.5351562 0,0.1054688 0.09375,0.1054688 0.1171875,0.1054688 0.09375,0 0.10546875,-0.023437 0.15234375,-0.1875 0.26953125,-0.9257813 0.66796871,-1.2304688 1.00781251,-1.2304688 0.09375,0 0.2578125,0.011719 0.2578125,0.328125 0,0.2460938 -0.1171875,0.5273438 -0.1875,0.703125 -0.4335938,1.171875 -0.5507813,1.6289063 -0.5507813,2.0039063 0,0.9140625 0.6679688,1.25390625 1.40625,1.25390625 0.1757813,0 0.6445313,0 1.0429688,-0.69140625 0.2578125,0.6328125 0.9492187,0.69140625 1.2421875,0.69140625 0.75,0 1.1835937,-0.62109375 1.4414062,-1.21875005 0.3398438,-0.7851562 0.65625,-2.109375 0.65625,-2.5898437 0,-0.5507813 -0.2695312,-0.703125 -0.4335937,-0.703125 -0.2460938,0 -0.5039063,0.2578125 -0.5039063,0.4804687 0,0.1289063 0.070312,0.1875 0.1523438,0.2695313 0.1171875,0.1054687 0.3632812,0.3632812 0.3632812,0.84375 0,0.3398437 -0.2929687,1.3125 -0.5507812,1.828125 -0.2578125,0.52734375 -0.609375,0.87890625 -1.0898438,0.87890625 -0.46875,0 -0.7382812,-0.3046875 -0.7382812,-0.8671875 0,-0.28125005 0.070312,-0.58593755 0.1054687,-0.72656255 z m 0,0"
       style="fill:#000000;fill-opacity:1;fill-rule:nonzero;stroke:none"
       aria-label="w"
       transform="matrix(1.3333333,0,0,1.3333333,58.910667,167.408)" />
    <path
       id="path31"
       d="m 0.856875,-0.43476562 c -0.0351563,0.0820313 -0.0703125,0.2578125 -0.0703125,0.28125 0,0.15234375 0.1171875,0.22265625 0.234375,0.22265625 0.1289063,0 0.234375,-0.09375 0.2695313,-0.15234375 0.035156,-0.05859375 0.09375,-0.29296875 0.1289062,-0.43359375 0.035156,-0.12890625 0.1054688,-0.45703125 0.1523438,-0.63281253 0.035156,-0.1523437 0.082031,-0.3046875 0.1171875,-0.4570312 0.082031,-0.2929688 0.09375,-0.3515625 0.2929687,-0.6328125 0.1992188,-0.28125 0.5273438,-0.6445313 1.0429688,-0.6445313 0.4101562,0 0.4101562,0.3632813 0.4101562,0.4921875 0,0.421875 -0.2929687,1.1953125 -0.4101562,1.48828128 -0.070312,0.1875 -0.1054688,0.2578125 -0.1054688,0.375 0,0.36328125 0.3046875,0.59765625 0.6679688,0.59765625 0.6914062,0 1.0078125,-0.9609375 1.0078125,-1.06640625 0,-0.09375 -0.09375,-0.09375 -0.1171875,-0.09375 -0.09375,0 -0.1054688,0.046875 -0.1289063,0.11718746 -0.1640625,0.5625 -0.46875,0.84375 -0.7382812,0.84375 -0.1523438,0 -0.1757813,-0.09375 -0.1757813,-0.24609375 0,-0.15234375 0.035156,-0.24609375 0.1523438,-0.5625 0.09375,-0.21093751 0.375,-0.94921871 0.375,-1.34765621 0,-0.6679688 -0.5390625,-0.7851563 -0.9023438,-0.7851563 -0.5859375,0 -0.9726562,0.3515625 -1.1835937,0.6328125 -0.046875,-0.4804687 -0.4570313,-0.6328125 -0.75,-0.6328125 -0.2929688,0 -0.4570313,0.2109375 -0.5507813,0.375 -0.15234375,0.2578125 -0.24609375,0.65625 -0.24609375,0.6914063 0,0.082031 0.09375,0.082031 0.1171875,0.082031 0.09375,0 0.10546875,-0.011719 0.15234375,-0.1992187 0.10546875,-0.421875 0.234375,-0.7617188 0.515625,-0.7617188 0.1757813,0 0.2226563,0.1523438 0.2226563,0.3398438 0,0.140625 -0.058594,0.3984375 -0.1054688,0.5859375 -0.046875,0.1875 -0.1171875,0.46875 -0.1523437,0.6210937 z m 0,0"
       style="fill:#000000;fill-opacity:1;fill-rule:nonzero;stroke:none"
       aria-label="n"
       transform="matrix(1.3333333,0,0,1.3333333,68.42,169.4)" />
    <path
       id="path32"
       d="m -26.48074,-56.69362 c 0,5.72576 -4.64151,10.36727 -10.36726,10.36727 -5.72576,0 -10.36727,-4.64151 -10.36727,-10.36727 0,-5.72574 4.64151,-10.36725 10.36727,-10.36725 5.72575,0 10.36726,4.64151 10.36726,10.36725 z"
       style="fill:#ccccff;fill-opacity:1;fill-rule:nonzero;stroke:#000000;stroke-width:0.3985;stroke-linecap:butt;stroke-linejoin:miter;stroke-miterlimit:10;stroke-dasharray:none;stroke-opacity:1"
       transform="matrix(1.3333333,0,0,-1.3333333,76.886667,89.953333)" />
    <path
       id="path33"
       d="m 3.3270859,-3.0130313 c 0.058594,-0.2578125 0.2929688,-1.171875 0.984375,-1.171875 0.046875,0 0.2929688,0 0.5039063,0.1289063 -0.28125,0.046875 -0.4804688,0.3046875 -0.4804688,0.5390625 0,0.1640625 0.1054688,0.3515625 0.375,0.3515625 0.2226563,0 0.5390625,-0.1875 0.5390625,-0.5859375 0,-0.515625 -0.5859375,-0.65625 -0.9257812,-0.65625 -0.5742188,0 -0.9257813,0.5273437 -1.0429688,0.7617187 -0.2578125,-0.65625 -0.7851562,-0.7617187 -1.078125,-0.7617187 -1.0429687,0 -1.60546871,1.2890625 -1.60546871,1.5351562 0,0.1054688 0.10546875,0.1054688 0.1171875,0.1054688 0.0820313,0 0.1171875,-0.023437 0.12890625,-0.1171875 0.33984376,-1.0546875 0.99609376,-1.3007813 1.33593746,-1.3007813 0.1875,0 0.5390625,0.09375 0.5390625,0.6679688 0,0.3046875 -0.1640625,0.9726562 -0.5390625,2.3671875 -0.1523437,0.62109375 -0.5039062,1.04296875 -0.9492187,1.04296875 -0.058594,0 -0.28125001,0 -0.49218751,-0.12890625 0.24609375,-0.0585938 0.46875001,-0.26953125 0.46875001,-0.5390625 0,-0.2695313 -0.22265626,-0.3515625 -0.37500001,-0.3515625 -0.29296875,0 -0.5390625,0.2578125 -0.5390625,0.57421875 0,0.45703125 0.4921875,0.65625 0.93750001,0.65625 0.65625,0 1.0078125,-0.69140625 1.0429687,-0.75 0.1171875,0.36328125 0.4804688,0.75 1.078125,0.75 1.0195313,0 1.59375,-1.27734375 1.59375,-1.53515625 0,-0.09375 -0.09375,-0.09375 -0.1289062,-0.09375 -0.082031,0 -0.1054688,0.035156 -0.1289063,0.1054687 -0.328125,1.0664063 -0.9960937,1.31250005 -1.3242187,1.31250005 -0.3867188,0 -0.5390625,-0.328125 -0.5390625,-0.65625 0,-0.22265625 0.058594,-0.44531255 0.1640625,-0.87890625 z m 0,0"
       style="fill:#000000;fill-opacity:1;fill-rule:nonzero;stroke:none"
       aria-label="x"
       transform="matrix(1.3333333,0,0,1.3333333,21.114667,167.408)" />
    <path
       id="path34"
       d="m 0.85574219,-0.43476562 c -0.0351563,0.0820313 -0.0703125,0.2578125 -0.0703125,0.28125 0,0.15234375 0.1171875,0.22265625 0.23437501,0.22265625 0.1289062,0 0.234375,-0.09375 0.2695312,-0.15234375 0.035156,-0.05859375 0.09375,-0.29296875 0.1289063,-0.43359375 0.035156,-0.12890625 0.1054687,-0.45703125 0.1523437,-0.63281253 0.035156,-0.1523437 0.082031,-0.3046875 0.1171875,-0.4570312 0.082031,-0.2929688 0.09375,-0.3515625 0.2929688,-0.6328125 0.1992187,-0.28125 0.5273437,-0.6445313 1.0429687,-0.6445313 0.4101563,0 0.4101563,0.3632813 0.4101563,0.4921875 0,0.421875 -0.2929688,1.1953125 -0.4101563,1.48828128 -0.070312,0.1875 -0.1054687,0.2578125 -0.1054687,0.375 0,0.36328125 0.3046875,0.59765625 0.6679687,0.59765625 0.6914063,0 1.0078125,-0.9609375 1.0078125,-1.06640625 0,-0.09375 -0.09375,-0.09375 -0.1171875,-0.09375 -0.09375,0 -0.1054687,0.046875 -0.1289062,0.11718746 -0.1640625,0.5625 -0.46875,0.84375 -0.7382813,0.84375 -0.1523437,0 -0.1757812,-0.09375 -0.1757812,-0.24609375 0,-0.15234375 0.035156,-0.24609375 0.1523437,-0.5625 0.09375,-0.21093751 0.375,-0.94921871 0.375,-1.34765621 0,-0.6679688 -0.5390625,-0.7851563 -0.9023437,-0.7851563 -0.5859375,0 -0.9726563,0.3515625 -1.1835938,0.6328125 -0.046875,-0.4804687 -0.4570312,-0.6328125 -0.75,-0.6328125 -0.29296871,0 -0.45703121,0.2109375 -0.55078121,0.375 -0.15234375,0.2578125 -0.24609375,0.65625 -0.24609375,0.6914063 0,0.082031 0.09375,0.082031 0.1171875,0.082031 0.09375,0 0.10546875,-0.011719 0.15234375,-0.1992187 0.10546875,-0.421875 0.234375,-0.7617188 0.51562501,-0.7617188 0.1757812,0 0.2226562,0.1523438 0.2226562,0.3398438 0,0.140625 -0.058594,0.3984375 -0.1054687,0.5859375 -0.046875,0.1875 -0.1171875,0.46875 -0.1523438,0.6210937 z m 0,0"
       style="fill:#000000;fill-opacity:1;fill-rule:nonzero;stroke:none"
       aria-label="n"
       transform="matrix(1.3333333,0,0,1.3333333,28.706667,169.4)" />
    <path
       id="path35"
       d="m -26.2815,-56.69362 h 5.69256"
       style="fill:none;stroke:#000000;stroke-width:0.3985;stroke-linecap:butt;stroke-linejoin:miter;stroke-miterlimit:10;stroke-dasharray:none;stroke-opacity:1"
       transform="matrix(1.3333333,0,0,-1.3333333,76.886667,89.953333)" />
    <path
       id="path36"
       d="M 3.58653,0 C 2.52383,0.19925 0.797,0.797 -0.3985,1.49438 V -1.49438 C 0.797,-0.797 2.52383,-0.19925 3.58653,0"
       style="fill:#000000;fill-opacity:1;fill-rule:nonzero;stroke:none"
       transform="matrix(1.3333333,0,0,-1.3333333,49.434747,165.54483)" />
    <path
       id="path37"
       d="m -8.89018,-50.28185 -2.11093,34.78345"
       style="fill:none;stroke:#000000;stroke-width:0.3985;stroke-linecap:butt;stroke-linejoin:miter;stroke-miterlimit:10;stroke-dasharray:none;stroke-opacity:1"
       transform="matrix(1.3333333,0,0,-1.3333333,76.886667,89.953333)" />
    <path
       id="path38"
       d="M 3.58653,0 C 2.52383,0.19925 0.797,0.797 -0.3985,1.49438 V -1.49438 C 0.797,-0.797 2.52383,-0.19925 3.58653,0"
       style="fill:#000000;fill-opacity:1;fill-rule:nonzero;stroke:none"
       transform="matrix(-0.08073333,-1.3308133,-1.3308133,0.08073333,62.21852,110.61788)" />
    <path
       id="path39"
       d="m -16.80315,22.1343 h 16.6039 v 12.42502 h -16.6039 z"
       style="fill:#ccccff;fill-opacity:1;fill-rule:nonzero;stroke:#000000;stroke-width:0.3985;stroke-linecap:butt;stroke-linejoin:miter;stroke-miterlimit:10;stroke-dasharray:none;stroke-opacity:1"
       transform="matrix(1.3333333,0,0,-1.3333333,76.886667,89.953333)" />
    <path
       id="path40"
       d="m 4.6050859,-3.3763516 c 0.046875,-0.2226562 0.140625,-0.5859375 0.140625,-0.6445312 0,-0.1875 -0.1289062,-0.2695313 -0.28125,-0.2695313 -0.1171875,0 -0.3046875,0.070312 -0.375,0.2695313 -0.023437,0.070312 -0.4921875,1.9804687 -0.5625,2.2382812 -0.070312,0.2929688 -0.09375,0.4804688 -0.09375,0.65625 0,0.1054688 0,0.12890629 0.011719,0.17578129 -0.2226563,0.52734375 -0.5273438,0.84375 -0.9140625,0.84375 -0.796875,0 -0.796875,-0.73828125 -0.796875,-0.91406249 0,-0.3164063 0.046875,-0.703125 0.515625,-1.9335938 0.1054687,-0.2929687 0.1757812,-0.4335937 0.1757812,-0.6328125 0,-0.4453125 -0.328125,-0.8203125 -0.8203125,-0.8203125 -0.94921871,0 -1.31249996,1.453125 -1.31249996,1.5351563 0,0.1054687 0.09375,0.1054687 0.1171875,0.1054687 0.09375,0 0.10546875,-0.023437 0.15234375,-0.1875 0.26953125,-0.9257812 0.66796871,-1.2304687 1.00781251,-1.2304687 0.09375,0 0.2578125,0.011719 0.2578125,0.328125 0,0.2460937 -0.1171875,0.5273437 -0.1875,0.703125 -0.4335938,1.171875 -0.5507813,1.6289062 -0.5507813,2.0039062 0,0.91406254 0.6679688,1.25390629 1.40625,1.25390629 0.1757813,0 0.6445313,0 1.0429688,-0.69140625 0.2578125,0.6328125 0.9492187,0.69140625 1.2421875,0.69140625 0.75,0 1.1835937,-0.62109375 1.4414062,-1.21874999 0.3398438,-0.7851563 0.65625,-2.109375 0.65625,-2.5898438 0,-0.5507812 -0.2695312,-0.703125 -0.4335937,-0.703125 -0.2460938,0 -0.5039063,0.2578125 -0.5039063,0.4804688 0,0.1289062 0.070312,0.1875 0.1523438,0.2695312 0.1171875,0.1054688 0.3632812,0.3632813 0.3632812,0.84375 0,0.3398438 -0.2929687,1.3125 -0.5507812,1.82812504 -0.2578125,0.52734375 -0.609375,0.87890625 -1.0898438,0.87890625 -0.46875,0 -0.7382812,-0.3046875 -0.7382812,-0.8671875 0,-0.28124999 0.070312,-0.58593749 0.1054687,-0.72656249 z m 0,0"
       style="fill:#000000;fill-opacity:1;fill-rule:nonzero;stroke:none"
       aria-label="w"
       transform="matrix(1.3333333,0,0,1.3333333,58.910667,54.021333)" />
    <path
       id="path41"
       d="m 2.3334375,-4.4289688 c 0,-0.1875 -0.011719,-0.1992187 -0.2109375,-0.1992187 -0.4453125,0.4335937 -1.078125,0.4453125 -1.359375,0.4453125 v 0.2460937 c 0.1640625,0 0.6210938,0 1.0078125,-0.1875 V -0.5735 c 0,0.234375 0,0.328125 -0.6914062,0.328125 H 0.81 V 7.1875e-4 C 0.93890625,-0.011 1.794375,-0.02271875 2.0521875,-0.02271875 c 0.2109375,0 1.0898438,0.01171875 1.2421875,0.0234375 V -0.245375 H 3.0365625 c -0.703125,0 -0.703125,-0.09375 -0.703125,-0.328125 z m 0,0"
       style="fill:#000000;fill-opacity:1;fill-rule:nonzero;stroke:none"
       aria-label="1"
       transform="matrix(1.3333333,0,0,1.3333333,68.42,56.014667)" />
    <path
       id="path42"
       d="m -26.48074,28.3468 c 0,5.72576 -4.64151,10.36727 -10.36726,10.36727 -5.72576,0 -10.36727,-4.64151 -10.36727,-10.36727 0,-5.72575 4.64151,-10.36726 10.36727,-10.36726 5.72575,0 10.36726,4.64151 10.36726,10.36726 z"
       style="fill:#ccccff;fill-opacity:1;fill-rule:nonzero;stroke:#000000;stroke-width:0.3985;stroke-linecap:butt;stroke-linejoin:miter;stroke-miterlimit:10;stroke-dasharray:none;stroke-opacity:1"
       transform="matrix(1.3333333,0,0,-1.3333333,76.886667,89.953333)" />
    <path
       id="path43"
       d="m 3.3270859,-3.0130703 c 0.058594,-0.2578125 0.2929688,-1.171875 0.984375,-1.171875 0.046875,0 0.2929688,0 0.5039063,0.1289062 -0.28125,0.046875 -0.4804688,0.3046875 -0.4804688,0.5390625 0,0.1640625 0.1054688,0.3515625 0.375,0.3515625 0.2226563,0 0.5390625,-0.1875 0.5390625,-0.5859375 0,-0.515625 -0.5859375,-0.65625 -0.9257812,-0.65625 -0.5742188,0 -0.9257813,0.5273438 -1.0429688,0.7617188 -0.2578125,-0.65625 -0.7851562,-0.7617188 -1.078125,-0.7617188 -1.0429687,0 -1.60546871,1.2890625 -1.60546871,1.5351563 0,0.1054687 0.10546875,0.1054687 0.1171875,0.1054687 0.0820313,0 0.1171875,-0.023437 0.12890625,-0.1171875 0.33984376,-1.0546875 0.99609376,-1.3007812 1.33593746,-1.3007812 0.1875,0 0.5390625,0.09375 0.5390625,0.6679687 0,0.3046875 -0.1640625,0.9726563 -0.5390625,2.3671875 -0.1523437,0.62109379 -0.5039062,1.04296879 -0.9492187,1.04296879 -0.058594,0 -0.28125001,0 -0.49218751,-0.12890625 0.24609375,-0.0585937 0.46875001,-0.26953125 0.46875001,-0.5390625 0,-0.26953124 -0.22265626,-0.35156254 -0.37500001,-0.35156254 -0.29296875,0 -0.5390625,0.25781254 -0.5390625,0.57421879 0,0.45703125 0.4921875,0.65625 0.93750001,0.65625 0.65625,0 1.0078125,-0.69140625 1.0429687,-0.75 0.1171875,0.36328125 0.4804688,0.75 1.078125,0.75 1.0195313,0 1.59375,-1.27734379 1.59375,-1.53515629 0,-0.09375 -0.09375,-0.09375 -0.1289062,-0.09375 -0.082031,0 -0.1054688,0.035156 -0.1289063,0.1054688 -0.328125,1.06640624 -0.9960937,1.31249999 -1.3242187,1.31249999 -0.3867188,0 -0.5390625,-0.328125 -0.5390625,-0.65625 0,-0.22265625 0.058594,-0.44531249 0.1640625,-0.87890629 z m 0,0"
       style="fill:#000000;fill-opacity:1;fill-rule:nonzero;stroke:none"
       aria-label="x"
       transform="matrix(1.3333333,0,0,1.3333333,21.114667,54.021333)" />
    <path
       id="path44"
       d="m 2.3323047,-4.4289688 c 0,-0.1875 -0.011719,-0.1992187 -0.2109375,-0.1992187 -0.4453125,0.4335937 -1.078125,0.4453125 -1.35937501,0.4453125 v 0.2460937 c 0.1640625,0 0.62109371,0 1.00781251,-0.1875 V -0.5735 c 0,0.234375 0,0.328125 -0.6914063,0.328125 H 0.80886719 V 7.1875e-4 C 0.93777344,-0.011 1.7932422,-0.02271875 2.0510547,-0.02271875 c 0.2109375,0 1.0898437,0.01171875 1.2421875,0.0234375 V -0.245375 H 3.0354297 c -0.703125,0 -0.703125,-0.09375 -0.703125,-0.328125 z m 0,0"
       style="fill:#000000;fill-opacity:1;fill-rule:nonzero;stroke:none"
       aria-label="1"
       transform="matrix(1.3333333,0,0,1.3333333,28.706667,56.014667)" />
    <path
       id="path45"
       d="m -26.2815,28.3468 h 5.69256"
       style="fill:none;stroke:#000000;stroke-width:0.3985;stroke-linecap:butt;stroke-linejoin:miter;stroke-miterlimit:10;stroke-dasharray:none;stroke-opacity:1"
       transform="matrix(1.3333333,0,0,-1.3333333,76.886667,89.953333)" />
    <path
       id="path46"
       d="M 3.58653,0 C 2.52383,0.19925 0.797,0.797 -0.3985,1.49438 V -1.49438 C 0.797,-0.797 2.52383,-0.19925 3.58653,0"
       style="fill:#000000;fill-opacity:1;fill-rule:nonzero;stroke:none"
       transform="matrix(1.3333333,0,0,-1.3333333,49.434747,52.1576)" />
    <path
       id="path47"
       d="m -9.27917,21.93503 -0.79162,-6.52075"
       style="fill:none;stroke:#000000;stroke-width:0.3985;stroke-linecap:butt;stroke-linejoin:miter;stroke-miterlimit:10;stroke-dasharray:none;stroke-opacity:1"
       transform="matrix(1.3333333,0,0,-1.3333333,76.886667,89.953333)" />
    <path
       id="path48"
       d="M 3.58653,0 C 2.52383,0.19925 0.797,0.797 -0.3985,1.49438 V -1.49438 C 0.797,-0.797 2.52383,-0.19925 3.58653,0"
       style="fill:#000000;fill-opacity:1;fill-rule:nonzero;stroke:none"
       transform="matrix(-0.16064,1.3235867,1.3235867,0.16064,63.458947,69.400947)" />
    <path
       id="path49"
       d="m -16.80315,50.4811 h 16.6039 v 12.42502 h -16.6039 z"
       style="fill:#ccccff;fill-opacity:1;fill-rule:nonzero;stroke:#000000;stroke-width:0.3985;stroke-linecap:butt;stroke-linejoin:miter;stroke-miterlimit:10;stroke-dasharray:none;stroke-opacity:1"
       transform="matrix(1.3333333,0,0,-1.3333333,76.886667,89.953333)" />
    <path
       id="path50"
       d="m 4.6050859,-3.3750781 c 0.046875,-0.2226563 0.140625,-0.5859375 0.140625,-0.6445313 0,-0.1875 -0.1289062,-0.2695312 -0.28125,-0.2695312 -0.1171875,0 -0.3046875,0.070312 -0.375,0.2695312 -0.023437,0.070312 -0.4921875,1.9804688 -0.5625,2.2382813 -0.070312,0.2929687 -0.09375,0.4804687 -0.09375,0.65625 0,0.1054687 0,0.12890623 0.011719,0.17578123 -0.2226563,0.52734375 -0.5273438,0.84375 -0.9140625,0.84375 -0.796875,0 -0.796875,-0.73828125 -0.796875,-0.91406253 0,-0.3164062 0.046875,-0.703125 0.515625,-1.9335937 0.1054687,-0.2929688 0.1757812,-0.4335938 0.1757812,-0.6328125 0,-0.4453125 -0.328125,-0.8203125 -0.8203125,-0.8203125 -0.94921871,0 -1.31249996,1.453125 -1.31249996,1.5351562 0,0.1054688 0.09375,0.1054688 0.1171875,0.1054688 0.09375,0 0.10546875,-0.023437 0.15234375,-0.1875 0.26953125,-0.9257813 0.66796871,-1.2304688 1.00781251,-1.2304688 0.09375,0 0.2578125,0.011719 0.2578125,0.328125 0,0.2460938 -0.1171875,0.5273438 -0.1875,0.703125 -0.4335938,1.171875 -0.5507813,1.6289063 -0.5507813,2.0039063 0,0.91406248 0.6679688,1.25390623 1.40625,1.25390623 0.1757813,0 0.6445313,0 1.0429688,-0.69140625 0.2578125,0.6328125 0.9492187,0.69140625 1.2421875,0.69140625 0.75,0 1.1835937,-0.62109375 1.4414062,-1.21875003 0.3398438,-0.7851562 0.65625,-2.109375 0.65625,-2.5898437 0,-0.5507813 -0.2695312,-0.703125 -0.4335937,-0.703125 -0.2460938,0 -0.5039063,0.2578125 -0.5039063,0.4804687 0,0.1289063 0.070312,0.1875 0.1523438,0.2695313 0.1171875,0.1054687 0.3632812,0.3632812 0.3632812,0.84375 0,0.3398437 -0.2929687,1.3125 -0.5507812,1.82812498 -0.2578125,0.52734375 -0.609375,0.87890625 -1.0898438,0.87890625 -0.46875,0 -0.7382812,-0.3046875 -0.7382812,-0.8671875 0,-0.28125003 0.070312,-0.58593753 0.1054687,-0.72656253 z m 0,0"
       style="fill:#000000;fill-opacity:1;fill-rule:nonzero;stroke:none"
       aria-label="w"
       transform="matrix(1.3333333,0,0,1.3333333,58.910667,16.226667)" />
    <path
       id="path51"
       d="m 3.5990625,-2.2265 c 0,-0.7617187 -0.09375,-1.3125 -0.4101562,-1.8046875 C 2.96625,-4.3475937 2.544375,-4.6288437 1.981875,-4.6288437 c -1.6171875,0 -1.6171875,1.8984375 -1.6171875,2.4023437 0,0.5039063 0,2.3671875 1.6171875,2.3671875 1.6171875,0 1.6171875,-1.8632812 1.6171875,-2.3671875 z M 1.981875,-0.05853125 c -0.3164062,0 -0.75,-0.1875 -0.890625,-0.76171875 -0.09375,-0.4101562 -0.09375,-0.984375 -0.09375,-1.5 0,-0.5039062 0,-1.03125 0.1054688,-1.4179687 C 1.2553125,-4.289 1.700625,-4.429625 1.981875,-4.429625 c 0.375,0 0.7382813,0.2226563 0.8671875,0.6328125 0.1054688,0.375 0.1171875,0.8789063 0.1171875,1.4765625 0,0.515625 0,1.0429688 -0.09375,1.4765625 -0.140625,0.6328125 -0.609375,0.78515625 -0.890625,0.78515625 z m 0,0"
       style="fill:#000000;fill-opacity:1;fill-rule:nonzero;stroke:none"
       aria-label="0"
       transform="matrix(1.3333333,0,0,1.3333333,68.42,18.218667)" />
    <path
       id="path52"
       d="m -26.27449,56.69362 c 0,5.83964 -4.73386,10.57352 -10.57351,10.57352 -5.83967,0 -10.57352,-4.73388 -10.57352,-10.57352 0,-5.83966 4.73385,-10.57353 10.57352,-10.57353 5.83965,0 10.57351,4.73387 10.57351,10.57353 z"
       style="fill:#ccccff;fill-opacity:1;fill-rule:nonzero;stroke:#000000;stroke-width:0.3985;stroke-linecap:butt;stroke-linejoin:miter;stroke-miterlimit:10;stroke-dasharray:none;stroke-opacity:1"
       transform="matrix(1.3333333,0,0,-1.3333333,76.886667,89.953333)" />
    <path
       id="path53"
       d="m 2.9308125,-6.3746016 c 0,-0.234375 0,-0.2578125 -0.234375,-0.2578125 -0.609375,0.6328125 -1.4882813,0.6328125 -1.8046875,0.6328125 v 0.3164063 c 0.1992187,0 0.7851562,0 1.3007812,-0.2578125 v 5.15624999 c 0,0.3515625 -0.035156,0.48046875 -0.9257812,0.48046875 H 0.95034375 V 3.984375e-4 C 1.3019062,-0.03475781 2.157375,-0.03475781 2.5558125,-0.03475781 c 0.3984375,0 1.265625,0 1.6171875,0.0351562475 V -0.30428906 H 3.8565937 c -0.9023437,0 -0.9257812,-0.1171875 -0.9257812,-0.48046875 z m 0,0"
       style="fill:#000000;fill-opacity:1;fill-rule:nonzero;stroke:none"
       aria-label="1"
       transform="matrix(1.3333333,0,0,1.3333333,24.436,18.644)" />
    <path
       id="path54"
       d="m -26.07523,56.69362 h 5.48629"
       style="fill:none;stroke:#000000;stroke-width:0.3985;stroke-linecap:butt;stroke-linejoin:miter;stroke-miterlimit:10;stroke-dasharray:none;stroke-opacity:1"
       transform="matrix(1.3333333,0,0,-1.3333333,76.886667,89.953333)" />
    <path
       id="path55"
       d="M 3.58653,0 C 2.52383,0.19925 0.797,0.797 -0.3985,1.49438 V -1.49438 C 0.797,-0.797 2.52383,-0.19925 3.58653,0"
       style="fill:#000000;fill-opacity:1;fill-rule:nonzero;stroke:none"
       transform="matrix(1.3333333,0,0,-1.3333333,49.434747,14.36184)" />
    <path
       id="path56"
       d="M -8.89018,50.28185 -11.00111,15.4984"
       style="fill:none;stroke:#000000;stroke-width:0.3985;stroke-linecap:butt;stroke-linejoin:miter;stroke-miterlimit:10;stroke-dasharray:none;stroke-opacity:1"
       transform="matrix(1.3333333,0,0,-1.3333333,76.886667,89.953333)" />
    <path
       id="path57"
       d="M 3.58653,0 C 2.52383,0.19925 0.797,0.797 -0.3985,1.49438 V -1.49438 C 0.797,-0.797 2.52383,-0.19925 3.58653,0"
       style="fill:#000000;fill-opacity:1;fill-rule:nonzero;stroke:none"
       transform="matrix(-0.08073333,1.3308133,1.3308133,0.08073333,62.21852,69.288787)" />
    <path
       id="path58"
       d="M 1.9092344,8.59375e-4 V -0.24523437 c -0.3984375,0 -0.46875,0 -0.46875,-0.29296875 V -3.0694531 l -1.03125003,0.070312 v 0.2578125 c 0.4453125,0 0.50390625,0.035156 0.50390625,0.375 v 1.81640623 c 0,0.3046875 -0.0703125,0.3046875 -0.52734375,0.3046875 V 8.59375e-4 c 0,0 0.50390625,-0.023437495 0.78515623,-0.023437495 0.2460938,0 0.4921875,0 0.7382813,0.023437495 z M 1.5225156,-4.1944531 c 0,-0.2226563 -0.1757812,-0.4101563 -0.3984375,-0.4101563 -0.23437498,0 -0.39843748,0.1992188 -0.39843748,0.3984375 0,0.2226563 0.17578125,0.4101563 0.39843748,0.4101563 0.2460938,0 0.3984375,-0.1992188 0.3984375,-0.3984375 z M 6.3652891,8.59375e-4 V -0.24523437 c -0.4570313,0 -0.5273438,0 -0.5273438,-0.3046875 V -2.1085156 c 0,-0.609375 -0.2929687,-0.9609375 -1.0429687,-0.9609375 -0.5742188,0 -0.9375,0.3046875 -1.1367188,0.6679687 v -0.6679687 l -1.03125,0.070312 v 0.2578125 c 0.46875,0 0.5273438,0.046875 0.5273438,0.3867187 v 1.80468753 c 0,0.3046875 -0.070312,0.3046875 -0.5273438,0.3046875 V 8.59375e-4 c 0,0 0.5039063,-0.023437495 0.796875,-0.023437495 0.2578125,0 0.7382813,0.01171875 0.796875,0.023437495 V -0.24523437 c -0.4453125,0 -0.515625,0 -0.515625,-0.3046875 V -1.8038281 c 0,-0.7382813 0.5742188,-1.078125 1.03125,-1.078125 0.4921875,0 0.5507813,0.3867187 0.5507813,0.7382812 v 1.59375003 c 0,0.3046875 -0.070312,0.3046875 -0.515625,0.3046875 V 8.59375e-4 c 0,0 0.5039062,-0.023437495 0.796875,-0.023437495 0.2578125,0 0.7382812,0.01171875 0.796875,0.023437495 z M 10.718805,-1.5108594 c 0,-0.8554687 -0.703125,-1.5585937 -1.5937503,-1.5585937 -0.3984375,0 -0.796875,0.140625 -1.0898438,0.421875 v -0.421875 l -1.0429687,0.070312 v 0.2578125 c 0.4921875,0 0.5273437,0.035156 0.5273437,0.328125 v 3.21093748 c 0,0.30468752 -0.070312,0.30468752 -0.5273437,0.30468752 v 0.2460937 c 0,0 0.5039062,-0.023437 0.796875,-0.023437 0.2578125,0 0.7382812,0.023437 0.796875,0.023437 V 1.1024219 c -0.4453125,0 -0.515625,0 -0.515625,-0.30468752 v -1.13671875 c 0.035156,0.0351563 0.3632812,0.41015625 0.9492187,0.41015625 0.9140625,0 1.6992191,-0.69140625 1.6992191,-1.58203128 z m -0.632813,0 c 0,0.79687503 -0.5156248,1.38281253 -1.1132811,1.38281253 -0.609375,0 -0.8789062,-0.5390625 -0.9023437,-0.57421875 V -2.3194531 c 0.2109375,-0.3515625 0.609375,-0.5273438 0.984375,-0.5273438 0.5859375,0 1.0312498,0.609375 1.0312498,1.3359375 z M 15.16607,8.59375e-4 V -0.24523437 c -0.46875,0 -0.527343,-0.0585937 -0.527343,-0.3984375 V -3.0694531 l -1.066407,0.070312 v 0.2578125 c 0.46875,0 0.515625,0.046875 0.515625,0.3867187 v 1.1953125 c 0,0.60937503 -0.386718,1.03125003 -0.925781,1.03125003 -0.632812,0 -0.65625,-0.29296875 -0.65625,-0.65625 V -3.0694531 l -1.078125,0.070312 v 0.2578125 c 0.527344,0 0.527344,0.011719 0.527344,0.6328125 v 1.0546875 c 0,0.48046873 0,1.12499998 1.160156,1.12499998 0.152344,0 0.667969,0 0.996094,-0.5859375 h 0.01172 v 0.5859375 z M 18.066461,-0.87804687 V -1.2647656 h -0.234375 v 0.37499998 c 0,0.48046875 -0.222656,0.73828125 -0.492188,0.73828125 -0.480468,0 -0.480468,-0.5859375 -0.480468,-0.71484375 V -2.7530469 h 1.078125 V -2.9991406 H 16.85943 v -1.2890625 h -0.246094 c 0,0.6328125 -0.292969,1.3242187 -0.960938,1.3359375 v 0.1992187 h 0.65625 v 1.88671878 c 0,0.7734375 0.585938,0.9375 0.972657,0.9375 0.46875,0 0.785156,-0.3984375 0.785156,-0.94921875 z m 3.333984,-0.0351563 c 0,-0.26953133 -0.117187,-0.46875003 -0.292968,-0.64453133 -0.269532,-0.2460937 -0.585938,-0.2929687 -0.832032,-0.3398437 -0.5625,-0.09375 -1.007812,-0.1757813 -1.007812,-0.5507813 0,-0.2226562 0.1875,-0.4921875 0.84375,-0.4921875 0.808594,0 0.84375,0.5625 0.855469,0.7617188 0.01172,0.082031 0.09375,0.082031 0.117187,0.082031 0.128906,0 0.128906,-0.046875 0.128906,-0.1875 v -0.6445312 c 0,-0.1171874 0,-0.1757813 -0.105468,-0.1757813 -0.03516,0 -0.04687,0 -0.140625,0.082031 -0.01172,0 -0.08203,0.070312 -0.117188,0.1054686 -0.210937,-0.1523436 -0.480469,-0.1875 -0.738281,-0.1875 -0.996094,0 -1.230469,0.515625 -1.230469,0.8671875 0,0.2226564 0.09375,0.4101563 0.257813,0.5390626 0.269531,0.234375 0.539062,0.28125 0.960937,0.3515625 0.351563,0.070312 0.914063,0.1640625 0.914063,0.63281248 0,0.26953125 -0.1875,0.5859375 -0.855469,0.5859375 -0.667969,0 -0.914063,-0.43359375 -1.03125,-0.91406248 -0.02344,-0.082031 -0.03516,-0.1171875 -0.128906,-0.1171875 -0.117188,0 -0.117188,0.046875 -0.117188,0.18749998 v 0.85546875 c 0,0.12890625 0,0.1875 0.09375,0.1875 0.05859,0 0.199219,-0.15234375 0.339844,-0.3046875 0.304687,0.29296875 0.679687,0.3046875 0.84375,0.3046875 0.914062,0 1.242187,-0.4921875 1.242187,-0.9843745 z m 0,0"
       style="fill:#000000;fill-opacity:1;fill-rule:nonzero;stroke:none"
       aria-label="inputs"
       transform="matrix(1.3333333,0,0,1.3333333,13.274667,205.50667)" />
    <path
       id="path59"
       d="m 5.4622734,-2.7539453 v -0.2460938 c -0.1875,0.011719 -0.2929687,0.023437 -0.4921875,0.023437 -0.2109375,0 -0.4804687,-0.011719 -0.6914062,-0.023437 v 0.2460938 c 0.2460937,0.011719 0.3632812,0.140625 0.3632812,0.3046875 0,0.058594 0,0.070312 -0.035156,0.1640625 l -0.6796875,1.74609374 -0.75,-1.91015624 c -0.011719,-0.035156 -0.035156,-0.09375 -0.035156,-0.1289063 0,-0.1523437 0.1757813,-0.1757812 0.375,-0.1757812 v -0.2460938 c -0.2578125,0.011719 -0.5039062,0.023437 -0.75,0.023437 -0.2109375,0 -0.4101562,-0.011719 -0.6210937,-0.023437 v 0.2460938 c 0.1640625,0 0.3046875,0 0.3984375,0.058594 0.1054687,0.070312 0.1640625,0.3046875 0.1640625,0.3046875 0,0 -0.011719,0.058594 -0.035156,0.082031 L 2.0286797,-0.64457031 1.3138359,-2.4492578 c -0.035156,-0.09375 -0.035156,-0.1054688 -0.035156,-0.1289063 0,-0.1757812 0.2460937,-0.1757812 0.375,-0.1757812 v -0.2460938 c 0,0 -0.5039063,0.023437 -0.78515626,0.023437 -0.22265625,0 -0.4453125,-0.011719 -0.65625,-0.023437 v 0.2460938 c 0.26953125,0 0.421875,0 0.50390625,0.1992187 l 0.96093751,2.46093754 c 0.046875,0.10546875 0.070312,0.1640625 0.1875,0.1640625 0.1289062,0 0.1523437,-0.05859375 0.1875,-0.15234375 l 0.7851562,-1.99218749 0.7734375,1.98046874 c 0.046875,0.10546875 0.070312,0.1640625 0.1992188,0.1640625 0.1289062,0 0.140625,-0.046875 0.1875,-0.1640625 l 0.890625,-2.23828124 c 0.1289062,-0.3398438 0.3632812,-0.4101563 0.5742185,-0.421875 z m 3.2695313,1.92187499 c 0,-0.0351563 -0.011719,-0.10546875 -0.1171875,-0.10546875 -0.082031,0 -0.1054688,0.046875 -0.1171875,0.1171875 -0.2226563,0.5625 -0.75,0.66796875 -0.9960938,0.66796875 -0.328125,0 -0.6445312,-0.15234375 -0.8554687,-0.41015625 C 6.3880547,-0.89066406 6.3763359,-1.3125391 6.3763359,-1.5937891 h 2.1679688 c 0.140625,0 0.1875,0 0.1875,-0.1523437 0,-0.609375 -0.3398438,-1.359375 -1.3710938,-1.359375 -0.9140625,0 -1.6171875,0.7265625 -1.6171875,1.5820312 0,0.87890629 0.7734375,1.59375004 1.6992188,1.59375004 0.9492187,0 1.2890625,-0.75 1.2890625,-0.90234375 z M 8.2513359,-1.7695703 H 6.3880547 c 0.070312,-0.984375 0.703125,-1.1484375 0.9726562,-1.1484375 0.8554688,0 0.8789063,0.9726562 0.890625,1.1484375 z M 10.926141,-3.90625e-5 V -0.24613281 c -0.398438,0 -0.46875,0 -0.46875,-0.29296875 V -3.0703516 l -1.0312504,0.070312 v 0.2578125 c 0.4453125,0 0.5039063,0.035156 0.5039063,0.375 v 1.81640629 c 0,0.3046875 -0.070312,0.3046875 -0.5273438,0.3046875 V -3.90625e-5 c 0,0 0.5039063,-0.0234374975 0.7851559,-0.0234374975 0.246094,0 0.492188,0 0.738282,0.0234374975 z M 10.539422,-4.1953516 c 0,-0.2226562 -0.175781,-0.4101562 -0.398438,-0.4101562 -0.2343746,0 -0.3984371,0.1992187 -0.3984371,0.3984375 0,0.2226562 0.1757812,0.4101562 0.3984371,0.4101562 0.246094,0 0.398438,-0.1992187 0.398438,-0.3984375 z m 4.526367,1.40625 c 0,-0.1640625 -0.128906,-0.3515625 -0.410156,-0.3515625 -0.105469,0 -0.480469,0.011719 -0.808594,0.3164063 -0.210937,-0.1523438 -0.503906,-0.2460938 -0.808594,-0.2460938 -0.714843,0 -1.242187,0.4804688 -1.242187,1.0195313 0,0.2695312 0.140625,0.5273437 0.339844,0.703125 -0.05859,0.070312 -0.210938,0.2929687 -0.210938,0.56249999 0,0.09375 0.02344,0.421875 0.292969,0.62109375 -0.316406,0.10546875 -0.679688,0.33984375 -0.679688,0.703125 0,0.50390626 0.773438,0.89062496 1.710938,0.89062496 0.890625,0 1.710937,-0.3515625 1.710937,-0.90234371 0,-0.2109375 -0.08203,-0.5859375 -0.46875,-0.796875 -0.410156,-0.22265625 -0.820312,-0.22265625 -1.5,-0.22265625 -0.152343,0 -0.410156,0 -0.457031,0 -0.222656,-0.046875 -0.351562,-0.2578125 -0.351562,-0.46875 0,-0.16406254 0.04687,-0.22265624 0.09375,-0.28125004 0.105468,0.058594 0.351562,0.2226563 0.761718,0.2226563 0.714844,0 1.230469,-0.4921875 1.230469,-1.03125 0,-0.2695313 -0.117187,-0.4921875 -0.292969,-0.6679688 0.316407,-0.2226562 0.585938,-0.234375 0.714844,-0.234375 -0.03516,0.035156 -0.07031,0.058594 -0.07031,0.1757813 0,0.1289062 0.105468,0.2226562 0.222656,0.2226562 0.105469,0 0.222656,-0.070312 0.222656,-0.234375 z m -1.347656,0.7382813 c 0,0.1171875 0,0.3867187 -0.140625,0.5742187 -0.09375,0.1171875 -0.28125,0.2460938 -0.539063,0.2460938 -0.679687,0 -0.679687,-0.6679688 -0.679687,-0.8203125 0,-0.1054688 0,-0.3867188 0.140625,-0.5742188 0.09375,-0.1171875 0.28125,-0.2460937 0.539062,-0.2460937 0.679688,0 0.679688,0.6796875 0.679688,0.8203125 z m 0.808594,2.57812499 c 0,0.375 -0.550782,0.69140621 -1.277344,0.69140621 -0.726563,0 -1.277344,-0.32812496 -1.277344,-0.69140621 0,-0.24609375 0.222656,-0.5390625 0.667969,-0.55078125 h 0.398437 c 0.621094,0 1.488282,0 1.488282,0.55078125 z M 19.351922,-3.90625e-5 V -0.24613281 c -0.457031,0 -0.527344,0 -0.527344,-0.3046875 V -2.1094141 c 0,-0.609375 -0.292969,-0.9609375 -1.042969,-0.9609375 -0.621093,0 -0.960937,0.3632813 -1.113281,0.6328125 h -0.01172 v -2.4023437 l -1.042968,0.082031 v 0.2460938 c 0.46875,0 0.527343,0.046875 0.527343,0.3867187 v 3.57421879 c 0,0.3046875 -0.07031,0.3046875 -0.527343,0.3046875 V -3.90625e-5 c 0,0 0.503906,-0.0234374975 0.796875,-0.0234374975 0.257812,0 0.738281,0.01171875 0.796875,0.0234374975 V -0.24613281 c -0.445313,0 -0.515625,0 -0.515625,-0.3046875 V -1.8047266 c 0,-0.7382812 0.574218,-1.078125 1.03125,-1.078125 0.492187,0 0.550781,0.3867188 0.550781,0.7382813 v 1.59374999 c 0,0.3046875 -0.07031,0.3046875 -0.515625,0.3046875 V -3.90625e-5 c 0,0 0.503906,-0.0234374975 0.796875,-0.0234374975 0.257812,0 0.738281,0.01171875 0.796875,0.0234374975 z M 22.035516,-0.87894531 V -1.2656641 h -0.234375 v 0.37500004 c 0,0.48046875 -0.222657,0.73828125 -0.492188,0.73828125 -0.480469,0 -0.480469,-0.5859375 -0.480469,-0.71484375 V -2.7539453 h 1.078125 v -0.2460938 h -1.078125 v -1.2890625 h -0.246093 c 0,0.6328125 -0.292969,1.3242188 -0.960938,1.3359375 v 0.1992188 h 0.65625 v 1.88671874 c 0,0.7734375 0.585938,0.9375 0.972656,0.9375 0.46875,0 0.785157,-0.3984375 0.785157,-0.94921875 z m 3.333984,-0.0351563 c 0,-0.26953119 -0.117188,-0.46875009 -0.292969,-0.64453119 C 24.807,-1.8047266 24.490594,-1.8516016 24.2445,-1.8984766 c -0.5625,-0.09375 -1.007813,-0.1757812 -1.007813,-0.5507812 0,-0.2226563 0.1875,-0.4921875 0.84375,-0.4921875 0.808594,0 0.84375,0.5625 0.855469,0.7617187 0.01172,0.082031 0.09375,0.082031 0.117188,0.082031 0.128906,0 0.128906,-0.046875 0.128906,-0.1875 v -0.6445313 c 0,-0.1171875 0,-0.1757812 -0.105469,-0.1757812 -0.03516,0 -0.04687,0 -0.140625,0.082031 -0.01172,0 -0.08203,0.070312 -0.117187,0.1054688 -0.210938,-0.1523438 -0.480469,-0.1875 -0.738282,-0.1875 -0.996093,0 -1.230468,0.515625 -1.230468,0.8671875 0,0.2226562 0.09375,0.4101562 0.257812,0.5390625 0.269531,0.234375 0.539063,0.28125 0.960938,0.3515625 0.351562,0.070312 0.914062,0.1640625 0.914062,0.63281249 0,0.26953125 -0.1875,0.5859375 -0.855469,0.5859375 -0.667968,0 -0.914062,-0.43359375 -1.03125,-0.91406249 -0.02344,-0.082031 -0.03516,-0.1171875 -0.128906,-0.1171875 -0.117187,0 -0.117187,0.046875 -0.117187,0.18749999 v 0.85546875 c 0,0.12890625 0,0.1875 0.09375,0.1875 0.05859,0 0.199218,-0.15234375 0.339843,-0.3046875 0.304688,0.29296875 0.679688,0.3046875 0.84375,0.3046875 0.914063,0 1.242188,-0.4921875 1.242188,-0.98437455 z m 0,0"
       style="fill:#000000;fill-opacity:1;fill-rule:nonzero;stroke:none"
       aria-label="weights"
       transform="matrix(1.3333333,0,0,1.3333333,48.424,205.61333)" />
  </g>
</svg>
