<?xml version="1.0" encoding="UTF-8" standalone="no"?>
<!-- Created with Inkscape (http://www.inkscape.org/) -->

<svg
   version="1.1"
   id="svg1"
   width="227.244"
   height="206.25467"
   viewBox="0 0 227.244 206.25467"
   xmlns="http://www.w3.org/2000/svg"
   xmlns:svg="http://www.w3.org/2000/svg">
  <defs
     id="defs1" />
  <g
     id="g1">
    <path
       id="path1"
       d="m 16.29933,99.21382 c 0,9.00198 -7.29735,16.29933 -16.29933,16.29933 -9.00198,0 -16.29933,-7.29735 -16.29933,-16.29933 0,-9.00198 7.29735,-16.29933 16.29933,-16.29933 9.00198,0 16.29933,7.29735 16.29933,16.29933 z"
       style="fill:none;stroke:#000000;stroke-width:0.3985;stroke-linecap:butt;stroke-linejoin:miter;stroke-miterlimit:10;stroke-dasharray:none;stroke-opacity:1"
       transform="matrix(1.3333333,0,0,-1.3333333,36.590667,184.25733)" />
    <path
       id="path2"
       d="m 3.3284297,-3.0127656 c 0.058594,-0.2578125 0.2929687,-1.171875 0.984375,-1.171875 0.046875,0 0.2929687,0 0.5039062,0.1289062 -0.28125,0.046875 -0.4804687,0.3046875 -0.4804687,0.5390625 0,0.1640625 0.1054687,0.3515625 0.375,0.3515625 0.2226562,0 0.5390625,-0.1875 0.5390625,-0.5859375 0,-0.515625 -0.5859375,-0.65625 -0.9257813,-0.65625 -0.5742187,0 -0.9257812,0.5273438 -1.0429687,0.7617188 -0.2578125,-0.65625 -0.7851563,-0.7617188 -1.078125,-0.7617188 -1.0429688,0 -1.60546876,1.2890625 -1.60546876,1.5351563 0,0.1054687 0.10546875,0.1054687 0.1171875,0.1054687 0.0820313,0 0.1171875,-0.023437 0.12890625,-0.1171875 0.33984371,-1.0546875 0.99609371,-1.3007812 1.33593751,-1.3007812 0.1875,0 0.5390625,0.09375 0.5390625,0.6679687 0,0.3046875 -0.1640625,0.9726563 -0.5390625,2.3671875 -0.1523438,0.62109377 -0.5039063,1.04296877 -0.9492188,1.04296877 -0.058594,0 -0.28124996,0 -0.49218746,-0.12890625 0.24609375,-0.0585937 0.46874996,-0.26953125 0.46874996,-0.5390625 0,-0.26953122 -0.22265621,-0.35156252 -0.37499996,-0.35156252 -0.29296875,0 -0.5390625,0.25781252 -0.5390625,0.57421877 0,0.45703125 0.4921875,0.65625 0.93749996,0.65625 0.65625,0 1.0078125,-0.69140625 1.0429688,-0.75 0.1171875,0.36328125 0.4804687,0.75 1.078125,0.75 1.0195312,0 1.59375,-1.27734377 1.59375,-1.53515627 0,-0.09375 -0.09375,-0.09375 -0.1289063,-0.09375 -0.082031,0 -0.1054687,0.035156 -0.1289062,0.1054688 -0.328125,1.06640622 -0.9960938,1.31249997 -1.3242188,1.31249997 -0.3867187,0 -0.5390625,-0.328125 -0.5390625,-0.65625 0,-0.22265625 0.058594,-0.44531247 0.1640625,-0.87890627 z m 0,0"
       style="fill:#000000;fill-opacity:1;fill-rule:nonzero;stroke:none"
       aria-label="x"
       transform="matrix(1.3333333,0,0,1.3333333,29.816,53.837333)" />
    <path
       id="path3"
       d="m 3.5963437,-2.2274687 c 0,-0.7617188 -0.09375,-1.3125 -0.4101562,-1.8046875 -0.2226563,-0.3164063 -0.6445313,-0.5976563 -1.2070313,-0.5976563 -1.61718745,0 -1.61718745,1.8984375 -1.61718745,2.4023438 0,0.5039062 0,2.36718745 1.61718745,2.36718745 1.6171875,0 1.6171875,-1.86328125 1.6171875,-2.36718745 z M 1.9791562,-0.0595 c -0.3164062,0 -0.75,-0.1875 -0.890625,-0.76171875 -0.09375,-0.41015625 -0.09375,-0.98437495 -0.09375,-1.49999995 0,-0.5039063 0,-1.03125 0.1054687,-1.4179688 0.1523438,-0.5507812 0.5976563,-0.6914062 0.8789063,-0.6914062 0.375,0 0.7382813,0.2226562 0.8671875,0.6328125 0.1054688,0.375 0.1171875,0.8789062 0.1171875,1.4765625 0,0.515625 0,1.0429687 -0.09375,1.47656245 C 2.7291562,-0.21184375 2.2604062,-0.0595 1.9791562,-0.0595 Z m 0,0"
       style="fill:#000000;fill-opacity:1;fill-rule:nonzero;stroke:none"
       aria-label="0"
       transform="matrix(1.3333333,0,0,1.3333333,37.408,55.829333)" />
    <path
       id="path4"
       d="m 16.29933,56.69362 c 0,9.00198 -7.29735,16.29933 -16.29933,16.29933 -9.00198,0 -16.29933,-7.29735 -16.29933,-16.29933 0,-9.002 7.29735,-16.29935 16.29933,-16.29935 9.00198,0 16.29933,7.29735 16.29933,16.29935 z"
       style="fill:none;stroke:#000000;stroke-width:0.3985;stroke-linecap:butt;stroke-linejoin:miter;stroke-miterlimit:10;stroke-dasharray:none;stroke-opacity:1"
       transform="matrix(1.3333333,0,0,-1.3333333,36.590667,184.25733)" />
    <path
       id="path5"
       d="m 3.3284297,-3.0102812 c 0.058594,-0.2578125 0.2929687,-1.171875 0.984375,-1.171875 0.046875,0 0.2929687,0 0.5039062,0.1289062 -0.28125,0.046875 -0.4804687,0.3046875 -0.4804687,0.5390625 0,0.1640625 0.1054687,0.3515625 0.375,0.3515625 0.2226562,0 0.5390625,-0.1875 0.5390625,-0.5859375 0,-0.515625 -0.5859375,-0.65625 -0.9257813,-0.65625 -0.5742187,0 -0.9257812,0.5273438 -1.0429687,0.7617188 -0.2578125,-0.65625 -0.7851563,-0.7617188 -1.078125,-0.7617188 -1.0429688,0 -1.60546876,1.2890625 -1.60546876,1.5351563 0,0.1054687 0.10546875,0.1054687 0.1171875,0.1054687 0.0820313,0 0.1171875,-0.023437 0.12890625,-0.1171875 0.33984371,-1.0546875 0.99609371,-1.3007812 1.33593751,-1.3007812 0.1875,0 0.5390625,0.09375 0.5390625,0.6679687 0,0.3046875 -0.1640625,0.9726563 -0.5390625,2.3671875 -0.1523438,0.62109375 -0.5039063,1.04296875 -0.9492188,1.04296875 -0.058594,0 -0.28124996,0 -0.49218746,-0.12890625 C 0.98467969,-0.29153125 1.2073359,-0.50246875 1.2073359,-0.772 c 0,-0.2695312 -0.22265621,-0.3515625 -0.37499996,-0.3515625 -0.29296875,0 -0.5390625,0.2578125 -0.5390625,0.57421875 0,0.45703125 0.4921875,0.65625 0.93749996,0.65625 0.65625,0 1.0078125,-0.69140625 1.0429688,-0.75 0.1171875,0.36328125 0.4804687,0.75 1.078125,0.75 1.0195312,0 1.59375,-1.27734375 1.59375,-1.53515625 0,-0.09375 -0.09375,-0.09375 -0.1289063,-0.09375 -0.082031,0 -0.1054687,0.035156 -0.1289062,0.1054688 -0.328125,1.0664062 -0.9960938,1.31249995 -1.3242188,1.31249995 -0.3867187,0 -0.5390625,-0.328125 -0.5390625,-0.65625 0,-0.22265625 0.058594,-0.44531245 0.1640625,-0.87890625 z m 0,0"
       style="fill:#000000;fill-opacity:1;fill-rule:nonzero;stroke:none"
       aria-label="x"
       transform="matrix(1.3333333,0,0,1.3333333,29.816,110.52933)" />
    <path
       id="path6"
       d="m 2.3307187,-4.4291094 c 0,-0.1875 -0.011719,-0.1992187 -0.2109375,-0.1992187 -0.4453125,0.4335937 -1.078125,0.4453125 -1.35937495,0.4453125 v 0.2460937 c 0.1640625,0 0.62109375,0 1.00781245,-0.1875 v 3.55078128 c 0,0.234375 0,0.328125 -0.6914062,0.328125 H 0.80728125 V 5.78125e-4 C 0.9361875,-0.01114062 1.7916562,-0.02285937 2.0494687,-0.02285937 c 0.2109375,0 1.0898438,0.01171875 1.2421875,0.023437495 V -0.24551562 H 3.0338437 c -0.703125,0 -0.703125,-0.09375 -0.703125,-0.328125 z m 0,0"
       style="fill:#000000;fill-opacity:1;fill-rule:nonzero;stroke:none"
       aria-label="1"
       transform="matrix(1.3333333,0,0,1.3333333,37.408,112.52267)" />
    <path
       id="path7"
       d="m 1.9107266,-0.52839063 c 0,-0.29296875 -0.234375,-0.52734377 -0.5273438,-0.52734377 -0.28125,0 -0.52734374,0.23437502 -0.52734374,0.52734377 0,0.29296875 0.24609374,0.52734375 0.52734374,0.52734375 0.2929688,0 0.5273438,-0.234375 0.5273438,-0.52734375 z m 0,0"
       style="fill:#000000;fill-opacity:1;fill-rule:nonzero;stroke:none"
       aria-label="."
       transform="matrix(1.3333333,0,0,1.3333333,34.745333,145.83733)" />
    <path
       id="path8"
       d="m 1.9107266,-0.52608594 c 0,-0.29296875 -0.234375,-0.52734376 -0.5273438,-0.52734376 -0.28125,0 -0.52734374,0.23437501 -0.52734374,0.52734376 0,0.29296875 0.24609374,0.52734375 0.52734374,0.52734375 0.2929688,0 0.5273438,-0.234375 0.5273438,-0.52734375 z m 0,0"
       style="fill:#000000;fill-opacity:1;fill-rule:nonzero;stroke:none"
       aria-label="."
       transform="matrix(1.3333333,0,0,1.3333333,34.745333,151.15067)" />
    <path
       id="path9"
       d="m 1.9107266,-0.52671094 c 0,-0.29296875 -0.234375,-0.52734376 -0.5273438,-0.52734376 -0.28125,0 -0.52734374,0.23437501 -0.52734374,0.52734376 0,0.29296875 0.24609374,0.5273437525 0.52734374,0.5273437525 0.2929688,0 0.5273438,-0.2343750025 0.5273438,-0.5273437525 z m 0,0"
       style="fill:#000000;fill-opacity:1;fill-rule:nonzero;stroke:none"
       aria-label="."
       transform="matrix(1.3333333,0,0,1.3333333,34.745333,156.464)" />
    <path
       id="path10"
       d="M 16.29933,0 C 16.29933,9.00198 9.00198,16.29933 0,16.29933 -9.00198,16.29933 -16.29933,9.00198 -16.29933,0 c 0,-9.00198 7.29735,-16.29933 16.29933,-16.29933 9.00198,0 16.29933,7.29735 16.29933,16.29933 z"
       style="fill:none;stroke:#000000;stroke-width:0.3985;stroke-linecap:butt;stroke-linejoin:miter;stroke-miterlimit:10;stroke-dasharray:none;stroke-opacity:1"
       transform="matrix(1.3333333,0,0,-1.3333333,36.590667,184.25733)" />
    <path
       id="path11"
       d="m 3.3275469,-3.0108984 c 0.058594,-0.2578125 0.2929687,-1.171875 0.984375,-1.171875 0.046875,0 0.2929687,0 0.5039062,0.1289062 -0.28125,0.046875 -0.4804687,0.3046875 -0.4804687,0.5390625 0,0.1640625 0.1054687,0.3515625 0.375,0.3515625 0.2226562,0 0.5390625,-0.1875 0.5390625,-0.5859375 0,-0.515625 -0.5859375,-0.65625 -0.9257813,-0.65625 -0.5742187,0 -0.9257812,0.5273438 -1.0429687,0.7617188 -0.2578125,-0.65625 -0.7851563,-0.7617188 -1.078125,-0.7617188 -1.0429688,0 -1.60546877,1.2890625 -1.60546877,1.5351563 0,0.1054687 0.10546875,0.1054687 0.1171875,0.1054687 0.0820313,0 0.1171875,-0.023437 0.12890625,-0.1171875 0.33984372,-1.0546875 0.99609372,-1.3007812 1.33593752,-1.3007812 0.1875,0 0.5390625,0.09375 0.5390625,0.6679687 0,0.3046875 -0.1640625,0.9726563 -0.5390625,2.3671875 -0.1523438,0.62109376 -0.5039063,1.04296876 -0.9492188,1.04296876 -0.058594,0 -0.28124997,0 -0.49218747,-0.12890625 0.24609375,-0.0585938 0.46874997,-0.26953125 0.46874997,-0.5390625 0,-0.26953121 -0.22265622,-0.35156251 -0.37499997,-0.35156251 -0.29296875,0 -0.5390625,0.25781251 -0.5390625,0.57421876 0,0.45703125 0.4921875,0.65625 0.93749997,0.65625 0.65625,0 1.0078125,-0.69140625 1.0429688,-0.75 0.1171875,0.36328125 0.4804687,0.75 1.078125,0.75 1.0195312,0 1.59375,-1.27734376 1.59375,-1.53515626 0,-0.09375 -0.09375,-0.09375 -0.1289063,-0.09375 -0.082031,0 -0.1054687,0.035156 -0.1289062,0.1054688 -0.328125,1.06640621 -0.9960938,1.31249996 -1.3242188,1.31249996 -0.3867187,0 -0.5390625,-0.328125 -0.5390625,-0.65625 0,-0.22265625 0.058594,-0.44531246 0.1640625,-0.87890626 z m 0,0"
       style="fill:#000000;fill-opacity:1;fill-rule:nonzero;stroke:none"
       aria-label="x"
       transform="matrix(1.3333333,0,0,1.3333333,27.977333,186.12)" />
    <path
       id="path12"
       d="m 1.3132344,-0.53910156 c -0.046875,0.234375 -0.058594,0.29296875 -0.60937502,0.29296875 -0.12890625,0 -0.2109375,0 -0.2109375,0.15234375 0,0.0937499975 0.0820313,0.0937499975 0.2109375,0.0937499975 H 3.1999531 c 1.546875,0 3.0234375,-1.4179687375 3.0234375,-2.9414062375 0,-1.0195313 -0.703125,-1.8164063 -1.8398437,-1.8164063 h -2.53125 c -0.140625,0 -0.2226563,0 -0.2226563,0.1523438 0,0.09375 0.070312,0.09375 0.2226563,0.09375 0.1171875,0 0.140625,0 0.2695312,0.011719 0.140625,0.011719 0.1523438,0.035156 0.1523438,0.1054688 0,0.011719 0,0.046875 -0.023437,0.1523437 z M 2.8835469,-4.2773828 c 0.046875,-0.2109375 0.058594,-0.234375 0.3515625,-0.234375 h 0.890625 c 0.7851562,0 1.4414062,0.3867187 1.4414062,1.3359375 0,0.1640625 -0.070312,1.3710937 -0.7734375,2.1679687 -0.2695312,0.30468754 -0.8671875,0.76171879 -1.7226562,0.76171879 H 2.1218281 c -0.2226562,0 -0.2226562,-0.0117187 -0.2226562,-0.0703125 0,-0.0117188 0,-0.046875 0.023437,-0.15234375 z m 0,0"
       style="fill:#000000;fill-opacity:1;fill-rule:nonzero;stroke:none"
       aria-label="D"
       transform="matrix(1.3333333,0,0,1.3333333,35.569333,188.11333)" />
    <path
       id="path13"
       d="m 129.68657,70.867 c 0,9.002 -7.29735,16.29934 -16.29933,16.29934 -9.002,0 -16.29934,-7.29734 -16.29934,-16.29934 0,-9.00198 7.29734,-16.29933 16.29934,-16.29933 9.00198,0 16.29933,7.29735 16.29933,16.29933 z"
       style="fill:none;stroke:#000000;stroke-width:0.3985;stroke-linecap:butt;stroke-linejoin:miter;stroke-miterlimit:10;stroke-dasharray:none;stroke-opacity:1"
       transform="matrix(1.3333333,0,0,-1.3333333,36.590667,184.25733)" />
    <path
       id="path14"
       d="m 4.8392109,-3.7979219 c 0.046875,-0.140625 0.046875,-0.1523437 0.046875,-0.2226562 0,-0.1875 -0.140625,-0.2695313 -0.2929687,-0.2695313 -0.1054688,0 -0.2578125,0.058594 -0.3515625,0.1992188 -0.023437,0.058594 -0.09375,0.3632812 -0.140625,0.5390625 -0.070312,0.2578125 -0.140625,0.5273437 -0.1992188,0.796875 l -0.4453125,1.79296872 c -0.035156,0.15234375 -0.46875,0.85546875 -1.125,0.85546875 -0.5039062,0 -0.6210937,-0.4453125 -0.6210937,-0.80859375 0,-0.45703122 0.1757812,-1.07812502 0.515625,-1.95703122 0.1523437,-0.4101563 0.1992187,-0.515625 0.1992187,-0.7148438 0,-0.4453125 -0.328125,-0.8203125 -0.8203125,-0.8203125 -0.94921871,0 -1.31249996,1.453125 -1.31249996,1.5351563 0,0.1054687 0.09375,0.1054687 0.1171875,0.1054687 0.09375,0 0.10546875,-0.023437 0.15234375,-0.1875 0.26953125,-0.9375 0.66796871,-1.2304687 1.00781251,-1.2304687 0.082031,0 0.2578125,0 0.2578125,0.3164062 0,0.2460938 -0.1054688,0.515625 -0.1757813,0.703125 -0.3984375,1.0546875 -0.5742187,1.6171875 -0.5742187,2.0859375 0,0.89062502 0.6210937,1.18359377 1.21875,1.18359377 0.3867187,0 0.7265625,-0.1640625 0.9960937,-0.4453125 -0.1289062,0.515625 -0.2460937,1.0078125 -0.6445312,1.53515623 -0.2578125,0.3398438 -0.6328125,0.6328125 -1.0898438,0.6328125 -0.140625,0 -0.59765621,-0.035156 -0.76171871,-0.421875 0.1640625,0 0.29296871,0 0.43359371,-0.1171875 0.09375,-0.09375 0.1992188,-0.2226562 0.1992188,-0.41015623 0,-0.31640625 -0.2695313,-0.3515625 -0.375,-0.3515625 -0.22265626,0 -0.55078126,0.1640625 -0.55078126,0.64453123 0,0.5039063 0.43359375,0.8671875 1.05468746,0.8671875 1.0195313,0 2.0507813,-0.9023437 2.3320313,-2.02734373 z m 0,0"
       style="fill:#000000;fill-opacity:1;fill-rule:nonzero;stroke:none"
       aria-label="y"
       transform="matrix(1.3333333,0,0,1.3333333,181.536,91.337333)" />
    <path
       id="path15"
       d="m 2.3331172,-4.4305937 c 0,-0.1875 -0.011719,-0.1992188 -0.2109375,-0.1992188 C 1.6768672,-4.1962187 1.0440547,-4.1845 0.76280469,-4.1845 v 0.2460938 c 0.1640625,0 0.62109371,0 1.00781251,-0.1875 v 3.5507812 c 0,0.234375 0,0.328125 -0.6914063,0.328125 H 0.80967969 v 0.24609375 c 0.12890625,-0.01171875 0.98437501,-0.0234375 1.24218751,-0.0234375 0.2109375,0 1.0898437,0.01171875 1.2421875,0.0234375 V -0.247 H 3.0362422 c -0.703125,0 -0.703125,-0.09375 -0.703125,-0.328125 z m 0,0"
       style="fill:#000000;fill-opacity:1;fill-rule:nonzero;stroke:none"
       aria-label="1"
       transform="matrix(1.3333333,0,0,1.3333333,188.04933,93.329333)" />
    <path
       id="path16"
       d="m 1.9104922,-0.52628906 c 0,-0.29296875 -0.234375,-0.52734374 -0.5273438,-0.52734374 -0.28125,0 -0.52734371,0.23437499 -0.52734371,0.52734374 0,0.29296875 0.24609371,0.52734375 0.52734371,0.52734375 0.2929688,0 0.5273438,-0.234375 0.5273438,-0.52734375 z m 0,0"
       style="fill:#000000;fill-opacity:1;fill-rule:nonzero;stroke:none"
       aria-label="."
       transform="matrix(1.3333333,0,0,1.3333333,185.92533,126.94)" />
    <path
       id="path17"
       d="m 1.9104922,-0.52691406 c 0,-0.29296875 -0.234375,-0.52734374 -0.5273438,-0.52734374 -0.28125,0 -0.52734371,0.23437499 -0.52734371,0.52734374 0,0.29296875 0.24609371,0.5273437475 0.52734371,0.5273437475 0.2929688,0 0.5273438,-0.2343749975 0.5273438,-0.5273437475 z m 0,0"
       style="fill:#000000;fill-opacity:1;fill-rule:nonzero;stroke:none"
       aria-label="."
       transform="matrix(1.3333333,0,0,1.3333333,185.92533,132.25333)" />
    <path
       id="path18"
       d="m 1.9104922,-0.52753906 c 0,-0.29296875 -0.234375,-0.52734374 -0.5273438,-0.52734374 -0.28125,0 -0.52734371,0.23437499 -0.52734371,0.52734374 0,0.29296875 0.24609371,0.5273437475 0.52734371,0.5273437475 0.2929688,0 0.5273438,-0.2343749975 0.5273438,-0.5273437475 z m 0,0"
       style="fill:#000000;fill-opacity:1;fill-rule:nonzero;stroke:none"
       aria-label="."
       transform="matrix(1.3333333,0,0,1.3333333,185.92533,137.56667)" />
    <path
       id="path19"
       d="m 129.68657,14.17339 c 0,9.00199 -7.29735,16.29933 -16.29933,16.29933 -9.002,0 -16.29934,-7.29734 -16.29934,-16.29933 0,-9.00199 7.29734,-16.29932 16.29934,-16.29932 9.00198,0 16.29933,7.29733 16.29933,16.29932 z"
       style="fill:none;stroke:#000000;stroke-width:0.3985;stroke-linecap:butt;stroke-linejoin:miter;stroke-miterlimit:10;stroke-dasharray:none;stroke-opacity:1"
       transform="matrix(1.3333333,0,0,-1.3333333,36.590667,184.25733)" />
    <path
       id="path20"
       d="m 4.8409297,-3.7956094 c 0.046875,-0.140625 0.046875,-0.1523437 0.046875,-0.2226562 0,-0.1875 -0.140625,-0.2695313 -0.2929688,-0.2695313 -0.1054687,0 -0.2578125,0.058594 -0.3515625,0.1992188 -0.023437,0.058594 -0.09375,0.3632812 -0.140625,0.5390625 -0.070312,0.2578125 -0.140625,0.5273437 -0.1992187,0.796875 l -0.4453125,1.79296873 c -0.035156,0.15234375 -0.46875,0.85546875 -1.125,0.85546875 -0.5039063,0 -0.6210938,-0.4453125 -0.6210938,-0.80859375 0,-0.45703123 0.1757813,-1.07812503 0.515625,-1.95703123 0.1523438,-0.4101563 0.1992188,-0.515625 0.1992188,-0.7148438 0,-0.4453125 -0.328125,-0.8203125 -0.8203125,-0.8203125 -0.94921876,0 -1.31250001,1.453125 -1.31250001,1.5351563 0,0.1054687 0.09375,0.1054687 0.1171875,0.1054687 0.09375,0 0.10546875,-0.023437 0.15234375,-0.1875 0.26953125,-0.9375 0.66796876,-1.2304687 1.00781246,-1.2304687 0.082031,0 0.2578125,0 0.2578125,0.3164062 0,0.2460938 -0.1054687,0.515625 -0.1757812,0.703125 -0.3984375,1.0546875 -0.5742188,1.6171875 -0.5742188,2.0859375 0,0.89062503 0.6210938,1.18359378 1.21875,1.18359378 0.3867188,0 0.7265625,-0.1640625 0.9960938,-0.4453125 -0.1289063,0.515625 -0.2460938,1.0078125 -0.6445313,1.53515622 -0.2578125,0.3398438 -0.6328125,0.6328125 -1.0898437,0.6328125 -0.140625,0 -0.59765626,-0.035156 -0.76171876,-0.421875 0.1640625,0 0.29296876,0 0.43359376,-0.1171875 0.09375,-0.09375 0.1992187,-0.2226562 0.1992187,-0.41015622 0,-0.31640625 -0.2695312,-0.3515625 -0.375,-0.3515625 -0.22265621,0 -0.55078121,0.1640625 -0.55078121,0.64453122 0,0.5039063 0.43359375,0.8671875 1.05468751,0.8671875 1.0195312,0 2.0507812,-0.9023437 2.3320312,-2.02734372 z m 0,0"
       style="fill:#000000;fill-opacity:1;fill-rule:nonzero;stroke:none"
       aria-label="y"
       transform="matrix(1.3333333,0,0,1.3333333,180.04933,166.928)" />
    <path
       id="path21"
       d="m 5.8836875,-4.815 c 0,-0.035156 -0.023437,-0.082031 -0.09375,-0.082031 -0.046875,0 -0.070312,0.011719 -0.1289063,0.082031 L 5.157125,-4.2759375 c -0.070312,-0.082031 -0.4570313,-0.6210937 -1.3125,-0.6210937 -1.6992188,0 -3.3515625,1.5 -3.3515625,3.0703125 0,1.1367187 0.890625,1.96874995 2.1328125,1.96874995 0.375,0 1.0546875,-0.08203125 1.7695312,-0.6796875 0.5507813,-0.46874995 0.703125,-1.07812495 0.703125,-1.13671875 0,-0.09375 -0.082031,-0.09375 -0.1171875,-0.09375 -0.09375,0 -0.1054687,0.035156 -0.1289062,0.1171875 -0.28125,0.94921875 -1.265625,1.53515625 -2.109375,1.53515625 -0.7382813,0 -1.5585938,-0.38671875 -1.5585938,-1.48828125 0,-0.2109375 0.046875,-1.3125 0.8554688,-2.1914062 0.4804687,-0.5273438 1.2070312,-0.8554688 1.875,-0.8554688 0.8085937,0 1.2773437,0.5859375 1.2773437,1.3710938 0,0.1875 -0.023437,0.2460937 -0.023437,0.28125 0,0.09375 0.09375,0.09375 0.1289063,0.09375 0.1171875,0 0.1171875,-0.023437 0.1523437,-0.1523438 z m 0,0"
       style="fill:#000000;fill-opacity:1;fill-rule:nonzero;stroke:none"
       aria-label="C"
       transform="matrix(1.3333333,0,0,1.3333333,186.56133,168.92)" />
    <path
       id="path22"
       d="M 16.00589,95.2128 95.97023,75.2208"
       style="fill:none;stroke:#000000;stroke-width:0.3985;stroke-linecap:butt;stroke-linejoin:miter;stroke-miterlimit:10;stroke-dasharray:none;stroke-opacity:1"
       transform="matrix(1.3333333,0,0,-1.3333333,36.590667,184.25733)" />
    <path
       id="path23"
       d="M -1.19551,1.59401 C -1.09587,0.99626 0,0.09961 0.29886,0 0,-0.09961 -1.09587,-0.99626 -1.19551,-1.59401"
       style="fill:none;stroke:#000000;stroke-width:0.31879;stroke-linecap:round;stroke-linejoin:round;stroke-miterlimit:10;stroke-dasharray:none;stroke-opacity:1"
       transform="matrix(1.2934933,0.32336,0.32336,-1.2934933,164.55097,83.962933)" />
    <path
       id="path24"
       d="M 13.1984,89.31482 99.02524,24.9451"
       style="fill:none;stroke:#000000;stroke-width:0.3985;stroke-linecap:butt;stroke-linejoin:miter;stroke-miterlimit:10;stroke-dasharray:none;stroke-opacity:1"
       transform="matrix(1.3333333,0,0,-1.3333333,36.590667,184.25733)" />
    <path
       id="path25"
       d="M -1.19551,1.59401 C -1.09587,0.99626 0,0.09961 0.29886,0 0,-0.09961 -1.09587,-0.99626 -1.19551,-1.59401"
       style="fill:none;stroke:#000000;stroke-width:0.31879;stroke-linecap:round;stroke-linejoin:round;stroke-miterlimit:10;stroke-dasharray:none;stroke-opacity:1"
       transform="matrix(1.0666267,0.79998667,0.79998667,-1.0666267,168.62429,150.99719)" />
    <path
       id="path26"
       d="m 16.37093,58.7398 79.20208,9.90063"
       style="fill:none;stroke:#000000;stroke-width:0.3985;stroke-linecap:butt;stroke-linejoin:miter;stroke-miterlimit:10;stroke-dasharray:none;stroke-opacity:1"
       transform="matrix(1.3333333,0,0,-1.3333333,36.590667,184.25733)" />
    <path
       id="path27"
       d="M -1.19551,1.59401 C -1.09587,0.99626 0,0.09961 0.29886,0 0,-0.09961 -1.09587,-0.99626 -1.19551,-1.59401"
       style="fill:none;stroke:#000000;stroke-width:0.31879;stroke-linecap:round;stroke-linejoin:round;stroke-miterlimit:10;stroke-dasharray:none;stroke-opacity:1"
       transform="matrix(1.3230133,-0.16536,-0.16536,-1.3230133,164.02133,92.736787)" />
    <path
       id="path28"
       d="M 15.44727,50.90088 96.57808,20.4768"
       style="fill:none;stroke:#000000;stroke-width:0.3985;stroke-linecap:butt;stroke-linejoin:miter;stroke-miterlimit:10;stroke-dasharray:none;stroke-opacity:1"
       transform="matrix(1.3333333,0,0,-1.3333333,36.590667,184.25733)" />
    <path
       id="path29"
       d="M -1.19551,1.59401 C -1.09587,0.99626 0,0.09961 0.29886,0 0,-0.09961 -1.09587,-0.99626 -1.19551,-1.59401"
       style="fill:none;stroke:#000000;stroke-width:0.31879;stroke-linecap:round;stroke-linejoin:round;stroke-miterlimit:10;stroke-dasharray:none;stroke-opacity:1"
       transform="matrix(1.2483733,0.46813333,0.46813333,-1.2483733,165.36144,156.95493)" />
    <path
       id="path30"
       d="M 13.99065,8.74396 98.16313,61.35217"
       style="fill:none;stroke:#000000;stroke-width:0.3985;stroke-linecap:butt;stroke-linejoin:miter;stroke-miterlimit:10;stroke-dasharray:none;stroke-opacity:1"
       transform="matrix(1.3333333,0,0,-1.3333333,36.590667,184.25733)" />
    <path
       id="path31"
       d="M -1.19551,1.59401 C -1.09587,0.99626 0,0.09961 0.29886,0 0,-0.09961 -1.09587,-0.99626 -1.19551,-1.59401"
       style="fill:none;stroke:#000000;stroke-width:0.31879;stroke-linecap:round;stroke-linejoin:round;stroke-miterlimit:10;stroke-dasharray:none;stroke-opacity:1"
       transform="matrix(1.1306533,-0.70664,-0.70664,-1.1306533,167.47483,102.45445)" />
    <path
       id="path32"
       d="m 16.37093,2.04619 79.20208,9.90062"
       style="fill:none;stroke:#000000;stroke-width:0.3985;stroke-linecap:butt;stroke-linejoin:miter;stroke-miterlimit:10;stroke-dasharray:none;stroke-opacity:1"
       transform="matrix(1.3333333,0,0,-1.3333333,36.590667,184.25733)" />
    <path
       id="path33"
       d="M -1.19551,1.59401 C -1.09587,0.99626 0,0.09961 0.29886,0 0,-0.09961 -1.09587,-0.99626 -1.19551,-1.59401"
       style="fill:none;stroke:#000000;stroke-width:0.31879;stroke-linecap:round;stroke-linejoin:round;stroke-miterlimit:10;stroke-dasharray:none;stroke-opacity:1"
       transform="matrix(1.3230133,-0.16536,-0.16536,-1.3230133,164.02133,168.32827)" />
    <path
       id="path34"
       d="M -18.1585,113.38724 H 16.27872"
       style="fill:none;stroke:#000000;stroke-width:0.3985;stroke-linecap:butt;stroke-linejoin:miter;stroke-miterlimit:10;stroke-dasharray:none;stroke-opacity:1"
       transform="matrix(1.3333333,0,0,-1.3333333,36.590667,184.25733)" />
    <path
       id="path35"
       d="m 2.4622031,0.00132812 v -0.3046875 c -0.65625,0 -0.703125,-0.0585938 -0.703125,-0.4453125 V -4.4049219 l -1.39453122,0.1171875 v 0.3046875 c 0.65625002,0 0.73828122,0.058594 0.73828122,0.5507813 v 2.67187497 c 0,0.45703125 -0.10546872,0.45703125 -0.77343747,0.45703125 v 0.3046875 L 1.4309531,-0.03382813 c 0.3398438,0 0.6914063,0.0234375 1.03125,0.03515625 z M 1.9114219,-6.0103906 c 0,-0.2695313 -0.2226563,-0.5273438 -0.5273438,-0.5273438 -0.3398437,0 -0.53906247,0.2695313 -0.53906247,0.5273438 0,0.2695312 0.23437497,0.5273437 0.52734377,0.5273437 0.3398437,0 0.5390625,-0.28125 0.5390625,-0.5273437 z m 6.1904297,6.01171872 v -0.3046875 c -0.515625,0 -0.7734375,0 -0.7851563,-0.3046875 V -2.5064844 c 0,-0.8554687 0,-1.171875 -0.3046875,-1.5234375 -0.140625,-0.1757812 -0.46875,-0.375 -1.0429687,-0.375 -0.7265625,0 -1.1953125,0.4335938 -1.4765625,1.0546875 v -1.0546875 l -1.40625,0.1171875 v 0.3046875 c 0.703125,0 0.7851562,0.070312 0.7851562,0.5625 v 2.66015627 c 0,0.45703125 -0.1171875,0.45703125 -0.7851562,0.45703125 v 0.3046875 l 1.125,-0.03515625 1.1132812,0.03515625 v -0.3046875 c -0.65625,0 -0.7734375,0 -0.7734375,-0.45703125 V -2.5885156 c 0,-1.03125 0.7148438,-1.59375 1.3476563,-1.59375 0.6210937,0 0.7382812,0.5390625 0.7382812,1.1015625 v 2.32031247 c 0,0.45703125 -0.1171875,0.45703125 -0.7734375,0.45703125 v 0.3046875 l 1.125,-0.03515625 z M 13.501266,-2.1549219 c 0,-1.265625 -0.972657,-2.25 -2.085938,-2.25 -0.773437,0 -1.195312,0.4453125 -1.394531,0.65625 v -0.65625 l -1.4296876,0.1171875 v 0.3046875 c 0.703125,0 0.7734375,0.058594 0.7734375,0.4921875 v 4.6640625 c 0,0.4570313 -0.1054688,0.4570313 -0.7734375,0.4570313 v 0.3046875 l 1.1132812,-0.035156 1.1250004,0.035156 V 1.6302344 c -0.667969,0 -0.773438,0 -0.773438,-0.4570313 v -1.75781248 c 0.04687,0.15234375 0.46875,0.69140625 1.21875,0.69140625 1.183594,0 2.226563,-0.97265625 2.226563,-2.26171877 z m -0.832032,0 c 0,1.20703127 -0.691406,2.05078127 -1.429687,2.05078127 -0.398438,0 -0.773438,-0.19921875 -1.042969,-0.609375 -0.140625,-0.2109375 -0.140625,-0.22265625 -0.140625,-0.42187497 v -2.2148438 c 0.28125,-0.515625 0.773438,-0.796875 1.277344,-0.796875 0.726562,0 1.335937,0.8671875 1.335937,1.9921875 z M 19.179,0.00132812 v -0.3046875 c -0.703125,0 -0.785156,-0.0703125 -0.785156,-0.5625 V -4.4049219 l -1.453125,0.1171875 v 0.3046875 c 0.691406,0 0.773437,0.070312 0.773437,0.5625 v 1.7695313 c 0,0.86718747 -0.480468,1.54687497 -1.207031,1.54687497 -0.832031,0 -0.878906,-0.46875 -0.878906,-0.99609377 v -3.3046875 l -1.464844,0.1171875 v 0.3046875 c 0.785156,0 0.785156,0.035156 0.785156,0.9140625 v 1.5 c 0,0.77343752 0,1.67578127 1.511719,1.67578127 0.550781,0 0.996094,-0.26953125 1.277344,-0.890625 v 0.890625 z m 3.512695,-1.23046872 v -0.5742188 h -0.246093 v 0.5507813 c 0,0.73828122 -0.304688,1.11328122 -0.667969,1.11328122 -0.667969,0 -0.667969,-0.90234372 -0.667969,-1.07812502 v -2.765625 h 1.429688 V -4.2877344 H 21.109664 V -6.1275781 H 20.86357 c -0.01172,0.8203125 -0.316406,1.8867187 -1.289062,1.921875 v 0.2226562 h 0.84375 v 2.7539063 c 0,1.21874997 0.925781,1.33593747 1.289062,1.33593747 0.703125,0 0.984375,-0.703125 0.984375,-1.33593747 z m 6.430664,1.23046872 v -0.3046875 c -0.667968,0 -0.785156,0 -0.785156,-0.45703125 V -6.9127344 l -1.429687,0.1054688 v 0.3164062 c 0.703125,0 0.773437,0.070312 0.773437,0.5507813 v 5.17968747 c 0,0.45703125 -0.105469,0.45703125 -0.773437,0.45703125 v 0.3046875 l 1.101562,-0.03515625 z m 5.044922,-0.890625 V -1.4400781 h -0.257812 v 0.55078122 c 0,0.5859375 -0.246094,0.64453125 -0.351563,0.64453125 -0.328125,0 -0.375,-0.45703125 -0.375,-0.50390625 V -2.7408594 c 0,-0.4101562 0,-0.8085937 -0.351562,-1.171875 -0.386719,-0.3867187 -0.890625,-0.5507812 -1.371094,-0.5507812 -0.808594,0 -1.5,0.46875 -1.5,1.125 0,0.3046875 0.199219,0.46875 0.457031,0.46875 0.28125,0 0.457032,-0.1992188 0.457032,-0.4570313 0,-0.1171875 -0.04687,-0.4453125 -0.503907,-0.4570312 0.269532,-0.3515625 0.75,-0.4570313 1.078125,-0.4570313 0.480469,0 1.054688,0.3867188 1.054688,1.2773438 v 0.3632812 c -0.515625,0.035156 -1.207031,0.058594 -1.839844,0.3632813 -0.75,0.3398437 -0.996094,0.8554687 -0.996094,1.28906247 0,0.80859375 0.972657,1.0546875 1.59375,1.0546875 0.65625,0 1.113282,-0.3984375 1.3125,-0.8671875 0.03516,0.3984375 0.304688,0.8203125 0.773438,0.8203125 0.210937,0 0.820312,-0.140625 0.820312,-0.94921875 z M 32.503219,-1.3932031 c 0,0.94921872 -0.726563,1.28906247 -1.171875,1.28906247 -0.480469,0 -0.890625,-0.3515625 -0.890625,-0.85546875 0,-0.53906252 0.410156,-1.37109372 2.0625,-1.42968752 z m 6.612304,-2.5898438 v -0.3046875 c -0.234375,0.011719 -0.515625,0.023437 -0.75,0.023437 l -0.867187,-0.023437 v 0.3046875 c 0.304687,0.011719 0.46875,0.1757813 0.46875,0.4335938 0,0.09375 -0.01172,0.1171875 -0.05859,0.234375 L 36.90068,-0.86585938 35.799117,-3.5494531 c -0.04687,-0.09375 -0.05859,-0.140625 -0.05859,-0.1757813 0,-0.2578125 0.363282,-0.2578125 0.550782,-0.2578125 v -0.3046875 l -1.078125,0.023437 c -0.269532,0 -0.667969,-0.011719 -0.972657,-0.023437 v 0.3046875 c 0.480469,0 0.667969,0 0.808594,0.3515625 l 1.5,3.63281252 -0.257812,0.5859375 C 36.080367,1.1380469 35.799117,1.8294531 35.154586,1.8294531 c -0.04687,0 -0.269531,0 -0.46875,-0.1875 0.316406,-0.035156 0.398437,-0.2578125 0.398437,-0.4101562 0,-0.26953128 -0.199218,-0.42187503 -0.421875,-0.42187503 -0.199218,0 -0.421875,0.12890625 -0.421875,0.42187503 0,0.4570312 0.421875,0.8085937 0.914063,0.8085937 0.632812,0 1.042969,-0.5625 1.277344,-1.13671873 l 1.757812,-4.25390627 c 0.257813,-0.6210937 0.761719,-0.6328125 0.925781,-0.6328125 z m 4.054688,2.8007813 c 0,-0.1054688 -0.08203,-0.1171875 -0.128906,-0.1171875 -0.09375,0 -0.117188,0.058594 -0.128907,0.140625 -0.351562,1.01953122 -1.253906,1.01953122 -1.347656,1.01953122 -0.503906,0 -0.902344,-0.29296875 -1.125,-0.66796875 C 40.135055,-1.2877344 40.135055,-1.9439844 40.135055,-2.2955469 h 2.789062 c 0.210938,0 0.246094,0 0.246094,-0.2109375 0,-0.984375 -0.539063,-1.9570312 -1.78125,-1.9570312 -1.160156,0 -2.074219,1.03125 -2.074219,2.2734375 0,1.33593747 1.042969,2.29687497 2.191406,2.29687497 1.21875,0 1.664063,-1.1015625 1.664063,-1.28906247 z m -0.65625,-1.3242188 h -2.367188 c 0.05859,-1.4882812 0.902344,-1.734375 1.242188,-1.734375 1.019531,0 1.125,1.3476563 1.125,1.734375 z m 4.564453,-1.2890625 c 0,-0.3164062 -0.304687,-0.609375 -0.726562,-0.609375 -0.738282,0 -1.089844,0.6679688 -1.230469,1.1015625 v -1.1015625 l -1.382813,0.1171875 v 0.3046875 c 0.691407,0 0.773438,0.070312 0.773438,0.5625 v 2.66015627 c 0,0.45703125 -0.105469,0.45703125 -0.773438,0.45703125 v 0.3046875 l 1.136719,-0.03515625 c 0.398438,0 0.867188,0 1.265625,0.03515625 v -0.3046875 h -0.210937 c -0.738282,0 -0.761719,-0.1171875 -0.761719,-0.46875 V -2.3072656 c 0,-0.984375 0.421875,-1.875 1.183594,-1.875 0.05859,0 0.08203,0 0.105468,0.011719 -0.03516,0.011719 -0.234375,0.1289063 -0.234375,0.3867188 0,0.28125 0.210938,0.4335937 0.433594,0.4335937 0.175781,0 0.421875,-0.1289062 0.421875,-0.4453128 z m 0,0"
       style="fill:#000000;fill-opacity:1;fill-rule:nonzero;stroke:none"
       aria-label="inputlayer"
       transform="matrix(1.3333333,0,0,1.3333333,4.428,13.646667)" />
    <path
       id="path36"
       d="m 95.22871,85.04042 h 34.43724"
       style="fill:none;stroke:#000000;stroke-width:0.3985;stroke-linecap:butt;stroke-linejoin:miter;stroke-miterlimit:10;stroke-dasharray:none;stroke-opacity:1"
       transform="matrix(1.3333333,0,0,-1.3333333,36.590667,184.25733)" />
    <path
       id="path37"
       d="m 4.6875859,-2.1327578 c 0,-1.2773438 -0.9960937,-2.3320313 -2.1914062,-2.3320313 -1.2539063,0 -2.21484376,1.0898438 -2.21484376,2.3320313 0,1.28906249 1.03124996,2.23828124 2.20312496,2.23828124 1.2070313,0 2.203125,-0.97265625 2.203125,-2.23828124 z m -0.8203125,-0.082031 c 0,0.3632813 0,0.9023438 -0.2226562,1.33593754 -0.2226563,0.4453125 -0.65625,0.73828125 -1.1484375,0.73828125 -0.4335938,0 -0.8671875,-0.2109375 -1.1367188,-0.66796875 C 1.1016484,-1.2421328 1.1016484,-1.8515078 1.1016484,-2.2147891 c 0,-0.3867187 0,-0.9257812 0.2460938,-1.359375 0.2695312,-0.4570312 0.7382812,-0.6679687 1.1367187,-0.6679687 0.4335938,0 0.8671875,0.2226562 1.125,0.6445312 0.2578125,0.4335938 0.2578125,1.0078125 0.2578125,1.3828128 z M 10.312586,5.46875e-5 V -0.30463281 c -0.7031251,0 -0.7851563,-0.0703125 -0.7851563,-0.5625 V -4.4061953 l -1.453125,0.1171875 v 0.3046875 c 0.6914062,0 0.7734375,0.070312 0.7734375,0.5625 v 1.7695312 c 0,0.86718754 -0.4804688,1.54687504 -1.2070313,1.54687504 -0.8320312,0 -0.8789062,-0.46875 -0.8789062,-0.99609374 v -3.3046875 l -1.4648438,0.1171875 v 0.3046875 c 0.7851563,0 0.7851563,0.035156 0.7851563,0.9140625 v 1.5 c 0,0.77343749 0,1.67578124 1.5117187,1.67578124 0.5507813,0 0.9960938,-0.26953125 1.2773438,-0.890625 v 0.890625 z M 13.825281,-1.2304141 v -0.5742187 h -0.246093 v 0.5507812 c 0,0.73828129 -0.304688,1.11328129 -0.667969,1.11328129 -0.667969,0 -0.667969,-0.90234379 -0.667969,-1.07812499 v -2.765625 h 1.429688 V -4.2890078 H 12.24325 v -1.8398438 h -0.246094 c -0.01172,0.8203125 -0.316406,1.8867188 -1.289062,1.921875 v 0.2226563 h 0.84375 v 2.7539062 c 0,1.21875004 0.925781,1.33593754 1.289062,1.33593754 0.703125,0 0.984375,-0.703125 0.984375,-1.33593754 z m 5.762696,-0.9257812 c 0,-1.265625 -0.972657,-2.25 -2.085938,-2.25 -0.773437,0 -1.195312,0.4453125 -1.394531,0.65625 v -0.65625 l -1.429688,0.1171875 v 0.3046875 c 0.703125,0 0.773438,0.058594 0.773438,0.4921875 v 4.6640625 c 0,0.4570312 -0.105469,0.4570312 -0.773438,0.4570312 v 0.3046875 l 1.113282,-0.035156 1.125,0.035156 V 1.6289609 c -0.667969,0 -0.773438,0 -0.773438,-0.4570312 v -1.75781251 c 0.04687,0.15234375 0.46875,0.69140625 1.21875,0.69140625 1.183594,0 2.226563,-0.97265625 2.226563,-2.26171874 z m -0.832032,0 c 0,1.20703124 -0.691406,2.05078124 -1.429687,2.05078124 -0.398438,0 -0.773438,-0.19921875 -1.042969,-0.609375 -0.140625,-0.2109375 -0.140625,-0.22265625 -0.140625,-0.42187504 v -2.2148437 c 0.28125,-0.515625 0.773438,-0.796875 1.277344,-0.796875 0.726562,0 1.335937,0.8671875 1.335937,1.9921875 z M 25.268641,5.46875e-5 V -0.30463281 c -0.703125,0 -0.785157,-0.0703125 -0.785157,-0.5625 V -4.4061953 l -1.453125,0.1171875 v 0.3046875 c 0.691407,0 0.773438,0.070312 0.773438,0.5625 v 1.7695312 c 0,0.86718754 -0.480469,1.54687504 -1.207031,1.54687504 -0.832032,0 -0.878907,-0.46875 -0.878907,-0.99609374 v -3.3046875 l -1.464843,0.1171875 v 0.3046875 c 0.785156,0 0.785156,0.035156 0.785156,0.9140625 v 1.5 c 0,0.77343749 0,1.67578124 1.511719,1.67578124 0.550781,0 0.996093,-0.26953125 1.277343,-0.890625 v 0.890625 z M 28.778406,-1.2304141 v -0.5742187 h -0.246093 v 0.5507812 c 0,0.73828129 -0.304688,1.11328129 -0.667969,1.11328129 -0.667969,0 -0.667969,-0.90234379 -0.667969,-1.07812499 v -2.765625 h 1.429688 v -0.3046875 h -1.429688 v -1.8398438 h -0.246094 c -0.01172,0.8203125 -0.316406,1.8867188 -1.289062,1.921875 v 0.2226563 h 0.84375 v 2.7539062 c 0,1.21875004 0.925781,1.33593754 1.289062,1.33593754 0.703125,0 0.984375,-0.703125 0.984375,-1.33593754 z M 35.20907,5.46875e-5 V -0.30463281 c -0.667968,0 -0.785156,0 -0.785156,-0.45703125 V -6.9140078 l -1.429687,0.1054687 v 0.3164063 c 0.703125,0 0.773437,0.070312 0.773437,0.5507812 v 5.17968754 c 0,0.45703125 -0.105469,0.45703125 -0.773437,0.45703125 V 5.46875e-5 L 34.095789,-0.03510156 Z M 40.253992,-0.89057031 V -1.4413516 H 39.99618 v 0.55078129 c 0,0.5859375 -0.246094,0.64453125 -0.351563,0.64453125 -0.328125,0 -0.375,-0.45703125 -0.375,-0.50390625 V -2.7421328 c 0,-0.4101563 0,-0.8085938 -0.351562,-1.171875 -0.386719,-0.3867188 -0.890625,-0.5507813 -1.371094,-0.5507813 -0.808594,0 -1.5,0.46875 -1.5,1.125 0,0.3046875 0.199219,0.46875 0.457031,0.46875 0.28125,0 0.457031,-0.1992187 0.457031,-0.4570312 0,-0.1171875 -0.04687,-0.4453125 -0.503906,-0.4570313 0.269531,-0.3515625 0.75,-0.4570312 1.078125,-0.4570312 0.480469,0 1.054688,0.3867187 1.054688,1.2773437 v 0.3632813 c -0.515625,0.035156 -1.207032,0.058594 -1.839844,0.3632812 -0.75,0.3398438 -0.996094,0.8554688 -0.996094,1.28906254 0,0.80859375 0.972656,1.0546875 1.59375,1.0546875 0.65625,0 1.113281,-0.3984375 1.3125,-0.8671875 0.03516,0.3984375 0.304688,0.8203125 0.773438,0.8203125 0.210937,0 0.820312,-0.140625 0.820312,-0.94921875 z M 38.58993,-1.3944766 c 0,0.94921879 -0.726563,1.28906254 -1.171875,1.28906254 -0.480469,0 -0.890625,-0.3515625 -0.890625,-0.85546875 0,-0.53906249 0.410156,-1.37109379 2.0625,-1.42968749 z m 6.612304,-2.5898437 v -0.3046875 c -0.234375,0.011719 -0.515625,0.023437 -0.75,0.023437 l -0.867187,-0.023437 v 0.3046875 c 0.304687,0.011719 0.46875,0.1757812 0.46875,0.4335937 0,0.09375 -0.01172,0.1171875 -0.05859,0.234375 l -1.007812,2.44921879 -1.101563,-2.68359379 c -0.04687,-0.09375 -0.05859,-0.140625 -0.05859,-0.1757812 0,-0.2578125 0.363282,-0.2578125 0.550782,-0.2578125 v -0.3046875 l -1.078125,0.023437 c -0.269532,0 -0.667969,-0.011719 -0.972657,-0.023437 v 0.3046875 c 0.480469,0 0.667969,0 0.808594,0.3515625 l 1.5,3.6328124875 -0.25782,0.5859375025 C 42.167078,1.1367734 41.885828,1.8281797 41.241297,1.8281797 c -0.04687,0 -0.269531,0 -0.46875,-0.1875 0.316406,-0.035156 0.398437,-0.2578125 0.398437,-0.4101563 0,-0.26953121 -0.199218,-0.42187496 -0.421875,-0.42187496 -0.199218,0 -0.421875,0.12890625 -0.421875,0.42187496 0,0.4570313 0.421875,0.8085938 0.914063,0.8085938 0.632812,0 1.042969,-0.5625 1.277344,-1.13671876 l 1.757812,-4.25390624 c 0.257813,-0.6210938 0.761719,-0.6328125 0.925781,-0.6328125 z m 4.054688,2.8007812 c 0,-0.1054687 -0.08203,-0.1171875 -0.128906,-0.1171875 -0.09375,0 -0.117188,0.058594 -0.128907,0.140625 -0.351562,1.01953129 -1.253906,1.01953129 -1.347656,1.01953129 -0.503906,0 -0.902344,-0.29296875 -1.125,-0.66796875 C 46.221766,-1.2890078 46.221766,-1.9452578 46.221766,-2.2968203 h 2.789062 c 0.210938,0 0.246094,0 0.246094,-0.2109375 0,-0.984375 -0.539063,-1.9570313 -1.78125,-1.9570313 -1.160156,0 -2.074219,1.03125 -2.074219,2.2734375 0,1.33593754 1.042969,2.29687504 2.191406,2.29687504 1.21875,0 1.664063,-1.1015625 1.664063,-1.28906254 z m -0.65625,-1.3242187 h -2.367188 c 0.05859,-1.4882813 0.902344,-1.734375 1.242188,-1.734375 1.019531,0 1.125,1.3476562 1.125,1.734375 z m 4.564453,-1.2890625 c 0,-0.3164063 -0.304687,-0.609375 -0.726562,-0.609375 -0.738282,0 -1.089844,0.6679687 -1.230469,1.1015625 v -1.1015625 l -1.382813,0.1171875 v 0.3046875 c 0.691407,0 0.773438,0.070312 0.773438,0.5625 v 2.66015624 c 0,0.45703125 -0.105469,0.45703125 -0.773438,0.45703125 V 5.46875e-5 L 50.962,-0.03510156 c 0.398438,0 0.867188,0 1.265625,0.0351562475 V -0.30463281 h -0.210937 c -0.738282,0 -0.761719,-0.1171875 -0.761719,-0.46875 V -2.3085391 c 0,-0.984375 0.421875,-1.875 1.183594,-1.875 0.05859,0 0.08203,0 0.105468,0.011719 -0.03516,0.011719 -0.234375,0.1289062 -0.234375,0.3867187 0,0.28125 0.210938,0.4335938 0.433594,0.4335938 0.175781,0 0.421875,-0.1289063 0.421875,-0.4453127 z m 0,0"
       style="fill:#000000;fill-opacity:1;fill-rule:nonzero;stroke:none"
       aria-label="outputlayer"
       transform="matrix(1.3333333,0,0,1.3333333,151.55067,51.441333)" />
  </g>
</svg>
