<?xml version="1.0" encoding="utf-8" standalone="no"?>
<!DOCTYPE svg PUBLIC "-//W3C//DTD SVG 1.1//EN"
  "http://www.w3.org/Graphics/SVG/1.1/DTD/svg11.dtd">
<svg xmlns:xlink="http://www.w3.org/1999/xlink" width="283.789062pt" height="285.283594pt" viewBox="0 0 283.789062 285.283594" xmlns="http://www.w3.org/2000/svg" version="1.1">
 <metadata>
  <rdf:RDF xmlns:dc="http://purl.org/dc/elements/1.1/" xmlns:cc="http://creativecommons.org/ns#" xmlns:rdf="http://www.w3.org/1999/02/22-rdf-syntax-ns#">
   <cc:Work>
    <dc:type rdf:resource="http://purl.org/dc/dcmitype/StillImage"/>
    <dc:date>2025-04-01T13:08:28.870787</dc:date>
    <dc:format>image/svg+xml</dc:format>
    <dc:creator>
     <cc:Agent>
      <dc:title>Matplotlib v3.10.0, https://matplotlib.org/</dc:title>
     </cc:Agent>
    </dc:creator>
   </cc:Work>
  </rdf:RDF>
 </metadata>
 <defs>
  <style type="text/css">*{stroke-linejoin: round; stroke-linecap: butt}</style>
 </defs>
 <g id="figure_1">
  <g id="patch_1">
   <path d="M 0 285.283594 
L 283.789062 285.283594 
L 283.789062 0 
L 0 0 
z
" style="fill: #ffffff"/>
  </g>
  <g id="axes_1">
   <g id="patch_2">
    <path d="M 53.389062 243.549375 
L 276.589063 243.549375 
L 276.589063 21.789375 
L 53.389062 21.789375 
z
" style="fill: #eaeaf2"/>
   </g>
   <g id="matplotlib.axis_1">
    <g id="xtick_1">
     <g id="line2d_1">
      <path d="M 98.50043 243.549375 
L 98.50043 21.789375 
" clip-path="url(#pcda0652ec2)" style="fill: none; stroke: #ffffff; stroke-linecap: round"/>
     </g>
     <g id="text_1">
      <!-- 0.0 -->
      <g style="fill: #262626" transform="translate(90.85543 260.922969) scale(0.11 -0.11)">
       <defs>
        <path id="ArialMT-30" d="M 266 2259 
Q 266 3072 433 3567 
Q 600 4063 929 4331 
Q 1259 4600 1759 4600 
Q 2128 4600 2406 4451 
Q 2684 4303 2865 4023 
Q 3047 3744 3150 3342 
Q 3253 2941 3253 2259 
Q 3253 1453 3087 958 
Q 2922 463 2592 192 
Q 2263 -78 1759 -78 
Q 1097 -78 719 397 
Q 266 969 266 2259 
z
M 844 2259 
Q 844 1131 1108 757 
Q 1372 384 1759 384 
Q 2147 384 2411 759 
Q 2675 1134 2675 2259 
Q 2675 3391 2411 3762 
Q 2147 4134 1753 4134 
Q 1366 4134 1134 3806 
Q 844 3388 844 2259 
z
" transform="scale(0.015625)"/>
        <path id="ArialMT-2e" d="M 581 0 
L 581 641 
L 1222 641 
L 1222 0 
L 581 0 
z
" transform="scale(0.015625)"/>
       </defs>
       <use xlink:href="#ArialMT-30"/>
       <use xlink:href="#ArialMT-2e" transform="translate(55.615234 0)"/>
       <use xlink:href="#ArialMT-30" transform="translate(83.398438 0)"/>
      </g>
     </g>
    </g>
    <g id="xtick_2">
     <g id="line2d_2">
      <path d="M 167.852486 243.549375 
L 167.852486 21.789375 
" clip-path="url(#pcda0652ec2)" style="fill: none; stroke: #ffffff; stroke-linecap: round"/>
     </g>
     <g id="text_2">
      <!-- 0.5 -->
      <g style="fill: #262626" transform="translate(160.207486 260.922969) scale(0.11 -0.11)">
       <defs>
        <path id="ArialMT-35" d="M 266 1200 
L 856 1250 
Q 922 819 1161 601 
Q 1400 384 1738 384 
Q 2144 384 2425 690 
Q 2706 997 2706 1503 
Q 2706 1984 2436 2262 
Q 2166 2541 1728 2541 
Q 1456 2541 1237 2417 
Q 1019 2294 894 2097 
L 366 2166 
L 809 4519 
L 3088 4519 
L 3088 3981 
L 1259 3981 
L 1013 2750 
Q 1425 3038 1878 3038 
Q 2478 3038 2890 2622 
Q 3303 2206 3303 1553 
Q 3303 931 2941 478 
Q 2500 -78 1738 -78 
Q 1113 -78 717 272 
Q 322 622 266 1200 
z
" transform="scale(0.015625)"/>
       </defs>
       <use xlink:href="#ArialMT-30"/>
       <use xlink:href="#ArialMT-2e" transform="translate(55.615234 0)"/>
       <use xlink:href="#ArialMT-35" transform="translate(83.398438 0)"/>
      </g>
     </g>
    </g>
    <g id="xtick_3">
     <g id="line2d_3">
      <path d="M 237.204542 243.549375 
L 237.204542 21.789375 
" clip-path="url(#pcda0652ec2)" style="fill: none; stroke: #ffffff; stroke-linecap: round"/>
     </g>
     <g id="text_3">
      <!-- 1.0 -->
      <g style="fill: #262626" transform="translate(229.559542 260.922969) scale(0.11 -0.11)">
       <defs>
        <path id="ArialMT-31" d="M 2384 0 
L 1822 0 
L 1822 3584 
Q 1619 3391 1289 3197 
Q 959 3003 697 2906 
L 697 3450 
Q 1169 3672 1522 3987 
Q 1875 4303 2022 4600 
L 2384 4600 
L 2384 0 
z
" transform="scale(0.015625)"/>
       </defs>
       <use xlink:href="#ArialMT-31"/>
       <use xlink:href="#ArialMT-2e" transform="translate(55.615234 0)"/>
       <use xlink:href="#ArialMT-30" transform="translate(83.398438 0)"/>
      </g>
     </g>
    </g>
    <g id="text_4">
     <!-- $x_1$ -->
     <g style="fill: #262626" transform="translate(158.569063 275.698594) scale(0.12 -0.12)">
      <defs>
       <path id="DejaVuSans-Oblique-78" d="M 3841 3500 
L 2234 1784 
L 3219 0 
L 2559 0 
L 1819 1388 
L 531 0 
L -166 0 
L 1556 1844 
L 641 3500 
L 1300 3500 
L 1972 2234 
L 3144 3500 
L 3841 3500 
z
" transform="scale(0.015625)"/>
       <path id="DejaVuSans-31" d="M 794 531 
L 1825 531 
L 1825 4091 
L 703 3866 
L 703 4441 
L 1819 4666 
L 2450 4666 
L 2450 531 
L 3481 531 
L 3481 0 
L 794 0 
L 794 531 
z
" transform="scale(0.015625)"/>
      </defs>
      <use xlink:href="#DejaVuSans-Oblique-78" transform="translate(0 0.3125)"/>
      <use xlink:href="#DejaVuSans-31" transform="translate(59.179688 -16.09375) scale(0.7)"/>
     </g>
    </g>
   </g>
   <g id="matplotlib.axis_2">
    <g id="ytick_1">
     <g id="line2d_4">
      <path d="M 53.389062 227.419706 
L 276.589063 227.419706 
" clip-path="url(#pcda0652ec2)" style="fill: none; stroke: #ffffff; stroke-linecap: round"/>
     </g>
     <g id="text_5">
      <!-- −0.2 -->
      <g style="fill: #262626" transform="translate(22.174375 231.356503) scale(0.11 -0.11)">
       <defs>
        <path id="ArialMT-2212" d="M 3381 1997 
L 356 1997 
L 356 2522 
L 3381 2522 
L 3381 1997 
z
" transform="scale(0.015625)"/>
        <path id="ArialMT-32" d="M 3222 541 
L 3222 0 
L 194 0 
Q 188 203 259 391 
Q 375 700 629 1000 
Q 884 1300 1366 1694 
Q 2113 2306 2375 2664 
Q 2638 3022 2638 3341 
Q 2638 3675 2398 3904 
Q 2159 4134 1775 4134 
Q 1369 4134 1125 3890 
Q 881 3647 878 3216 
L 300 3275 
Q 359 3922 746 4261 
Q 1134 4600 1788 4600 
Q 2447 4600 2831 4234 
Q 3216 3869 3216 3328 
Q 3216 3053 3103 2787 
Q 2991 2522 2730 2228 
Q 2469 1934 1863 1422 
Q 1356 997 1212 845 
Q 1069 694 975 541 
L 3222 541 
z
" transform="scale(0.015625)"/>
       </defs>
       <use xlink:href="#ArialMT-2212"/>
       <use xlink:href="#ArialMT-30" transform="translate(58.398438 0)"/>
       <use xlink:href="#ArialMT-2e" transform="translate(114.013672 0)"/>
       <use xlink:href="#ArialMT-32" transform="translate(141.796875 0)"/>
      </g>
     </g>
    </g>
    <g id="ytick_2">
     <g id="line2d_5">
      <path d="M 53.389062 199.264168 
L 276.589063 199.264168 
" clip-path="url(#pcda0652ec2)" style="fill: none; stroke: #ffffff; stroke-linecap: round"/>
     </g>
     <g id="text_6">
      <!-- 0.0 -->
      <g style="fill: #262626" transform="translate(28.599062 203.200965) scale(0.11 -0.11)">
       <use xlink:href="#ArialMT-30"/>
       <use xlink:href="#ArialMT-2e" transform="translate(55.615234 0)"/>
       <use xlink:href="#ArialMT-30" transform="translate(83.398438 0)"/>
      </g>
     </g>
    </g>
    <g id="ytick_3">
     <g id="line2d_6">
      <path d="M 53.389062 171.10863 
L 276.589063 171.10863 
" clip-path="url(#pcda0652ec2)" style="fill: none; stroke: #ffffff; stroke-linecap: round"/>
     </g>
     <g id="text_7">
      <!-- 0.2 -->
      <g style="fill: #262626" transform="translate(28.599062 175.045427) scale(0.11 -0.11)">
       <use xlink:href="#ArialMT-30"/>
       <use xlink:href="#ArialMT-2e" transform="translate(55.615234 0)"/>
       <use xlink:href="#ArialMT-32" transform="translate(83.398438 0)"/>
      </g>
     </g>
    </g>
    <g id="ytick_4">
     <g id="line2d_7">
      <path d="M 53.389062 142.953093 
L 276.589063 142.953093 
" clip-path="url(#pcda0652ec2)" style="fill: none; stroke: #ffffff; stroke-linecap: round"/>
     </g>
     <g id="text_8">
      <!-- 0.4 -->
      <g style="fill: #262626" transform="translate(28.599062 146.88989) scale(0.11 -0.11)">
       <defs>
        <path id="ArialMT-34" d="M 2069 0 
L 2069 1097 
L 81 1097 
L 81 1613 
L 2172 4581 
L 2631 4581 
L 2631 1613 
L 3250 1613 
L 3250 1097 
L 2631 1097 
L 2631 0 
L 2069 0 
z
M 2069 1613 
L 2069 3678 
L 634 1613 
L 2069 1613 
z
" transform="scale(0.015625)"/>
       </defs>
       <use xlink:href="#ArialMT-30"/>
       <use xlink:href="#ArialMT-2e" transform="translate(55.615234 0)"/>
       <use xlink:href="#ArialMT-34" transform="translate(83.398438 0)"/>
      </g>
     </g>
    </g>
    <g id="ytick_5">
     <g id="line2d_8">
      <path d="M 53.389062 114.797555 
L 276.589063 114.797555 
" clip-path="url(#pcda0652ec2)" style="fill: none; stroke: #ffffff; stroke-linecap: round"/>
     </g>
     <g id="text_9">
      <!-- 0.6 -->
      <g style="fill: #262626" transform="translate(28.599062 118.734352) scale(0.11 -0.11)">
       <defs>
        <path id="ArialMT-36" d="M 3184 3459 
L 2625 3416 
Q 2550 3747 2413 3897 
Q 2184 4138 1850 4138 
Q 1581 4138 1378 3988 
Q 1113 3794 959 3422 
Q 806 3050 800 2363 
Q 1003 2672 1297 2822 
Q 1591 2972 1913 2972 
Q 2475 2972 2870 2558 
Q 3266 2144 3266 1488 
Q 3266 1056 3080 686 
Q 2894 316 2569 119 
Q 2244 -78 1831 -78 
Q 1128 -78 684 439 
Q 241 956 241 2144 
Q 241 3472 731 4075 
Q 1159 4600 1884 4600 
Q 2425 4600 2770 4297 
Q 3116 3994 3184 3459 
z
M 888 1484 
Q 888 1194 1011 928 
Q 1134 663 1356 523 
Q 1578 384 1822 384 
Q 2178 384 2434 671 
Q 2691 959 2691 1453 
Q 2691 1928 2437 2201 
Q 2184 2475 1800 2475 
Q 1419 2475 1153 2201 
Q 888 1928 888 1484 
z
" transform="scale(0.015625)"/>
       </defs>
       <use xlink:href="#ArialMT-30"/>
       <use xlink:href="#ArialMT-2e" transform="translate(55.615234 0)"/>
       <use xlink:href="#ArialMT-36" transform="translate(83.398438 0)"/>
      </g>
     </g>
    </g>
    <g id="ytick_6">
     <g id="line2d_9">
      <path d="M 53.389062 86.642017 
L 276.589063 86.642017 
" clip-path="url(#pcda0652ec2)" style="fill: none; stroke: #ffffff; stroke-linecap: round"/>
     </g>
     <g id="text_10">
      <!-- 0.8 -->
      <g style="fill: #262626" transform="translate(28.599062 90.578814) scale(0.11 -0.11)">
       <defs>
        <path id="ArialMT-38" d="M 1131 2484 
Q 781 2613 612 2850 
Q 444 3088 444 3419 
Q 444 3919 803 4259 
Q 1163 4600 1759 4600 
Q 2359 4600 2725 4251 
Q 3091 3903 3091 3403 
Q 3091 3084 2923 2848 
Q 2756 2613 2416 2484 
Q 2838 2347 3058 2040 
Q 3278 1734 3278 1309 
Q 3278 722 2862 322 
Q 2447 -78 1769 -78 
Q 1091 -78 675 323 
Q 259 725 259 1325 
Q 259 1772 486 2073 
Q 713 2375 1131 2484 
z
M 1019 3438 
Q 1019 3113 1228 2906 
Q 1438 2700 1772 2700 
Q 2097 2700 2305 2904 
Q 2513 3109 2513 3406 
Q 2513 3716 2298 3927 
Q 2084 4138 1766 4138 
Q 1444 4138 1231 3931 
Q 1019 3725 1019 3438 
z
M 838 1322 
Q 838 1081 952 856 
Q 1066 631 1291 507 
Q 1516 384 1775 384 
Q 2178 384 2440 643 
Q 2703 903 2703 1303 
Q 2703 1709 2433 1975 
Q 2163 2241 1756 2241 
Q 1359 2241 1098 1978 
Q 838 1716 838 1322 
z
" transform="scale(0.015625)"/>
       </defs>
       <use xlink:href="#ArialMT-30"/>
       <use xlink:href="#ArialMT-2e" transform="translate(55.615234 0)"/>
       <use xlink:href="#ArialMT-38" transform="translate(83.398438 0)"/>
      </g>
     </g>
    </g>
    <g id="ytick_7">
     <g id="line2d_10">
      <path d="M 53.389062 58.486479 
L 276.589063 58.486479 
" clip-path="url(#pcda0652ec2)" style="fill: none; stroke: #ffffff; stroke-linecap: round"/>
     </g>
     <g id="text_11">
      <!-- 1.0 -->
      <g style="fill: #262626" transform="translate(28.599062 62.423276) scale(0.11 -0.11)">
       <use xlink:href="#ArialMT-31"/>
       <use xlink:href="#ArialMT-2e" transform="translate(55.615234 0)"/>
       <use xlink:href="#ArialMT-30" transform="translate(83.398438 0)"/>
      </g>
     </g>
    </g>
    <g id="ytick_8">
     <g id="line2d_11">
      <path d="M 53.389062 30.330941 
L 276.589063 30.330941 
" clip-path="url(#pcda0652ec2)" style="fill: none; stroke: #ffffff; stroke-linecap: round"/>
     </g>
     <g id="text_12">
      <!-- 1.2 -->
      <g style="fill: #262626" transform="translate(28.599062 34.267738) scale(0.11 -0.11)">
       <use xlink:href="#ArialMT-31"/>
       <use xlink:href="#ArialMT-2e" transform="translate(55.615234 0)"/>
       <use xlink:href="#ArialMT-32" transform="translate(83.398438 0)"/>
      </g>
     </g>
    </g>
    <g id="text_13">
     <!-- $x_2$ -->
     <g style="fill: #262626" transform="translate(15.789375 139.089375) rotate(-90) scale(0.12 -0.12)">
      <defs>
       <path id="DejaVuSans-32" d="M 1228 531 
L 3431 531 
L 3431 0 
L 469 0 
L 469 531 
Q 828 903 1448 1529 
Q 2069 2156 2228 2338 
Q 2531 2678 2651 2914 
Q 2772 3150 2772 3378 
Q 2772 3750 2511 3984 
Q 2250 4219 1831 4219 
Q 1534 4219 1204 4116 
Q 875 4013 500 3803 
L 500 4441 
Q 881 4594 1212 4672 
Q 1544 4750 1819 4750 
Q 2544 4750 2975 4387 
Q 3406 4025 3406 3419 
Q 3406 3131 3298 2873 
Q 3191 2616 2906 2266 
Q 2828 2175 2409 1742 
Q 1991 1309 1228 531 
z
" transform="scale(0.015625)"/>
      </defs>
      <use xlink:href="#DejaVuSans-Oblique-78" transform="translate(0 0.3125)"/>
      <use xlink:href="#DejaVuSans-32" transform="translate(59.179688 -16.09375) scale(0.7)"/>
     </g>
    </g>
   </g>
   <g id="PathCollection_1">
    <defs>
     <path id="me5f37d6675" d="M 0 3 
C 0.795609 3 1.55874 2.683901 2.12132 2.12132 
C 2.683901 1.55874 3 0.795609 3 0 
C 3 -0.795609 2.683901 -1.55874 2.12132 -2.12132 
C 1.55874 -2.683901 0.795609 -3 0 -3 
C -0.795609 -3 -1.55874 -2.683901 -2.12132 -2.12132 
C -2.683901 -1.55874 -3 -0.795609 -3 0 
C -3 0.795609 -2.683901 1.55874 -2.12132 2.12132 
C -1.55874 2.683901 -0.795609 3 0 3 
z
" style="stroke: #333333"/>
    </defs>
    <g clip-path="url(#pcda0652ec2)">
     <use xlink:href="#me5f37d6675" x="97.539806" y="196.194089" style="fill: #4c72b0; stroke: #333333"/>
     <use xlink:href="#me5f37d6675" x="233.285782" y="62.407562" style="fill: #4c72b0; stroke: #333333"/>
     <use xlink:href="#me5f37d6675" x="260.207567" y="64.075467" style="fill: #4c72b0; stroke: #333333"/>
     <use xlink:href="#me5f37d6675" x="110.141494" y="207.498539" style="fill: #4c72b0; stroke: #333333"/>
     <use xlink:href="#me5f37d6675" x="102.553937" y="208.144563" style="fill: #4c72b0; stroke: #333333"/>
     <use xlink:href="#me5f37d6675" x="72.211579" y="192.354374" style="fill: #4c72b0; stroke: #333333"/>
     <use xlink:href="#me5f37d6675" x="244.113666" y="58.757534" style="fill: #4c72b0; stroke: #333333"/>
     <use xlink:href="#me5f37d6675" x="233.244834" y="51.490362" style="fill: #4c72b0; stroke: #333333"/>
     <use xlink:href="#me5f37d6675" x="95.207068" y="207.642452" style="fill: #4c72b0; stroke: #333333"/>
     <use xlink:href="#me5f37d6675" x="238.767099" y="53.664236" style="fill: #4c72b0; stroke: #333333"/>
     <use xlink:href="#me5f37d6675" x="104.771234" y="203.317344" style="fill: #4c72b0; stroke: #333333"/>
     <use xlink:href="#me5f37d6675" x="256.783223" y="31.869375" style="fill: #4c72b0; stroke: #333333"/>
     <use xlink:href="#me5f37d6675" x="239.286127" y="62.861071" style="fill: #4c72b0; stroke: #333333"/>
     <use xlink:href="#me5f37d6675" x="233.398186" y="57.929736" style="fill: #4c72b0; stroke: #333333"/>
     <use xlink:href="#me5f37d6675" x="95.492303" y="215.878372" style="fill: #4c72b0; stroke: #333333"/>
     <use xlink:href="#me5f37d6675" x="90.459961" y="187.74176" style="fill: #4c72b0; stroke: #333333"/>
     <use xlink:href="#me5f37d6675" x="252.495546" y="91.645781" style="fill: #4c72b0; stroke: #333333"/>
     <use xlink:href="#me5f37d6675" x="256.043604" y="84.444915" style="fill: #4c72b0; stroke: #333333"/>
     <use xlink:href="#me5f37d6675" x="227.333462" y="59.341011" style="fill: #4c72b0; stroke: #333333"/>
     <use xlink:href="#me5f37d6675" x="83.251017" y="212.386422" style="fill: #4c72b0; stroke: #333333"/>
     <use xlink:href="#me5f37d6675" x="255.201254" y="32.300941" style="fill: #4c72b0; stroke: #333333"/>
     <use xlink:href="#me5f37d6675" x="246.379035" y="60.174816" style="fill: #4c72b0; stroke: #333333"/>
     <use xlink:href="#me5f37d6675" x="115.650112" y="178.358732" style="fill: #4c72b0; stroke: #333333"/>
     <use xlink:href="#me5f37d6675" x="229.885909" y="32.006534" style="fill: #4c72b0; stroke: #333333"/>
     <use xlink:href="#me5f37d6675" x="101.009139" y="197.674805" style="fill: #4c72b0; stroke: #333333"/>
     <use xlink:href="#me5f37d6675" x="229.0353" y="51.55603" style="fill: #4c72b0; stroke: #333333"/>
     <use xlink:href="#me5f37d6675" x="88.109479" y="182.086673" style="fill: #4c72b0; stroke: #333333"/>
     <use xlink:href="#me5f37d6675" x="251.955188" y="48.770955" style="fill: #4c72b0; stroke: #333333"/>
     <use xlink:href="#me5f37d6675" x="247.624388" y="61.762696" style="fill: #4c72b0; stroke: #333333"/>
     <use xlink:href="#me5f37d6675" x="241.407644" y="43.589946" style="fill: #4c72b0; stroke: #333333"/>
     <use xlink:href="#me5f37d6675" x="93.569106" y="187.06414" style="fill: #4c72b0; stroke: #333333"/>
     <use xlink:href="#me5f37d6675" x="105.73424" y="212.903981" style="fill: #4c72b0; stroke: #333333"/>
     <use xlink:href="#me5f37d6675" x="88.588559" y="172.023491" style="fill: #4c72b0; stroke: #333333"/>
     <use xlink:href="#me5f37d6675" x="98.973612" y="204.346384" style="fill: #4c72b0; stroke: #333333"/>
     <use xlink:href="#me5f37d6675" x="113.430584" y="203.88621" style="fill: #4c72b0; stroke: #333333"/>
     <use xlink:href="#me5f37d6675" x="94.614859" y="198.617812" style="fill: #4c72b0; stroke: #333333"/>
     <use xlink:href="#me5f37d6675" x="114.190526" y="215.455724" style="fill: #4c72b0; stroke: #333333"/>
     <use xlink:href="#me5f37d6675" x="215.151649" y="39.435325" style="fill: #4c72b0; stroke: #333333"/>
     <use xlink:href="#me5f37d6675" x="254.637069" y="64.916212" style="fill: #4c72b0; stroke: #333333"/>
     <use xlink:href="#me5f37d6675" x="239.430724" y="64.05438" style="fill: #4c72b0; stroke: #333333"/>
     <use xlink:href="#me5f37d6675" x="94.562883" y="208.519454" style="fill: #4c72b0; stroke: #333333"/>
     <use xlink:href="#me5f37d6675" x="223.925132" y="89.890542" style="fill: #4c72b0; stroke: #333333"/>
     <use xlink:href="#me5f37d6675" x="247.295643" y="56.937315" style="fill: #4c72b0; stroke: #333333"/>
     <use xlink:href="#me5f37d6675" x="99.136481" y="215.36937" style="fill: #4c72b0; stroke: #333333"/>
     <use xlink:href="#me5f37d6675" x="111.837039" y="221.03036" style="fill: #4c72b0; stroke: #333333"/>
     <use xlink:href="#me5f37d6675" x="120.506729" y="179.572925" style="fill: #4c72b0; stroke: #333333"/>
     <use xlink:href="#me5f37d6675" x="230.6594" y="72.323765" style="fill: #4c72b0; stroke: #333333"/>
     <use xlink:href="#me5f37d6675" x="218.336148" y="44.267856" style="fill: #4c72b0; stroke: #333333"/>
     <use xlink:href="#me5f37d6675" x="91.649126" y="208.930411" style="fill: #4c72b0; stroke: #333333"/>
     <use xlink:href="#me5f37d6675" x="231.865739" y="68.874173" style="fill: #4c72b0; stroke: #333333"/>
     <use xlink:href="#me5f37d6675" x="99.870646" y="204.055227" style="fill: #4c72b0; stroke: #333333"/>
     <use xlink:href="#me5f37d6675" x="243.524679" y="33.304841" style="fill: #4c72b0; stroke: #333333"/>
     <use xlink:href="#me5f37d6675" x="96.395165" y="191.538077" style="fill: #4c72b0; stroke: #333333"/>
     <use xlink:href="#me5f37d6675" x="228.888058" y="77.125173" style="fill: #4c72b0; stroke: #333333"/>
     <use xlink:href="#me5f37d6675" x="240.390719" y="47.406796" style="fill: #4c72b0; stroke: #333333"/>
     <use xlink:href="#me5f37d6675" x="72.21366" y="193.42378" style="fill: #4c72b0; stroke: #333333"/>
     <use xlink:href="#me5f37d6675" x="218.212815" y="47.162601" style="fill: #4c72b0; stroke: #333333"/>
     <use xlink:href="#me5f37d6675" x="248.57056" y="65.94635" style="fill: #4c72b0; stroke: #333333"/>
     <use xlink:href="#me5f37d6675" x="84.170637" y="199.761325" style="fill: #4c72b0; stroke: #333333"/>
     <use xlink:href="#me5f37d6675" x="95.838332" y="233.469375" style="fill: #4c72b0; stroke: #333333"/>
     <use xlink:href="#me5f37d6675" x="95.293269" y="202.871059" style="fill: #4c72b0; stroke: #333333"/>
     <use xlink:href="#me5f37d6675" x="77.154625" y="203.00904" style="fill: #4c72b0; stroke: #333333"/>
     <use xlink:href="#me5f37d6675" x="262.790256" y="66.086799" style="fill: #4c72b0; stroke: #333333"/>
     <use xlink:href="#me5f37d6675" x="228.879584" y="74.25284" style="fill: #4c72b0; stroke: #333333"/>
     <use xlink:href="#me5f37d6675" x="254.79415" y="39.496043" style="fill: #4c72b0; stroke: #333333"/>
     <use xlink:href="#me5f37d6675" x="77.718849" y="188.030775" style="fill: #4c72b0; stroke: #333333"/>
     <use xlink:href="#me5f37d6675" x="240.12565" y="83.095104" style="fill: #4c72b0; stroke: #333333"/>
     <use xlink:href="#me5f37d6675" x="250.451197" y="90.470789" style="fill: #4c72b0; stroke: #333333"/>
     <use xlink:href="#me5f37d6675" x="119.616061" y="221.668569" style="fill: #4c72b0; stroke: #333333"/>
     <use xlink:href="#me5f37d6675" x="109.938831" y="210.212375" style="fill: #4c72b0; stroke: #333333"/>
     <use xlink:href="#me5f37d6675" x="96.188485" y="192.826997" style="fill: #4c72b0; stroke: #333333"/>
     <use xlink:href="#me5f37d6675" x="97.03243" y="190.468768" style="fill: #4c72b0; stroke: #333333"/>
     <use xlink:href="#me5f37d6675" x="240.737471" y="53.967521" style="fill: #4c72b0; stroke: #333333"/>
     <use xlink:href="#me5f37d6675" x="228.199143" y="88.933355" style="fill: #4c72b0; stroke: #333333"/>
     <use xlink:href="#me5f37d6675" x="96.144984" y="198.433936" style="fill: #4c72b0; stroke: #333333"/>
     <use xlink:href="#me5f37d6675" x="108.219394" y="189.590574" style="fill: #4c72b0; stroke: #333333"/>
     <use xlink:href="#me5f37d6675" x="109.796082" y="197.002291" style="fill: #4c72b0; stroke: #333333"/>
     <use xlink:href="#me5f37d6675" x="240.455536" y="37.365147" style="fill: #4c72b0; stroke: #333333"/>
     <use xlink:href="#me5f37d6675" x="239.545509" y="35.492476" style="fill: #4c72b0; stroke: #333333"/>
     <use xlink:href="#me5f37d6675" x="98.222624" y="211.27079" style="fill: #4c72b0; stroke: #333333"/>
     <use xlink:href="#me5f37d6675" x="251.260163" y="37.478476" style="fill: #4c72b0; stroke: #333333"/>
     <use xlink:href="#me5f37d6675" x="233.587526" y="72.84045" style="fill: #4c72b0; stroke: #333333"/>
     <use xlink:href="#me5f37d6675" x="249.427841" y="33.268743" style="fill: #4c72b0; stroke: #333333"/>
     <use xlink:href="#me5f37d6675" x="89.657172" y="195.814387" style="fill: #4c72b0; stroke: #333333"/>
     <use xlink:href="#me5f37d6675" x="235.498695" y="47.97683" style="fill: #4c72b0; stroke: #333333"/>
     <use xlink:href="#me5f37d6675" x="99.764129" y="215.765429" style="fill: #4c72b0; stroke: #333333"/>
     <use xlink:href="#me5f37d6675" x="109.028232" y="207.3977" style="fill: #4c72b0; stroke: #333333"/>
     <use xlink:href="#me5f37d6675" x="88.954921" y="194.043437" style="fill: #4c72b0; stroke: #333333"/>
     <use xlink:href="#me5f37d6675" x="214.045123" y="53.938907" style="fill: #4c72b0; stroke: #333333"/>
     <use xlink:href="#me5f37d6675" x="226.396293" y="47.819466" style="fill: #4c72b0; stroke: #333333"/>
     <use xlink:href="#me5f37d6675" x="203.870877" y="44.6089" style="fill: #4c72b0; stroke: #333333"/>
     <use xlink:href="#me5f37d6675" x="88.209656" y="194.36802" style="fill: #4c72b0; stroke: #333333"/>
     <use xlink:href="#me5f37d6675" x="117.915548" y="210.115078" style="fill: #4c72b0; stroke: #333333"/>
     <use xlink:href="#me5f37d6675" x="93.004907" y="213.014281" style="fill: #4c72b0; stroke: #333333"/>
     <use xlink:href="#me5f37d6675" x="227.120221" y="91.535372" style="fill: #4c72b0; stroke: #333333"/>
     <use xlink:href="#me5f37d6675" x="103.315364" y="198.211315" style="fill: #4c72b0; stroke: #333333"/>
     <use xlink:href="#me5f37d6675" x="96.133368" y="191.93387" style="fill: #4c72b0; stroke: #333333"/>
     <use xlink:href="#me5f37d6675" x="90.744114" y="203.229195" style="fill: #4c72b0; stroke: #333333"/>
     <use xlink:href="#me5f37d6675" x="100.395289" y="211.370525" style="fill: #4c72b0; stroke: #333333"/>
     <use xlink:href="#me5f37d6675" x="212.80607" y="58.045515" style="fill: #4c72b0; stroke: #333333"/>
     <use xlink:href="#me5f37d6675" x="221.979538" y="41.321338" style="fill: #4c72b0; stroke: #333333"/>
     <use xlink:href="#me5f37d6675" x="73.365903" y="217.733828" style="fill: #4c72b0; stroke: #333333"/>
     <use xlink:href="#me5f37d6675" x="237.144488" y="81.0914" style="fill: #4c72b0; stroke: #333333"/>
    </g>
   </g>
   <g id="PathCollection_2">
    <defs>
     <path id="mc085b98f60" d="M 0 3 
C 0.795609 3 1.55874 2.683901 2.12132 2.12132 
C 2.683901 1.55874 3 0.795609 3 0 
C 3 -0.795609 2.683901 -1.55874 2.12132 -2.12132 
C 1.55874 -2.683901 0.795609 -3 0 -3 
C -0.795609 -3 -1.55874 -2.683901 -2.12132 -2.12132 
C -2.683901 -1.55874 -3 -0.795609 -3 0 
C -3 0.795609 -2.683901 1.55874 -2.12132 2.12132 
C -1.55874 2.683901 -0.795609 3 0 3 
z
" style="stroke: #333333"/>
    </defs>
    <g clip-path="url(#pcda0652ec2)">
     <use xlink:href="#mc085b98f60" x="232.105188" y="183.53571" style="fill: #dd8452; stroke: #333333"/>
     <use xlink:href="#mc085b98f60" x="245.070552" y="183.811511" style="fill: #dd8452; stroke: #333333"/>
     <use xlink:href="#mc085b98f60" x="233.245222" y="201.912465" style="fill: #dd8452; stroke: #333333"/>
     <use xlink:href="#mc085b98f60" x="90.974502" y="45.322689" style="fill: #dd8452; stroke: #333333"/>
     <use xlink:href="#mc085b98f60" x="251.914578" y="204.632871" style="fill: #dd8452; stroke: #333333"/>
     <use xlink:href="#mc085b98f60" x="101.628532" y="63.843984" style="fill: #dd8452; stroke: #333333"/>
     <use xlink:href="#mc085b98f60" x="221.090163" y="214.576864" style="fill: #dd8452; stroke: #333333"/>
     <use xlink:href="#mc085b98f60" x="131.82678" y="59.810957" style="fill: #dd8452; stroke: #333333"/>
     <use xlink:href="#mc085b98f60" x="248.764183" y="220.539981" style="fill: #dd8452; stroke: #333333"/>
     <use xlink:href="#mc085b98f60" x="216.025291" y="188.272334" style="fill: #dd8452; stroke: #333333"/>
     <use xlink:href="#mc085b98f60" x="231.135032" y="175.483171" style="fill: #dd8452; stroke: #333333"/>
     <use xlink:href="#mc085b98f60" x="66.959267" y="44.480081" style="fill: #dd8452; stroke: #333333"/>
     <use xlink:href="#mc085b98f60" x="117.813699" y="45.465487" style="fill: #dd8452; stroke: #333333"/>
     <use xlink:href="#mc085b98f60" x="97.705625" y="77.043453" style="fill: #dd8452; stroke: #333333"/>
     <use xlink:href="#mc085b98f60" x="98.016514" y="41.955563" style="fill: #dd8452; stroke: #333333"/>
     <use xlink:href="#mc085b98f60" x="76.936672" y="38.833858" style="fill: #dd8452; stroke: #333333"/>
     <use xlink:href="#mc085b98f60" x="235.150174" y="204.793483" style="fill: #dd8452; stroke: #333333"/>
     <use xlink:href="#mc085b98f60" x="217.510895" y="183.385967" style="fill: #dd8452; stroke: #333333"/>
     <use xlink:href="#mc085b98f60" x="227.173678" y="185.493014" style="fill: #dd8452; stroke: #333333"/>
     <use xlink:href="#mc085b98f60" x="109.116969" y="59.464216" style="fill: #dd8452; stroke: #333333"/>
     <use xlink:href="#mc085b98f60" x="213.494439" y="194.992751" style="fill: #dd8452; stroke: #333333"/>
     <use xlink:href="#mc085b98f60" x="258.317538" y="203.55467" style="fill: #dd8452; stroke: #333333"/>
     <use xlink:href="#mc085b98f60" x="249.756222" y="201.071675" style="fill: #dd8452; stroke: #333333"/>
     <use xlink:href="#mc085b98f60" x="224.503776" y="205.159148" style="fill: #dd8452; stroke: #333333"/>
     <use xlink:href="#mc085b98f60" x="255.852775" y="178.989748" style="fill: #dd8452; stroke: #333333"/>
     <use xlink:href="#mc085b98f60" x="84.428859" y="70.597434" style="fill: #dd8452; stroke: #333333"/>
     <use xlink:href="#mc085b98f60" x="252.952221" y="181.981948" style="fill: #dd8452; stroke: #333333"/>
     <use xlink:href="#mc085b98f60" x="112.047413" y="55.246209" style="fill: #dd8452; stroke: #333333"/>
     <use xlink:href="#mc085b98f60" x="233.354476" y="181.246624" style="fill: #dd8452; stroke: #333333"/>
     <use xlink:href="#mc085b98f60" x="69.726027" y="57.133396" style="fill: #dd8452; stroke: #333333"/>
     <use xlink:href="#mc085b98f60" x="96.454791" y="66.461726" style="fill: #dd8452; stroke: #333333"/>
     <use xlink:href="#mc085b98f60" x="224.621099" y="211.84629" style="fill: #dd8452; stroke: #333333"/>
     <use xlink:href="#mc085b98f60" x="216.173386" y="185.799989" style="fill: #dd8452; stroke: #333333"/>
     <use xlink:href="#mc085b98f60" x="101.433745" y="60.894672" style="fill: #dd8452; stroke: #333333"/>
     <use xlink:href="#mc085b98f60" x="245.355299" y="186.540271" style="fill: #dd8452; stroke: #333333"/>
     <use xlink:href="#mc085b98f60" x="102.010229" y="68.923462" style="fill: #dd8452; stroke: #333333"/>
     <use xlink:href="#mc085b98f60" x="98.914098" y="71.728482" style="fill: #dd8452; stroke: #333333"/>
     <use xlink:href="#mc085b98f60" x="262.469315" y="212.544852" style="fill: #dd8452; stroke: #333333"/>
     <use xlink:href="#mc085b98f60" x="232.764414" y="182.680053" style="fill: #dd8452; stroke: #333333"/>
     <use xlink:href="#mc085b98f60" x="85.660159" y="55.963069" style="fill: #dd8452; stroke: #333333"/>
     <use xlink:href="#mc085b98f60" x="115.932552" y="58.059176" style="fill: #dd8452; stroke: #333333"/>
     <use xlink:href="#mc085b98f60" x="119.367701" y="40.110684" style="fill: #dd8452; stroke: #333333"/>
     <use xlink:href="#mc085b98f60" x="245.559437" y="209.455406" style="fill: #dd8452; stroke: #333333"/>
     <use xlink:href="#mc085b98f60" x="86.16558" y="60.204638" style="fill: #dd8452; stroke: #333333"/>
     <use xlink:href="#mc085b98f60" x="230.339153" y="187.963038" style="fill: #dd8452; stroke: #333333"/>
     <use xlink:href="#mc085b98f60" x="101.093971" y="73.992635" style="fill: #dd8452; stroke: #333333"/>
     <use xlink:href="#mc085b98f60" x="109.002647" y="50.151963" style="fill: #dd8452; stroke: #333333"/>
     <use xlink:href="#mc085b98f60" x="107.909657" y="53.668532" style="fill: #dd8452; stroke: #333333"/>
     <use xlink:href="#mc085b98f60" x="221.52822" y="188.880412" style="fill: #dd8452; stroke: #333333"/>
     <use xlink:href="#mc085b98f60" x="86.159265" y="78.075849" style="fill: #dd8452; stroke: #333333"/>
     <use xlink:href="#mc085b98f60" x="106.719623" y="48.146295" style="fill: #dd8452; stroke: #333333"/>
     <use xlink:href="#mc085b98f60" x="213.246003" y="184.852222" style="fill: #dd8452; stroke: #333333"/>
     <use xlink:href="#mc085b98f60" x="240.008649" y="213.803831" style="fill: #dd8452; stroke: #333333"/>
     <use xlink:href="#mc085b98f60" x="104.149069" y="48.666101" style="fill: #dd8452; stroke: #333333"/>
     <use xlink:href="#mc085b98f60" x="110.455243" y="68.16593" style="fill: #dd8452; stroke: #333333"/>
     <use xlink:href="#mc085b98f60" x="220.144636" y="198.014956" style="fill: #dd8452; stroke: #333333"/>
     <use xlink:href="#mc085b98f60" x="211.640596" y="200.76535" style="fill: #dd8452; stroke: #333333"/>
     <use xlink:href="#mc085b98f60" x="107.637359" y="62.637022" style="fill: #dd8452; stroke: #333333"/>
     <use xlink:href="#mc085b98f60" x="63.534517" y="69.94875" style="fill: #dd8452; stroke: #333333"/>
     <use xlink:href="#mc085b98f60" x="93.062579" y="78.036143" style="fill: #dd8452; stroke: #333333"/>
     <use xlink:href="#mc085b98f60" x="110.711384" y="52.179633" style="fill: #dd8452; stroke: #333333"/>
     <use xlink:href="#mc085b98f60" x="88.755485" y="63.507178" style="fill: #dd8452; stroke: #333333"/>
     <use xlink:href="#mc085b98f60" x="95.262729" y="55.904618" style="fill: #dd8452; stroke: #333333"/>
     <use xlink:href="#mc085b98f60" x="111.341492" y="68.645107" style="fill: #dd8452; stroke: #333333"/>
     <use xlink:href="#mc085b98f60" x="258.54643" y="205.365122" style="fill: #dd8452; stroke: #333333"/>
     <use xlink:href="#mc085b98f60" x="80.99024" y="39.667504" style="fill: #dd8452; stroke: #333333"/>
     <use xlink:href="#mc085b98f60" x="259.276624" y="187.71636" style="fill: #dd8452; stroke: #333333"/>
     <use xlink:href="#mc085b98f60" x="246.017287" y="174.307688" style="fill: #dd8452; stroke: #333333"/>
     <use xlink:href="#mc085b98f60" x="215.702515" y="214.525195" style="fill: #dd8452; stroke: #333333"/>
     <use xlink:href="#mc085b98f60" x="219.61596" y="230.796481" style="fill: #dd8452; stroke: #333333"/>
     <use xlink:href="#mc085b98f60" x="99.475157" y="41.196681" style="fill: #dd8452; stroke: #333333"/>
     <use xlink:href="#mc085b98f60" x="222.319345" y="181.543165" style="fill: #dd8452; stroke: #333333"/>
     <use xlink:href="#mc085b98f60" x="209.011362" y="167.331323" style="fill: #dd8452; stroke: #333333"/>
     <use xlink:href="#mc085b98f60" x="85.714515" y="47.084313" style="fill: #dd8452; stroke: #333333"/>
     <use xlink:href="#mc085b98f60" x="109.548621" y="60.063963" style="fill: #dd8452; stroke: #333333"/>
     <use xlink:href="#mc085b98f60" x="248.253075" y="186.983255" style="fill: #dd8452; stroke: #333333"/>
     <use xlink:href="#mc085b98f60" x="93.252248" y="51.449028" style="fill: #dd8452; stroke: #333333"/>
     <use xlink:href="#mc085b98f60" x="105.204157" y="61.829808" style="fill: #dd8452; stroke: #333333"/>
     <use xlink:href="#mc085b98f60" x="103.603577" y="65.132381" style="fill: #dd8452; stroke: #333333"/>
     <use xlink:href="#mc085b98f60" x="231.755146" y="179.719128" style="fill: #dd8452; stroke: #333333"/>
     <use xlink:href="#mc085b98f60" x="239.712924" y="170.31478" style="fill: #dd8452; stroke: #333333"/>
     <use xlink:href="#mc085b98f60" x="248.56813" y="187.88688" style="fill: #dd8452; stroke: #333333"/>
     <use xlink:href="#mc085b98f60" x="136.036725" y="59.510794" style="fill: #dd8452; stroke: #333333"/>
     <use xlink:href="#mc085b98f60" x="214.954778" y="216.84928" style="fill: #dd8452; stroke: #333333"/>
     <use xlink:href="#mc085b98f60" x="266.443608" y="215.878659" style="fill: #dd8452; stroke: #333333"/>
     <use xlink:href="#mc085b98f60" x="228.067567" y="212.785149" style="fill: #dd8452; stroke: #333333"/>
     <use xlink:href="#mc085b98f60" x="89.68311" y="70.216927" style="fill: #dd8452; stroke: #333333"/>
     <use xlink:href="#mc085b98f60" x="87.428766" y="59.507488" style="fill: #dd8452; stroke: #333333"/>
     <use xlink:href="#mc085b98f60" x="250.936693" y="215.716214" style="fill: #dd8452; stroke: #333333"/>
     <use xlink:href="#mc085b98f60" x="87.867838" y="67.088207" style="fill: #dd8452; stroke: #333333"/>
     <use xlink:href="#mc085b98f60" x="73.777213" y="62.043266" style="fill: #dd8452; stroke: #333333"/>
     <use xlink:href="#mc085b98f60" x="117.555368" y="48.610217" style="fill: #dd8452; stroke: #333333"/>
     <use xlink:href="#mc085b98f60" x="90.852757" y="51.644404" style="fill: #dd8452; stroke: #333333"/>
     <use xlink:href="#mc085b98f60" x="258.598101" y="213.182593" style="fill: #dd8452; stroke: #333333"/>
     <use xlink:href="#mc085b98f60" x="210.562353" y="194.797245" style="fill: #dd8452; stroke: #333333"/>
     <use xlink:href="#mc085b98f60" x="99.36688" y="44.479544" style="fill: #dd8452; stroke: #333333"/>
     <use xlink:href="#mc085b98f60" x="255.847203" y="210.711868" style="fill: #dd8452; stroke: #333333"/>
    </g>
   </g>
   <g id="patch_3">
    <path d="M 53.389062 243.549375 
L 53.389062 21.789375 
" style="fill: none; stroke: #ffffff; stroke-width: 1.25; stroke-linejoin: miter; stroke-linecap: square"/>
   </g>
   <g id="patch_4">
    <path d="M 276.589063 243.549375 
L 276.589063 21.789375 
" style="fill: none; stroke: #ffffff; stroke-width: 1.25; stroke-linejoin: miter; stroke-linecap: square"/>
   </g>
   <g id="patch_5">
    <path d="M 53.389063 243.549375 
L 276.589062 243.549375 
" style="fill: none; stroke: #ffffff; stroke-width: 1.25; stroke-linejoin: miter; stroke-linecap: square"/>
   </g>
   <g id="patch_6">
    <path d="M 53.389063 21.789375 
L 276.589062 21.789375 
" style="fill: none; stroke: #ffffff; stroke-width: 1.25; stroke-linejoin: miter; stroke-linecap: square"/>
   </g>
   <g id="text_14">
    <!-- Dataset samples -->
    <g style="fill: #262626" transform="translate(120.305 15.789375) scale(0.12 -0.12)">
     <defs>
      <path id="ArialMT-44" d="M 494 0 
L 494 4581 
L 2072 4581 
Q 2606 4581 2888 4516 
Q 3281 4425 3559 4188 
Q 3922 3881 4101 3404 
Q 4281 2928 4281 2316 
Q 4281 1794 4159 1391 
Q 4038 988 3847 723 
Q 3656 459 3429 307 
Q 3203 156 2883 78 
Q 2563 0 2147 0 
L 494 0 
z
M 1100 541 
L 2078 541 
Q 2531 541 2789 625 
Q 3047 709 3200 863 
Q 3416 1078 3536 1442 
Q 3656 1806 3656 2325 
Q 3656 3044 3420 3430 
Q 3184 3816 2847 3947 
Q 2603 4041 2063 4041 
L 1100 4041 
L 1100 541 
z
" transform="scale(0.015625)"/>
      <path id="ArialMT-61" d="M 2588 409 
Q 2275 144 1986 34 
Q 1697 -75 1366 -75 
Q 819 -75 525 192 
Q 231 459 231 875 
Q 231 1119 342 1320 
Q 453 1522 633 1644 
Q 813 1766 1038 1828 
Q 1203 1872 1538 1913 
Q 2219 1994 2541 2106 
Q 2544 2222 2544 2253 
Q 2544 2597 2384 2738 
Q 2169 2928 1744 2928 
Q 1347 2928 1158 2789 
Q 969 2650 878 2297 
L 328 2372 
Q 403 2725 575 2942 
Q 747 3159 1072 3276 
Q 1397 3394 1825 3394 
Q 2250 3394 2515 3294 
Q 2781 3194 2906 3042 
Q 3031 2891 3081 2659 
Q 3109 2516 3109 2141 
L 3109 1391 
Q 3109 606 3145 398 
Q 3181 191 3288 0 
L 2700 0 
Q 2613 175 2588 409 
z
M 2541 1666 
Q 2234 1541 1622 1453 
Q 1275 1403 1131 1340 
Q 988 1278 909 1158 
Q 831 1038 831 891 
Q 831 666 1001 516 
Q 1172 366 1500 366 
Q 1825 366 2078 508 
Q 2331 650 2450 897 
Q 2541 1088 2541 1459 
L 2541 1666 
z
" transform="scale(0.015625)"/>
      <path id="ArialMT-74" d="M 1650 503 
L 1731 6 
Q 1494 -44 1306 -44 
Q 1000 -44 831 53 
Q 663 150 594 308 
Q 525 466 525 972 
L 525 2881 
L 113 2881 
L 113 3319 
L 525 3319 
L 525 4141 
L 1084 4478 
L 1084 3319 
L 1650 3319 
L 1650 2881 
L 1084 2881 
L 1084 941 
Q 1084 700 1114 631 
Q 1144 563 1211 522 
Q 1278 481 1403 481 
Q 1497 481 1650 503 
z
" transform="scale(0.015625)"/>
      <path id="ArialMT-73" d="M 197 991 
L 753 1078 
Q 800 744 1014 566 
Q 1228 388 1613 388 
Q 2000 388 2187 545 
Q 2375 703 2375 916 
Q 2375 1106 2209 1216 
Q 2094 1291 1634 1406 
Q 1016 1563 777 1677 
Q 538 1791 414 1992 
Q 291 2194 291 2438 
Q 291 2659 392 2848 
Q 494 3038 669 3163 
Q 800 3259 1026 3326 
Q 1253 3394 1513 3394 
Q 1903 3394 2198 3281 
Q 2494 3169 2634 2976 
Q 2775 2784 2828 2463 
L 2278 2388 
Q 2241 2644 2061 2787 
Q 1881 2931 1553 2931 
Q 1166 2931 1000 2803 
Q 834 2675 834 2503 
Q 834 2394 903 2306 
Q 972 2216 1119 2156 
Q 1203 2125 1616 2013 
Q 2213 1853 2448 1751 
Q 2684 1650 2818 1456 
Q 2953 1263 2953 975 
Q 2953 694 2789 445 
Q 2625 197 2315 61 
Q 2006 -75 1616 -75 
Q 969 -75 630 194 
Q 291 463 197 991 
z
" transform="scale(0.015625)"/>
      <path id="ArialMT-65" d="M 2694 1069 
L 3275 997 
Q 3138 488 2766 206 
Q 2394 -75 1816 -75 
Q 1088 -75 661 373 
Q 234 822 234 1631 
Q 234 2469 665 2931 
Q 1097 3394 1784 3394 
Q 2450 3394 2872 2941 
Q 3294 2488 3294 1666 
Q 3294 1616 3291 1516 
L 816 1516 
Q 847 969 1125 678 
Q 1403 388 1819 388 
Q 2128 388 2347 550 
Q 2566 713 2694 1069 
z
M 847 1978 
L 2700 1978 
Q 2663 2397 2488 2606 
Q 2219 2931 1791 2931 
Q 1403 2931 1139 2672 
Q 875 2413 847 1978 
z
" transform="scale(0.015625)"/>
      <path id="ArialMT-20" transform="scale(0.015625)"/>
      <path id="ArialMT-6d" d="M 422 0 
L 422 3319 
L 925 3319 
L 925 2853 
Q 1081 3097 1340 3245 
Q 1600 3394 1931 3394 
Q 2300 3394 2536 3241 
Q 2772 3088 2869 2813 
Q 3263 3394 3894 3394 
Q 4388 3394 4653 3120 
Q 4919 2847 4919 2278 
L 4919 0 
L 4359 0 
L 4359 2091 
Q 4359 2428 4304 2576 
Q 4250 2725 4106 2815 
Q 3963 2906 3769 2906 
Q 3419 2906 3187 2673 
Q 2956 2441 2956 1928 
L 2956 0 
L 2394 0 
L 2394 2156 
Q 2394 2531 2256 2718 
Q 2119 2906 1806 2906 
Q 1569 2906 1367 2781 
Q 1166 2656 1075 2415 
Q 984 2175 984 1722 
L 984 0 
L 422 0 
z
" transform="scale(0.015625)"/>
      <path id="ArialMT-70" d="M 422 -1272 
L 422 3319 
L 934 3319 
L 934 2888 
Q 1116 3141 1344 3267 
Q 1572 3394 1897 3394 
Q 2322 3394 2647 3175 
Q 2972 2956 3137 2557 
Q 3303 2159 3303 1684 
Q 3303 1175 3120 767 
Q 2938 359 2589 142 
Q 2241 -75 1856 -75 
Q 1575 -75 1351 44 
Q 1128 163 984 344 
L 984 -1272 
L 422 -1272 
z
M 931 1641 
Q 931 1000 1190 694 
Q 1450 388 1819 388 
Q 2194 388 2461 705 
Q 2728 1022 2728 1688 
Q 2728 2322 2467 2637 
Q 2206 2953 1844 2953 
Q 1484 2953 1207 2617 
Q 931 2281 931 1641 
z
" transform="scale(0.015625)"/>
      <path id="ArialMT-6c" d="M 409 0 
L 409 4581 
L 972 4581 
L 972 0 
L 409 0 
z
" transform="scale(0.015625)"/>
     </defs>
     <use xlink:href="#ArialMT-44"/>
     <use xlink:href="#ArialMT-61" transform="translate(72.216797 0)"/>
     <use xlink:href="#ArialMT-74" transform="translate(127.832031 0)"/>
     <use xlink:href="#ArialMT-61" transform="translate(155.615234 0)"/>
     <use xlink:href="#ArialMT-73" transform="translate(211.230469 0)"/>
     <use xlink:href="#ArialMT-65" transform="translate(261.230469 0)"/>
     <use xlink:href="#ArialMT-74" transform="translate(316.845703 0)"/>
     <use xlink:href="#ArialMT-20" transform="translate(344.628906 0)"/>
     <use xlink:href="#ArialMT-73" transform="translate(372.412109 0)"/>
     <use xlink:href="#ArialMT-61" transform="translate(422.412109 0)"/>
     <use xlink:href="#ArialMT-6d" transform="translate(478.027344 0)"/>
     <use xlink:href="#ArialMT-70" transform="translate(561.328125 0)"/>
     <use xlink:href="#ArialMT-6c" transform="translate(616.943359 0)"/>
     <use xlink:href="#ArialMT-65" transform="translate(639.160156 0)"/>
     <use xlink:href="#ArialMT-73" transform="translate(694.775391 0)"/>
    </g>
   </g>
   <g id="legend_1">
    <g id="patch_7">
     <path d="M 197.010937 149.879219 
L 268.889063 149.879219 
Q 271.089063 149.879219 271.089063 147.679219 
L 271.089063 117.659531 
Q 271.089063 115.459531 268.889063 115.459531 
L 197.010937 115.459531 
Q 194.810937 115.459531 194.810937 117.659531 
L 194.810937 147.679219 
Q 194.810937 149.879219 197.010937 149.879219 
z
" style="fill: #eaeaf2; opacity: 0.8; stroke: #cccccc; stroke-linejoin: miter"/>
    </g>
    <g id="PathCollection_3">
     <g>
      <use xlink:href="#me5f37d6675" x="210.210938" y="124.845625" style="fill: #4c72b0; stroke: #333333"/>
     </g>
    </g>
    <g id="text_15">
     <!-- Class 0 -->
     <g style="fill: #262626" transform="translate(230.010938 127.733125) scale(0.11 -0.11)">
      <defs>
       <path id="ArialMT-43" d="M 3763 1606 
L 4369 1453 
Q 4178 706 3683 314 
Q 3188 -78 2472 -78 
Q 1731 -78 1267 223 
Q 803 525 561 1097 
Q 319 1669 319 2325 
Q 319 3041 592 3573 
Q 866 4106 1370 4382 
Q 1875 4659 2481 4659 
Q 3169 4659 3637 4309 
Q 4106 3959 4291 3325 
L 3694 3184 
Q 3534 3684 3231 3912 
Q 2928 4141 2469 4141 
Q 1941 4141 1586 3887 
Q 1231 3634 1087 3207 
Q 944 2781 944 2328 
Q 944 1744 1114 1308 
Q 1284 872 1643 656 
Q 2003 441 2422 441 
Q 2931 441 3284 734 
Q 3638 1028 3763 1606 
z
" transform="scale(0.015625)"/>
      </defs>
      <use xlink:href="#ArialMT-43"/>
      <use xlink:href="#ArialMT-6c" transform="translate(72.216797 0)"/>
      <use xlink:href="#ArialMT-61" transform="translate(94.433594 0)"/>
      <use xlink:href="#ArialMT-73" transform="translate(150.048828 0)"/>
      <use xlink:href="#ArialMT-73" transform="translate(200.048828 0)"/>
      <use xlink:href="#ArialMT-20" transform="translate(250.048828 0)"/>
      <use xlink:href="#ArialMT-30" transform="translate(277.832031 0)"/>
     </g>
    </g>
    <g id="PathCollection_4">
     <g>
      <use xlink:href="#mc085b98f60" x="210.210938" y="140.405469" style="fill: #dd8452; stroke: #333333"/>
     </g>
    </g>
    <g id="text_16">
     <!-- Class 1 -->
     <g style="fill: #262626" transform="translate(230.010938 143.292969) scale(0.11 -0.11)">
      <use xlink:href="#ArialMT-43"/>
      <use xlink:href="#ArialMT-6c" transform="translate(72.216797 0)"/>
      <use xlink:href="#ArialMT-61" transform="translate(94.433594 0)"/>
      <use xlink:href="#ArialMT-73" transform="translate(150.048828 0)"/>
      <use xlink:href="#ArialMT-73" transform="translate(200.048828 0)"/>
      <use xlink:href="#ArialMT-20" transform="translate(250.048828 0)"/>
      <use xlink:href="#ArialMT-31" transform="translate(277.832031 0)"/>
     </g>
    </g>
   </g>
  </g>
 </g>
 <defs>
  <clipPath id="pcda0652ec2">
   <rect x="53.389062" y="21.789375" width="223.2" height="221.76"/>
  </clipPath>
 </defs>
</svg>
