<?xml version="1.0" encoding="utf-8" standalone="no"?>
<!DOCTYPE svg PUBLIC "-//W3C//DTD SVG 1.1//EN"
  "http://www.w3.org/Graphics/SVG/1.1/DTD/svg11.dtd">
<svg xmlns:xlink="http://www.w3.org/1999/xlink" width="283.789062pt" height="285.283594pt" viewBox="0 0 283.789062 285.283594" xmlns="http://www.w3.org/2000/svg" version="1.1">
 <metadata>
  <rdf:RDF xmlns:dc="http://purl.org/dc/elements/1.1/" xmlns:cc="http://creativecommons.org/ns#" xmlns:rdf="http://www.w3.org/1999/02/22-rdf-syntax-ns#">
   <cc:Work>
    <dc:type rdf:resource="http://purl.org/dc/dcmitype/StillImage"/>
    <dc:date>2025-04-01T12:21:11.654290</dc:date>
    <dc:format>image/svg+xml</dc:format>
    <dc:creator>
     <cc:Agent>
      <dc:title>Matplotlib v3.10.0, https://matplotlib.org/</dc:title>
     </cc:Agent>
    </dc:creator>
   </cc:Work>
  </rdf:RDF>
 </metadata>
 <defs>
  <style type="text/css">*{stroke-linejoin: round; stroke-linecap: butt}</style>
 </defs>
 <g id="figure_1">
  <g id="patch_1">
   <path d="M 0 285.283594 
L 283.789062 285.283594 
L 283.789062 0 
L 0 0 
z
" style="fill: #ffffff"/>
  </g>
  <g id="axes_1">
   <g id="patch_2">
    <path d="M 53.389062 243.549375 
L 276.589063 243.549375 
L 276.589063 21.789375 
L 53.389062 21.789375 
z
" style="fill: #eaeaf2"/>
   </g>
   <g id="matplotlib.axis_1">
    <g id="xtick_1">
     <g id="line2d_1">
      <path d="M 88.785603 243.549375 
L 88.785603 21.789375 
" clip-path="url(#p70edba513c)" style="fill: none; stroke: #ffffff; stroke-linecap: round"/>
     </g>
     <g id="text_1">
      <!-- 0.0 -->
      <g style="fill: #262626" transform="translate(81.140603 260.922969) scale(0.11 -0.11)">
       <defs>
        <path id="ArialMT-30" d="M 266 2259 
Q 266 3072 433 3567 
Q 600 4063 929 4331 
Q 1259 4600 1759 4600 
Q 2128 4600 2406 4451 
Q 2684 4303 2865 4023 
Q 3047 3744 3150 3342 
Q 3253 2941 3253 2259 
Q 3253 1453 3087 958 
Q 2922 463 2592 192 
Q 2263 -78 1759 -78 
Q 1097 -78 719 397 
Q 266 969 266 2259 
z
M 844 2259 
Q 844 1131 1108 757 
Q 1372 384 1759 384 
Q 2147 384 2411 759 
Q 2675 1134 2675 2259 
Q 2675 3391 2411 3762 
Q 2147 4134 1753 4134 
Q 1366 4134 1134 3806 
Q 844 3388 844 2259 
z
" transform="scale(0.015625)"/>
        <path id="ArialMT-2e" d="M 581 0 
L 581 641 
L 1222 641 
L 1222 0 
L 581 0 
z
" transform="scale(0.015625)"/>
       </defs>
       <use xlink:href="#ArialMT-30"/>
       <use xlink:href="#ArialMT-2e" transform="translate(55.615234 0)"/>
       <use xlink:href="#ArialMT-30" transform="translate(83.398438 0)"/>
      </g>
     </g>
    </g>
    <g id="xtick_2">
     <g id="line2d_2">
      <path d="M 157.591327 243.549375 
L 157.591327 21.789375 
" clip-path="url(#p70edba513c)" style="fill: none; stroke: #ffffff; stroke-linecap: round"/>
     </g>
     <g id="text_2">
      <!-- 0.5 -->
      <g style="fill: #262626" transform="translate(149.946327 260.922969) scale(0.11 -0.11)">
       <defs>
        <path id="ArialMT-35" d="M 266 1200 
L 856 1250 
Q 922 819 1161 601 
Q 1400 384 1738 384 
Q 2144 384 2425 690 
Q 2706 997 2706 1503 
Q 2706 1984 2436 2262 
Q 2166 2541 1728 2541 
Q 1456 2541 1237 2417 
Q 1019 2294 894 2097 
L 366 2166 
L 809 4519 
L 3088 4519 
L 3088 3981 
L 1259 3981 
L 1013 2750 
Q 1425 3038 1878 3038 
Q 2478 3038 2890 2622 
Q 3303 2206 3303 1553 
Q 3303 931 2941 478 
Q 2500 -78 1738 -78 
Q 1113 -78 717 272 
Q 322 622 266 1200 
z
" transform="scale(0.015625)"/>
       </defs>
       <use xlink:href="#ArialMT-30"/>
       <use xlink:href="#ArialMT-2e" transform="translate(55.615234 0)"/>
       <use xlink:href="#ArialMT-35" transform="translate(83.398438 0)"/>
      </g>
     </g>
    </g>
    <g id="xtick_3">
     <g id="line2d_3">
      <path d="M 226.397051 243.549375 
L 226.397051 21.789375 
" clip-path="url(#p70edba513c)" style="fill: none; stroke: #ffffff; stroke-linecap: round"/>
     </g>
     <g id="text_3">
      <!-- 1.0 -->
      <g style="fill: #262626" transform="translate(218.752051 260.922969) scale(0.11 -0.11)">
       <defs>
        <path id="ArialMT-31" d="M 2384 0 
L 1822 0 
L 1822 3584 
Q 1619 3391 1289 3197 
Q 959 3003 697 2906 
L 697 3450 
Q 1169 3672 1522 3987 
Q 1875 4303 2022 4600 
L 2384 4600 
L 2384 0 
z
" transform="scale(0.015625)"/>
       </defs>
       <use xlink:href="#ArialMT-31"/>
       <use xlink:href="#ArialMT-2e" transform="translate(55.615234 0)"/>
       <use xlink:href="#ArialMT-30" transform="translate(83.398438 0)"/>
      </g>
     </g>
    </g>
    <g id="text_4">
     <!-- $x_1$ -->
     <g style="fill: #262626" transform="translate(158.569063 275.698594) scale(0.12 -0.12)">
      <defs>
       <path id="DejaVuSans-Oblique-78" d="M 3841 3500 
L 2234 1784 
L 3219 0 
L 2559 0 
L 1819 1388 
L 531 0 
L -166 0 
L 1556 1844 
L 641 3500 
L 1300 3500 
L 1972 2234 
L 3144 3500 
L 3841 3500 
z
" transform="scale(0.015625)"/>
       <path id="DejaVuSans-31" d="M 794 531 
L 1825 531 
L 1825 4091 
L 703 3866 
L 703 4441 
L 1819 4666 
L 2450 4666 
L 2450 531 
L 3481 531 
L 3481 0 
L 794 0 
L 794 531 
z
" transform="scale(0.015625)"/>
      </defs>
      <use xlink:href="#DejaVuSans-Oblique-78" transform="translate(0 0.3125)"/>
      <use xlink:href="#DejaVuSans-31" transform="translate(59.179688 -16.09375) scale(0.7)"/>
     </g>
    </g>
   </g>
   <g id="matplotlib.axis_2">
    <g id="ytick_1">
     <g id="line2d_4">
      <path d="M 53.389062 234.896074 
L 276.589063 234.896074 
" clip-path="url(#p70edba513c)" style="fill: none; stroke: #ffffff; stroke-linecap: round"/>
     </g>
     <g id="text_5">
      <!-- −0.2 -->
      <g style="fill: #262626" transform="translate(22.174375 238.832871) scale(0.11 -0.11)">
       <defs>
        <path id="ArialMT-2212" d="M 3381 1997 
L 356 1997 
L 356 2522 
L 3381 2522 
L 3381 1997 
z
" transform="scale(0.015625)"/>
        <path id="ArialMT-32" d="M 3222 541 
L 3222 0 
L 194 0 
Q 188 203 259 391 
Q 375 700 629 1000 
Q 884 1300 1366 1694 
Q 2113 2306 2375 2664 
Q 2638 3022 2638 3341 
Q 2638 3675 2398 3904 
Q 2159 4134 1775 4134 
Q 1369 4134 1125 3890 
Q 881 3647 878 3216 
L 300 3275 
Q 359 3922 746 4261 
Q 1134 4600 1788 4600 
Q 2447 4600 2831 4234 
Q 3216 3869 3216 3328 
Q 3216 3053 3103 2787 
Q 2991 2522 2730 2228 
Q 2469 1934 1863 1422 
Q 1356 997 1212 845 
Q 1069 694 975 541 
L 3222 541 
z
" transform="scale(0.015625)"/>
       </defs>
       <use xlink:href="#ArialMT-2212"/>
       <use xlink:href="#ArialMT-30" transform="translate(58.398438 0)"/>
       <use xlink:href="#ArialMT-2e" transform="translate(114.013672 0)"/>
       <use xlink:href="#ArialMT-32" transform="translate(141.796875 0)"/>
      </g>
     </g>
    </g>
    <g id="ytick_2">
     <g id="line2d_5">
      <path d="M 53.389062 206.664369 
L 276.589063 206.664369 
" clip-path="url(#p70edba513c)" style="fill: none; stroke: #ffffff; stroke-linecap: round"/>
     </g>
     <g id="text_6">
      <!-- 0.0 -->
      <g style="fill: #262626" transform="translate(28.599062 210.601166) scale(0.11 -0.11)">
       <use xlink:href="#ArialMT-30"/>
       <use xlink:href="#ArialMT-2e" transform="translate(55.615234 0)"/>
       <use xlink:href="#ArialMT-30" transform="translate(83.398438 0)"/>
      </g>
     </g>
    </g>
    <g id="ytick_3">
     <g id="line2d_6">
      <path d="M 53.389062 178.432665 
L 276.589063 178.432665 
" clip-path="url(#p70edba513c)" style="fill: none; stroke: #ffffff; stroke-linecap: round"/>
     </g>
     <g id="text_7">
      <!-- 0.2 -->
      <g style="fill: #262626" transform="translate(28.599062 182.369462) scale(0.11 -0.11)">
       <use xlink:href="#ArialMT-30"/>
       <use xlink:href="#ArialMT-2e" transform="translate(55.615234 0)"/>
       <use xlink:href="#ArialMT-32" transform="translate(83.398438 0)"/>
      </g>
     </g>
    </g>
    <g id="ytick_4">
     <g id="line2d_7">
      <path d="M 53.389062 150.200961 
L 276.589063 150.200961 
" clip-path="url(#p70edba513c)" style="fill: none; stroke: #ffffff; stroke-linecap: round"/>
     </g>
     <g id="text_8">
      <!-- 0.4 -->
      <g style="fill: #262626" transform="translate(28.599062 154.137757) scale(0.11 -0.11)">
       <defs>
        <path id="ArialMT-34" d="M 2069 0 
L 2069 1097 
L 81 1097 
L 81 1613 
L 2172 4581 
L 2631 4581 
L 2631 1613 
L 3250 1613 
L 3250 1097 
L 2631 1097 
L 2631 0 
L 2069 0 
z
M 2069 1613 
L 2069 3678 
L 634 1613 
L 2069 1613 
z
" transform="scale(0.015625)"/>
       </defs>
       <use xlink:href="#ArialMT-30"/>
       <use xlink:href="#ArialMT-2e" transform="translate(55.615234 0)"/>
       <use xlink:href="#ArialMT-34" transform="translate(83.398438 0)"/>
      </g>
     </g>
    </g>
    <g id="ytick_5">
     <g id="line2d_8">
      <path d="M 53.389062 121.969256 
L 276.589063 121.969256 
" clip-path="url(#p70edba513c)" style="fill: none; stroke: #ffffff; stroke-linecap: round"/>
     </g>
     <g id="text_9">
      <!-- 0.6 -->
      <g style="fill: #262626" transform="translate(28.599062 125.906053) scale(0.11 -0.11)">
       <defs>
        <path id="ArialMT-36" d="M 3184 3459 
L 2625 3416 
Q 2550 3747 2413 3897 
Q 2184 4138 1850 4138 
Q 1581 4138 1378 3988 
Q 1113 3794 959 3422 
Q 806 3050 800 2363 
Q 1003 2672 1297 2822 
Q 1591 2972 1913 2972 
Q 2475 2972 2870 2558 
Q 3266 2144 3266 1488 
Q 3266 1056 3080 686 
Q 2894 316 2569 119 
Q 2244 -78 1831 -78 
Q 1128 -78 684 439 
Q 241 956 241 2144 
Q 241 3472 731 4075 
Q 1159 4600 1884 4600 
Q 2425 4600 2770 4297 
Q 3116 3994 3184 3459 
z
M 888 1484 
Q 888 1194 1011 928 
Q 1134 663 1356 523 
Q 1578 384 1822 384 
Q 2178 384 2434 671 
Q 2691 959 2691 1453 
Q 2691 1928 2437 2201 
Q 2184 2475 1800 2475 
Q 1419 2475 1153 2201 
Q 888 1928 888 1484 
z
" transform="scale(0.015625)"/>
       </defs>
       <use xlink:href="#ArialMT-30"/>
       <use xlink:href="#ArialMT-2e" transform="translate(55.615234 0)"/>
       <use xlink:href="#ArialMT-36" transform="translate(83.398438 0)"/>
      </g>
     </g>
    </g>
    <g id="ytick_6">
     <g id="line2d_9">
      <path d="M 53.389062 93.737552 
L 276.589063 93.737552 
" clip-path="url(#p70edba513c)" style="fill: none; stroke: #ffffff; stroke-linecap: round"/>
     </g>
     <g id="text_10">
      <!-- 0.8 -->
      <g style="fill: #262626" transform="translate(28.599062 97.674349) scale(0.11 -0.11)">
       <defs>
        <path id="ArialMT-38" d="M 1131 2484 
Q 781 2613 612 2850 
Q 444 3088 444 3419 
Q 444 3919 803 4259 
Q 1163 4600 1759 4600 
Q 2359 4600 2725 4251 
Q 3091 3903 3091 3403 
Q 3091 3084 2923 2848 
Q 2756 2613 2416 2484 
Q 2838 2347 3058 2040 
Q 3278 1734 3278 1309 
Q 3278 722 2862 322 
Q 2447 -78 1769 -78 
Q 1091 -78 675 323 
Q 259 725 259 1325 
Q 259 1772 486 2073 
Q 713 2375 1131 2484 
z
M 1019 3438 
Q 1019 3113 1228 2906 
Q 1438 2700 1772 2700 
Q 2097 2700 2305 2904 
Q 2513 3109 2513 3406 
Q 2513 3716 2298 3927 
Q 2084 4138 1766 4138 
Q 1444 4138 1231 3931 
Q 1019 3725 1019 3438 
z
M 838 1322 
Q 838 1081 952 856 
Q 1066 631 1291 507 
Q 1516 384 1775 384 
Q 2178 384 2440 643 
Q 2703 903 2703 1303 
Q 2703 1709 2433 1975 
Q 2163 2241 1756 2241 
Q 1359 2241 1098 1978 
Q 838 1716 838 1322 
z
" transform="scale(0.015625)"/>
       </defs>
       <use xlink:href="#ArialMT-30"/>
       <use xlink:href="#ArialMT-2e" transform="translate(55.615234 0)"/>
       <use xlink:href="#ArialMT-38" transform="translate(83.398438 0)"/>
      </g>
     </g>
    </g>
    <g id="ytick_7">
     <g id="line2d_10">
      <path d="M 53.389062 65.505847 
L 276.589063 65.505847 
" clip-path="url(#p70edba513c)" style="fill: none; stroke: #ffffff; stroke-linecap: round"/>
     </g>
     <g id="text_11">
      <!-- 1.0 -->
      <g style="fill: #262626" transform="translate(28.599062 69.442644) scale(0.11 -0.11)">
       <use xlink:href="#ArialMT-31"/>
       <use xlink:href="#ArialMT-2e" transform="translate(55.615234 0)"/>
       <use xlink:href="#ArialMT-30" transform="translate(83.398438 0)"/>
      </g>
     </g>
    </g>
    <g id="ytick_8">
     <g id="line2d_11">
      <path d="M 53.389062 37.274143 
L 276.589063 37.274143 
" clip-path="url(#p70edba513c)" style="fill: none; stroke: #ffffff; stroke-linecap: round"/>
     </g>
     <g id="text_12">
      <!-- 1.2 -->
      <g style="fill: #262626" transform="translate(28.599062 41.21094) scale(0.11 -0.11)">
       <use xlink:href="#ArialMT-31"/>
       <use xlink:href="#ArialMT-2e" transform="translate(55.615234 0)"/>
       <use xlink:href="#ArialMT-32" transform="translate(83.398438 0)"/>
      </g>
     </g>
    </g>
    <g id="text_13">
     <!-- $x_2$ -->
     <g style="fill: #262626" transform="translate(15.789375 139.089375) rotate(-90) scale(0.12 -0.12)">
      <defs>
       <path id="DejaVuSans-32" d="M 1228 531 
L 3431 531 
L 3431 0 
L 469 0 
L 469 531 
Q 828 903 1448 1529 
Q 2069 2156 2228 2338 
Q 2531 2678 2651 2914 
Q 2772 3150 2772 3378 
Q 2772 3750 2511 3984 
Q 2250 4219 1831 4219 
Q 1534 4219 1204 4116 
Q 875 4013 500 3803 
L 500 4441 
Q 881 4594 1212 4672 
Q 1544 4750 1819 4750 
Q 2544 4750 2975 4387 
Q 3406 4025 3406 3419 
Q 3406 3131 3298 2873 
Q 3191 2616 2906 2266 
Q 2828 2175 2409 1742 
Q 1991 1309 1228 531 
z
" transform="scale(0.015625)"/>
      </defs>
      <use xlink:href="#DejaVuSans-Oblique-78" transform="translate(0 0.3125)"/>
      <use xlink:href="#DejaVuSans-32" transform="translate(59.179688 -16.09375) scale(0.7)"/>
     </g>
    </g>
   </g>
   <g id="PathCollection_1">
    <defs>
     <path id="m7f46640820" d="M 0 3 
C 0.795609 3 1.55874 2.683901 2.12132 2.12132 
C 2.683901 1.55874 3 0.795609 3 0 
C 3 -0.795609 2.683901 -1.55874 2.12132 -2.12132 
C 1.55874 -2.683901 0.795609 -3 0 -3 
C -0.795609 -3 -1.55874 -2.683901 -2.12132 -2.12132 
C -2.683901 -1.55874 -3 -0.795609 -3 0 
C -3 0.795609 -2.683901 1.55874 -2.12132 2.12132 
C -1.55874 2.683901 -0.795609 3 0 3 
z
" style="stroke: #333333"/>
    </defs>
    <g clip-path="url(#p70edba513c)">
     <use xlink:href="#m7f46640820" x="86.28235" y="206.351193" style="fill: #4c72b0; stroke: #333333"/>
     <use xlink:href="#m7f46640820" x="83.743324" y="222.346957" style="fill: #4c72b0; stroke: #333333"/>
     <use xlink:href="#m7f46640820" x="239.349963" y="92.070047" style="fill: #4c72b0; stroke: #333333"/>
     <use xlink:href="#m7f46640820" x="249.136745" y="63.264958" style="fill: #4c72b0; stroke: #333333"/>
     <use xlink:href="#m7f46640820" x="103.939535" y="207.967269" style="fill: #4c72b0; stroke: #333333"/>
     <use xlink:href="#m7f46640820" x="210.231249" y="65.00498" style="fill: #4c72b0; stroke: #333333"/>
     <use xlink:href="#m7f46640820" x="205.438885" y="63.670583" style="fill: #4c72b0; stroke: #333333"/>
     <use xlink:href="#m7f46640820" x="90.539564" y="218.242052" style="fill: #4c72b0; stroke: #333333"/>
     <use xlink:href="#m7f46640820" x="247.990017" y="59.124726" style="fill: #4c72b0; stroke: #333333"/>
     <use xlink:href="#m7f46640820" x="221.577637" y="74.335617" style="fill: #4c72b0; stroke: #333333"/>
     <use xlink:href="#m7f46640820" x="100.340211" y="212.781674" style="fill: #4c72b0; stroke: #333333"/>
     <use xlink:href="#m7f46640820" x="226.616708" y="67.626176" style="fill: #4c72b0; stroke: #333333"/>
     <use xlink:href="#m7f46640820" x="81.56482" y="217.596413" style="fill: #4c72b0; stroke: #333333"/>
     <use xlink:href="#m7f46640820" x="206.105641" y="46.183272" style="fill: #4c72b0; stroke: #333333"/>
     <use xlink:href="#m7f46640820" x="94.44523" y="199.605124" style="fill: #4c72b0; stroke: #333333"/>
     <use xlink:href="#m7f46640820" x="225.7186" y="70.394209" style="fill: #4c72b0; stroke: #333333"/>
     <use xlink:href="#m7f46640820" x="225.46373" y="87.044928" style="fill: #4c72b0; stroke: #333333"/>
     <use xlink:href="#m7f46640820" x="63.534517" y="213.10216" style="fill: #4c72b0; stroke: #333333"/>
     <use xlink:href="#m7f46640820" x="104.033604" y="218.067503" style="fill: #4c72b0; stroke: #333333"/>
     <use xlink:href="#m7f46640820" x="85.891369" y="206.166496" style="fill: #4c72b0; stroke: #333333"/>
     <use xlink:href="#m7f46640820" x="74.042889" y="182.415156" style="fill: #4c72b0; stroke: #333333"/>
     <use xlink:href="#m7f46640820" x="222.506086" y="62.274043" style="fill: #4c72b0; stroke: #333333"/>
     <use xlink:href="#m7f46640820" x="225.527716" y="71.503775" style="fill: #4c72b0; stroke: #333333"/>
     <use xlink:href="#m7f46640820" x="221.390904" y="71.525499" style="fill: #4c72b0; stroke: #333333"/>
     <use xlink:href="#m7f46640820" x="214.714206" y="58.054032" style="fill: #4c72b0; stroke: #333333"/>
     <use xlink:href="#m7f46640820" x="69.829368" y="194.918706" style="fill: #4c72b0; stroke: #333333"/>
     <use xlink:href="#m7f46640820" x="227.152301" y="66.899123" style="fill: #4c72b0; stroke: #333333"/>
     <use xlink:href="#m7f46640820" x="72.819314" y="199.897743" style="fill: #4c72b0; stroke: #333333"/>
     <use xlink:href="#m7f46640820" x="100.121779" y="217.252527" style="fill: #4c72b0; stroke: #333333"/>
     <use xlink:href="#m7f46640820" x="105.227948" y="205.004934" style="fill: #4c72b0; stroke: #333333"/>
     <use xlink:href="#m7f46640820" x="235.418544" y="78.525667" style="fill: #4c72b0; stroke: #333333"/>
     <use xlink:href="#m7f46640820" x="87.539487" y="215.461758" style="fill: #4c72b0; stroke: #333333"/>
     <use xlink:href="#m7f46640820" x="106.987867" y="231.236429" style="fill: #4c72b0; stroke: #333333"/>
     <use xlink:href="#m7f46640820" x="84.795247" y="219.184592" style="fill: #4c72b0; stroke: #333333"/>
     <use xlink:href="#m7f46640820" x="231.062657" y="51.181063" style="fill: #4c72b0; stroke: #333333"/>
     <use xlink:href="#m7f46640820" x="104.613513" y="213.636205" style="fill: #4c72b0; stroke: #333333"/>
     <use xlink:href="#m7f46640820" x="97.68162" y="210.634305" style="fill: #4c72b0; stroke: #333333"/>
     <use xlink:href="#m7f46640820" x="74.952144" y="200.14633" style="fill: #4c72b0; stroke: #333333"/>
     <use xlink:href="#m7f46640820" x="208.005256" y="62.892702" style="fill: #4c72b0; stroke: #333333"/>
     <use xlink:href="#m7f46640820" x="81.838046" y="197.038226" style="fill: #4c72b0; stroke: #333333"/>
     <use xlink:href="#m7f46640820" x="208.617458" y="72.29033" style="fill: #4c72b0; stroke: #333333"/>
     <use xlink:href="#m7f46640820" x="234.821123" y="52.901413" style="fill: #4c72b0; stroke: #333333"/>
     <use xlink:href="#m7f46640820" x="228.077158" y="55.662201" style="fill: #4c72b0; stroke: #333333"/>
     <use xlink:href="#m7f46640820" x="227.401322" y="64.064664" style="fill: #4c72b0; stroke: #333333"/>
     <use xlink:href="#m7f46640820" x="90.349019" y="214.057858" style="fill: #4c72b0; stroke: #333333"/>
     <use xlink:href="#m7f46640820" x="75.770516" y="233.469375" style="fill: #4c72b0; stroke: #333333"/>
     <use xlink:href="#m7f46640820" x="88.556042" y="202.74808" style="fill: #4c72b0; stroke: #333333"/>
     <use xlink:href="#m7f46640820" x="84.495503" y="199.47205" style="fill: #4c72b0; stroke: #333333"/>
     <use xlink:href="#m7f46640820" x="213.268332" y="76.627956" style="fill: #4c72b0; stroke: #333333"/>
     <use xlink:href="#m7f46640820" x="218.410638" y="71.445064" style="fill: #4c72b0; stroke: #333333"/>
     <use xlink:href="#m7f46640820" x="99.328155" y="221.487038" style="fill: #4c72b0; stroke: #333333"/>
     <use xlink:href="#m7f46640820" x="67.735754" y="217.82342" style="fill: #4c72b0; stroke: #333333"/>
     <use xlink:href="#m7f46640820" x="96.659594" y="224.031636" style="fill: #4c72b0; stroke: #333333"/>
     <use xlink:href="#m7f46640820" x="248.928784" y="85.621473" style="fill: #4c72b0; stroke: #333333"/>
     <use xlink:href="#m7f46640820" x="257.273999" y="48.186945" style="fill: #4c72b0; stroke: #333333"/>
     <use xlink:href="#m7f46640820" x="235.903528" y="57.397544" style="fill: #4c72b0; stroke: #333333"/>
     <use xlink:href="#m7f46640820" x="80.785582" y="199.074344" style="fill: #4c72b0; stroke: #333333"/>
     <use xlink:href="#m7f46640820" x="210.640337" y="69.964387" style="fill: #4c72b0; stroke: #333333"/>
     <use xlink:href="#m7f46640820" x="222.488869" y="94.318154" style="fill: #4c72b0; stroke: #333333"/>
     <use xlink:href="#m7f46640820" x="217.140949" y="57.391503" style="fill: #4c72b0; stroke: #333333"/>
     <use xlink:href="#m7f46640820" x="237.011936" y="61.595999" style="fill: #4c72b0; stroke: #333333"/>
     <use xlink:href="#m7f46640820" x="249.357173" y="85.613152" style="fill: #4c72b0; stroke: #333333"/>
     <use xlink:href="#m7f46640820" x="220.229658" y="71.797177" style="fill: #4c72b0; stroke: #333333"/>
     <use xlink:href="#m7f46640820" x="100.805599" y="218.694145" style="fill: #4c72b0; stroke: #333333"/>
     <use xlink:href="#m7f46640820" x="204.967385" y="57.377503" style="fill: #4c72b0; stroke: #333333"/>
     <use xlink:href="#m7f46640820" x="249.170637" y="65.819022" style="fill: #4c72b0; stroke: #333333"/>
     <use xlink:href="#m7f46640820" x="221.141579" y="72.447885" style="fill: #4c72b0; stroke: #333333"/>
     <use xlink:href="#m7f46640820" x="129.146205" y="224.932606" style="fill: #4c72b0; stroke: #333333"/>
     <use xlink:href="#m7f46640820" x="106.291534" y="211.24771" style="fill: #4c72b0; stroke: #333333"/>
     <use xlink:href="#m7f46640820" x="213.307104" y="58.123546" style="fill: #4c72b0; stroke: #333333"/>
     <use xlink:href="#m7f46640820" x="65.292705" y="197.926215" style="fill: #4c72b0; stroke: #333333"/>
     <use xlink:href="#m7f46640820" x="244.819343" y="75.897848" style="fill: #4c72b0; stroke: #333333"/>
     <use xlink:href="#m7f46640820" x="102.595188" y="178.087881" style="fill: #4c72b0; stroke: #333333"/>
     <use xlink:href="#m7f46640820" x="75.94123" y="204.212119" style="fill: #4c72b0; stroke: #333333"/>
     <use xlink:href="#m7f46640820" x="241.86201" y="78.536243" style="fill: #4c72b0; stroke: #333333"/>
     <use xlink:href="#m7f46640820" x="206.085602" y="51.314639" style="fill: #4c72b0; stroke: #333333"/>
     <use xlink:href="#m7f46640820" x="225.109843" y="88.899326" style="fill: #4c72b0; stroke: #333333"/>
     <use xlink:href="#m7f46640820" x="108.27769" y="214.561733" style="fill: #4c72b0; stroke: #333333"/>
     <use xlink:href="#m7f46640820" x="236.586926" y="69.26774" style="fill: #4c72b0; stroke: #333333"/>
     <use xlink:href="#m7f46640820" x="78.8662" y="199.804231" style="fill: #4c72b0; stroke: #333333"/>
     <use xlink:href="#m7f46640820" x="78.831163" y="231.165049" style="fill: #4c72b0; stroke: #333333"/>
     <use xlink:href="#m7f46640820" x="224.596142" y="60.493417" style="fill: #4c72b0; stroke: #333333"/>
     <use xlink:href="#m7f46640820" x="233.278421" y="75.311177" style="fill: #4c72b0; stroke: #333333"/>
     <use xlink:href="#m7f46640820" x="231.56293" y="48.198792" style="fill: #4c72b0; stroke: #333333"/>
     <use xlink:href="#m7f46640820" x="89.176173" y="190.67738" style="fill: #4c72b0; stroke: #333333"/>
     <use xlink:href="#m7f46640820" x="85.49453" y="227.670768" style="fill: #4c72b0; stroke: #333333"/>
     <use xlink:href="#m7f46640820" x="86.761458" y="229.719455" style="fill: #4c72b0; stroke: #333333"/>
     <use xlink:href="#m7f46640820" x="214.219797" y="55.714215" style="fill: #4c72b0; stroke: #333333"/>
     <use xlink:href="#m7f46640820" x="249.061924" y="60.106067" style="fill: #4c72b0; stroke: #333333"/>
     <use xlink:href="#m7f46640820" x="242.296977" y="82.241823" style="fill: #4c72b0; stroke: #333333"/>
     <use xlink:href="#m7f46640820" x="74.844366" y="188.713257" style="fill: #4c72b0; stroke: #333333"/>
     <use xlink:href="#m7f46640820" x="238.064944" y="53.965881" style="fill: #4c72b0; stroke: #333333"/>
     <use xlink:href="#m7f46640820" x="240.482813" y="53.032296" style="fill: #4c72b0; stroke: #333333"/>
     <use xlink:href="#m7f46640820" x="88.637232" y="200.401519" style="fill: #4c72b0; stroke: #333333"/>
     <use xlink:href="#m7f46640820" x="88.257735" y="214.381042" style="fill: #4c72b0; stroke: #333333"/>
     <use xlink:href="#m7f46640820" x="80.860375" y="193.492491" style="fill: #4c72b0; stroke: #333333"/>
    </g>
   </g>
   <g id="PathCollection_2">
    <defs>
     <path id="mbd66ac292a" d="M 0 3 
C 0.795609 3 1.55874 2.683901 2.12132 2.12132 
C 2.683901 1.55874 3 0.795609 3 0 
C 3 -0.795609 2.683901 -1.55874 2.12132 -2.12132 
C 1.55874 -2.683901 0.795609 -3 0 -3 
C -0.795609 -3 -1.55874 -2.683901 -2.12132 -2.12132 
C -2.683901 -1.55874 -3 -0.795609 -3 0 
C -3 0.795609 -2.683901 1.55874 -2.12132 2.12132 
C -1.55874 2.683901 -0.795609 3 0 3 
z
" style="stroke: #333333"/>
    </defs>
    <g clip-path="url(#p70edba513c)">
     <use xlink:href="#mbd66ac292a" x="70.96442" y="83.042378" style="fill: #dd8452; stroke: #333333"/>
     <use xlink:href="#mbd66ac292a" x="102.954661" y="89.143861" style="fill: #dd8452; stroke: #333333"/>
     <use xlink:href="#mbd66ac292a" x="91.151468" y="63.794483" style="fill: #dd8452; stroke: #333333"/>
     <use xlink:href="#mbd66ac292a" x="214.206058" y="217.48367" style="fill: #dd8452; stroke: #333333"/>
     <use xlink:href="#mbd66ac292a" x="227.033466" y="216.531834" style="fill: #dd8452; stroke: #333333"/>
     <use xlink:href="#mbd66ac292a" x="65.957852" y="68.093482" style="fill: #dd8452; stroke: #333333"/>
     <use xlink:href="#mbd66ac292a" x="98.185411" y="45.841323" style="fill: #dd8452; stroke: #333333"/>
     <use xlink:href="#mbd66ac292a" x="98.628853" y="63.107437" style="fill: #dd8452; stroke: #333333"/>
     <use xlink:href="#mbd66ac292a" x="103.242397" y="93.807821" style="fill: #dd8452; stroke: #333333"/>
     <use xlink:href="#mbd66ac292a" x="225.863042" y="219.855861" style="fill: #dd8452; stroke: #333333"/>
     <use xlink:href="#mbd66ac292a" x="241.546862" y="218.428953" style="fill: #dd8452; stroke: #333333"/>
     <use xlink:href="#mbd66ac292a" x="233.403785" y="218.928626" style="fill: #dd8452; stroke: #333333"/>
     <use xlink:href="#mbd66ac292a" x="229.792123" y="188.833742" style="fill: #dd8452; stroke: #333333"/>
     <use xlink:href="#mbd66ac292a" x="199.013226" y="206.395425" style="fill: #dd8452; stroke: #333333"/>
     <use xlink:href="#mbd66ac292a" x="225.104191" y="206.302129" style="fill: #dd8452; stroke: #333333"/>
     <use xlink:href="#mbd66ac292a" x="215.523951" y="199.873868" style="fill: #dd8452; stroke: #333333"/>
     <use xlink:href="#mbd66ac292a" x="73.290234" y="57.200512" style="fill: #dd8452; stroke: #333333"/>
     <use xlink:href="#mbd66ac292a" x="216.438473" y="209.812125" style="fill: #dd8452; stroke: #333333"/>
     <use xlink:href="#mbd66ac292a" x="81.389029" y="66.826403" style="fill: #dd8452; stroke: #333333"/>
     <use xlink:href="#mbd66ac292a" x="212.298609" y="216.232755" style="fill: #dd8452; stroke: #333333"/>
     <use xlink:href="#mbd66ac292a" x="112.020095" y="58.243206" style="fill: #dd8452; stroke: #333333"/>
     <use xlink:href="#mbd66ac292a" x="206.219201" y="201.903049" style="fill: #dd8452; stroke: #333333"/>
     <use xlink:href="#mbd66ac292a" x="228.697168" y="211.976276" style="fill: #dd8452; stroke: #333333"/>
     <use xlink:href="#mbd66ac292a" x="244.509953" y="198.172257" style="fill: #dd8452; stroke: #333333"/>
     <use xlink:href="#mbd66ac292a" x="72.358901" y="90.779814" style="fill: #dd8452; stroke: #333333"/>
     <use xlink:href="#mbd66ac292a" x="69.426056" y="69.058315" style="fill: #dd8452; stroke: #333333"/>
     <use xlink:href="#mbd66ac292a" x="210.814406" y="196.765333" style="fill: #dd8452; stroke: #333333"/>
     <use xlink:href="#mbd66ac292a" x="90.139796" y="89.775158" style="fill: #dd8452; stroke: #333333"/>
     <use xlink:href="#mbd66ac292a" x="103.986919" y="59.405105" style="fill: #dd8452; stroke: #333333"/>
     <use xlink:href="#mbd66ac292a" x="86.474861" y="64.531709" style="fill: #dd8452; stroke: #333333"/>
     <use xlink:href="#mbd66ac292a" x="84.770732" y="65.116209" style="fill: #dd8452; stroke: #333333"/>
     <use xlink:href="#mbd66ac292a" x="77.972754" y="85.43468" style="fill: #dd8452; stroke: #333333"/>
     <use xlink:href="#mbd66ac292a" x="234.805916" y="228.74471" style="fill: #dd8452; stroke: #333333"/>
     <use xlink:href="#mbd66ac292a" x="217.06963" y="210.892484" style="fill: #dd8452; stroke: #333333"/>
     <use xlink:href="#mbd66ac292a" x="225.444471" y="211.487341" style="fill: #dd8452; stroke: #333333"/>
     <use xlink:href="#mbd66ac292a" x="210.32619" y="208.490959" style="fill: #dd8452; stroke: #333333"/>
     <use xlink:href="#mbd66ac292a" x="76.301802" y="63.548467" style="fill: #dd8452; stroke: #333333"/>
     <use xlink:href="#mbd66ac292a" x="225.658846" y="202.404967" style="fill: #dd8452; stroke: #333333"/>
     <use xlink:href="#mbd66ac292a" x="77.087023" y="50.528664" style="fill: #dd8452; stroke: #333333"/>
     <use xlink:href="#mbd66ac292a" x="90.183023" y="90.35689" style="fill: #dd8452; stroke: #333333"/>
     <use xlink:href="#mbd66ac292a" x="241.178284" y="211.563762" style="fill: #dd8452; stroke: #333333"/>
     <use xlink:href="#mbd66ac292a" x="206.79455" y="208.122952" style="fill: #dd8452; stroke: #333333"/>
     <use xlink:href="#mbd66ac292a" x="99.690273" y="32.768261" style="fill: #dd8452; stroke: #333333"/>
     <use xlink:href="#mbd66ac292a" x="91.60047" y="74.017848" style="fill: #dd8452; stroke: #333333"/>
     <use xlink:href="#mbd66ac292a" x="190.190623" y="212.79104" style="fill: #dd8452; stroke: #333333"/>
     <use xlink:href="#mbd66ac292a" x="221.30601" y="169.273622" style="fill: #dd8452; stroke: #333333"/>
     <use xlink:href="#mbd66ac292a" x="242.270795" y="189.80919" style="fill: #dd8452; stroke: #333333"/>
     <use xlink:href="#mbd66ac292a" x="86.226782" y="50.79277" style="fill: #dd8452; stroke: #333333"/>
     <use xlink:href="#mbd66ac292a" x="98.331448" y="72.812652" style="fill: #dd8452; stroke: #333333"/>
     <use xlink:href="#mbd66ac292a" x="85.747105" y="72.105001" style="fill: #dd8452; stroke: #333333"/>
     <use xlink:href="#mbd66ac292a" x="96.544568" y="61.317001" style="fill: #dd8452; stroke: #333333"/>
     <use xlink:href="#mbd66ac292a" x="229.91957" y="192.262638" style="fill: #dd8452; stroke: #333333"/>
     <use xlink:href="#mbd66ac292a" x="103.424918" y="49.274383" style="fill: #dd8452; stroke: #333333"/>
     <use xlink:href="#mbd66ac292a" x="79.703758" y="84.343557" style="fill: #dd8452; stroke: #333333"/>
     <use xlink:href="#mbd66ac292a" x="208.506276" y="188.681409" style="fill: #dd8452; stroke: #333333"/>
     <use xlink:href="#mbd66ac292a" x="102.328251" y="62.809659" style="fill: #dd8452; stroke: #333333"/>
     <use xlink:href="#mbd66ac292a" x="87.938578" y="67.302089" style="fill: #dd8452; stroke: #333333"/>
     <use xlink:href="#mbd66ac292a" x="108.559756" y="99.336188" style="fill: #dd8452; stroke: #333333"/>
     <use xlink:href="#mbd66ac292a" x="92.345564" y="51.438202" style="fill: #dd8452; stroke: #333333"/>
     <use xlink:href="#mbd66ac292a" x="225.786342" y="209.743669" style="fill: #dd8452; stroke: #333333"/>
     <use xlink:href="#mbd66ac292a" x="229.756771" y="212.30145" style="fill: #dd8452; stroke: #333333"/>
     <use xlink:href="#mbd66ac292a" x="95.224693" y="72.122468" style="fill: #dd8452; stroke: #333333"/>
     <use xlink:href="#mbd66ac292a" x="245.38968" y="228.478854" style="fill: #dd8452; stroke: #333333"/>
     <use xlink:href="#mbd66ac292a" x="76.05666" y="97.296471" style="fill: #dd8452; stroke: #333333"/>
     <use xlink:href="#mbd66ac292a" x="204.455194" y="220.632613" style="fill: #dd8452; stroke: #333333"/>
     <use xlink:href="#mbd66ac292a" x="100.100941" y="31.869375" style="fill: #dd8452; stroke: #333333"/>
     <use xlink:href="#mbd66ac292a" x="84.059587" y="85.032875" style="fill: #dd8452; stroke: #333333"/>
     <use xlink:href="#mbd66ac292a" x="73.154666" y="83.561218" style="fill: #dd8452; stroke: #333333"/>
     <use xlink:href="#mbd66ac292a" x="215.031544" y="192.057802" style="fill: #dd8452; stroke: #333333"/>
     <use xlink:href="#mbd66ac292a" x="230.921725" y="203.777045" style="fill: #dd8452; stroke: #333333"/>
     <use xlink:href="#mbd66ac292a" x="72.323242" y="58.598348" style="fill: #dd8452; stroke: #333333"/>
     <use xlink:href="#mbd66ac292a" x="217.242305" y="209.659595" style="fill: #dd8452; stroke: #333333"/>
     <use xlink:href="#mbd66ac292a" x="103.821291" y="64.512408" style="fill: #dd8452; stroke: #333333"/>
     <use xlink:href="#mbd66ac292a" x="93.776318" y="59.28706" style="fill: #dd8452; stroke: #333333"/>
     <use xlink:href="#mbd66ac292a" x="93.335078" y="65.956813" style="fill: #dd8452; stroke: #333333"/>
     <use xlink:href="#mbd66ac292a" x="211.95299" y="190.390417" style="fill: #dd8452; stroke: #333333"/>
     <use xlink:href="#mbd66ac292a" x="212.995582" y="222.751253" style="fill: #dd8452; stroke: #333333"/>
     <use xlink:href="#mbd66ac292a" x="68.635159" y="68.248715" style="fill: #dd8452; stroke: #333333"/>
     <use xlink:href="#mbd66ac292a" x="91.600515" y="57.728842" style="fill: #dd8452; stroke: #333333"/>
     <use xlink:href="#mbd66ac292a" x="239.024841" y="185.467787" style="fill: #dd8452; stroke: #333333"/>
     <use xlink:href="#mbd66ac292a" x="91.677416" y="68.889174" style="fill: #dd8452; stroke: #333333"/>
     <use xlink:href="#mbd66ac292a" x="266.443608" y="216.878963" style="fill: #dd8452; stroke: #333333"/>
     <use xlink:href="#mbd66ac292a" x="208.855693" y="214.873669" style="fill: #dd8452; stroke: #333333"/>
     <use xlink:href="#mbd66ac292a" x="94.420593" y="74.87284" style="fill: #dd8452; stroke: #333333"/>
     <use xlink:href="#mbd66ac292a" x="238.545122" y="207.988293" style="fill: #dd8452; stroke: #333333"/>
     <use xlink:href="#mbd66ac292a" x="108.501319" y="47.339854" style="fill: #dd8452; stroke: #333333"/>
     <use xlink:href="#mbd66ac292a" x="226.974065" y="199.939472" style="fill: #dd8452; stroke: #333333"/>
     <use xlink:href="#mbd66ac292a" x="234.5148" y="180.930849" style="fill: #dd8452; stroke: #333333"/>
     <use xlink:href="#mbd66ac292a" x="101.763328" y="61.079263" style="fill: #dd8452; stroke: #333333"/>
     <use xlink:href="#mbd66ac292a" x="83.40956" y="84.249854" style="fill: #dd8452; stroke: #333333"/>
     <use xlink:href="#mbd66ac292a" x="88.268975" y="58.366719" style="fill: #dd8452; stroke: #333333"/>
     <use xlink:href="#mbd66ac292a" x="208.352959" y="208.160999" style="fill: #dd8452; stroke: #333333"/>
     <use xlink:href="#mbd66ac292a" x="90.710253" y="83.241674" style="fill: #dd8452; stroke: #333333"/>
     <use xlink:href="#mbd66ac292a" x="70.574755" y="65.478436" style="fill: #dd8452; stroke: #333333"/>
     <use xlink:href="#mbd66ac292a" x="73.565343" y="50.904336" style="fill: #dd8452; stroke: #333333"/>
     <use xlink:href="#mbd66ac292a" x="228.825074" y="217.838761" style="fill: #dd8452; stroke: #333333"/>
     <use xlink:href="#mbd66ac292a" x="89.859834" y="83.173985" style="fill: #dd8452; stroke: #333333"/>
     <use xlink:href="#mbd66ac292a" x="89.710594" y="64.006626" style="fill: #dd8452; stroke: #333333"/>
     <use xlink:href="#mbd66ac292a" x="218.507367" y="211.939207" style="fill: #dd8452; stroke: #333333"/>
     <use xlink:href="#mbd66ac292a" x="74.231162" y="62.762408" style="fill: #dd8452; stroke: #333333"/>
     <use xlink:href="#mbd66ac292a" x="72.835833" y="57.820771" style="fill: #dd8452; stroke: #333333"/>
     <use xlink:href="#mbd66ac292a" x="223.687403" y="187.948847" style="fill: #dd8452; stroke: #333333"/>
     <use xlink:href="#mbd66ac292a" x="225.434604" y="218.042834" style="fill: #dd8452; stroke: #333333"/>
     <use xlink:href="#mbd66ac292a" x="228.057685" y="208.324593" style="fill: #dd8452; stroke: #333333"/>
    </g>
   </g>
   <g id="patch_3">
    <path d="M 53.389062 243.549375 
L 53.389062 21.789375 
" style="fill: none; stroke: #ffffff; stroke-width: 1.25; stroke-linejoin: miter; stroke-linecap: square"/>
   </g>
   <g id="patch_4">
    <path d="M 276.589063 243.549375 
L 276.589063 21.789375 
" style="fill: none; stroke: #ffffff; stroke-width: 1.25; stroke-linejoin: miter; stroke-linecap: square"/>
   </g>
   <g id="patch_5">
    <path d="M 53.389062 243.549375 
L 276.589063 243.549375 
" style="fill: none; stroke: #ffffff; stroke-width: 1.25; stroke-linejoin: miter; stroke-linecap: square"/>
   </g>
   <g id="patch_6">
    <path d="M 53.389062 21.789375 
L 276.589063 21.789375 
" style="fill: none; stroke: #ffffff; stroke-width: 1.25; stroke-linejoin: miter; stroke-linecap: square"/>
   </g>
   <g id="text_14">
    <!-- Dataset samples -->
    <g style="fill: #262626" transform="translate(120.305 15.789375) scale(0.12 -0.12)">
     <defs>
      <path id="ArialMT-44" d="M 494 0 
L 494 4581 
L 2072 4581 
Q 2606 4581 2888 4516 
Q 3281 4425 3559 4188 
Q 3922 3881 4101 3404 
Q 4281 2928 4281 2316 
Q 4281 1794 4159 1391 
Q 4038 988 3847 723 
Q 3656 459 3429 307 
Q 3203 156 2883 78 
Q 2563 0 2147 0 
L 494 0 
z
M 1100 541 
L 2078 541 
Q 2531 541 2789 625 
Q 3047 709 3200 863 
Q 3416 1078 3536 1442 
Q 3656 1806 3656 2325 
Q 3656 3044 3420 3430 
Q 3184 3816 2847 3947 
Q 2603 4041 2063 4041 
L 1100 4041 
L 1100 541 
z
" transform="scale(0.015625)"/>
      <path id="ArialMT-61" d="M 2588 409 
Q 2275 144 1986 34 
Q 1697 -75 1366 -75 
Q 819 -75 525 192 
Q 231 459 231 875 
Q 231 1119 342 1320 
Q 453 1522 633 1644 
Q 813 1766 1038 1828 
Q 1203 1872 1538 1913 
Q 2219 1994 2541 2106 
Q 2544 2222 2544 2253 
Q 2544 2597 2384 2738 
Q 2169 2928 1744 2928 
Q 1347 2928 1158 2789 
Q 969 2650 878 2297 
L 328 2372 
Q 403 2725 575 2942 
Q 747 3159 1072 3276 
Q 1397 3394 1825 3394 
Q 2250 3394 2515 3294 
Q 2781 3194 2906 3042 
Q 3031 2891 3081 2659 
Q 3109 2516 3109 2141 
L 3109 1391 
Q 3109 606 3145 398 
Q 3181 191 3288 0 
L 2700 0 
Q 2613 175 2588 409 
z
M 2541 1666 
Q 2234 1541 1622 1453 
Q 1275 1403 1131 1340 
Q 988 1278 909 1158 
Q 831 1038 831 891 
Q 831 666 1001 516 
Q 1172 366 1500 366 
Q 1825 366 2078 508 
Q 2331 650 2450 897 
Q 2541 1088 2541 1459 
L 2541 1666 
z
" transform="scale(0.015625)"/>
      <path id="ArialMT-74" d="M 1650 503 
L 1731 6 
Q 1494 -44 1306 -44 
Q 1000 -44 831 53 
Q 663 150 594 308 
Q 525 466 525 972 
L 525 2881 
L 113 2881 
L 113 3319 
L 525 3319 
L 525 4141 
L 1084 4478 
L 1084 3319 
L 1650 3319 
L 1650 2881 
L 1084 2881 
L 1084 941 
Q 1084 700 1114 631 
Q 1144 563 1211 522 
Q 1278 481 1403 481 
Q 1497 481 1650 503 
z
" transform="scale(0.015625)"/>
      <path id="ArialMT-73" d="M 197 991 
L 753 1078 
Q 800 744 1014 566 
Q 1228 388 1613 388 
Q 2000 388 2187 545 
Q 2375 703 2375 916 
Q 2375 1106 2209 1216 
Q 2094 1291 1634 1406 
Q 1016 1563 777 1677 
Q 538 1791 414 1992 
Q 291 2194 291 2438 
Q 291 2659 392 2848 
Q 494 3038 669 3163 
Q 800 3259 1026 3326 
Q 1253 3394 1513 3394 
Q 1903 3394 2198 3281 
Q 2494 3169 2634 2976 
Q 2775 2784 2828 2463 
L 2278 2388 
Q 2241 2644 2061 2787 
Q 1881 2931 1553 2931 
Q 1166 2931 1000 2803 
Q 834 2675 834 2503 
Q 834 2394 903 2306 
Q 972 2216 1119 2156 
Q 1203 2125 1616 2013 
Q 2213 1853 2448 1751 
Q 2684 1650 2818 1456 
Q 2953 1263 2953 975 
Q 2953 694 2789 445 
Q 2625 197 2315 61 
Q 2006 -75 1616 -75 
Q 969 -75 630 194 
Q 291 463 197 991 
z
" transform="scale(0.015625)"/>
      <path id="ArialMT-65" d="M 2694 1069 
L 3275 997 
Q 3138 488 2766 206 
Q 2394 -75 1816 -75 
Q 1088 -75 661 373 
Q 234 822 234 1631 
Q 234 2469 665 2931 
Q 1097 3394 1784 3394 
Q 2450 3394 2872 2941 
Q 3294 2488 3294 1666 
Q 3294 1616 3291 1516 
L 816 1516 
Q 847 969 1125 678 
Q 1403 388 1819 388 
Q 2128 388 2347 550 
Q 2566 713 2694 1069 
z
M 847 1978 
L 2700 1978 
Q 2663 2397 2488 2606 
Q 2219 2931 1791 2931 
Q 1403 2931 1139 2672 
Q 875 2413 847 1978 
z
" transform="scale(0.015625)"/>
      <path id="ArialMT-20" transform="scale(0.015625)"/>
      <path id="ArialMT-6d" d="M 422 0 
L 422 3319 
L 925 3319 
L 925 2853 
Q 1081 3097 1340 3245 
Q 1600 3394 1931 3394 
Q 2300 3394 2536 3241 
Q 2772 3088 2869 2813 
Q 3263 3394 3894 3394 
Q 4388 3394 4653 3120 
Q 4919 2847 4919 2278 
L 4919 0 
L 4359 0 
L 4359 2091 
Q 4359 2428 4304 2576 
Q 4250 2725 4106 2815 
Q 3963 2906 3769 2906 
Q 3419 2906 3187 2673 
Q 2956 2441 2956 1928 
L 2956 0 
L 2394 0 
L 2394 2156 
Q 2394 2531 2256 2718 
Q 2119 2906 1806 2906 
Q 1569 2906 1367 2781 
Q 1166 2656 1075 2415 
Q 984 2175 984 1722 
L 984 0 
L 422 0 
z
" transform="scale(0.015625)"/>
      <path id="ArialMT-70" d="M 422 -1272 
L 422 3319 
L 934 3319 
L 934 2888 
Q 1116 3141 1344 3267 
Q 1572 3394 1897 3394 
Q 2322 3394 2647 3175 
Q 2972 2956 3137 2557 
Q 3303 2159 3303 1684 
Q 3303 1175 3120 767 
Q 2938 359 2589 142 
Q 2241 -75 1856 -75 
Q 1575 -75 1351 44 
Q 1128 163 984 344 
L 984 -1272 
L 422 -1272 
z
M 931 1641 
Q 931 1000 1190 694 
Q 1450 388 1819 388 
Q 2194 388 2461 705 
Q 2728 1022 2728 1688 
Q 2728 2322 2467 2637 
Q 2206 2953 1844 2953 
Q 1484 2953 1207 2617 
Q 931 2281 931 1641 
z
" transform="scale(0.015625)"/>
      <path id="ArialMT-6c" d="M 409 0 
L 409 4581 
L 972 4581 
L 972 0 
L 409 0 
z
" transform="scale(0.015625)"/>
     </defs>
     <use xlink:href="#ArialMT-44"/>
     <use xlink:href="#ArialMT-61" transform="translate(72.216797 0)"/>
     <use xlink:href="#ArialMT-74" transform="translate(127.832031 0)"/>
     <use xlink:href="#ArialMT-61" transform="translate(155.615234 0)"/>
     <use xlink:href="#ArialMT-73" transform="translate(211.230469 0)"/>
     <use xlink:href="#ArialMT-65" transform="translate(261.230469 0)"/>
     <use xlink:href="#ArialMT-74" transform="translate(316.845703 0)"/>
     <use xlink:href="#ArialMT-20" transform="translate(344.628906 0)"/>
     <use xlink:href="#ArialMT-73" transform="translate(372.412109 0)"/>
     <use xlink:href="#ArialMT-61" transform="translate(422.412109 0)"/>
     <use xlink:href="#ArialMT-6d" transform="translate(478.027344 0)"/>
     <use xlink:href="#ArialMT-70" transform="translate(561.328125 0)"/>
     <use xlink:href="#ArialMT-6c" transform="translate(616.943359 0)"/>
     <use xlink:href="#ArialMT-65" transform="translate(639.160156 0)"/>
     <use xlink:href="#ArialMT-73" transform="translate(694.775391 0)"/>
    </g>
   </g>
   <g id="legend_1">
    <g id="patch_7">
     <path d="M 197.010937 149.879219 
L 268.889063 149.879219 
Q 271.089063 149.879219 271.089063 147.679219 
L 271.089063 117.659531 
Q 271.089063 115.459531 268.889063 115.459531 
L 197.010937 115.459531 
Q 194.810937 115.459531 194.810937 117.659531 
L 194.810937 147.679219 
Q 194.810937 149.879219 197.010937 149.879219 
z
" style="fill: #eaeaf2; opacity: 0.8; stroke: #cccccc; stroke-linejoin: miter"/>
    </g>
    <g id="PathCollection_3">
     <g>
      <use xlink:href="#m7f46640820" x="210.210938" y="124.845625" style="fill: #4c72b0; stroke: #333333"/>
     </g>
    </g>
    <g id="text_15">
     <!-- Class 0 -->
     <g style="fill: #262626" transform="translate(230.010938 127.733125) scale(0.11 -0.11)">
      <defs>
       <path id="ArialMT-43" d="M 3763 1606 
L 4369 1453 
Q 4178 706 3683 314 
Q 3188 -78 2472 -78 
Q 1731 -78 1267 223 
Q 803 525 561 1097 
Q 319 1669 319 2325 
Q 319 3041 592 3573 
Q 866 4106 1370 4382 
Q 1875 4659 2481 4659 
Q 3169 4659 3637 4309 
Q 4106 3959 4291 3325 
L 3694 3184 
Q 3534 3684 3231 3912 
Q 2928 4141 2469 4141 
Q 1941 4141 1586 3887 
Q 1231 3634 1087 3207 
Q 944 2781 944 2328 
Q 944 1744 1114 1308 
Q 1284 872 1643 656 
Q 2003 441 2422 441 
Q 2931 441 3284 734 
Q 3638 1028 3763 1606 
z
" transform="scale(0.015625)"/>
      </defs>
      <use xlink:href="#ArialMT-43"/>
      <use xlink:href="#ArialMT-6c" transform="translate(72.216797 0)"/>
      <use xlink:href="#ArialMT-61" transform="translate(94.433594 0)"/>
      <use xlink:href="#ArialMT-73" transform="translate(150.048828 0)"/>
      <use xlink:href="#ArialMT-73" transform="translate(200.048828 0)"/>
      <use xlink:href="#ArialMT-20" transform="translate(250.048828 0)"/>
      <use xlink:href="#ArialMT-30" transform="translate(277.832031 0)"/>
     </g>
    </g>
    <g id="PathCollection_4">
     <g>
      <use xlink:href="#mbd66ac292a" x="210.210938" y="140.405469" style="fill: #dd8452; stroke: #333333"/>
     </g>
    </g>
    <g id="text_16">
     <!-- Class 1 -->
     <g style="fill: #262626" transform="translate(230.010938 143.292969) scale(0.11 -0.11)">
      <use xlink:href="#ArialMT-43"/>
      <use xlink:href="#ArialMT-6c" transform="translate(72.216797 0)"/>
      <use xlink:href="#ArialMT-61" transform="translate(94.433594 0)"/>
      <use xlink:href="#ArialMT-73" transform="translate(150.048828 0)"/>
      <use xlink:href="#ArialMT-73" transform="translate(200.048828 0)"/>
      <use xlink:href="#ArialMT-20" transform="translate(250.048828 0)"/>
      <use xlink:href="#ArialMT-31" transform="translate(277.832031 0)"/>
     </g>
    </g>
   </g>
  </g>
 </g>
 <defs>
  <clipPath id="p70edba513c">
   <rect x="53.389062" y="21.789375" width="223.2" height="221.76"/>
  </clipPath>
 </defs>
</svg>
