<?xml version="1.0" encoding="utf-8" standalone="no"?>
<!DOCTYPE svg PUBLIC "-//W3C//DTD SVG 1.1//EN"
  "http://www.w3.org/Graphics/SVG/1.1/DTD/svg11.dtd">
<svg xmlns:xlink="http://www.w3.org/1999/xlink" width="482.841719pt" height="713.975469pt" viewBox="0 0 482.841719 713.975469" xmlns="http://www.w3.org/2000/svg" version="1.1">
 <metadata>
  <rdf:RDF xmlns:dc="http://purl.org/dc/elements/1.1/" xmlns:cc="http://creativecommons.org/ns#" xmlns:rdf="http://www.w3.org/1999/02/22-rdf-syntax-ns#">
   <cc:Work>
    <dc:type rdf:resource="http://purl.org/dc/dcmitype/StillImage"/>
    <dc:date>2025-04-01T13:08:35.577743</dc:date>
    <dc:format>image/svg+xml</dc:format>
    <dc:creator>
     <cc:Agent>
      <dc:title>Matplotlib v3.10.0, https://matplotlib.org/</dc:title>
     </cc:Agent>
    </dc:creator>
   </cc:Work>
  </rdf:RDF>
 </metadata>
 <defs>
  <style type="text/css">*{stroke-linejoin: round; stroke-linecap: butt}</style>
 </defs>
 <g id="figure_1">
  <g id="patch_1">
   <path d="M 0 713.975469 
L 482.841719 713.975469 
L 482.841719 0 
L 0 0 
z
" style="fill: #ffffff"/>
  </g>
  <g id="axes_1">
   <g id="patch_2">
    <path d="M 29.241719 206.735625 
L 232.15081 206.735625 
L 232.15081 21.935625 
L 29.241719 21.935625 
z
" style="fill: #eaeaf2"/>
   </g>
   <g id="matplotlib.axis_1">
    <g id="xtick_1">
     <g id="line2d_1">
      <path d="M 56.91114 206.735625 
L 56.91114 21.935625 
" clip-path="url(#pc34911914d)" style="fill: none; stroke: #ffffff; stroke-linecap: round"/>
     </g>
     <g id="text_1">
      <!-- −4 -->
      <g style="fill: #262626" transform="translate(50.640281 224.109219) scale(0.11 -0.11)">
       <defs>
        <path id="ArialMT-2212" d="M 3381 1997 
L 356 1997 
L 356 2522 
L 3381 2522 
L 3381 1997 
z
" transform="scale(0.015625)"/>
        <path id="ArialMT-34" d="M 2069 0 
L 2069 1097 
L 81 1097 
L 81 1613 
L 2172 4581 
L 2631 4581 
L 2631 1613 
L 3250 1613 
L 3250 1097 
L 2631 1097 
L 2631 0 
L 2069 0 
z
M 2069 1613 
L 2069 3678 
L 634 1613 
L 2069 1613 
z
" transform="scale(0.015625)"/>
       </defs>
       <use xlink:href="#ArialMT-2212"/>
       <use xlink:href="#ArialMT-34" transform="translate(58.398438 0)"/>
      </g>
     </g>
    </g>
    <g id="xtick_2">
     <g id="line2d_2">
      <path d="M 93.803702 206.735625 
L 93.803702 21.935625 
" clip-path="url(#pc34911914d)" style="fill: none; stroke: #ffffff; stroke-linecap: round"/>
     </g>
     <g id="text_2">
      <!-- −2 -->
      <g style="fill: #262626" transform="translate(87.532843 224.109219) scale(0.11 -0.11)">
       <defs>
        <path id="ArialMT-32" d="M 3222 541 
L 3222 0 
L 194 0 
Q 188 203 259 391 
Q 375 700 629 1000 
Q 884 1300 1366 1694 
Q 2113 2306 2375 2664 
Q 2638 3022 2638 3341 
Q 2638 3675 2398 3904 
Q 2159 4134 1775 4134 
Q 1369 4134 1125 3890 
Q 881 3647 878 3216 
L 300 3275 
Q 359 3922 746 4261 
Q 1134 4600 1788 4600 
Q 2447 4600 2831 4234 
Q 3216 3869 3216 3328 
Q 3216 3053 3103 2787 
Q 2991 2522 2730 2228 
Q 2469 1934 1863 1422 
Q 1356 997 1212 845 
Q 1069 694 975 541 
L 3222 541 
z
" transform="scale(0.015625)"/>
       </defs>
       <use xlink:href="#ArialMT-2212"/>
       <use xlink:href="#ArialMT-32" transform="translate(58.398438 0)"/>
      </g>
     </g>
    </g>
    <g id="xtick_3">
     <g id="line2d_3">
      <path d="M 130.696264 206.735625 
L 130.696264 21.935625 
" clip-path="url(#pc34911914d)" style="fill: none; stroke: #ffffff; stroke-linecap: round"/>
     </g>
     <g id="text_3">
      <!-- 0 -->
      <g style="fill: #262626" transform="translate(127.637749 224.109219) scale(0.11 -0.11)">
       <defs>
        <path id="ArialMT-30" d="M 266 2259 
Q 266 3072 433 3567 
Q 600 4063 929 4331 
Q 1259 4600 1759 4600 
Q 2128 4600 2406 4451 
Q 2684 4303 2865 4023 
Q 3047 3744 3150 3342 
Q 3253 2941 3253 2259 
Q 3253 1453 3087 958 
Q 2922 463 2592 192 
Q 2263 -78 1759 -78 
Q 1097 -78 719 397 
Q 266 969 266 2259 
z
M 844 2259 
Q 844 1131 1108 757 
Q 1372 384 1759 384 
Q 2147 384 2411 759 
Q 2675 1134 2675 2259 
Q 2675 3391 2411 3762 
Q 2147 4134 1753 4134 
Q 1366 4134 1134 3806 
Q 844 3388 844 2259 
z
" transform="scale(0.015625)"/>
       </defs>
       <use xlink:href="#ArialMT-30"/>
      </g>
     </g>
    </g>
    <g id="xtick_4">
     <g id="line2d_4">
      <path d="M 167.588826 206.735625 
L 167.588826 21.935625 
" clip-path="url(#pc34911914d)" style="fill: none; stroke: #ffffff; stroke-linecap: round"/>
     </g>
     <g id="text_4">
      <!-- 2 -->
      <g style="fill: #262626" transform="translate(164.530311 224.109219) scale(0.11 -0.11)">
       <use xlink:href="#ArialMT-32"/>
      </g>
     </g>
    </g>
    <g id="xtick_5">
     <g id="line2d_5">
      <path d="M 204.481388 206.735625 
L 204.481388 21.935625 
" clip-path="url(#pc34911914d)" style="fill: none; stroke: #ffffff; stroke-linecap: round"/>
     </g>
     <g id="text_5">
      <!-- 4 -->
      <g style="fill: #262626" transform="translate(201.422873 224.109219) scale(0.11 -0.11)">
       <use xlink:href="#ArialMT-34"/>
      </g>
     </g>
    </g>
   </g>
   <g id="matplotlib.axis_2">
    <g id="ytick_1">
     <g id="line2d_6">
      <path d="M 29.241719 192.52024 
L 232.15081 192.52024 
" clip-path="url(#pc34911914d)" style="fill: none; stroke: #ffffff; stroke-linecap: round"/>
     </g>
     <g id="text_6">
      <!-- −1 -->
      <g style="fill: #262626" transform="translate(7.2 196.457037) scale(0.11 -0.11)">
       <defs>
        <path id="ArialMT-31" d="M 2384 0 
L 1822 0 
L 1822 3584 
Q 1619 3391 1289 3197 
Q 959 3003 697 2906 
L 697 3450 
Q 1169 3672 1522 3987 
Q 1875 4303 2022 4600 
L 2384 4600 
L 2384 0 
z
" transform="scale(0.015625)"/>
       </defs>
       <use xlink:href="#ArialMT-2212"/>
       <use xlink:href="#ArialMT-31" transform="translate(58.398438 0)"/>
      </g>
     </g>
    </g>
    <g id="ytick_2">
     <g id="line2d_7">
      <path d="M 29.241719 164.089471 
L 232.15081 164.089471 
" clip-path="url(#pc34911914d)" style="fill: none; stroke: #ffffff; stroke-linecap: round"/>
     </g>
     <g id="text_7">
      <!-- 0 -->
      <g style="fill: #262626" transform="translate(13.624688 168.026268) scale(0.11 -0.11)">
       <use xlink:href="#ArialMT-30"/>
      </g>
     </g>
    </g>
    <g id="ytick_3">
     <g id="line2d_8">
      <path d="M 29.241719 135.658702 
L 232.15081 135.658702 
" clip-path="url(#pc34911914d)" style="fill: none; stroke: #ffffff; stroke-linecap: round"/>
     </g>
     <g id="text_8">
      <!-- 1 -->
      <g style="fill: #262626" transform="translate(13.624688 139.595499) scale(0.11 -0.11)">
       <use xlink:href="#ArialMT-31"/>
      </g>
     </g>
    </g>
    <g id="ytick_4">
     <g id="line2d_9">
      <path d="M 29.241719 107.227933 
L 232.15081 107.227933 
" clip-path="url(#pc34911914d)" style="fill: none; stroke: #ffffff; stroke-linecap: round"/>
     </g>
     <g id="text_9">
      <!-- 2 -->
      <g style="fill: #262626" transform="translate(13.624688 111.16473) scale(0.11 -0.11)">
       <use xlink:href="#ArialMT-32"/>
      </g>
     </g>
    </g>
    <g id="ytick_5">
     <g id="line2d_10">
      <path d="M 29.241719 78.797163 
L 232.15081 78.797163 
" clip-path="url(#pc34911914d)" style="fill: none; stroke: #ffffff; stroke-linecap: round"/>
     </g>
     <g id="text_10">
      <!-- 3 -->
      <g style="fill: #262626" transform="translate(13.624688 82.73396) scale(0.11 -0.11)">
       <defs>
        <path id="ArialMT-33" d="M 269 1209 
L 831 1284 
Q 928 806 1161 595 
Q 1394 384 1728 384 
Q 2125 384 2398 659 
Q 2672 934 2672 1341 
Q 2672 1728 2419 1979 
Q 2166 2231 1775 2231 
Q 1616 2231 1378 2169 
L 1441 2663 
Q 1497 2656 1531 2656 
Q 1891 2656 2178 2843 
Q 2466 3031 2466 3422 
Q 2466 3731 2256 3934 
Q 2047 4138 1716 4138 
Q 1388 4138 1169 3931 
Q 950 3725 888 3313 
L 325 3413 
Q 428 3978 793 4289 
Q 1159 4600 1703 4600 
Q 2078 4600 2393 4439 
Q 2709 4278 2876 4000 
Q 3044 3722 3044 3409 
Q 3044 3113 2884 2869 
Q 2725 2625 2413 2481 
Q 2819 2388 3044 2092 
Q 3269 1797 3269 1353 
Q 3269 753 2831 336 
Q 2394 -81 1725 -81 
Q 1122 -81 723 278 
Q 325 638 269 1209 
z
" transform="scale(0.015625)"/>
       </defs>
       <use xlink:href="#ArialMT-33"/>
      </g>
     </g>
    </g>
    <g id="ytick_6">
     <g id="line2d_11">
      <path d="M 29.241719 50.366394 
L 232.15081 50.366394 
" clip-path="url(#pc34911914d)" style="fill: none; stroke: #ffffff; stroke-linecap: round"/>
     </g>
     <g id="text_11">
      <!-- 4 -->
      <g style="fill: #262626" transform="translate(13.624688 54.303191) scale(0.11 -0.11)">
       <use xlink:href="#ArialMT-34"/>
      </g>
     </g>
    </g>
    <g id="ytick_7">
     <g id="line2d_12">
      <path d="M 29.241719 21.935625 
L 232.15081 21.935625 
" clip-path="url(#pc34911914d)" style="fill: none; stroke: #ffffff; stroke-linecap: round"/>
     </g>
     <g id="text_12">
      <!-- 5 -->
      <g style="fill: #262626" transform="translate(13.624688 25.872422) scale(0.11 -0.11)">
       <defs>
        <path id="ArialMT-35" d="M 266 1200 
L 856 1250 
Q 922 819 1161 601 
Q 1400 384 1738 384 
Q 2144 384 2425 690 
Q 2706 997 2706 1503 
Q 2706 1984 2436 2262 
Q 2166 2541 1728 2541 
Q 1456 2541 1237 2417 
Q 1019 2294 894 2097 
L 366 2166 
L 809 4519 
L 3088 4519 
L 3088 3981 
L 1259 3981 
L 1013 2750 
Q 1425 3038 1878 3038 
Q 2478 3038 2890 2622 
Q 3303 2206 3303 1553 
Q 3303 931 2941 478 
Q 2500 -78 1738 -78 
Q 1113 -78 717 272 
Q 322 622 266 1200 
z
" transform="scale(0.015625)"/>
       </defs>
       <use xlink:href="#ArialMT-35"/>
      </g>
     </g>
    </g>
   </g>
   <g id="line2d_13">
    <path d="M 38.464859 163.899188 
L 55.637076 163.611663 
L 67.269863 163.204833 
L 76.317587 162.672664 
L 83.888133 162.0064 
L 90.350795 161.220608 
L 96.259512 160.282459 
L 101.798935 159.179296 
L 107.15371 157.886312 
L 112.508487 156.364671 
L 118.232557 154.501846 
L 125.064514 152.027404 
L 145.191093 144.559643 
L 150.915164 142.779816 
L 156.269939 141.344437 
L 161.624715 140.137571 
L 167.164139 139.117062 
L 173.072859 138.255769 
L 179.535516 137.538947 
L 186.921414 136.946668 
L 195.784496 136.4693 
L 206.863337 136.109101 
L 221.819785 135.86068 
L 222.927669 135.848984 
L 222.927669 135.848984 
" clip-path="url(#pc34911914d)" style="fill: none; stroke: #4c72b0; stroke-width: 2; stroke-linecap: round"/>
   </g>
   <g id="line2d_14">
    <path d="M 38.464859 163.900462 
L 55.821719 163.615127 
L 67.823805 163.207903 
L 77.425472 162.668717 
L 85.919254 161.970612 
L 94.043742 161.074746 
L 103.091466 159.839685 
L 118.232557 157.735053 
L 123.771982 157.226394 
L 128.572815 157.005274 
L 133.189008 157.014129 
L 137.989842 157.252497 
L 143.159971 157.735053 
L 149.807278 158.593355 
L 171.226381 161.530646 
L 179.350869 162.318268 
L 187.844656 162.91469 
L 197.630969 163.373109 
L 209.817703 163.710032 
L 222.927669 163.900462 
L 222.927669 163.900462 
" clip-path="url(#pc34911914d)" style="fill: none; stroke: #dd8452; stroke-width: 2; stroke-linecap: round"/>
   </g>
   <g id="patch_3">
    <path d="M 29.241719 206.735625 
L 29.241719 21.935625 
" style="fill: none; stroke: #ffffff; stroke-width: 1.25; stroke-linejoin: miter; stroke-linecap: square"/>
   </g>
   <g id="patch_4">
    <path d="M 232.15081 206.735625 
L 232.15081 21.935625 
" style="fill: none; stroke: #ffffff; stroke-width: 1.25; stroke-linejoin: miter; stroke-linecap: square"/>
   </g>
   <g id="patch_5">
    <path d="M 29.241719 206.735625 
L 232.15081 206.735625 
" style="fill: none; stroke: #ffffff; stroke-width: 1.25; stroke-linejoin: miter; stroke-linecap: square"/>
   </g>
   <g id="patch_6">
    <path d="M 29.241719 21.935625 
L 232.15081 21.935625 
" style="fill: none; stroke: #ffffff; stroke-width: 1.25; stroke-linejoin: miter; stroke-linecap: square"/>
   </g>
   <g id="text_13">
    <!-- Sigmoid -->
    <g style="fill: #262626" transform="translate(109.020327 15.935625) scale(0.12 -0.12)">
     <defs>
      <path id="ArialMT-53" d="M 288 1472 
L 859 1522 
Q 900 1178 1048 958 
Q 1197 738 1509 602 
Q 1822 466 2213 466 
Q 2559 466 2825 569 
Q 3091 672 3220 851 
Q 3350 1031 3350 1244 
Q 3350 1459 3225 1620 
Q 3100 1781 2813 1891 
Q 2628 1963 1997 2114 
Q 1366 2266 1113 2400 
Q 784 2572 623 2826 
Q 463 3081 463 3397 
Q 463 3744 659 4045 
Q 856 4347 1234 4503 
Q 1613 4659 2075 4659 
Q 2584 4659 2973 4495 
Q 3363 4331 3572 4012 
Q 3781 3694 3797 3291 
L 3216 3247 
Q 3169 3681 2898 3903 
Q 2628 4125 2100 4125 
Q 1550 4125 1298 3923 
Q 1047 3722 1047 3438 
Q 1047 3191 1225 3031 
Q 1400 2872 2139 2705 
Q 2878 2538 3153 2413 
Q 3553 2228 3743 1945 
Q 3934 1663 3934 1294 
Q 3934 928 3725 604 
Q 3516 281 3123 101 
Q 2731 -78 2241 -78 
Q 1619 -78 1198 103 
Q 778 284 539 648 
Q 300 1013 288 1472 
z
" transform="scale(0.015625)"/>
      <path id="ArialMT-69" d="M 425 3934 
L 425 4581 
L 988 4581 
L 988 3934 
L 425 3934 
z
M 425 0 
L 425 3319 
L 988 3319 
L 988 0 
L 425 0 
z
" transform="scale(0.015625)"/>
      <path id="ArialMT-67" d="M 319 -275 
L 866 -356 
Q 900 -609 1056 -725 
Q 1266 -881 1628 -881 
Q 2019 -881 2231 -725 
Q 2444 -569 2519 -288 
Q 2563 -116 2559 434 
Q 2191 0 1641 0 
Q 956 0 581 494 
Q 206 988 206 1678 
Q 206 2153 378 2554 
Q 550 2956 876 3175 
Q 1203 3394 1644 3394 
Q 2231 3394 2613 2919 
L 2613 3319 
L 3131 3319 
L 3131 450 
Q 3131 -325 2973 -648 
Q 2816 -972 2473 -1159 
Q 2131 -1347 1631 -1347 
Q 1038 -1347 672 -1080 
Q 306 -813 319 -275 
z
M 784 1719 
Q 784 1066 1043 766 
Q 1303 466 1694 466 
Q 2081 466 2343 764 
Q 2606 1063 2606 1700 
Q 2606 2309 2336 2618 
Q 2066 2928 1684 2928 
Q 1309 2928 1046 2623 
Q 784 2319 784 1719 
z
" transform="scale(0.015625)"/>
      <path id="ArialMT-6d" d="M 422 0 
L 422 3319 
L 925 3319 
L 925 2853 
Q 1081 3097 1340 3245 
Q 1600 3394 1931 3394 
Q 2300 3394 2536 3241 
Q 2772 3088 2869 2813 
Q 3263 3394 3894 3394 
Q 4388 3394 4653 3120 
Q 4919 2847 4919 2278 
L 4919 0 
L 4359 0 
L 4359 2091 
Q 4359 2428 4304 2576 
Q 4250 2725 4106 2815 
Q 3963 2906 3769 2906 
Q 3419 2906 3187 2673 
Q 2956 2441 2956 1928 
L 2956 0 
L 2394 0 
L 2394 2156 
Q 2394 2531 2256 2718 
Q 2119 2906 1806 2906 
Q 1569 2906 1367 2781 
Q 1166 2656 1075 2415 
Q 984 2175 984 1722 
L 984 0 
L 422 0 
z
" transform="scale(0.015625)"/>
      <path id="ArialMT-6f" d="M 213 1659 
Q 213 2581 725 3025 
Q 1153 3394 1769 3394 
Q 2453 3394 2887 2945 
Q 3322 2497 3322 1706 
Q 3322 1066 3130 698 
Q 2938 331 2570 128 
Q 2203 -75 1769 -75 
Q 1072 -75 642 372 
Q 213 819 213 1659 
z
M 791 1659 
Q 791 1022 1069 705 
Q 1347 388 1769 388 
Q 2188 388 2466 706 
Q 2744 1025 2744 1678 
Q 2744 2294 2464 2611 
Q 2184 2928 1769 2928 
Q 1347 2928 1069 2612 
Q 791 2297 791 1659 
z
" transform="scale(0.015625)"/>
      <path id="ArialMT-64" d="M 2575 0 
L 2575 419 
Q 2259 -75 1647 -75 
Q 1250 -75 917 144 
Q 584 363 401 755 
Q 219 1147 219 1656 
Q 219 2153 384 2558 
Q 550 2963 881 3178 
Q 1213 3394 1622 3394 
Q 1922 3394 2156 3267 
Q 2391 3141 2538 2938 
L 2538 4581 
L 3097 4581 
L 3097 0 
L 2575 0 
z
M 797 1656 
Q 797 1019 1065 703 
Q 1334 388 1700 388 
Q 2069 388 2326 689 
Q 2584 991 2584 1609 
Q 2584 2291 2321 2609 
Q 2059 2928 1675 2928 
Q 1300 2928 1048 2622 
Q 797 2316 797 1656 
z
" transform="scale(0.015625)"/>
     </defs>
     <use xlink:href="#ArialMT-53"/>
     <use xlink:href="#ArialMT-69" transform="translate(66.699219 0)"/>
     <use xlink:href="#ArialMT-67" transform="translate(88.916016 0)"/>
     <use xlink:href="#ArialMT-6d" transform="translate(144.53125 0)"/>
     <use xlink:href="#ArialMT-6f" transform="translate(227.832031 0)"/>
     <use xlink:href="#ArialMT-69" transform="translate(283.447266 0)"/>
     <use xlink:href="#ArialMT-64" transform="translate(305.664062 0)"/>
    </g>
   </g>
   <g id="legend_1">
    <g id="patch_7">
     <path d="M 147.064091 61.855312 
L 224.45081 61.855312 
Q 226.65081 61.855312 226.65081 59.655312 
L 226.65081 29.635625 
Q 226.65081 27.435625 224.45081 27.435625 
L 147.064091 27.435625 
Q 144.864091 27.435625 144.864091 29.635625 
L 144.864091 59.655312 
Q 144.864091 61.855312 147.064091 61.855312 
z
" style="fill: #eaeaf2; opacity: 0.8; stroke: #cccccc; stroke-linejoin: miter"/>
    </g>
    <g id="line2d_15">
     <path d="M 149.264091 35.859219 
L 160.264091 35.859219 
L 171.264091 35.859219 
" style="fill: none; stroke: #4c72b0; stroke-width: 2; stroke-linecap: round"/>
    </g>
    <g id="text_14">
     <!-- ActFn -->
     <g style="fill: #262626" transform="translate(180.064091 39.709219) scale(0.11 -0.11)">
      <defs>
       <path id="ArialMT-41" d="M -9 0 
L 1750 4581 
L 2403 4581 
L 4278 0 
L 3588 0 
L 3053 1388 
L 1138 1388 
L 634 0 
L -9 0 
z
M 1313 1881 
L 2866 1881 
L 2388 3150 
Q 2169 3728 2063 4100 
Q 1975 3659 1816 3225 
L 1313 1881 
z
" transform="scale(0.015625)"/>
       <path id="ArialMT-63" d="M 2588 1216 
L 3141 1144 
Q 3050 572 2676 248 
Q 2303 -75 1759 -75 
Q 1078 -75 664 370 
Q 250 816 250 1647 
Q 250 2184 428 2587 
Q 606 2991 970 3192 
Q 1334 3394 1763 3394 
Q 2303 3394 2647 3120 
Q 2991 2847 3088 2344 
L 2541 2259 
Q 2463 2594 2264 2762 
Q 2066 2931 1784 2931 
Q 1359 2931 1093 2626 
Q 828 2322 828 1663 
Q 828 994 1084 691 
Q 1341 388 1753 388 
Q 2084 388 2306 591 
Q 2528 794 2588 1216 
z
" transform="scale(0.015625)"/>
       <path id="ArialMT-74" d="M 1650 503 
L 1731 6 
Q 1494 -44 1306 -44 
Q 1000 -44 831 53 
Q 663 150 594 308 
Q 525 466 525 972 
L 525 2881 
L 113 2881 
L 113 3319 
L 525 3319 
L 525 4141 
L 1084 4478 
L 1084 3319 
L 1650 3319 
L 1650 2881 
L 1084 2881 
L 1084 941 
Q 1084 700 1114 631 
Q 1144 563 1211 522 
Q 1278 481 1403 481 
Q 1497 481 1650 503 
z
" transform="scale(0.015625)"/>
       <path id="ArialMT-46" d="M 525 0 
L 525 4581 
L 3616 4581 
L 3616 4041 
L 1131 4041 
L 1131 2622 
L 3281 2622 
L 3281 2081 
L 1131 2081 
L 1131 0 
L 525 0 
z
" transform="scale(0.015625)"/>
       <path id="ArialMT-6e" d="M 422 0 
L 422 3319 
L 928 3319 
L 928 2847 
Q 1294 3394 1984 3394 
Q 2284 3394 2536 3286 
Q 2788 3178 2913 3003 
Q 3038 2828 3088 2588 
Q 3119 2431 3119 2041 
L 3119 0 
L 2556 0 
L 2556 2019 
Q 2556 2363 2490 2533 
Q 2425 2703 2258 2804 
Q 2091 2906 1866 2906 
Q 1506 2906 1245 2678 
Q 984 2450 984 1813 
L 984 0 
L 422 0 
z
" transform="scale(0.015625)"/>
      </defs>
      <use xlink:href="#ArialMT-41"/>
      <use xlink:href="#ArialMT-63" transform="translate(66.699219 0)"/>
      <use xlink:href="#ArialMT-74" transform="translate(116.699219 0)"/>
      <use xlink:href="#ArialMT-46" transform="translate(144.482422 0)"/>
      <use xlink:href="#ArialMT-6e" transform="translate(205.566406 0)"/>
     </g>
    </g>
    <g id="line2d_16">
     <path d="M 149.264091 51.419063 
L 160.264091 51.419063 
L 171.264091 51.419063 
" style="fill: none; stroke: #dd8452; stroke-width: 2; stroke-linecap: round"/>
    </g>
    <g id="text_15">
     <!-- Gradient -->
     <g style="fill: #262626" transform="translate(180.064091 55.269063) scale(0.11 -0.11)">
      <defs>
       <path id="ArialMT-47" d="M 2638 1797 
L 2638 2334 
L 4578 2338 
L 4578 638 
Q 4131 281 3656 101 
Q 3181 -78 2681 -78 
Q 2006 -78 1454 211 
Q 903 500 622 1047 
Q 341 1594 341 2269 
Q 341 2938 620 3517 
Q 900 4097 1425 4378 
Q 1950 4659 2634 4659 
Q 3131 4659 3532 4498 
Q 3934 4338 4162 4050 
Q 4391 3763 4509 3300 
L 3963 3150 
Q 3859 3500 3706 3700 
Q 3553 3900 3268 4020 
Q 2984 4141 2638 4141 
Q 2222 4141 1919 4014 
Q 1616 3888 1430 3681 
Q 1244 3475 1141 3228 
Q 966 2803 966 2306 
Q 966 1694 1177 1281 
Q 1388 869 1791 669 
Q 2194 469 2647 469 
Q 3041 469 3416 620 
Q 3791 772 3984 944 
L 3984 1797 
L 2638 1797 
z
" transform="scale(0.015625)"/>
       <path id="ArialMT-72" d="M 416 0 
L 416 3319 
L 922 3319 
L 922 2816 
Q 1116 3169 1280 3281 
Q 1444 3394 1641 3394 
Q 1925 3394 2219 3213 
L 2025 2691 
Q 1819 2813 1613 2813 
Q 1428 2813 1281 2702 
Q 1134 2591 1072 2394 
Q 978 2094 978 1738 
L 978 0 
L 416 0 
z
" transform="scale(0.015625)"/>
       <path id="ArialMT-61" d="M 2588 409 
Q 2275 144 1986 34 
Q 1697 -75 1366 -75 
Q 819 -75 525 192 
Q 231 459 231 875 
Q 231 1119 342 1320 
Q 453 1522 633 1644 
Q 813 1766 1038 1828 
Q 1203 1872 1538 1913 
Q 2219 1994 2541 2106 
Q 2544 2222 2544 2253 
Q 2544 2597 2384 2738 
Q 2169 2928 1744 2928 
Q 1347 2928 1158 2789 
Q 969 2650 878 2297 
L 328 2372 
Q 403 2725 575 2942 
Q 747 3159 1072 3276 
Q 1397 3394 1825 3394 
Q 2250 3394 2515 3294 
Q 2781 3194 2906 3042 
Q 3031 2891 3081 2659 
Q 3109 2516 3109 2141 
L 3109 1391 
Q 3109 606 3145 398 
Q 3181 191 3288 0 
L 2700 0 
Q 2613 175 2588 409 
z
M 2541 1666 
Q 2234 1541 1622 1453 
Q 1275 1403 1131 1340 
Q 988 1278 909 1158 
Q 831 1038 831 891 
Q 831 666 1001 516 
Q 1172 366 1500 366 
Q 1825 366 2078 508 
Q 2331 650 2450 897 
Q 2541 1088 2541 1459 
L 2541 1666 
z
" transform="scale(0.015625)"/>
       <path id="ArialMT-65" d="M 2694 1069 
L 3275 997 
Q 3138 488 2766 206 
Q 2394 -75 1816 -75 
Q 1088 -75 661 373 
Q 234 822 234 1631 
Q 234 2469 665 2931 
Q 1097 3394 1784 3394 
Q 2450 3394 2872 2941 
Q 3294 2488 3294 1666 
Q 3294 1616 3291 1516 
L 816 1516 
Q 847 969 1125 678 
Q 1403 388 1819 388 
Q 2128 388 2347 550 
Q 2566 713 2694 1069 
z
M 847 1978 
L 2700 1978 
Q 2663 2397 2488 2606 
Q 2219 2931 1791 2931 
Q 1403 2931 1139 2672 
Q 875 2413 847 1978 
z
" transform="scale(0.015625)"/>
      </defs>
      <use xlink:href="#ArialMT-47"/>
      <use xlink:href="#ArialMT-72" transform="translate(77.783203 0)"/>
      <use xlink:href="#ArialMT-61" transform="translate(111.083984 0)"/>
      <use xlink:href="#ArialMT-64" transform="translate(166.699219 0)"/>
      <use xlink:href="#ArialMT-69" transform="translate(222.314453 0)"/>
      <use xlink:href="#ArialMT-65" transform="translate(244.53125 0)"/>
      <use xlink:href="#ArialMT-6e" transform="translate(300.146484 0)"/>
      <use xlink:href="#ArialMT-74" transform="translate(355.761719 0)"/>
     </g>
    </g>
   </g>
  </g>
  <g id="axes_2">
   <g id="patch_8">
    <path d="M 272.732628 206.735625 
L 475.641719 206.735625 
L 475.641719 21.935625 
L 272.732628 21.935625 
z
" style="fill: #eaeaf2"/>
   </g>
   <g id="matplotlib.axis_3">
    <g id="xtick_6">
     <g id="line2d_17">
      <path d="M 300.402049 206.735625 
L 300.402049 21.935625 
" clip-path="url(#p51f76c704c)" style="fill: none; stroke: #ffffff; stroke-linecap: round"/>
     </g>
     <g id="text_16">
      <!-- −4 -->
      <g style="fill: #262626" transform="translate(294.13119 224.109219) scale(0.11 -0.11)">
       <use xlink:href="#ArialMT-2212"/>
       <use xlink:href="#ArialMT-34" transform="translate(58.398438 0)"/>
      </g>
     </g>
    </g>
    <g id="xtick_7">
     <g id="line2d_18">
      <path d="M 337.294611 206.735625 
L 337.294611 21.935625 
" clip-path="url(#p51f76c704c)" style="fill: none; stroke: #ffffff; stroke-linecap: round"/>
     </g>
     <g id="text_17">
      <!-- −2 -->
      <g style="fill: #262626" transform="translate(331.023752 224.109219) scale(0.11 -0.11)">
       <use xlink:href="#ArialMT-2212"/>
       <use xlink:href="#ArialMT-32" transform="translate(58.398438 0)"/>
      </g>
     </g>
    </g>
    <g id="xtick_8">
     <g id="line2d_19">
      <path d="M 374.187173 206.735625 
L 374.187173 21.935625 
" clip-path="url(#p51f76c704c)" style="fill: none; stroke: #ffffff; stroke-linecap: round"/>
     </g>
     <g id="text_18">
      <!-- 0 -->
      <g style="fill: #262626" transform="translate(371.128658 224.109219) scale(0.11 -0.11)">
       <use xlink:href="#ArialMT-30"/>
      </g>
     </g>
    </g>
    <g id="xtick_9">
     <g id="line2d_20">
      <path d="M 411.079735 206.735625 
L 411.079735 21.935625 
" clip-path="url(#p51f76c704c)" style="fill: none; stroke: #ffffff; stroke-linecap: round"/>
     </g>
     <g id="text_19">
      <!-- 2 -->
      <g style="fill: #262626" transform="translate(408.02122 224.109219) scale(0.11 -0.11)">
       <use xlink:href="#ArialMT-32"/>
      </g>
     </g>
    </g>
    <g id="xtick_10">
     <g id="line2d_21">
      <path d="M 447.972297 206.735625 
L 447.972297 21.935625 
" clip-path="url(#p51f76c704c)" style="fill: none; stroke: #ffffff; stroke-linecap: round"/>
     </g>
     <g id="text_20">
      <!-- 4 -->
      <g style="fill: #262626" transform="translate(444.913782 224.109219) scale(0.11 -0.11)">
       <use xlink:href="#ArialMT-34"/>
      </g>
     </g>
    </g>
   </g>
   <g id="matplotlib.axis_4">
    <g id="ytick_8">
     <g id="line2d_22">
      <path d="M 272.732628 192.52024 
L 475.641719 192.52024 
" clip-path="url(#p51f76c704c)" style="fill: none; stroke: #ffffff; stroke-linecap: round"/>
     </g>
     <g id="text_21">
      <!-- −1 -->
      <g style="fill: #262626" transform="translate(250.690909 196.457037) scale(0.11 -0.11)">
       <use xlink:href="#ArialMT-2212"/>
       <use xlink:href="#ArialMT-31" transform="translate(58.398438 0)"/>
      </g>
     </g>
    </g>
    <g id="ytick_9">
     <g id="line2d_23">
      <path d="M 272.732628 164.089471 
L 475.641719 164.089471 
" clip-path="url(#p51f76c704c)" style="fill: none; stroke: #ffffff; stroke-linecap: round"/>
     </g>
     <g id="text_22">
      <!-- 0 -->
      <g style="fill: #262626" transform="translate(257.115597 168.026268) scale(0.11 -0.11)">
       <use xlink:href="#ArialMT-30"/>
      </g>
     </g>
    </g>
    <g id="ytick_10">
     <g id="line2d_24">
      <path d="M 272.732628 135.658702 
L 475.641719 135.658702 
" clip-path="url(#p51f76c704c)" style="fill: none; stroke: #ffffff; stroke-linecap: round"/>
     </g>
     <g id="text_23">
      <!-- 1 -->
      <g style="fill: #262626" transform="translate(257.115597 139.595499) scale(0.11 -0.11)">
       <use xlink:href="#ArialMT-31"/>
      </g>
     </g>
    </g>
    <g id="ytick_11">
     <g id="line2d_25">
      <path d="M 272.732628 107.227933 
L 475.641719 107.227933 
" clip-path="url(#p51f76c704c)" style="fill: none; stroke: #ffffff; stroke-linecap: round"/>
     </g>
     <g id="text_24">
      <!-- 2 -->
      <g style="fill: #262626" transform="translate(257.115597 111.16473) scale(0.11 -0.11)">
       <use xlink:href="#ArialMT-32"/>
      </g>
     </g>
    </g>
    <g id="ytick_12">
     <g id="line2d_26">
      <path d="M 272.732628 78.797163 
L 475.641719 78.797163 
" clip-path="url(#p51f76c704c)" style="fill: none; stroke: #ffffff; stroke-linecap: round"/>
     </g>
     <g id="text_25">
      <!-- 3 -->
      <g style="fill: #262626" transform="translate(257.115597 82.73396) scale(0.11 -0.11)">
       <use xlink:href="#ArialMT-33"/>
      </g>
     </g>
    </g>
    <g id="ytick_13">
     <g id="line2d_27">
      <path d="M 272.732628 50.366394 
L 475.641719 50.366394 
" clip-path="url(#p51f76c704c)" style="fill: none; stroke: #ffffff; stroke-linecap: round"/>
     </g>
     <g id="text_26">
      <!-- 4 -->
      <g style="fill: #262626" transform="translate(257.115597 54.303191) scale(0.11 -0.11)">
       <use xlink:href="#ArialMT-34"/>
      </g>
     </g>
    </g>
    <g id="ytick_14">
     <g id="line2d_28">
      <path d="M 272.732628 21.935625 
L 475.641719 21.935625 
" clip-path="url(#p51f76c704c)" style="fill: none; stroke: #ffffff; stroke-linecap: round"/>
     </g>
     <g id="text_27">
      <!-- 5 -->
      <g style="fill: #262626" transform="translate(257.115597 25.872422) scale(0.11 -0.11)">
       <use xlink:href="#ArialMT-35"/>
      </g>
     </g>
    </g>
   </g>
   <g id="line2d_29">
    <path d="M 281.955768 192.517656 
L 317.592728 192.3975 
L 327.748337 192.152691 
L 334.210998 191.784397 
L 339.011829 191.292739 
L 342.889426 190.672093 
L 346.028433 189.956591 
L 348.798145 189.112451 
L 351.383211 188.095809 
L 353.783626 186.910331 
L 355.999396 185.573056 
L 358.215166 183.970188 
L 360.430935 182.074895 
L 362.646704 179.869484 
L 364.862473 177.350607 
L 367.262891 174.287153 
L 370.032602 170.386681 
L 374.094846 164.231771 
L 379.264982 156.455049 
L 382.034693 152.674763 
L 384.43511 149.741245 
L 386.65088 147.352247 
L 388.86665 145.277402 
L 391.082419 143.506739 
L 393.298187 142.018153 
L 395.513957 140.782402 
L 397.914375 139.691583 
L 400.499438 138.759592 
L 403.453798 137.943842 
L 406.777452 137.272035 
L 410.655049 136.728713 
L 415.271237 136.312215 
L 421.364599 135.998133 
L 430.043029 135.791651 
L 445.368767 135.683985 
L 466.418578 135.661286 
L 466.418578 135.661286 
" clip-path="url(#p51f76c704c)" style="fill: none; stroke: #4c72b0; stroke-width: 2; stroke-linecap: round"/>
   </g>
   <g id="line2d_30">
    <path d="M 281.955768 164.084306 
L 311.868656 163.957517 
L 321.65497 163.709874 
L 327.932984 163.34455 
L 332.733815 162.847056 
L 336.611414 162.219427 
L 339.750421 161.496541 
L 342.520131 160.644896 
L 345.105196 159.621419 
L 347.505614 158.431847 
L 349.721382 157.096336 
L 351.937153 155.506894 
L 354.152921 153.647791 
L 356.553338 151.331395 
L 359.32305 148.317486 
L 367.632185 138.966918 
L 369.294013 137.569018 
L 370.771192 136.611833 
L 372.063724 136.032149 
L 373.356256 135.716312 
L 374.464148 135.665111 
L 375.572033 135.818347 
L 376.679917 136.171635 
L 377.972449 136.823076 
L 379.449629 137.852622 
L 381.111456 139.316455 
L 383.142578 141.431963 
L 386.466232 145.292913 
L 390.713124 150.164519 
L 393.298187 152.793062 
L 395.698605 154.917526 
L 397.914375 156.59577 
L 400.130143 158.013465 
L 402.530561 159.281795 
L 404.930976 160.307186 
L 407.700689 161.237589 
L 410.655049 161.989719 
L 413.978701 162.608237 
L 418.040947 163.126889 
L 423.026425 163.524814 
L 429.673734 163.813405 
L 439.460052 163.993623 
L 458.294086 164.077015 
L 466.418578 164.084306 
L 466.418578 164.084306 
" clip-path="url(#p51f76c704c)" style="fill: none; stroke: #dd8452; stroke-width: 2; stroke-linecap: round"/>
   </g>
   <g id="patch_9">
    <path d="M 272.732628 206.735625 
L 272.732628 21.935625 
" style="fill: none; stroke: #ffffff; stroke-width: 1.25; stroke-linejoin: miter; stroke-linecap: square"/>
   </g>
   <g id="patch_10">
    <path d="M 475.641719 206.735625 
L 475.641719 21.935625 
" style="fill: none; stroke: #ffffff; stroke-width: 1.25; stroke-linejoin: miter; stroke-linecap: square"/>
   </g>
   <g id="patch_11">
    <path d="M 272.732628 206.735625 
L 475.641719 206.735625 
" style="fill: none; stroke: #ffffff; stroke-width: 1.25; stroke-linejoin: miter; stroke-linecap: square"/>
   </g>
   <g id="patch_12">
    <path d="M 272.732628 21.935625 
L 475.641719 21.935625 
" style="fill: none; stroke: #ffffff; stroke-width: 1.25; stroke-linejoin: miter; stroke-linecap: square"/>
   </g>
   <g id="text_28">
    <!-- Tanh -->
    <g style="fill: #262626" transform="translate(361.180298 15.935625) scale(0.12 -0.12)">
     <defs>
      <path id="ArialMT-54" d="M 1659 0 
L 1659 4041 
L 150 4041 
L 150 4581 
L 3781 4581 
L 3781 4041 
L 2266 4041 
L 2266 0 
L 1659 0 
z
" transform="scale(0.015625)"/>
      <path id="ArialMT-68" d="M 422 0 
L 422 4581 
L 984 4581 
L 984 2938 
Q 1378 3394 1978 3394 
Q 2347 3394 2619 3248 
Q 2891 3103 3008 2847 
Q 3125 2591 3125 2103 
L 3125 0 
L 2563 0 
L 2563 2103 
Q 2563 2525 2380 2717 
Q 2197 2909 1863 2909 
Q 1613 2909 1392 2779 
Q 1172 2650 1078 2428 
Q 984 2206 984 1816 
L 984 0 
L 422 0 
z
" transform="scale(0.015625)"/>
     </defs>
     <use xlink:href="#ArialMT-54"/>
     <use xlink:href="#ArialMT-61" transform="translate(49.958984 0)"/>
     <use xlink:href="#ArialMT-6e" transform="translate(105.574219 0)"/>
     <use xlink:href="#ArialMT-68" transform="translate(161.189453 0)"/>
    </g>
   </g>
   <g id="legend_2">
    <g id="patch_13">
     <path d="M 390.555 61.855312 
L 467.941719 61.855312 
Q 470.141719 61.855312 470.141719 59.655312 
L 470.141719 29.635625 
Q 470.141719 27.435625 467.941719 27.435625 
L 390.555 27.435625 
Q 388.355 27.435625 388.355 29.635625 
L 388.355 59.655312 
Q 388.355 61.855312 390.555 61.855312 
z
" style="fill: #eaeaf2; opacity: 0.8; stroke: #cccccc; stroke-linejoin: miter"/>
    </g>
    <g id="line2d_31">
     <path d="M 392.755 35.859219 
L 403.755 35.859219 
L 414.755 35.859219 
" style="fill: none; stroke: #4c72b0; stroke-width: 2; stroke-linecap: round"/>
    </g>
    <g id="text_29">
     <!-- ActFn -->
     <g style="fill: #262626" transform="translate(423.555 39.709219) scale(0.11 -0.11)">
      <use xlink:href="#ArialMT-41"/>
      <use xlink:href="#ArialMT-63" transform="translate(66.699219 0)"/>
      <use xlink:href="#ArialMT-74" transform="translate(116.699219 0)"/>
      <use xlink:href="#ArialMT-46" transform="translate(144.482422 0)"/>
      <use xlink:href="#ArialMT-6e" transform="translate(205.566406 0)"/>
     </g>
    </g>
    <g id="line2d_32">
     <path d="M 392.755 51.419063 
L 403.755 51.419063 
L 414.755 51.419063 
" style="fill: none; stroke: #dd8452; stroke-width: 2; stroke-linecap: round"/>
    </g>
    <g id="text_30">
     <!-- Gradient -->
     <g style="fill: #262626" transform="translate(423.555 55.269063) scale(0.11 -0.11)">
      <use xlink:href="#ArialMT-47"/>
      <use xlink:href="#ArialMT-72" transform="translate(77.783203 0)"/>
      <use xlink:href="#ArialMT-61" transform="translate(111.083984 0)"/>
      <use xlink:href="#ArialMT-64" transform="translate(166.699219 0)"/>
      <use xlink:href="#ArialMT-69" transform="translate(222.314453 0)"/>
      <use xlink:href="#ArialMT-65" transform="translate(244.53125 0)"/>
      <use xlink:href="#ArialMT-6e" transform="translate(300.146484 0)"/>
      <use xlink:href="#ArialMT-74" transform="translate(355.761719 0)"/>
     </g>
    </g>
   </g>
  </g>
  <g id="axes_3">
   <g id="patch_14">
    <path d="M 29.241719 446.975625 
L 232.15081 446.975625 
L 232.15081 262.175625 
L 29.241719 262.175625 
z
" style="fill: #eaeaf2"/>
   </g>
   <g id="matplotlib.axis_5">
    <g id="xtick_11">
     <g id="line2d_33">
      <path d="M 56.91114 446.975625 
L 56.91114 262.175625 
" clip-path="url(#pf245fa89df)" style="fill: none; stroke: #ffffff; stroke-linecap: round"/>
     </g>
     <g id="text_31">
      <!-- −4 -->
      <g style="fill: #262626" transform="translate(50.640281 464.349219) scale(0.11 -0.11)">
       <use xlink:href="#ArialMT-2212"/>
       <use xlink:href="#ArialMT-34" transform="translate(58.398438 0)"/>
      </g>
     </g>
    </g>
    <g id="xtick_12">
     <g id="line2d_34">
      <path d="M 93.803702 446.975625 
L 93.803702 262.175625 
" clip-path="url(#pf245fa89df)" style="fill: none; stroke: #ffffff; stroke-linecap: round"/>
     </g>
     <g id="text_32">
      <!-- −2 -->
      <g style="fill: #262626" transform="translate(87.532843 464.349219) scale(0.11 -0.11)">
       <use xlink:href="#ArialMT-2212"/>
       <use xlink:href="#ArialMT-32" transform="translate(58.398438 0)"/>
      </g>
     </g>
    </g>
    <g id="xtick_13">
     <g id="line2d_35">
      <path d="M 130.696264 446.975625 
L 130.696264 262.175625 
" clip-path="url(#pf245fa89df)" style="fill: none; stroke: #ffffff; stroke-linecap: round"/>
     </g>
     <g id="text_33">
      <!-- 0 -->
      <g style="fill: #262626" transform="translate(127.637749 464.349219) scale(0.11 -0.11)">
       <use xlink:href="#ArialMT-30"/>
      </g>
     </g>
    </g>
    <g id="xtick_14">
     <g id="line2d_36">
      <path d="M 167.588826 446.975625 
L 167.588826 262.175625 
" clip-path="url(#pf245fa89df)" style="fill: none; stroke: #ffffff; stroke-linecap: round"/>
     </g>
     <g id="text_34">
      <!-- 2 -->
      <g style="fill: #262626" transform="translate(164.530311 464.349219) scale(0.11 -0.11)">
       <use xlink:href="#ArialMT-32"/>
      </g>
     </g>
    </g>
    <g id="xtick_15">
     <g id="line2d_37">
      <path d="M 204.481388 446.975625 
L 204.481388 262.175625 
" clip-path="url(#pf245fa89df)" style="fill: none; stroke: #ffffff; stroke-linecap: round"/>
     </g>
     <g id="text_35">
      <!-- 4 -->
      <g style="fill: #262626" transform="translate(201.422873 464.349219) scale(0.11 -0.11)">
       <use xlink:href="#ArialMT-34"/>
      </g>
     </g>
    </g>
   </g>
   <g id="matplotlib.axis_6">
    <g id="ytick_15">
     <g id="line2d_38">
      <path d="M 29.241719 432.76024 
L 232.15081 432.76024 
" clip-path="url(#pf245fa89df)" style="fill: none; stroke: #ffffff; stroke-linecap: round"/>
     </g>
     <g id="text_36">
      <!-- −1 -->
      <g style="fill: #262626" transform="translate(7.2 436.697037) scale(0.11 -0.11)">
       <use xlink:href="#ArialMT-2212"/>
       <use xlink:href="#ArialMT-31" transform="translate(58.398438 0)"/>
      </g>
     </g>
    </g>
    <g id="ytick_16">
     <g id="line2d_39">
      <path d="M 29.241719 404.329471 
L 232.15081 404.329471 
" clip-path="url(#pf245fa89df)" style="fill: none; stroke: #ffffff; stroke-linecap: round"/>
     </g>
     <g id="text_37">
      <!-- 0 -->
      <g style="fill: #262626" transform="translate(13.624688 408.266268) scale(0.11 -0.11)">
       <use xlink:href="#ArialMT-30"/>
      </g>
     </g>
    </g>
    <g id="ytick_17">
     <g id="line2d_40">
      <path d="M 29.241719 375.898702 
L 232.15081 375.898702 
" clip-path="url(#pf245fa89df)" style="fill: none; stroke: #ffffff; stroke-linecap: round"/>
     </g>
     <g id="text_38">
      <!-- 1 -->
      <g style="fill: #262626" transform="translate(13.624688 379.835499) scale(0.11 -0.11)">
       <use xlink:href="#ArialMT-31"/>
      </g>
     </g>
    </g>
    <g id="ytick_18">
     <g id="line2d_41">
      <path d="M 29.241719 347.467933 
L 232.15081 347.467933 
" clip-path="url(#pf245fa89df)" style="fill: none; stroke: #ffffff; stroke-linecap: round"/>
     </g>
     <g id="text_39">
      <!-- 2 -->
      <g style="fill: #262626" transform="translate(13.624688 351.40473) scale(0.11 -0.11)">
       <use xlink:href="#ArialMT-32"/>
      </g>
     </g>
    </g>
    <g id="ytick_19">
     <g id="line2d_42">
      <path d="M 29.241719 319.037163 
L 232.15081 319.037163 
" clip-path="url(#pf245fa89df)" style="fill: none; stroke: #ffffff; stroke-linecap: round"/>
     </g>
     <g id="text_40">
      <!-- 3 -->
      <g style="fill: #262626" transform="translate(13.624688 322.97396) scale(0.11 -0.11)">
       <use xlink:href="#ArialMT-33"/>
      </g>
     </g>
    </g>
    <g id="ytick_20">
     <g id="line2d_43">
      <path d="M 29.241719 290.606394 
L 232.15081 290.606394 
" clip-path="url(#pf245fa89df)" style="fill: none; stroke: #ffffff; stroke-linecap: round"/>
     </g>
     <g id="text_41">
      <!-- 4 -->
      <g style="fill: #262626" transform="translate(13.624688 294.543191) scale(0.11 -0.11)">
       <use xlink:href="#ArialMT-34"/>
      </g>
     </g>
    </g>
    <g id="ytick_21">
     <g id="line2d_44">
      <path d="M 29.241719 262.175625 
L 232.15081 262.175625 
" clip-path="url(#pf245fa89df)" style="fill: none; stroke: #ffffff; stroke-linecap: round"/>
     </g>
     <g id="text_42">
      <!-- 5 -->
      <g style="fill: #262626" transform="translate(13.624688 266.112422) scale(0.11 -0.11)">
       <use xlink:href="#ArialMT-35"/>
      </g>
     </g>
    </g>
   </g>
   <g id="line2d_45">
    <path d="M 38.464859 404.329471 
L 130.603937 404.329471 
L 130.788591 404.18717 
L 222.927669 262.175625 
L 222.927669 262.175625 
" clip-path="url(#pf245fa89df)" style="fill: none; stroke: #4c72b0; stroke-width: 2; stroke-linecap: round"/>
   </g>
   <g id="line2d_46">
    <path d="M 38.464859 404.329471 
L 130.603937 404.329471 
L 130.788591 375.898702 
L 222.927669 375.898702 
L 222.927669 375.898702 
" clip-path="url(#pf245fa89df)" style="fill: none; stroke: #dd8452; stroke-width: 2; stroke-linecap: round"/>
   </g>
   <g id="patch_15">
    <path d="M 29.241719 446.975625 
L 29.241719 262.175625 
" style="fill: none; stroke: #ffffff; stroke-width: 1.25; stroke-linejoin: miter; stroke-linecap: square"/>
   </g>
   <g id="patch_16">
    <path d="M 232.15081 446.975625 
L 232.15081 262.175625 
" style="fill: none; stroke: #ffffff; stroke-width: 1.25; stroke-linejoin: miter; stroke-linecap: square"/>
   </g>
   <g id="patch_17">
    <path d="M 29.241719 446.975625 
L 232.15081 446.975625 
" style="fill: none; stroke: #ffffff; stroke-width: 1.25; stroke-linejoin: miter; stroke-linecap: square"/>
   </g>
   <g id="patch_18">
    <path d="M 29.241719 262.175625 
L 232.15081 262.175625 
" style="fill: none; stroke: #ffffff; stroke-width: 1.25; stroke-linejoin: miter; stroke-linecap: square"/>
   </g>
   <g id="text_43">
    <!-- ReLU -->
    <g style="fill: #262626" transform="translate(115.356889 256.175625) scale(0.12 -0.12)">
     <defs>
      <path id="ArialMT-52" d="M 503 0 
L 503 4581 
L 2534 4581 
Q 3147 4581 3465 4457 
Q 3784 4334 3975 4021 
Q 4166 3709 4166 3331 
Q 4166 2844 3850 2509 
Q 3534 2175 2875 2084 
Q 3116 1969 3241 1856 
Q 3506 1613 3744 1247 
L 4541 0 
L 3778 0 
L 3172 953 
Q 2906 1366 2734 1584 
Q 2563 1803 2427 1890 
Q 2291 1978 2150 2013 
Q 2047 2034 1813 2034 
L 1109 2034 
L 1109 0 
L 503 0 
z
M 1109 2559 
L 2413 2559 
Q 2828 2559 3062 2645 
Q 3297 2731 3419 2920 
Q 3541 3109 3541 3331 
Q 3541 3656 3305 3865 
Q 3069 4075 2559 4075 
L 1109 4075 
L 1109 2559 
z
" transform="scale(0.015625)"/>
      <path id="ArialMT-4c" d="M 469 0 
L 469 4581 
L 1075 4581 
L 1075 541 
L 3331 541 
L 3331 0 
L 469 0 
z
" transform="scale(0.015625)"/>
      <path id="ArialMT-55" d="M 3500 4581 
L 4106 4581 
L 4106 1934 
Q 4106 1244 3950 837 
Q 3794 431 3386 176 
Q 2978 -78 2316 -78 
Q 1672 -78 1262 144 
Q 853 366 678 786 
Q 503 1206 503 1934 
L 503 4581 
L 1109 4581 
L 1109 1938 
Q 1109 1341 1220 1058 
Q 1331 775 1601 622 
Q 1872 469 2263 469 
Q 2931 469 3215 772 
Q 3500 1075 3500 1938 
L 3500 4581 
z
" transform="scale(0.015625)"/>
     </defs>
     <use xlink:href="#ArialMT-52"/>
     <use xlink:href="#ArialMT-65" transform="translate(72.216797 0)"/>
     <use xlink:href="#ArialMT-4c" transform="translate(127.832031 0)"/>
     <use xlink:href="#ArialMT-55" transform="translate(183.447266 0)"/>
    </g>
   </g>
   <g id="legend_3">
    <g id="patch_19">
     <path d="M 36.941719 302.095313 
L 114.328437 302.095313 
Q 116.528437 302.095313 116.528437 299.895313 
L 116.528437 269.875625 
Q 116.528437 267.675625 114.328437 267.675625 
L 36.941719 267.675625 
Q 34.741719 267.675625 34.741719 269.875625 
L 34.741719 299.895313 
Q 34.741719 302.095313 36.941719 302.095313 
z
" style="fill: #eaeaf2; opacity: 0.8; stroke: #cccccc; stroke-linejoin: miter"/>
    </g>
    <g id="line2d_47">
     <path d="M 39.141719 276.099219 
L 50.141719 276.099219 
L 61.141719 276.099219 
" style="fill: none; stroke: #4c72b0; stroke-width: 2; stroke-linecap: round"/>
    </g>
    <g id="text_44">
     <!-- ActFn -->
     <g style="fill: #262626" transform="translate(69.941719 279.949219) scale(0.11 -0.11)">
      <use xlink:href="#ArialMT-41"/>
      <use xlink:href="#ArialMT-63" transform="translate(66.699219 0)"/>
      <use xlink:href="#ArialMT-74" transform="translate(116.699219 0)"/>
      <use xlink:href="#ArialMT-46" transform="translate(144.482422 0)"/>
      <use xlink:href="#ArialMT-6e" transform="translate(205.566406 0)"/>
     </g>
    </g>
    <g id="line2d_48">
     <path d="M 39.141719 291.659063 
L 50.141719 291.659063 
L 61.141719 291.659063 
" style="fill: none; stroke: #dd8452; stroke-width: 2; stroke-linecap: round"/>
    </g>
    <g id="text_45">
     <!-- Gradient -->
     <g style="fill: #262626" transform="translate(69.941719 295.509063) scale(0.11 -0.11)">
      <use xlink:href="#ArialMT-47"/>
      <use xlink:href="#ArialMT-72" transform="translate(77.783203 0)"/>
      <use xlink:href="#ArialMT-61" transform="translate(111.083984 0)"/>
      <use xlink:href="#ArialMT-64" transform="translate(166.699219 0)"/>
      <use xlink:href="#ArialMT-69" transform="translate(222.314453 0)"/>
      <use xlink:href="#ArialMT-65" transform="translate(244.53125 0)"/>
      <use xlink:href="#ArialMT-6e" transform="translate(300.146484 0)"/>
      <use xlink:href="#ArialMT-74" transform="translate(355.761719 0)"/>
     </g>
    </g>
   </g>
  </g>
  <g id="axes_4">
   <g id="patch_20">
    <path d="M 272.732628 446.975625 
L 475.641719 446.975625 
L 475.641719 262.175625 
L 272.732628 262.175625 
z
" style="fill: #eaeaf2"/>
   </g>
   <g id="matplotlib.axis_7">
    <g id="xtick_16">
     <g id="line2d_49">
      <path d="M 300.402049 446.975625 
L 300.402049 262.175625 
" clip-path="url(#p94bebf1207)" style="fill: none; stroke: #ffffff; stroke-linecap: round"/>
     </g>
     <g id="text_46">
      <!-- −4 -->
      <g style="fill: #262626" transform="translate(294.13119 464.349219) scale(0.11 -0.11)">
       <use xlink:href="#ArialMT-2212"/>
       <use xlink:href="#ArialMT-34" transform="translate(58.398438 0)"/>
      </g>
     </g>
    </g>
    <g id="xtick_17">
     <g id="line2d_50">
      <path d="M 337.294611 446.975625 
L 337.294611 262.175625 
" clip-path="url(#p94bebf1207)" style="fill: none; stroke: #ffffff; stroke-linecap: round"/>
     </g>
     <g id="text_47">
      <!-- −2 -->
      <g style="fill: #262626" transform="translate(331.023752 464.349219) scale(0.11 -0.11)">
       <use xlink:href="#ArialMT-2212"/>
       <use xlink:href="#ArialMT-32" transform="translate(58.398438 0)"/>
      </g>
     </g>
    </g>
    <g id="xtick_18">
     <g id="line2d_51">
      <path d="M 374.187173 446.975625 
L 374.187173 262.175625 
" clip-path="url(#p94bebf1207)" style="fill: none; stroke: #ffffff; stroke-linecap: round"/>
     </g>
     <g id="text_48">
      <!-- 0 -->
      <g style="fill: #262626" transform="translate(371.128658 464.349219) scale(0.11 -0.11)">
       <use xlink:href="#ArialMT-30"/>
      </g>
     </g>
    </g>
    <g id="xtick_19">
     <g id="line2d_52">
      <path d="M 411.079735 446.975625 
L 411.079735 262.175625 
" clip-path="url(#p94bebf1207)" style="fill: none; stroke: #ffffff; stroke-linecap: round"/>
     </g>
     <g id="text_49">
      <!-- 2 -->
      <g style="fill: #262626" transform="translate(408.02122 464.349219) scale(0.11 -0.11)">
       <use xlink:href="#ArialMT-32"/>
      </g>
     </g>
    </g>
    <g id="xtick_20">
     <g id="line2d_53">
      <path d="M 447.972297 446.975625 
L 447.972297 262.175625 
" clip-path="url(#p94bebf1207)" style="fill: none; stroke: #ffffff; stroke-linecap: round"/>
     </g>
     <g id="text_50">
      <!-- 4 -->
      <g style="fill: #262626" transform="translate(444.913782 464.349219) scale(0.11 -0.11)">
       <use xlink:href="#ArialMT-34"/>
      </g>
     </g>
    </g>
   </g>
   <g id="matplotlib.axis_8">
    <g id="ytick_22">
     <g id="line2d_54">
      <path d="M 272.732628 432.76024 
L 475.641719 432.76024 
" clip-path="url(#p94bebf1207)" style="fill: none; stroke: #ffffff; stroke-linecap: round"/>
     </g>
     <g id="text_51">
      <!-- −1 -->
      <g style="fill: #262626" transform="translate(250.690909 436.697037) scale(0.11 -0.11)">
       <use xlink:href="#ArialMT-2212"/>
       <use xlink:href="#ArialMT-31" transform="translate(58.398438 0)"/>
      </g>
     </g>
    </g>
    <g id="ytick_23">
     <g id="line2d_55">
      <path d="M 272.732628 404.329471 
L 475.641719 404.329471 
" clip-path="url(#p94bebf1207)" style="fill: none; stroke: #ffffff; stroke-linecap: round"/>
     </g>
     <g id="text_52">
      <!-- 0 -->
      <g style="fill: #262626" transform="translate(257.115597 408.266268) scale(0.11 -0.11)">
       <use xlink:href="#ArialMT-30"/>
      </g>
     </g>
    </g>
    <g id="ytick_24">
     <g id="line2d_56">
      <path d="M 272.732628 375.898702 
L 475.641719 375.898702 
" clip-path="url(#p94bebf1207)" style="fill: none; stroke: #ffffff; stroke-linecap: round"/>
     </g>
     <g id="text_53">
      <!-- 1 -->
      <g style="fill: #262626" transform="translate(257.115597 379.835499) scale(0.11 -0.11)">
       <use xlink:href="#ArialMT-31"/>
      </g>
     </g>
    </g>
    <g id="ytick_25">
     <g id="line2d_57">
      <path d="M 272.732628 347.467933 
L 475.641719 347.467933 
" clip-path="url(#p94bebf1207)" style="fill: none; stroke: #ffffff; stroke-linecap: round"/>
     </g>
     <g id="text_54">
      <!-- 2 -->
      <g style="fill: #262626" transform="translate(257.115597 351.40473) scale(0.11 -0.11)">
       <use xlink:href="#ArialMT-32"/>
      </g>
     </g>
    </g>
    <g id="ytick_26">
     <g id="line2d_58">
      <path d="M 272.732628 319.037163 
L 475.641719 319.037163 
" clip-path="url(#p94bebf1207)" style="fill: none; stroke: #ffffff; stroke-linecap: round"/>
     </g>
     <g id="text_55">
      <!-- 3 -->
      <g style="fill: #262626" transform="translate(257.115597 322.97396) scale(0.11 -0.11)">
       <use xlink:href="#ArialMT-33"/>
      </g>
     </g>
    </g>
    <g id="ytick_27">
     <g id="line2d_59">
      <path d="M 272.732628 290.606394 
L 475.641719 290.606394 
" clip-path="url(#p94bebf1207)" style="fill: none; stroke: #ffffff; stroke-linecap: round"/>
     </g>
     <g id="text_56">
      <!-- 4 -->
      <g style="fill: #262626" transform="translate(257.115597 294.543191) scale(0.11 -0.11)">
       <use xlink:href="#ArialMT-34"/>
      </g>
     </g>
    </g>
    <g id="ytick_28">
     <g id="line2d_60">
      <path d="M 272.732628 262.175625 
L 475.641719 262.175625 
" clip-path="url(#p94bebf1207)" style="fill: none; stroke: #ffffff; stroke-linecap: round"/>
     </g>
     <g id="text_57">
      <!-- 5 -->
      <g style="fill: #262626" transform="translate(257.115597 266.112422) scale(0.11 -0.11)">
       <use xlink:href="#ArialMT-35"/>
      </g>
     </g>
    </g>
   </g>
   <g id="line2d_61">
    <path d="M 281.955768 418.544856 
L 374.094846 404.343701 
L 374.464148 403.902577 
L 466.418578 262.175625 
L 466.418578 262.175625 
" clip-path="url(#p94bebf1207)" style="fill: none; stroke: #4c72b0; stroke-width: 2; stroke-linecap: round"/>
   </g>
   <g id="line2d_62">
    <path d="M 281.955768 401.486394 
L 374.094846 401.486394 
L 374.279501 375.898702 
L 466.418578 375.898702 
L 466.418578 375.898702 
" clip-path="url(#p94bebf1207)" style="fill: none; stroke: #dd8452; stroke-width: 2; stroke-linecap: round"/>
   </g>
   <g id="patch_21">
    <path d="M 272.732628 446.975625 
L 272.732628 262.175625 
" style="fill: none; stroke: #ffffff; stroke-width: 1.25; stroke-linejoin: miter; stroke-linecap: square"/>
   </g>
   <g id="patch_22">
    <path d="M 475.641719 446.975625 
L 475.641719 262.175625 
" style="fill: none; stroke: #ffffff; stroke-width: 1.25; stroke-linejoin: miter; stroke-linecap: square"/>
   </g>
   <g id="patch_23">
    <path d="M 272.732628 446.975625 
L 475.641719 446.975625 
" style="fill: none; stroke: #ffffff; stroke-width: 1.25; stroke-linejoin: miter; stroke-linecap: square"/>
   </g>
   <g id="patch_24">
    <path d="M 272.732628 262.175625 
L 475.641719 262.175625 
" style="fill: none; stroke: #ffffff; stroke-width: 1.25; stroke-linejoin: miter; stroke-linecap: square"/>
   </g>
   <g id="text_58">
    <!-- LeakyReLU -->
    <g style="fill: #262626" transform="translate(342.838111 256.175625) scale(0.12 -0.12)">
     <defs>
      <path id="ArialMT-6b" d="M 425 0 
L 425 4581 
L 988 4581 
L 988 1969 
L 2319 3319 
L 3047 3319 
L 1778 2088 
L 3175 0 
L 2481 0 
L 1384 1697 
L 988 1316 
L 988 0 
L 425 0 
z
" transform="scale(0.015625)"/>
      <path id="ArialMT-79" d="M 397 -1278 
L 334 -750 
Q 519 -800 656 -800 
Q 844 -800 956 -737 
Q 1069 -675 1141 -563 
Q 1194 -478 1313 -144 
Q 1328 -97 1363 -6 
L 103 3319 
L 709 3319 
L 1400 1397 
Q 1534 1031 1641 628 
Q 1738 1016 1872 1384 
L 2581 3319 
L 3144 3319 
L 1881 -56 
Q 1678 -603 1566 -809 
Q 1416 -1088 1222 -1217 
Q 1028 -1347 759 -1347 
Q 597 -1347 397 -1278 
z
" transform="scale(0.015625)"/>
     </defs>
     <use xlink:href="#ArialMT-4c"/>
     <use xlink:href="#ArialMT-65" transform="translate(55.615234 0)"/>
     <use xlink:href="#ArialMT-61" transform="translate(111.230469 0)"/>
     <use xlink:href="#ArialMT-6b" transform="translate(166.845703 0)"/>
     <use xlink:href="#ArialMT-79" transform="translate(216.845703 0)"/>
     <use xlink:href="#ArialMT-52" transform="translate(266.845703 0)"/>
     <use xlink:href="#ArialMT-65" transform="translate(339.0625 0)"/>
     <use xlink:href="#ArialMT-4c" transform="translate(394.677734 0)"/>
     <use xlink:href="#ArialMT-55" transform="translate(450.292969 0)"/>
    </g>
   </g>
   <g id="legend_4">
    <g id="patch_25">
     <path d="M 280.432628 302.095313 
L 357.819347 302.095313 
Q 360.019347 302.095313 360.019347 299.895313 
L 360.019347 269.875625 
Q 360.019347 267.675625 357.819347 267.675625 
L 280.432628 267.675625 
Q 278.232628 267.675625 278.232628 269.875625 
L 278.232628 299.895313 
Q 278.232628 302.095313 280.432628 302.095313 
z
" style="fill: #eaeaf2; opacity: 0.8; stroke: #cccccc; stroke-linejoin: miter"/>
    </g>
    <g id="line2d_63">
     <path d="M 282.632628 276.099219 
L 293.632628 276.099219 
L 304.632628 276.099219 
" style="fill: none; stroke: #4c72b0; stroke-width: 2; stroke-linecap: round"/>
    </g>
    <g id="text_59">
     <!-- ActFn -->
     <g style="fill: #262626" transform="translate(313.432628 279.949219) scale(0.11 -0.11)">
      <use xlink:href="#ArialMT-41"/>
      <use xlink:href="#ArialMT-63" transform="translate(66.699219 0)"/>
      <use xlink:href="#ArialMT-74" transform="translate(116.699219 0)"/>
      <use xlink:href="#ArialMT-46" transform="translate(144.482422 0)"/>
      <use xlink:href="#ArialMT-6e" transform="translate(205.566406 0)"/>
     </g>
    </g>
    <g id="line2d_64">
     <path d="M 282.632628 291.659063 
L 293.632628 291.659063 
L 304.632628 291.659063 
" style="fill: none; stroke: #dd8452; stroke-width: 2; stroke-linecap: round"/>
    </g>
    <g id="text_60">
     <!-- Gradient -->
     <g style="fill: #262626" transform="translate(313.432628 295.509063) scale(0.11 -0.11)">
      <use xlink:href="#ArialMT-47"/>
      <use xlink:href="#ArialMT-72" transform="translate(77.783203 0)"/>
      <use xlink:href="#ArialMT-61" transform="translate(111.083984 0)"/>
      <use xlink:href="#ArialMT-64" transform="translate(166.699219 0)"/>
      <use xlink:href="#ArialMT-69" transform="translate(222.314453 0)"/>
      <use xlink:href="#ArialMT-65" transform="translate(244.53125 0)"/>
      <use xlink:href="#ArialMT-6e" transform="translate(300.146484 0)"/>
      <use xlink:href="#ArialMT-74" transform="translate(355.761719 0)"/>
     </g>
    </g>
   </g>
  </g>
  <g id="axes_5">
   <g id="patch_26">
    <path d="M 29.241719 687.215625 
L 232.15081 687.215625 
L 232.15081 502.415625 
L 29.241719 502.415625 
z
" style="fill: #eaeaf2"/>
   </g>
   <g id="matplotlib.axis_9">
    <g id="xtick_21">
     <g id="line2d_65">
      <path d="M 56.91114 687.215625 
L 56.91114 502.415625 
" clip-path="url(#pb88fd1b5e9)" style="fill: none; stroke: #ffffff; stroke-linecap: round"/>
     </g>
     <g id="text_61">
      <!-- −4 -->
      <g style="fill: #262626" transform="translate(50.640281 704.589219) scale(0.11 -0.11)">
       <use xlink:href="#ArialMT-2212"/>
       <use xlink:href="#ArialMT-34" transform="translate(58.398438 0)"/>
      </g>
     </g>
    </g>
    <g id="xtick_22">
     <g id="line2d_66">
      <path d="M 93.803702 687.215625 
L 93.803702 502.415625 
" clip-path="url(#pb88fd1b5e9)" style="fill: none; stroke: #ffffff; stroke-linecap: round"/>
     </g>
     <g id="text_62">
      <!-- −2 -->
      <g style="fill: #262626" transform="translate(87.532843 704.589219) scale(0.11 -0.11)">
       <use xlink:href="#ArialMT-2212"/>
       <use xlink:href="#ArialMT-32" transform="translate(58.398438 0)"/>
      </g>
     </g>
    </g>
    <g id="xtick_23">
     <g id="line2d_67">
      <path d="M 130.696264 687.215625 
L 130.696264 502.415625 
" clip-path="url(#pb88fd1b5e9)" style="fill: none; stroke: #ffffff; stroke-linecap: round"/>
     </g>
     <g id="text_63">
      <!-- 0 -->
      <g style="fill: #262626" transform="translate(127.637749 704.589219) scale(0.11 -0.11)">
       <use xlink:href="#ArialMT-30"/>
      </g>
     </g>
    </g>
    <g id="xtick_24">
     <g id="line2d_68">
      <path d="M 167.588826 687.215625 
L 167.588826 502.415625 
" clip-path="url(#pb88fd1b5e9)" style="fill: none; stroke: #ffffff; stroke-linecap: round"/>
     </g>
     <g id="text_64">
      <!-- 2 -->
      <g style="fill: #262626" transform="translate(164.530311 704.589219) scale(0.11 -0.11)">
       <use xlink:href="#ArialMT-32"/>
      </g>
     </g>
    </g>
    <g id="xtick_25">
     <g id="line2d_69">
      <path d="M 204.481388 687.215625 
L 204.481388 502.415625 
" clip-path="url(#pb88fd1b5e9)" style="fill: none; stroke: #ffffff; stroke-linecap: round"/>
     </g>
     <g id="text_65">
      <!-- 4 -->
      <g style="fill: #262626" transform="translate(201.422873 704.589219) scale(0.11 -0.11)">
       <use xlink:href="#ArialMT-34"/>
      </g>
     </g>
    </g>
   </g>
   <g id="matplotlib.axis_10">
    <g id="ytick_29">
     <g id="line2d_70">
      <path d="M 29.241719 673.00024 
L 232.15081 673.00024 
" clip-path="url(#pb88fd1b5e9)" style="fill: none; stroke: #ffffff; stroke-linecap: round"/>
     </g>
     <g id="text_66">
      <!-- −1 -->
      <g style="fill: #262626" transform="translate(7.2 676.937037) scale(0.11 -0.11)">
       <use xlink:href="#ArialMT-2212"/>
       <use xlink:href="#ArialMT-31" transform="translate(58.398438 0)"/>
      </g>
     </g>
    </g>
    <g id="ytick_30">
     <g id="line2d_71">
      <path d="M 29.241719 644.569471 
L 232.15081 644.569471 
" clip-path="url(#pb88fd1b5e9)" style="fill: none; stroke: #ffffff; stroke-linecap: round"/>
     </g>
     <g id="text_67">
      <!-- 0 -->
      <g style="fill: #262626" transform="translate(13.624688 648.506268) scale(0.11 -0.11)">
       <use xlink:href="#ArialMT-30"/>
      </g>
     </g>
    </g>
    <g id="ytick_31">
     <g id="line2d_72">
      <path d="M 29.241719 616.138702 
L 232.15081 616.138702 
" clip-path="url(#pb88fd1b5e9)" style="fill: none; stroke: #ffffff; stroke-linecap: round"/>
     </g>
     <g id="text_68">
      <!-- 1 -->
      <g style="fill: #262626" transform="translate(13.624688 620.075499) scale(0.11 -0.11)">
       <use xlink:href="#ArialMT-31"/>
      </g>
     </g>
    </g>
    <g id="ytick_32">
     <g id="line2d_73">
      <path d="M 29.241719 587.707933 
L 232.15081 587.707933 
" clip-path="url(#pb88fd1b5e9)" style="fill: none; stroke: #ffffff; stroke-linecap: round"/>
     </g>
     <g id="text_69">
      <!-- 2 -->
      <g style="fill: #262626" transform="translate(13.624688 591.64473) scale(0.11 -0.11)">
       <use xlink:href="#ArialMT-32"/>
      </g>
     </g>
    </g>
    <g id="ytick_33">
     <g id="line2d_74">
      <path d="M 29.241719 559.277163 
L 232.15081 559.277163 
" clip-path="url(#pb88fd1b5e9)" style="fill: none; stroke: #ffffff; stroke-linecap: round"/>
     </g>
     <g id="text_70">
      <!-- 3 -->
      <g style="fill: #262626" transform="translate(13.624688 563.21396) scale(0.11 -0.11)">
       <use xlink:href="#ArialMT-33"/>
      </g>
     </g>
    </g>
    <g id="ytick_34">
     <g id="line2d_75">
      <path d="M 29.241719 530.846394 
L 232.15081 530.846394 
" clip-path="url(#pb88fd1b5e9)" style="fill: none; stroke: #ffffff; stroke-linecap: round"/>
     </g>
     <g id="text_71">
      <!-- 4 -->
      <g style="fill: #262626" transform="translate(13.624688 534.783191) scale(0.11 -0.11)">
       <use xlink:href="#ArialMT-34"/>
      </g>
     </g>
    </g>
    <g id="ytick_35">
     <g id="line2d_76">
      <path d="M 29.241719 502.415625 
L 232.15081 502.415625 
" clip-path="url(#pb88fd1b5e9)" style="fill: none; stroke: #ffffff; stroke-linecap: round"/>
     </g>
     <g id="text_72">
      <!-- 5 -->
      <g style="fill: #262626" transform="translate(13.624688 506.352422) scale(0.11 -0.11)">
       <use xlink:href="#ArialMT-35"/>
      </g>
     </g>
    </g>
   </g>
   <g id="line2d_77">
    <path d="M 38.464859 672.808675 
L 55.267781 672.523897 
L 66.531274 672.123028 
L 75.025056 671.610031 
L 81.857012 670.986842 
L 87.58108 670.25427 
L 92.566563 669.402145 
L 96.998101 668.425065 
L 101.060345 667.297966 
L 104.568647 666.103455 
L 107.892301 664.741801 
L 111.031306 663.209807 
L 113.985666 661.509219 
L 116.755378 659.647575 
L 119.340442 657.638867 
L 121.74086 655.503994 
L 124.141276 653.072426 
L 126.541693 650.302926 
L 128.757463 647.406016 
L 130.973239 644.142577 
L 222.927669 502.415625 
L 222.927669 502.415625 
" clip-path="url(#pb88fd1b5e9)" style="fill: none; stroke: #4c72b0; stroke-width: 2; stroke-linecap: round"/>
   </g>
   <g id="line2d_78">
    <path d="M 38.464859 644.377906 
L 55.267781 644.093128 
L 66.531274 643.692259 
L 75.025056 643.179262 
L 81.857012 642.556072 
L 87.58108 641.823501 
L 92.566563 640.971375 
L 96.998101 639.994296 
L 101.060345 638.867196 
L 104.568647 637.672686 
L 107.892301 636.311031 
L 111.031306 634.779038 
L 113.985666 633.07845 
L 116.755378 631.216805 
L 119.340442 629.208097 
L 121.74086 627.073224 
L 124.141276 624.641656 
L 126.541693 621.872157 
L 128.757463 618.975247 
L 130.788591 616.138702 
L 222.927669 616.138702 
L 222.927669 616.138702 
" clip-path="url(#pb88fd1b5e9)" style="fill: none; stroke: #dd8452; stroke-width: 2; stroke-linecap: round"/>
   </g>
   <g id="patch_27">
    <path d="M 29.241719 687.215625 
L 29.241719 502.415625 
" style="fill: none; stroke: #ffffff; stroke-width: 1.25; stroke-linejoin: miter; stroke-linecap: square"/>
   </g>
   <g id="patch_28">
    <path d="M 232.15081 687.215625 
L 232.15081 502.415625 
" style="fill: none; stroke: #ffffff; stroke-width: 1.25; stroke-linejoin: miter; stroke-linecap: square"/>
   </g>
   <g id="patch_29">
    <path d="M 29.241719 687.215625 
L 232.15081 687.215625 
" style="fill: none; stroke: #ffffff; stroke-width: 1.25; stroke-linejoin: miter; stroke-linecap: square"/>
   </g>
   <g id="patch_30">
    <path d="M 29.241719 502.415625 
L 232.15081 502.415625 
" style="fill: none; stroke: #ffffff; stroke-width: 1.25; stroke-linejoin: miter; stroke-linecap: square"/>
   </g>
   <g id="text_73">
    <!-- ELU -->
    <g style="fill: #262626" transform="translate(119.024389 496.415625) scale(0.12 -0.12)">
     <defs>
      <path id="ArialMT-45" d="M 506 0 
L 506 4581 
L 3819 4581 
L 3819 4041 
L 1113 4041 
L 1113 2638 
L 3647 2638 
L 3647 2100 
L 1113 2100 
L 1113 541 
L 3925 541 
L 3925 0 
L 506 0 
z
" transform="scale(0.015625)"/>
     </defs>
     <use xlink:href="#ArialMT-45"/>
     <use xlink:href="#ArialMT-4c" transform="translate(66.699219 0)"/>
     <use xlink:href="#ArialMT-55" transform="translate(122.314453 0)"/>
    </g>
   </g>
   <g id="legend_5">
    <g id="patch_31">
     <path d="M 36.941719 542.335312 
L 114.328437 542.335312 
Q 116.528437 542.335312 116.528437 540.135313 
L 116.528437 510.115625 
Q 116.528437 507.915625 114.328437 507.915625 
L 36.941719 507.915625 
Q 34.741719 507.915625 34.741719 510.115625 
L 34.741719 540.135313 
Q 34.741719 542.335312 36.941719 542.335312 
z
" style="fill: #eaeaf2; opacity: 0.8; stroke: #cccccc; stroke-linejoin: miter"/>
    </g>
    <g id="line2d_79">
     <path d="M 39.141719 516.339219 
L 50.141719 516.339219 
L 61.141719 516.339219 
" style="fill: none; stroke: #4c72b0; stroke-width: 2; stroke-linecap: round"/>
    </g>
    <g id="text_74">
     <!-- ActFn -->
     <g style="fill: #262626" transform="translate(69.941719 520.189219) scale(0.11 -0.11)">
      <use xlink:href="#ArialMT-41"/>
      <use xlink:href="#ArialMT-63" transform="translate(66.699219 0)"/>
      <use xlink:href="#ArialMT-74" transform="translate(116.699219 0)"/>
      <use xlink:href="#ArialMT-46" transform="translate(144.482422 0)"/>
      <use xlink:href="#ArialMT-6e" transform="translate(205.566406 0)"/>
     </g>
    </g>
    <g id="line2d_80">
     <path d="M 39.141719 531.899063 
L 50.141719 531.899063 
L 61.141719 531.899063 
" style="fill: none; stroke: #dd8452; stroke-width: 2; stroke-linecap: round"/>
    </g>
    <g id="text_75">
     <!-- Gradient -->
     <g style="fill: #262626" transform="translate(69.941719 535.749063) scale(0.11 -0.11)">
      <use xlink:href="#ArialMT-47"/>
      <use xlink:href="#ArialMT-72" transform="translate(77.783203 0)"/>
      <use xlink:href="#ArialMT-61" transform="translate(111.083984 0)"/>
      <use xlink:href="#ArialMT-64" transform="translate(166.699219 0)"/>
      <use xlink:href="#ArialMT-69" transform="translate(222.314453 0)"/>
      <use xlink:href="#ArialMT-65" transform="translate(244.53125 0)"/>
      <use xlink:href="#ArialMT-6e" transform="translate(300.146484 0)"/>
      <use xlink:href="#ArialMT-74" transform="translate(355.761719 0)"/>
     </g>
    </g>
   </g>
  </g>
  <g id="axes_6">
   <g id="patch_32">
    <path d="M 272.732628 687.215625 
L 475.641719 687.215625 
L 475.641719 502.415625 
L 272.732628 502.415625 
z
" style="fill: #eaeaf2"/>
   </g>
   <g id="matplotlib.axis_11">
    <g id="xtick_26">
     <g id="line2d_81">
      <path d="M 300.402049 687.215625 
L 300.402049 502.415625 
" clip-path="url(#pc65028a2f1)" style="fill: none; stroke: #ffffff; stroke-linecap: round"/>
     </g>
     <g id="text_76">
      <!-- −4 -->
      <g style="fill: #262626" transform="translate(294.13119 704.589219) scale(0.11 -0.11)">
       <use xlink:href="#ArialMT-2212"/>
       <use xlink:href="#ArialMT-34" transform="translate(58.398438 0)"/>
      </g>
     </g>
    </g>
    <g id="xtick_27">
     <g id="line2d_82">
      <path d="M 337.294611 687.215625 
L 337.294611 502.415625 
" clip-path="url(#pc65028a2f1)" style="fill: none; stroke: #ffffff; stroke-linecap: round"/>
     </g>
     <g id="text_77">
      <!-- −2 -->
      <g style="fill: #262626" transform="translate(331.023752 704.589219) scale(0.11 -0.11)">
       <use xlink:href="#ArialMT-2212"/>
       <use xlink:href="#ArialMT-32" transform="translate(58.398438 0)"/>
      </g>
     </g>
    </g>
    <g id="xtick_28">
     <g id="line2d_83">
      <path d="M 374.187173 687.215625 
L 374.187173 502.415625 
" clip-path="url(#pc65028a2f1)" style="fill: none; stroke: #ffffff; stroke-linecap: round"/>
     </g>
     <g id="text_78">
      <!-- 0 -->
      <g style="fill: #262626" transform="translate(371.128658 704.589219) scale(0.11 -0.11)">
       <use xlink:href="#ArialMT-30"/>
      </g>
     </g>
    </g>
    <g id="xtick_29">
     <g id="line2d_84">
      <path d="M 411.079735 687.215625 
L 411.079735 502.415625 
" clip-path="url(#pc65028a2f1)" style="fill: none; stroke: #ffffff; stroke-linecap: round"/>
     </g>
     <g id="text_79">
      <!-- 2 -->
      <g style="fill: #262626" transform="translate(408.02122 704.589219) scale(0.11 -0.11)">
       <use xlink:href="#ArialMT-32"/>
      </g>
     </g>
    </g>
    <g id="xtick_30">
     <g id="line2d_85">
      <path d="M 447.972297 687.215625 
L 447.972297 502.415625 
" clip-path="url(#pc65028a2f1)" style="fill: none; stroke: #ffffff; stroke-linecap: round"/>
     </g>
     <g id="text_80">
      <!-- 4 -->
      <g style="fill: #262626" transform="translate(444.913782 704.589219) scale(0.11 -0.11)">
       <use xlink:href="#ArialMT-34"/>
      </g>
     </g>
    </g>
   </g>
   <g id="matplotlib.axis_12">
    <g id="ytick_36">
     <g id="line2d_86">
      <path d="M 272.732628 673.00024 
L 475.641719 673.00024 
" clip-path="url(#pc65028a2f1)" style="fill: none; stroke: #ffffff; stroke-linecap: round"/>
     </g>
     <g id="text_81">
      <!-- −1 -->
      <g style="fill: #262626" transform="translate(250.690909 676.937037) scale(0.11 -0.11)">
       <use xlink:href="#ArialMT-2212"/>
       <use xlink:href="#ArialMT-31" transform="translate(58.398438 0)"/>
      </g>
     </g>
    </g>
    <g id="ytick_37">
     <g id="line2d_87">
      <path d="M 272.732628 644.569471 
L 475.641719 644.569471 
" clip-path="url(#pc65028a2f1)" style="fill: none; stroke: #ffffff; stroke-linecap: round"/>
     </g>
     <g id="text_82">
      <!-- 0 -->
      <g style="fill: #262626" transform="translate(257.115597 648.506268) scale(0.11 -0.11)">
       <use xlink:href="#ArialMT-30"/>
      </g>
     </g>
    </g>
    <g id="ytick_38">
     <g id="line2d_88">
      <path d="M 272.732628 616.138702 
L 475.641719 616.138702 
" clip-path="url(#pc65028a2f1)" style="fill: none; stroke: #ffffff; stroke-linecap: round"/>
     </g>
     <g id="text_83">
      <!-- 1 -->
      <g style="fill: #262626" transform="translate(257.115597 620.075499) scale(0.11 -0.11)">
       <use xlink:href="#ArialMT-31"/>
      </g>
     </g>
    </g>
    <g id="ytick_39">
     <g id="line2d_89">
      <path d="M 272.732628 587.707933 
L 475.641719 587.707933 
" clip-path="url(#pc65028a2f1)" style="fill: none; stroke: #ffffff; stroke-linecap: round"/>
     </g>
     <g id="text_84">
      <!-- 2 -->
      <g style="fill: #262626" transform="translate(257.115597 591.64473) scale(0.11 -0.11)">
       <use xlink:href="#ArialMT-32"/>
      </g>
     </g>
    </g>
    <g id="ytick_40">
     <g id="line2d_90">
      <path d="M 272.732628 559.277163 
L 475.641719 559.277163 
" clip-path="url(#pc65028a2f1)" style="fill: none; stroke: #ffffff; stroke-linecap: round"/>
     </g>
     <g id="text_85">
      <!-- 3 -->
      <g style="fill: #262626" transform="translate(257.115597 563.21396) scale(0.11 -0.11)">
       <use xlink:href="#ArialMT-33"/>
      </g>
     </g>
    </g>
    <g id="ytick_41">
     <g id="line2d_91">
      <path d="M 272.732628 530.846394 
L 475.641719 530.846394 
" clip-path="url(#pc65028a2f1)" style="fill: none; stroke: #ffffff; stroke-linecap: round"/>
     </g>
     <g id="text_86">
      <!-- 4 -->
      <g style="fill: #262626" transform="translate(257.115597 534.783191) scale(0.11 -0.11)">
       <use xlink:href="#ArialMT-34"/>
      </g>
     </g>
    </g>
    <g id="ytick_42">
     <g id="line2d_92">
      <path d="M 272.732628 502.415625 
L 475.641719 502.415625 
" clip-path="url(#pc65028a2f1)" style="fill: none; stroke: #ffffff; stroke-linecap: round"/>
     </g>
     <g id="text_87">
      <!-- 5 -->
      <g style="fill: #262626" transform="translate(257.115597 506.352422) scale(0.11 -0.11)">
       <use xlink:href="#ArialMT-35"/>
      </g>
     </g>
    </g>
   </g>
   <g id="line2d_93">
    <path d="M 281.955768 645.520886 
L 292.849966 646.075858 
L 302.26699 646.771118 
L 310.945419 647.631944 
L 319.623849 648.720646 
L 330.3334 650.308874 
L 340.673658 651.791471 
L 345.843786 652.303419 
L 349.90603 652.482071 
L 353.414331 652.409599 
L 356.553338 652.116649 
L 359.32305 651.643637 
L 362.092762 650.939333 
L 364.677826 650.04956 
L 367.262891 648.915654 
L 369.847955 647.521928 
L 372.433019 645.85706 
L 375.01809 643.914716 
L 377.603155 641.693936 
L 380.372867 639.010695 
L 383.327226 635.815606 
L 386.466232 632.068646 
L 389.789886 627.743168 
L 393.482834 622.561504 
L 397.729728 616.200897 
L 402.715208 608.32037 
L 409.362517 597.366173 
L 422.287836 575.522666 
L 436.136396 552.299061 
L 448.138478 532.622267 
L 461.248453 511.570252 
L 466.418578 503.367031 
L 466.418578 503.367031 
" clip-path="url(#pc65028a2f1)" style="fill: none; stroke: #4c72b0; stroke-width: 2; stroke-linecap: round"/>
   </g>
   <g id="line2d_94">
    <path d="M 281.955768 645.324235 
L 296.173618 645.862579 
L 311.868656 646.69496 
L 324.793975 647.32181 
L 331.071989 647.4028 
L 335.872825 647.246969 
L 339.935068 646.896793 
L 343.628018 646.351549 
L 346.95167 645.636972 
L 350.090677 644.738664 
L 353.229684 643.602277 
L 356.368691 642.21545 
L 359.507697 640.577065 
L 362.831352 638.582431 
L 366.524301 636.093829 
L 371.140487 632.691345 
L 382.773283 623.9687 
L 386.466232 621.54641 
L 389.789886 619.623581 
L 392.928892 618.058524 
L 396.067899 616.746032 
L 399.206906 615.681379 
L 402.345914 614.849469 
L 405.669568 614.197382 
L 409.362517 613.710874 
L 413.424759 613.412061 
L 418.040947 613.30083 
L 423.765019 613.392146 
L 432.258801 613.776316 
L 459.955917 615.167483 
L 466.418578 615.383941 
L 466.418578 615.383941 
" clip-path="url(#pc65028a2f1)" style="fill: none; stroke: #dd8452; stroke-width: 2; stroke-linecap: round"/>
   </g>
   <g id="patch_33">
    <path d="M 272.732628 687.215625 
L 272.732628 502.415625 
" style="fill: none; stroke: #ffffff; stroke-width: 1.25; stroke-linejoin: miter; stroke-linecap: square"/>
   </g>
   <g id="patch_34">
    <path d="M 475.641719 687.215625 
L 475.641719 502.415625 
" style="fill: none; stroke: #ffffff; stroke-width: 1.25; stroke-linejoin: miter; stroke-linecap: square"/>
   </g>
   <g id="patch_35">
    <path d="M 272.732628 687.215625 
L 475.641719 687.215625 
" style="fill: none; stroke: #ffffff; stroke-width: 1.25; stroke-linejoin: miter; stroke-linecap: square"/>
   </g>
   <g id="patch_36">
    <path d="M 272.732628 502.415625 
L 475.641719 502.415625 
" style="fill: none; stroke: #ffffff; stroke-width: 1.25; stroke-linejoin: miter; stroke-linecap: square"/>
   </g>
   <g id="text_88">
    <!-- Swish -->
    <g style="fill: #262626" transform="translate(358.182173 496.415625) scale(0.12 -0.12)">
     <defs>
      <path id="ArialMT-77" d="M 1034 0 
L 19 3319 
L 600 3319 
L 1128 1403 
L 1325 691 
Q 1338 744 1497 1375 
L 2025 3319 
L 2603 3319 
L 3100 1394 
L 3266 759 
L 3456 1400 
L 4025 3319 
L 4572 3319 
L 3534 0 
L 2950 0 
L 2422 1988 
L 2294 2553 
L 1622 0 
L 1034 0 
z
" transform="scale(0.015625)"/>
      <path id="ArialMT-73" d="M 197 991 
L 753 1078 
Q 800 744 1014 566 
Q 1228 388 1613 388 
Q 2000 388 2187 545 
Q 2375 703 2375 916 
Q 2375 1106 2209 1216 
Q 2094 1291 1634 1406 
Q 1016 1563 777 1677 
Q 538 1791 414 1992 
Q 291 2194 291 2438 
Q 291 2659 392 2848 
Q 494 3038 669 3163 
Q 800 3259 1026 3326 
Q 1253 3394 1513 3394 
Q 1903 3394 2198 3281 
Q 2494 3169 2634 2976 
Q 2775 2784 2828 2463 
L 2278 2388 
Q 2241 2644 2061 2787 
Q 1881 2931 1553 2931 
Q 1166 2931 1000 2803 
Q 834 2675 834 2503 
Q 834 2394 903 2306 
Q 972 2216 1119 2156 
Q 1203 2125 1616 2013 
Q 2213 1853 2448 1751 
Q 2684 1650 2818 1456 
Q 2953 1263 2953 975 
Q 2953 694 2789 445 
Q 2625 197 2315 61 
Q 2006 -75 1616 -75 
Q 969 -75 630 194 
Q 291 463 197 991 
z
" transform="scale(0.015625)"/>
     </defs>
     <use xlink:href="#ArialMT-53"/>
     <use xlink:href="#ArialMT-77" transform="translate(66.699219 0)"/>
     <use xlink:href="#ArialMT-69" transform="translate(138.916016 0)"/>
     <use xlink:href="#ArialMT-73" transform="translate(161.132812 0)"/>
     <use xlink:href="#ArialMT-68" transform="translate(211.132812 0)"/>
    </g>
   </g>
   <g id="legend_6">
    <g id="patch_37">
     <path d="M 280.432628 542.335312 
L 357.819347 542.335312 
Q 360.019347 542.335312 360.019347 540.135313 
L 360.019347 510.115625 
Q 360.019347 507.915625 357.819347 507.915625 
L 280.432628 507.915625 
Q 278.232628 507.915625 278.232628 510.115625 
L 278.232628 540.135313 
Q 278.232628 542.335312 280.432628 542.335312 
z
" style="fill: #eaeaf2; opacity: 0.8; stroke: #cccccc; stroke-linejoin: miter"/>
    </g>
    <g id="line2d_95">
     <path d="M 282.632628 516.339219 
L 293.632628 516.339219 
L 304.632628 516.339219 
" style="fill: none; stroke: #4c72b0; stroke-width: 2; stroke-linecap: round"/>
    </g>
    <g id="text_89">
     <!-- ActFn -->
     <g style="fill: #262626" transform="translate(313.432628 520.189219) scale(0.11 -0.11)">
      <use xlink:href="#ArialMT-41"/>
      <use xlink:href="#ArialMT-63" transform="translate(66.699219 0)"/>
      <use xlink:href="#ArialMT-74" transform="translate(116.699219 0)"/>
      <use xlink:href="#ArialMT-46" transform="translate(144.482422 0)"/>
      <use xlink:href="#ArialMT-6e" transform="translate(205.566406 0)"/>
     </g>
    </g>
    <g id="line2d_96">
     <path d="M 282.632628 531.899063 
L 293.632628 531.899063 
L 304.632628 531.899063 
" style="fill: none; stroke: #dd8452; stroke-width: 2; stroke-linecap: round"/>
    </g>
    <g id="text_90">
     <!-- Gradient -->
     <g style="fill: #262626" transform="translate(313.432628 535.749063) scale(0.11 -0.11)">
      <use xlink:href="#ArialMT-47"/>
      <use xlink:href="#ArialMT-72" transform="translate(77.783203 0)"/>
      <use xlink:href="#ArialMT-61" transform="translate(111.083984 0)"/>
      <use xlink:href="#ArialMT-64" transform="translate(166.699219 0)"/>
      <use xlink:href="#ArialMT-69" transform="translate(222.314453 0)"/>
      <use xlink:href="#ArialMT-65" transform="translate(244.53125 0)"/>
      <use xlink:href="#ArialMT-6e" transform="translate(300.146484 0)"/>
      <use xlink:href="#ArialMT-74" transform="translate(355.761719 0)"/>
     </g>
    </g>
   </g>
  </g>
 </g>
 <defs>
  <clipPath id="pc34911914d">
   <rect x="29.241719" y="21.935625" width="202.909091" height="184.8"/>
  </clipPath>
  <clipPath id="p51f76c704c">
   <rect x="272.732628" y="21.935625" width="202.909091" height="184.8"/>
  </clipPath>
  <clipPath id="pf245fa89df">
   <rect x="29.241719" y="262.175625" width="202.909091" height="184.8"/>
  </clipPath>
  <clipPath id="p94bebf1207">
   <rect x="272.732628" y="262.175625" width="202.909091" height="184.8"/>
  </clipPath>
  <clipPath id="pb88fd1b5e9">
   <rect x="29.241719" y="502.415625" width="202.909091" height="184.8"/>
  </clipPath>
  <clipPath id="pc65028a2f1">
   <rect x="272.732628" y="502.415625" width="202.909091" height="184.8"/>
  </clipPath>
 </defs>
</svg>
