<?xml version="1.0" encoding="utf-8" standalone="no"?>
<!DOCTYPE svg PUBLIC "-//W3C//DTD SVG 1.1//EN"
  "http://www.w3.org/Graphics/SVG/1.1/DTD/svg11.dtd">
<!-- Created with matplotlib (https://matplotlib.org/) -->
<svg height="280.15625pt" version="1.1" viewBox="0 0 856.38125 280.15625" width="856.38125pt" xmlns="http://www.w3.org/2000/svg" xmlns:xlink="http://www.w3.org/1999/xlink">
 <metadata>
  <rdf:RDF xmlns:cc="http://creativecommons.org/ns#" xmlns:dc="http://purl.org/dc/elements/1.1/" xmlns:rdf="http://www.w3.org/1999/02/22-rdf-syntax-ns#">
   <cc:Work>
    <dc:type rdf:resource="http://purl.org/dc/dcmitype/StillImage"/>
    <dc:date>2022-04-05T17:44:39.544427</dc:date>
    <dc:format>image/svg+xml</dc:format>
    <dc:creator>
     <cc:Agent>
      <dc:title>Matplotlib v3.3.2, https://matplotlib.org/</dc:title>
     </cc:Agent>
    </dc:creator>
   </cc:Work>
  </rdf:RDF>
 </metadata>
 <defs>
  <style type="text/css">*{stroke-linecap:butt;stroke-linejoin:round;}</style>
 </defs>
 <g id="figure_1">
  <g id="patch_1">
   <path d="M 0 280.15625 
L 856.38125 280.15625 
L 856.38125 0 
L 0 0 
z
" style="fill:none;"/>
  </g>
  <g id="axes_1">
   <g id="patch_2">
    <path d="M 43.78125 242.6 
L 270.08125 242.6 
L 270.08125 7.2 
L 43.78125 7.2 
z
" style="fill:#ffffff;"/>
   </g>
   <g id="matplotlib.axis_1">
    <g id="xtick_1">
     <g id="line2d_1">
      <defs>
       <path d="M 0 0 
L 0 3.5 
" id="m894560f7a7" style="stroke:#000000;stroke-width:0.8;"/>
      </defs>
      <g>
       <use style="stroke:#000000;stroke-width:0.8;" x="54.067614" xlink:href="#m894560f7a7" y="242.6"/>
      </g>
     </g>
     <g id="text_1">
      <!-- 0 -->
      <g transform="translate(50.886364 257.198438)scale(0.1 -0.1)">
       <defs>
        <path d="M 31.78125 66.40625 
Q 24.171875 66.40625 20.328125 58.90625 
Q 16.5 51.421875 16.5 36.375 
Q 16.5 21.390625 20.328125 13.890625 
Q 24.171875 6.390625 31.78125 6.390625 
Q 39.453125 6.390625 43.28125 13.890625 
Q 47.125 21.390625 47.125 36.375 
Q 47.125 51.421875 43.28125 58.90625 
Q 39.453125 66.40625 31.78125 66.40625 
z
M 31.78125 74.21875 
Q 44.046875 74.21875 50.515625 64.515625 
Q 56.984375 54.828125 56.984375 36.375 
Q 56.984375 17.96875 50.515625 8.265625 
Q 44.046875 -1.421875 31.78125 -1.421875 
Q 19.53125 -1.421875 13.0625 8.265625 
Q 6.59375 17.96875 6.59375 36.375 
Q 6.59375 54.828125 13.0625 64.515625 
Q 19.53125 74.21875 31.78125 74.21875 
z
" id="DejaVuSans-48"/>
       </defs>
       <use xlink:href="#DejaVuSans-48"/>
      </g>
     </g>
    </g>
    <g id="xtick_2">
     <g id="line2d_2">
      <g>
       <use style="stroke:#000000;stroke-width:0.8;" x="111.245844" xlink:href="#m894560f7a7" y="242.6"/>
      </g>
     </g>
     <g id="text_2">
      <!-- 500 -->
      <g transform="translate(101.702094 257.198438)scale(0.1 -0.1)">
       <defs>
        <path d="M 10.796875 72.90625 
L 49.515625 72.90625 
L 49.515625 64.59375 
L 19.828125 64.59375 
L 19.828125 46.734375 
Q 21.96875 47.46875 24.109375 47.828125 
Q 26.265625 48.1875 28.421875 48.1875 
Q 40.625 48.1875 47.75 41.5 
Q 54.890625 34.8125 54.890625 23.390625 
Q 54.890625 11.625 47.5625 5.09375 
Q 40.234375 -1.421875 26.90625 -1.421875 
Q 22.3125 -1.421875 17.546875 -0.640625 
Q 12.796875 0.140625 7.71875 1.703125 
L 7.71875 11.625 
Q 12.109375 9.234375 16.796875 8.0625 
Q 21.484375 6.890625 26.703125 6.890625 
Q 35.15625 6.890625 40.078125 11.328125 
Q 45.015625 15.765625 45.015625 23.390625 
Q 45.015625 31 40.078125 35.4375 
Q 35.15625 39.890625 26.703125 39.890625 
Q 22.75 39.890625 18.8125 39.015625 
Q 14.890625 38.140625 10.796875 36.28125 
z
" id="DejaVuSans-53"/>
       </defs>
       <use xlink:href="#DejaVuSans-53"/>
       <use x="63.623047" xlink:href="#DejaVuSans-48"/>
       <use x="127.246094" xlink:href="#DejaVuSans-48"/>
      </g>
     </g>
    </g>
    <g id="xtick_3">
     <g id="line2d_3">
      <g>
       <use style="stroke:#000000;stroke-width:0.8;" x="168.424074" xlink:href="#m894560f7a7" y="242.6"/>
      </g>
     </g>
     <g id="text_3">
      <!-- 1000 -->
      <g transform="translate(155.699074 257.198438)scale(0.1 -0.1)">
       <defs>
        <path d="M 12.40625 8.296875 
L 28.515625 8.296875 
L 28.515625 63.921875 
L 10.984375 60.40625 
L 10.984375 69.390625 
L 28.421875 72.90625 
L 38.28125 72.90625 
L 38.28125 8.296875 
L 54.390625 8.296875 
L 54.390625 0 
L 12.40625 0 
z
" id="DejaVuSans-49"/>
       </defs>
       <use xlink:href="#DejaVuSans-49"/>
       <use x="63.623047" xlink:href="#DejaVuSans-48"/>
       <use x="127.246094" xlink:href="#DejaVuSans-48"/>
       <use x="190.869141" xlink:href="#DejaVuSans-48"/>
      </g>
     </g>
    </g>
    <g id="xtick_4">
     <g id="line2d_4">
      <g>
       <use style="stroke:#000000;stroke-width:0.8;" x="225.602305" xlink:href="#m894560f7a7" y="242.6"/>
      </g>
     </g>
     <g id="text_4">
      <!-- 1500 -->
      <g transform="translate(212.877305 257.198438)scale(0.1 -0.1)">
       <use xlink:href="#DejaVuSans-49"/>
       <use x="63.623047" xlink:href="#DejaVuSans-53"/>
       <use x="127.246094" xlink:href="#DejaVuSans-48"/>
       <use x="190.869141" xlink:href="#DejaVuSans-48"/>
      </g>
     </g>
    </g>
    <g id="text_5">
     <!-- steps -->
     <g transform="translate(143.510938 270.876562)scale(0.1 -0.1)">
      <defs>
       <path d="M 44.28125 53.078125 
L 44.28125 44.578125 
Q 40.484375 46.53125 36.375 47.5 
Q 32.28125 48.484375 27.875 48.484375 
Q 21.1875 48.484375 17.84375 46.4375 
Q 14.5 44.390625 14.5 40.28125 
Q 14.5 37.15625 16.890625 35.375 
Q 19.28125 33.59375 26.515625 31.984375 
L 29.59375 31.296875 
Q 39.15625 29.25 43.1875 25.515625 
Q 47.21875 21.78125 47.21875 15.09375 
Q 47.21875 7.46875 41.1875 3.015625 
Q 35.15625 -1.421875 24.609375 -1.421875 
Q 20.21875 -1.421875 15.453125 -0.5625 
Q 10.6875 0.296875 5.421875 2 
L 5.421875 11.28125 
Q 10.40625 8.6875 15.234375 7.390625 
Q 20.0625 6.109375 24.8125 6.109375 
Q 31.15625 6.109375 34.5625 8.28125 
Q 37.984375 10.453125 37.984375 14.40625 
Q 37.984375 18.0625 35.515625 20.015625 
Q 33.0625 21.96875 24.703125 23.78125 
L 21.578125 24.515625 
Q 13.234375 26.265625 9.515625 29.90625 
Q 5.8125 33.546875 5.8125 39.890625 
Q 5.8125 47.609375 11.28125 51.796875 
Q 16.75 56 26.8125 56 
Q 31.78125 56 36.171875 55.265625 
Q 40.578125 54.546875 44.28125 53.078125 
z
" id="DejaVuSans-115"/>
       <path d="M 18.3125 70.21875 
L 18.3125 54.6875 
L 36.8125 54.6875 
L 36.8125 47.703125 
L 18.3125 47.703125 
L 18.3125 18.015625 
Q 18.3125 11.328125 20.140625 9.421875 
Q 21.96875 7.515625 27.59375 7.515625 
L 36.8125 7.515625 
L 36.8125 0 
L 27.59375 0 
Q 17.1875 0 13.234375 3.875 
Q 9.28125 7.765625 9.28125 18.015625 
L 9.28125 47.703125 
L 2.6875 47.703125 
L 2.6875 54.6875 
L 9.28125 54.6875 
L 9.28125 70.21875 
z
" id="DejaVuSans-116"/>
       <path d="M 56.203125 29.59375 
L 56.203125 25.203125 
L 14.890625 25.203125 
Q 15.484375 15.921875 20.484375 11.0625 
Q 25.484375 6.203125 34.421875 6.203125 
Q 39.59375 6.203125 44.453125 7.46875 
Q 49.3125 8.734375 54.109375 11.28125 
L 54.109375 2.78125 
Q 49.265625 0.734375 44.1875 -0.34375 
Q 39.109375 -1.421875 33.890625 -1.421875 
Q 20.796875 -1.421875 13.15625 6.1875 
Q 5.515625 13.8125 5.515625 26.8125 
Q 5.515625 40.234375 12.765625 48.109375 
Q 20.015625 56 32.328125 56 
Q 43.359375 56 49.78125 48.890625 
Q 56.203125 41.796875 56.203125 29.59375 
z
M 47.21875 32.234375 
Q 47.125 39.59375 43.09375 43.984375 
Q 39.0625 48.390625 32.421875 48.390625 
Q 24.90625 48.390625 20.390625 44.140625 
Q 15.875 39.890625 15.1875 32.171875 
z
" id="DejaVuSans-101"/>
       <path d="M 18.109375 8.203125 
L 18.109375 -20.796875 
L 9.078125 -20.796875 
L 9.078125 54.6875 
L 18.109375 54.6875 
L 18.109375 46.390625 
Q 20.953125 51.265625 25.265625 53.625 
Q 29.59375 56 35.59375 56 
Q 45.5625 56 51.78125 48.09375 
Q 58.015625 40.1875 58.015625 27.296875 
Q 58.015625 14.40625 51.78125 6.484375 
Q 45.5625 -1.421875 35.59375 -1.421875 
Q 29.59375 -1.421875 25.265625 0.953125 
Q 20.953125 3.328125 18.109375 8.203125 
z
M 48.6875 27.296875 
Q 48.6875 37.203125 44.609375 42.84375 
Q 40.53125 48.484375 33.40625 48.484375 
Q 26.265625 48.484375 22.1875 42.84375 
Q 18.109375 37.203125 18.109375 27.296875 
Q 18.109375 17.390625 22.1875 11.75 
Q 26.265625 6.109375 33.40625 6.109375 
Q 40.53125 6.109375 44.609375 11.75 
Q 48.6875 17.390625 48.6875 27.296875 
z
" id="DejaVuSans-112"/>
      </defs>
      <use xlink:href="#DejaVuSans-115"/>
      <use x="52.099609" xlink:href="#DejaVuSans-116"/>
      <use x="91.308594" xlink:href="#DejaVuSans-101"/>
      <use x="152.832031" xlink:href="#DejaVuSans-112"/>
      <use x="216.308594" xlink:href="#DejaVuSans-115"/>
     </g>
    </g>
   </g>
   <g id="matplotlib.axis_2">
    <g id="ytick_1">
     <g id="line2d_5">
      <defs>
       <path d="M 0 0 
L -3.5 0 
" id="m43f33c0347" style="stroke:#000000;stroke-width:0.8;"/>
      </defs>
      <g>
       <use style="stroke:#000000;stroke-width:0.8;" x="43.78125" xlink:href="#m43f33c0347" y="239.736497"/>
      </g>
     </g>
     <g id="text_6">
      <!-- 0.0 -->
      <g transform="translate(20.878125 243.535716)scale(0.1 -0.1)">
       <defs>
        <path d="M 10.6875 12.40625 
L 21 12.40625 
L 21 0 
L 10.6875 0 
z
" id="DejaVuSans-46"/>
       </defs>
       <use xlink:href="#DejaVuSans-48"/>
       <use x="63.623047" xlink:href="#DejaVuSans-46"/>
       <use x="95.410156" xlink:href="#DejaVuSans-48"/>
      </g>
     </g>
    </g>
    <g id="ytick_2">
     <g id="line2d_6">
      <g>
       <use style="stroke:#000000;stroke-width:0.8;" x="43.78125" xlink:href="#m43f33c0347" y="198.869042"/>
      </g>
     </g>
     <g id="text_7">
      <!-- 0.5 -->
      <g transform="translate(20.878125 202.668261)scale(0.1 -0.1)">
       <use xlink:href="#DejaVuSans-48"/>
       <use x="63.623047" xlink:href="#DejaVuSans-46"/>
       <use x="95.410156" xlink:href="#DejaVuSans-53"/>
      </g>
     </g>
    </g>
    <g id="ytick_3">
     <g id="line2d_7">
      <g>
       <use style="stroke:#000000;stroke-width:0.8;" x="43.78125" xlink:href="#m43f33c0347" y="158.001587"/>
      </g>
     </g>
     <g id="text_8">
      <!-- 1.0 -->
      <g transform="translate(20.878125 161.800805)scale(0.1 -0.1)">
       <use xlink:href="#DejaVuSans-49"/>
       <use x="63.623047" xlink:href="#DejaVuSans-46"/>
       <use x="95.410156" xlink:href="#DejaVuSans-48"/>
      </g>
     </g>
    </g>
    <g id="ytick_4">
     <g id="line2d_8">
      <g>
       <use style="stroke:#000000;stroke-width:0.8;" x="43.78125" xlink:href="#m43f33c0347" y="117.134131"/>
      </g>
     </g>
     <g id="text_9">
      <!-- 1.5 -->
      <g transform="translate(20.878125 120.93335)scale(0.1 -0.1)">
       <use xlink:href="#DejaVuSans-49"/>
       <use x="63.623047" xlink:href="#DejaVuSans-46"/>
       <use x="95.410156" xlink:href="#DejaVuSans-53"/>
      </g>
     </g>
    </g>
    <g id="ytick_5">
     <g id="line2d_9">
      <g>
       <use style="stroke:#000000;stroke-width:0.8;" x="43.78125" xlink:href="#m43f33c0347" y="76.266676"/>
      </g>
     </g>
     <g id="text_10">
      <!-- 2.0 -->
      <g transform="translate(20.878125 80.065895)scale(0.1 -0.1)">
       <defs>
        <path d="M 19.1875 8.296875 
L 53.609375 8.296875 
L 53.609375 0 
L 7.328125 0 
L 7.328125 8.296875 
Q 12.9375 14.109375 22.625 23.890625 
Q 32.328125 33.6875 34.8125 36.53125 
Q 39.546875 41.84375 41.421875 45.53125 
Q 43.3125 49.21875 43.3125 52.78125 
Q 43.3125 58.59375 39.234375 62.25 
Q 35.15625 65.921875 28.609375 65.921875 
Q 23.96875 65.921875 18.8125 64.3125 
Q 13.671875 62.703125 7.8125 59.421875 
L 7.8125 69.390625 
Q 13.765625 71.78125 18.9375 73 
Q 24.125 74.21875 28.421875 74.21875 
Q 39.75 74.21875 46.484375 68.546875 
Q 53.21875 62.890625 53.21875 53.421875 
Q 53.21875 48.921875 51.53125 44.890625 
Q 49.859375 40.875 45.40625 35.40625 
Q 44.1875 33.984375 37.640625 27.21875 
Q 31.109375 20.453125 19.1875 8.296875 
z
" id="DejaVuSans-50"/>
       </defs>
       <use xlink:href="#DejaVuSans-50"/>
       <use x="63.623047" xlink:href="#DejaVuSans-46"/>
       <use x="95.410156" xlink:href="#DejaVuSans-48"/>
      </g>
     </g>
    </g>
    <g id="ytick_6">
     <g id="line2d_10">
      <g>
       <use style="stroke:#000000;stroke-width:0.8;" x="43.78125" xlink:href="#m43f33c0347" y="35.399221"/>
      </g>
     </g>
     <g id="text_11">
      <!-- 2.5 -->
      <g transform="translate(20.878125 39.198439)scale(0.1 -0.1)">
       <use xlink:href="#DejaVuSans-50"/>
       <use x="63.623047" xlink:href="#DejaVuSans-46"/>
       <use x="95.410156" xlink:href="#DejaVuSans-53"/>
      </g>
     </g>
    </g>
    <g id="text_12">
     <!-- training loss -->
     <g transform="translate(14.798438 155.516406)rotate(-90)scale(0.1 -0.1)">
      <defs>
       <path d="M 41.109375 46.296875 
Q 39.59375 47.171875 37.8125 47.578125 
Q 36.03125 48 33.890625 48 
Q 26.265625 48 22.1875 43.046875 
Q 18.109375 38.09375 18.109375 28.8125 
L 18.109375 0 
L 9.078125 0 
L 9.078125 54.6875 
L 18.109375 54.6875 
L 18.109375 46.1875 
Q 20.953125 51.171875 25.484375 53.578125 
Q 30.03125 56 36.53125 56 
Q 37.453125 56 38.578125 55.875 
Q 39.703125 55.765625 41.0625 55.515625 
z
" id="DejaVuSans-114"/>
       <path d="M 34.28125 27.484375 
Q 23.390625 27.484375 19.1875 25 
Q 14.984375 22.515625 14.984375 16.5 
Q 14.984375 11.71875 18.140625 8.90625 
Q 21.296875 6.109375 26.703125 6.109375 
Q 34.1875 6.109375 38.703125 11.40625 
Q 43.21875 16.703125 43.21875 25.484375 
L 43.21875 27.484375 
z
M 52.203125 31.203125 
L 52.203125 0 
L 43.21875 0 
L 43.21875 8.296875 
Q 40.140625 3.328125 35.546875 0.953125 
Q 30.953125 -1.421875 24.3125 -1.421875 
Q 15.921875 -1.421875 10.953125 3.296875 
Q 6 8.015625 6 15.921875 
Q 6 25.140625 12.171875 29.828125 
Q 18.359375 34.515625 30.609375 34.515625 
L 43.21875 34.515625 
L 43.21875 35.40625 
Q 43.21875 41.609375 39.140625 45 
Q 35.0625 48.390625 27.6875 48.390625 
Q 23 48.390625 18.546875 47.265625 
Q 14.109375 46.140625 10.015625 43.890625 
L 10.015625 52.203125 
Q 14.9375 54.109375 19.578125 55.046875 
Q 24.21875 56 28.609375 56 
Q 40.484375 56 46.34375 49.84375 
Q 52.203125 43.703125 52.203125 31.203125 
z
" id="DejaVuSans-97"/>
       <path d="M 9.421875 54.6875 
L 18.40625 54.6875 
L 18.40625 0 
L 9.421875 0 
z
M 9.421875 75.984375 
L 18.40625 75.984375 
L 18.40625 64.59375 
L 9.421875 64.59375 
z
" id="DejaVuSans-105"/>
       <path d="M 54.890625 33.015625 
L 54.890625 0 
L 45.90625 0 
L 45.90625 32.71875 
Q 45.90625 40.484375 42.875 44.328125 
Q 39.84375 48.1875 33.796875 48.1875 
Q 26.515625 48.1875 22.3125 43.546875 
Q 18.109375 38.921875 18.109375 30.90625 
L 18.109375 0 
L 9.078125 0 
L 9.078125 54.6875 
L 18.109375 54.6875 
L 18.109375 46.1875 
Q 21.34375 51.125 25.703125 53.5625 
Q 30.078125 56 35.796875 56 
Q 45.21875 56 50.046875 50.171875 
Q 54.890625 44.34375 54.890625 33.015625 
z
" id="DejaVuSans-110"/>
       <path d="M 45.40625 27.984375 
Q 45.40625 37.75 41.375 43.109375 
Q 37.359375 48.484375 30.078125 48.484375 
Q 22.859375 48.484375 18.828125 43.109375 
Q 14.796875 37.75 14.796875 27.984375 
Q 14.796875 18.265625 18.828125 12.890625 
Q 22.859375 7.515625 30.078125 7.515625 
Q 37.359375 7.515625 41.375 12.890625 
Q 45.40625 18.265625 45.40625 27.984375 
z
M 54.390625 6.78125 
Q 54.390625 -7.171875 48.1875 -13.984375 
Q 42 -20.796875 29.203125 -20.796875 
Q 24.46875 -20.796875 20.265625 -20.09375 
Q 16.0625 -19.390625 12.109375 -17.921875 
L 12.109375 -9.1875 
Q 16.0625 -11.328125 19.921875 -12.34375 
Q 23.78125 -13.375 27.78125 -13.375 
Q 36.625 -13.375 41.015625 -8.765625 
Q 45.40625 -4.15625 45.40625 5.171875 
L 45.40625 9.625 
Q 42.625 4.78125 38.28125 2.390625 
Q 33.9375 0 27.875 0 
Q 17.828125 0 11.671875 7.65625 
Q 5.515625 15.328125 5.515625 27.984375 
Q 5.515625 40.671875 11.671875 48.328125 
Q 17.828125 56 27.875 56 
Q 33.9375 56 38.28125 53.609375 
Q 42.625 51.21875 45.40625 46.390625 
L 45.40625 54.6875 
L 54.390625 54.6875 
z
" id="DejaVuSans-103"/>
       <path id="DejaVuSans-32"/>
       <path d="M 9.421875 75.984375 
L 18.40625 75.984375 
L 18.40625 0 
L 9.421875 0 
z
" id="DejaVuSans-108"/>
       <path d="M 30.609375 48.390625 
Q 23.390625 48.390625 19.1875 42.75 
Q 14.984375 37.109375 14.984375 27.296875 
Q 14.984375 17.484375 19.15625 11.84375 
Q 23.34375 6.203125 30.609375 6.203125 
Q 37.796875 6.203125 41.984375 11.859375 
Q 46.1875 17.53125 46.1875 27.296875 
Q 46.1875 37.015625 41.984375 42.703125 
Q 37.796875 48.390625 30.609375 48.390625 
z
M 30.609375 56 
Q 42.328125 56 49.015625 48.375 
Q 55.71875 40.765625 55.71875 27.296875 
Q 55.71875 13.875 49.015625 6.21875 
Q 42.328125 -1.421875 30.609375 -1.421875 
Q 18.84375 -1.421875 12.171875 6.21875 
Q 5.515625 13.875 5.515625 27.296875 
Q 5.515625 40.765625 12.171875 48.375 
Q 18.84375 56 30.609375 56 
z
" id="DejaVuSans-111"/>
      </defs>
      <use xlink:href="#DejaVuSans-116"/>
      <use x="39.208984" xlink:href="#DejaVuSans-114"/>
      <use x="80.322266" xlink:href="#DejaVuSans-97"/>
      <use x="141.601562" xlink:href="#DejaVuSans-105"/>
      <use x="169.384766" xlink:href="#DejaVuSans-110"/>
      <use x="232.763672" xlink:href="#DejaVuSans-105"/>
      <use x="260.546875" xlink:href="#DejaVuSans-110"/>
      <use x="323.925781" xlink:href="#DejaVuSans-103"/>
      <use x="387.402344" xlink:href="#DejaVuSans-32"/>
      <use x="419.189453" xlink:href="#DejaVuSans-108"/>
      <use x="446.972656" xlink:href="#DejaVuSans-111"/>
      <use x="508.154297" xlink:href="#DejaVuSans-115"/>
      <use x="560.253906" xlink:href="#DejaVuSans-115"/>
     </g>
    </g>
   </g>
   <g id="line2d_11">
    <path clip-path="url(#p47f5ab8d32)" d="M 54.067614 17.9 
L 54.868109 29.017987 
L 54.982465 29.261576 
L 55.096822 32.885382 
L 55.211178 32.186574 
L 55.439891 35.700667 
L 55.554248 31.947915 
L 55.782961 35.189169 
L 55.897317 36.149787 
L 56.011673 34.275963 
L 56.240386 41.889192 
L 56.354743 40.2984 
L 56.469099 34.650701 
L 56.697812 44.495906 
L 56.812169 43.346731 
L 56.926525 43.901374 
L 57.040882 47.708904 
L 57.155238 46.689416 
L 57.383951 43.767146 
L 57.955733 51.645828 
L 58.07009 48.037515 
L 58.184446 50.832261 
L 58.413159 44.273519 
L 58.641872 55.725886 
L 58.756229 52.863696 
L 58.870585 54.508409 
L 59.099298 49.655843 
L 59.328011 52.956298 
L 59.442367 53.246559 
L 59.556724 51.219587 
L 59.67108 53.864554 
L 59.899793 50.415606 
L 60.01415 55.035223 
L 60.128506 54.186657 
L 60.242863 54.230931 
L 60.357219 50.466409 
L 60.471575 57.002487 
L 60.585932 55.937243 
L 60.700288 53.472045 
L 60.929001 53.551747 
L 61.157714 55.250225 
L 61.272071 54.348283 
L 61.500784 59.975715 
L 61.61514 54.757668 
L 61.729497 60.546298 
L 61.958209 53.854577 
L 62.072566 54.331797 
L 62.301279 62.00984 
L 62.529992 57.15055 
L 62.758705 63.741231 
L 62.873061 60.643734 
L 62.987418 60.667079 
L 63.330487 55.465538 
L 63.5592 62.31111 
L 63.673556 63.023871 
L 63.787913 62.24158 
L 63.902269 60.131125 
L 64.016626 63.498695 
L 64.130982 55.368063 
L 64.245339 65.835882 
L 64.359695 62.559298 
L 64.474052 65.57532 
L 64.588408 61.164781 
L 64.702764 66.093151 
L 64.817121 63.61626 
L 64.931477 65.704871 
L 65.045834 58.651312 
L 65.16019 67.333253 
L 65.274547 67.543909 
L 65.50326 58.588895 
L 65.731973 70.02651 
L 65.846329 64.73564 
L 66.075042 68.826668 
L 66.189398 65.253003 
L 66.303755 68.744238 
L 66.418111 66.247431 
L 66.532468 67.546735 
L 66.646824 63.38148 
L 66.761181 66.430415 
L 66.875537 74.754982 
L 66.989894 66.833038 
L 67.10425 75.848872 
L 67.332963 66.129164 
L 67.44732 74.067067 
L 67.676032 67.996653 
L 68.019102 76.027004 
L 68.133458 66.402178 
L 68.247815 71.882463 
L 68.362171 70.121256 
L 68.590884 78.721673 
L 68.705241 72.268406 
L 68.933954 75.287896 
L 69.04831 70.882735 
L 69.162666 73.066286 
L 69.277023 70.668357 
L 69.391379 74.911541 
L 69.620092 69.922156 
L 69.734449 76.238166 
L 69.963162 71.027953 
L 70.077518 68.031925 
L 70.191875 71.56835 
L 70.306231 67.577895 
L 70.420588 80.045268 
L 70.6493 67.651303 
L 70.763657 74.49746 
L 70.878013 71.531325 
L 71.106726 79.454184 
L 71.221083 80.614506 
L 71.335439 71.504062 
L 71.449796 79.502688 
L 71.564152 72.595068 
L 71.792865 76.370708 
L 71.907221 74.564203 
L 72.021578 77.921941 
L 72.135934 77.603531 
L 72.250291 68.806636 
L 72.364647 77.562306 
L 72.479004 73.229608 
L 72.59336 78.528624 
L 72.707717 70.695483 
L 73.050786 82.370364 
L 73.165143 78.326942 
L 73.279499 78.470777 
L 73.393855 79.303568 
L 73.622568 74.413197 
L 73.851281 76.394356 
L 73.965638 83.603938 
L 74.079994 83.134961 
L 74.194351 76.30831 
L 74.308707 76.824816 
L 74.53742 79.904678 
L 74.766133 94.432687 
L 74.880489 89.295434 
L 74.994846 93.010166 
L 75.109202 92.965395 
L 75.223559 94.40447 
L 75.337915 99.163264 
L 75.452272 89.246414 
L 75.566628 91.997879 
L 75.680985 97.929106 
L 75.795341 94.078392 
L 75.909698 97.512422 
L 76.138411 92.979825 
L 76.252767 89.319851 
L 76.367123 94.917956 
L 76.48148 89.974989 
L 76.595836 94.500873 
L 76.710193 93.097478 
L 76.824549 87.831152 
L 76.938906 88.612781 
L 77.053262 95.957321 
L 77.167619 90.138067 
L 77.396332 94.851047 
L 77.510688 96.380961 
L 77.625045 99.877545 
L 77.739401 86.563846 
L 77.853757 99.686318 
L 78.08247 91.068479 
L 78.196827 91.446715 
L 78.311183 93.69546 
L 78.42554 93.608255 
L 78.539896 93.788443 
L 78.768609 89.659697 
L 78.997322 103.701025 
L 79.111679 92.297941 
L 79.340391 96.123215 
L 79.454748 95.296454 
L 79.569104 95.440191 
L 79.683461 90.685392 
L 79.912174 94.467277 
L 80.02653 93.291492 
L 80.3696 104.690133 
L 80.598313 92.137553 
L 80.712669 91.034903 
L 80.827025 93.068676 
L 80.941382 93.010011 
L 81.055738 93.794806 
L 81.170095 98.018659 
L 81.284451 87.655203 
L 81.398808 96.488881 
L 81.513164 94.869462 
L 81.627521 98.352473 
L 81.741877 92.694417 
L 81.856234 93.386278 
L 81.97059 102.26007 
L 82.084946 92.462267 
L 82.199303 98.436463 
L 82.313659 98.526347 
L 82.428016 92.430015 
L 82.542372 93.84137 
L 82.656729 90.050687 
L 82.771085 102.658484 
L 82.885442 99.439211 
L 82.999798 100.790283 
L 83.342868 95.126 
L 83.457224 101.750589 
L 83.57158 95.52989 
L 83.800293 107.706895 
L 83.91465 105.342406 
L 84.029006 95.971186 
L 84.143363 101.913053 
L 84.372076 92.305785 
L 84.486432 104.993226 
L 84.600789 99.180296 
L 84.715145 101.429314 
L 84.829502 93.634651 
L 85.058214 121.829115 
L 85.172571 118.799608 
L 85.286927 111.962581 
L 85.401284 119.098316 
L 85.51564 115.256313 
L 85.629997 125.274477 
L 85.744353 111.281223 
L 86.087423 122.999803 
L 86.201779 115.869407 
L 86.316136 116.575952 
L 86.430492 121.275846 
L 86.659205 116.311073 
L 86.773561 119.255285 
L 86.887918 117.493445 
L 87.002274 113.513005 
L 87.116631 115.826721 
L 87.230987 121.231513 
L 87.345344 113.373565 
L 87.4597 117.260759 
L 87.574057 108.350711 
L 87.917126 117.41268 
L 88.031482 123.103884 
L 88.145839 121.807153 
L 88.260195 115.873734 
L 88.374552 120.723776 
L 88.488908 111.453489 
L 88.603265 118.159514 
L 88.717621 117.915428 
L 88.831978 118.696755 
L 88.946334 114.175743 
L 89.060691 114.676747 
L 89.175047 125.455268 
L 89.289404 118.637027 
L 89.40376 118.861382 
L 89.632473 117.816619 
L 89.746829 120.130627 
L 89.861186 114.614261 
L 89.975542 122.574166 
L 90.089899 111.303253 
L 90.204255 112.722432 
L 90.318612 116.619194 
L 90.432968 115.396562 
L 90.661681 122.149814 
L 90.890394 117.041236 
L 91.00475 117.119886 
L 91.119107 114.69411 
L 91.233463 124.315944 
L 91.34782 110.195021 
L 91.576533 120.397152 
L 91.690889 119.840142 
L 91.919602 108.698322 
L 92.148315 119.74677 
L 92.262671 120.875093 
L 92.377028 112.87108 
L 92.491384 114.9156 
L 92.605741 124.187319 
L 92.720097 111.910073 
L 92.94881 120.934841 
L 93.063167 114.255718 
L 93.177523 116.894333 
L 93.406236 113.108852 
L 93.520593 122.034489 
L 93.634949 121.535756 
L 93.749305 118.336379 
L 93.863662 111.335134 
L 93.978018 119.552171 
L 94.092375 116.431689 
L 94.206731 128.044425 
L 94.435444 114.917715 
L 94.664157 117.26794 
L 94.778514 124.538536 
L 94.89287 117.812722 
L 95.007227 119.202923 
L 95.121583 122.252862 
L 95.235939 135.142346 
L 95.350296 135.338503 
L 95.464652 131.593663 
L 95.579009 133.444559 
L 95.693365 141.85068 
L 95.807722 138.87944 
L 95.922078 148.695463 
L 96.036435 134.317612 
L 96.493861 148.546163 
L 96.722573 135.908394 
L 96.83693 136.666969 
L 97.065643 141.548454 
L 97.179999 142.652634 
L 97.294356 141.254949 
L 97.523069 132.146707 
L 97.751782 140.191663 
L 97.866138 138.209697 
L 97.980495 144.793674 
L 98.094851 142.268727 
L 98.209207 132.423454 
L 98.323564 138.745281 
L 98.43792 134.937468 
L 98.552277 136.485564 
L 98.78099 134.361068 
L 99.009703 140.285182 
L 99.124059 134.021388 
L 99.352772 141.590546 
L 99.581485 142.994009 
L 99.695841 135.502136 
L 99.924554 140.875954 
L 100.038911 142.837284 
L 100.267624 130.653137 
L 100.38198 146.337366 
L 100.496337 143.739762 
L 100.610693 150.255836 
L 100.839406 133.517928 
L 100.953763 140.177564 
L 101.182475 128.62061 
L 101.296832 140.766485 
L 101.411188 136.918607 
L 101.525545 141.299253 
L 101.639901 139.607108 
L 101.754258 139.773177 
L 101.868614 143.261587 
L 102.097327 134.001433 
L 102.211684 140.755017 
L 102.32604 139.444722 
L 102.440396 139.806257 
L 102.554753 136.967061 
L 102.783466 139.196748 
L 102.897822 142.874436 
L 103.012179 126.836253 
L 103.240892 142.12767 
L 103.355248 140.154618 
L 103.583961 143.790837 
L 103.698318 135.799627 
L 103.812674 143.019352 
L 103.92703 135.018232 
L 104.041387 135.225936 
L 104.155743 139.311469 
L 104.2701 130.641698 
L 104.498813 136.83374 
L 104.613169 137.281681 
L 104.727526 135.666052 
L 104.841882 138.510324 
L 104.956239 136.992521 
L 105.070595 130.585565 
L 105.184952 132.645617 
L 105.299308 140.879072 
L 105.413664 132.905136 
L 105.642377 155.478813 
L 105.756734 155.132196 
L 105.87109 159.158113 
L 105.985447 156.284109 
L 106.21416 164.2432 
L 106.328516 160.735445 
L 106.442873 153.1931 
L 106.671586 162.876972 
L 106.785942 159.105167 
L 106.900298 151.169314 
L 107.129011 165.379055 
L 107.357724 163.605425 
L 107.472081 164.711529 
L 107.586437 161.951626 
L 107.700794 156.113109 
L 107.81515 157.172273 
L 107.929507 163.873149 
L 108.043863 156.832164 
L 108.15822 162.465653 
L 108.272576 155.327798 
L 108.386932 163.350382 
L 108.615645 155.653583 
L 108.730002 156.093807 
L 108.844358 157.847531 
L 108.958715 161.744848 
L 109.073071 159.871887 
L 109.187428 149.200189 
L 109.416141 156.795792 
L 109.530497 158.682257 
L 109.644854 157.189305 
L 109.75921 150.896524 
L 109.873566 152.358107 
L 109.987923 152.319464 
L 110.102279 151.307536 
L 110.330992 162.13538 
L 110.445349 153.685998 
L 110.674062 156.692685 
L 110.788418 144.98076 
L 110.902775 164.939172 
L 111.017131 154.445216 
L 111.131488 154.801684 
L 111.245844 151.529456 
L 111.3602 162.237132 
L 111.588913 155.821582 
L 111.817626 159.292979 
L 112.046339 151.748101 
L 112.160696 163.04918 
L 112.503765 154.883335 
L 112.618121 157.670286 
L 112.732478 153.087773 
L 112.846834 157.741736 
L 112.961191 156.681081 
L 113.189904 149.535621 
L 113.30426 151.501794 
L 113.418617 159.338837 
L 113.532973 155.860088 
L 113.64733 155.811078 
L 113.761686 151.599288 
L 113.876043 153.116107 
L 113.990399 152.578292 
L 114.219112 158.476347 
L 114.333468 156.728201 
L 114.447825 159.188172 
L 114.676538 151.930247 
L 114.790894 157.844628 
L 114.905251 156.042274 
L 115.019607 150.907183 
L 115.133964 158.753887 
L 115.362677 154.003765 
L 115.477033 159.743555 
L 115.591389 151.908461 
L 115.820102 171.936579 
L 115.934459 167.911509 
L 116.048815 168.56537 
L 116.163172 173.156472 
L 116.277528 170.146979 
L 116.506241 177.125064 
L 116.620598 178.669973 
L 116.734954 170.816805 
L 116.963667 183.425825 
L 117.19238 173.115866 
L 117.306736 178.027746 
L 117.421093 173.620992 
L 117.649806 175.142985 
L 117.764162 179.113997 
L 117.878519 170.149936 
L 118.107232 180.793344 
L 118.221588 177.479442 
L 118.335945 179.330285 
L 118.679014 171.03016 
L 118.79337 175.231105 
L 118.907727 164.033616 
L 119.022083 166.264852 
L 119.13644 176.022536 
L 119.250796 174.154232 
L 119.365153 178.484778 
L 119.593866 172.175486 
L 119.822579 177.58685 
L 119.936935 169.982527 
L 120.051291 177.981747 
L 120.165648 168.42556 
L 120.280004 168.453436 
L 120.394361 176.011 
L 120.508717 168.488644 
L 120.73743 174.99648 
L 120.851787 175.018467 
L 120.966143 182.045036 
L 121.194856 167.169196 
L 121.309213 171.045798 
L 121.423569 169.153009 
L 121.537925 175.686524 
L 121.766638 167.743364 
L 121.880995 172.983578 
L 121.995351 166.255581 
L 122.109708 170.39048 
L 122.224064 168.120299 
L 122.338421 177.252889 
L 122.452777 173.89557 
L 122.567134 176.996239 
L 122.68149 175.530627 
L 122.795846 170.403298 
L 122.910203 176.848546 
L 123.024559 163.128073 
L 123.253272 172.635177 
L 123.367629 173.335457 
L 123.481985 172.575912 
L 123.596342 173.263237 
L 123.710698 167.397823 
L 123.825055 174.891148 
L 123.939411 167.169951 
L 124.053768 176.358089 
L 124.168124 170.875846 
L 124.28248 172.680066 
L 124.396837 168.644098 
L 124.511193 173.735673 
L 124.62555 168.973226 
L 124.854263 174.161107 
L 124.968619 170.510112 
L 125.082976 175.006585 
L 125.311689 161.143549 
L 125.426045 174.213741 
L 125.540402 165.003938 
L 125.654758 168.219829 
L 125.769114 174.656917 
L 125.883471 169.321651 
L 125.997827 169.914191 
L 126.112184 188.387894 
L 126.22654 186.854009 
L 126.340897 186.988811 
L 126.56961 183.782074 
L 126.683966 187.425542 
L 126.798323 187.419973 
L 126.912679 189.819881 
L 127.027036 183.777977 
L 127.141392 187.651173 
L 127.255748 186.776562 
L 127.370105 188.862137 
L 127.598818 195.193552 
L 127.713174 189.320294 
L 127.827531 189.949874 
L 127.941887 185.927971 
L 128.056244 194.095876 
L 128.284957 185.483504 
L 128.51367 192.906831 
L 128.742382 181.701643 
L 128.971095 191.624042 
L 129.085452 184.310126 
L 129.199808 192.082715 
L 129.314165 185.773945 
L 129.428521 186.409975 
L 129.542878 183.20923 
L 129.657234 189.467997 
L 129.771591 179.3812 
L 129.885947 193.165317 
L 130.11466 184.722167 
L 130.229016 190.289564 
L 130.343373 182.958032 
L 130.572086 187.600239 
L 130.686442 187.329051 
L 130.915155 192.98285 
L 131.029512 189.171023 
L 131.143868 189.55639 
L 131.258225 183.467975 
L 131.372581 190.842657 
L 131.486938 182.728819 
L 131.601294 189.050782 
L 131.71565 182.166543 
L 131.830007 182.580245 
L 132.05872 187.407794 
L 132.287433 189.839787 
L 132.516146 181.611549 
L 132.630502 179.879412 
L 132.859215 190.557814 
L 132.973571 190.835033 
L 133.087928 183.298428 
L 133.202284 185.591239 
L 133.316641 183.40624 
L 133.430997 183.525594 
L 133.545354 180.051717 
L 133.774067 187.527055 
L 134.00278 177.834989 
L 134.117136 179.021219 
L 134.231493 184.635283 
L 134.345849 182.465904 
L 134.460205 177.907886 
L 134.574562 178.070788 
L 134.803275 181.101635 
L 135.031988 174.346083 
L 135.146344 185.273438 
L 135.260701 181.889187 
L 135.375057 185.170478 
L 135.489414 171.304032 
L 135.718127 186.023156 
L 135.832483 181.490724 
L 135.946839 185.755934 
L 136.061196 176.695071 
L 136.404265 192.493343 
L 136.518622 192.57232 
L 136.632978 199.208281 
L 136.747335 197.704867 
L 136.861691 193.958239 
L 136.976048 196.633786 
L 137.090404 192.665356 
L 137.319117 197.927 
L 137.433473 194.461547 
L 137.54783 201.772292 
L 137.662186 200.338027 
L 137.776543 197.439058 
L 137.890899 199.255191 
L 138.005256 198.131532 
L 138.119612 199.500754 
L 138.348325 192.106076 
L 138.462682 194.960642 
L 138.577038 201.514414 
L 138.805751 190.779889 
L 139.14882 199.666299 
L 139.263177 193.394515 
L 139.49189 197.328619 
L 139.606246 202.74009 
L 139.720603 191.862029 
L 139.834959 197.818574 
L 140.063672 193.37475 
L 140.178029 196.887309 
L 140.292385 195.446426 
L 140.406741 200.592761 
L 140.635454 187.483701 
L 140.864167 197.88732 
L 141.09288 192.168712 
L 141.207237 194.430948 
L 141.321593 193.755797 
L 141.43595 191.785829 
L 141.550306 196.627102 
L 141.664663 195.302538 
L 141.779019 196.268939 
L 141.893375 195.287523 
L 142.007732 197.495931 
L 142.122088 193.998109 
L 142.236445 200.696751 
L 142.693871 190.164311 
L 142.808227 196.32968 
L 142.922584 193.521834 
L 143.03694 195.775856 
L 143.380009 185.376822 
L 143.494366 193.510853 
L 143.608722 191.078023 
L 143.723079 193.952475 
L 143.837435 192.002594 
L 143.951792 195.947343 
L 144.066148 192.169024 
L 144.180505 192.82668 
L 144.294861 190.258448 
L 144.409218 190.20992 
L 144.523574 185.768815 
L 144.63793 196.80081 
L 144.866643 191.141663 
L 144.981 192.555877 
L 145.324069 191.310714 
L 145.438426 194.987831 
L 145.552782 190.320354 
L 145.781495 191.337021 
L 145.895852 194.604446 
L 146.010208 189.054275 
L 146.124564 193.763489 
L 146.238921 189.03132 
L 146.353277 196.463201 
L 146.467634 193.11754 
L 146.696347 205.372501 
L 146.810703 203.62531 
L 146.92506 208.196399 
L 147.039416 199.958886 
L 147.153773 206.085384 
L 147.268129 206.205948 
L 147.382486 200.723795 
L 147.611198 206.279076 
L 147.839911 198.833385 
L 147.954268 206.355497 
L 148.068624 202.259445 
L 148.297337 204.08232 
L 148.411694 202.335984 
L 148.52605 202.723183 
L 148.640407 206.323828 
L 148.754763 203.391399 
L 148.86912 206.347186 
L 148.983476 200.172151 
L 149.097832 201.670961 
L 149.212189 199.363513 
L 149.326545 207.016257 
L 149.555258 197.497207 
L 149.783971 205.946643 
L 149.898328 198.539315 
L 150.012684 205.63262 
L 150.241397 203.278573 
L 150.47011 193.941602 
L 150.584466 204.972199 
L 150.813179 197.00504 
L 151.156249 210.35803 
L 151.384962 201.44665 
L 151.613675 194.48898 
L 151.728031 204.752759 
L 151.842388 202.190205 
L 151.956744 196.605174 
L 152.185457 205.698408 
L 152.299813 203.17716 
L 152.41417 205.79893 
L 152.528526 203.486929 
L 152.642883 194.569116 
L 152.757239 200.146506 
L 152.871596 195.965997 
L 153.100309 209.863566 
L 153.214665 205.576156 
L 153.329021 196.398187 
L 153.443378 206.973073 
L 153.672091 203.110131 
L 153.786447 205.925426 
L 153.900804 202.858083 
L 154.01516 203.010528 
L 154.129517 198.547704 
L 154.35823 202.218498 
L 154.472586 200.743601 
L 154.815655 202.822372 
L 154.930012 198.272371 
L 155.044368 200.825364 
L 155.158725 200.000106 
L 155.273081 194.094585 
L 155.387438 196.954276 
L 155.501794 196.979171 
L 155.730507 197.936617 
L 155.844864 200.620722 
L 155.95922 198.987231 
L 156.187933 201.36858 
L 156.302289 199.99758 
L 156.416646 206.964867 
L 156.531002 196.300167 
L 156.645359 200.953969 
L 156.759715 194.809422 
L 156.988428 211.388034 
L 157.102785 210.811571 
L 157.217141 212.593052 
L 157.331498 208.451071 
L 157.445854 209.839848 
L 157.560211 212.598106 
L 157.674567 203.481018 
L 157.90328 213.300537 
L 158.131993 206.474274 
L 158.246349 212.908733 
L 158.360706 206.282038 
L 158.818132 213.325497 
L 158.932488 206.934277 
L 159.046845 207.012586 
L 159.161201 205.71819 
L 159.275557 213.100002 
L 159.389914 207.770949 
L 159.50427 207.691334 
L 159.618627 204.675071 
L 159.84734 214.973752 
L 160.076053 210.695116 
L 160.190409 211.973512 
L 160.304766 207.740347 
L 160.419122 211.829439 
L 160.533479 205.457136 
L 160.647835 213.128999 
L 160.762191 205.571194 
L 160.876548 209.581446 
L 161.105261 208.176383 
L 161.219617 202.562402 
L 161.44833 211.068516 
L 161.562687 204.427 
L 161.677043 206.274377 
L 161.7914 212.976191 
L 162.020112 203.509208 
L 162.248825 207.388892 
L 162.363182 206.917403 
L 162.591895 208.946909 
L 162.820608 204.025441 
L 162.934964 213.512807 
L 163.163677 204.123113 
L 163.278034 206.762045 
L 163.39239 205.012654 
L 163.621103 207.072 
L 163.735459 207.24667 
L 163.849816 206.765394 
L 163.964172 199.395555 
L 164.192885 208.689867 
L 164.307242 207.930027 
L 164.421598 205.748254 
L 164.535955 207.364133 
L 164.650311 211.576384 
L 164.879024 203.85859 
L 165.107737 207.209554 
L 165.222093 206.964418 
L 165.33645 204.502199 
L 165.450806 210.752973 
L 165.565163 201.196043 
L 165.679519 208.317962 
L 165.908232 204.50815 
L 166.022589 207.67202 
L 166.136945 198.626656 
L 166.251302 207.621315 
L 166.480014 201.463075 
L 166.594371 207.87189 
L 166.708727 206.899556 
L 166.823084 204.436561 
L 166.93744 205.204115 
L 167.051797 209.346597 
L 167.166153 202.954013 
L 167.394866 217.978627 
L 167.509223 213.603858 
L 167.623579 216.183227 
L 167.737936 212.315701 
L 167.852292 214.771661 
L 167.966648 212.481639 
L 168.309718 218.262913 
L 168.538431 216.604042 
L 168.652787 219.176318 
L 168.767144 216.274695 
L 168.8815 210.435954 
L 168.995857 210.925339 
L 169.110213 214.781877 
L 169.22457 208.253204 
L 169.338926 213.136947 
L 169.453282 213.120707 
L 169.567639 213.696293 
L 169.681995 215.445676 
L 169.796352 212.927351 
L 169.910708 214.594815 
L 170.025065 213.925679 
L 170.139421 214.242483 
L 170.253778 205.851908 
L 170.368134 216.114148 
L 170.482491 212.856803 
L 170.596847 217.111324 
L 170.82556 216.296185 
L 170.939916 218.120398 
L 171.054273 210.06622 
L 171.282986 213.216196 
L 171.397342 213.4121 
L 171.511699 216.695232 
L 171.626055 212.801756 
L 171.740412 214.760884 
L 171.854768 211.228671 
L 171.969125 213.39141 
L 172.083481 210.257206 
L 172.197837 211.67989 
L 172.312194 210.042702 
L 172.42655 213.582851 
L 172.540907 213.582652 
L 172.655263 212.700589 
L 172.883976 209.390129 
L 173.112689 211.058046 
L 173.227046 214.404728 
L 173.341402 211.985473 
L 173.455759 205.906029 
L 173.570115 213.825578 
L 173.798828 207.744656 
L 173.913184 212.645085 
L 174.027541 211.815153 
L 174.141897 206.925858 
L 174.256254 211.810729 
L 174.37061 210.506025 
L 174.484967 211.277854 
L 174.71368 214.292071 
L 174.942393 203.858751 
L 175.056749 211.875711 
L 175.171105 211.148257 
L 175.285462 213.44186 
L 175.399818 209.830151 
L 175.514175 219.881244 
L 175.628531 206.038936 
L 175.742888 214.983318 
L 175.857244 209.192961 
L 175.971601 214.703724 
L 176.085957 206.914553 
L 176.200314 213.519613 
L 176.31467 205.209338 
L 176.429027 209.843419 
L 176.657739 208.256103 
L 176.772096 213.355668 
L 176.886452 212.716632 
L 177.000809 207.743584 
L 177.115165 208.844421 
L 177.229522 214.628884 
L 177.343878 205.326195 
L 177.572591 217.194024 
L 177.686948 211.380566 
L 177.915661 218.363761 
L 178.030017 217.716211 
L 178.144373 215.961544 
L 178.25873 217.920551 
L 178.601799 215.096419 
L 178.716156 217.097098 
L 178.830512 222.171969 
L 179.059225 215.577668 
L 179.173582 211.966706 
L 179.402295 219.067865 
L 179.516651 214.098517 
L 179.631007 219.552275 
L 179.745364 215.142355 
L 179.974077 218.707497 
L 180.088433 214.354383 
L 180.317146 221.995573 
L 180.545859 217.026584 
L 180.660216 215.67018 
L 180.774572 220.19375 
L 180.888929 212.712854 
L 181.003285 217.4496 
L 181.117641 216.667336 
L 181.346354 212.882453 
L 181.575067 215.212718 
L 181.689424 213.401955 
L 181.80378 214.679085 
L 181.918137 218.120754 
L 182.032493 214.270598 
L 182.261206 222.182341 
L 182.375562 219.075275 
L 182.489919 219.209648 
L 182.604275 212.534834 
L 182.718632 215.34012 
L 182.832988 221.449146 
L 182.947345 218.612258 
L 183.061701 221.055379 
L 183.176058 214.089858 
L 183.290414 215.26534 
L 183.404771 218.003512 
L 183.519127 215.383749 
L 183.633484 215.489803 
L 183.74784 214.108275 
L 183.862196 216.330304 
L 183.976553 213.172979 
L 184.090909 217.631135 
L 184.205266 215.470072 
L 184.319622 216.888101 
L 184.433979 216.348861 
L 184.548335 209.728282 
L 184.777048 216.865104 
L 184.891405 215.125164 
L 185.005761 215.284118 
L 185.234474 216.293279 
L 185.34883 210.977238 
L 185.577543 213.251626 
L 185.6919 217.367611 
L 185.806256 216.425223 
L 185.920613 218.684499 
L 186.034969 218.598208 
L 186.149326 211.894129 
L 186.263682 211.743416 
L 186.378039 215.410244 
L 186.492395 215.324703 
L 186.721108 211.695619 
L 186.949821 215.020643 
L 187.178534 209.265144 
L 187.407247 219.464532 
L 187.63596 207.524793 
L 187.864673 220.178983 
L 188.093386 219.774321 
L 188.207742 216.764984 
L 188.436455 220.38854 
L 188.550811 222.003289 
L 188.779524 216.085919 
L 188.893881 216.207187 
L 189.23695 223.213048 
L 189.465663 221.552872 
L 189.58002 222.852513 
L 189.808732 217.449315 
L 189.923089 215.640309 
L 190.037445 222.218818 
L 190.266158 220.046885 
L 190.380515 219.936649 
L 190.609228 225.735422 
L 191.066654 217.939129 
L 191.409723 221.970555 
L 191.638436 215.049759 
L 191.867149 215.818784 
L 191.981505 222.295922 
L 192.095862 217.638482 
L 192.324575 221.496165 
L 192.438931 218.228262 
L 192.553287 219.604462 
L 192.667644 212.60747 
L 193.010713 221.001082 
L 193.12507 218.744108 
L 193.239426 220.791828 
L 193.468139 217.73324 
L 193.582496 216.424914 
L 193.696852 217.337883 
L 193.811209 216.844063 
L 193.925565 210.289564 
L 194.154278 219.65642 
L 194.268634 216.221909 
L 194.382991 216.750502 
L 194.497347 214.093865 
L 194.611704 217.838283 
L 194.72606 217.210396 
L 194.840417 215.59981 
L 195.06913 220.77917 
L 195.183486 218.521502 
L 195.297843 213.860733 
L 195.526555 220.368034 
L 195.640912 215.984883 
L 195.755268 216.781329 
L 195.869625 214.231056 
L 195.983981 217.243802 
L 196.098338 214.308116 
L 196.212694 216.682568 
L 196.327051 214.956126 
L 196.441407 215.850716 
L 196.555764 214.543557 
L 196.784477 217.403029 
L 196.898833 217.579826 
L 197.013189 213.260396 
L 197.127546 218.174575 
L 197.356259 208.786289 
L 197.470615 208.14034 
L 197.699328 215.655714 
L 197.813685 211.524493 
L 198.042398 221.640043 
L 198.156754 217.395073 
L 198.271111 223.611874 
L 198.385467 218.742927 
L 198.728536 224.026727 
L 198.842893 220.377737 
L 198.957249 221.13824 
L 199.071606 219.093424 
L 199.185962 221.514732 
L 199.300319 219.547918 
L 199.414675 223.549611 
L 199.529032 222.231713 
L 199.643388 223.004794 
L 199.757745 218.370684 
L 199.872101 218.465296 
L 199.986457 222.09979 
L 200.100814 220.879458 
L 200.21517 216.469135 
L 200.55824 222.028115 
L 200.672596 222.409515 
L 200.786953 216.827403 
L 200.901309 225.530986 
L 201.015666 215.843642 
L 201.130022 222.287913 
L 201.358735 217.930735 
L 201.473091 216.787574 
L 201.587448 218.688989 
L 201.701804 217.590972 
L 201.816161 219.875728 
L 201.930517 218.961282 
L 202.044874 219.766086 
L 202.15923 216.749689 
L 202.273587 217.157557 
L 202.387943 219.084015 
L 202.5023 224.377821 
L 202.731012 213.489442 
L 202.845369 219.895172 
L 203.074082 217.868815 
L 203.302795 223.207639 
L 203.417151 216.819058 
L 203.531508 220.105655 
L 203.645864 219.980574 
L 203.874577 214.295593 
L 203.988934 220.568165 
L 204.217646 214.036029 
L 204.446359 216.501601 
L 204.560716 216.031934 
L 204.675072 217.071616 
L 204.789429 222.673822 
L 205.018142 216.633962 
L 205.132498 218.79361 
L 205.246855 218.074835 
L 205.475568 218.603014 
L 205.589924 218.145369 
L 205.70428 219.951712 
L 205.932993 217.850263 
L 206.04735 219.518178 
L 206.161706 211.764878 
L 206.276063 218.49334 
L 206.390419 216.41232 
L 206.619132 221.058569 
L 206.733489 220.27421 
L 206.847845 216.631653 
L 206.962202 219.118475 
L 207.076558 215.19724 
L 207.190914 217.106688 
L 207.305271 223.778303 
L 207.533984 218.532739 
L 207.64834 215.95041 
L 207.762697 210.754922 
L 207.877053 219.193418 
L 207.99141 214.014318 
L 208.220123 223.183722 
L 208.334479 211.273891 
L 208.563192 224.06968 
L 208.677548 219.078746 
L 208.791905 222.731689 
L 208.906261 221.94289 
L 209.020618 223.895438 
L 209.249331 222.40808 
L 209.363687 223.999586 
L 209.478044 223.08441 
L 209.706757 223.82281 
L 209.821113 222.182339 
L 210.049826 225.758512 
L 210.164182 221.325842 
L 210.278539 224.308489 
L 210.392895 216.469554 
L 210.507252 222.979321 
L 210.735965 218.716626 
L 210.850321 213.960366 
L 210.964678 221.692774 
L 211.079034 220.331881 
L 211.193391 220.487045 
L 211.307747 222.568857 
L 211.422104 222.075033 
L 211.53646 225.103653 
L 211.650816 218.591197 
L 211.765173 219.751067 
L 211.993886 224.231887 
L 212.222599 216.192143 
L 212.336955 222.26129 
L 212.451312 217.152816 
L 212.680025 223.814894 
L 212.908737 219.043747 
L 213.023094 219.215735 
L 213.13745 220.596974 
L 213.251807 224.878315 
L 213.366163 219.164423 
L 213.48052 226.564468 
L 213.709233 220.457685 
L 213.823589 219.935179 
L 214.052302 222.389173 
L 214.166659 223.039301 
L 214.281015 221.332236 
L 214.395371 225.48348 
L 214.624084 221.586614 
L 214.738441 223.211198 
L 214.852797 220.417277 
L 214.967154 223.20121 
L 215.08151 219.622659 
L 215.195867 221.096901 
L 215.310223 216.359213 
L 215.538936 221.022406 
L 215.653293 219.927023 
L 215.767649 225.098132 
L 215.882005 219.023583 
L 215.996362 219.507948 
L 216.110718 222.026746 
L 216.339431 216.381848 
L 216.453788 221.943556 
L 216.568144 220.937664 
L 216.911214 214.753813 
L 217.02557 210.307003 
L 217.139927 219.602556 
L 217.368639 213.488032 
L 217.482996 221.874759 
L 217.597352 219.081571 
L 217.711709 221.639818 
L 217.826065 217.313269 
L 217.940422 224.847931 
L 218.054778 216.711687 
L 218.169135 218.108343 
L 218.283491 217.660451 
L 218.397848 220.133704 
L 218.512204 214.966549 
L 218.626561 215.362995 
L 218.855273 227.322562 
L 218.96963 227.436705 
L 219.198343 223.834604 
L 219.312699 227.328433 
L 219.427056 225.689989 
L 219.541412 220.822599 
L 219.655769 225.855926 
L 219.770125 223.632371 
L 219.884482 223.985212 
L 219.998838 222.237053 
L 220.113195 226.068835 
L 220.227551 220.631218 
L 220.341907 221.430858 
L 220.456264 227.022462 
L 220.57062 222.731221 
L 220.684977 225.864116 
L 220.799333 222.086183 
L 220.91369 228.067531 
L 221.028046 221.6377 
L 221.142403 224.16109 
L 221.256759 222.168066 
L 221.485472 226.429223 
L 221.714185 221.947248 
L 221.828541 223.500136 
L 221.942898 219.702195 
L 222.171611 221.202153 
L 222.285967 224.641925 
L 222.400324 224.448318 
L 222.51468 221.998717 
L 222.629037 222.371013 
L 222.743393 221.808809 
L 222.85775 224.337154 
L 222.972106 218.469157 
L 223.086462 228.03552 
L 223.200819 228.262094 
L 223.429532 223.401118 
L 223.543888 224.764741 
L 223.772601 222.344374 
L 223.886958 216.027048 
L 224.001314 222.103138 
L 224.115671 216.471271 
L 224.230027 220.196265 
L 224.344384 218.655807 
L 224.573096 221.296149 
L 224.687453 224.80608 
L 224.801809 222.260594 
L 225.030522 225.465244 
L 225.144879 224.834883 
L 225.373592 218.328879 
L 225.487948 221.279843 
L 225.602305 218.573588 
L 225.716661 223.838608 
L 225.831018 223.193595 
L 225.945374 224.226095 
L 226.05973 224.08493 
L 226.174087 223.718534 
L 226.288443 215.983197 
L 226.517156 225.365804 
L 226.860226 221.638061 
L 227.088939 220.358235 
L 227.203295 220.432812 
L 227.317652 221.45996 
L 227.432008 218.96697 
L 227.546364 224.058558 
L 227.660721 221.823358 
L 227.775077 223.46113 
L 227.889434 218.872565 
L 228.00379 223.055472 
L 228.232503 216.906409 
L 228.575573 223.090103 
L 228.689929 216.446506 
L 228.804286 217.856 
L 228.918642 210.169938 
L 229.147355 225.053996 
L 229.261711 226.91845 
L 229.376068 226.012011 
L 229.719137 218.740554 
L 229.94785 225.85036 
L 230.176563 221.718522 
L 230.29092 222.277093 
L 230.405276 225.043863 
L 230.519632 224.459597 
L 230.633989 227.524547 
L 230.977058 222.515731 
L 231.091415 225.418734 
L 231.205771 223.82279 
L 231.320128 224.886405 
L 231.434484 224.87182 
L 231.548841 224.563495 
L 231.663197 227.091261 
L 231.89191 222.135845 
L 232.006266 226.572579 
L 232.120623 225.741805 
L 232.234979 221.524478 
L 232.578049 227.2055 
L 232.692405 218.321276 
L 232.806762 224.725216 
L 232.921118 222.8101 
L 233.149831 222.918841 
L 233.264187 225.482795 
L 233.4929 220.554317 
L 233.607257 221.635968 
L 233.721613 226.942515 
L 233.83597 224.410733 
L 233.950326 226.079506 
L 234.064683 221.837909 
L 234.179039 222.116821 
L 234.293396 224.166028 
L 234.407752 218.826397 
L 234.636465 223.904256 
L 234.865178 219.061339 
L 234.979534 222.627575 
L 235.208247 219.014175 
L 235.43696 224.659838 
L 235.551317 218.018819 
L 235.665673 222.679196 
L 235.78003 220.039471 
L 235.894386 225.747851 
L 236.008743 220.706969 
L 236.237455 224.59007 
L 236.351812 222.991509 
L 236.466168 224.58413 
L 236.580525 218.55616 
L 236.694881 219.625585 
L 236.923594 224.564875 
L 237.037951 216.034015 
L 237.152307 225.553784 
L 237.266664 220.164507 
L 237.38102 220.4859 
L 237.495377 220.419201 
L 237.609733 219.611625 
L 237.724089 221.672108 
L 237.838446 219.753514 
L 237.952802 225.066562 
L 238.067159 223.219581 
L 238.295872 218.06589 
L 238.410228 220.150719 
L 238.524585 228.163564 
L 238.753298 217.103122 
L 238.982011 221.381085 
L 239.210723 217.821405 
L 239.439436 227.135517 
L 239.553793 230.663146 
L 239.668149 225.173757 
L 239.782506 226.030467 
L 240.011219 224.364884 
L 240.239932 225.543726 
L 240.354288 225.803492 
L 240.697357 221.099192 
L 240.811714 229.094035 
L 241.040427 225.524429 
L 241.26914 222.088736 
L 241.383496 227.113361 
L 241.497853 226.009969 
L 241.612209 226.94528 
L 241.955279 224.294125 
L 242.069635 227.628044 
L 242.298348 223.610822 
L 242.412704 229.450575 
L 242.641417 222.194306 
L 242.755774 228.723513 
L 242.87013 220.283671 
L 242.984487 224.855365 
L 243.098843 219.863228 
L 243.2132 225.039717 
L 243.327556 223.822504 
L 243.556269 226.756769 
L 243.670625 228.285037 
L 243.784982 221.968803 
L 243.899338 228.445849 
L 244.013695 219.723817 
L 244.356764 227.9373 
L 244.471121 222.384273 
L 244.585477 225.87399 
L 244.699834 220.088384 
L 244.928546 226.04479 
L 245.271616 220.16606 
L 245.500329 225.330755 
L 245.729042 222.556164 
L 246.072111 224.401258 
L 246.186468 223.795831 
L 246.300824 222.213724 
L 246.41518 224.816934 
L 246.529537 224.45281 
L 246.643893 225.328083 
L 246.75825 223.949479 
L 246.872606 226.191772 
L 246.986963 221.943681 
L 247.101319 227.780258 
L 247.330032 223.646879 
L 247.444389 223.21458 
L 247.558745 220.660955 
L 247.673102 225.326955 
L 247.901814 220.885755 
L 248.016171 222.814344 
L 248.130527 221.069116 
L 248.244884 221.656963 
L 248.35924 225.314325 
L 248.473597 220.900883 
L 248.587953 222.331944 
L 248.70231 226.113759 
L 248.816666 225.509239 
L 248.931023 222.889618 
L 249.045379 225.472087 
L 249.159736 224.987916 
L 249.388448 221.096995 
L 249.502805 231.9 
L 249.731518 228.225863 
L 249.960231 226.790349 
L 250.074587 227.103936 
L 250.188944 224.950656 
L 250.417657 228.056942 
L 250.532013 228.400722 
L 250.760726 227.543554 
L 250.875082 227.736651 
L 251.103795 218.649561 
L 251.218152 227.012759 
L 251.332508 226.791307 
L 251.446865 224.735127 
L 251.561221 224.878644 
L 251.789934 228.242185 
L 251.904291 224.498735 
L 252.018647 226.922472 
L 252.133003 224.108312 
L 252.361716 228.110657 
L 252.476073 228.936488 
L 252.590429 224.110193 
L 252.704786 225.88521 
L 252.819142 224.31442 
L 252.933499 228.609735 
L 253.047855 228.180664 
L 253.162212 225.298746 
L 253.276568 225.859845 
L 253.390925 225.647244 
L 253.505281 228.109951 
L 253.619637 227.734383 
L 253.733994 226.183697 
L 253.962707 227.024887 
L 254.077063 224.152439 
L 254.19142 226.375002 
L 254.305776 224.424656 
L 254.420133 226.153366 
L 254.648846 225.133081 
L 254.763202 228.782763 
L 254.991915 223.238414 
L 255.220628 227.654549 
L 255.334984 228.426566 
L 255.449341 226.874403 
L 255.563697 222.622828 
L 255.678054 226.41605 
L 255.79241 224.157314 
L 255.906767 227.777295 
L 256.13548 222.865662 
L 256.364193 226.178479 
L 256.478549 222.010282 
L 256.592905 225.611184 
L 256.707262 225.636206 
L 256.821618 226.192931 
L 257.050331 220.90955 
L 257.164688 227.849707 
L 257.279044 221.91731 
L 257.393401 227.105632 
L 257.507757 221.200477 
L 257.622114 227.949848 
L 257.73647 226.473067 
L 257.850827 222.597153 
L 258.079539 223.79863 
L 258.193896 227.497487 
L 258.308252 224.675125 
L 258.422609 226.916857 
L 258.651322 222.868457 
L 258.765678 225.007062 
L 258.880035 222.224889 
L 258.994391 227.031419 
L 259.223104 223.2837 
L 259.337461 225.787751 
L 259.451817 224.621207 
L 259.566173 221.042536 
L 259.68053 223.858788 
L 259.794886 220.9138 
L 259.794886 220.9138 
" style="fill:none;stroke:#1f77b4;stroke-linecap:square;stroke-width:2;"/>
   </g>
   <g id="patch_3">
    <path d="M 43.78125 242.6 
L 43.78125 7.2 
" style="fill:none;stroke:#000000;stroke-linecap:square;stroke-linejoin:miter;stroke-width:0.8;"/>
   </g>
   <g id="patch_4">
    <path d="M 270.08125 242.6 
L 270.08125 7.2 
" style="fill:none;stroke:#000000;stroke-linecap:square;stroke-linejoin:miter;stroke-width:0.8;"/>
   </g>
   <g id="patch_5">
    <path d="M 43.78125 242.6 
L 270.08125 242.6 
" style="fill:none;stroke:#000000;stroke-linecap:square;stroke-linejoin:miter;stroke-width:0.8;"/>
   </g>
   <g id="patch_6">
    <path d="M 43.78125 7.2 
L 270.08125 7.2 
" style="fill:none;stroke:#000000;stroke-linecap:square;stroke-linejoin:miter;stroke-width:0.8;"/>
   </g>
  </g>
  <g id="axes_2">
   <g id="patch_7">
    <path d="M 333.33125 242.6 
L 559.63125 242.6 
L 559.63125 7.2 
L 333.33125 7.2 
z
" style="fill:#ffffff;"/>
   </g>
   <g id="matplotlib.axis_3">
    <g id="xtick_5">
     <g id="line2d_12">
      <g>
       <use style="stroke:#000000;stroke-width:0.8;" x="343.617614" xlink:href="#m894560f7a7" y="242.6"/>
      </g>
     </g>
     <g id="text_13">
      <!-- 0 -->
      <g transform="translate(340.436364 257.198438)scale(0.1 -0.1)">
       <use xlink:href="#DejaVuSans-48"/>
      </g>
     </g>
    </g>
    <g id="xtick_6">
     <g id="line2d_13">
      <g>
       <use style="stroke:#000000;stroke-width:0.8;" x="397.75637" xlink:href="#m894560f7a7" y="242.6"/>
      </g>
     </g>
     <g id="text_14">
      <!-- 5 -->
      <g transform="translate(394.57512 257.198438)scale(0.1 -0.1)">
       <use xlink:href="#DejaVuSans-53"/>
      </g>
     </g>
    </g>
    <g id="xtick_7">
     <g id="line2d_14">
      <g>
       <use style="stroke:#000000;stroke-width:0.8;" x="451.895126" xlink:href="#m894560f7a7" y="242.6"/>
      </g>
     </g>
     <g id="text_15">
      <!-- 10 -->
      <g transform="translate(445.532626 257.198438)scale(0.1 -0.1)">
       <use xlink:href="#DejaVuSans-49"/>
       <use x="63.623047" xlink:href="#DejaVuSans-48"/>
      </g>
     </g>
    </g>
    <g id="xtick_8">
     <g id="line2d_15">
      <g>
       <use style="stroke:#000000;stroke-width:0.8;" x="506.033882" xlink:href="#m894560f7a7" y="242.6"/>
      </g>
     </g>
     <g id="text_16">
      <!-- 15 -->
      <g transform="translate(499.671382 257.198438)scale(0.1 -0.1)">
       <use xlink:href="#DejaVuSans-49"/>
       <use x="63.623047" xlink:href="#DejaVuSans-53"/>
      </g>
     </g>
    </g>
    <g id="text_17">
     <!-- steps (in 100s) -->
     <g transform="translate(409.275 270.876562)scale(0.1 -0.1)">
      <defs>
       <path d="M 31 75.875 
Q 24.46875 64.65625 21.28125 53.65625 
Q 18.109375 42.671875 18.109375 31.390625 
Q 18.109375 20.125 21.3125 9.0625 
Q 24.515625 -2 31 -13.1875 
L 23.1875 -13.1875 
Q 15.875 -1.703125 12.234375 9.375 
Q 8.59375 20.453125 8.59375 31.390625 
Q 8.59375 42.28125 12.203125 53.3125 
Q 15.828125 64.359375 23.1875 75.875 
z
" id="DejaVuSans-40"/>
       <path d="M 8.015625 75.875 
L 15.828125 75.875 
Q 23.140625 64.359375 26.78125 53.3125 
Q 30.421875 42.28125 30.421875 31.390625 
Q 30.421875 20.453125 26.78125 9.375 
Q 23.140625 -1.703125 15.828125 -13.1875 
L 8.015625 -13.1875 
Q 14.5 -2 17.703125 9.0625 
Q 20.90625 20.125 20.90625 31.390625 
Q 20.90625 42.671875 17.703125 53.65625 
Q 14.5 64.65625 8.015625 75.875 
z
" id="DejaVuSans-41"/>
      </defs>
      <use xlink:href="#DejaVuSans-115"/>
      <use x="52.099609" xlink:href="#DejaVuSans-116"/>
      <use x="91.308594" xlink:href="#DejaVuSans-101"/>
      <use x="152.832031" xlink:href="#DejaVuSans-112"/>
      <use x="216.308594" xlink:href="#DejaVuSans-115"/>
      <use x="268.408203" xlink:href="#DejaVuSans-32"/>
      <use x="300.195312" xlink:href="#DejaVuSans-40"/>
      <use x="339.208984" xlink:href="#DejaVuSans-105"/>
      <use x="366.992188" xlink:href="#DejaVuSans-110"/>
      <use x="430.371094" xlink:href="#DejaVuSans-32"/>
      <use x="462.158203" xlink:href="#DejaVuSans-49"/>
      <use x="525.78125" xlink:href="#DejaVuSans-48"/>
      <use x="589.404297" xlink:href="#DejaVuSans-48"/>
      <use x="653.027344" xlink:href="#DejaVuSans-115"/>
      <use x="705.126953" xlink:href="#DejaVuSans-41"/>
     </g>
    </g>
   </g>
   <g id="matplotlib.axis_4">
    <g id="ytick_7">
     <g id="line2d_16">
      <g>
       <use style="stroke:#000000;stroke-width:0.8;" x="333.33125" xlink:href="#m43f33c0347" y="230.813789"/>
      </g>
     </g>
     <g id="text_18">
      <!-- 2.0 -->
      <g transform="translate(310.428125 234.613007)scale(0.1 -0.1)">
       <use xlink:href="#DejaVuSans-50"/>
       <use x="63.623047" xlink:href="#DejaVuSans-46"/>
       <use x="95.410156" xlink:href="#DejaVuSans-48"/>
      </g>
     </g>
    </g>
    <g id="ytick_8">
     <g id="line2d_17">
      <g>
       <use style="stroke:#000000;stroke-width:0.8;" x="333.33125" xlink:href="#m43f33c0347" y="197.074371"/>
      </g>
     </g>
     <g id="text_19">
      <!-- 2.5 -->
      <g transform="translate(310.428125 200.87359)scale(0.1 -0.1)">
       <use xlink:href="#DejaVuSans-50"/>
       <use x="63.623047" xlink:href="#DejaVuSans-46"/>
       <use x="95.410156" xlink:href="#DejaVuSans-53"/>
      </g>
     </g>
    </g>
    <g id="ytick_9">
     <g id="line2d_18">
      <g>
       <use style="stroke:#000000;stroke-width:0.8;" x="333.33125" xlink:href="#m43f33c0347" y="163.334954"/>
      </g>
     </g>
     <g id="text_20">
      <!-- 3.0 -->
      <g transform="translate(310.428125 167.134173)scale(0.1 -0.1)">
       <defs>
        <path d="M 40.578125 39.3125 
Q 47.65625 37.796875 51.625 33 
Q 55.609375 28.21875 55.609375 21.1875 
Q 55.609375 10.40625 48.1875 4.484375 
Q 40.765625 -1.421875 27.09375 -1.421875 
Q 22.515625 -1.421875 17.65625 -0.515625 
Q 12.796875 0.390625 7.625 2.203125 
L 7.625 11.71875 
Q 11.71875 9.328125 16.59375 8.109375 
Q 21.484375 6.890625 26.8125 6.890625 
Q 36.078125 6.890625 40.9375 10.546875 
Q 45.796875 14.203125 45.796875 21.1875 
Q 45.796875 27.640625 41.28125 31.265625 
Q 36.765625 34.90625 28.71875 34.90625 
L 20.21875 34.90625 
L 20.21875 43.015625 
L 29.109375 43.015625 
Q 36.375 43.015625 40.234375 45.921875 
Q 44.09375 48.828125 44.09375 54.296875 
Q 44.09375 59.90625 40.109375 62.90625 
Q 36.140625 65.921875 28.71875 65.921875 
Q 24.65625 65.921875 20.015625 65.03125 
Q 15.375 64.15625 9.8125 62.3125 
L 9.8125 71.09375 
Q 15.4375 72.65625 20.34375 73.4375 
Q 25.25 74.21875 29.59375 74.21875 
Q 40.828125 74.21875 47.359375 69.109375 
Q 53.90625 64.015625 53.90625 55.328125 
Q 53.90625 49.265625 50.4375 45.09375 
Q 46.96875 40.921875 40.578125 39.3125 
z
" id="DejaVuSans-51"/>
       </defs>
       <use xlink:href="#DejaVuSans-51"/>
       <use x="63.623047" xlink:href="#DejaVuSans-46"/>
       <use x="95.410156" xlink:href="#DejaVuSans-48"/>
      </g>
     </g>
    </g>
    <g id="ytick_10">
     <g id="line2d_19">
      <g>
       <use style="stroke:#000000;stroke-width:0.8;" x="333.33125" xlink:href="#m43f33c0347" y="129.595537"/>
      </g>
     </g>
     <g id="text_21">
      <!-- 3.5 -->
      <g transform="translate(310.428125 133.394755)scale(0.1 -0.1)">
       <use xlink:href="#DejaVuSans-51"/>
       <use x="63.623047" xlink:href="#DejaVuSans-46"/>
       <use x="95.410156" xlink:href="#DejaVuSans-53"/>
      </g>
     </g>
    </g>
    <g id="ytick_11">
     <g id="line2d_20">
      <g>
       <use style="stroke:#000000;stroke-width:0.8;" x="333.33125" xlink:href="#m43f33c0347" y="95.856119"/>
      </g>
     </g>
     <g id="text_22">
      <!-- 4.0 -->
      <g transform="translate(310.428125 99.655338)scale(0.1 -0.1)">
       <defs>
        <path d="M 37.796875 64.3125 
L 12.890625 25.390625 
L 37.796875 25.390625 
z
M 35.203125 72.90625 
L 47.609375 72.90625 
L 47.609375 25.390625 
L 58.015625 25.390625 
L 58.015625 17.1875 
L 47.609375 17.1875 
L 47.609375 0 
L 37.796875 0 
L 37.796875 17.1875 
L 4.890625 17.1875 
L 4.890625 26.703125 
z
" id="DejaVuSans-52"/>
       </defs>
       <use xlink:href="#DejaVuSans-52"/>
       <use x="63.623047" xlink:href="#DejaVuSans-46"/>
       <use x="95.410156" xlink:href="#DejaVuSans-48"/>
      </g>
     </g>
    </g>
    <g id="ytick_12">
     <g id="line2d_21">
      <g>
       <use style="stroke:#000000;stroke-width:0.8;" x="333.33125" xlink:href="#m43f33c0347" y="62.116702"/>
      </g>
     </g>
     <g id="text_23">
      <!-- 4.5 -->
      <g transform="translate(310.428125 65.915921)scale(0.1 -0.1)">
       <use xlink:href="#DejaVuSans-52"/>
       <use x="63.623047" xlink:href="#DejaVuSans-46"/>
       <use x="95.410156" xlink:href="#DejaVuSans-53"/>
      </g>
     </g>
    </g>
    <g id="ytick_13">
     <g id="line2d_22">
      <g>
       <use style="stroke:#000000;stroke-width:0.8;" x="333.33125" xlink:href="#m43f33c0347" y="28.377285"/>
      </g>
     </g>
     <g id="text_24">
      <!-- 5.0 -->
      <g transform="translate(310.428125 32.176503)scale(0.1 -0.1)">
       <use xlink:href="#DejaVuSans-53"/>
       <use x="63.623047" xlink:href="#DejaVuSans-46"/>
       <use x="95.410156" xlink:href="#DejaVuSans-48"/>
      </g>
     </g>
    </g>
    <g id="text_25">
     <!-- D given dev -->
     <g transform="translate(304.348437 154.90625)rotate(-90)scale(0.1 -0.1)">
      <defs>
       <path d="M 19.671875 64.796875 
L 19.671875 8.109375 
L 31.59375 8.109375 
Q 46.6875 8.109375 53.6875 14.9375 
Q 60.6875 21.78125 60.6875 36.53125 
Q 60.6875 51.171875 53.6875 57.984375 
Q 46.6875 64.796875 31.59375 64.796875 
z
M 9.8125 72.90625 
L 30.078125 72.90625 
Q 51.265625 72.90625 61.171875 64.09375 
Q 71.09375 55.28125 71.09375 36.53125 
Q 71.09375 17.671875 61.125 8.828125 
Q 51.171875 0 30.078125 0 
L 9.8125 0 
z
" id="DejaVuSans-68"/>
       <path d="M 2.984375 54.6875 
L 12.5 54.6875 
L 29.59375 8.796875 
L 46.6875 54.6875 
L 56.203125 54.6875 
L 35.6875 0 
L 23.484375 0 
z
" id="DejaVuSans-118"/>
       <path d="M 45.40625 46.390625 
L 45.40625 75.984375 
L 54.390625 75.984375 
L 54.390625 0 
L 45.40625 0 
L 45.40625 8.203125 
Q 42.578125 3.328125 38.25 0.953125 
Q 33.9375 -1.421875 27.875 -1.421875 
Q 17.96875 -1.421875 11.734375 6.484375 
Q 5.515625 14.40625 5.515625 27.296875 
Q 5.515625 40.1875 11.734375 48.09375 
Q 17.96875 56 27.875 56 
Q 33.9375 56 38.25 53.625 
Q 42.578125 51.265625 45.40625 46.390625 
z
M 14.796875 27.296875 
Q 14.796875 17.390625 18.875 11.75 
Q 22.953125 6.109375 30.078125 6.109375 
Q 37.203125 6.109375 41.296875 11.75 
Q 45.40625 17.390625 45.40625 27.296875 
Q 45.40625 37.203125 41.296875 42.84375 
Q 37.203125 48.484375 30.078125 48.484375 
Q 22.953125 48.484375 18.875 42.84375 
Q 14.796875 37.203125 14.796875 27.296875 
z
" id="DejaVuSans-100"/>
      </defs>
      <use xlink:href="#DejaVuSans-68"/>
      <use x="77.001953" xlink:href="#DejaVuSans-32"/>
      <use x="108.789062" xlink:href="#DejaVuSans-103"/>
      <use x="172.265625" xlink:href="#DejaVuSans-105"/>
      <use x="200.048828" xlink:href="#DejaVuSans-118"/>
      <use x="259.228516" xlink:href="#DejaVuSans-101"/>
      <use x="320.751953" xlink:href="#DejaVuSans-110"/>
      <use x="384.130859" xlink:href="#DejaVuSans-32"/>
      <use x="415.917969" xlink:href="#DejaVuSans-100"/>
      <use x="479.394531" xlink:href="#DejaVuSans-101"/>
      <use x="540.917969" xlink:href="#DejaVuSans-118"/>
     </g>
    </g>
   </g>
   <g id="line2d_23">
    <path clip-path="url(#pc0940caa27)" d="M 343.617614 182.684435 
L 354.445365 183.909922 
L 365.273116 215.931569 
L 376.100867 227.539983 
L 386.928618 231.9 
L 397.75637 226.530191 
L 408.584121 215.253419 
L 419.411872 205.656191 
L 430.239623 181.001045 
L 441.067374 172.102818 
L 451.895126 145.9872 
L 462.722877 123.619717 
L 473.550628 92.20268 
L 484.378379 65.097557 
L 495.20613 57.868868 
L 506.033882 42.172698 
L 516.861633 43.957555 
L 527.689384 34.925249 
L 538.517135 18.819859 
L 549.344886 17.9 
" style="fill:none;stroke:#1f77b4;stroke-linecap:square;stroke-width:2;"/>
   </g>
   <g id="patch_8">
    <path d="M 333.33125 242.6 
L 333.33125 7.2 
" style="fill:none;stroke:#000000;stroke-linecap:square;stroke-linejoin:miter;stroke-width:0.8;"/>
   </g>
   <g id="patch_9">
    <path d="M 559.63125 242.6 
L 559.63125 7.2 
" style="fill:none;stroke:#000000;stroke-linecap:square;stroke-linejoin:miter;stroke-width:0.8;"/>
   </g>
   <g id="patch_10">
    <path d="M 333.33125 242.6 
L 559.63125 242.6 
" style="fill:none;stroke:#000000;stroke-linecap:square;stroke-linejoin:miter;stroke-width:0.8;"/>
   </g>
   <g id="patch_11">
    <path d="M 333.33125 7.2 
L 559.63125 7.2 
" style="fill:none;stroke:#000000;stroke-linecap:square;stroke-linejoin:miter;stroke-width:0.8;"/>
   </g>
  </g>
  <g id="axes_3">
   <g id="patch_12">
    <path d="M 622.88125 242.6 
L 849.18125 242.6 
L 849.18125 7.2 
L 622.88125 7.2 
z
" style="fill:#ffffff;"/>
   </g>
   <g id="matplotlib.axis_5">
    <g id="xtick_9">
     <g id="line2d_24">
      <g>
       <use style="stroke:#000000;stroke-width:0.8;" x="633.167614" xlink:href="#m894560f7a7" y="242.6"/>
      </g>
     </g>
     <g id="text_26">
      <!-- 0 -->
      <g transform="translate(629.986364 257.198438)scale(0.1 -0.1)">
       <use xlink:href="#DejaVuSans-48"/>
      </g>
     </g>
    </g>
    <g id="xtick_10">
     <g id="line2d_25">
      <g>
       <use style="stroke:#000000;stroke-width:0.8;" x="687.30637" xlink:href="#m894560f7a7" y="242.6"/>
      </g>
     </g>
     <g id="text_27">
      <!-- 5 -->
      <g transform="translate(684.12512 257.198438)scale(0.1 -0.1)">
       <use xlink:href="#DejaVuSans-53"/>
      </g>
     </g>
    </g>
    <g id="xtick_11">
     <g id="line2d_26">
      <g>
       <use style="stroke:#000000;stroke-width:0.8;" x="741.445126" xlink:href="#m894560f7a7" y="242.6"/>
      </g>
     </g>
     <g id="text_28">
      <!-- 10 -->
      <g transform="translate(735.082626 257.198438)scale(0.1 -0.1)">
       <use xlink:href="#DejaVuSans-49"/>
       <use x="63.623047" xlink:href="#DejaVuSans-48"/>
      </g>
     </g>
    </g>
    <g id="xtick_12">
     <g id="line2d_27">
      <g>
       <use style="stroke:#000000;stroke-width:0.8;" x="795.583882" xlink:href="#m894560f7a7" y="242.6"/>
      </g>
     </g>
     <g id="text_29">
      <!-- 15 -->
      <g transform="translate(789.221382 257.198438)scale(0.1 -0.1)">
       <use xlink:href="#DejaVuSans-49"/>
       <use x="63.623047" xlink:href="#DejaVuSans-53"/>
      </g>
     </g>
    </g>
    <g id="text_30">
     <!-- steps (in 10s) -->
     <g transform="translate(702.00625 270.876562)scale(0.1 -0.1)">
      <use xlink:href="#DejaVuSans-115"/>
      <use x="52.099609" xlink:href="#DejaVuSans-116"/>
      <use x="91.308594" xlink:href="#DejaVuSans-101"/>
      <use x="152.832031" xlink:href="#DejaVuSans-112"/>
      <use x="216.308594" xlink:href="#DejaVuSans-115"/>
      <use x="268.408203" xlink:href="#DejaVuSans-32"/>
      <use x="300.195312" xlink:href="#DejaVuSans-40"/>
      <use x="339.208984" xlink:href="#DejaVuSans-105"/>
      <use x="366.992188" xlink:href="#DejaVuSans-110"/>
      <use x="430.371094" xlink:href="#DejaVuSans-32"/>
      <use x="462.158203" xlink:href="#DejaVuSans-49"/>
      <use x="525.78125" xlink:href="#DejaVuSans-48"/>
      <use x="589.404297" xlink:href="#DejaVuSans-115"/>
      <use x="641.503906" xlink:href="#DejaVuSans-41"/>
     </g>
    </g>
   </g>
   <g id="matplotlib.axis_6">
    <g id="ytick_14">
     <g id="line2d_28">
      <g>
       <use style="stroke:#000000;stroke-width:0.8;" x="622.88125" xlink:href="#m43f33c0347" y="222.765854"/>
      </g>
     </g>
     <g id="text_31">
      <!-- 0.10 -->
      <g transform="translate(593.615625 226.565072)scale(0.1 -0.1)">
       <use xlink:href="#DejaVuSans-48"/>
       <use x="63.623047" xlink:href="#DejaVuSans-46"/>
       <use x="95.410156" xlink:href="#DejaVuSans-49"/>
       <use x="159.033203" xlink:href="#DejaVuSans-48"/>
      </g>
     </g>
    </g>
    <g id="ytick_15">
     <g id="line2d_29">
      <g>
       <use style="stroke:#000000;stroke-width:0.8;" x="622.88125" xlink:href="#m43f33c0347" y="190.143902"/>
      </g>
     </g>
     <g id="text_32">
      <!-- 0.15 -->
      <g transform="translate(593.615625 193.943121)scale(0.1 -0.1)">
       <use xlink:href="#DejaVuSans-48"/>
       <use x="63.623047" xlink:href="#DejaVuSans-46"/>
       <use x="95.410156" xlink:href="#DejaVuSans-49"/>
       <use x="159.033203" xlink:href="#DejaVuSans-53"/>
      </g>
     </g>
    </g>
    <g id="ytick_16">
     <g id="line2d_30">
      <g>
       <use style="stroke:#000000;stroke-width:0.8;" x="622.88125" xlink:href="#m43f33c0347" y="157.521951"/>
      </g>
     </g>
     <g id="text_33">
      <!-- 0.20 -->
      <g transform="translate(593.615625 161.32117)scale(0.1 -0.1)">
       <use xlink:href="#DejaVuSans-48"/>
       <use x="63.623047" xlink:href="#DejaVuSans-46"/>
       <use x="95.410156" xlink:href="#DejaVuSans-50"/>
       <use x="159.033203" xlink:href="#DejaVuSans-48"/>
      </g>
     </g>
    </g>
    <g id="ytick_17">
     <g id="line2d_31">
      <g>
       <use style="stroke:#000000;stroke-width:0.8;" x="622.88125" xlink:href="#m43f33c0347" y="124.9"/>
      </g>
     </g>
     <g id="text_34">
      <!-- 0.25 -->
      <g transform="translate(593.615625 128.699219)scale(0.1 -0.1)">
       <use xlink:href="#DejaVuSans-48"/>
       <use x="63.623047" xlink:href="#DejaVuSans-46"/>
       <use x="95.410156" xlink:href="#DejaVuSans-50"/>
       <use x="159.033203" xlink:href="#DejaVuSans-53"/>
      </g>
     </g>
    </g>
    <g id="ytick_18">
     <g id="line2d_32">
      <g>
       <use style="stroke:#000000;stroke-width:0.8;" x="622.88125" xlink:href="#m43f33c0347" y="92.278049"/>
      </g>
     </g>
     <g id="text_35">
      <!-- 0.30 -->
      <g transform="translate(593.615625 96.077268)scale(0.1 -0.1)">
       <use xlink:href="#DejaVuSans-48"/>
       <use x="63.623047" xlink:href="#DejaVuSans-46"/>
       <use x="95.410156" xlink:href="#DejaVuSans-51"/>
       <use x="159.033203" xlink:href="#DejaVuSans-48"/>
      </g>
     </g>
    </g>
    <g id="ytick_19">
     <g id="line2d_33">
      <g>
       <use style="stroke:#000000;stroke-width:0.8;" x="622.88125" xlink:href="#m43f33c0347" y="59.656098"/>
      </g>
     </g>
     <g id="text_36">
      <!-- 0.35 -->
      <g transform="translate(593.615625 63.455316)scale(0.1 -0.1)">
       <use xlink:href="#DejaVuSans-48"/>
       <use x="63.623047" xlink:href="#DejaVuSans-46"/>
       <use x="95.410156" xlink:href="#DejaVuSans-51"/>
       <use x="159.033203" xlink:href="#DejaVuSans-53"/>
      </g>
     </g>
    </g>
    <g id="ytick_20">
     <g id="line2d_34">
      <g>
       <use style="stroke:#000000;stroke-width:0.8;" x="622.88125" xlink:href="#m43f33c0347" y="27.034146"/>
      </g>
     </g>
     <g id="text_37">
      <!-- 0.40 -->
      <g transform="translate(593.615625 30.833365)scale(0.1 -0.1)">
       <use xlink:href="#DejaVuSans-48"/>
       <use x="63.623047" xlink:href="#DejaVuSans-46"/>
       <use x="95.410156" xlink:href="#DejaVuSans-52"/>
       <use x="159.033203" xlink:href="#DejaVuSans-48"/>
      </g>
     </g>
    </g>
    <g id="text_38">
     <!-- dev acc -->
     <g transform="translate(587.535938 144.261719)rotate(-90)scale(0.1 -0.1)">
      <defs>
       <path d="M 48.78125 52.59375 
L 48.78125 44.1875 
Q 44.96875 46.296875 41.140625 47.34375 
Q 37.3125 48.390625 33.40625 48.390625 
Q 24.65625 48.390625 19.8125 42.84375 
Q 14.984375 37.3125 14.984375 27.296875 
Q 14.984375 17.28125 19.8125 11.734375 
Q 24.65625 6.203125 33.40625 6.203125 
Q 37.3125 6.203125 41.140625 7.25 
Q 44.96875 8.296875 48.78125 10.40625 
L 48.78125 2.09375 
Q 45.015625 0.34375 40.984375 -0.53125 
Q 36.96875 -1.421875 32.421875 -1.421875 
Q 20.0625 -1.421875 12.78125 6.34375 
Q 5.515625 14.109375 5.515625 27.296875 
Q 5.515625 40.671875 12.859375 48.328125 
Q 20.21875 56 33.015625 56 
Q 37.15625 56 41.109375 55.140625 
Q 45.0625 54.296875 48.78125 52.59375 
z
" id="DejaVuSans-99"/>
      </defs>
      <use xlink:href="#DejaVuSans-100"/>
      <use x="63.476562" xlink:href="#DejaVuSans-101"/>
      <use x="125" xlink:href="#DejaVuSans-118"/>
      <use x="184.179688" xlink:href="#DejaVuSans-32"/>
      <use x="215.966797" xlink:href="#DejaVuSans-97"/>
      <use x="277.246094" xlink:href="#DejaVuSans-99"/>
      <use x="332.226562" xlink:href="#DejaVuSans-99"/>
     </g>
    </g>
   </g>
   <g id="line2d_35">
    <path clip-path="url(#pe9f5ae782a)" d="M 633.167614 229.290244 
L 643.995365 231.9 
L 654.823116 140.558537 
L 665.650867 89.668293 
L 676.478618 57.69878 
L 687.30637 39.430488 
L 698.134121 33.558537 
L 708.961872 18.552439 
L 719.789623 23.119512 
L 730.617374 26.381707 
L 741.445126 17.9 
L 752.272877 27.686585 
L 763.100628 25.729268 
L 773.928379 26.381707 
L 784.75613 32.906098 
L 795.583882 41.387805 
L 806.411633 21.814634 
L 817.239384 28.991463 
L 828.067135 34.210976 
L 838.894886 25.729268 
" style="fill:none;stroke:#1f77b4;stroke-linecap:square;stroke-width:2;"/>
   </g>
   <g id="patch_13">
    <path d="M 622.88125 242.6 
L 622.88125 7.2 
" style="fill:none;stroke:#000000;stroke-linecap:square;stroke-linejoin:miter;stroke-width:0.8;"/>
   </g>
   <g id="patch_14">
    <path d="M 849.18125 242.6 
L 849.18125 7.2 
" style="fill:none;stroke:#000000;stroke-linecap:square;stroke-linejoin:miter;stroke-width:0.8;"/>
   </g>
   <g id="patch_15">
    <path d="M 622.88125 242.6 
L 849.18125 242.6 
" style="fill:none;stroke:#000000;stroke-linecap:square;stroke-linejoin:miter;stroke-width:0.8;"/>
   </g>
   <g id="patch_16">
    <path d="M 622.88125 7.2 
L 849.18125 7.2 
" style="fill:none;stroke:#000000;stroke-linecap:square;stroke-linejoin:miter;stroke-width:0.8;"/>
   </g>
  </g>
 </g>
 <defs>
  <clipPath id="p47f5ab8d32">
   <rect height="235.4" width="226.3" x="43.78125" y="7.2"/>
  </clipPath>
  <clipPath id="pc0940caa27">
   <rect height="235.4" width="226.3" x="333.33125" y="7.2"/>
  </clipPath>
  <clipPath id="pe9f5ae782a">
   <rect height="235.4" width="226.3" x="622.88125" y="7.2"/>
  </clipPath>
 </defs>
</svg>
