<?xml version="1.0" encoding="utf-8" standalone="no"?>
<!DOCTYPE svg PUBLIC "-//W3C//DTD SVG 1.1//EN"
  "http://www.w3.org/Graphics/SVG/1.1/DTD/svg11.dtd">
<!-- Created with matplotlib (https://matplotlib.org/) -->
<svg height="280.15625pt" version="1.1" viewBox="0 0 856.578125 280.15625" width="856.578125pt" xmlns="http://www.w3.org/2000/svg" xmlns:xlink="http://www.w3.org/1999/xlink">
 <metadata>
  <rdf:RDF xmlns:cc="http://creativecommons.org/ns#" xmlns:dc="http://purl.org/dc/elements/1.1/" xmlns:rdf="http://www.w3.org/1999/02/22-rdf-syntax-ns#">
   <cc:Work>
    <dc:type rdf:resource="http://purl.org/dc/dcmitype/StillImage"/>
    <dc:date>2022-04-05T17:46:13.482523</dc:date>
    <dc:format>image/svg+xml</dc:format>
    <dc:creator>
     <cc:Agent>
      <dc:title>Matplotlib v3.3.2, https://matplotlib.org/</dc:title>
     </cc:Agent>
    </dc:creator>
   </cc:Work>
  </rdf:RDF>
 </metadata>
 <defs>
  <style type="text/css">*{stroke-linecap:butt;stroke-linejoin:round;}</style>
 </defs>
 <g id="figure_1">
  <g id="patch_1">
   <path d="M 0 280.15625 
L 856.578125 280.15625 
L 856.578125 0 
L 0 0 
z
" style="fill:none;"/>
  </g>
  <g id="axes_1">
   <g id="patch_2">
    <path d="M 40.603125 242.6 
L 271.468542 242.6 
L 271.468542 7.2 
L 40.603125 7.2 
z
" style="fill:#ffffff;"/>
   </g>
   <g id="matplotlib.axis_1">
    <g id="xtick_1">
     <g id="line2d_1">
      <defs>
       <path d="M 0 0 
L 0 3.5 
" id="mb40d426f3a" style="stroke:#000000;stroke-width:0.8;"/>
      </defs>
      <g>
       <use style="stroke:#000000;stroke-width:0.8;" x="51.097008" xlink:href="#mb40d426f3a" y="242.6"/>
      </g>
     </g>
     <g id="text_1">
      <!-- 0 -->
      <g transform="translate(47.915758 257.198438)scale(0.1 -0.1)">
       <defs>
        <path d="M 31.78125 66.40625 
Q 24.171875 66.40625 20.328125 58.90625 
Q 16.5 51.421875 16.5 36.375 
Q 16.5 21.390625 20.328125 13.890625 
Q 24.171875 6.390625 31.78125 6.390625 
Q 39.453125 6.390625 43.28125 13.890625 
Q 47.125 21.390625 47.125 36.375 
Q 47.125 51.421875 43.28125 58.90625 
Q 39.453125 66.40625 31.78125 66.40625 
z
M 31.78125 74.21875 
Q 44.046875 74.21875 50.515625 64.515625 
Q 56.984375 54.828125 56.984375 36.375 
Q 56.984375 17.96875 50.515625 8.265625 
Q 44.046875 -1.421875 31.78125 -1.421875 
Q 19.53125 -1.421875 13.0625 8.265625 
Q 6.59375 17.96875 6.59375 36.375 
Q 6.59375 54.828125 13.0625 64.515625 
Q 19.53125 74.21875 31.78125 74.21875 
z
" id="DejaVuSans-48"/>
       </defs>
       <use xlink:href="#DejaVuSans-48"/>
      </g>
     </g>
    </g>
    <g id="xtick_2">
     <g id="line2d_2">
      <g>
       <use style="stroke:#000000;stroke-width:0.8;" x="93.258047" xlink:href="#mb40d426f3a" y="242.6"/>
      </g>
     </g>
     <g id="text_2">
      <!-- 500 -->
      <g transform="translate(83.714297 257.198438)scale(0.1 -0.1)">
       <defs>
        <path d="M 10.796875 72.90625 
L 49.515625 72.90625 
L 49.515625 64.59375 
L 19.828125 64.59375 
L 19.828125 46.734375 
Q 21.96875 47.46875 24.109375 47.828125 
Q 26.265625 48.1875 28.421875 48.1875 
Q 40.625 48.1875 47.75 41.5 
Q 54.890625 34.8125 54.890625 23.390625 
Q 54.890625 11.625 47.5625 5.09375 
Q 40.234375 -1.421875 26.90625 -1.421875 
Q 22.3125 -1.421875 17.546875 -0.640625 
Q 12.796875 0.140625 7.71875 1.703125 
L 7.71875 11.625 
Q 12.109375 9.234375 16.796875 8.0625 
Q 21.484375 6.890625 26.703125 6.890625 
Q 35.15625 6.890625 40.078125 11.328125 
Q 45.015625 15.765625 45.015625 23.390625 
Q 45.015625 31 40.078125 35.4375 
Q 35.15625 39.890625 26.703125 39.890625 
Q 22.75 39.890625 18.8125 39.015625 
Q 14.890625 38.140625 10.796875 36.28125 
z
" id="DejaVuSans-53"/>
       </defs>
       <use xlink:href="#DejaVuSans-53"/>
       <use x="63.623047" xlink:href="#DejaVuSans-48"/>
       <use x="127.246094" xlink:href="#DejaVuSans-48"/>
      </g>
     </g>
    </g>
    <g id="xtick_3">
     <g id="line2d_3">
      <g>
       <use style="stroke:#000000;stroke-width:0.8;" x="135.419085" xlink:href="#mb40d426f3a" y="242.6"/>
      </g>
     </g>
     <g id="text_3">
      <!-- 1000 -->
      <g transform="translate(122.694085 257.198438)scale(0.1 -0.1)">
       <defs>
        <path d="M 12.40625 8.296875 
L 28.515625 8.296875 
L 28.515625 63.921875 
L 10.984375 60.40625 
L 10.984375 69.390625 
L 28.421875 72.90625 
L 38.28125 72.90625 
L 38.28125 8.296875 
L 54.390625 8.296875 
L 54.390625 0 
L 12.40625 0 
z
" id="DejaVuSans-49"/>
       </defs>
       <use xlink:href="#DejaVuSans-49"/>
       <use x="63.623047" xlink:href="#DejaVuSans-48"/>
       <use x="127.246094" xlink:href="#DejaVuSans-48"/>
       <use x="190.869141" xlink:href="#DejaVuSans-48"/>
      </g>
     </g>
    </g>
    <g id="xtick_4">
     <g id="line2d_4">
      <g>
       <use style="stroke:#000000;stroke-width:0.8;" x="177.580124" xlink:href="#mb40d426f3a" y="242.6"/>
      </g>
     </g>
     <g id="text_4">
      <!-- 1500 -->
      <g transform="translate(164.855124 257.198438)scale(0.1 -0.1)">
       <use xlink:href="#DejaVuSans-49"/>
       <use x="63.623047" xlink:href="#DejaVuSans-53"/>
       <use x="127.246094" xlink:href="#DejaVuSans-48"/>
       <use x="190.869141" xlink:href="#DejaVuSans-48"/>
      </g>
     </g>
    </g>
    <g id="xtick_5">
     <g id="line2d_5">
      <g>
       <use style="stroke:#000000;stroke-width:0.8;" x="219.741163" xlink:href="#mb40d426f3a" y="242.6"/>
      </g>
     </g>
     <g id="text_5">
      <!-- 2000 -->
      <g transform="translate(207.016163 257.198438)scale(0.1 -0.1)">
       <defs>
        <path d="M 19.1875 8.296875 
L 53.609375 8.296875 
L 53.609375 0 
L 7.328125 0 
L 7.328125 8.296875 
Q 12.9375 14.109375 22.625 23.890625 
Q 32.328125 33.6875 34.8125 36.53125 
Q 39.546875 41.84375 41.421875 45.53125 
Q 43.3125 49.21875 43.3125 52.78125 
Q 43.3125 58.59375 39.234375 62.25 
Q 35.15625 65.921875 28.609375 65.921875 
Q 23.96875 65.921875 18.8125 64.3125 
Q 13.671875 62.703125 7.8125 59.421875 
L 7.8125 69.390625 
Q 13.765625 71.78125 18.9375 73 
Q 24.125 74.21875 28.421875 74.21875 
Q 39.75 74.21875 46.484375 68.546875 
Q 53.21875 62.890625 53.21875 53.421875 
Q 53.21875 48.921875 51.53125 44.890625 
Q 49.859375 40.875 45.40625 35.40625 
Q 44.1875 33.984375 37.640625 27.21875 
Q 31.109375 20.453125 19.1875 8.296875 
z
" id="DejaVuSans-50"/>
       </defs>
       <use xlink:href="#DejaVuSans-50"/>
       <use x="63.623047" xlink:href="#DejaVuSans-48"/>
       <use x="127.246094" xlink:href="#DejaVuSans-48"/>
       <use x="190.869141" xlink:href="#DejaVuSans-48"/>
      </g>
     </g>
    </g>
    <g id="xtick_6">
     <g id="line2d_6">
      <g>
       <use style="stroke:#000000;stroke-width:0.8;" x="261.902202" xlink:href="#mb40d426f3a" y="242.6"/>
      </g>
     </g>
     <g id="text_6">
      <!-- 2500 -->
      <g transform="translate(249.177202 257.198438)scale(0.1 -0.1)">
       <use xlink:href="#DejaVuSans-50"/>
       <use x="63.623047" xlink:href="#DejaVuSans-53"/>
       <use x="127.246094" xlink:href="#DejaVuSans-48"/>
       <use x="190.869141" xlink:href="#DejaVuSans-48"/>
      </g>
     </g>
    </g>
    <g id="text_7">
     <!-- steps -->
     <g transform="translate(142.615521 270.876562)scale(0.1 -0.1)">
      <defs>
       <path d="M 44.28125 53.078125 
L 44.28125 44.578125 
Q 40.484375 46.53125 36.375 47.5 
Q 32.28125 48.484375 27.875 48.484375 
Q 21.1875 48.484375 17.84375 46.4375 
Q 14.5 44.390625 14.5 40.28125 
Q 14.5 37.15625 16.890625 35.375 
Q 19.28125 33.59375 26.515625 31.984375 
L 29.59375 31.296875 
Q 39.15625 29.25 43.1875 25.515625 
Q 47.21875 21.78125 47.21875 15.09375 
Q 47.21875 7.46875 41.1875 3.015625 
Q 35.15625 -1.421875 24.609375 -1.421875 
Q 20.21875 -1.421875 15.453125 -0.5625 
Q 10.6875 0.296875 5.421875 2 
L 5.421875 11.28125 
Q 10.40625 8.6875 15.234375 7.390625 
Q 20.0625 6.109375 24.8125 6.109375 
Q 31.15625 6.109375 34.5625 8.28125 
Q 37.984375 10.453125 37.984375 14.40625 
Q 37.984375 18.0625 35.515625 20.015625 
Q 33.0625 21.96875 24.703125 23.78125 
L 21.578125 24.515625 
Q 13.234375 26.265625 9.515625 29.90625 
Q 5.8125 33.546875 5.8125 39.890625 
Q 5.8125 47.609375 11.28125 51.796875 
Q 16.75 56 26.8125 56 
Q 31.78125 56 36.171875 55.265625 
Q 40.578125 54.546875 44.28125 53.078125 
z
" id="DejaVuSans-115"/>
       <path d="M 18.3125 70.21875 
L 18.3125 54.6875 
L 36.8125 54.6875 
L 36.8125 47.703125 
L 18.3125 47.703125 
L 18.3125 18.015625 
Q 18.3125 11.328125 20.140625 9.421875 
Q 21.96875 7.515625 27.59375 7.515625 
L 36.8125 7.515625 
L 36.8125 0 
L 27.59375 0 
Q 17.1875 0 13.234375 3.875 
Q 9.28125 7.765625 9.28125 18.015625 
L 9.28125 47.703125 
L 2.6875 47.703125 
L 2.6875 54.6875 
L 9.28125 54.6875 
L 9.28125 70.21875 
z
" id="DejaVuSans-116"/>
       <path d="M 56.203125 29.59375 
L 56.203125 25.203125 
L 14.890625 25.203125 
Q 15.484375 15.921875 20.484375 11.0625 
Q 25.484375 6.203125 34.421875 6.203125 
Q 39.59375 6.203125 44.453125 7.46875 
Q 49.3125 8.734375 54.109375 11.28125 
L 54.109375 2.78125 
Q 49.265625 0.734375 44.1875 -0.34375 
Q 39.109375 -1.421875 33.890625 -1.421875 
Q 20.796875 -1.421875 13.15625 6.1875 
Q 5.515625 13.8125 5.515625 26.8125 
Q 5.515625 40.234375 12.765625 48.109375 
Q 20.015625 56 32.328125 56 
Q 43.359375 56 49.78125 48.890625 
Q 56.203125 41.796875 56.203125 29.59375 
z
M 47.21875 32.234375 
Q 47.125 39.59375 43.09375 43.984375 
Q 39.0625 48.390625 32.421875 48.390625 
Q 24.90625 48.390625 20.390625 44.140625 
Q 15.875 39.890625 15.1875 32.171875 
z
" id="DejaVuSans-101"/>
       <path d="M 18.109375 8.203125 
L 18.109375 -20.796875 
L 9.078125 -20.796875 
L 9.078125 54.6875 
L 18.109375 54.6875 
L 18.109375 46.390625 
Q 20.953125 51.265625 25.265625 53.625 
Q 29.59375 56 35.59375 56 
Q 45.5625 56 51.78125 48.09375 
Q 58.015625 40.1875 58.015625 27.296875 
Q 58.015625 14.40625 51.78125 6.484375 
Q 45.5625 -1.421875 35.59375 -1.421875 
Q 29.59375 -1.421875 25.265625 0.953125 
Q 20.953125 3.328125 18.109375 8.203125 
z
M 48.6875 27.296875 
Q 48.6875 37.203125 44.609375 42.84375 
Q 40.53125 48.484375 33.40625 48.484375 
Q 26.265625 48.484375 22.1875 42.84375 
Q 18.109375 37.203125 18.109375 27.296875 
Q 18.109375 17.390625 22.1875 11.75 
Q 26.265625 6.109375 33.40625 6.109375 
Q 40.53125 6.109375 44.609375 11.75 
Q 48.6875 17.390625 48.6875 27.296875 
z
" id="DejaVuSans-112"/>
      </defs>
      <use xlink:href="#DejaVuSans-115"/>
      <use x="52.099609" xlink:href="#DejaVuSans-116"/>
      <use x="91.308594" xlink:href="#DejaVuSans-101"/>
      <use x="152.832031" xlink:href="#DejaVuSans-112"/>
      <use x="216.308594" xlink:href="#DejaVuSans-115"/>
     </g>
    </g>
   </g>
   <g id="matplotlib.axis_2">
    <g id="ytick_1">
     <g id="line2d_7">
      <defs>
       <path d="M 0 0 
L -3.5 0 
" id="meabcc21464" style="stroke:#000000;stroke-width:0.8;"/>
      </defs>
      <g>
       <use style="stroke:#000000;stroke-width:0.8;" x="40.603125" xlink:href="#meabcc21464" y="234.453234"/>
      </g>
     </g>
     <g id="text_8">
      <!-- 0 -->
      <g transform="translate(27.240625 238.252452)scale(0.1 -0.1)">
       <use xlink:href="#DejaVuSans-48"/>
      </g>
     </g>
    </g>
    <g id="ytick_2">
     <g id="line2d_8">
      <g>
       <use style="stroke:#000000;stroke-width:0.8;" x="40.603125" xlink:href="#meabcc21464" y="203.73872"/>
      </g>
     </g>
     <g id="text_9">
      <!-- 10 -->
      <g transform="translate(20.878125 207.537939)scale(0.1 -0.1)">
       <use xlink:href="#DejaVuSans-49"/>
       <use x="63.623047" xlink:href="#DejaVuSans-48"/>
      </g>
     </g>
    </g>
    <g id="ytick_3">
     <g id="line2d_9">
      <g>
       <use style="stroke:#000000;stroke-width:0.8;" x="40.603125" xlink:href="#meabcc21464" y="173.024206"/>
      </g>
     </g>
     <g id="text_10">
      <!-- 20 -->
      <g transform="translate(20.878125 176.823425)scale(0.1 -0.1)">
       <use xlink:href="#DejaVuSans-50"/>
       <use x="63.623047" xlink:href="#DejaVuSans-48"/>
      </g>
     </g>
    </g>
    <g id="ytick_4">
     <g id="line2d_10">
      <g>
       <use style="stroke:#000000;stroke-width:0.8;" x="40.603125" xlink:href="#meabcc21464" y="142.309692"/>
      </g>
     </g>
     <g id="text_11">
      <!-- 30 -->
      <g transform="translate(20.878125 146.108911)scale(0.1 -0.1)">
       <defs>
        <path d="M 40.578125 39.3125 
Q 47.65625 37.796875 51.625 33 
Q 55.609375 28.21875 55.609375 21.1875 
Q 55.609375 10.40625 48.1875 4.484375 
Q 40.765625 -1.421875 27.09375 -1.421875 
Q 22.515625 -1.421875 17.65625 -0.515625 
Q 12.796875 0.390625 7.625 2.203125 
L 7.625 11.71875 
Q 11.71875 9.328125 16.59375 8.109375 
Q 21.484375 6.890625 26.8125 6.890625 
Q 36.078125 6.890625 40.9375 10.546875 
Q 45.796875 14.203125 45.796875 21.1875 
Q 45.796875 27.640625 41.28125 31.265625 
Q 36.765625 34.90625 28.71875 34.90625 
L 20.21875 34.90625 
L 20.21875 43.015625 
L 29.109375 43.015625 
Q 36.375 43.015625 40.234375 45.921875 
Q 44.09375 48.828125 44.09375 54.296875 
Q 44.09375 59.90625 40.109375 62.90625 
Q 36.140625 65.921875 28.71875 65.921875 
Q 24.65625 65.921875 20.015625 65.03125 
Q 15.375 64.15625 9.8125 62.3125 
L 9.8125 71.09375 
Q 15.4375 72.65625 20.34375 73.4375 
Q 25.25 74.21875 29.59375 74.21875 
Q 40.828125 74.21875 47.359375 69.109375 
Q 53.90625 64.015625 53.90625 55.328125 
Q 53.90625 49.265625 50.4375 45.09375 
Q 46.96875 40.921875 40.578125 39.3125 
z
" id="DejaVuSans-51"/>
       </defs>
       <use xlink:href="#DejaVuSans-51"/>
       <use x="63.623047" xlink:href="#DejaVuSans-48"/>
      </g>
     </g>
    </g>
    <g id="ytick_5">
     <g id="line2d_11">
      <g>
       <use style="stroke:#000000;stroke-width:0.8;" x="40.603125" xlink:href="#meabcc21464" y="111.595178"/>
      </g>
     </g>
     <g id="text_12">
      <!-- 40 -->
      <g transform="translate(20.878125 115.394397)scale(0.1 -0.1)">
       <defs>
        <path d="M 37.796875 64.3125 
L 12.890625 25.390625 
L 37.796875 25.390625 
z
M 35.203125 72.90625 
L 47.609375 72.90625 
L 47.609375 25.390625 
L 58.015625 25.390625 
L 58.015625 17.1875 
L 47.609375 17.1875 
L 47.609375 0 
L 37.796875 0 
L 37.796875 17.1875 
L 4.890625 17.1875 
L 4.890625 26.703125 
z
" id="DejaVuSans-52"/>
       </defs>
       <use xlink:href="#DejaVuSans-52"/>
       <use x="63.623047" xlink:href="#DejaVuSans-48"/>
      </g>
     </g>
    </g>
    <g id="ytick_6">
     <g id="line2d_12">
      <g>
       <use style="stroke:#000000;stroke-width:0.8;" x="40.603125" xlink:href="#meabcc21464" y="80.880665"/>
      </g>
     </g>
     <g id="text_13">
      <!-- 50 -->
      <g transform="translate(20.878125 84.679883)scale(0.1 -0.1)">
       <use xlink:href="#DejaVuSans-53"/>
       <use x="63.623047" xlink:href="#DejaVuSans-48"/>
      </g>
     </g>
    </g>
    <g id="ytick_7">
     <g id="line2d_13">
      <g>
       <use style="stroke:#000000;stroke-width:0.8;" x="40.603125" xlink:href="#meabcc21464" y="50.166151"/>
      </g>
     </g>
     <g id="text_14">
      <!-- 60 -->
      <g transform="translate(20.878125 53.965369)scale(0.1 -0.1)">
       <defs>
        <path d="M 33.015625 40.375 
Q 26.375 40.375 22.484375 35.828125 
Q 18.609375 31.296875 18.609375 23.390625 
Q 18.609375 15.53125 22.484375 10.953125 
Q 26.375 6.390625 33.015625 6.390625 
Q 39.65625 6.390625 43.53125 10.953125 
Q 47.40625 15.53125 47.40625 23.390625 
Q 47.40625 31.296875 43.53125 35.828125 
Q 39.65625 40.375 33.015625 40.375 
z
M 52.59375 71.296875 
L 52.59375 62.3125 
Q 48.875 64.0625 45.09375 64.984375 
Q 41.3125 65.921875 37.59375 65.921875 
Q 27.828125 65.921875 22.671875 59.328125 
Q 17.53125 52.734375 16.796875 39.40625 
Q 19.671875 43.65625 24.015625 45.921875 
Q 28.375 48.1875 33.59375 48.1875 
Q 44.578125 48.1875 50.953125 41.515625 
Q 57.328125 34.859375 57.328125 23.390625 
Q 57.328125 12.15625 50.6875 5.359375 
Q 44.046875 -1.421875 33.015625 -1.421875 
Q 20.359375 -1.421875 13.671875 8.265625 
Q 6.984375 17.96875 6.984375 36.375 
Q 6.984375 53.65625 15.1875 63.9375 
Q 23.390625 74.21875 37.203125 74.21875 
Q 40.921875 74.21875 44.703125 73.484375 
Q 48.484375 72.75 52.59375 71.296875 
z
" id="DejaVuSans-54"/>
       </defs>
       <use xlink:href="#DejaVuSans-54"/>
       <use x="63.623047" xlink:href="#DejaVuSans-48"/>
      </g>
     </g>
    </g>
    <g id="ytick_8">
     <g id="line2d_14">
      <g>
       <use style="stroke:#000000;stroke-width:0.8;" x="40.603125" xlink:href="#meabcc21464" y="19.451637"/>
      </g>
     </g>
     <g id="text_15">
      <!-- 70 -->
      <g transform="translate(20.878125 23.250856)scale(0.1 -0.1)">
       <defs>
        <path d="M 8.203125 72.90625 
L 55.078125 72.90625 
L 55.078125 68.703125 
L 28.609375 0 
L 18.3125 0 
L 43.21875 64.59375 
L 8.203125 64.59375 
z
" id="DejaVuSans-55"/>
       </defs>
       <use xlink:href="#DejaVuSans-55"/>
       <use x="63.623047" xlink:href="#DejaVuSans-48"/>
      </g>
     </g>
    </g>
    <g id="text_16">
     <!-- training loss -->
     <g transform="translate(14.798438 155.516406)rotate(-90)scale(0.1 -0.1)">
      <defs>
       <path d="M 41.109375 46.296875 
Q 39.59375 47.171875 37.8125 47.578125 
Q 36.03125 48 33.890625 48 
Q 26.265625 48 22.1875 43.046875 
Q 18.109375 38.09375 18.109375 28.8125 
L 18.109375 0 
L 9.078125 0 
L 9.078125 54.6875 
L 18.109375 54.6875 
L 18.109375 46.1875 
Q 20.953125 51.171875 25.484375 53.578125 
Q 30.03125 56 36.53125 56 
Q 37.453125 56 38.578125 55.875 
Q 39.703125 55.765625 41.0625 55.515625 
z
" id="DejaVuSans-114"/>
       <path d="M 34.28125 27.484375 
Q 23.390625 27.484375 19.1875 25 
Q 14.984375 22.515625 14.984375 16.5 
Q 14.984375 11.71875 18.140625 8.90625 
Q 21.296875 6.109375 26.703125 6.109375 
Q 34.1875 6.109375 38.703125 11.40625 
Q 43.21875 16.703125 43.21875 25.484375 
L 43.21875 27.484375 
z
M 52.203125 31.203125 
L 52.203125 0 
L 43.21875 0 
L 43.21875 8.296875 
Q 40.140625 3.328125 35.546875 0.953125 
Q 30.953125 -1.421875 24.3125 -1.421875 
Q 15.921875 -1.421875 10.953125 3.296875 
Q 6 8.015625 6 15.921875 
Q 6 25.140625 12.171875 29.828125 
Q 18.359375 34.515625 30.609375 34.515625 
L 43.21875 34.515625 
L 43.21875 35.40625 
Q 43.21875 41.609375 39.140625 45 
Q 35.0625 48.390625 27.6875 48.390625 
Q 23 48.390625 18.546875 47.265625 
Q 14.109375 46.140625 10.015625 43.890625 
L 10.015625 52.203125 
Q 14.9375 54.109375 19.578125 55.046875 
Q 24.21875 56 28.609375 56 
Q 40.484375 56 46.34375 49.84375 
Q 52.203125 43.703125 52.203125 31.203125 
z
" id="DejaVuSans-97"/>
       <path d="M 9.421875 54.6875 
L 18.40625 54.6875 
L 18.40625 0 
L 9.421875 0 
z
M 9.421875 75.984375 
L 18.40625 75.984375 
L 18.40625 64.59375 
L 9.421875 64.59375 
z
" id="DejaVuSans-105"/>
       <path d="M 54.890625 33.015625 
L 54.890625 0 
L 45.90625 0 
L 45.90625 32.71875 
Q 45.90625 40.484375 42.875 44.328125 
Q 39.84375 48.1875 33.796875 48.1875 
Q 26.515625 48.1875 22.3125 43.546875 
Q 18.109375 38.921875 18.109375 30.90625 
L 18.109375 0 
L 9.078125 0 
L 9.078125 54.6875 
L 18.109375 54.6875 
L 18.109375 46.1875 
Q 21.34375 51.125 25.703125 53.5625 
Q 30.078125 56 35.796875 56 
Q 45.21875 56 50.046875 50.171875 
Q 54.890625 44.34375 54.890625 33.015625 
z
" id="DejaVuSans-110"/>
       <path d="M 45.40625 27.984375 
Q 45.40625 37.75 41.375 43.109375 
Q 37.359375 48.484375 30.078125 48.484375 
Q 22.859375 48.484375 18.828125 43.109375 
Q 14.796875 37.75 14.796875 27.984375 
Q 14.796875 18.265625 18.828125 12.890625 
Q 22.859375 7.515625 30.078125 7.515625 
Q 37.359375 7.515625 41.375 12.890625 
Q 45.40625 18.265625 45.40625 27.984375 
z
M 54.390625 6.78125 
Q 54.390625 -7.171875 48.1875 -13.984375 
Q 42 -20.796875 29.203125 -20.796875 
Q 24.46875 -20.796875 20.265625 -20.09375 
Q 16.0625 -19.390625 12.109375 -17.921875 
L 12.109375 -9.1875 
Q 16.0625 -11.328125 19.921875 -12.34375 
Q 23.78125 -13.375 27.78125 -13.375 
Q 36.625 -13.375 41.015625 -8.765625 
Q 45.40625 -4.15625 45.40625 5.171875 
L 45.40625 9.625 
Q 42.625 4.78125 38.28125 2.390625 
Q 33.9375 0 27.875 0 
Q 17.828125 0 11.671875 7.65625 
Q 5.515625 15.328125 5.515625 27.984375 
Q 5.515625 40.671875 11.671875 48.328125 
Q 17.828125 56 27.875 56 
Q 33.9375 56 38.28125 53.609375 
Q 42.625 51.21875 45.40625 46.390625 
L 45.40625 54.6875 
L 54.390625 54.6875 
z
" id="DejaVuSans-103"/>
       <path id="DejaVuSans-32"/>
       <path d="M 9.421875 75.984375 
L 18.40625 75.984375 
L 18.40625 0 
L 9.421875 0 
z
" id="DejaVuSans-108"/>
       <path d="M 30.609375 48.390625 
Q 23.390625 48.390625 19.1875 42.75 
Q 14.984375 37.109375 14.984375 27.296875 
Q 14.984375 17.484375 19.15625 11.84375 
Q 23.34375 6.203125 30.609375 6.203125 
Q 37.796875 6.203125 41.984375 11.859375 
Q 46.1875 17.53125 46.1875 27.296875 
Q 46.1875 37.015625 41.984375 42.703125 
Q 37.796875 48.390625 30.609375 48.390625 
z
M 30.609375 56 
Q 42.328125 56 49.015625 48.375 
Q 55.71875 40.765625 55.71875 27.296875 
Q 55.71875 13.875 49.015625 6.21875 
Q 42.328125 -1.421875 30.609375 -1.421875 
Q 18.84375 -1.421875 12.171875 6.21875 
Q 5.515625 13.875 5.515625 27.296875 
Q 5.515625 40.765625 12.171875 48.375 
Q 18.84375 56 30.609375 56 
z
" id="DejaVuSans-111"/>
      </defs>
      <use xlink:href="#DejaVuSans-116"/>
      <use x="39.208984" xlink:href="#DejaVuSans-114"/>
      <use x="80.322266" xlink:href="#DejaVuSans-97"/>
      <use x="141.601562" xlink:href="#DejaVuSans-105"/>
      <use x="169.384766" xlink:href="#DejaVuSans-110"/>
      <use x="232.763672" xlink:href="#DejaVuSans-105"/>
      <use x="260.546875" xlink:href="#DejaVuSans-110"/>
      <use x="323.925781" xlink:href="#DejaVuSans-103"/>
      <use x="387.402344" xlink:href="#DejaVuSans-32"/>
      <use x="419.189453" xlink:href="#DejaVuSans-108"/>
      <use x="446.972656" xlink:href="#DejaVuSans-111"/>
      <use x="508.154297" xlink:href="#DejaVuSans-115"/>
      <use x="560.253906" xlink:href="#DejaVuSans-115"/>
     </g>
    </g>
   </g>
   <g id="line2d_15">
    <path clip-path="url(#p2583cfab27)" d="M 51.097008 44.792294 
L 51.18133 68.445577 
L 51.265652 53.996724 
L 51.349974 71.75449 
L 51.518618 17.9 
L 51.60294 62.186703 
L 51.687262 37.020272 
L 51.771584 79.320264 
L 51.855906 73.157525 
L 51.940228 99.550115 
L 52.02455 65.026539 
L 52.108873 66.760944 
L 52.193195 66.345741 
L 52.277517 80.829861 
L 52.446161 42.268315 
L 52.699127 77.49789 
L 52.952093 91.3304 
L 53.036415 67.077072 
L 53.289382 90.511768 
L 53.373704 73.976156 
L 53.458026 79.056826 
L 53.542348 76.560159 
L 53.62667 77.258437 
L 53.710992 97.446155 
L 53.795314 86.274369 
L 53.879636 94.533863 
L 53.963958 90.183561 
L 54.301247 111.45677 
L 54.469891 84.452113 
L 54.554213 104.500649 
L 54.638535 89.376588 
L 54.722857 100.292225 
L 54.807179 91.992707 
L 54.891501 95.431968 
L 55.060145 121.524237 
L 55.228789 79.229331 
L 55.313111 81.527951 
L 55.397434 117.044361 
L 55.6504 82.371879 
L 55.734722 109.861418 
L 55.819044 97.922507 
L 55.903366 103.754614 
L 55.987688 78.68938 
L 56.07201 105.816945 
L 56.240654 92.70078 
L 56.324976 107.404903 
L 56.493621 80.059503 
L 56.577943 97.191985 
L 56.662265 83.083712 
L 56.746587 131.936619 
L 56.915231 102.992656 
L 56.999553 125.420189 
L 57.083875 101.784962 
L 57.168197 136.661045 
L 57.252519 129.193785 
L 57.336841 127.978463 
L 57.505486 115.71042 
L 57.589808 118.811807 
L 57.67413 142.369851 
L 57.758452 135.936873 
L 57.842774 90.155887 
L 57.927096 151.062346 
L 58.011418 115.473146 
L 58.09574 118.830226 
L 58.180062 119.072761 
L 58.264384 136.873726 
L 58.348706 95.759847 
L 58.433028 108.434317 
L 58.51735 127.890201 
L 58.601673 123.91092 
L 58.685995 95.735851 
L 58.770317 123.682141 
L 58.854639 118.495516 
L 59.023283 126.809223 
L 59.107605 104.44694 
L 59.191927 115.577776 
L 59.276249 104.563403 
L 59.360571 133.092444 
L 59.529215 113.153189 
L 59.613537 135.018909 
L 59.782182 119.788754 
L 60.035148 130.376792 
L 60.203792 144.198171 
L 60.288114 134.135566 
L 60.372436 151.840338 
L 60.54108 119.137765 
L 60.625402 111.91229 
L 60.709724 116.34688 
L 60.878369 137.055287 
L 60.962691 107.582282 
L 61.131335 151.334664 
L 61.215657 126.070651 
L 61.468623 169.436571 
L 61.552945 131.782487 
L 61.637267 133.082063 
L 61.721589 153.169001 
L 61.805911 133.499574 
L 61.890234 135.166995 
L 61.974556 143.712334 
L 62.058878 121.87105 
L 62.227522 139.424131 
L 62.311844 124.181997 
L 62.480488 156.530111 
L 62.56481 123.290347 
L 62.733454 142.228947 
L 62.817776 131.769633 
L 62.986421 142.399823 
L 63.155065 134.619488 
L 63.239387 146.174414 
L 63.323709 136.676933 
L 63.408031 143.010589 
L 63.576675 132.848433 
L 63.660997 154.118753 
L 63.745319 150.426231 
L 63.829641 151.212981 
L 63.998286 174.900389 
L 64.082608 146.899956 
L 64.16693 153.34758 
L 64.335574 132.092779 
L 64.504218 149.009728 
L 64.672862 128.259956 
L 64.757184 145.946654 
L 64.841506 142.317003 
L 65.01015 165.895024 
L 65.094473 151.235799 
L 65.178795 151.863203 
L 65.263117 153.2882 
L 65.347439 167.422824 
L 65.516083 131.042041 
L 65.600405 132.425989 
L 65.684727 148.920119 
L 65.769049 141.903329 
L 65.853371 149.283212 
L 65.937693 138.937246 
L 66.022015 144.187597 
L 66.19066 169.056348 
L 66.274982 156.085048 
L 66.359304 171.512517 
L 66.527948 153.786726 
L 66.61227 166.591556 
L 66.865236 140.224877 
L 67.03388 173.611117 
L 67.202524 148.597553 
L 67.286847 159.009778 
L 67.624135 151.930597 
L 67.708457 143.960856 
L 67.961423 164.554334 
L 68.214389 144.717641 
L 68.383034 173.206535 
L 68.467356 168.441681 
L 68.551678 164.574323 
L 68.636 169.292146 
L 68.720322 164.624745 
L 68.804644 176.083619 
L 68.888966 173.607514 
L 68.973288 166.966835 
L 69.05761 173.576172 
L 69.226254 158.460337 
L 69.310576 155.53252 
L 69.394898 166.823786 
L 69.479221 152.47343 
L 69.647865 183.904136 
L 69.816509 160.224514 
L 69.900831 159.478848 
L 69.985153 145.632929 
L 70.069475 178.074325 
L 70.153797 161.624285 
L 70.238119 170.402616 
L 70.406763 162.469789 
L 70.491085 160.253132 
L 70.575408 164.346041 
L 70.65973 162.98497 
L 70.744052 174.717609 
L 70.912696 168.349986 
L 70.997018 179.360686 
L 71.08134 162.297729 
L 71.165662 162.686635 
L 71.249984 181.292317 
L 71.418628 172.268154 
L 71.50295 182.722487 
L 71.671595 161.686167 
L 71.755917 163.72343 
L 71.840239 172.065063 
L 71.924561 171.460378 
L 72.177527 155.394626 
L 72.261849 177.737518 
L 72.346171 157.657957 
L 72.430493 180.167606 
L 72.514815 174.191496 
L 72.767782 162.765892 
L 72.852104 177.89673 
L 72.936426 175.213475 
L 73.020748 172.418566 
L 73.10507 181.78799 
L 73.189392 175.572702 
L 73.273714 161.052249 
L 73.442358 176.771041 
L 73.52668 174.038775 
L 73.695324 154.635381 
L 73.779647 166.391225 
L 73.948291 157.881036 
L 74.116935 187.058351 
L 74.201257 175.446045 
L 74.285579 178.17155 
L 74.369901 178.258722 
L 74.454223 157.110882 
L 74.538545 189.110722 
L 74.622867 187.606617 
L 74.791511 176.005492 
L 74.960156 182.487832 
L 75.044478 182.842782 
L 75.213122 164.934405 
L 75.297444 177.521926 
L 75.381766 165.95052 
L 75.466088 188.514637 
L 75.634732 167.195263 
L 75.719054 179.721172 
L 75.803376 171.377998 
L 75.887698 178.409844 
L 75.972021 170.713763 
L 76.056343 176.949444 
L 76.140665 173.390791 
L 76.224987 182.570358 
L 76.393631 174.512462 
L 76.477953 174.461869 
L 76.562275 179.486774 
L 76.730919 167.645024 
L 76.815241 189.353281 
L 76.899563 165.783411 
L 76.983885 190.681592 
L 77.068208 160.396608 
L 77.15253 181.187359 
L 77.236852 175.545262 
L 77.321174 169.809718 
L 77.489818 184.881656 
L 77.57414 184.257065 
L 77.658462 176.562437 
L 77.742784 180.639459 
L 77.827106 191.665868 
L 77.911428 172.263262 
L 77.99575 172.425655 
L 78.080073 171.090132 
L 78.164395 186.062988 
L 78.248717 170.914159 
L 78.333039 183.037267 
L 78.417361 169.387596 
L 78.586005 187.145115 
L 78.670327 188.91182 
L 78.754649 199.135529 
L 78.923293 175.415535 
L 79.17626 193.048609 
L 79.429226 171.108615 
L 79.513548 181.472982 
L 79.59787 173.081852 
L 79.682192 174.056637 
L 79.766514 171.394653 
L 79.850836 192.108025 
L 79.935158 184.807959 
L 80.01948 199.070291 
L 80.103802 174.061986 
L 80.188124 184.756546 
L 80.272447 182.77458 
L 80.356769 191.363742 
L 80.441091 174.244601 
L 80.694057 191.879644 
L 80.778379 174.906311 
L 80.947023 195.992032 
L 81.031345 193.683991 
L 81.115667 174.380339 
L 81.284311 186.524897 
L 81.368634 180.203957 
L 81.452956 181.058892 
L 81.537278 184.705713 
L 81.6216 180.66895 
L 81.874566 190.678484 
L 81.958888 193.582675 
L 82.211854 175.469929 
L 82.296176 190.114778 
L 82.380498 173.563172 
L 82.464821 188.682815 
L 82.549143 184.561475 
L 82.633465 178.450459 
L 82.717787 179.061712 
L 82.886431 187.047656 
L 82.970753 182.069606 
L 83.055075 198.703829 
L 83.139397 177.736276 
L 83.223719 195.098016 
L 83.308041 183.537814 
L 83.392363 185.461775 
L 83.476685 188.465334 
L 83.561008 181.721358 
L 83.64533 195.323972 
L 83.729652 193.703177 
L 83.813974 204.461383 
L 83.898296 184.369767 
L 83.982618 184.3777 
L 84.06694 173.115608 
L 84.151262 193.321777 
L 84.235584 192.601243 
L 84.319906 196.728515 
L 84.48855 177.066816 
L 84.741517 191.553273 
L 84.825839 182.982099 
L 84.994483 203.325377 
L 85.078805 183.770021 
L 85.247449 195.626912 
L 85.331771 186.654548 
L 85.500415 201.544184 
L 85.584737 179.582447 
L 85.66906 192.475937 
L 85.753382 185.305108 
L 85.837704 198.995375 
L 85.922026 195.552154 
L 86.006348 201.974815 
L 86.09067 188.902778 
L 86.174992 200.76722 
L 86.259314 188.492399 
L 86.343636 193.308232 
L 86.427958 185.497422 
L 86.51228 190.627414 
L 86.596602 184.886636 
L 86.765247 197.084195 
L 86.849569 192.236152 
L 86.933891 193.961805 
L 87.018213 192.711011 
L 87.186857 177.170245 
L 87.355501 191.991429 
L 87.439823 185.788699 
L 87.524145 201.827033 
L 87.608467 192.428514 
L 87.692789 200.548968 
L 87.777111 183.257845 
L 87.861434 193.932097 
L 87.945756 178.406417 
L 88.198722 191.042433 
L 88.283044 187.264622 
L 88.367366 202.353662 
L 88.451688 188.29563 
L 88.53601 195.272876 
L 88.620332 192.787201 
L 88.788976 201.654552 
L 88.873298 185.248552 
L 88.957621 207.311688 
L 89.041943 183.408709 
L 89.126265 188.36723 
L 89.210587 183.758433 
L 89.294909 193.68064 
L 89.379231 191.111593 
L 89.463553 197.233354 
L 89.547875 177.964453 
L 89.632197 204.614493 
L 89.800841 191.255366 
L 89.969485 197.390462 
L 90.053808 195.059755 
L 90.13813 183.191775 
L 90.306774 197.408412 
L 90.55974 186.68789 
L 90.728384 198.617923 
L 90.812706 204.545834 
L 90.98135 192.907763 
L 91.065672 196.837243 
L 91.149995 193.241992 
L 91.318639 199.437274 
L 91.402961 181.573165 
L 91.487283 192.376694 
L 91.571605 188.269337 
L 91.655927 196.665471 
L 91.740249 196.389039 
L 91.824571 200.760053 
L 91.908893 199.70377 
L 91.993215 201.832716 
L 92.077537 192.054184 
L 92.16186 199.870269 
L 92.246182 177.632361 
L 92.414826 200.056737 
L 92.499148 204.976254 
L 92.58347 199.557068 
L 92.667792 185.914207 
L 92.752114 189.031248 
L 92.836436 188.320794 
L 93.089402 206.394098 
L 93.173724 199.774295 
L 93.258047 183.527275 
L 93.342369 205.593232 
L 93.426691 187.822315 
L 93.511013 203.026602 
L 93.595335 190.316144 
L 93.679657 195.337698 
L 93.763979 191.002634 
L 93.848301 206.860043 
L 93.932623 193.18434 
L 94.101267 203.251046 
L 94.185589 192.694303 
L 94.354234 203.794796 
L 94.522878 191.00501 
L 94.6072 195.272067 
L 94.860166 204.865985 
L 94.944488 204.209568 
L 95.113132 193.570015 
L 95.197454 192.919239 
L 95.281776 201.675876 
L 95.366098 201.453184 
L 95.450421 199.393706 
L 95.534743 188.948845 
L 95.619065 189.830969 
L 95.787709 200.819433 
L 95.956353 193.085727 
L 96.124997 205.775429 
L 96.209319 189.784565 
L 96.377963 205.742857 
L 96.462285 199.674862 
L 96.546608 206.553468 
L 96.63093 186.234333 
L 96.715252 211.316472 
L 96.968218 189.946779 
L 97.05254 190.90285 
L 97.136862 198.094027 
L 97.221184 191.673612 
L 97.305506 205.478529 
L 97.47415 191.575441 
L 97.642795 204.928189 
L 97.727117 189.324001 
L 97.811439 199.66113 
L 97.895761 197.310713 
L 97.980083 196.003828 
L 98.148727 205.61166 
L 98.233049 192.971666 
L 98.486015 206.928337 
L 98.570337 194.048333 
L 98.65466 208.498691 
L 98.823304 192.240113 
L 98.907626 210.764496 
L 98.991948 201.157001 
L 99.07627 203.489123 
L 99.160592 208.882819 
L 99.329236 198.123412 
L 99.49788 194.390157 
L 99.582202 186.303514 
L 99.750847 212.061801 
L 99.835169 203.158285 
L 100.003813 212.388687 
L 100.172457 198.677382 
L 100.341101 192.041457 
L 100.425423 203.862005 
L 100.594067 193.918749 
L 100.678389 192.46236 
L 100.762711 209.551509 
L 100.847034 195.289715 
L 100.931356 196.758146 
L 101.015678 194.978764 
L 101.1 199.912584 
L 101.184322 212.063629 
L 101.352966 199.403759 
L 101.437288 195.421431 
L 101.52161 206.262951 
L 101.605932 204.296685 
L 101.774576 189.484062 
L 101.858898 200.7643 
L 101.943221 198.464953 
L 102.027543 200.554127 
L 102.111865 173.990678 
L 102.196187 207.400058 
L 102.280509 194.605117 
L 102.449153 202.393217 
L 102.533475 198.208282 
L 102.617797 206.51379 
L 102.702119 191.892503 
L 102.870763 205.369397 
L 103.12373 189.169253 
L 103.292374 203.133757 
L 103.376696 201.387198 
L 103.461018 210.379002 
L 103.54534 208.468573 
L 103.713984 188.683205 
L 103.798306 213.131024 
L 103.96695 200.478604 
L 104.051272 199.065877 
L 104.135595 207.078158 
L 104.219917 193.98143 
L 104.388561 206.443305 
L 104.472883 204.974297 
L 104.557205 202.791906 
L 104.641527 203.003907 
L 104.725849 204.443957 
L 104.810171 203.832813 
L 104.894493 207.083216 
L 104.978815 204.987651 
L 105.063137 182.43059 
L 105.147459 209.514004 
L 105.231782 195.267697 
L 105.316104 208.858442 
L 105.484748 197.499729 
L 105.56907 199.726102 
L 105.653392 205.992527 
L 105.822036 200.744809 
L 105.99068 209.017803 
L 106.075002 201.716917 
L 106.243647 206.570147 
L 106.327969 194.44246 
L 106.412291 203.663013 
L 106.496613 198.490135 
L 106.580935 217.698339 
L 106.665257 204.093541 
L 106.749579 206.069348 
L 106.833901 209.100986 
L 106.918223 193.669088 
L 107.002545 210.421948 
L 107.086867 203.318842 
L 107.171189 219.43112 
L 107.339834 189.079372 
L 107.508478 205.396644 
L 107.5928 198.623552 
L 107.677122 210.564275 
L 107.761444 203.59824 
L 107.845766 214.79541 
L 108.01441 196.822152 
L 108.098732 199.50195 
L 108.183054 210.434986 
L 108.267376 208.969692 
L 108.351698 210.225764 
L 108.436021 196.920791 
L 108.604665 213.431235 
L 108.688987 200.75053 
L 108.773309 207.974312 
L 108.857631 191.387863 
L 109.026275 210.620835 
L 109.110597 204.039653 
L 109.279241 214.378801 
L 109.363563 206.18198 
L 109.447885 211.169105 
L 109.61653 207.219707 
L 109.700852 208.488793 
L 109.785174 208.020944 
L 109.869496 208.193208 
L 109.953818 201.973058 
L 110.03814 211.418435 
L 110.206784 193.208447 
L 110.291106 194.197099 
L 110.375428 208.983397 
L 110.45975 207.934751 
L 110.544072 205.402473 
L 110.628395 190.998475 
L 110.797039 207.585363 
L 110.881361 203.574584 
L 110.965683 208.657616 
L 111.050005 200.488885 
L 111.134327 207.760922 
L 111.218649 206.348301 
L 111.302971 203.919523 
L 111.387293 208.330727 
L 111.555937 194.201106 
L 111.724582 207.255349 
L 111.808904 205.460049 
L 111.893226 206.664533 
L 111.977548 198.887473 
L 112.146192 208.919937 
L 112.230514 199.407379 
L 112.314836 201.976218 
L 112.399158 200.018215 
L 112.48348 207.971207 
L 112.567802 203.95998 
L 112.652124 210.295202 
L 112.820769 199.386178 
L 112.905091 218.059076 
L 113.073735 204.123597 
L 113.158057 204.340452 
L 113.242379 202.787916 
L 113.326701 196.775689 
L 113.411023 206.902501 
L 113.495345 199.672102 
L 113.579667 218.917822 
L 113.663989 208.33314 
L 113.748311 214.081179 
L 113.832634 210.128482 
L 113.916956 198.014679 
L 114.0856 217.721603 
L 114.169922 192.906884 
L 114.338566 213.115205 
L 114.422888 208.90276 
L 114.50721 209.997172 
L 114.591532 208.868354 
L 114.760176 214.985609 
L 114.928821 203.569218 
L 115.013143 212.42872 
L 115.097465 201.828884 
L 115.181787 210.298642 
L 115.266109 199.282319 
L 115.434753 211.776313 
L 115.519075 202.03822 
L 115.603397 208.627603 
L 115.772041 196.13098 
L 116.10933 217.170926 
L 116.277974 205.917295 
L 116.362296 200.559979 
L 116.446618 202.994399 
L 116.53094 209.522557 
L 116.615262 197.217349 
L 116.783906 217.486487 
L 116.868228 209.686532 
L 116.95255 218.478771 
L 117.036872 215.607779 
L 117.205517 201.409733 
L 117.289839 203.034883 
L 117.374161 215.277649 
L 117.458483 204.334597 
L 117.542805 209.917667 
L 117.795771 200.787027 
L 117.880093 205.334329 
L 117.964415 203.834038 
L 118.217382 215.353817 
L 118.301704 206.836411 
L 118.386026 216.824159 
L 118.638992 188.571516 
L 118.723314 205.615233 
L 118.807636 202.984481 
L 118.891958 210.607057 
L 118.97628 198.544272 
L 119.144924 219.054009 
L 119.229247 217.484871 
L 119.313569 203.132854 
L 119.397891 204.075752 
L 119.482213 213.193683 
L 119.650857 204.194126 
L 119.819501 208.683222 
L 119.903823 210.266292 
L 119.988145 204.471775 
L 120.072467 205.376334 
L 120.156789 204.142004 
L 120.241111 217.989596 
L 120.325434 211.858939 
L 120.409756 213.900347 
L 120.494078 210.656618 
L 120.5784 202.999554 
L 120.662722 205.541351 
L 120.747044 199.759354 
L 120.831366 213.711193 
L 120.915688 206.495629 
L 121.00001 215.326954 
L 121.084332 214.622428 
L 121.337298 202.078762 
L 121.421621 210.072313 
L 121.505943 205.853459 
L 121.590265 209.740698 
L 121.843231 199.539953 
L 121.927553 211.879941 
L 122.011875 204.168326 
L 122.096197 215.093041 
L 122.264841 202.133207 
L 122.517808 215.773995 
L 122.686452 203.317758 
L 122.855096 209.608557 
L 122.939418 215.686129 
L 123.02374 207.122467 
L 123.108062 210.872259 
L 123.192384 209.527185 
L 123.276706 210.268792 
L 123.361028 199.728609 
L 123.529672 212.802452 
L 123.613995 212.827105 
L 123.698317 216.497735 
L 123.951283 211.338894 
L 124.035605 215.708101 
L 124.119927 212.343808 
L 124.204249 217.834958 
L 124.288571 195.001541 
L 124.372893 215.142113 
L 124.457215 213.577853 
L 124.625859 209.789571 
L 124.710182 199.445268 
L 124.878826 209.691101 
L 124.963148 211.961114 
L 125.04747 206.545117 
L 125.131792 214.27101 
L 125.216114 208.666011 
L 125.300436 211.18323 
L 125.46908 202.227532 
L 125.553402 204.668686 
L 125.722046 215.001092 
L 125.890691 209.067464 
L 126.059335 214.203468 
L 126.143657 211.142417 
L 126.227979 203.430065 
L 126.312301 215.83555 
L 126.480945 208.148876 
L 126.565267 208.103881 
L 126.649589 215.800995 
L 126.733911 205.541325 
L 126.818234 209.615757 
L 126.902556 208.094217 
L 126.986878 202.790781 
L 127.155522 219.545246 
L 127.239844 208.287885 
L 127.324166 212.383352 
L 127.408488 210.755939 
L 127.49281 214.371591 
L 127.577132 212.985662 
L 127.661454 205.539954 
L 127.745776 214.930871 
L 127.830098 208.096991 
L 127.998743 214.012822 
L 128.167387 200.986017 
L 128.251709 213.695371 
L 128.336031 212.270743 
L 128.420353 203.021851 
L 128.504675 212.300754 
L 128.673319 208.131585 
L 128.757641 211.613837 
L 128.841963 208.452357 
L 129.010608 214.035304 
L 129.09493 212.979227 
L 129.179252 214.876322 
L 129.263574 214.766915 
L 129.347896 211.760248 
L 129.432218 216.520161 
L 129.51654 215.583272 
L 129.600862 203.24273 
L 129.685184 215.649937 
L 129.769506 202.484923 
L 129.93815 221.214408 
L 130.106795 211.136739 
L 130.191117 205.630292 
L 130.275439 206.485295 
L 130.444083 209.736327 
L 130.612727 218.080468 
L 130.697049 203.22128 
L 130.781371 215.501125 
L 130.865693 213.68767 
L 131.034337 212.369814 
L 131.118659 214.838335 
L 131.202982 211.664958 
L 131.287304 216.844522 
L 131.371626 209.485731 
L 131.455948 217.72015 
L 131.54027 210.036174 
L 131.624592 212.50735 
L 131.708914 203.723655 
L 131.877558 217.626444 
L 131.96188 202.887156 
L 132.130524 214.271211 
L 132.214846 208.941727 
L 132.383491 213.767269 
L 132.467813 198.869163 
L 132.636457 213.568039 
L 132.720779 211.595125 
L 132.805101 215.939978 
L 132.889423 206.267883 
L 132.973745 214.957913 
L 133.058067 213.111631 
L 133.142389 215.673054 
L 133.311034 209.707326 
L 133.395356 213.786159 
L 133.479678 211.350052 
L 133.564 221.727898 
L 133.732644 205.580769 
L 133.816966 207.447818 
L 133.901288 216.036403 
L 133.98561 206.344701 
L 134.069932 212.509697 
L 134.238576 206.700779 
L 134.322898 213.449813 
L 134.407221 211.5972 
L 134.491543 205.508304 
L 134.575865 219.881983 
L 134.744509 214.633268 
L 134.828831 216.470832 
L 135.081797 203.828431 
L 135.166119 216.016445 
L 135.250441 215.361048 
L 135.334763 215.504501 
L 135.419085 214.427948 
L 135.503408 217.374054 
L 135.58773 214.805772 
L 135.672052 217.752253 
L 135.756374 213.447611 
L 135.840696 213.771506 
L 135.925018 213.086932 
L 136.00934 213.695052 
L 136.093662 216.632141 
L 136.177984 210.88207 
L 136.262306 215.408228 
L 136.346628 209.645892 
L 136.515272 218.495643 
L 136.683917 209.0201 
L 136.768239 209.48103 
L 136.936883 216.028059 
L 137.105527 218.392862 
L 137.189849 217.802866 
L 137.274171 214.014736 
L 137.358493 215.275646 
L 137.442815 211.100804 
L 137.527137 221.518046 
L 137.695782 210.329231 
L 137.780104 216.504148 
L 137.864426 215.917563 
L 137.948748 217.543178 
L 138.03307 212.388661 
L 138.117392 222.266121 
L 138.201714 200.182079 
L 138.370358 216.760649 
L 138.45468 210.742068 
L 138.539002 215.99363 
L 138.623324 214.693592 
L 138.707646 201.687092 
L 138.791969 215.667784 
L 138.876291 209.071102 
L 138.960613 209.920386 
L 139.044935 218.146771 
L 139.129257 216.194395 
L 139.213579 220.465885 
L 139.297901 214.870271 
L 139.382223 215.349857 
L 139.466545 222.072677 
L 139.635189 211.323076 
L 139.719511 222.99746 
L 139.803834 220.335233 
L 139.888156 220.647283 
L 140.0568 210.300647 
L 140.141122 216.434301 
L 140.225444 215.972003 
L 140.309766 213.185563 
L 140.394088 213.818611 
L 140.562732 210.409481 
L 140.731376 216.505895 
L 140.815698 206.719484 
L 140.984343 218.396875 
L 141.068665 211.089877 
L 141.152987 216.850438 
L 141.237309 214.003708 
L 141.405953 219.018082 
L 141.490275 207.052677 
L 141.574597 207.926783 
L 141.743241 218.448573 
L 141.827563 217.069241 
L 141.911885 206.720647 
L 142.08053 215.593209 
L 142.164852 207.79498 
L 142.249174 221.400362 
L 142.333496 211.947285 
L 142.417818 215.136023 
L 142.50214 211.768333 
L 142.586462 213.545558 
L 142.670784 210.183152 
L 142.755106 218.711402 
L 142.839428 211.453534 
L 142.92375 215.183313 
L 143.008072 213.709885 
L 143.092395 215.980704 
L 143.176717 215.139972 
L 143.261039 202.473344 
L 143.345361 216.592452 
L 143.429683 209.852428 
L 143.598327 217.894308 
L 143.682649 215.136334 
L 143.766971 213.405356 
L 143.935615 219.174281 
L 144.019937 219.531664 
L 144.104259 208.768895 
L 144.188582 221.336415 
L 144.272904 210.11155 
L 144.357226 213.106309 
L 144.441548 215.312125 
L 144.52587 213.783933 
L 144.610192 217.64763 
L 144.694514 215.406464 
L 144.863158 217.35602 
L 144.94748 216.044691 
L 145.031802 209.432107 
L 145.116124 215.562018 
L 145.200446 205.892898 
L 145.284769 216.302405 
L 145.369091 213.482686 
L 145.453413 220.725171 
L 145.537735 203.133314 
L 145.706379 217.526772 
L 145.790701 219.222562 
L 146.043667 213.560877 
L 146.127989 207.629681 
L 146.296633 220.582293 
L 146.380956 220.761804 
L 146.465278 211.80554 
L 146.5496 218.996754 
L 146.633922 211.112579 
L 146.802566 217.976919 
L 146.886888 216.905414 
L 146.97121 218.614901 
L 147.055532 207.750392 
L 147.139854 219.823219 
L 147.224176 206.811346 
L 147.308498 221.468414 
L 147.392821 211.364815 
L 147.477143 218.448828 
L 147.645787 213.205845 
L 147.730109 213.286901 
L 147.814431 222.580021 
L 147.898753 214.12166 
L 147.983075 217.386329 
L 148.236041 207.192043 
L 148.320363 210.902816 
L 148.404685 208.628629 
L 148.489008 218.557738 
L 148.57333 216.142067 
L 148.657652 219.320352 
L 148.826296 213.279648 
L 148.910618 220.033779 
L 148.99494 216.696719 
L 149.079262 216.989476 
L 149.163584 221.403797 
L 149.247906 213.666393 
L 149.332228 218.28576 
L 149.41655 205.526658 
L 149.585195 216.992282 
L 149.669517 211.000521 
L 149.753839 220.750341 
L 149.922483 210.972523 
L 150.006805 210.326591 
L 150.091127 222.116587 
L 150.175449 212.536578 
L 150.259771 214.984227 
L 150.344093 219.86181 
L 150.428415 217.396993 
L 150.512737 218.766494 
L 150.681382 208.557432 
L 150.765704 211.387538 
L 150.850026 209.447635 
L 150.934348 220.292987 
L 151.01867 218.511231 
L 151.102992 211.744826 
L 151.187314 219.500408 
L 151.271636 217.71585 
L 151.355958 208.315501 
L 151.524602 216.931067 
L 151.608924 204.628181 
L 151.861891 221.915404 
L 152.030535 214.977663 
L 152.114857 207.432396 
L 152.199179 219.569571 
L 152.283501 215.883029 
L 152.452145 217.989879 
L 152.536467 216.130724 
L 152.620789 211.189846 
L 152.705111 222.586789 
L 152.789433 217.962737 
L 152.873756 220.122804 
L 153.0424 215.083196 
L 153.126722 216.752793 
L 153.211044 210.415101 
L 153.295366 210.867692 
L 153.379688 220.744155 
L 153.548332 208.130094 
L 153.632654 211.309681 
L 153.716976 210.980654 
L 153.801298 223.125818 
L 153.885621 212.572845 
L 153.969943 215.079608 
L 154.054265 215.143944 
L 154.222909 224.176242 
L 154.391553 211.979534 
L 154.644519 225.622715 
L 154.897485 210.088386 
L 154.981808 211.889811 
L 155.06613 216.335932 
L 155.150452 213.04559 
L 155.234774 220.140896 
L 155.319096 212.901975 
L 155.403418 214.086212 
L 155.48774 219.615099 
L 155.572062 212.667196 
L 155.740706 226.179333 
L 155.825028 214.995265 
L 155.90935 220.160674 
L 155.993672 211.546942 
L 156.077995 215.748537 
L 156.162317 213.079259 
L 156.246639 221.04348 
L 156.330961 215.519269 
L 156.415283 221.234491 
L 156.583927 213.509716 
L 156.668249 213.428072 
L 157.005537 223.598681 
L 157.174182 214.102644 
L 157.258504 218.780267 
L 157.427148 211.182542 
L 157.764436 221.584385 
L 157.848758 218.785957 
L 157.93308 223.487179 
L 158.017402 222.877429 
L 158.101724 223.617824 
L 158.186046 218.008148 
L 158.270369 220.550834 
L 158.354691 219.478928 
L 158.439013 219.853571 
L 158.523335 210.740071 
L 158.607657 219.649422 
L 158.691979 216.840393 
L 158.776301 221.688662 
L 158.860623 208.773529 
L 159.029267 225.56697 
L 159.197911 217.491136 
L 159.282233 215.52462 
L 159.366556 219.094931 
L 159.450878 216.05702 
L 159.5352 218.269002 
L 159.619522 215.403472 
L 159.788166 222.145894 
L 159.872488 213.640968 
L 159.95681 221.25428 
L 160.041132 219.570825 
L 160.125454 216.502818 
L 160.209776 217.469879 
L 160.294098 216.25893 
L 160.37842 219.571645 
L 160.462743 212.821106 
L 160.631387 218.734689 
L 160.715709 217.820627 
L 160.800031 224.3384 
L 160.884353 211.337121 
L 161.052997 216.756594 
L 161.137319 217.703805 
L 161.221641 216.936278 
L 161.305963 218.618202 
L 161.390285 226.203565 
L 161.55893 212.960352 
L 161.643252 206.635573 
L 161.811896 217.296729 
L 161.98054 218.022375 
L 162.149184 223.718922 
L 162.233506 213.848738 
L 162.317828 220.410034 
L 162.40215 219.374228 
L 162.486472 213.802372 
L 162.570795 225.252814 
L 162.739439 212.640747 
L 162.823761 213.691188 
L 162.992405 217.904441 
L 163.076727 218.104461 
L 163.245371 205.695191 
L 163.414015 223.697314 
L 163.498337 217.484182 
L 163.582659 224.563575 
L 163.666982 213.390871 
L 163.751304 221.714298 
L 163.835626 220.245366 
L 163.919948 218.078646 
L 164.00427 225.132856 
L 164.088592 224.431651 
L 164.42588 211.150635 
L 164.594524 223.354892 
L 164.678846 220.977578 
L 164.763169 221.025801 
L 165.016135 215.571978 
L 165.100457 221.249207 
L 165.184779 218.885351 
L 165.269101 212.965601 
L 165.522067 223.261764 
L 165.606389 223.562137 
L 165.690711 216.250645 
L 165.775033 219.606883 
L 165.859356 215.333518 
L 166.112322 225.613641 
L 166.196644 216.808969 
L 166.365288 222.899649 
L 166.44961 213.076853 
L 166.533932 221.989238 
L 166.618254 220.57878 
L 166.702576 223.40594 
L 166.786898 222.515242 
L 166.87122 218.099601 
L 166.955543 221.353156 
L 167.124187 212.969205 
L 167.208509 220.318031 
L 167.292831 208.510047 
L 167.377153 217.371062 
L 167.545797 210.775845 
L 167.630119 223.3691 
L 167.714441 214.002531 
L 167.798763 221.927338 
L 167.883085 216.817481 
L 167.967408 217.594159 
L 168.05173 221.397083 
L 168.136052 213.659619 
L 168.304696 221.919915 
L 168.557662 215.237025 
L 168.641984 215.324776 
L 168.89495 224.360046 
L 168.979272 218.756189 
L 169.063595 222.467797 
L 169.147917 221.309233 
L 169.232239 213.117643 
L 169.400883 224.303781 
L 169.485205 219.780354 
L 169.822493 214.282447 
L 169.906815 223.155063 
L 169.991137 223.123857 
L 170.244104 214.75601 
L 170.328426 210.015736 
L 170.412748 221.811233 
L 170.49707 218.249415 
L 170.581392 222.802827 
L 170.665714 217.022666 
L 170.750036 220.494793 
L 170.834358 218.84138 
L 171.003002 225.003572 
L 171.087324 216.581431 
L 171.255969 224.372919 
L 171.340291 223.400475 
L 171.424613 213.15487 
L 171.593257 225.115913 
L 171.677579 214.265227 
L 171.846223 226.711348 
L 171.930545 220.625774 
L 172.014867 221.346187 
L 172.099189 224.693833 
L 172.267833 216.985258 
L 172.352156 215.888748 
L 172.436478 216.46431 
L 172.5208 214.588673 
L 172.605122 223.646764 
L 172.689444 211.572345 
L 172.773766 223.947142 
L 172.858088 219.310175 
L 173.026732 224.307827 
L 173.279698 217.775309 
L 173.532665 228.055102 
L 173.701309 215.287157 
L 173.785631 221.513005 
L 173.869953 215.65803 
L 174.038597 223.635387 
L 174.207241 217.342822 
L 174.375885 214.04613 
L 174.460208 218.825423 
L 174.54453 216.149101 
L 174.628852 216.621861 
L 174.713174 214.694834 
L 174.881818 222.793722 
L 175.050462 217.090826 
L 175.134784 221.701949 
L 175.303428 215.831781 
L 175.38775 216.988966 
L 175.556395 223.430236 
L 175.640717 212.497551 
L 175.809361 221.479063 
L 175.893683 220.205165 
L 176.062327 223.378091 
L 176.146649 220.796764 
L 176.230971 222.6988 
L 176.315293 220.552551 
L 176.399615 212.902875 
L 176.483937 222.187897 
L 176.568259 221.494806 
L 176.652582 217.192487 
L 176.736904 217.222294 
L 176.821226 221.199108 
L 176.905548 212.589679 
L 176.98987 214.981785 
L 177.074192 221.884666 
L 177.158514 221.382178 
L 177.242836 219.238091 
L 177.495802 226.088257 
L 177.580124 216.711447 
L 177.664446 227.386584 
L 177.833091 219.418752 
L 178.001735 225.610872 
L 178.170379 214.281809 
L 178.254701 223.722988 
L 178.339023 218.021868 
L 178.423345 225.637948 
L 178.507667 211.854016 
L 178.591989 220.848787 
L 178.676311 220.351816 
L 178.760633 221.220671 
L 178.844956 217.511981 
L 179.0136 225.498103 
L 179.097922 219.566209 
L 179.182244 220.230337 
L 179.266566 227.459419 
L 179.43521 214.107739 
L 179.519532 220.473279 
L 179.772498 214.079784 
L 179.85682 220.908197 
L 179.941143 220.122258 
L 180.025465 222.872644 
L 180.109787 214.768476 
L 180.194109 227.438038 
L 180.362753 221.701855 
L 180.447075 218.61027 
L 180.531397 226.153767 
L 180.700041 219.673851 
L 180.784363 224.766146 
L 180.868685 222.314625 
L 180.953007 227.464158 
L 181.290296 216.109262 
L 181.45894 220.826578 
L 181.543262 217.603459 
L 181.627584 226.387182 
L 181.711906 219.36958 
L 181.796228 221.663605 
L 181.88055 220.897855 
L 182.049195 227.194467 
L 182.133517 212.422065 
L 182.217839 226.82484 
L 182.302161 223.846379 
L 182.386483 220.018009 
L 182.555127 224.461226 
L 182.723771 216.395142 
L 182.808093 222.444459 
L 182.892415 219.702075 
L 182.976737 223.06469 
L 183.061059 217.86292 
L 183.145382 227.008579 
L 183.314026 210.251128 
L 183.398348 223.559631 
L 183.48267 217.396836 
L 183.566992 220.601129 
L 183.651314 215.747385 
L 183.819958 221.004664 
L 183.90428 210.013917 
L 183.988602 219.974 
L 184.157246 208.843785 
L 184.241569 218.036076 
L 184.325891 214.19663 
L 184.410213 222.136121 
L 184.494535 211.014248 
L 184.663179 221.983648 
L 184.747501 216.22846 
L 184.916145 225.543081 
L 185.000467 221.630104 
L 185.084789 223.948224 
L 185.337756 218.792883 
L 185.422078 219.891514 
L 185.5064 219.675049 
L 185.590722 215.849827 
L 185.759366 224.876092 
L 185.92801 215.802826 
L 186.012332 224.092354 
L 186.180976 217.572417 
L 186.265298 224.817051 
L 186.34962 218.923247 
L 186.433943 224.717158 
L 186.518265 221.009385 
L 186.771231 224.101956 
L 186.855553 221.898399 
L 186.939875 216.325085 
L 187.024197 219.265167 
L 187.108519 215.421989 
L 187.192841 227.440603 
L 187.277163 224.889339 
L 187.445807 220.136565 
L 187.698774 224.169964 
L 187.783096 221.351019 
L 187.867418 228.19525 
L 188.036062 215.903815 
L 188.204706 221.132216 
L 188.37335 219.56766 
L 188.457672 225.454492 
L 188.541995 223.139806 
L 188.626317 226.015292 
L 188.879283 219.307383 
L 189.047927 223.143872 
L 189.132249 216.578608 
L 189.300893 221.628273 
L 189.385215 217.222019 
L 189.469537 220.564245 
L 189.553859 220.452712 
L 189.638182 220.516684 
L 189.722504 222.092888 
L 189.806826 226.482323 
L 189.891148 211.934839 
L 190.059792 225.768192 
L 190.144114 219.504619 
L 190.228436 226.438634 
L 190.481402 217.076759 
L 190.650046 222.898985 
L 190.734369 219.371845 
L 190.987335 224.728927 
L 191.071657 214.858264 
L 191.155979 223.329245 
L 191.240301 222.610176 
L 191.324623 223.299627 
L 191.408945 215.055816 
L 191.493267 224.283076 
L 191.577589 219.096867 
L 191.661911 225.535981 
L 191.746233 216.2406 
L 191.830556 219.129046 
L 191.914878 227.546071 
L 192.167844 217.198593 
L 192.252166 222.030563 
L 192.336488 221.466815 
L 192.505132 225.807402 
L 192.589454 224.163643 
L 192.673776 213.49585 
L 192.758098 226.261569 
L 192.84242 224.520797 
L 192.926743 221.316991 
L 193.011065 225.863848 
L 193.179709 219.974161 
L 193.264031 225.193376 
L 193.348353 221.242656 
L 193.432675 223.874063 
L 193.601319 207.731306 
L 193.685641 222.37749 
L 193.769963 220.518322 
L 193.854285 224.159198 
L 194.107252 215.818872 
L 194.275896 224.007881 
L 194.44454 217.276926 
L 194.613184 223.192019 
L 194.697506 222.823512 
L 194.781828 226.139146 
L 194.86615 221.834846 
L 194.950472 224.907576 
L 195.119117 218.871143 
L 195.203439 226.025812 
L 195.287761 216.073831 
L 195.372083 224.978417 
L 195.456405 220.099217 
L 195.540727 222.918427 
L 195.709371 214.77013 
L 195.793693 228.245465 
L 195.962337 218.426196 
L 196.046659 220.81398 
L 196.130982 230.297273 
L 196.215304 213.607017 
L 196.299626 223.750245 
L 196.383948 219.318718 
L 196.46827 225.478061 
L 196.552592 223.032278 
L 196.636914 224.226883 
L 196.721236 218.688956 
L 196.805558 222.41615 
L 196.88988 217.725698 
L 196.974202 218.382664 
L 197.058524 223.850227 
L 197.142846 221.629907 
L 197.227169 223.60781 
L 197.311491 222.544386 
L 197.395813 223.197596 
L 197.648779 214.233475 
L 197.817423 224.226164 
L 197.901745 223.967287 
L 198.070389 223.396013 
L 198.154711 225.603863 
L 198.323356 222.160031 
L 198.407678 227.451414 
L 198.576322 220.315307 
L 198.660644 222.789632 
L 198.744966 221.593933 
L 198.829288 215.655717 
L 198.91361 225.696752 
L 199.082254 217.810949 
L 199.166576 227.803875 
L 199.250898 225.761273 
L 199.419543 218.995621 
L 199.503865 226.608243 
L 199.588187 223.867627 
L 199.756831 226.433371 
L 199.841153 223.61003 
L 200.009797 229.6069 
L 200.094119 213.837433 
L 200.178441 226.793164 
L 200.262763 215.335309 
L 200.347085 223.307318 
L 200.431407 217.161296 
L 200.51573 224.473673 
L 200.600052 219.789897 
L 200.684374 226.164568 
L 200.768696 220.29315 
L 200.853018 226.980649 
L 201.021662 219.772215 
L 201.105984 226.57367 
L 201.190306 224.608549 
L 201.274628 225.092771 
L 201.35895 223.828227 
L 201.443272 228.825709 
L 201.527594 226.926849 
L 201.611917 227.634834 
L 201.696239 226.622248 
L 201.780561 222.687423 
L 201.864883 225.84473 
L 201.949205 224.394783 
L 202.033527 227.724185 
L 202.117849 219.728613 
L 202.202171 221.349837 
L 202.370815 224.205445 
L 202.539459 215.673071 
L 202.623782 223.419819 
L 202.708104 221.672943 
L 202.792426 223.966363 
L 202.876748 219.325137 
L 202.96107 220.807206 
L 203.045392 218.699791 
L 203.129714 224.639274 
L 203.214036 221.907718 
L 203.298358 223.979397 
L 203.38268 222.357793 
L 203.467002 225.435706 
L 203.551324 223.517552 
L 203.635646 224.735416 
L 203.719969 219.242643 
L 203.804291 225.885089 
L 203.888613 221.369446 
L 203.972935 224.072428 
L 204.057257 217.858168 
L 204.141579 226.405718 
L 204.310223 221.596393 
L 204.478867 223.750604 
L 204.731833 220.73745 
L 204.900478 221.304322 
L 204.9848 220.782168 
L 205.153444 226.448936 
L 205.237766 213.413786 
L 205.40641 228.178839 
L 205.490732 225.94595 
L 205.575054 225.491434 
L 205.659376 220.984282 
L 205.743698 224.086658 
L 205.82802 216.354884 
L 205.912343 224.990247 
L 205.996665 223.737917 
L 206.080987 225.037718 
L 206.165309 223.267371 
L 206.249631 211.712785 
L 206.333953 222.281855 
L 206.418275 218.933949 
L 206.502597 217.970957 
L 206.671241 220.955177 
L 206.755563 225.905003 
L 206.839885 222.908849 
L 206.924207 226.678411 
L 207.00853 222.99439 
L 207.092852 223.266141 
L 207.177174 226.958479 
L 207.261496 226.275015 
L 207.345818 217.808457 
L 207.43014 224.010283 
L 207.514462 223.444532 
L 207.598784 221.831337 
L 207.683106 224.289693 
L 207.767428 219.707232 
L 207.85175 225.720203 
L 207.936072 218.048143 
L 208.020394 224.992408 
L 208.104717 222.645253 
L 208.189039 228.562042 
L 208.442005 216.217506 
L 208.610649 221.021907 
L 208.694971 225.271494 
L 208.779293 214.524235 
L 208.863615 228.044297 
L 208.947937 226.670514 
L 209.116582 219.746424 
L 209.285226 227.631433 
L 209.369548 221.776643 
L 209.45387 223.572574 
L 209.538192 226.19918 
L 209.622514 224.563843 
L 209.791158 227.235208 
L 209.87548 226.878112 
L 209.959802 217.51798 
L 210.128446 225.689715 
L 210.212769 219.81988 
L 210.297091 225.079281 
L 210.381413 221.975763 
L 210.465735 228.990439 
L 210.550057 218.556921 
L 210.634379 222.887653 
L 210.718701 216.891111 
L 210.803023 226.799318 
L 211.055989 218.421195 
L 211.224633 219.724003 
L 211.561922 224.030588 
L 211.646244 222.236045 
L 211.730566 222.97038 
L 211.814888 226.770412 
L 211.983532 221.24503 
L 212.067854 228.198142 
L 212.32082 213.762076 
L 212.573787 226.686166 
L 212.742431 215.926639 
L 213.079719 228.207175 
L 213.417007 220.381788 
L 213.50133 220.839606 
L 213.585652 225.184136 
L 213.669974 217.389536 
L 213.838618 223.281375 
L 213.92294 226.674607 
L 214.091584 221.629325 
L 214.175906 225.368093 
L 214.260228 224.568115 
L 214.34455 223.930127 
L 214.513194 220.788527 
L 214.597517 227.858067 
L 214.681839 214.763611 
L 214.850483 225.895543 
L 214.934805 225.799049 
L 215.103449 217.573115 
L 215.272093 224.94743 
L 215.356415 222.610599 
L 215.440737 230.167011 
L 215.609381 216.604781 
L 215.862348 224.784639 
L 215.94667 220.551562 
L 216.030992 223.219508 
L 216.115314 223.133578 
L 216.199636 215.271024 
L 216.36828 225.61442 
L 216.452602 226.244905 
L 216.536924 219.641645 
L 216.621246 221.156704 
L 216.789891 225.781906 
L 216.874213 219.161023 
L 217.042857 223.447215 
L 217.127179 223.133078 
L 217.211501 214.154336 
L 217.464467 222.809007 
L 217.548789 218.081972 
L 217.717433 225.165213 
L 217.801756 224.340945 
L 217.886078 217.12613 
L 218.054722 226.574294 
L 218.223366 218.980909 
L 218.307688 226.014431 
L 218.39201 223.288119 
L 218.560654 225.75812 
L 218.644976 223.866238 
L 218.729298 224.090284 
L 218.81362 228.07692 
L 219.066587 216.82041 
L 219.150909 230.200293 
L 219.235231 223.570409 
L 219.319553 223.710288 
L 219.403875 223.715702 
L 219.488197 224.728541 
L 219.572519 220.187711 
L 219.825485 229.109095 
L 219.909807 223.543521 
L 219.99413 223.932485 
L 220.078452 226.379358 
L 220.162774 225.356243 
L 220.247096 220.681457 
L 220.41574 229.883572 
L 220.500062 219.214447 
L 220.668706 225.770497 
L 220.753028 225.004546 
L 220.83735 219.796788 
L 220.921672 228.829932 
L 221.005994 227.738729 
L 221.090317 225.698619 
L 221.174639 226.388601 
L 221.258961 225.528299 
L 221.343283 222.119199 
L 221.427605 227.971181 
L 221.596249 224.015503 
L 221.680571 221.931663 
L 221.764893 226.241497 
L 221.849215 224.768548 
L 221.933537 226.836632 
L 222.102181 221.706376 
L 222.186504 228.306524 
L 222.355148 223.530911 
L 222.523792 221.651194 
L 222.608114 225.244912 
L 222.692436 222.541496 
L 222.776758 227.327008 
L 222.86108 221.849486 
L 223.029724 227.790947 
L 223.282691 221.275534 
L 223.367013 219.028451 
L 223.535657 227.813343 
L 223.619979 227.214153 
L 223.704301 225.605135 
L 223.788623 228.794079 
L 223.872945 226.338937 
L 223.957267 220.31942 
L 224.210233 230.134372 
L 224.294556 223.992923 
L 224.378878 224.664591 
L 224.4632 227.722779 
L 224.547522 222.111037 
L 224.631844 223.801111 
L 224.716166 222.469558 
L 224.88481 226.970523 
L 225.053454 220.201568 
L 225.222098 225.383725 
L 225.30642 224.889165 
L 225.390743 219.691542 
L 225.475065 221.004346 
L 225.559387 218.777824 
L 225.728031 225.659824 
L 225.980997 220.160343 
L 226.233963 228.233417 
L 226.48693 217.825354 
L 226.571252 220.485752 
L 226.655574 224.92634 
L 226.739896 223.493687 
L 226.824218 219.938861 
L 226.992862 224.177829 
L 227.077184 225.166181 
L 227.414472 218.012095 
L 227.498794 219.641898 
L 227.667439 228.079883 
L 227.751761 218.129839 
L 227.836083 226.047087 
L 228.004727 222.053258 
L 228.173371 227.338104 
L 228.257693 225.254687 
L 228.342015 226.975649 
L 228.426337 217.36069 
L 228.510659 224.213456 
L 228.594981 218.634992 
L 228.679304 226.840581 
L 228.763626 223.936977 
L 228.847948 216.59555 
L 229.100914 227.644027 
L 229.185236 228.902047 
L 229.35388 221.852862 
L 229.438202 228.048907 
L 229.522524 226.527519 
L 229.606846 228.796703 
L 229.775491 222.681455 
L 230.028457 227.56046 
L 230.112779 227.871699 
L 230.534389 220.292347 
L 230.787356 228.063867 
L 230.871678 223.982967 
L 231.124644 228.853224 
L 231.208966 218.247833 
L 231.293288 221.340298 
L 231.37761 227.270622 
L 231.461932 225.878139 
L 231.546254 224.236737 
L 231.630576 211.002817 
L 231.79922 222.68287 
L 231.883543 215.437681 
L 231.967865 228.031258 
L 232.052187 222.642386 
L 232.136509 227.038899 
L 232.220831 218.883441 
L 232.305153 225.992724 
L 232.389475 224.453641 
L 232.473797 224.861304 
L 232.558119 220.842501 
L 232.726763 228.712458 
L 232.97973 220.352077 
L 233.064052 226.649755 
L 233.317018 219.273988 
L 233.485662 228.734887 
L 233.569984 221.934371 
L 233.654306 227.166088 
L 233.738628 221.253691 
L 233.82295 223.340996 
L 233.907272 223.001908 
L 233.991594 223.328248 
L 234.075917 227.387741 
L 234.328883 221.885991 
L 234.497527 226.328414 
L 234.581849 216.92487 
L 234.666171 225.307132 
L 234.750493 223.461666 
L 234.834815 222.009987 
L 234.919137 222.438629 
L 235.087781 226.518355 
L 235.172104 223.264154 
L 235.256426 210.593254 
L 235.340748 227.107939 
L 235.42507 222.926875 
L 235.509392 226.735473 
L 235.762358 221.958738 
L 235.84668 219.016008 
L 235.931002 228.419745 
L 236.015324 213.785696 
L 236.183968 226.163363 
L 236.268291 221.260443 
L 236.352613 227.341865 
L 236.436935 220.309541 
L 236.605579 226.799275 
L 236.689901 222.799015 
L 236.774223 223.967854 
L 236.858545 223.192633 
L 236.942867 226.536725 
L 237.195833 222.812612 
L 237.280156 227.575386 
L 237.364478 225.593286 
L 237.4488 219.772186 
L 237.533122 223.303557 
L 237.617444 221.631882 
L 237.786088 228.601374 
L 237.87041 225.688356 
L 237.954732 222.008499 
L 238.123376 229.761125 
L 238.29202 220.934085 
L 238.376343 225.533435 
L 238.460665 219.709344 
L 238.544987 229.193393 
L 238.629309 220.312608 
L 238.713631 222.63529 
L 238.882275 230.449714 
L 239.050919 220.317651 
L 239.135241 220.095471 
L 239.219563 226.737803 
L 239.303885 221.479864 
L 239.47253 225.99825 
L 239.556852 212.804469 
L 239.641174 228.792441 
L 239.725496 225.539915 
L 239.809818 228.420001 
L 239.89414 222.127903 
L 239.978462 222.746944 
L 240.231428 227.992159 
L 240.31575 220.721641 
L 240.484394 226.24147 
L 240.568717 227.206148 
L 240.737361 225.961583 
L 240.821683 224.480835 
L 240.906005 227.119079 
L 240.990327 223.974449 
L 241.074649 225.083264 
L 241.158971 230.884143 
L 241.243293 228.918012 
L 241.327615 210.747293 
L 241.496259 227.465375 
L 241.833548 225.659618 
L 241.91787 219.54158 
L 242.086514 229.391919 
L 242.170836 227.587981 
L 242.255158 220.481104 
L 242.423802 227.837615 
L 242.676768 218.833103 
L 243.014057 227.301747 
L 243.267023 224.21367 
L 243.351345 227.604131 
L 243.435667 219.887017 
L 243.519989 227.406295 
L 243.604311 223.136431 
L 243.688633 226.356918 
L 243.772956 223.076045 
L 243.857278 224.157181 
L 243.9416 228.615674 
L 244.025922 217.699594 
L 244.110244 226.189315 
L 244.194566 221.762684 
L 244.278888 227.321116 
L 244.36321 226.043807 
L 244.447532 225.817018 
L 244.616176 227.449524 
L 244.78482 223.047248 
L 244.869143 228.848956 
L 245.122109 223.700918 
L 245.206431 227.793041 
L 245.290753 226.400297 
L 245.375075 230.310624 
L 245.459397 221.443749 
L 245.543719 228.908518 
L 245.628041 225.107862 
L 245.712363 228.407986 
L 245.881007 222.486471 
L 246.133974 229.135732 
L 246.218296 228.322268 
L 246.302618 231.010121 
L 246.38694 223.2719 
L 246.471262 225.294871 
L 246.555584 221.511023 
L 246.80855 228.631206 
L 246.892872 228.72324 
L 246.977194 217.438716 
L 247.145839 227.186659 
L 247.314483 223.86519 
L 247.398805 226.598718 
L 247.567449 224.088416 
L 247.651771 225.959071 
L 247.736093 225.273032 
L 247.820415 227.842606 
L 248.073381 220.307627 
L 248.157704 224.526029 
L 248.242026 220.668623 
L 248.326348 228.080765 
L 248.41067 222.931359 
L 248.494992 226.984733 
L 248.579314 221.058 
L 248.663636 227.934882 
L 248.916602 221.133739 
L 249.085246 225.289047 
L 249.169568 222.080779 
L 249.253891 224.524959 
L 249.338213 230.408613 
L 249.591179 217.240407 
L 249.759823 228.081882 
L 249.844145 222.224971 
L 249.928467 222.663877 
L 250.012789 227.686004 
L 250.181433 224.141636 
L 250.265756 224.022961 
L 250.350078 227.44938 
L 250.518722 224.401262 
L 250.603044 226.217374 
L 250.687366 231.9 
L 250.771688 225.118425 
L 250.85601 225.127809 
L 250.940332 229.918734 
L 251.024654 221.675528 
L 251.108976 225.906506 
L 251.193298 223.329723 
L 251.27762 225.303356 
L 251.446265 220.305827 
L 251.530587 220.543653 
L 251.614909 230.053497 
L 251.867875 222.180047 
L 251.952197 226.37723 
L 252.036519 223.564292 
L 252.205163 228.479453 
L 252.289485 228.277606 
L 252.373807 221.389512 
L 252.45813 223.699057 
L 252.626774 219.461286 
L 252.711096 224.647849 
L 252.795418 223.660691 
L 252.87974 219.50913 
L 252.964062 230.50637 
L 253.048384 229.118119 
L 253.132706 228.04734 
L 253.385672 213.697388 
L 253.469994 227.812933 
L 253.554317 224.377382 
L 253.722961 230.845215 
L 253.807283 220.830372 
L 253.891605 226.308114 
L 253.975927 217.237952 
L 254.144571 228.565303 
L 254.228893 224.560437 
L 254.313215 224.89598 
L 254.397537 222.270687 
L 254.481859 225.451822 
L 254.650504 223.054772 
L 254.734826 227.67809 
L 254.819148 220.906117 
L 254.987792 227.760938 
L 255.072114 225.64015 
L 255.156436 227.970286 
L 255.32508 224.957239 
L 255.409402 218.531827 
L 255.493724 225.809378 
L 255.578046 224.277515 
L 255.662368 227.592748 
L 255.746691 214.978973 
L 255.999657 225.105513 
L 256.083979 227.230734 
L 256.252623 223.823951 
L 256.336945 225.052896 
L 256.505589 218.217715 
L 256.674233 228.554019 
L 256.758555 225.165388 
L 256.842878 230.097914 
L 257.011522 219.613619 
L 257.095844 228.259265 
L 257.180166 224.45777 
L 257.264488 230.497274 
L 257.34881 222.156776 
L 257.517454 228.594959 
L 257.601776 224.173693 
L 257.686098 224.472774 
L 257.77042 226.084871 
L 257.854743 224.306554 
L 257.939065 224.797239 
L 258.023387 224.395854 
L 258.107709 225.750225 
L 258.192031 224.612222 
L 258.360675 227.200615 
L 258.444997 222.691278 
L 258.529319 227.829026 
L 258.613641 221.478853 
L 258.697963 223.403786 
L 258.782285 227.629048 
L 258.95093 223.832553 
L 259.035252 225.401238 
L 259.119574 217.484477 
L 259.203896 227.816365 
L 259.288218 226.326144 
L 259.37254 222.015257 
L 259.456862 226.115119 
L 259.541184 224.371496 
L 259.625506 215.697902 
L 259.709828 223.320886 
L 259.79415 217.581572 
L 260.047117 229.140792 
L 260.215761 224.768763 
L 260.300083 228.021123 
L 260.384405 225.13725 
L 260.468727 226.737059 
L 260.553049 222.605865 
L 260.637371 227.611681 
L 260.721693 221.986208 
L 260.806015 225.55458 
L 260.890337 221.99981 
L 260.974659 228.243802 
L 260.974659 228.243802 
" style="fill:none;stroke:#1f77b4;stroke-linecap:square;stroke-width:2;"/>
   </g>
   <g id="patch_3">
    <path d="M 40.603125 242.6 
L 40.603125 7.2 
" style="fill:none;stroke:#000000;stroke-linecap:square;stroke-linejoin:miter;stroke-width:0.8;"/>
   </g>
   <g id="patch_4">
    <path d="M 271.468542 242.6 
L 271.468542 7.2 
" style="fill:none;stroke:#000000;stroke-linecap:square;stroke-linejoin:miter;stroke-width:0.8;"/>
   </g>
   <g id="patch_5">
    <path d="M 40.603125 242.6 
L 271.468542 242.6 
" style="fill:none;stroke:#000000;stroke-linecap:square;stroke-linejoin:miter;stroke-width:0.8;"/>
   </g>
   <g id="patch_6">
    <path d="M 40.603125 7.2 
L 271.468542 7.2 
" style="fill:none;stroke:#000000;stroke-linecap:square;stroke-linejoin:miter;stroke-width:0.8;"/>
   </g>
  </g>
  <g id="axes_2">
   <g id="patch_7">
    <path d="M 329.557917 242.6 
L 560.423333 242.6 
L 560.423333 7.2 
L 329.557917 7.2 
z
" style="fill:#ffffff;"/>
   </g>
   <g id="matplotlib.axis_3">
    <g id="xtick_7">
     <g id="line2d_16">
      <g>
       <use style="stroke:#000000;stroke-width:0.8;" x="340.051799" xlink:href="#mb40d426f3a" y="242.6"/>
      </g>
     </g>
     <g id="text_17">
      <!-- 0 -->
      <g transform="translate(336.870549 257.198438)scale(0.1 -0.1)">
       <use xlink:href="#DejaVuSans-48"/>
      </g>
     </g>
    </g>
    <g id="xtick_8">
     <g id="line2d_17">
      <g>
       <use style="stroke:#000000;stroke-width:0.8;" x="380.412886" xlink:href="#mb40d426f3a" y="242.6"/>
      </g>
     </g>
     <g id="text_18">
      <!-- 5 -->
      <g transform="translate(377.231636 257.198438)scale(0.1 -0.1)">
       <use xlink:href="#DejaVuSans-53"/>
      </g>
     </g>
    </g>
    <g id="xtick_9">
     <g id="line2d_18">
      <g>
       <use style="stroke:#000000;stroke-width:0.8;" x="420.773973" xlink:href="#mb40d426f3a" y="242.6"/>
      </g>
     </g>
     <g id="text_19">
      <!-- 10 -->
      <g transform="translate(414.411473 257.198438)scale(0.1 -0.1)">
       <use xlink:href="#DejaVuSans-49"/>
       <use x="63.623047" xlink:href="#DejaVuSans-48"/>
      </g>
     </g>
    </g>
    <g id="xtick_10">
     <g id="line2d_19">
      <g>
       <use style="stroke:#000000;stroke-width:0.8;" x="461.13506" xlink:href="#mb40d426f3a" y="242.6"/>
      </g>
     </g>
     <g id="text_20">
      <!-- 15 -->
      <g transform="translate(454.77256 257.198438)scale(0.1 -0.1)">
       <use xlink:href="#DejaVuSans-49"/>
       <use x="63.623047" xlink:href="#DejaVuSans-53"/>
      </g>
     </g>
    </g>
    <g id="xtick_11">
     <g id="line2d_20">
      <g>
       <use style="stroke:#000000;stroke-width:0.8;" x="501.496147" xlink:href="#mb40d426f3a" y="242.6"/>
      </g>
     </g>
     <g id="text_21">
      <!-- 20 -->
      <g transform="translate(495.133647 257.198438)scale(0.1 -0.1)">
       <use xlink:href="#DejaVuSans-50"/>
       <use x="63.623047" xlink:href="#DejaVuSans-48"/>
      </g>
     </g>
    </g>
    <g id="xtick_12">
     <g id="line2d_21">
      <g>
       <use style="stroke:#000000;stroke-width:0.8;" x="541.857234" xlink:href="#mb40d426f3a" y="242.6"/>
      </g>
     </g>
     <g id="text_22">
      <!-- 25 -->
      <g transform="translate(535.494734 257.198438)scale(0.1 -0.1)">
       <use xlink:href="#DejaVuSans-50"/>
       <use x="63.623047" xlink:href="#DejaVuSans-53"/>
      </g>
     </g>
    </g>
    <g id="text_23">
     <!-- steps (in 100s) -->
     <g transform="translate(407.784375 270.876562)scale(0.1 -0.1)">
      <defs>
       <path d="M 31 75.875 
Q 24.46875 64.65625 21.28125 53.65625 
Q 18.109375 42.671875 18.109375 31.390625 
Q 18.109375 20.125 21.3125 9.0625 
Q 24.515625 -2 31 -13.1875 
L 23.1875 -13.1875 
Q 15.875 -1.703125 12.234375 9.375 
Q 8.59375 20.453125 8.59375 31.390625 
Q 8.59375 42.28125 12.203125 53.3125 
Q 15.828125 64.359375 23.1875 75.875 
z
" id="DejaVuSans-40"/>
       <path d="M 8.015625 75.875 
L 15.828125 75.875 
Q 23.140625 64.359375 26.78125 53.3125 
Q 30.421875 42.28125 30.421875 31.390625 
Q 30.421875 20.453125 26.78125 9.375 
Q 23.140625 -1.703125 15.828125 -13.1875 
L 8.015625 -13.1875 
Q 14.5 -2 17.703125 9.0625 
Q 20.90625 20.125 20.90625 31.390625 
Q 20.90625 42.671875 17.703125 53.65625 
Q 14.5 64.65625 8.015625 75.875 
z
" id="DejaVuSans-41"/>
      </defs>
      <use xlink:href="#DejaVuSans-115"/>
      <use x="52.099609" xlink:href="#DejaVuSans-116"/>
      <use x="91.308594" xlink:href="#DejaVuSans-101"/>
      <use x="152.832031" xlink:href="#DejaVuSans-112"/>
      <use x="216.308594" xlink:href="#DejaVuSans-115"/>
      <use x="268.408203" xlink:href="#DejaVuSans-32"/>
      <use x="300.195312" xlink:href="#DejaVuSans-40"/>
      <use x="339.208984" xlink:href="#DejaVuSans-105"/>
      <use x="366.992188" xlink:href="#DejaVuSans-110"/>
      <use x="430.371094" xlink:href="#DejaVuSans-32"/>
      <use x="462.158203" xlink:href="#DejaVuSans-49"/>
      <use x="525.78125" xlink:href="#DejaVuSans-48"/>
      <use x="589.404297" xlink:href="#DejaVuSans-48"/>
      <use x="653.027344" xlink:href="#DejaVuSans-115"/>
      <use x="705.126953" xlink:href="#DejaVuSans-41"/>
     </g>
    </g>
   </g>
   <g id="matplotlib.axis_4">
    <g id="ytick_9">
     <g id="line2d_22">
      <g>
       <use style="stroke:#000000;stroke-width:0.8;" x="329.557917" xlink:href="#meabcc21464" y="210.027262"/>
      </g>
     </g>
     <g id="text_24">
      <!-- 10 -->
      <g transform="translate(309.832917 213.826481)scale(0.1 -0.1)">
       <use xlink:href="#DejaVuSans-49"/>
       <use x="63.623047" xlink:href="#DejaVuSans-48"/>
      </g>
     </g>
    </g>
    <g id="ytick_10">
     <g id="line2d_23">
      <g>
       <use style="stroke:#000000;stroke-width:0.8;" x="329.557917" xlink:href="#meabcc21464" y="170.836298"/>
      </g>
     </g>
     <g id="text_25">
      <!-- 20 -->
      <g transform="translate(309.832917 174.635517)scale(0.1 -0.1)">
       <use xlink:href="#DejaVuSans-50"/>
       <use x="63.623047" xlink:href="#DejaVuSans-48"/>
      </g>
     </g>
    </g>
    <g id="ytick_11">
     <g id="line2d_24">
      <g>
       <use style="stroke:#000000;stroke-width:0.8;" x="329.557917" xlink:href="#meabcc21464" y="131.645335"/>
      </g>
     </g>
     <g id="text_26">
      <!-- 30 -->
      <g transform="translate(309.832917 135.444553)scale(0.1 -0.1)">
       <use xlink:href="#DejaVuSans-51"/>
       <use x="63.623047" xlink:href="#DejaVuSans-48"/>
      </g>
     </g>
    </g>
    <g id="ytick_12">
     <g id="line2d_25">
      <g>
       <use style="stroke:#000000;stroke-width:0.8;" x="329.557917" xlink:href="#meabcc21464" y="92.454371"/>
      </g>
     </g>
     <g id="text_27">
      <!-- 40 -->
      <g transform="translate(309.832917 96.25359)scale(0.1 -0.1)">
       <use xlink:href="#DejaVuSans-52"/>
       <use x="63.623047" xlink:href="#DejaVuSans-48"/>
      </g>
     </g>
    </g>
    <g id="ytick_13">
     <g id="line2d_26">
      <g>
       <use style="stroke:#000000;stroke-width:0.8;" x="329.557917" xlink:href="#meabcc21464" y="53.263407"/>
      </g>
     </g>
     <g id="text_28">
      <!-- 50 -->
      <g transform="translate(309.832917 57.062626)scale(0.1 -0.1)">
       <use xlink:href="#DejaVuSans-53"/>
       <use x="63.623047" xlink:href="#DejaVuSans-48"/>
      </g>
     </g>
    </g>
    <g id="ytick_14">
     <g id="line2d_27">
      <g>
       <use style="stroke:#000000;stroke-width:0.8;" x="329.557917" xlink:href="#meabcc21464" y="14.072443"/>
      </g>
     </g>
     <g id="text_29">
      <!-- 60 -->
      <g transform="translate(309.832917 17.871662)scale(0.1 -0.1)">
       <use xlink:href="#DejaVuSans-54"/>
       <use x="63.623047" xlink:href="#DejaVuSans-48"/>
      </g>
     </g>
    </g>
    <g id="text_30">
     <!-- D given dev -->
     <g transform="translate(303.753229 154.90625)rotate(-90)scale(0.1 -0.1)">
      <defs>
       <path d="M 19.671875 64.796875 
L 19.671875 8.109375 
L 31.59375 8.109375 
Q 46.6875 8.109375 53.6875 14.9375 
Q 60.6875 21.78125 60.6875 36.53125 
Q 60.6875 51.171875 53.6875 57.984375 
Q 46.6875 64.796875 31.59375 64.796875 
z
M 9.8125 72.90625 
L 30.078125 72.90625 
Q 51.265625 72.90625 61.171875 64.09375 
Q 71.09375 55.28125 71.09375 36.53125 
Q 71.09375 17.671875 61.125 8.828125 
Q 51.171875 0 30.078125 0 
L 9.8125 0 
z
" id="DejaVuSans-68"/>
       <path d="M 2.984375 54.6875 
L 12.5 54.6875 
L 29.59375 8.796875 
L 46.6875 54.6875 
L 56.203125 54.6875 
L 35.6875 0 
L 23.484375 0 
z
" id="DejaVuSans-118"/>
       <path d="M 45.40625 46.390625 
L 45.40625 75.984375 
L 54.390625 75.984375 
L 54.390625 0 
L 45.40625 0 
L 45.40625 8.203125 
Q 42.578125 3.328125 38.25 0.953125 
Q 33.9375 -1.421875 27.875 -1.421875 
Q 17.96875 -1.421875 11.734375 6.484375 
Q 5.515625 14.40625 5.515625 27.296875 
Q 5.515625 40.1875 11.734375 48.09375 
Q 17.96875 56 27.875 56 
Q 33.9375 56 38.25 53.625 
Q 42.578125 51.265625 45.40625 46.390625 
z
M 14.796875 27.296875 
Q 14.796875 17.390625 18.875 11.75 
Q 22.953125 6.109375 30.078125 6.109375 
Q 37.203125 6.109375 41.296875 11.75 
Q 45.40625 17.390625 45.40625 27.296875 
Q 45.40625 37.203125 41.296875 42.84375 
Q 37.203125 48.484375 30.078125 48.484375 
Q 22.953125 48.484375 18.875 42.84375 
Q 14.796875 37.203125 14.796875 27.296875 
z
" id="DejaVuSans-100"/>
      </defs>
      <use xlink:href="#DejaVuSans-68"/>
      <use x="77.001953" xlink:href="#DejaVuSans-32"/>
      <use x="108.789062" xlink:href="#DejaVuSans-103"/>
      <use x="172.265625" xlink:href="#DejaVuSans-105"/>
      <use x="200.048828" xlink:href="#DejaVuSans-118"/>
      <use x="259.228516" xlink:href="#DejaVuSans-101"/>
      <use x="320.751953" xlink:href="#DejaVuSans-110"/>
      <use x="384.130859" xlink:href="#DejaVuSans-32"/>
      <use x="415.917969" xlink:href="#DejaVuSans-100"/>
      <use x="479.394531" xlink:href="#DejaVuSans-101"/>
      <use x="540.917969" xlink:href="#DejaVuSans-118"/>
     </g>
    </g>
   </g>
   <g id="line2d_28">
    <path clip-path="url(#p3f2a72dab0)" d="M 340.051799 17.9 
L 348.124016 18.86898 
L 356.196234 112.214424 
L 364.268451 155.388553 
L 372.340669 178.51504 
L 380.412886 192.56034 
L 388.485103 201.689274 
L 396.557321 207.701166 
L 404.629538 211.887859 
L 412.701755 215.205005 
L 420.773973 217.944571 
L 428.84619 220.273379 
L 436.918408 221.755869 
L 444.990625 223.501421 
L 453.062842 225.571894 
L 461.13506 226.69053 
L 469.207277 227.909259 
L 477.279495 228.69742 
L 485.351712 228.558146 
L 493.423929 229.408112 
L 501.496147 230.732783 
L 509.568364 230.935116 
L 517.640581 231.154811 
L 525.712799 230.936594 
L 533.785016 231.9 
L 541.857234 230.857132 
L 549.929451 231.736505 
" style="fill:none;stroke:#1f77b4;stroke-linecap:square;stroke-width:2;"/>
   </g>
   <g id="patch_8">
    <path d="M 329.557917 242.6 
L 329.557917 7.2 
" style="fill:none;stroke:#000000;stroke-linecap:square;stroke-linejoin:miter;stroke-width:0.8;"/>
   </g>
   <g id="patch_9">
    <path d="M 560.423333 242.6 
L 560.423333 7.2 
" style="fill:none;stroke:#000000;stroke-linecap:square;stroke-linejoin:miter;stroke-width:0.8;"/>
   </g>
   <g id="patch_10">
    <path d="M 329.557917 242.6 
L 560.423333 242.6 
" style="fill:none;stroke:#000000;stroke-linecap:square;stroke-linejoin:miter;stroke-width:0.8;"/>
   </g>
   <g id="patch_11">
    <path d="M 329.557917 7.2 
L 560.423333 7.2 
" style="fill:none;stroke:#000000;stroke-linecap:square;stroke-linejoin:miter;stroke-width:0.8;"/>
   </g>
  </g>
  <g id="axes_3">
   <g id="patch_12">
    <path d="M 618.512708 242.6 
L 849.378125 242.6 
L 849.378125 7.2 
L 618.512708 7.2 
z
" style="fill:#ffffff;"/>
   </g>
   <g id="matplotlib.axis_5">
    <g id="xtick_13">
     <g id="line2d_29">
      <g>
       <use style="stroke:#000000;stroke-width:0.8;" x="629.006591" xlink:href="#mb40d426f3a" y="242.6"/>
      </g>
     </g>
     <g id="text_31">
      <!-- 0 -->
      <g transform="translate(625.825341 257.198438)scale(0.1 -0.1)">
       <use xlink:href="#DejaVuSans-48"/>
      </g>
     </g>
    </g>
    <g id="xtick_14">
     <g id="line2d_30">
      <g>
       <use style="stroke:#000000;stroke-width:0.8;" x="669.367677" xlink:href="#mb40d426f3a" y="242.6"/>
      </g>
     </g>
     <g id="text_32">
      <!-- 5 -->
      <g transform="translate(666.186427 257.198438)scale(0.1 -0.1)">
       <use xlink:href="#DejaVuSans-53"/>
      </g>
     </g>
    </g>
    <g id="xtick_15">
     <g id="line2d_31">
      <g>
       <use style="stroke:#000000;stroke-width:0.8;" x="709.728764" xlink:href="#mb40d426f3a" y="242.6"/>
      </g>
     </g>
     <g id="text_33">
      <!-- 10 -->
      <g transform="translate(703.366264 257.198438)scale(0.1 -0.1)">
       <use xlink:href="#DejaVuSans-49"/>
       <use x="63.623047" xlink:href="#DejaVuSans-48"/>
      </g>
     </g>
    </g>
    <g id="xtick_16">
     <g id="line2d_32">
      <g>
       <use style="stroke:#000000;stroke-width:0.8;" x="750.089851" xlink:href="#mb40d426f3a" y="242.6"/>
      </g>
     </g>
     <g id="text_34">
      <!-- 15 -->
      <g transform="translate(743.727351 257.198438)scale(0.1 -0.1)">
       <use xlink:href="#DejaVuSans-49"/>
       <use x="63.623047" xlink:href="#DejaVuSans-53"/>
      </g>
     </g>
    </g>
    <g id="xtick_17">
     <g id="line2d_33">
      <g>
       <use style="stroke:#000000;stroke-width:0.8;" x="790.450938" xlink:href="#mb40d426f3a" y="242.6"/>
      </g>
     </g>
     <g id="text_35">
      <!-- 20 -->
      <g transform="translate(784.088438 257.198438)scale(0.1 -0.1)">
       <use xlink:href="#DejaVuSans-50"/>
       <use x="63.623047" xlink:href="#DejaVuSans-48"/>
      </g>
     </g>
    </g>
    <g id="xtick_18">
     <g id="line2d_34">
      <g>
       <use style="stroke:#000000;stroke-width:0.8;" x="830.812025" xlink:href="#mb40d426f3a" y="242.6"/>
      </g>
     </g>
     <g id="text_36">
      <!-- 25 -->
      <g transform="translate(824.449525 257.198438)scale(0.1 -0.1)">
       <use xlink:href="#DejaVuSans-50"/>
       <use x="63.623047" xlink:href="#DejaVuSans-53"/>
      </g>
     </g>
    </g>
    <g id="text_37">
     <!-- steps (in 10s) -->
     <g transform="translate(699.920417 270.876562)scale(0.1 -0.1)">
      <use xlink:href="#DejaVuSans-115"/>
      <use x="52.099609" xlink:href="#DejaVuSans-116"/>
      <use x="91.308594" xlink:href="#DejaVuSans-101"/>
      <use x="152.832031" xlink:href="#DejaVuSans-112"/>
      <use x="216.308594" xlink:href="#DejaVuSans-115"/>
      <use x="268.408203" xlink:href="#DejaVuSans-32"/>
      <use x="300.195312" xlink:href="#DejaVuSans-40"/>
      <use x="339.208984" xlink:href="#DejaVuSans-105"/>
      <use x="366.992188" xlink:href="#DejaVuSans-110"/>
      <use x="430.371094" xlink:href="#DejaVuSans-32"/>
      <use x="462.158203" xlink:href="#DejaVuSans-49"/>
      <use x="525.78125" xlink:href="#DejaVuSans-48"/>
      <use x="589.404297" xlink:href="#DejaVuSans-115"/>
      <use x="641.503906" xlink:href="#DejaVuSans-41"/>
     </g>
    </g>
   </g>
   <g id="matplotlib.axis_6">
    <g id="ytick_15">
     <g id="line2d_35">
      <g>
       <use style="stroke:#000000;stroke-width:0.8;" x="618.512708" xlink:href="#meabcc21464" y="237.577315"/>
      </g>
     </g>
     <g id="text_38">
      <!-- 0.0 -->
      <g transform="translate(595.609583 241.376533)scale(0.1 -0.1)">
       <defs>
        <path d="M 10.6875 12.40625 
L 21 12.40625 
L 21 0 
L 10.6875 0 
z
" id="DejaVuSans-46"/>
       </defs>
       <use xlink:href="#DejaVuSans-48"/>
       <use x="63.623047" xlink:href="#DejaVuSans-46"/>
       <use x="95.410156" xlink:href="#DejaVuSans-48"/>
      </g>
     </g>
    </g>
    <g id="ytick_16">
     <g id="line2d_36">
      <g>
       <use style="stroke:#000000;stroke-width:0.8;" x="618.512708" xlink:href="#meabcc21464" y="190.235463"/>
      </g>
     </g>
     <g id="text_39">
      <!-- 0.2 -->
      <g transform="translate(595.609583 194.034682)scale(0.1 -0.1)">
       <use xlink:href="#DejaVuSans-48"/>
       <use x="63.623047" xlink:href="#DejaVuSans-46"/>
       <use x="95.410156" xlink:href="#DejaVuSans-50"/>
      </g>
     </g>
    </g>
    <g id="ytick_17">
     <g id="line2d_37">
      <g>
       <use style="stroke:#000000;stroke-width:0.8;" x="618.512708" xlink:href="#meabcc21464" y="142.893611"/>
      </g>
     </g>
     <g id="text_40">
      <!-- 0.4 -->
      <g transform="translate(595.609583 146.69283)scale(0.1 -0.1)">
       <use xlink:href="#DejaVuSans-48"/>
       <use x="63.623047" xlink:href="#DejaVuSans-46"/>
       <use x="95.410156" xlink:href="#DejaVuSans-52"/>
      </g>
     </g>
    </g>
    <g id="ytick_18">
     <g id="line2d_38">
      <g>
       <use style="stroke:#000000;stroke-width:0.8;" x="618.512708" xlink:href="#meabcc21464" y="95.55176"/>
      </g>
     </g>
     <g id="text_41">
      <!-- 0.6 -->
      <g transform="translate(595.609583 99.350978)scale(0.1 -0.1)">
       <use xlink:href="#DejaVuSans-48"/>
       <use x="63.623047" xlink:href="#DejaVuSans-46"/>
       <use x="95.410156" xlink:href="#DejaVuSans-54"/>
      </g>
     </g>
    </g>
    <g id="ytick_19">
     <g id="line2d_39">
      <g>
       <use style="stroke:#000000;stroke-width:0.8;" x="618.512708" xlink:href="#meabcc21464" y="48.209908"/>
      </g>
     </g>
     <g id="text_42">
      <!-- 0.8 -->
      <g transform="translate(595.609583 52.009127)scale(0.1 -0.1)">
       <defs>
        <path d="M 31.78125 34.625 
Q 24.75 34.625 20.71875 30.859375 
Q 16.703125 27.09375 16.703125 20.515625 
Q 16.703125 13.921875 20.71875 10.15625 
Q 24.75 6.390625 31.78125 6.390625 
Q 38.8125 6.390625 42.859375 10.171875 
Q 46.921875 13.96875 46.921875 20.515625 
Q 46.921875 27.09375 42.890625 30.859375 
Q 38.875 34.625 31.78125 34.625 
z
M 21.921875 38.8125 
Q 15.578125 40.375 12.03125 44.71875 
Q 8.5 49.078125 8.5 55.328125 
Q 8.5 64.0625 14.71875 69.140625 
Q 20.953125 74.21875 31.78125 74.21875 
Q 42.671875 74.21875 48.875 69.140625 
Q 55.078125 64.0625 55.078125 55.328125 
Q 55.078125 49.078125 51.53125 44.71875 
Q 48 40.375 41.703125 38.8125 
Q 48.828125 37.15625 52.796875 32.3125 
Q 56.78125 27.484375 56.78125 20.515625 
Q 56.78125 9.90625 50.3125 4.234375 
Q 43.84375 -1.421875 31.78125 -1.421875 
Q 19.734375 -1.421875 13.25 4.234375 
Q 6.78125 9.90625 6.78125 20.515625 
Q 6.78125 27.484375 10.78125 32.3125 
Q 14.796875 37.15625 21.921875 38.8125 
z
M 18.3125 54.390625 
Q 18.3125 48.734375 21.84375 45.5625 
Q 25.390625 42.390625 31.78125 42.390625 
Q 38.140625 42.390625 41.71875 45.5625 
Q 45.3125 48.734375 45.3125 54.390625 
Q 45.3125 60.0625 41.71875 63.234375 
Q 38.140625 66.40625 31.78125 66.40625 
Q 25.390625 66.40625 21.84375 63.234375 
Q 18.3125 60.0625 18.3125 54.390625 
z
" id="DejaVuSans-56"/>
       </defs>
       <use xlink:href="#DejaVuSans-48"/>
       <use x="63.623047" xlink:href="#DejaVuSans-46"/>
       <use x="95.410156" xlink:href="#DejaVuSans-56"/>
      </g>
     </g>
    </g>
    <g id="text_43">
     <!-- dev acc -->
     <g transform="translate(589.529896 144.261719)rotate(-90)scale(0.1 -0.1)">
      <defs>
       <path d="M 48.78125 52.59375 
L 48.78125 44.1875 
Q 44.96875 46.296875 41.140625 47.34375 
Q 37.3125 48.390625 33.40625 48.390625 
Q 24.65625 48.390625 19.8125 42.84375 
Q 14.984375 37.3125 14.984375 27.296875 
Q 14.984375 17.28125 19.8125 11.734375 
Q 24.65625 6.203125 33.40625 6.203125 
Q 37.3125 6.203125 41.140625 7.25 
Q 44.96875 8.296875 48.78125 10.40625 
L 48.78125 2.09375 
Q 45.015625 0.34375 40.984375 -0.53125 
Q 36.96875 -1.421875 32.421875 -1.421875 
Q 20.0625 -1.421875 12.78125 6.34375 
Q 5.515625 14.109375 5.515625 27.296875 
Q 5.515625 40.671875 12.859375 48.328125 
Q 20.21875 56 33.015625 56 
Q 37.15625 56 41.109375 55.140625 
Q 45.0625 54.296875 48.78125 52.59375 
z
" id="DejaVuSans-99"/>
      </defs>
      <use xlink:href="#DejaVuSans-100"/>
      <use x="63.476562" xlink:href="#DejaVuSans-101"/>
      <use x="125" xlink:href="#DejaVuSans-118"/>
      <use x="184.179688" xlink:href="#DejaVuSans-32"/>
      <use x="215.966797" xlink:href="#DejaVuSans-97"/>
      <use x="277.246094" xlink:href="#DejaVuSans-99"/>
      <use x="332.226562" xlink:href="#DejaVuSans-99"/>
     </g>
    </g>
   </g>
   <g id="line2d_40">
    <path clip-path="url(#p688c3b5dcb)" d="M 629.006591 231.9 
L 637.078808 231.9 
L 645.151025 130.403519 
L 653.223243 95.760314 
L 661.29546 74.673146 
L 669.367677 61.001245 
L 677.439895 50.573525 
L 685.512112 43.969302 
L 693.58433 39.450623 
L 701.656547 36.090579 
L 709.728764 34.352626 
L 717.800982 30.181538 
L 725.873199 30.181538 
L 733.945417 27.516676 
L 742.017634 25.894586 
L 750.089851 24.967677 
L 758.162069 23.577315 
L 766.234286 22.882133 
L 774.306503 22.534543 
L 782.378721 21.723498 
L 790.450938 20.796589 
L 798.523156 19.753817 
L 806.595373 19.290363 
L 814.66759 18.363454 
L 822.739808 18.363454 
L 830.812025 21.260043 
L 838.884242 17.9 
" style="fill:none;stroke:#1f77b4;stroke-linecap:square;stroke-width:2;"/>
   </g>
   <g id="patch_13">
    <path d="M 618.512708 242.6 
L 618.512708 7.2 
" style="fill:none;stroke:#000000;stroke-linecap:square;stroke-linejoin:miter;stroke-width:0.8;"/>
   </g>
   <g id="patch_14">
    <path d="M 849.378125 242.6 
L 849.378125 7.2 
" style="fill:none;stroke:#000000;stroke-linecap:square;stroke-linejoin:miter;stroke-width:0.8;"/>
   </g>
   <g id="patch_15">
    <path d="M 618.512708 242.6 
L 849.378125 242.6 
" style="fill:none;stroke:#000000;stroke-linecap:square;stroke-linejoin:miter;stroke-width:0.8;"/>
   </g>
   <g id="patch_16">
    <path d="M 618.512708 7.2 
L 849.378125 7.2 
" style="fill:none;stroke:#000000;stroke-linecap:square;stroke-linejoin:miter;stroke-width:0.8;"/>
   </g>
  </g>
 </g>
 <defs>
  <clipPath id="p2583cfab27">
   <rect height="235.4" width="230.865417" x="40.603125" y="7.2"/>
  </clipPath>
  <clipPath id="p3f2a72dab0">
   <rect height="235.4" width="230.865417" x="329.557917" y="7.2"/>
  </clipPath>
  <clipPath id="p688c3b5dcb">
   <rect height="235.4" width="230.865417" x="618.512708" y="7.2"/>
  </clipPath>
 </defs>
</svg>
