<?xml version="1.0" encoding="utf-8" standalone="no"?>
<!DOCTYPE svg PUBLIC "-//W3C//DTD SVG 1.1//EN"
  "http://www.w3.org/Graphics/SVG/1.1/DTD/svg11.dtd">
<!-- Created with matplotlib (https://matplotlib.org/) -->
<svg height="280.15625pt" version="1.1" viewBox="0 0 856.578125 280.15625" width="856.578125pt" xmlns="http://www.w3.org/2000/svg" xmlns:xlink="http://www.w3.org/1999/xlink">
 <metadata>
  <rdf:RDF xmlns:cc="http://creativecommons.org/ns#" xmlns:dc="http://purl.org/dc/elements/1.1/" xmlns:rdf="http://www.w3.org/1999/02/22-rdf-syntax-ns#">
   <cc:Work>
    <dc:type rdf:resource="http://purl.org/dc/dcmitype/StillImage"/>
    <dc:date>2022-04-05T17:45:34.516740</dc:date>
    <dc:format>image/svg+xml</dc:format>
    <dc:creator>
     <cc:Agent>
      <dc:title>Matplotlib v3.3.2, https://matplotlib.org/</dc:title>
     </cc:Agent>
    </dc:creator>
   </cc:Work>
  </rdf:RDF>
 </metadata>
 <defs>
  <style type="text/css">*{stroke-linecap:butt;stroke-linejoin:round;}</style>
 </defs>
 <g id="figure_1">
  <g id="patch_1">
   <path d="M 0 280.15625 
L 856.578125 280.15625 
L 856.578125 0 
L 0 0 
z
" style="fill:none;"/>
  </g>
  <g id="axes_1">
   <g id="patch_2">
    <path d="M 40.603125 242.6 
L 271.468542 242.6 
L 271.468542 7.2 
L 40.603125 7.2 
z
" style="fill:#ffffff;"/>
   </g>
   <g id="matplotlib.axis_1">
    <g id="xtick_1">
     <g id="line2d_1">
      <defs>
       <path d="M 0 0 
L 0 3.5 
" id="mdc703a5c3b" style="stroke:#000000;stroke-width:0.8;"/>
      </defs>
      <g>
       <use style="stroke:#000000;stroke-width:0.8;" x="51.097008" xlink:href="#mdc703a5c3b" y="242.6"/>
      </g>
     </g>
     <g id="text_1">
      <!-- 0 -->
      <g transform="translate(47.915758 257.198437)scale(0.1 -0.1)">
       <defs>
        <path d="M 31.78125 66.40625 
Q 24.171875 66.40625 20.328125 58.90625 
Q 16.5 51.421875 16.5 36.375 
Q 16.5 21.390625 20.328125 13.890625 
Q 24.171875 6.390625 31.78125 6.390625 
Q 39.453125 6.390625 43.28125 13.890625 
Q 47.125 21.390625 47.125 36.375 
Q 47.125 51.421875 43.28125 58.90625 
Q 39.453125 66.40625 31.78125 66.40625 
z
M 31.78125 74.21875 
Q 44.046875 74.21875 50.515625 64.515625 
Q 56.984375 54.828125 56.984375 36.375 
Q 56.984375 17.96875 50.515625 8.265625 
Q 44.046875 -1.421875 31.78125 -1.421875 
Q 19.53125 -1.421875 13.0625 8.265625 
Q 6.59375 17.96875 6.59375 36.375 
Q 6.59375 54.828125 13.0625 64.515625 
Q 19.53125 74.21875 31.78125 74.21875 
z
" id="DejaVuSans-48"/>
       </defs>
       <use xlink:href="#DejaVuSans-48"/>
      </g>
     </g>
    </g>
    <g id="xtick_2">
     <g id="line2d_2">
      <g>
       <use style="stroke:#000000;stroke-width:0.8;" x="93.258047" xlink:href="#mdc703a5c3b" y="242.6"/>
      </g>
     </g>
     <g id="text_2">
      <!-- 500 -->
      <g transform="translate(83.714297 257.198437)scale(0.1 -0.1)">
       <defs>
        <path d="M 10.796875 72.90625 
L 49.515625 72.90625 
L 49.515625 64.59375 
L 19.828125 64.59375 
L 19.828125 46.734375 
Q 21.96875 47.46875 24.109375 47.828125 
Q 26.265625 48.1875 28.421875 48.1875 
Q 40.625 48.1875 47.75 41.5 
Q 54.890625 34.8125 54.890625 23.390625 
Q 54.890625 11.625 47.5625 5.09375 
Q 40.234375 -1.421875 26.90625 -1.421875 
Q 22.3125 -1.421875 17.546875 -0.640625 
Q 12.796875 0.140625 7.71875 1.703125 
L 7.71875 11.625 
Q 12.109375 9.234375 16.796875 8.0625 
Q 21.484375 6.890625 26.703125 6.890625 
Q 35.15625 6.890625 40.078125 11.328125 
Q 45.015625 15.765625 45.015625 23.390625 
Q 45.015625 31 40.078125 35.4375 
Q 35.15625 39.890625 26.703125 39.890625 
Q 22.75 39.890625 18.8125 39.015625 
Q 14.890625 38.140625 10.796875 36.28125 
z
" id="DejaVuSans-53"/>
       </defs>
       <use xlink:href="#DejaVuSans-53"/>
       <use x="63.623047" xlink:href="#DejaVuSans-48"/>
       <use x="127.246094" xlink:href="#DejaVuSans-48"/>
      </g>
     </g>
    </g>
    <g id="xtick_3">
     <g id="line2d_3">
      <g>
       <use style="stroke:#000000;stroke-width:0.8;" x="135.419085" xlink:href="#mdc703a5c3b" y="242.6"/>
      </g>
     </g>
     <g id="text_3">
      <!-- 1000 -->
      <g transform="translate(122.694085 257.198437)scale(0.1 -0.1)">
       <defs>
        <path d="M 12.40625 8.296875 
L 28.515625 8.296875 
L 28.515625 63.921875 
L 10.984375 60.40625 
L 10.984375 69.390625 
L 28.421875 72.90625 
L 38.28125 72.90625 
L 38.28125 8.296875 
L 54.390625 8.296875 
L 54.390625 0 
L 12.40625 0 
z
" id="DejaVuSans-49"/>
       </defs>
       <use xlink:href="#DejaVuSans-49"/>
       <use x="63.623047" xlink:href="#DejaVuSans-48"/>
       <use x="127.246094" xlink:href="#DejaVuSans-48"/>
       <use x="190.869141" xlink:href="#DejaVuSans-48"/>
      </g>
     </g>
    </g>
    <g id="xtick_4">
     <g id="line2d_4">
      <g>
       <use style="stroke:#000000;stroke-width:0.8;" x="177.580124" xlink:href="#mdc703a5c3b" y="242.6"/>
      </g>
     </g>
     <g id="text_4">
      <!-- 1500 -->
      <g transform="translate(164.855124 257.198437)scale(0.1 -0.1)">
       <use xlink:href="#DejaVuSans-49"/>
       <use x="63.623047" xlink:href="#DejaVuSans-53"/>
       <use x="127.246094" xlink:href="#DejaVuSans-48"/>
       <use x="190.869141" xlink:href="#DejaVuSans-48"/>
      </g>
     </g>
    </g>
    <g id="xtick_5">
     <g id="line2d_5">
      <g>
       <use style="stroke:#000000;stroke-width:0.8;" x="219.741163" xlink:href="#mdc703a5c3b" y="242.6"/>
      </g>
     </g>
     <g id="text_5">
      <!-- 2000 -->
      <g transform="translate(207.016163 257.198437)scale(0.1 -0.1)">
       <defs>
        <path d="M 19.1875 8.296875 
L 53.609375 8.296875 
L 53.609375 0 
L 7.328125 0 
L 7.328125 8.296875 
Q 12.9375 14.109375 22.625 23.890625 
Q 32.328125 33.6875 34.8125 36.53125 
Q 39.546875 41.84375 41.421875 45.53125 
Q 43.3125 49.21875 43.3125 52.78125 
Q 43.3125 58.59375 39.234375 62.25 
Q 35.15625 65.921875 28.609375 65.921875 
Q 23.96875 65.921875 18.8125 64.3125 
Q 13.671875 62.703125 7.8125 59.421875 
L 7.8125 69.390625 
Q 13.765625 71.78125 18.9375 73 
Q 24.125 74.21875 28.421875 74.21875 
Q 39.75 74.21875 46.484375 68.546875 
Q 53.21875 62.890625 53.21875 53.421875 
Q 53.21875 48.921875 51.53125 44.890625 
Q 49.859375 40.875 45.40625 35.40625 
Q 44.1875 33.984375 37.640625 27.21875 
Q 31.109375 20.453125 19.1875 8.296875 
z
" id="DejaVuSans-50"/>
       </defs>
       <use xlink:href="#DejaVuSans-50"/>
       <use x="63.623047" xlink:href="#DejaVuSans-48"/>
       <use x="127.246094" xlink:href="#DejaVuSans-48"/>
       <use x="190.869141" xlink:href="#DejaVuSans-48"/>
      </g>
     </g>
    </g>
    <g id="xtick_6">
     <g id="line2d_6">
      <g>
       <use style="stroke:#000000;stroke-width:0.8;" x="261.902202" xlink:href="#mdc703a5c3b" y="242.6"/>
      </g>
     </g>
     <g id="text_6">
      <!-- 2500 -->
      <g transform="translate(249.177202 257.198437)scale(0.1 -0.1)">
       <use xlink:href="#DejaVuSans-50"/>
       <use x="63.623047" xlink:href="#DejaVuSans-53"/>
       <use x="127.246094" xlink:href="#DejaVuSans-48"/>
       <use x="190.869141" xlink:href="#DejaVuSans-48"/>
      </g>
     </g>
    </g>
    <g id="text_7">
     <!-- steps -->
     <g transform="translate(142.615521 270.876562)scale(0.1 -0.1)">
      <defs>
       <path d="M 44.28125 53.078125 
L 44.28125 44.578125 
Q 40.484375 46.53125 36.375 47.5 
Q 32.28125 48.484375 27.875 48.484375 
Q 21.1875 48.484375 17.84375 46.4375 
Q 14.5 44.390625 14.5 40.28125 
Q 14.5 37.15625 16.890625 35.375 
Q 19.28125 33.59375 26.515625 31.984375 
L 29.59375 31.296875 
Q 39.15625 29.25 43.1875 25.515625 
Q 47.21875 21.78125 47.21875 15.09375 
Q 47.21875 7.46875 41.1875 3.015625 
Q 35.15625 -1.421875 24.609375 -1.421875 
Q 20.21875 -1.421875 15.453125 -0.5625 
Q 10.6875 0.296875 5.421875 2 
L 5.421875 11.28125 
Q 10.40625 8.6875 15.234375 7.390625 
Q 20.0625 6.109375 24.8125 6.109375 
Q 31.15625 6.109375 34.5625 8.28125 
Q 37.984375 10.453125 37.984375 14.40625 
Q 37.984375 18.0625 35.515625 20.015625 
Q 33.0625 21.96875 24.703125 23.78125 
L 21.578125 24.515625 
Q 13.234375 26.265625 9.515625 29.90625 
Q 5.8125 33.546875 5.8125 39.890625 
Q 5.8125 47.609375 11.28125 51.796875 
Q 16.75 56 26.8125 56 
Q 31.78125 56 36.171875 55.265625 
Q 40.578125 54.546875 44.28125 53.078125 
z
" id="DejaVuSans-115"/>
       <path d="M 18.3125 70.21875 
L 18.3125 54.6875 
L 36.8125 54.6875 
L 36.8125 47.703125 
L 18.3125 47.703125 
L 18.3125 18.015625 
Q 18.3125 11.328125 20.140625 9.421875 
Q 21.96875 7.515625 27.59375 7.515625 
L 36.8125 7.515625 
L 36.8125 0 
L 27.59375 0 
Q 17.1875 0 13.234375 3.875 
Q 9.28125 7.765625 9.28125 18.015625 
L 9.28125 47.703125 
L 2.6875 47.703125 
L 2.6875 54.6875 
L 9.28125 54.6875 
L 9.28125 70.21875 
z
" id="DejaVuSans-116"/>
       <path d="M 56.203125 29.59375 
L 56.203125 25.203125 
L 14.890625 25.203125 
Q 15.484375 15.921875 20.484375 11.0625 
Q 25.484375 6.203125 34.421875 6.203125 
Q 39.59375 6.203125 44.453125 7.46875 
Q 49.3125 8.734375 54.109375 11.28125 
L 54.109375 2.78125 
Q 49.265625 0.734375 44.1875 -0.34375 
Q 39.109375 -1.421875 33.890625 -1.421875 
Q 20.796875 -1.421875 13.15625 6.1875 
Q 5.515625 13.8125 5.515625 26.8125 
Q 5.515625 40.234375 12.765625 48.109375 
Q 20.015625 56 32.328125 56 
Q 43.359375 56 49.78125 48.890625 
Q 56.203125 41.796875 56.203125 29.59375 
z
M 47.21875 32.234375 
Q 47.125 39.59375 43.09375 43.984375 
Q 39.0625 48.390625 32.421875 48.390625 
Q 24.90625 48.390625 20.390625 44.140625 
Q 15.875 39.890625 15.1875 32.171875 
z
" id="DejaVuSans-101"/>
       <path d="M 18.109375 8.203125 
L 18.109375 -20.796875 
L 9.078125 -20.796875 
L 9.078125 54.6875 
L 18.109375 54.6875 
L 18.109375 46.390625 
Q 20.953125 51.265625 25.265625 53.625 
Q 29.59375 56 35.59375 56 
Q 45.5625 56 51.78125 48.09375 
Q 58.015625 40.1875 58.015625 27.296875 
Q 58.015625 14.40625 51.78125 6.484375 
Q 45.5625 -1.421875 35.59375 -1.421875 
Q 29.59375 -1.421875 25.265625 0.953125 
Q 20.953125 3.328125 18.109375 8.203125 
z
M 48.6875 27.296875 
Q 48.6875 37.203125 44.609375 42.84375 
Q 40.53125 48.484375 33.40625 48.484375 
Q 26.265625 48.484375 22.1875 42.84375 
Q 18.109375 37.203125 18.109375 27.296875 
Q 18.109375 17.390625 22.1875 11.75 
Q 26.265625 6.109375 33.40625 6.109375 
Q 40.53125 6.109375 44.609375 11.75 
Q 48.6875 17.390625 48.6875 27.296875 
z
" id="DejaVuSans-112"/>
      </defs>
      <use xlink:href="#DejaVuSans-115"/>
      <use x="52.099609" xlink:href="#DejaVuSans-116"/>
      <use x="91.308594" xlink:href="#DejaVuSans-101"/>
      <use x="152.832031" xlink:href="#DejaVuSans-112"/>
      <use x="216.308594" xlink:href="#DejaVuSans-115"/>
     </g>
    </g>
   </g>
   <g id="matplotlib.axis_2">
    <g id="ytick_1">
     <g id="line2d_7">
      <defs>
       <path d="M 0 0 
L -3.5 0 
" id="mae82391d69" style="stroke:#000000;stroke-width:0.8;"/>
      </defs>
      <g>
       <use style="stroke:#000000;stroke-width:0.8;" x="40.603125" xlink:href="#mae82391d69" y="235.325493"/>
      </g>
     </g>
     <g id="text_8">
      <!-- 0 -->
      <g transform="translate(27.240625 239.124711)scale(0.1 -0.1)">
       <use xlink:href="#DejaVuSans-48"/>
      </g>
     </g>
    </g>
    <g id="ytick_2">
     <g id="line2d_8">
      <g>
       <use style="stroke:#000000;stroke-width:0.8;" x="40.603125" xlink:href="#mae82391d69" y="202.095054"/>
      </g>
     </g>
     <g id="text_9">
      <!-- 10 -->
      <g transform="translate(20.878125 205.894273)scale(0.1 -0.1)">
       <use xlink:href="#DejaVuSans-49"/>
       <use x="63.623047" xlink:href="#DejaVuSans-48"/>
      </g>
     </g>
    </g>
    <g id="ytick_3">
     <g id="line2d_9">
      <g>
       <use style="stroke:#000000;stroke-width:0.8;" x="40.603125" xlink:href="#mae82391d69" y="168.864616"/>
      </g>
     </g>
     <g id="text_10">
      <!-- 20 -->
      <g transform="translate(20.878125 172.663834)scale(0.1 -0.1)">
       <use xlink:href="#DejaVuSans-50"/>
       <use x="63.623047" xlink:href="#DejaVuSans-48"/>
      </g>
     </g>
    </g>
    <g id="ytick_4">
     <g id="line2d_10">
      <g>
       <use style="stroke:#000000;stroke-width:0.8;" x="40.603125" xlink:href="#mae82391d69" y="135.634177"/>
      </g>
     </g>
     <g id="text_11">
      <!-- 30 -->
      <g transform="translate(20.878125 139.433396)scale(0.1 -0.1)">
       <defs>
        <path d="M 40.578125 39.3125 
Q 47.65625 37.796875 51.625 33 
Q 55.609375 28.21875 55.609375 21.1875 
Q 55.609375 10.40625 48.1875 4.484375 
Q 40.765625 -1.421875 27.09375 -1.421875 
Q 22.515625 -1.421875 17.65625 -0.515625 
Q 12.796875 0.390625 7.625 2.203125 
L 7.625 11.71875 
Q 11.71875 9.328125 16.59375 8.109375 
Q 21.484375 6.890625 26.8125 6.890625 
Q 36.078125 6.890625 40.9375 10.546875 
Q 45.796875 14.203125 45.796875 21.1875 
Q 45.796875 27.640625 41.28125 31.265625 
Q 36.765625 34.90625 28.71875 34.90625 
L 20.21875 34.90625 
L 20.21875 43.015625 
L 29.109375 43.015625 
Q 36.375 43.015625 40.234375 45.921875 
Q 44.09375 48.828125 44.09375 54.296875 
Q 44.09375 59.90625 40.109375 62.90625 
Q 36.140625 65.921875 28.71875 65.921875 
Q 24.65625 65.921875 20.015625 65.03125 
Q 15.375 64.15625 9.8125 62.3125 
L 9.8125 71.09375 
Q 15.4375 72.65625 20.34375 73.4375 
Q 25.25 74.21875 29.59375 74.21875 
Q 40.828125 74.21875 47.359375 69.109375 
Q 53.90625 64.015625 53.90625 55.328125 
Q 53.90625 49.265625 50.4375 45.09375 
Q 46.96875 40.921875 40.578125 39.3125 
z
" id="DejaVuSans-51"/>
       </defs>
       <use xlink:href="#DejaVuSans-51"/>
       <use x="63.623047" xlink:href="#DejaVuSans-48"/>
      </g>
     </g>
    </g>
    <g id="ytick_5">
     <g id="line2d_11">
      <g>
       <use style="stroke:#000000;stroke-width:0.8;" x="40.603125" xlink:href="#mae82391d69" y="102.403739"/>
      </g>
     </g>
     <g id="text_12">
      <!-- 40 -->
      <g transform="translate(20.878125 106.202957)scale(0.1 -0.1)">
       <defs>
        <path d="M 37.796875 64.3125 
L 12.890625 25.390625 
L 37.796875 25.390625 
z
M 35.203125 72.90625 
L 47.609375 72.90625 
L 47.609375 25.390625 
L 58.015625 25.390625 
L 58.015625 17.1875 
L 47.609375 17.1875 
L 47.609375 0 
L 37.796875 0 
L 37.796875 17.1875 
L 4.890625 17.1875 
L 4.890625 26.703125 
z
" id="DejaVuSans-52"/>
       </defs>
       <use xlink:href="#DejaVuSans-52"/>
       <use x="63.623047" xlink:href="#DejaVuSans-48"/>
      </g>
     </g>
    </g>
    <g id="ytick_6">
     <g id="line2d_12">
      <g>
       <use style="stroke:#000000;stroke-width:0.8;" x="40.603125" xlink:href="#mae82391d69" y="69.1733"/>
      </g>
     </g>
     <g id="text_13">
      <!-- 50 -->
      <g transform="translate(20.878125 72.972519)scale(0.1 -0.1)">
       <use xlink:href="#DejaVuSans-53"/>
       <use x="63.623047" xlink:href="#DejaVuSans-48"/>
      </g>
     </g>
    </g>
    <g id="ytick_7">
     <g id="line2d_13">
      <g>
       <use style="stroke:#000000;stroke-width:0.8;" x="40.603125" xlink:href="#mae82391d69" y="35.942861"/>
      </g>
     </g>
     <g id="text_14">
      <!-- 60 -->
      <g transform="translate(20.878125 39.74208)scale(0.1 -0.1)">
       <defs>
        <path d="M 33.015625 40.375 
Q 26.375 40.375 22.484375 35.828125 
Q 18.609375 31.296875 18.609375 23.390625 
Q 18.609375 15.53125 22.484375 10.953125 
Q 26.375 6.390625 33.015625 6.390625 
Q 39.65625 6.390625 43.53125 10.953125 
Q 47.40625 15.53125 47.40625 23.390625 
Q 47.40625 31.296875 43.53125 35.828125 
Q 39.65625 40.375 33.015625 40.375 
z
M 52.59375 71.296875 
L 52.59375 62.3125 
Q 48.875 64.0625 45.09375 64.984375 
Q 41.3125 65.921875 37.59375 65.921875 
Q 27.828125 65.921875 22.671875 59.328125 
Q 17.53125 52.734375 16.796875 39.40625 
Q 19.671875 43.65625 24.015625 45.921875 
Q 28.375 48.1875 33.59375 48.1875 
Q 44.578125 48.1875 50.953125 41.515625 
Q 57.328125 34.859375 57.328125 23.390625 
Q 57.328125 12.15625 50.6875 5.359375 
Q 44.046875 -1.421875 33.015625 -1.421875 
Q 20.359375 -1.421875 13.671875 8.265625 
Q 6.984375 17.96875 6.984375 36.375 
Q 6.984375 53.65625 15.1875 63.9375 
Q 23.390625 74.21875 37.203125 74.21875 
Q 40.921875 74.21875 44.703125 73.484375 
Q 48.484375 72.75 52.59375 71.296875 
z
" id="DejaVuSans-54"/>
       </defs>
       <use xlink:href="#DejaVuSans-54"/>
       <use x="63.623047" xlink:href="#DejaVuSans-48"/>
      </g>
     </g>
    </g>
    <g id="text_15">
     <!-- training loss -->
     <g transform="translate(14.798438 155.516406)rotate(-90)scale(0.1 -0.1)">
      <defs>
       <path d="M 41.109375 46.296875 
Q 39.59375 47.171875 37.8125 47.578125 
Q 36.03125 48 33.890625 48 
Q 26.265625 48 22.1875 43.046875 
Q 18.109375 38.09375 18.109375 28.8125 
L 18.109375 0 
L 9.078125 0 
L 9.078125 54.6875 
L 18.109375 54.6875 
L 18.109375 46.1875 
Q 20.953125 51.171875 25.484375 53.578125 
Q 30.03125 56 36.53125 56 
Q 37.453125 56 38.578125 55.875 
Q 39.703125 55.765625 41.0625 55.515625 
z
" id="DejaVuSans-114"/>
       <path d="M 34.28125 27.484375 
Q 23.390625 27.484375 19.1875 25 
Q 14.984375 22.515625 14.984375 16.5 
Q 14.984375 11.71875 18.140625 8.90625 
Q 21.296875 6.109375 26.703125 6.109375 
Q 34.1875 6.109375 38.703125 11.40625 
Q 43.21875 16.703125 43.21875 25.484375 
L 43.21875 27.484375 
z
M 52.203125 31.203125 
L 52.203125 0 
L 43.21875 0 
L 43.21875 8.296875 
Q 40.140625 3.328125 35.546875 0.953125 
Q 30.953125 -1.421875 24.3125 -1.421875 
Q 15.921875 -1.421875 10.953125 3.296875 
Q 6 8.015625 6 15.921875 
Q 6 25.140625 12.171875 29.828125 
Q 18.359375 34.515625 30.609375 34.515625 
L 43.21875 34.515625 
L 43.21875 35.40625 
Q 43.21875 41.609375 39.140625 45 
Q 35.0625 48.390625 27.6875 48.390625 
Q 23 48.390625 18.546875 47.265625 
Q 14.109375 46.140625 10.015625 43.890625 
L 10.015625 52.203125 
Q 14.9375 54.109375 19.578125 55.046875 
Q 24.21875 56 28.609375 56 
Q 40.484375 56 46.34375 49.84375 
Q 52.203125 43.703125 52.203125 31.203125 
z
" id="DejaVuSans-97"/>
       <path d="M 9.421875 54.6875 
L 18.40625 54.6875 
L 18.40625 0 
L 9.421875 0 
z
M 9.421875 75.984375 
L 18.40625 75.984375 
L 18.40625 64.59375 
L 9.421875 64.59375 
z
" id="DejaVuSans-105"/>
       <path d="M 54.890625 33.015625 
L 54.890625 0 
L 45.90625 0 
L 45.90625 32.71875 
Q 45.90625 40.484375 42.875 44.328125 
Q 39.84375 48.1875 33.796875 48.1875 
Q 26.515625 48.1875 22.3125 43.546875 
Q 18.109375 38.921875 18.109375 30.90625 
L 18.109375 0 
L 9.078125 0 
L 9.078125 54.6875 
L 18.109375 54.6875 
L 18.109375 46.1875 
Q 21.34375 51.125 25.703125 53.5625 
Q 30.078125 56 35.796875 56 
Q 45.21875 56 50.046875 50.171875 
Q 54.890625 44.34375 54.890625 33.015625 
z
" id="DejaVuSans-110"/>
       <path d="M 45.40625 27.984375 
Q 45.40625 37.75 41.375 43.109375 
Q 37.359375 48.484375 30.078125 48.484375 
Q 22.859375 48.484375 18.828125 43.109375 
Q 14.796875 37.75 14.796875 27.984375 
Q 14.796875 18.265625 18.828125 12.890625 
Q 22.859375 7.515625 30.078125 7.515625 
Q 37.359375 7.515625 41.375 12.890625 
Q 45.40625 18.265625 45.40625 27.984375 
z
M 54.390625 6.78125 
Q 54.390625 -7.171875 48.1875 -13.984375 
Q 42 -20.796875 29.203125 -20.796875 
Q 24.46875 -20.796875 20.265625 -20.09375 
Q 16.0625 -19.390625 12.109375 -17.921875 
L 12.109375 -9.1875 
Q 16.0625 -11.328125 19.921875 -12.34375 
Q 23.78125 -13.375 27.78125 -13.375 
Q 36.625 -13.375 41.015625 -8.765625 
Q 45.40625 -4.15625 45.40625 5.171875 
L 45.40625 9.625 
Q 42.625 4.78125 38.28125 2.390625 
Q 33.9375 0 27.875 0 
Q 17.828125 0 11.671875 7.65625 
Q 5.515625 15.328125 5.515625 27.984375 
Q 5.515625 40.671875 11.671875 48.328125 
Q 17.828125 56 27.875 56 
Q 33.9375 56 38.28125 53.609375 
Q 42.625 51.21875 45.40625 46.390625 
L 45.40625 54.6875 
L 54.390625 54.6875 
z
" id="DejaVuSans-103"/>
       <path id="DejaVuSans-32"/>
       <path d="M 9.421875 75.984375 
L 18.40625 75.984375 
L 18.40625 0 
L 9.421875 0 
z
" id="DejaVuSans-108"/>
       <path d="M 30.609375 48.390625 
Q 23.390625 48.390625 19.1875 42.75 
Q 14.984375 37.109375 14.984375 27.296875 
Q 14.984375 17.484375 19.15625 11.84375 
Q 23.34375 6.203125 30.609375 6.203125 
Q 37.796875 6.203125 41.984375 11.859375 
Q 46.1875 17.53125 46.1875 27.296875 
Q 46.1875 37.015625 41.984375 42.703125 
Q 37.796875 48.390625 30.609375 48.390625 
z
M 30.609375 56 
Q 42.328125 56 49.015625 48.375 
Q 55.71875 40.765625 55.71875 27.296875 
Q 55.71875 13.875 49.015625 6.21875 
Q 42.328125 -1.421875 30.609375 -1.421875 
Q 18.84375 -1.421875 12.171875 6.21875 
Q 5.515625 13.875 5.515625 27.296875 
Q 5.515625 40.765625 12.171875 48.375 
Q 18.84375 56 30.609375 56 
z
" id="DejaVuSans-111"/>
      </defs>
      <use xlink:href="#DejaVuSans-116"/>
      <use x="39.208984" xlink:href="#DejaVuSans-114"/>
      <use x="80.322266" xlink:href="#DejaVuSans-97"/>
      <use x="141.601562" xlink:href="#DejaVuSans-105"/>
      <use x="169.384766" xlink:href="#DejaVuSans-110"/>
      <use x="232.763672" xlink:href="#DejaVuSans-105"/>
      <use x="260.546875" xlink:href="#DejaVuSans-110"/>
      <use x="323.925781" xlink:href="#DejaVuSans-103"/>
      <use x="387.402344" xlink:href="#DejaVuSans-32"/>
      <use x="419.189453" xlink:href="#DejaVuSans-108"/>
      <use x="446.972656" xlink:href="#DejaVuSans-111"/>
      <use x="508.154297" xlink:href="#DejaVuSans-115"/>
      <use x="560.253906" xlink:href="#DejaVuSans-115"/>
     </g>
    </g>
   </g>
   <g id="line2d_14">
    <path clip-path="url(#pca6a54e3d1)" d="M 51.097008 24.999447 
L 51.18133 17.9 
L 51.349974 65.127904 
L 51.434296 20.673446 
L 51.518618 94.577199 
L 51.60294 41.489461 
L 51.771584 76.244592 
L 51.855906 77.360027 
L 51.940228 68.050525 
L 52.02455 71.283237 
L 52.193195 52.167445 
L 52.277517 86.352683 
L 52.446161 44.217487 
L 52.530483 57.942486 
L 52.614805 21.966794 
L 52.699127 64.097832 
L 52.783449 58.220885 
L 52.867771 56.714687 
L 52.952093 59.610587 
L 53.036415 81.435099 
L 53.20506 31.83544 
L 53.289382 75.984992 
L 53.373704 71.238147 
L 53.458026 59.365121 
L 53.62667 86.679797 
L 53.710992 75.668298 
L 53.795314 41.589313 
L 53.879636 100.934632 
L 53.963958 85.657927 
L 54.04828 71.417087 
L 54.132602 100.986174 
L 54.385569 77.794777 
L 54.554213 101.195081 
L 54.638535 84.5386 
L 54.722857 113.742911 
L 54.807179 104.110122 
L 54.975823 69.334709 
L 55.060145 125.294514 
L 55.144467 115.580419 
L 55.228789 84.092315 
L 55.481756 122.441651 
L 55.819044 67.821196 
L 55.903366 106.039167 
L 55.987688 82.405148 
L 56.07201 102.818219 
L 56.156332 86.750671 
L 56.240654 100.070329 
L 56.324976 97.989535 
L 56.409298 100.632059 
L 56.577943 116.251559 
L 56.662265 113.138449 
L 56.746587 115.195817 
L 56.830909 107.966513 
L 56.915231 113.429309 
L 56.999553 89.138374 
L 57.168197 133.337181 
L 57.252519 99.395792 
L 57.336841 110.540825 
L 57.421163 99.303533 
L 57.67413 114.139898 
L 57.758452 84.887455 
L 57.842774 98.537346 
L 57.927096 132.907362 
L 58.011418 97.203382 
L 58.09574 116.582971 
L 58.264384 100.781932 
L 58.348706 127.167517 
L 58.433028 121.948399 
L 58.51735 117.600227 
L 58.685995 132.590559 
L 58.770317 129.257659 
L 58.938961 107.805345 
L 59.107605 126.674303 
L 59.360571 103.64183 
L 59.529215 133.160776 
L 59.613537 132.08915 
L 59.782182 105.536243 
L 59.866504 135.338278 
L 59.950826 118.124587 
L 60.035148 125.332353 
L 60.11947 122.442107 
L 60.203792 147.2842 
L 60.288114 111.647818 
L 60.372436 114.484303 
L 60.456758 152.31499 
L 60.54108 126.648506 
L 60.625402 144.465715 
L 60.709724 129.837041 
L 60.794047 142.084699 
L 61.047013 119.062273 
L 61.299979 134.987972 
L 61.384301 112.364757 
L 61.468623 141.658164 
L 61.552945 108.079967 
L 61.890234 155.539995 
L 61.974556 122.946248 
L 62.058878 156.531417 
L 62.1432 134.215218 
L 62.227522 151.246395 
L 62.311844 134.76559 
L 62.480488 152.813294 
L 62.56481 100.543413 
L 62.902098 147.426924 
L 62.986421 152.394928 
L 63.155065 126.913025 
L 63.323709 150.721084 
L 63.408031 135.55905 
L 63.492353 165.52546 
L 63.660997 131.931247 
L 63.745319 133.149906 
L 63.913963 154.786383 
L 63.998286 145.0826 
L 64.082608 149.278839 
L 64.251252 129.19012 
L 64.419896 147.096893 
L 64.504218 136.618069 
L 64.58854 169.663552 
L 64.672862 147.269857 
L 64.757184 149.0317 
L 64.925828 122.111405 
L 65.094473 140.778199 
L 65.263117 146.250756 
L 65.347439 161.956532 
L 65.516083 135.970133 
L 65.600405 141.736193 
L 65.684727 137.018599 
L 65.769049 148.409846 
L 65.853371 122.497516 
L 65.937693 126.844801 
L 66.022015 124.407178 
L 66.19066 150.759526 
L 66.274982 125.58815 
L 66.359304 149.370489 
L 66.443626 142.118514 
L 66.527948 144.264788 
L 66.61227 140.173788 
L 66.696592 151.061655 
L 66.780914 133.961906 
L 66.949558 167.565696 
L 67.03388 136.92878 
L 67.118202 141.92421 
L 67.202524 166.371014 
L 67.455491 125.623264 
L 67.539813 160.109028 
L 67.624135 139.855116 
L 67.708457 143.063381 
L 67.877101 156.629266 
L 68.045745 143.571819 
L 68.214389 155.424564 
L 68.298711 155.825347 
L 68.383034 132.125481 
L 68.467356 163.811502 
L 68.551678 158.896213 
L 68.636 149.489749 
L 68.804644 161.834921 
L 68.888966 139.864503 
L 69.226254 181.505433 
L 69.310576 149.940148 
L 69.394898 169.241415 
L 69.479221 136.943162 
L 69.563543 155.860638 
L 69.647865 148.028324 
L 69.732187 166.916588 
L 69.816509 166.81903 
L 70.069475 148.888951 
L 70.322441 187.784222 
L 70.491085 150.770066 
L 70.575408 151.193027 
L 70.65973 143.999021 
L 70.744052 171.649983 
L 70.828374 158.485643 
L 70.912696 161.763109 
L 71.165662 151.475819 
L 71.249984 169.643257 
L 71.334306 149.022693 
L 71.418628 167.665973 
L 71.50295 151.938159 
L 71.587273 165.412615 
L 71.671595 159.611682 
L 71.755917 168.508573 
L 71.924561 156.339293 
L 72.008883 160.259871 
L 72.093205 155.522882 
L 72.177527 174.762371 
L 72.346171 154.495928 
L 72.430493 166.752073 
L 72.514815 150.941109 
L 72.599137 171.927901 
L 72.68346 150.834101 
L 72.852104 180.537893 
L 72.936426 167.847657 
L 73.020748 169.057455 
L 73.10507 159.402141 
L 73.189392 168.668182 
L 73.273714 137.830846 
L 73.358036 143.855929 
L 73.442358 166.857332 
L 73.52668 157.340159 
L 73.611002 184.961775 
L 73.695324 159.808908 
L 73.779647 163.439405 
L 73.863969 166.991993 
L 73.948291 154.486021 
L 74.032613 167.443388 
L 74.116935 162.922943 
L 74.201257 174.787419 
L 74.369901 152.862865 
L 74.454223 148.735699 
L 74.622867 168.688749 
L 74.707189 176.706329 
L 74.875834 152.035476 
L 74.960156 167.079328 
L 75.044478 145.581664 
L 75.1288 171.933168 
L 75.297444 157.523726 
L 75.381766 171.350871 
L 75.634732 159.057881 
L 75.803376 177.788672 
L 75.972021 168.884923 
L 76.056343 169.801947 
L 76.140665 191.45683 
L 76.224987 171.03924 
L 76.309309 176.118797 
L 76.393631 167.872617 
L 76.477953 175.965514 
L 76.562275 172.701009 
L 76.646597 185.186462 
L 76.983885 160.029743 
L 77.068208 180.502152 
L 77.236852 158.49761 
L 77.321174 177.158148 
L 77.405496 174.841091 
L 77.489818 170.803795 
L 77.57414 179.022778 
L 77.658462 155.164792 
L 77.742784 156.929823 
L 77.827106 178.434428 
L 77.911428 176.327051 
L 78.080073 153.381507 
L 78.164395 159.550062 
L 78.586005 179.30415 
L 78.670327 156.193812 
L 78.754649 176.374848 
L 78.838971 173.307271 
L 78.923293 168.424548 
L 79.007615 183.543583 
L 79.091937 162.520537 
L 79.17626 187.412809 
L 79.344904 152.245283 
L 79.59787 183.992556 
L 79.682192 171.8304 
L 79.766514 172.7026 
L 79.850836 165.872084 
L 79.935158 188.989181 
L 80.103802 160.792014 
L 80.188124 164.954717 
L 80.272447 162.924654 
L 80.356769 182.324829 
L 80.441091 169.091377 
L 80.609735 181.465039 
L 80.694057 169.847544 
L 80.778379 172.085139 
L 80.862701 163.581951 
L 80.947023 185.751829 
L 81.031345 182.178198 
L 81.115667 181.790424 
L 81.199989 185.436649 
L 81.368634 166.473034 
L 81.452956 172.616458 
L 81.537278 194.621321 
L 81.6216 167.675759 
L 81.705922 173.797278 
L 81.790244 171.196295 
L 81.874566 183.735114 
L 82.04321 171.221629 
L 82.127532 169.248096 
L 82.211854 188.469641 
L 82.380498 168.260509 
L 82.464821 181.569607 
L 82.549143 179.74648 
L 82.633465 182.958618 
L 82.717787 166.547654 
L 82.802109 181.646597 
L 82.886431 172.213424 
L 82.970753 182.54087 
L 83.055075 176.550974 
L 83.139397 162.010895 
L 83.223719 176.159177 
L 83.308041 171.604082 
L 83.392363 186.223027 
L 83.476685 176.640799 
L 83.64533 186.342363 
L 83.813974 176.526793 
L 83.898296 194.391339 
L 84.06694 151.316736 
L 84.151262 186.917561 
L 84.235584 183.517606 
L 84.48855 162.192471 
L 84.572873 190.714484 
L 84.657195 171.552476 
L 84.741517 184.864481 
L 84.994483 170.242947 
L 85.078805 168.118691 
L 85.247449 187.998884 
L 85.331771 190.331593 
L 85.500415 173.045719 
L 85.584737 177.391375 
L 85.66906 171.758392 
L 85.837704 184.611035 
L 85.922026 177.650506 
L 86.09067 191.506249 
L 86.174992 180.689877 
L 86.259314 181.99947 
L 86.343636 176.741855 
L 86.427958 192.543879 
L 86.51228 182.042146 
L 86.596602 187.946023 
L 86.680924 186.40069 
L 86.765247 168.230884 
L 87.018213 192.32563 
L 87.102535 188.80311 
L 87.186857 175.878883 
L 87.439823 186.035274 
L 87.777111 175.608705 
L 87.945756 189.153331 
L 88.1144 187.922252 
L 88.198722 191.297041 
L 88.283044 187.315483 
L 88.367366 176.214687 
L 88.451688 199.709966 
L 88.53601 170.448083 
L 88.620332 194.67395 
L 88.704654 189.041249 
L 88.788976 181.614957 
L 88.873298 189.820176 
L 88.957621 170.340574 
L 89.126265 189.724073 
L 89.210587 195.044538 
L 89.294909 194.798448 
L 89.379231 185.257947 
L 89.463553 190.713365 
L 89.547875 172.520979 
L 89.632197 197.972062 
L 89.716519 180.721302 
L 89.885163 201.618478 
L 90.053808 176.122017 
L 90.13813 177.536577 
L 90.222452 181.6504 
L 90.306774 193.786671 
L 90.391096 179.354982 
L 90.55974 194.754318 
L 90.728384 182.334717 
L 90.812706 186.664521 
L 90.897028 186.728917 
L 90.98135 180.203598 
L 91.065672 189.823836 
L 91.149995 180.543864 
L 91.234317 181.436169 
L 91.318639 196.027026 
L 91.402961 188.081296 
L 91.487283 189.715723 
L 91.655927 189.193214 
L 91.740249 187.145822 
L 91.824571 192.840412 
L 91.908893 189.149848 
L 91.993215 190.722695 
L 92.077537 173.280309 
L 92.16186 193.858813 
L 92.330504 181.339416 
L 92.414826 199.589058 
L 92.499148 173.021545 
L 92.58347 197.671993 
L 92.667792 189.241501 
L 92.752114 195.39628 
L 92.836436 171.931723 
L 92.920758 211.757361 
L 93.00508 195.384266 
L 93.089402 205.33829 
L 93.173724 181.242892 
L 93.258047 186.753018 
L 93.342369 169.117611 
L 93.511013 197.911273 
L 93.595335 182.582759 
L 93.679657 185.699381 
L 93.848301 200.479278 
L 94.016945 194.793919 
L 94.101267 195.628052 
L 94.185589 199.649284 
L 94.269911 166.66235 
L 94.438556 188.649615 
L 94.522878 182.958057 
L 94.6072 185.625734 
L 94.691522 195.279537 
L 94.775844 181.939587 
L 94.944488 193.32081 
L 95.113132 188.465043 
L 95.197454 197.600675 
L 95.281776 195.271373 
L 95.450421 185.192984 
L 95.534743 191.175221 
L 95.619065 180.068638 
L 95.703387 193.329867 
L 95.787709 190.611345 
L 95.872031 190.618029 
L 95.956353 196.660935 
L 96.040675 182.119687 
L 96.209319 191.101374 
L 96.462285 198.666368 
L 96.546608 186.398722 
L 96.715252 203.983132 
L 96.799574 190.598526 
L 96.968218 200.046341 
L 97.05254 187.789799 
L 97.221184 198.191196 
L 97.389828 172.408869 
L 97.558472 195.108529 
L 97.642795 201.462327 
L 97.727117 187.459864 
L 97.811439 197.557861 
L 97.980083 184.987382 
L 98.148727 199.634028 
L 98.233049 179.61784 
L 98.317371 197.869504 
L 98.401693 192.563826 
L 98.570337 194.53244 
L 98.907626 180.111269 
L 98.991948 194.529477 
L 99.07627 187.360567 
L 99.160592 200.231362 
L 99.244914 196.177159 
L 99.413558 186.550424 
L 99.582202 203.439339 
L 99.750847 183.389587 
L 99.919491 191.86431 
L 100.003813 189.500224 
L 100.088135 184.564117 
L 100.425423 202.499159 
L 100.509745 191.879848 
L 100.594067 192.315064 
L 100.678389 191.413309 
L 100.762711 205.572947 
L 100.847034 184.914061 
L 100.931356 195.795111 
L 101.184322 179.1461 
L 101.268644 200.992841 
L 101.437288 184.408149 
L 101.52161 198.5173 
L 101.605932 177.70376 
L 101.690254 201.204942 
L 101.774576 198.828522 
L 101.858898 196.819378 
L 102.027543 183.358727 
L 102.111865 200.602908 
L 102.196187 196.1911 
L 102.280509 191.4776 
L 102.533475 204.000495 
L 102.617797 185.999263 
L 102.702119 187.75351 
L 102.870763 186.6493 
L 102.955085 201.294365 
L 103.039408 192.866513 
L 103.208052 200.048071 
L 103.376696 190.564639 
L 103.54534 203.363237 
L 103.713984 196.193243 
L 103.882628 213.935656 
L 104.051272 192.478235 
L 104.135595 198.118773 
L 104.219917 195.991203 
L 104.304239 201.520017 
L 104.472883 188.955645 
L 104.641527 205.915004 
L 104.810171 197.084961 
L 104.894493 201.680022 
L 105.063137 193.202672 
L 105.231782 205.554743 
L 105.316104 192.596293 
L 105.484748 206.541221 
L 105.653392 197.880326 
L 105.737714 203.246607 
L 106.159324 179.88843 
L 106.243647 204.165431 
L 106.412291 182.348325 
L 106.580935 209.031997 
L 106.749579 174.863871 
L 106.833901 206.431995 
L 106.918223 201.001188 
L 107.086867 197.586161 
L 107.171189 204.357355 
L 107.255511 196.989863 
L 107.339834 208.106843 
L 107.5928 184.149871 
L 107.677122 201.568562 
L 107.761444 199.029427 
L 107.845766 196.7282 
L 107.930088 188.831141 
L 108.01441 194.423867 
L 108.098732 187.166922 
L 108.183054 202.196012 
L 108.267376 200.097449 
L 108.351698 208.632581 
L 108.520343 182.21702 
L 108.688987 199.261243 
L 108.773309 194.648841 
L 108.857631 196.502445 
L 108.941953 194.341115 
L 109.194919 208.751318 
L 109.279241 197.715676 
L 109.363563 203.689011 
L 109.447885 194.592241 
L 109.532208 197.386872 
L 109.700852 204.836511 
L 109.785174 192.904507 
L 109.869496 201.808621 
L 110.03814 194.216208 
L 110.206784 206.201417 
L 110.291106 194.73318 
L 110.544072 207.788877 
L 110.628395 198.622524 
L 110.712717 201.022595 
L 110.797039 203.149807 
L 110.881361 200.073367 
L 110.965683 208.544366 
L 111.050005 189.52299 
L 111.134327 192.531365 
L 111.218649 210.945827 
L 111.302971 190.352883 
L 111.387293 197.495186 
L 111.471615 194.616161 
L 111.640259 201.1981 
L 111.724582 193.981083 
L 111.893226 217.332188 
L 112.06187 195.114857 
L 112.230514 202.663664 
L 112.314836 204.031385 
L 112.399158 203.989486 
L 112.48348 197.589809 
L 112.567802 205.000249 
L 112.652124 203.452434 
L 112.736447 204.387538 
L 112.905091 190.199239 
L 112.989413 209.513401 
L 113.073735 207.833479 
L 113.158057 196.163171 
L 113.242379 199.751481 
L 113.326701 198.93887 
L 113.411023 214.682993 
L 113.495345 193.344119 
L 113.579667 212.908262 
L 113.832634 199.850031 
L 113.916956 198.442592 
L 114.001278 201.10915 
L 114.0856 198.330333 
L 114.254244 213.359057 
L 114.338566 200.434698 
L 114.422888 202.210308 
L 114.50721 200.675851 
L 114.591532 209.757449 
L 114.675854 206.797139 
L 114.760176 197.603363 
L 114.844498 213.176833 
L 115.013143 194.483192 
L 115.097465 204.501137 
L 115.181787 197.140823 
L 115.266109 205.265636 
L 115.350431 202.975167 
L 115.519075 208.387774 
L 115.603397 195.281128 
L 115.772041 212.044748 
L 115.856363 195.241225 
L 115.940685 207.103543 
L 116.10933 199.300078 
L 116.193652 208.723956 
L 116.277974 208.662412 
L 116.362296 201.056055 
L 116.446618 206.434977 
L 116.53094 200.215482 
L 116.615262 202.931735 
L 116.868228 196.021677 
L 116.95255 208.516234 
L 117.036872 202.720372 
L 117.121195 206.216975 
L 117.289839 201.358774 
L 117.374161 201.529499 
L 117.458483 208.362092 
L 117.542805 198.774574 
L 117.627127 207.051608 
L 117.711449 198.127266 
L 117.880093 208.651532 
L 117.964415 207.067859 
L 118.048737 201.641549 
L 118.133059 209.066525 
L 118.217382 202.477951 
L 118.301704 212.251472 
L 118.470348 196.375843 
L 118.638992 211.209552 
L 118.723314 196.483475 
L 118.97628 212.896057 
L 119.060602 198.600796 
L 119.144924 208.287925 
L 119.313569 193.287867 
L 119.482213 208.212821 
L 119.650857 200.596212 
L 119.735179 201.462682 
L 119.819501 211.074979 
L 119.903823 201.397823 
L 119.988145 205.922964 
L 120.156789 196.150647 
L 120.409756 215.837262 
L 120.494078 199.790198 
L 120.5784 206.714327 
L 120.831366 190.631656 
L 120.915688 192.326717 
L 121.00001 209.511268 
L 121.084332 208.570546 
L 121.252976 212.845124 
L 121.337298 197.026821 
L 121.421621 198.357267 
L 121.505943 209.758412 
L 121.758909 201.616051 
L 121.843231 199.831938 
L 121.927553 210.403561 
L 122.096197 203.925581 
L 122.180519 208.845204 
L 122.264841 201.960294 
L 122.349163 218.295701 
L 122.433485 199.263503 
L 122.517808 203.759365 
L 122.60213 212.777704 
L 122.686452 201.301527 
L 122.939418 213.733841 
L 123.108062 201.804333 
L 123.192384 205.031376 
L 123.361028 199.923652 
L 123.44535 213.020185 
L 123.698317 197.838291 
L 123.782639 208.678172 
L 123.951283 203.31808 
L 124.035605 215.187679 
L 124.204249 199.665174 
L 124.288571 213.884183 
L 124.541537 196.707737 
L 124.710182 205.229663 
L 124.794504 206.004147 
L 124.878826 205.244 
L 124.963148 201.236056 
L 125.04747 216.93481 
L 125.131792 208.84109 
L 125.216114 214.740582 
L 125.46908 202.306617 
L 125.553402 202.214561 
L 125.637724 208.309032 
L 125.722046 200.658263 
L 125.806369 202.918846 
L 125.890691 202.367175 
L 125.975013 210.037723 
L 126.059335 201.756077 
L 126.143657 205.881221 
L 126.312301 201.381442 
L 126.396623 212.233065 
L 126.480945 211.69479 
L 126.565267 201.001191 
L 126.649589 202.053095 
L 126.733911 206.80825 
L 127.0712 195.261013 
L 127.155522 218.506806 
L 127.324166 206.641568 
L 127.408488 203.182614 
L 127.49281 207.729175 
L 127.577132 207.19886 
L 127.661454 206.666455 
L 127.745776 211.437398 
L 127.830098 208.012648 
L 127.914421 195.180318 
L 128.083065 214.079425 
L 128.167387 205.798095 
L 128.251709 207.325545 
L 128.336031 208.355491 
L 128.420353 193.136219 
L 128.504675 209.693834 
L 128.588997 209.286013 
L 128.757641 205.770062 
L 128.926285 216.284074 
L 129.010608 199.573432 
L 129.09493 214.811489 
L 129.347896 194.188944 
L 129.685184 212.331609 
L 129.769506 190.14942 
L 129.853828 208.995229 
L 129.93815 197.18501 
L 130.022472 218.871398 
L 130.106795 204.997038 
L 130.191117 207.555708 
L 130.275439 206.178552 
L 130.359761 212.754785 
L 130.444083 205.892731 
L 130.528405 213.892386 
L 130.697049 206.955822 
L 130.781371 209.106679 
L 130.865693 203.772482 
L 130.950015 215.481891 
L 131.034337 208.982611 
L 131.118659 209.644797 
L 131.371626 200.743356 
L 131.455948 204.941373 
L 131.54027 202.841672 
L 131.624592 208.253195 
L 131.708914 202.618647 
L 131.793236 207.692683 
L 131.877558 202.997167 
L 131.96188 210.141631 
L 132.046202 200.625735 
L 132.130524 213.209475 
L 132.214846 210.128673 
L 132.299169 203.862484 
L 132.467813 214.797273 
L 132.552135 215.835296 
L 132.636457 202.741595 
L 132.720779 211.058779 
L 132.805101 206.736555 
L 132.889423 212.535372 
L 132.973745 210.053269 
L 133.058067 213.579625 
L 133.142389 195.854859 
L 133.226711 210.244882 
L 133.479678 198.763653 
L 133.564 213.485525 
L 133.648322 206.026375 
L 133.816966 220.026468 
L 133.901288 206.356526 
L 133.98561 220.839545 
L 134.069932 201.653044 
L 134.154254 214.239517 
L 134.238576 203.695748 
L 134.322898 206.858502 
L 134.407221 199.507467 
L 134.491543 218.861718 
L 134.575865 208.427261 
L 134.660187 213.897879 
L 134.744509 209.71939 
L 134.828831 213.836474 
L 134.913153 211.879723 
L 134.997475 203.543999 
L 135.081797 216.1531 
L 135.250441 200.562058 
L 135.334763 208.880628 
L 135.419085 206.952926 
L 135.58773 203.416053 
L 135.672052 222.288985 
L 135.840696 205.133034 
L 135.925018 214.061813 
L 136.00934 207.528371 
L 136.093662 213.185794 
L 136.177984 203.89723 
L 136.262306 215.678836 
L 136.346628 214.216608 
L 136.43095 214.884526 
L 136.599595 202.982434 
L 136.683917 205.598512 
L 136.768239 216.205049 
L 136.852561 197.427475 
L 137.021205 208.307159 
L 137.105527 204.388714 
L 137.274171 214.409891 
L 137.358493 213.929653 
L 137.442815 205.42186 
L 137.611459 215.160777 
L 137.864426 204.373521 
L 138.03307 212.877995 
L 138.201714 208.979392 
L 138.286036 211.80318 
L 138.370358 205.978874 
L 138.45468 218.106865 
L 138.539002 216.041619 
L 138.707646 220.969521 
L 138.876291 207.166203 
L 138.960613 213.052117 
L 139.044935 205.134764 
L 139.129257 216.215289 
L 139.297901 203.604637 
L 139.382223 214.282519 
L 139.466545 212.207497 
L 139.550867 211.221225 
L 139.635189 211.89313 
L 139.803834 221.791783 
L 139.888156 215.544127 
L 139.972478 216.319525 
L 140.225444 206.781613 
L 140.309766 207.833191 
L 140.394088 214.857826 
L 140.47841 213.83986 
L 140.562732 200.758907 
L 140.647054 212.143789 
L 140.731376 211.610472 
L 140.815698 209.710958 
L 140.984343 215.14588 
L 141.152987 204.13625 
L 141.321631 212.839738 
L 141.405953 211.916277 
L 141.490275 205.518413 
L 141.574597 216.55817 
L 141.658919 196.361176 
L 141.827563 215.688798 
L 141.996208 208.08851 
L 142.08053 218.515654 
L 142.164852 209.612101 
L 142.249174 213.35712 
L 142.333496 211.076714 
L 142.50214 218.839246 
L 142.586462 217.099737 
L 142.670784 205.534493 
L 142.839428 216.583042 
L 142.92375 213.24592 
L 143.008072 217.635691 
L 143.092395 205.858606 
L 143.176717 223.816243 
L 143.345361 207.366214 
L 143.429683 217.02096 
L 143.514005 215.663613 
L 143.598327 217.334918 
L 143.766971 205.718361 
L 143.851293 213.869412 
L 143.935615 212.398817 
L 144.019937 215.849026 
L 144.188582 208.642285 
L 144.272904 213.38243 
L 144.357226 207.424155 
L 144.441548 219.127752 
L 144.52587 216.801419 
L 144.694514 202.66875 
L 144.778836 214.966915 
L 144.863158 207.825389 
L 144.94748 215.519465 
L 145.031802 209.496271 
L 145.116124 216.394826 
L 145.200446 216.226943 
L 145.284769 210.469909 
L 145.369091 220.783105 
L 145.537735 206.66319 
L 145.622057 207.7898 
L 145.790701 217.395966 
L 145.959345 210.389799 
L 146.043667 217.849634 
L 146.127989 215.154107 
L 146.212311 200.754844 
L 146.296633 216.576737 
L 146.380956 204.947838 
L 146.465278 215.064057 
L 146.5496 207.640915 
L 146.633922 218.031626 
L 146.718244 203.660828 
L 146.802566 217.790141 
L 146.97121 212.547583 
L 147.055532 215.330333 
L 147.224176 201.424456 
L 147.392821 212.427335 
L 147.477143 206.961416 
L 147.645787 219.383707 
L 147.814431 206.485201 
L 147.898753 216.449875 
L 147.983075 215.157102 
L 148.067397 215.118477 
L 148.151719 217.689785 
L 148.236041 210.878734 
L 148.320363 211.223291 
L 148.489008 214.367382 
L 148.57333 214.70033 
L 148.741974 211.056771 
L 148.910618 214.660222 
L 148.99494 215.488951 
L 149.079262 214.929481 
L 149.163584 209.074313 
L 149.247906 214.706186 
L 149.41655 204.288681 
L 149.500872 206.658789 
L 149.585195 218.282633 
L 149.669517 215.421882 
L 149.838161 218.761998 
L 149.922483 214.182354 
L 150.006805 202.19008 
L 150.091127 216.475469 
L 150.175449 213.036758 
L 150.259771 221.184217 
L 150.428415 203.95519 
L 150.597059 219.947197 
L 150.681382 211.764761 
L 150.765704 219.94812 
L 150.934348 208.341027 
L 151.102992 215.526036 
L 151.187314 217.053763 
L 151.355958 209.776069 
L 151.524602 220.755822 
L 151.608924 211.109513 
L 151.693246 216.20304 
L 151.777569 209.756485 
L 151.861891 219.732293 
L 151.946213 214.152467 
L 152.030535 215.70448 
L 152.114857 220.311717 
L 152.199179 208.332622 
L 152.283501 221.49682 
L 152.367823 214.396541 
L 152.452145 217.567769 
L 152.620789 216.010219 
L 152.789433 204.492308 
L 152.958078 205.131183 
L 153.126722 220.070155 
L 153.295366 212.842221 
L 153.548332 217.807469 
L 153.632654 210.115324 
L 153.716976 218.744243 
L 153.885621 211.422455 
L 153.969943 215.525602 
L 154.054265 212.89356 
L 154.138587 221.456568 
L 154.391553 209.306104 
L 154.560197 218.949964 
L 154.728841 210.098039 
L 154.813163 212.654908 
L 154.897485 211.694448 
L 154.981808 212.648151 
L 155.06613 211.425713 
L 155.150452 217.031741 
L 155.234774 207.928765 
L 155.403418 216.772434 
L 155.48774 214.113897 
L 155.572062 203.952021 
L 155.656384 217.765973 
L 155.825028 206.917584 
L 155.993672 222.212736 
L 156.077995 222.165644 
L 156.246639 217.105119 
L 156.330961 216.270298 
L 156.415283 207.318275 
L 156.499605 209.537179 
L 156.583927 216.864056 
L 156.668249 213.499823 
L 156.752571 215.361899 
L 156.836893 212.550993 
L 156.921215 219.587238 
L 157.005537 213.970853 
L 157.342826 222.073547 
L 157.51147 211.459399 
L 157.764436 218.699746 
L 157.848758 211.461706 
L 157.93308 215.537588 
L 158.101724 211.551293 
L 158.186046 216.177307 
L 158.270369 213.605383 
L 158.439013 225.901328 
L 158.523335 210.799635 
L 158.607657 213.011102 
L 158.691979 219.753462 
L 158.776301 216.321549 
L 158.860623 222.071024 
L 158.944945 212.855601 
L 159.029267 216.498342 
L 159.113589 213.692221 
L 159.197911 219.733361 
L 159.366556 214.033242 
L 159.450878 217.350775 
L 159.5352 205.361967 
L 159.619522 218.931656 
L 159.703844 215.768842 
L 159.788166 215.949487 
L 159.95681 212.128127 
L 160.041132 215.730923 
L 160.209776 206.818049 
L 160.294098 208.532479 
L 160.462743 216.298991 
L 160.547065 213.355734 
L 160.631387 214.755323 
L 160.715709 220.751327 
L 160.800031 214.993312 
L 160.884353 215.126712 
L 160.968675 223.037464 
L 161.052997 212.432503 
L 161.221641 218.684329 
L 161.390285 213.302916 
L 161.474608 219.049134 
L 161.643252 211.158385 
L 161.727574 219.387876 
L 161.811896 218.756197 
L 161.896218 218.501945 
L 162.064862 212.61533 
L 162.149184 214.583526 
L 162.233506 213.828447 
L 162.40215 218.583704 
L 162.570795 210.615653 
L 162.655117 221.624294 
L 162.739439 220.233822 
L 162.823761 210.639198 
L 162.908083 213.68292 
L 162.992405 209.089279 
L 163.076727 211.885073 
L 163.161049 222.111769 
L 163.245371 215.008379 
L 163.329693 220.041394 
L 163.414015 211.973605 
L 163.498337 214.256055 
L 163.666982 217.990548 
L 163.751304 206.383232 
L 163.835626 217.544104 
L 163.919948 217.011784 
L 164.00427 213.660454 
L 164.088592 214.532402 
L 164.172914 215.79322 
L 164.257236 222.528281 
L 164.510202 214.567155 
L 164.594524 219.649394 
L 164.763169 214.479713 
L 164.847491 212.87873 
L 165.016135 213.974555 
L 165.100457 208.139206 
L 165.353423 223.240828 
L 165.437745 221.493824 
L 165.522067 213.893569 
L 165.606389 219.907197 
L 165.690711 216.457202 
L 165.775033 218.55279 
L 165.859356 210.879682 
L 165.943678 216.360852 
L 166.028 213.741588 
L 166.112322 224.12022 
L 166.365288 215.417306 
L 166.44961 217.173712 
L 166.533932 212.998112 
L 166.618254 215.253313 
L 166.702576 211.325417 
L 166.786898 220.914303 
L 166.87122 217.548338 
L 166.955543 220.934721 
L 167.039865 211.969811 
L 167.124187 213.520717 
L 167.292831 226.042671 
L 167.461475 216.15024 
L 167.545797 217.141777 
L 167.630119 221.097047 
L 167.714441 215.876556 
L 167.798763 225.576643 
L 167.967408 216.881531 
L 168.05173 219.118476 
L 168.136052 209.357115 
L 168.220374 214.73703 
L 168.389018 210.939712 
L 168.47334 221.266656 
L 168.641984 207.503776 
L 168.810628 224.107552 
L 168.89495 212.248219 
L 168.979272 216.4692 
L 169.063595 213.9769 
L 169.147917 214.797761 
L 169.232239 213.739854 
L 169.400883 215.942374 
L 169.485205 214.097738 
L 169.569527 218.847302 
L 169.653849 216.550768 
L 169.738171 217.278438 
L 169.822493 207.369881 
L 169.906815 222.912205 
L 169.991137 213.458197 
L 170.159782 222.681776 
L 170.412748 215.810816 
L 170.49707 219.67464 
L 170.581392 218.777108 
L 170.750036 214.656359 
L 170.834358 215.345326 
L 170.91868 223.905285 
L 171.003002 220.091783 
L 171.087324 227.059019 
L 171.171646 214.517176 
L 171.255969 220.51691 
L 171.340291 214.676172 
L 171.424613 217.703144 
L 171.508935 208.4783 
L 171.593257 220.373586 
L 171.677579 213.607571 
L 171.846223 222.645761 
L 171.930545 215.060009 
L 172.014867 216.529014 
L 172.267833 221.706347 
L 172.352156 219.838805 
L 172.436478 224.411619 
L 172.605122 217.270953 
L 172.689444 218.72826 
L 172.773766 228.485179 
L 172.94241 211.314604 
L 173.026732 215.685377 
L 173.111054 218.669061 
L 173.195376 204.325233 
L 173.36402 215.838768 
L 173.448343 214.469816 
L 173.616987 224.176718 
L 173.701309 219.479627 
L 173.785631 220.913586 
L 173.869953 223.397277 
L 173.954275 217.757131 
L 174.038597 220.452992 
L 174.122919 209.794065 
L 174.207241 218.203632 
L 174.291563 211.889164 
L 174.460208 221.985969 
L 174.628852 205.010932 
L 174.713174 205.669116 
L 174.797496 219.165914 
L 174.881818 216.242147 
L 174.96614 219.136741 
L 175.050462 217.751985 
L 175.219106 207.583253 
L 175.303428 221.644689 
L 175.38775 221.226212 
L 175.472072 209.387856 
L 175.640717 218.397816 
L 175.725039 216.989107 
L 175.809361 222.401295 
L 175.893683 213.291652 
L 175.978005 216.049464 
L 176.146649 222.734718 
L 176.230971 209.771434 
L 176.315293 214.9305 
L 176.399615 210.10872 
L 176.568259 220.550119 
L 176.652582 218.432015 
L 176.736904 215.496155 
L 176.905548 221.187917 
L 176.98987 208.737187 
L 177.074192 217.43918 
L 177.158514 210.313858 
L 177.242836 222.112698 
L 177.327158 213.058954 
L 177.495802 224.033268 
L 177.580124 209.001756 
L 177.664446 222.190217 
L 177.748769 216.711602 
L 177.917413 224.22326 
L 178.001735 213.683086 
L 178.086057 223.567418 
L 178.170379 222.350772 
L 178.254701 220.455257 
L 178.339023 215.395685 
L 178.423345 216.129742 
L 178.507667 221.608768 
L 178.676311 216.669744 
L 178.844956 227.468299 
L 179.0136 214.901706 
L 179.097922 212.53591 
L 179.182244 219.886167 
L 179.266566 216.556682 
L 179.350888 223.711198 
L 179.43521 220.978773 
L 179.519532 221.645676 
L 179.603854 222.81264 
L 179.688176 217.861506 
L 179.772498 224.072934 
L 180.025465 215.951921 
L 180.109787 222.617852 
L 180.194109 219.877575 
L 180.278431 221.7131 
L 180.362753 210.044999 
L 180.447075 217.953861 
L 180.531397 214.704524 
L 180.784363 223.076269 
L 180.868685 222.750971 
L 181.03733 215.571947 
L 181.121652 224.715863 
L 181.290296 214.289118 
L 181.45894 222.661397 
L 181.627584 211.568543 
L 181.711906 223.183705 
L 181.88055 218.594508 
L 181.964872 220.839027 
L 182.049195 214.830862 
L 182.302161 223.146278 
L 182.470805 216.017767 
L 182.555127 222.592083 
L 182.639449 222.383431 
L 182.808093 218.458098 
L 182.892415 222.232155 
L 183.061059 217.78864 
L 183.145382 218.944074 
L 183.229704 225.629839 
L 183.314026 220.333082 
L 183.48267 224.117547 
L 183.566992 212.577398 
L 183.651314 222.787403 
L 183.735636 210.900884 
L 183.819958 222.937761 
L 183.90428 222.462862 
L 183.988602 223.050943 
L 184.072924 221.917109 
L 184.157246 213.746243 
L 184.241569 214.482777 
L 184.410213 224.99381 
L 184.494535 208.929539 
L 184.663179 221.768601 
L 184.831823 222.84926 
L 184.916145 222.776415 
L 185.000467 222.260098 
L 185.169111 215.134071 
L 185.253433 214.105176 
L 185.422078 224.899396 
L 185.675044 212.196364 
L 185.843688 225.793334 
L 186.012332 217.430942 
L 186.096654 219.261271 
L 186.180976 220.212459 
L 186.265298 217.686498 
L 186.34962 219.321359 
L 186.433943 223.169856 
L 186.686909 217.271991 
L 186.771231 218.576304 
L 186.855553 223.940683 
L 187.108519 211.741864 
L 187.277163 223.077535 
L 187.361485 221.742717 
L 187.53013 215.288143 
L 187.614452 223.875201 
L 187.698774 217.946431 
L 187.867418 222.045721 
L 188.036062 214.796759 
L 188.204706 224.754164 
L 188.289028 216.138853 
L 188.37335 222.385745 
L 188.457672 210.976957 
L 188.541995 220.118929 
L 188.626317 219.756283 
L 188.710639 214.856806 
L 188.794961 217.449545 
L 188.879283 215.121793 
L 189.132249 227.050617 
L 189.216571 228.069896 
L 189.300893 217.854361 
L 189.385215 222.958416 
L 189.469537 220.73071 
L 189.553859 220.814888 
L 189.638182 220.916711 
L 189.722504 214.319672 
L 189.806826 215.771136 
L 189.97547 220.62905 
L 190.059792 218.572886 
L 190.144114 226.269646 
L 190.228436 223.723428 
L 190.39708 206.416932 
L 190.565724 226.518707 
L 190.650046 210.502815 
L 190.734369 225.52006 
L 190.903013 211.663251 
L 190.987335 222.313751 
L 191.071657 220.43502 
L 191.155979 219.571743 
L 191.240301 214.316349 
L 191.408945 220.704743 
L 191.493267 213.051483 
L 191.577589 215.869004 
L 191.746233 224.34565 
L 191.830556 217.424608 
L 191.914878 218.126065 
L 191.9992 215.085346 
L 192.083522 221.539356 
L 192.167844 216.827631 
L 192.336488 222.110128 
L 192.42081 215.616665 
L 192.505132 220.222931 
L 192.589454 219.560504 
L 192.673776 222.106191 
L 192.84242 215.839202 
L 193.011065 222.597511 
L 193.095387 222.383493 
L 193.179709 223.87903 
L 193.264031 220.779025 
L 193.348353 221.739901 
L 193.601319 217.203312 
L 193.769963 225.769054 
L 193.854285 213.927153 
L 193.938607 225.756633 
L 194.191574 212.208215 
L 194.275896 215.120272 
L 194.360218 205.653588 
L 194.613184 223.851649 
L 194.781828 216.758989 
L 194.86615 215.788753 
L 195.287761 223.02359 
L 195.372083 215.777566 
L 195.456405 220.494766 
L 195.625049 213.566589 
L 195.709371 222.977739 
L 195.793693 219.260239 
L 195.878015 222.286334 
L 195.962337 219.328199 
L 196.046659 223.251446 
L 196.130982 219.15531 
L 196.215304 220.797661 
L 196.299626 213.47369 
L 196.46827 216.564029 
L 196.552592 214.363714 
L 196.636914 220.127887 
L 196.721236 215.26318 
L 196.805558 220.898153 
L 196.88988 212.96061 
L 197.058524 226.279801 
L 197.227169 216.383524 
L 197.311491 225.186054 
L 197.564457 213.894698 
L 197.733101 223.947799 
L 197.817423 223.094009 
L 197.901745 218.415656 
L 198.070389 226.830978 
L 198.154711 218.603741 
L 198.239033 219.189868 
L 198.323356 219.402678 
L 198.492 229.133561 
L 198.744966 220.643451 
L 198.91361 227.154252 
L 198.997932 223.894282 
L 199.082254 224.918292 
L 199.33522 220.085521 
L 199.419543 225.652586 
L 199.588187 218.900274 
L 199.672509 219.379255 
L 199.756831 212.483065 
L 199.841153 223.839287 
L 199.925475 221.035239 
L 200.009797 217.67697 
L 200.094119 207.780254 
L 200.178441 223.400679 
L 200.262763 222.358789 
L 200.347085 220.519174 
L 200.431407 221.18797 
L 200.600052 227.511423 
L 200.768696 217.161155 
L 200.853018 225.420447 
L 200.93734 222.266291 
L 201.021662 222.41727 
L 201.105984 226.54184 
L 201.190306 216.543021 
L 201.35895 225.901507 
L 201.443272 224.186616 
L 201.527594 219.507928 
L 201.611917 224.531207 
L 201.696239 222.005878 
L 201.780561 226.322044 
L 201.864883 223.704455 
L 201.949205 212.527099 
L 202.033527 221.875231 
L 202.117849 220.196539 
L 202.202171 227.798114 
L 202.455137 216.612285 
L 202.539459 226.758477 
L 202.708104 218.847364 
L 202.792426 224.124103 
L 202.876748 222.600711 
L 203.045392 220.104686 
L 203.129714 220.012078 
L 203.214036 217.903319 
L 203.298358 225.143789 
L 203.38268 224.374478 
L 203.467002 213.669692 
L 203.719969 223.349891 
L 203.804291 222.184148 
L 203.888613 223.95258 
L 203.972935 223.128289 
L 204.057257 223.960087 
L 204.141579 216.559371 
L 204.310223 223.94376 
L 204.394545 217.745505 
L 204.478867 223.029856 
L 204.816156 212.069139 
L 204.900478 217.943403 
L 204.9848 204.718588 
L 205.153444 224.846143 
L 205.237766 225.90894 
L 205.40641 216.004925 
L 205.575054 222.988225 
L 205.743698 218.485457 
L 206.080987 226.383721 
L 206.165309 223.576908 
L 206.333953 215.221954 
L 206.502597 220.676533 
L 206.586919 222.417569 
L 206.671241 220.876882 
L 206.839885 226.730855 
L 206.924207 216.96998 
L 207.092852 226.165145 
L 207.177174 217.692751 
L 207.261496 222.783755 
L 207.345818 215.456233 
L 207.43014 218.601771 
L 207.514462 227.287451 
L 207.683106 212.625213 
L 207.767428 224.111532 
L 207.85175 221.336592 
L 207.936072 220.78947 
L 208.020394 217.476995 
L 208.104717 223.291075 
L 208.189039 220.427525 
L 208.357683 224.091778 
L 208.526327 214.237413 
L 208.694971 224.171885 
L 208.779293 224.146003 
L 208.863615 208.344526 
L 208.947937 222.384524 
L 209.032259 212.896358 
L 209.200904 218.31086 
L 209.285226 215.648146 
L 209.369548 221.687608 
L 209.45387 220.169763 
L 209.622514 218.061153 
L 209.706836 218.962451 
L 209.791158 227.121082 
L 209.959802 215.344315 
L 210.044124 220.712583 
L 210.128446 218.235639 
L 210.297091 225.231975 
L 210.381413 222.679033 
L 210.550057 222.462969 
L 210.634379 223.173681 
L 210.718701 222.489336 
L 210.803023 220.802814 
L 210.887345 225.927751 
L 210.971667 215.331222 
L 211.055989 223.863951 
L 211.140311 216.828969 
L 211.224633 224.32303 
L 211.308956 223.836282 
L 211.393278 224.309188 
L 211.4776 218.618276 
L 211.646244 222.272564 
L 211.814888 217.407459 
L 212.067854 228.493735 
L 212.236498 221.281388 
L 212.32082 227.00811 
L 212.405143 220.888899 
L 212.489465 222.917478 
L 212.573787 227.867773 
L 212.658109 222.528507 
L 212.742431 223.133826 
L 212.911075 219.986841 
L 213.079719 226.353821 
L 213.164041 220.37308 
L 213.248363 221.832688 
L 213.417007 225.213713 
L 213.50133 219.406471 
L 213.585652 220.942018 
L 213.669974 218.029316 
L 213.92294 228.348609 
L 214.091584 221.397112 
L 214.175906 224.415428 
L 214.260228 218.175874 
L 214.513194 226.956467 
L 214.597517 221.115466 
L 214.681839 224.181951 
L 214.850483 221.350162 
L 214.934805 223.60584 
L 215.019127 214.608196 
L 215.103449 223.235013 
L 215.187771 223.197178 
L 215.440737 216.648358 
L 215.609381 221.265033 
L 215.693704 219.627727 
L 215.778026 226.197779 
L 215.94667 218.172241 
L 216.115314 226.593101 
L 216.283958 224.0798 
L 216.36828 224.561222 
L 216.452602 224.62874 
L 216.536924 211.82448 
L 216.621246 220.943275 
L 216.705569 219.048393 
L 216.789891 214.563404 
L 216.958535 225.391646 
L 217.042857 216.471859 
L 217.127179 224.420403 
L 217.295823 213.592402 
L 217.380145 216.634444 
L 217.464467 214.847869 
L 217.717433 225.514437 
L 217.801756 223.988841 
L 217.9704 218.933988 
L 218.054722 218.10643 
L 218.223366 223.48166 
L 218.39201 222.249678 
L 218.476332 224.517371 
L 218.560654 215.166769 
L 218.644976 216.152823 
L 218.81362 225.316917 
L 218.897943 224.777603 
L 218.982265 225.501961 
L 219.066587 227.209929 
L 219.150909 222.136574 
L 219.235231 223.796752 
L 219.319553 228.496919 
L 219.488197 222.629829 
L 219.572519 220.288335 
L 219.656841 225.95935 
L 219.741163 225.672805 
L 219.825485 217.620212 
L 219.909807 217.850648 
L 219.99413 224.202094 
L 220.078452 222.759802 
L 220.162774 227.737313 
L 220.41574 216.080139 
L 220.500062 225.414547 
L 220.584384 218.744687 
L 220.921672 227.825593 
L 221.005994 220.484647 
L 221.090317 228.656227 
L 221.174639 225.19001 
L 221.258961 216.876314 
L 221.343283 227.737814 
L 221.427605 226.105941 
L 221.511927 225.465201 
L 221.596249 221.974229 
L 221.680571 223.314917 
L 221.764893 226.493387 
L 221.849215 225.009085 
L 221.933537 218.285183 
L 222.017859 224.512827 
L 222.102181 223.59396 
L 222.186504 223.572894 
L 222.355148 220.620172 
L 222.43947 221.277792 
L 222.523792 224.200691 
L 222.692436 220.987978 
L 222.776758 220.577484 
L 222.86108 227.062741 
L 222.945402 222.080066 
L 223.029724 225.973999 
L 223.114046 222.918897 
L 223.198369 227.518565 
L 223.451335 215.813537 
L 223.619979 226.166141 
L 223.704301 225.595027 
L 223.788623 222.703762 
L 223.872945 225.447527 
L 224.041589 223.067921 
L 224.125911 227.642003 
L 224.378878 216.148868 
L 224.4632 225.908754 
L 224.547522 217.625845 
L 224.716166 225.238124 
L 224.800488 215.736967 
L 224.88481 222.501297 
L 224.969132 218.311548 
L 225.137776 223.941415 
L 225.222098 218.107038 
L 225.30642 224.623623 
L 225.390743 218.017188 
L 225.475065 225.340579 
L 225.559387 219.825485 
L 225.728031 227.994665 
L 225.812353 220.20315 
L 225.896675 222.153196 
L 225.980997 222.274915 
L 226.065319 225.702513 
L 226.149641 217.28809 
L 226.233963 226.971434 
L 226.318285 216.838638 
L 226.48693 223.246739 
L 226.655574 220.555383 
L 226.824218 226.843992 
L 226.90854 223.382241 
L 226.992862 225.146057 
L 227.077184 224.789954 
L 227.161506 224.312806 
L 227.414472 212.394875 
L 227.498794 227.572206 
L 227.583117 223.406983 
L 227.667439 219.328763 
L 227.751761 227.333989 
L 227.920405 218.68448 
L 228.004727 226.195483 
L 228.089049 218.206402 
L 228.173371 219.380475 
L 228.342015 226.193143 
L 228.426337 227.245569 
L 228.594981 217.065253 
L 228.679304 224.386519 
L 228.763626 222.124445 
L 228.847948 222.035511 
L 228.93227 222.585996 
L 229.016592 222.449395 
L 229.100914 221.207343 
L 229.269558 226.044049 
L 229.35388 219.230252 
L 229.522524 227.11136 
L 229.606846 221.652057 
L 229.691169 226.140867 
L 229.775491 220.096071 
L 229.859813 225.767024 
L 229.944135 221.484205 
L 230.028457 222.429709 
L 230.112779 226.107068 
L 230.197101 221.147186 
L 230.281423 223.405596 
L 230.365745 222.592053 
L 230.450067 226.912244 
L 230.534389 220.467434 
L 230.618711 224.220114 
L 230.703033 221.704543 
L 230.787356 223.674219 
L 230.956 217.09724 
L 231.040322 221.708274 
L 231.124644 220.070071 
L 231.208966 220.0973 
L 231.293288 223.764367 
L 231.37761 220.269468 
L 231.546254 225.790794 
L 231.630576 213.713868 
L 231.714898 228.786442 
L 231.79922 218.59918 
L 231.883543 223.504769 
L 231.967865 220.388552 
L 232.052187 221.087557 
L 232.136509 226.189962 
L 232.220831 212.003703 
L 232.305153 213.061915 
L 232.558119 226.664125 
L 232.642441 222.138341 
L 232.726763 224.484057 
L 232.895407 220.953085 
L 232.97973 224.20243 
L 233.064052 224.033813 
L 233.317018 221.062236 
L 233.485662 223.798534 
L 233.569984 223.145469 
L 233.654306 223.674139 
L 233.738628 220.879462 
L 233.82295 226.166841 
L 233.907272 215.896038 
L 233.991594 226.230698 
L 234.075917 220.601622 
L 234.160239 227.754434 
L 234.413205 217.229507 
L 234.497527 230.022093 
L 234.581849 226.52019 
L 234.666171 219.276872 
L 234.750493 219.489018 
L 234.834815 220.133068 
L 234.919137 213.564503 
L 235.087781 221.672223 
L 235.256426 224.941381 
L 235.340748 223.392334 
L 235.42507 223.52113 
L 235.509392 228.982985 
L 235.593714 224.687205 
L 235.678036 227.434069 
L 235.84668 220.709205 
L 235.931002 222.335107 
L 236.015324 227.123428 
L 236.099646 218.492038 
L 236.268291 225.298134 
L 236.352613 224.722484 
L 236.605579 219.017242 
L 236.689901 226.140738 
L 236.774223 219.202503 
L 236.858545 224.205067 
L 236.942867 220.811811 
L 237.027189 225.439102 
L 237.195833 214.166866 
L 237.280156 224.632236 
L 237.364478 220.283723 
L 237.4488 224.318225 
L 237.533122 221.651928 
L 237.617444 223.981153 
L 237.786088 218.104343 
L 237.87041 218.460664 
L 238.039054 227.12524 
L 238.123376 221.57025 
L 238.207698 224.185473 
L 238.29202 221.31134 
L 238.376343 223.196078 
L 238.460665 228.034061 
L 238.544987 216.58737 
L 238.713631 225.568457 
L 238.882275 221.27482 
L 238.966597 225.506122 
L 239.135241 218.288791 
L 239.219563 227.748246 
L 239.388207 222.683012 
L 239.47253 223.45714 
L 239.556852 222.849015 
L 239.641174 227.202938 
L 239.725496 227.166345 
L 239.809818 222.718135 
L 239.89414 223.739805 
L 240.062784 228.224815 
L 240.147106 227.948376 
L 240.231428 222.190059 
L 240.31575 226.995459 
L 240.484394 213.006944 
L 240.568717 224.812739 
L 240.653039 222.294065 
L 240.906005 226.433834 
L 240.990327 219.222693 
L 241.158971 227.612609 
L 241.327615 220.571623 
L 241.411937 226.960757 
L 241.496259 226.439176 
L 241.664904 221.458079 
L 241.833548 223.745177 
L 241.91787 219.216636 
L 242.086514 224.28508 
L 242.170836 225.857633 
L 242.33948 222.149218 
L 242.423802 220.922561 
L 242.508124 216.988775 
L 242.592446 218.754211 
L 242.676768 226.028878 
L 242.761091 223.923355 
L 242.845413 226.035214 
L 242.929735 220.388458 
L 243.014057 231.661594 
L 243.098379 222.527433 
L 243.182701 226.084863 
L 243.351345 220.599877 
L 243.435667 227.30232 
L 243.519989 217.39897 
L 243.604311 219.530627 
L 243.688633 226.372216 
L 243.772956 225.061015 
L 243.9416 222.544681 
L 244.110244 229.373214 
L 244.194566 222.337755 
L 244.278888 229.655401 
L 244.36321 217.94227 
L 244.447532 223.370118 
L 244.531854 222.328746 
L 244.616176 223.335654 
L 244.700498 222.923259 
L 244.78482 226.945664 
L 244.869143 226.881535 
L 244.953465 226.71375 
L 245.037787 223.829292 
L 245.206431 225.465351 
L 245.290753 230.918345 
L 245.375075 219.019934 
L 245.459397 226.478338 
L 245.628041 218.578001 
L 245.712363 226.143208 
L 245.796685 219.410832 
L 246.049652 228.795489 
L 246.133974 220.613942 
L 246.218296 228.686074 
L 246.302618 226.519238 
L 246.38694 221.724712 
L 246.471262 231.9 
L 246.639906 220.933528 
L 246.724228 227.132438 
L 246.80855 224.370429 
L 246.892872 226.151666 
L 247.061517 219.923642 
L 247.145839 222.868028 
L 247.230161 217.122183 
L 247.314483 226.44553 
L 247.398805 225.431678 
L 247.483127 224.298078 
L 247.567449 227.867798 
L 247.736093 224.334857 
L 247.820415 224.532197 
L 247.904737 219.368041 
L 247.989059 223.965582 
L 248.073381 223.103901 
L 248.242026 226.134873 
L 248.326348 219.380345 
L 248.494992 226.360204 
L 248.579314 220.393621 
L 248.663636 222.262982 
L 248.747958 225.941321 
L 248.83228 225.495485 
L 249.000924 220.444246 
L 249.169568 225.146435 
L 249.253891 220.539439 
L 249.591179 228.748208 
L 249.675501 218.501067 
L 249.759823 229.122265 
L 249.844145 214.418956 
L 249.928467 220.742496 
L 250.012789 217.241091 
L 250.181433 226.314279 
L 250.265756 224.818892 
L 250.4344 229.509288 
L 250.518722 219.876088 
L 250.603044 222.858435 
L 250.687366 224.878515 
L 250.85601 217.072946 
L 251.024654 221.620931 
L 251.108976 223.689855 
L 251.193298 223.17228 
L 251.27762 222.949068 
L 251.446265 224.746053 
L 251.530587 221.615824 
L 251.614909 227.626642 
L 251.783553 224.256875 
L 251.867875 226.921435 
L 251.952197 220.387256 
L 252.036519 220.671055 
L 252.120841 220.121679 
L 252.205163 226.854054 
L 252.289485 221.192187 
L 252.373807 221.700522 
L 252.542452 226.066291 
L 252.711096 216.813614 
L 252.795418 225.263669 
L 252.87974 220.616477 
L 252.964062 221.186522 
L 253.048384 227.077136 
L 253.132706 222.470519 
L 253.217028 224.329562 
L 253.30135 228.85161 
L 253.385672 227.777567 
L 253.638639 221.886342 
L 253.807283 226.069396 
L 253.891605 219.57988 
L 254.060249 226.312218 
L 254.144571 221.607425 
L 254.313215 229.628958 
L 254.397537 219.754017 
L 254.481859 226.237092 
L 254.566181 222.394821 
L 254.819148 228.937083 
L 254.90347 225.732077 
L 254.987792 230.224389 
L 255.072114 220.625846 
L 255.156436 226.278761 
L 255.240758 223.451306 
L 255.32508 227.18105 
L 255.409402 219.846227 
L 255.662368 226.357151 
L 255.746691 219.565825 
L 255.831013 222.020611 
L 255.915335 219.06198 
L 255.999657 220.559934 
L 256.168301 224.376723 
L 256.421267 227.048551 
L 256.589911 218.748791 
L 256.674233 222.181408 
L 256.758555 212.862119 
L 256.9272 226.907333 
L 257.011522 222.896745 
L 257.095844 222.983074 
L 257.180166 220.785929 
L 257.34881 223.228419 
L 257.433132 218.922884 
L 257.517454 225.882359 
L 257.601776 218.850108 
L 257.686098 230.11875 
L 257.854743 220.677932 
L 258.023387 228.566956 
L 258.192031 222.346839 
L 258.276353 221.782751 
L 258.444997 224.872238 
L 258.613641 226.098966 
L 258.782285 223.620379 
L 258.866607 228.252437 
L 259.035252 223.186241 
L 259.119574 229.0433 
L 259.541184 218.785487 
L 259.625506 226.367838 
L 259.709828 218.27761 
L 259.79415 223.262394 
L 259.962794 220.034357 
L 260.047117 225.220679 
L 260.131439 222.856071 
L 260.215761 229.297259 
L 260.300083 215.711991 
L 260.384405 226.358468 
L 260.468727 226.280281 
L 260.637371 222.93196 
L 260.806015 227.881959 
L 260.890337 220.49237 
L 260.974659 226.412396 
L 260.974659 226.412396 
" style="fill:none;stroke:#1f77b4;stroke-linecap:square;stroke-width:2;"/>
   </g>
   <g id="patch_3">
    <path d="M 40.603125 242.6 
L 40.603125 7.2 
" style="fill:none;stroke:#000000;stroke-linecap:square;stroke-linejoin:miter;stroke-width:0.8;"/>
   </g>
   <g id="patch_4">
    <path d="M 271.468542 242.6 
L 271.468542 7.2 
" style="fill:none;stroke:#000000;stroke-linecap:square;stroke-linejoin:miter;stroke-width:0.8;"/>
   </g>
   <g id="patch_5">
    <path d="M 40.603125 242.6 
L 271.468542 242.6 
" style="fill:none;stroke:#000000;stroke-linecap:square;stroke-linejoin:miter;stroke-width:0.8;"/>
   </g>
   <g id="patch_6">
    <path d="M 40.603125 7.2 
L 271.468542 7.2 
" style="fill:none;stroke:#000000;stroke-linecap:square;stroke-linejoin:miter;stroke-width:0.8;"/>
   </g>
  </g>
  <g id="axes_2">
   <g id="patch_7">
    <path d="M 329.557917 242.6 
L 560.423333 242.6 
L 560.423333 7.2 
L 329.557917 7.2 
z
" style="fill:#ffffff;"/>
   </g>
   <g id="matplotlib.axis_3">
    <g id="xtick_7">
     <g id="line2d_15">
      <g>
       <use style="stroke:#000000;stroke-width:0.8;" x="340.051799" xlink:href="#mdc703a5c3b" y="242.6"/>
      </g>
     </g>
     <g id="text_16">
      <!-- 0 -->
      <g transform="translate(336.870549 257.198437)scale(0.1 -0.1)">
       <use xlink:href="#DejaVuSans-48"/>
      </g>
     </g>
    </g>
    <g id="xtick_8">
     <g id="line2d_16">
      <g>
       <use style="stroke:#000000;stroke-width:0.8;" x="380.412886" xlink:href="#mdc703a5c3b" y="242.6"/>
      </g>
     </g>
     <g id="text_17">
      <!-- 5 -->
      <g transform="translate(377.231636 257.198437)scale(0.1 -0.1)">
       <use xlink:href="#DejaVuSans-53"/>
      </g>
     </g>
    </g>
    <g id="xtick_9">
     <g id="line2d_17">
      <g>
       <use style="stroke:#000000;stroke-width:0.8;" x="420.773973" xlink:href="#mdc703a5c3b" y="242.6"/>
      </g>
     </g>
     <g id="text_18">
      <!-- 10 -->
      <g transform="translate(414.411473 257.198437)scale(0.1 -0.1)">
       <use xlink:href="#DejaVuSans-49"/>
       <use x="63.623047" xlink:href="#DejaVuSans-48"/>
      </g>
     </g>
    </g>
    <g id="xtick_10">
     <g id="line2d_18">
      <g>
       <use style="stroke:#000000;stroke-width:0.8;" x="461.13506" xlink:href="#mdc703a5c3b" y="242.6"/>
      </g>
     </g>
     <g id="text_19">
      <!-- 15 -->
      <g transform="translate(454.77256 257.198437)scale(0.1 -0.1)">
       <use xlink:href="#DejaVuSans-49"/>
       <use x="63.623047" xlink:href="#DejaVuSans-53"/>
      </g>
     </g>
    </g>
    <g id="xtick_11">
     <g id="line2d_19">
      <g>
       <use style="stroke:#000000;stroke-width:0.8;" x="501.496147" xlink:href="#mdc703a5c3b" y="242.6"/>
      </g>
     </g>
     <g id="text_20">
      <!-- 20 -->
      <g transform="translate(495.133647 257.198437)scale(0.1 -0.1)">
       <use xlink:href="#DejaVuSans-50"/>
       <use x="63.623047" xlink:href="#DejaVuSans-48"/>
      </g>
     </g>
    </g>
    <g id="xtick_12">
     <g id="line2d_20">
      <g>
       <use style="stroke:#000000;stroke-width:0.8;" x="541.857234" xlink:href="#mdc703a5c3b" y="242.6"/>
      </g>
     </g>
     <g id="text_21">
      <!-- 25 -->
      <g transform="translate(535.494734 257.198437)scale(0.1 -0.1)">
       <use xlink:href="#DejaVuSans-50"/>
       <use x="63.623047" xlink:href="#DejaVuSans-53"/>
      </g>
     </g>
    </g>
    <g id="text_22">
     <!-- steps (in 100s) -->
     <g transform="translate(407.784375 270.876562)scale(0.1 -0.1)">
      <defs>
       <path d="M 31 75.875 
Q 24.46875 64.65625 21.28125 53.65625 
Q 18.109375 42.671875 18.109375 31.390625 
Q 18.109375 20.125 21.3125 9.0625 
Q 24.515625 -2 31 -13.1875 
L 23.1875 -13.1875 
Q 15.875 -1.703125 12.234375 9.375 
Q 8.59375 20.453125 8.59375 31.390625 
Q 8.59375 42.28125 12.203125 53.3125 
Q 15.828125 64.359375 23.1875 75.875 
z
" id="DejaVuSans-40"/>
       <path d="M 8.015625 75.875 
L 15.828125 75.875 
Q 23.140625 64.359375 26.78125 53.3125 
Q 30.421875 42.28125 30.421875 31.390625 
Q 30.421875 20.453125 26.78125 9.375 
Q 23.140625 -1.703125 15.828125 -13.1875 
L 8.015625 -13.1875 
Q 14.5 -2 17.703125 9.0625 
Q 20.90625 20.125 20.90625 31.390625 
Q 20.90625 42.671875 17.703125 53.65625 
Q 14.5 64.65625 8.015625 75.875 
z
" id="DejaVuSans-41"/>
      </defs>
      <use xlink:href="#DejaVuSans-115"/>
      <use x="52.099609" xlink:href="#DejaVuSans-116"/>
      <use x="91.308594" xlink:href="#DejaVuSans-101"/>
      <use x="152.832031" xlink:href="#DejaVuSans-112"/>
      <use x="216.308594" xlink:href="#DejaVuSans-115"/>
      <use x="268.408203" xlink:href="#DejaVuSans-32"/>
      <use x="300.195312" xlink:href="#DejaVuSans-40"/>
      <use x="339.208984" xlink:href="#DejaVuSans-105"/>
      <use x="366.992188" xlink:href="#DejaVuSans-110"/>
      <use x="430.371094" xlink:href="#DejaVuSans-32"/>
      <use x="462.158203" xlink:href="#DejaVuSans-49"/>
      <use x="525.78125" xlink:href="#DejaVuSans-48"/>
      <use x="589.404297" xlink:href="#DejaVuSans-48"/>
      <use x="653.027344" xlink:href="#DejaVuSans-115"/>
      <use x="705.126953" xlink:href="#DejaVuSans-41"/>
     </g>
    </g>
   </g>
   <g id="matplotlib.axis_4">
    <g id="ytick_8">
     <g id="line2d_21">
      <g>
       <use style="stroke:#000000;stroke-width:0.8;" x="329.557917" xlink:href="#mae82391d69" y="210.813611"/>
      </g>
     </g>
     <g id="text_23">
      <!-- 10 -->
      <g transform="translate(309.832917 214.61283)scale(0.1 -0.1)">
       <use xlink:href="#DejaVuSans-49"/>
       <use x="63.623047" xlink:href="#DejaVuSans-48"/>
      </g>
     </g>
    </g>
    <g id="ytick_9">
     <g id="line2d_22">
      <g>
       <use style="stroke:#000000;stroke-width:0.8;" x="329.557917" xlink:href="#mae82391d69" y="170.029067"/>
      </g>
     </g>
     <g id="text_24">
      <!-- 20 -->
      <g transform="translate(309.832917 173.828286)scale(0.1 -0.1)">
       <use xlink:href="#DejaVuSans-50"/>
       <use x="63.623047" xlink:href="#DejaVuSans-48"/>
      </g>
     </g>
    </g>
    <g id="ytick_10">
     <g id="line2d_23">
      <g>
       <use style="stroke:#000000;stroke-width:0.8;" x="329.557917" xlink:href="#mae82391d69" y="129.244524"/>
      </g>
     </g>
     <g id="text_25">
      <!-- 30 -->
      <g transform="translate(309.832917 133.043742)scale(0.1 -0.1)">
       <use xlink:href="#DejaVuSans-51"/>
       <use x="63.623047" xlink:href="#DejaVuSans-48"/>
      </g>
     </g>
    </g>
    <g id="ytick_11">
     <g id="line2d_24">
      <g>
       <use style="stroke:#000000;stroke-width:0.8;" x="329.557917" xlink:href="#mae82391d69" y="88.45998"/>
      </g>
     </g>
     <g id="text_26">
      <!-- 40 -->
      <g transform="translate(309.832917 92.259199)scale(0.1 -0.1)">
       <use xlink:href="#DejaVuSans-52"/>
       <use x="63.623047" xlink:href="#DejaVuSans-48"/>
      </g>
     </g>
    </g>
    <g id="ytick_12">
     <g id="line2d_25">
      <g>
       <use style="stroke:#000000;stroke-width:0.8;" x="329.557917" xlink:href="#mae82391d69" y="47.675436"/>
      </g>
     </g>
     <g id="text_27">
      <!-- 50 -->
      <g transform="translate(309.832917 51.474655)scale(0.1 -0.1)">
       <use xlink:href="#DejaVuSans-53"/>
       <use x="63.623047" xlink:href="#DejaVuSans-48"/>
      </g>
     </g>
    </g>
    <g id="text_28">
     <!-- D given dev -->
     <g transform="translate(303.753229 154.90625)rotate(-90)scale(0.1 -0.1)">
      <defs>
       <path d="M 19.671875 64.796875 
L 19.671875 8.109375 
L 31.59375 8.109375 
Q 46.6875 8.109375 53.6875 14.9375 
Q 60.6875 21.78125 60.6875 36.53125 
Q 60.6875 51.171875 53.6875 57.984375 
Q 46.6875 64.796875 31.59375 64.796875 
z
M 9.8125 72.90625 
L 30.078125 72.90625 
Q 51.265625 72.90625 61.171875 64.09375 
Q 71.09375 55.28125 71.09375 36.53125 
Q 71.09375 17.671875 61.125 8.828125 
Q 51.171875 0 30.078125 0 
L 9.8125 0 
z
" id="DejaVuSans-68"/>
       <path d="M 2.984375 54.6875 
L 12.5 54.6875 
L 29.59375 8.796875 
L 46.6875 54.6875 
L 56.203125 54.6875 
L 35.6875 0 
L 23.484375 0 
z
" id="DejaVuSans-118"/>
       <path d="M 45.40625 46.390625 
L 45.40625 75.984375 
L 54.390625 75.984375 
L 54.390625 0 
L 45.40625 0 
L 45.40625 8.203125 
Q 42.578125 3.328125 38.25 0.953125 
Q 33.9375 -1.421875 27.875 -1.421875 
Q 17.96875 -1.421875 11.734375 6.484375 
Q 5.515625 14.40625 5.515625 27.296875 
Q 5.515625 40.1875 11.734375 48.09375 
Q 17.96875 56 27.875 56 
Q 33.9375 56 38.25 53.625 
Q 42.578125 51.265625 45.40625 46.390625 
z
M 14.796875 27.296875 
Q 14.796875 17.390625 18.875 11.75 
Q 22.953125 6.109375 30.078125 6.109375 
Q 37.203125 6.109375 41.296875 11.75 
Q 45.40625 17.390625 45.40625 27.296875 
Q 45.40625 37.203125 41.296875 42.84375 
Q 37.203125 48.484375 30.078125 48.484375 
Q 22.953125 48.484375 18.875 42.84375 
Q 14.796875 37.203125 14.796875 27.296875 
z
" id="DejaVuSans-100"/>
      </defs>
      <use xlink:href="#DejaVuSans-68"/>
      <use x="77.001953" xlink:href="#DejaVuSans-32"/>
      <use x="108.789062" xlink:href="#DejaVuSans-103"/>
      <use x="172.265625" xlink:href="#DejaVuSans-105"/>
      <use x="200.048828" xlink:href="#DejaVuSans-118"/>
      <use x="259.228516" xlink:href="#DejaVuSans-101"/>
      <use x="320.751953" xlink:href="#DejaVuSans-110"/>
      <use x="384.130859" xlink:href="#DejaVuSans-32"/>
      <use x="415.917969" xlink:href="#DejaVuSans-100"/>
      <use x="479.394531" xlink:href="#DejaVuSans-101"/>
      <use x="540.917969" xlink:href="#DejaVuSans-118"/>
     </g>
    </g>
   </g>
   <g id="line2d_26">
    <path clip-path="url(#p9ba3371a8f)" d="M 340.051799 17.9 
L 348.124016 19.391054 
L 356.196234 113.236656 
L 364.268451 149.301636 
L 372.340669 171.213153 
L 380.412886 184.224552 
L 388.485103 193.382755 
L 396.557321 200.690602 
L 404.629538 206.71294 
L 412.701755 210.866707 
L 420.773973 214.201575 
L 428.84619 217.753641 
L 436.918408 220.399184 
L 444.990625 222.33172 
L 453.062842 224.012888 
L 461.13506 225.3413 
L 469.207277 226.614899 
L 477.279495 227.596416 
L 485.351712 227.968879 
L 493.423929 228.679758 
L 501.496147 229.560121 
L 509.568364 230.45795 
L 517.640581 230.828739 
L 525.712799 231.312885 
L 533.785016 231.693327 
L 541.857234 231.9 
L 549.929451 231.727776 
" style="fill:none;stroke:#1f77b4;stroke-linecap:square;stroke-width:2;"/>
   </g>
   <g id="patch_8">
    <path d="M 329.557917 242.6 
L 329.557917 7.2 
" style="fill:none;stroke:#000000;stroke-linecap:square;stroke-linejoin:miter;stroke-width:0.8;"/>
   </g>
   <g id="patch_9">
    <path d="M 560.423333 242.6 
L 560.423333 7.2 
" style="fill:none;stroke:#000000;stroke-linecap:square;stroke-linejoin:miter;stroke-width:0.8;"/>
   </g>
   <g id="patch_10">
    <path d="M 329.557917 242.6 
L 560.423333 242.6 
" style="fill:none;stroke:#000000;stroke-linecap:square;stroke-linejoin:miter;stroke-width:0.8;"/>
   </g>
   <g id="patch_11">
    <path d="M 329.557917 7.2 
L 560.423333 7.2 
" style="fill:none;stroke:#000000;stroke-linecap:square;stroke-linejoin:miter;stroke-width:0.8;"/>
   </g>
  </g>
  <g id="axes_3">
   <g id="patch_12">
    <path d="M 618.512708 242.6 
L 849.378125 242.6 
L 849.378125 7.2 
L 618.512708 7.2 
z
" style="fill:#ffffff;"/>
   </g>
   <g id="matplotlib.axis_5">
    <g id="xtick_13">
     <g id="line2d_27">
      <g>
       <use style="stroke:#000000;stroke-width:0.8;" x="629.006591" xlink:href="#mdc703a5c3b" y="242.6"/>
      </g>
     </g>
     <g id="text_29">
      <!-- 0 -->
      <g transform="translate(625.825341 257.198437)scale(0.1 -0.1)">
       <use xlink:href="#DejaVuSans-48"/>
      </g>
     </g>
    </g>
    <g id="xtick_14">
     <g id="line2d_28">
      <g>
       <use style="stroke:#000000;stroke-width:0.8;" x="669.367677" xlink:href="#mdc703a5c3b" y="242.6"/>
      </g>
     </g>
     <g id="text_30">
      <!-- 5 -->
      <g transform="translate(666.186427 257.198437)scale(0.1 -0.1)">
       <use xlink:href="#DejaVuSans-53"/>
      </g>
     </g>
    </g>
    <g id="xtick_15">
     <g id="line2d_29">
      <g>
       <use style="stroke:#000000;stroke-width:0.8;" x="709.728764" xlink:href="#mdc703a5c3b" y="242.6"/>
      </g>
     </g>
     <g id="text_31">
      <!-- 10 -->
      <g transform="translate(703.366264 257.198437)scale(0.1 -0.1)">
       <use xlink:href="#DejaVuSans-49"/>
       <use x="63.623047" xlink:href="#DejaVuSans-48"/>
      </g>
     </g>
    </g>
    <g id="xtick_16">
     <g id="line2d_30">
      <g>
       <use style="stroke:#000000;stroke-width:0.8;" x="750.089851" xlink:href="#mdc703a5c3b" y="242.6"/>
      </g>
     </g>
     <g id="text_32">
      <!-- 15 -->
      <g transform="translate(743.727351 257.198437)scale(0.1 -0.1)">
       <use xlink:href="#DejaVuSans-49"/>
       <use x="63.623047" xlink:href="#DejaVuSans-53"/>
      </g>
     </g>
    </g>
    <g id="xtick_17">
     <g id="line2d_31">
      <g>
       <use style="stroke:#000000;stroke-width:0.8;" x="790.450938" xlink:href="#mdc703a5c3b" y="242.6"/>
      </g>
     </g>
     <g id="text_33">
      <!-- 20 -->
      <g transform="translate(784.088438 257.198437)scale(0.1 -0.1)">
       <use xlink:href="#DejaVuSans-50"/>
       <use x="63.623047" xlink:href="#DejaVuSans-48"/>
      </g>
     </g>
    </g>
    <g id="xtick_18">
     <g id="line2d_32">
      <g>
       <use style="stroke:#000000;stroke-width:0.8;" x="830.812025" xlink:href="#mdc703a5c3b" y="242.6"/>
      </g>
     </g>
     <g id="text_34">
      <!-- 25 -->
      <g transform="translate(824.449525 257.198437)scale(0.1 -0.1)">
       <use xlink:href="#DejaVuSans-50"/>
       <use x="63.623047" xlink:href="#DejaVuSans-53"/>
      </g>
     </g>
    </g>
    <g id="text_35">
     <!-- steps (in 10s) -->
     <g transform="translate(699.920417 270.876562)scale(0.1 -0.1)">
      <use xlink:href="#DejaVuSans-115"/>
      <use x="52.099609" xlink:href="#DejaVuSans-116"/>
      <use x="91.308594" xlink:href="#DejaVuSans-101"/>
      <use x="152.832031" xlink:href="#DejaVuSans-112"/>
      <use x="216.308594" xlink:href="#DejaVuSans-115"/>
      <use x="268.408203" xlink:href="#DejaVuSans-32"/>
      <use x="300.195312" xlink:href="#DejaVuSans-40"/>
      <use x="339.208984" xlink:href="#DejaVuSans-105"/>
      <use x="366.992188" xlink:href="#DejaVuSans-110"/>
      <use x="430.371094" xlink:href="#DejaVuSans-32"/>
      <use x="462.158203" xlink:href="#DejaVuSans-49"/>
      <use x="525.78125" xlink:href="#DejaVuSans-48"/>
      <use x="589.404297" xlink:href="#DejaVuSans-115"/>
      <use x="641.503906" xlink:href="#DejaVuSans-41"/>
     </g>
    </g>
   </g>
   <g id="matplotlib.axis_6">
    <g id="ytick_13">
     <g id="line2d_33">
      <g>
       <use style="stroke:#000000;stroke-width:0.8;" x="618.512708" xlink:href="#mae82391d69" y="196.281369"/>
      </g>
     </g>
     <g id="text_36">
      <!-- 0.2 -->
      <g transform="translate(595.609583 200.080588)scale(0.1 -0.1)">
       <defs>
        <path d="M 10.6875 12.40625 
L 21 12.40625 
L 21 0 
L 10.6875 0 
z
" id="DejaVuSans-46"/>
       </defs>
       <use xlink:href="#DejaVuSans-48"/>
       <use x="63.623047" xlink:href="#DejaVuSans-46"/>
       <use x="95.410156" xlink:href="#DejaVuSans-50"/>
      </g>
     </g>
    </g>
    <g id="ytick_14">
     <g id="line2d_34">
      <g>
       <use style="stroke:#000000;stroke-width:0.8;" x="618.512708" xlink:href="#mae82391d69" y="147.212682"/>
      </g>
     </g>
     <g id="text_37">
      <!-- 0.4 -->
      <g transform="translate(595.609583 151.011901)scale(0.1 -0.1)">
       <use xlink:href="#DejaVuSans-48"/>
       <use x="63.623047" xlink:href="#DejaVuSans-46"/>
       <use x="95.410156" xlink:href="#DejaVuSans-52"/>
      </g>
     </g>
    </g>
    <g id="ytick_15">
     <g id="line2d_35">
      <g>
       <use style="stroke:#000000;stroke-width:0.8;" x="618.512708" xlink:href="#mae82391d69" y="98.143996"/>
      </g>
     </g>
     <g id="text_38">
      <!-- 0.6 -->
      <g transform="translate(595.609583 101.943214)scale(0.1 -0.1)">
       <use xlink:href="#DejaVuSans-48"/>
       <use x="63.623047" xlink:href="#DejaVuSans-46"/>
       <use x="95.410156" xlink:href="#DejaVuSans-54"/>
      </g>
     </g>
    </g>
    <g id="ytick_16">
     <g id="line2d_36">
      <g>
       <use style="stroke:#000000;stroke-width:0.8;" x="618.512708" xlink:href="#mae82391d69" y="49.075309"/>
      </g>
     </g>
     <g id="text_39">
      <!-- 0.8 -->
      <g transform="translate(595.609583 52.874527)scale(0.1 -0.1)">
       <defs>
        <path d="M 31.78125 34.625 
Q 24.75 34.625 20.71875 30.859375 
Q 16.703125 27.09375 16.703125 20.515625 
Q 16.703125 13.921875 20.71875 10.15625 
Q 24.75 6.390625 31.78125 6.390625 
Q 38.8125 6.390625 42.859375 10.171875 
Q 46.921875 13.96875 46.921875 20.515625 
Q 46.921875 27.09375 42.890625 30.859375 
Q 38.875 34.625 31.78125 34.625 
z
M 21.921875 38.8125 
Q 15.578125 40.375 12.03125 44.71875 
Q 8.5 49.078125 8.5 55.328125 
Q 8.5 64.0625 14.71875 69.140625 
Q 20.953125 74.21875 31.78125 74.21875 
Q 42.671875 74.21875 48.875 69.140625 
Q 55.078125 64.0625 55.078125 55.328125 
Q 55.078125 49.078125 51.53125 44.71875 
Q 48 40.375 41.703125 38.8125 
Q 48.828125 37.15625 52.796875 32.3125 
Q 56.78125 27.484375 56.78125 20.515625 
Q 56.78125 9.90625 50.3125 4.234375 
Q 43.84375 -1.421875 31.78125 -1.421875 
Q 19.734375 -1.421875 13.25 4.234375 
Q 6.78125 9.90625 6.78125 20.515625 
Q 6.78125 27.484375 10.78125 32.3125 
Q 14.796875 37.15625 21.921875 38.8125 
z
M 18.3125 54.390625 
Q 18.3125 48.734375 21.84375 45.5625 
Q 25.390625 42.390625 31.78125 42.390625 
Q 38.140625 42.390625 41.71875 45.5625 
Q 45.3125 48.734375 45.3125 54.390625 
Q 45.3125 60.0625 41.71875 63.234375 
Q 38.140625 66.40625 31.78125 66.40625 
Q 25.390625 66.40625 21.84375 63.234375 
Q 18.3125 60.0625 18.3125 54.390625 
z
" id="DejaVuSans-56"/>
       </defs>
       <use xlink:href="#DejaVuSans-48"/>
       <use x="63.623047" xlink:href="#DejaVuSans-46"/>
       <use x="95.410156" xlink:href="#DejaVuSans-56"/>
      </g>
     </g>
    </g>
    <g id="text_40">
     <!-- dev acc -->
     <g transform="translate(589.529896 144.261719)rotate(-90)scale(0.1 -0.1)">
      <defs>
       <path d="M 48.78125 52.59375 
L 48.78125 44.1875 
Q 44.96875 46.296875 41.140625 47.34375 
Q 37.3125 48.390625 33.40625 48.390625 
Q 24.65625 48.390625 19.8125 42.84375 
Q 14.984375 37.3125 14.984375 27.296875 
Q 14.984375 17.28125 19.8125 11.734375 
Q 24.65625 6.203125 33.40625 6.203125 
Q 37.3125 6.203125 41.140625 7.25 
Q 44.96875 8.296875 48.78125 10.40625 
L 48.78125 2.09375 
Q 45.015625 0.34375 40.984375 -0.53125 
Q 36.96875 -1.421875 32.421875 -1.421875 
Q 20.0625 -1.421875 12.78125 6.34375 
Q 5.515625 14.109375 5.515625 27.296875 
Q 5.515625 40.671875 12.859375 48.328125 
Q 20.21875 56 33.015625 56 
Q 37.15625 56 41.109375 55.140625 
Q 45.0625 54.296875 48.78125 52.59375 
z
" id="DejaVuSans-99"/>
      </defs>
      <use xlink:href="#DejaVuSans-100"/>
      <use x="63.476562" xlink:href="#DejaVuSans-101"/>
      <use x="125" xlink:href="#DejaVuSans-118"/>
      <use x="184.179688" xlink:href="#DejaVuSans-32"/>
      <use x="215.966797" xlink:href="#DejaVuSans-97"/>
      <use x="277.246094" xlink:href="#DejaVuSans-99"/>
      <use x="332.226562" xlink:href="#DejaVuSans-99"/>
     </g>
    </g>
   </g>
   <g id="line2d_37">
    <path clip-path="url(#pd6ee2fb518)" d="M 629.006591 231.299551 
L 637.078808 231.9 
L 645.151025 132.705836 
L 653.223243 92.956117 
L 661.29546 70.499327 
L 669.367677 59.931425 
L 677.439895 52.605948 
L 685.512112 45.760831 
L 693.58433 40.2367 
L 701.656547 35.793378 
L 709.728764 32.911223 
L 717.800982 31.350056 
L 725.873199 28.94826 
L 733.945417 25.825926 
L 742.017634 24.144669 
L 750.089851 22.823681 
L 758.162069 21.983053 
L 766.234286 21.742873 
L 774.306503 21.742873 
L 782.378721 20.181706 
L 790.450938 20.301796 
L 798.523156 19.581257 
L 806.595373 19.461167 
L 814.66759 19.461167 
L 822.739808 17.9 
L 830.812025 18.14018 
L 838.884242 18.14018 
" style="fill:none;stroke:#1f77b4;stroke-linecap:square;stroke-width:2;"/>
   </g>
   <g id="patch_13">
    <path d="M 618.512708 242.6 
L 618.512708 7.2 
" style="fill:none;stroke:#000000;stroke-linecap:square;stroke-linejoin:miter;stroke-width:0.8;"/>
   </g>
   <g id="patch_14">
    <path d="M 849.378125 242.6 
L 849.378125 7.2 
" style="fill:none;stroke:#000000;stroke-linecap:square;stroke-linejoin:miter;stroke-width:0.8;"/>
   </g>
   <g id="patch_15">
    <path d="M 618.512708 242.6 
L 849.378125 242.6 
" style="fill:none;stroke:#000000;stroke-linecap:square;stroke-linejoin:miter;stroke-width:0.8;"/>
   </g>
   <g id="patch_16">
    <path d="M 618.512708 7.2 
L 849.378125 7.2 
" style="fill:none;stroke:#000000;stroke-linecap:square;stroke-linejoin:miter;stroke-width:0.8;"/>
   </g>
  </g>
 </g>
 <defs>
  <clipPath id="pca6a54e3d1">
   <rect height="235.4" width="230.865417" x="40.603125" y="7.2"/>
  </clipPath>
  <clipPath id="p9ba3371a8f">
   <rect height="235.4" width="230.865417" x="329.557917" y="7.2"/>
  </clipPath>
  <clipPath id="pd6ee2fb518">
   <rect height="235.4" width="230.865417" x="618.512708" y="7.2"/>
  </clipPath>
 </defs>
</svg>
