<?xml version="1.0" encoding="utf-8" standalone="no"?>
<!DOCTYPE svg PUBLIC "-//W3C//DTD SVG 1.1//EN"
  "http://www.w3.org/Graphics/SVG/1.1/DTD/svg11.dtd">
<!-- Created with matplotlib (https://matplotlib.org/) -->
<svg height="221.50625pt" version="1.1" viewBox="0 0 395.873438 221.50625" width="395.873438pt" xmlns="http://www.w3.org/2000/svg" xmlns:xlink="http://www.w3.org/1999/xlink">
 <metadata>
  <rdf:RDF xmlns:cc="http://creativecommons.org/ns#" xmlns:dc="http://purl.org/dc/elements/1.1/" xmlns:rdf="http://www.w3.org/1999/02/22-rdf-syntax-ns#">
   <cc:Work>
    <dc:type rdf:resource="http://purl.org/dc/dcmitype/StillImage"/>
    <dc:date>2022-09-25T13:19:49.731158</dc:date>
    <dc:format>image/svg+xml</dc:format>
    <dc:creator>
     <cc:Agent>
      <dc:title>Matplotlib v3.3.2, https://matplotlib.org/</dc:title>
     </cc:Agent>
    </dc:creator>
   </cc:Work>
  </rdf:RDF>
 </metadata>
 <defs>
  <style type="text/css">*{stroke-linecap:butt;stroke-linejoin:round;}</style>
 </defs>
 <g id="figure_1">
  <g id="patch_1">
   <path d="M 0 221.50625 
L 395.873438 221.50625 
L 395.873438 -0 
L 0 -0 
z
" style="fill:#ffffff;"/>
  </g>
  <g id="axes_1">
   <g id="patch_2">
    <path d="M 46.923438 185.015625 
L 381.723437 185.015625 
L 381.723437 21.935625 
L 46.923438 21.935625 
z
" style="fill:#ffffff;"/>
   </g>
   <g id="matplotlib.axis_1">
    <g id="xtick_1">
     <g id="text_1">
      <!-- -4.0 -->
      <g style="fill:#262626;" transform="translate(38.308594 199.173438)scale(0.1 -0.1)">
       <defs>
        <path d="M 3.171875 21.484375 
L 3.171875 30.328125 
L 30.171875 30.328125 
L 30.171875 21.484375 
z
" id="ArialMT-45"/>
        <path d="M 32.328125 0 
L 32.328125 17.140625 
L 1.265625 17.140625 
L 1.265625 25.203125 
L 33.9375 71.578125 
L 41.109375 71.578125 
L 41.109375 25.203125 
L 50.78125 25.203125 
L 50.78125 17.140625 
L 41.109375 17.140625 
L 41.109375 0 
z
M 32.328125 25.203125 
L 32.328125 57.46875 
L 9.90625 25.203125 
z
" id="ArialMT-52"/>
        <path d="M 9.078125 0 
L 9.078125 10.015625 
L 19.09375 10.015625 
L 19.09375 0 
z
" id="ArialMT-46"/>
        <path d="M 4.15625 35.296875 
Q 4.15625 48 6.765625 55.734375 
Q 9.375 63.484375 14.515625 67.671875 
Q 19.671875 71.875 27.484375 71.875 
Q 33.25 71.875 37.59375 69.546875 
Q 41.9375 67.234375 44.765625 62.859375 
Q 47.609375 58.5 49.21875 52.21875 
Q 50.828125 45.953125 50.828125 35.296875 
Q 50.828125 22.703125 48.234375 14.96875 
Q 45.65625 7.234375 40.5 3 
Q 35.359375 -1.21875 27.484375 -1.21875 
Q 17.140625 -1.21875 11.234375 6.203125 
Q 4.15625 15.140625 4.15625 35.296875 
z
M 13.1875 35.296875 
Q 13.1875 17.671875 17.3125 11.828125 
Q 21.4375 6 27.484375 6 
Q 33.546875 6 37.671875 11.859375 
Q 41.796875 17.71875 41.796875 35.296875 
Q 41.796875 52.984375 37.671875 58.78125 
Q 33.546875 64.59375 27.390625 64.59375 
Q 21.34375 64.59375 17.71875 59.46875 
Q 13.1875 52.9375 13.1875 35.296875 
z
" id="ArialMT-48"/>
       </defs>
       <use xlink:href="#ArialMT-45"/>
       <use x="33.300781" xlink:href="#ArialMT-52"/>
       <use x="88.916016" xlink:href="#ArialMT-46"/>
       <use x="116.699219" xlink:href="#ArialMT-48"/>
      </g>
     </g>
    </g>
    <g id="xtick_2">
     <g id="text_2">
      <!-- -1.9 -->
      <g style="fill:#262626;" transform="translate(124.62749 199.173438)scale(0.1 -0.1)">
       <defs>
        <path d="M 37.25 0 
L 28.46875 0 
L 28.46875 56 
Q 25.296875 52.984375 20.140625 49.953125 
Q 14.984375 46.921875 10.890625 45.40625 
L 10.890625 53.90625 
Q 18.265625 57.375 23.78125 62.296875 
Q 29.296875 67.234375 31.59375 71.875 
L 37.25 71.875 
z
" id="ArialMT-49"/>
        <path d="M 5.46875 16.546875 
L 13.921875 17.328125 
Q 14.984375 11.375 18.015625 8.6875 
Q 21.046875 6 25.78125 6 
Q 29.828125 6 32.875 7.859375 
Q 35.9375 9.71875 37.890625 12.8125 
Q 39.84375 15.921875 41.15625 21.1875 
Q 42.484375 26.46875 42.484375 31.9375 
Q 42.484375 32.515625 42.4375 33.6875 
Q 39.796875 29.5 35.234375 26.875 
Q 30.671875 24.265625 25.34375 24.265625 
Q 16.453125 24.265625 10.296875 30.703125 
Q 4.15625 37.15625 4.15625 47.703125 
Q 4.15625 58.59375 10.578125 65.234375 
Q 17 71.875 26.65625 71.875 
Q 33.640625 71.875 39.421875 68.109375 
Q 45.21875 64.359375 48.21875 57.390625 
Q 51.21875 50.4375 51.21875 37.25 
Q 51.21875 23.53125 48.234375 15.40625 
Q 45.265625 7.28125 39.375 3.03125 
Q 33.5 -1.21875 25.59375 -1.21875 
Q 17.1875 -1.21875 11.859375 3.4375 
Q 6.546875 8.109375 5.46875 16.546875 
z
M 41.453125 48.140625 
Q 41.453125 55.71875 37.421875 60.15625 
Q 33.40625 64.59375 27.734375 64.59375 
Q 21.875 64.59375 17.53125 59.8125 
Q 13.1875 55.03125 13.1875 47.40625 
Q 13.1875 40.578125 17.3125 36.296875 
Q 21.4375 32.03125 27.484375 32.03125 
Q 33.59375 32.03125 37.515625 36.296875 
Q 41.453125 40.578125 41.453125 48.140625 
z
" id="ArialMT-57"/>
       </defs>
       <use xlink:href="#ArialMT-45"/>
       <use x="33.300781" xlink:href="#ArialMT-49"/>
       <use x="88.916016" xlink:href="#ArialMT-46"/>
       <use x="116.699219" xlink:href="#ArialMT-57"/>
      </g>
     </g>
    </g>
    <g id="xtick_3">
     <g id="text_3">
      <!-- -1.1 -->
      <g style="fill:#262626;" transform="translate(160.244512 199.173438)scale(0.1 -0.1)">
       <use xlink:href="#ArialMT-45"/>
       <use x="33.300781" xlink:href="#ArialMT-49"/>
       <use x="88.916016" xlink:href="#ArialMT-46"/>
       <use x="116.699219" xlink:href="#ArialMT-49"/>
      </g>
     </g>
    </g>
    <g id="xtick_4">
     <g id="text_4">
      <!-- -0.5 -->
      <g style="fill:#262626;" transform="translate(184.547893 199.173438)scale(0.1 -0.1)">
       <defs>
        <path d="M 4.15625 18.75 
L 13.375 19.53125 
Q 14.40625 12.796875 18.140625 9.390625 
Q 21.875 6 27.15625 6 
Q 33.5 6 37.890625 10.78125 
Q 42.28125 15.578125 42.28125 23.484375 
Q 42.28125 31 38.0625 35.34375 
Q 33.84375 39.703125 27 39.703125 
Q 22.75 39.703125 19.328125 37.765625 
Q 15.921875 35.84375 13.96875 32.765625 
L 5.71875 33.84375 
L 12.640625 70.609375 
L 48.25 70.609375 
L 48.25 62.203125 
L 19.671875 62.203125 
L 15.828125 42.96875 
Q 22.265625 47.46875 29.34375 47.46875 
Q 38.71875 47.46875 45.15625 40.96875 
Q 51.609375 34.46875 51.609375 24.265625 
Q 51.609375 14.546875 45.953125 7.46875 
Q 39.0625 -1.21875 27.15625 -1.21875 
Q 17.390625 -1.21875 11.203125 4.25 
Q 5.03125 9.71875 4.15625 18.75 
z
" id="ArialMT-53"/>
       </defs>
       <use xlink:href="#ArialMT-45"/>
       <use x="33.300781" xlink:href="#ArialMT-48"/>
       <use x="88.916016" xlink:href="#ArialMT-46"/>
       <use x="116.699219" xlink:href="#ArialMT-53"/>
      </g>
     </g>
    </g>
    <g id="xtick_5">
     <g id="text_5">
      <!-- 0.0 -->
      <g style="fill:#262626;" transform="translate(207.582949 199.173438)scale(0.1 -0.1)">
       <use xlink:href="#ArialMT-48"/>
       <use x="55.615234" xlink:href="#ArialMT-46"/>
       <use x="83.398438" xlink:href="#ArialMT-48"/>
      </g>
     </g>
    </g>
    <g id="xtick_6">
     <g id="text_6">
      <!-- 0.5 -->
      <g style="fill:#262626;" transform="translate(229.372185 199.173438)scale(0.1 -0.1)">
       <use xlink:href="#ArialMT-48"/>
       <use x="55.615234" xlink:href="#ArialMT-46"/>
       <use x="83.398438" xlink:href="#ArialMT-53"/>
      </g>
     </g>
    </g>
    <g id="xtick_7">
     <g id="text_7">
      <!-- 1.1 -->
      <g style="fill:#262626;" transform="translate(253.675561 199.173438)scale(0.1 -0.1)">
       <use xlink:href="#ArialMT-49"/>
       <use x="55.615234" xlink:href="#ArialMT-46"/>
       <use x="83.398438" xlink:href="#ArialMT-49"/>
      </g>
     </g>
    </g>
    <g id="xtick_8">
     <g id="text_8">
      <!-- 1.9 -->
      <g style="fill:#262626;" transform="translate(289.292583 199.173438)scale(0.1 -0.1)">
       <use xlink:href="#ArialMT-49"/>
       <use x="55.615234" xlink:href="#ArialMT-46"/>
       <use x="83.398438" xlink:href="#ArialMT-57"/>
      </g>
     </g>
    </g>
    <g id="xtick_9">
     <g id="text_9">
      <!-- 4.0 -->
      <g style="fill:#262626;" transform="translate(374.773438 199.173438)scale(0.1 -0.1)">
       <use xlink:href="#ArialMT-52"/>
       <use x="55.615234" xlink:href="#ArialMT-46"/>
       <use x="83.398438" xlink:href="#ArialMT-48"/>
      </g>
     </g>
    </g>
    <g id="text_10">
     <!-- z -->
     <g style="fill:#262626;" transform="translate(211.823437 212.31875)scale(0.1 -0.1)">
      <defs>
       <path d="M 1.953125 0 
L 1.953125 7.125 
L 34.96875 45.015625 
Q 29.34375 44.734375 25.046875 44.734375 
L 3.90625 44.734375 
L 3.90625 51.859375 
L 46.296875 51.859375 
L 46.296875 46.046875 
L 18.21875 13.140625 
L 12.796875 7.125 
Q 18.703125 7.5625 23.875 7.5625 
L 47.859375 7.5625 
L 47.859375 0 
z
" id="ArialMT-122"/>
      </defs>
      <use xlink:href="#ArialMT-122"/>
     </g>
    </g>
   </g>
   <g id="matplotlib.axis_2">
    <g id="ytick_1">
     <g id="text_11">
      <!-- 0.00 -->
      <g style="fill:#262626;" transform="translate(20.4625 188.594531)scale(0.1 -0.1)">
       <use xlink:href="#ArialMT-48"/>
       <use x="55.615234" xlink:href="#ArialMT-46"/>
       <use x="83.398438" xlink:href="#ArialMT-48"/>
       <use x="139.013672" xlink:href="#ArialMT-48"/>
      </g>
     </g>
    </g>
    <g id="ytick_2">
     <g id="text_12">
      <!-- 0.05 -->
      <g style="fill:#262626;" transform="translate(20.4625 158.943919)scale(0.1 -0.1)">
       <use xlink:href="#ArialMT-48"/>
       <use x="55.615234" xlink:href="#ArialMT-46"/>
       <use x="83.398438" xlink:href="#ArialMT-48"/>
       <use x="139.013672" xlink:href="#ArialMT-53"/>
      </g>
     </g>
    </g>
    <g id="ytick_3">
     <g id="text_13">
      <!-- 0.10 -->
      <g style="fill:#262626;" transform="translate(20.4625 129.293307)scale(0.1 -0.1)">
       <use xlink:href="#ArialMT-48"/>
       <use x="55.615234" xlink:href="#ArialMT-46"/>
       <use x="83.398438" xlink:href="#ArialMT-49"/>
       <use x="139.013672" xlink:href="#ArialMT-48"/>
      </g>
     </g>
    </g>
    <g id="ytick_4">
     <g id="text_14">
      <!-- 0.15 -->
      <g style="fill:#262626;" transform="translate(20.4625 99.642695)scale(0.1 -0.1)">
       <use xlink:href="#ArialMT-48"/>
       <use x="55.615234" xlink:href="#ArialMT-46"/>
       <use x="83.398438" xlink:href="#ArialMT-49"/>
       <use x="139.013672" xlink:href="#ArialMT-53"/>
      </g>
     </g>
    </g>
    <g id="ytick_5">
     <g id="text_15">
      <!-- 0.20 -->
      <g style="fill:#262626;" transform="translate(20.4625 69.992083)scale(0.1 -0.1)">
       <defs>
        <path d="M 50.34375 8.453125 
L 50.34375 0 
L 3.03125 0 
Q 2.9375 3.171875 4.046875 6.109375 
Q 5.859375 10.9375 9.828125 15.625 
Q 13.8125 20.3125 21.34375 26.46875 
Q 33.015625 36.03125 37.109375 41.625 
Q 41.21875 47.21875 41.21875 52.203125 
Q 41.21875 57.421875 37.46875 61 
Q 33.734375 64.59375 27.734375 64.59375 
Q 21.390625 64.59375 17.578125 60.78125 
Q 13.765625 56.984375 13.71875 50.25 
L 4.6875 51.171875 
Q 5.609375 61.28125 11.65625 66.578125 
Q 17.71875 71.875 27.9375 71.875 
Q 38.234375 71.875 44.234375 66.15625 
Q 50.25 60.453125 50.25 52 
Q 50.25 47.703125 48.484375 43.546875 
Q 46.734375 39.40625 42.65625 34.8125 
Q 38.578125 30.21875 29.109375 22.21875 
Q 21.1875 15.578125 18.9375 13.203125 
Q 16.703125 10.84375 15.234375 8.453125 
z
" id="ArialMT-50"/>
       </defs>
       <use xlink:href="#ArialMT-48"/>
       <use x="55.615234" xlink:href="#ArialMT-46"/>
       <use x="83.398438" xlink:href="#ArialMT-50"/>
       <use x="139.013672" xlink:href="#ArialMT-48"/>
      </g>
     </g>
    </g>
    <g id="ytick_6">
     <g id="text_16">
      <!-- 0.25 -->
      <g style="fill:#262626;" transform="translate(20.4625 40.34147)scale(0.1 -0.1)">
       <use xlink:href="#ArialMT-48"/>
       <use x="55.615234" xlink:href="#ArialMT-46"/>
       <use x="83.398438" xlink:href="#ArialMT-50"/>
       <use x="139.013672" xlink:href="#ArialMT-53"/>
      </g>
     </g>
    </g>
    <g id="text_17">
     <!-- Probability -->
     <g style="fill:#262626;" transform="translate(14.357813 126.819375)rotate(-90)scale(0.1 -0.1)">
      <defs>
       <path d="M 7.71875 0 
L 7.71875 71.578125 
L 34.71875 71.578125 
Q 41.84375 71.578125 45.609375 70.90625 
Q 50.875 70.015625 54.4375 67.546875 
Q 58.015625 65.09375 60.1875 60.640625 
Q 62.359375 56.203125 62.359375 50.875 
Q 62.359375 41.75 56.546875 35.421875 
Q 50.734375 29.109375 35.546875 29.109375 
L 17.1875 29.109375 
L 17.1875 0 
z
M 17.1875 37.546875 
L 35.6875 37.546875 
Q 44.875 37.546875 48.734375 40.96875 
Q 52.59375 44.390625 52.59375 50.59375 
Q 52.59375 55.078125 50.3125 58.265625 
Q 48.046875 61.46875 44.34375 62.5 
Q 41.9375 63.140625 35.5 63.140625 
L 17.1875 63.140625 
z
" id="ArialMT-80"/>
       <path d="M 6.5 0 
L 6.5 51.859375 
L 14.40625 51.859375 
L 14.40625 44 
Q 17.4375 49.515625 20 51.265625 
Q 22.5625 53.03125 25.640625 53.03125 
Q 30.078125 53.03125 34.671875 50.203125 
L 31.640625 42.046875 
Q 28.421875 43.953125 25.203125 43.953125 
Q 22.3125 43.953125 20.015625 42.21875 
Q 17.71875 40.484375 16.75 37.40625 
Q 15.28125 32.71875 15.28125 27.15625 
L 15.28125 0 
z
" id="ArialMT-114"/>
       <path d="M 3.328125 25.921875 
Q 3.328125 40.328125 11.328125 47.265625 
Q 18.015625 53.03125 27.640625 53.03125 
Q 38.328125 53.03125 45.109375 46.015625 
Q 51.90625 39.015625 51.90625 26.65625 
Q 51.90625 16.65625 48.90625 10.90625 
Q 45.90625 5.171875 40.15625 2 
Q 34.421875 -1.171875 27.640625 -1.171875 
Q 16.75 -1.171875 10.03125 5.8125 
Q 3.328125 12.796875 3.328125 25.921875 
z
M 12.359375 25.921875 
Q 12.359375 15.96875 16.703125 11.015625 
Q 21.046875 6.0625 27.640625 6.0625 
Q 34.1875 6.0625 38.53125 11.03125 
Q 42.875 16.015625 42.875 26.21875 
Q 42.875 35.84375 38.5 40.796875 
Q 34.125 45.75 27.640625 45.75 
Q 21.046875 45.75 16.703125 40.8125 
Q 12.359375 35.890625 12.359375 25.921875 
z
" id="ArialMT-111"/>
       <path d="M 14.703125 0 
L 6.546875 0 
L 6.546875 71.578125 
L 15.328125 71.578125 
L 15.328125 46.046875 
Q 20.90625 53.03125 29.546875 53.03125 
Q 34.328125 53.03125 38.59375 51.09375 
Q 42.875 49.171875 45.625 45.671875 
Q 48.390625 42.1875 49.953125 37.25 
Q 51.515625 32.328125 51.515625 26.703125 
Q 51.515625 13.375 44.921875 6.09375 
Q 38.328125 -1.171875 29.109375 -1.171875 
Q 19.921875 -1.171875 14.703125 6.5 
z
M 14.59375 26.3125 
Q 14.59375 17 17.140625 12.84375 
Q 21.296875 6.0625 28.375 6.0625 
Q 34.125 6.0625 38.328125 11.0625 
Q 42.53125 16.0625 42.53125 25.984375 
Q 42.53125 36.140625 38.5 40.96875 
Q 34.46875 45.796875 28.765625 45.796875 
Q 23 45.796875 18.796875 40.796875 
Q 14.59375 35.796875 14.59375 26.3125 
z
" id="ArialMT-98"/>
       <path d="M 40.4375 6.390625 
Q 35.546875 2.25 31.03125 0.53125 
Q 26.515625 -1.171875 21.34375 -1.171875 
Q 12.796875 -1.171875 8.203125 3 
Q 3.609375 7.171875 3.609375 13.671875 
Q 3.609375 17.484375 5.34375 20.625 
Q 7.078125 23.78125 9.890625 25.6875 
Q 12.703125 27.59375 16.21875 28.5625 
Q 18.796875 29.25 24.03125 29.890625 
Q 34.671875 31.15625 39.703125 32.90625 
Q 39.75 34.71875 39.75 35.203125 
Q 39.75 40.578125 37.25 42.78125 
Q 33.890625 45.75 27.25 45.75 
Q 21.046875 45.75 18.09375 43.578125 
Q 15.140625 41.40625 13.71875 35.890625 
L 5.125 37.0625 
Q 6.296875 42.578125 8.984375 45.96875 
Q 11.671875 49.359375 16.75 51.1875 
Q 21.828125 53.03125 28.515625 53.03125 
Q 35.15625 53.03125 39.296875 51.46875 
Q 43.453125 49.90625 45.40625 47.53125 
Q 47.359375 45.171875 48.140625 41.546875 
Q 48.578125 39.3125 48.578125 33.453125 
L 48.578125 21.734375 
Q 48.578125 9.46875 49.140625 6.21875 
Q 49.703125 2.984375 51.375 0 
L 42.1875 0 
Q 40.828125 2.734375 40.4375 6.390625 
z
M 39.703125 26.03125 
Q 34.90625 24.078125 25.34375 22.703125 
Q 19.921875 21.921875 17.671875 20.9375 
Q 15.4375 19.96875 14.203125 18.09375 
Q 12.984375 16.21875 12.984375 13.921875 
Q 12.984375 10.40625 15.640625 8.0625 
Q 18.3125 5.71875 23.4375 5.71875 
Q 28.515625 5.71875 32.46875 7.9375 
Q 36.421875 10.15625 38.28125 14.015625 
Q 39.703125 17 39.703125 22.796875 
z
" id="ArialMT-97"/>
       <path d="M 6.640625 61.46875 
L 6.640625 71.578125 
L 15.4375 71.578125 
L 15.4375 61.46875 
z
M 6.640625 0 
L 6.640625 51.859375 
L 15.4375 51.859375 
L 15.4375 0 
z
" id="ArialMT-105"/>
       <path d="M 6.390625 0 
L 6.390625 71.578125 
L 15.1875 71.578125 
L 15.1875 0 
z
" id="ArialMT-108"/>
       <path d="M 25.78125 7.859375 
L 27.046875 0.09375 
Q 23.34375 -0.6875 20.40625 -0.6875 
Q 15.625 -0.6875 12.984375 0.828125 
Q 10.359375 2.34375 9.28125 4.8125 
Q 8.203125 7.28125 8.203125 15.1875 
L 8.203125 45.015625 
L 1.765625 45.015625 
L 1.765625 51.859375 
L 8.203125 51.859375 
L 8.203125 64.703125 
L 16.9375 69.96875 
L 16.9375 51.859375 
L 25.78125 51.859375 
L 25.78125 45.015625 
L 16.9375 45.015625 
L 16.9375 14.703125 
Q 16.9375 10.9375 17.40625 9.859375 
Q 17.875 8.796875 18.921875 8.15625 
Q 19.96875 7.515625 21.921875 7.515625 
Q 23.390625 7.515625 25.78125 7.859375 
z
" id="ArialMT-116"/>
       <path d="M 6.203125 -19.96875 
L 5.21875 -11.71875 
Q 8.109375 -12.5 10.25 -12.5 
Q 13.1875 -12.5 14.9375 -11.515625 
Q 16.703125 -10.546875 17.828125 -8.796875 
Q 18.65625 -7.46875 20.515625 -2.25 
Q 20.75 -1.515625 21.296875 -0.09375 
L 1.609375 51.859375 
L 11.078125 51.859375 
L 21.875 21.828125 
Q 23.96875 16.109375 25.640625 9.8125 
Q 27.15625 15.875 29.25 21.625 
L 40.328125 51.859375 
L 49.125 51.859375 
L 29.390625 -0.875 
Q 26.21875 -9.421875 24.46875 -12.640625 
Q 22.125 -17 19.09375 -19.015625 
Q 16.0625 -21.046875 11.859375 -21.046875 
Q 9.328125 -21.046875 6.203125 -19.96875 
z
" id="ArialMT-121"/>
      </defs>
      <use xlink:href="#ArialMT-80"/>
      <use x="66.699219" xlink:href="#ArialMT-114"/>
      <use x="100" xlink:href="#ArialMT-111"/>
      <use x="155.615234" xlink:href="#ArialMT-98"/>
      <use x="211.230469" xlink:href="#ArialMT-97"/>
      <use x="266.845703" xlink:href="#ArialMT-98"/>
      <use x="322.460938" xlink:href="#ArialMT-105"/>
      <use x="344.677734" xlink:href="#ArialMT-108"/>
      <use x="366.894531" xlink:href="#ArialMT-105"/>
      <use x="389.111328" xlink:href="#ArialMT-116"/>
      <use x="416.894531" xlink:href="#ArialMT-121"/>
     </g>
    </g>
   </g>
   <g id="PolyCollection_1">
    <defs>
     <path d="M 46.923438 -36.490625 
L 46.923438 -46.964933 
L 47.342461 -47.06637 
L 47.761484 -47.168765 
L 48.180508 -47.27211 
L 48.599531 -47.376408 
L 49.018554 -47.481676 
L 49.437578 -47.58793 
L 49.856601 -47.695158 
L 50.275625 -47.803384 
L 50.694648 -47.912612 
L 51.113671 -48.022851 
L 51.532695 -48.13411 
L 51.951718 -48.24639 
L 52.370741 -48.359715 
L 52.789765 -48.47408 
L 53.208788 -48.589496 
L 53.627822 -48.705973 
L 54.046845 -48.823528 
L 54.465868 -48.942154 
L 54.884892 -49.061873 
L 55.303915 -49.182684 
L 55.722938 -49.304606 
L 56.141962 -49.427644 
L 56.560985 -49.551802 
L 56.980009 -49.6771 
L 57.399032 -49.803537 
L 57.818055 -49.931122 
L 58.237079 -50.059872 
L 58.656102 -50.18979 
L 59.075125 -50.320891 
L 59.494149 -50.453182 
L 59.913172 -50.58667 
L 60.332196 -50.721367 
L 60.751219 -50.85729 
L 61.170242 -50.994427 
L 61.589266 -51.132811 
L 62.008289 -51.272438 
L 62.427313 -51.413325 
L 62.846336 -51.555475 
L 63.265359 -51.698907 
L 63.684393 -51.843628 
L 64.103416 -51.989641 
L 64.522439 -52.13696 
L 64.941463 -52.285598 
L 65.360486 -52.435556 
L 65.77951 -52.586861 
L 66.198533 -52.739508 
L 66.617556 -52.893518 
L 67.03658 -53.048892 
L 67.455603 -53.205642 
L 67.874626 -53.363788 
L 68.29365 -53.523324 
L 68.712673 -53.684279 
L 69.131697 -53.846647 
L 69.55072 -54.010448 
L 69.969743 -54.175694 
L 70.388767 -54.342387 
L 70.80779 -54.510549 
L 71.226813 -54.680174 
L 71.645837 -54.85129 
L 72.06486 -55.023901 
L 72.483884 -55.198019 
L 72.902907 -55.373655 
L 73.32193 -55.550815 
L 73.740964 -55.729519 
L 74.159987 -55.909767 
L 74.579011 -56.09158 
L 74.998034 -56.274956 
L 75.417057 -56.459921 
L 75.836081 -56.646475 
L 76.255104 -56.834632 
L 76.674127 -57.02441 
L 77.093151 -57.215821 
L 77.512174 -57.408856 
L 77.931198 -57.603548 
L 78.350221 -57.799899 
L 78.769244 -57.997922 
L 79.188268 -58.19762 
L 79.607291 -58.399016 
L 80.026314 -58.602123 
L 80.445338 -58.806952 
L 80.864361 -59.013496 
L 81.283385 -59.221778 
L 81.702408 -59.431824 
L 82.121431 -59.643621 
L 82.540455 -59.857196 
L 82.959478 -60.07255 
L 83.378501 -60.289696 
L 83.797535 -60.508664 
L 84.216558 -60.729443 
L 84.635582 -60.952043 
L 85.054605 -61.176499 
L 85.473628 -61.402799 
L 85.892652 -61.630959 
L 86.311675 -61.86099 
L 86.730699 -62.092919 
L 87.149722 -62.326735 
L 87.568745 -62.562462 
L 87.987769 -62.800112 
L 88.406792 -63.039692 
L 88.825815 -63.281206 
L 89.244839 -63.524676 
L 89.663862 -63.770109 
L 90.082886 -64.017522 
L 90.501909 -64.266915 
L 90.920932 -64.518311 
L 91.339956 -64.771715 
L 91.758979 -65.027136 
L 92.178002 -65.284592 
L 92.597026 -65.544091 
L 93.016049 -65.805636 
L 93.435073 -66.069239 
L 93.854096 -66.334913 
L 94.273119 -66.602672 
L 94.692143 -66.87253 
L 95.111166 -67.144484 
L 95.530189 -67.418564 
L 95.949213 -67.694751 
L 96.368236 -67.97309 
L 96.78726 -68.253578 
L 97.206293 -68.536205 
L 97.625316 -68.821016 
L 98.04434 -69.107986 
L 98.463363 -69.397141 
L 98.882387 -69.688496 
L 99.30141 -69.982064 
L 99.720433 -70.27784 
L 100.139457 -70.575838 
L 100.55848 -70.876071 
L 100.977503 -71.178554 
L 101.396527 -71.483278 
L 101.81555 -71.790259 
L 102.234574 -72.099508 
L 102.653597 -72.411039 
L 103.07262 -72.724863 
L 103.491644 -73.040976 
L 103.910667 -73.359388 
L 104.32969 -73.680134 
L 104.748714 -74.003164 
L 105.167737 -74.328553 
L 105.586761 -74.656252 
L 106.005784 -74.986316 
L 106.424807 -75.318713 
L 106.843831 -75.653477 
L 107.262864 -75.99061 
L 107.681887 -76.33012 
L 108.100911 -76.671998 
L 108.519934 -77.016244 
L 108.938958 -77.362894 
L 109.357981 -77.711961 
L 109.777004 -78.063396 
L 110.196028 -78.417265 
L 110.615051 -78.773538 
L 111.034075 -79.132232 
L 111.453098 -79.493356 
L 111.872121 -79.856893 
L 112.291145 -80.222881 
L 112.710168 -80.591304 
L 113.129191 -80.962153 
L 113.548215 -81.335459 
L 113.967238 -81.711225 
L 114.386262 -82.089426 
L 114.805285 -82.47011 
L 115.224308 -82.853224 
L 115.643332 -83.238812 
L 116.062355 -83.626865 
L 116.481378 -84.017371 
L 116.900402 -84.410356 
L 117.319435 -84.805819 
L 117.738459 -85.203747 
L 118.157482 -85.604132 
L 118.576505 -86.007 
L 118.995529 -86.412347 
L 119.414552 -86.820142 
L 119.833575 -87.230424 
L 120.252599 -87.643149 
L 120.671622 -88.05837 
L 121.090646 -88.476044 
L 121.509669 -88.896201 
L 121.928692 -89.318797 
L 122.347716 -89.743862 
L 122.766739 -90.171371 
L 123.185763 -90.601337 
L 123.604786 -91.033754 
L 124.023809 -91.468633 
L 124.442833 -91.90592 
L 124.861856 -92.345676 
L 125.280879 -92.787845 
L 125.699903 -93.232435 
L 126.118926 -93.679441 
L 126.53795 -94.128843 
L 126.956973 -94.58067 
L 127.376006 -95.034883 
L 127.79503 -95.491473 
L 128.214053 -95.950467 
L 128.633076 -96.411802 
L 129.0521 -96.875505 
L 129.471123 -97.341582 
L 129.890147 -97.809968 
L 130.30917 -98.280688 
L 130.728193 -98.753719 
L 131.147217 -99.229086 
L 131.56624 -99.706694 
L 131.985263 -100.186604 
L 132.404287 -100.668807 
L 132.82331 -101.153214 
L 132.82331 -36.490625 
L 132.82331 -36.490625 
L 132.404287 -36.490625 
L 131.985263 -36.490625 
L 131.56624 -36.490625 
L 131.147217 -36.490625 
L 130.728193 -36.490625 
L 130.30917 -36.490625 
L 129.890147 -36.490625 
L 129.471123 -36.490625 
L 129.0521 -36.490625 
L 128.633076 -36.490625 
L 128.214053 -36.490625 
L 127.79503 -36.490625 
L 127.376006 -36.490625 
L 126.956973 -36.490625 
L 126.53795 -36.490625 
L 126.118926 -36.490625 
L 125.699903 -36.490625 
L 125.280879 -36.490625 
L 124.861856 -36.490625 
L 124.442833 -36.490625 
L 124.023809 -36.490625 
L 123.604786 -36.490625 
L 123.185763 -36.490625 
L 122.766739 -36.490625 
L 122.347716 -36.490625 
L 121.928692 -36.490625 
L 121.509669 -36.490625 
L 121.090646 -36.490625 
L 120.671622 -36.490625 
L 120.252599 -36.490625 
L 119.833575 -36.490625 
L 119.414552 -36.490625 
L 118.995529 -36.490625 
L 118.576505 -36.490625 
L 118.157482 -36.490625 
L 117.738459 -36.490625 
L 117.319435 -36.490625 
L 116.900402 -36.490625 
L 116.481378 -36.490625 
L 116.062355 -36.490625 
L 115.643332 -36.490625 
L 115.224308 -36.490625 
L 114.805285 -36.490625 
L 114.386262 -36.490625 
L 113.967238 -36.490625 
L 113.548215 -36.490625 
L 113.129191 -36.490625 
L 112.710168 -36.490625 
L 112.291145 -36.490625 
L 111.872121 -36.490625 
L 111.453098 -36.490625 
L 111.034075 -36.490625 
L 110.615051 -36.490625 
L 110.196028 -36.490625 
L 109.777004 -36.490625 
L 109.357981 -36.490625 
L 108.938958 -36.490625 
L 108.519934 -36.490625 
L 108.100911 -36.490625 
L 107.681887 -36.490625 
L 107.262864 -36.490625 
L 106.843831 -36.490625 
L 106.424807 -36.490625 
L 106.005784 -36.490625 
L 105.586761 -36.490625 
L 105.167737 -36.490625 
L 104.748714 -36.490625 
L 104.32969 -36.490625 
L 103.910667 -36.490625 
L 103.491644 -36.490625 
L 103.07262 -36.490625 
L 102.653597 -36.490625 
L 102.234574 -36.490625 
L 101.81555 -36.490625 
L 101.396527 -36.490625 
L 100.977503 -36.490625 
L 100.55848 -36.490625 
L 100.139457 -36.490625 
L 99.720433 -36.490625 
L 99.30141 -36.490625 
L 98.882387 -36.490625 
L 98.463363 -36.490625 
L 98.04434 -36.490625 
L 97.625316 -36.490625 
L 97.206293 -36.490625 
L 96.78726 -36.490625 
L 96.368236 -36.490625 
L 95.949213 -36.490625 
L 95.530189 -36.490625 
L 95.111166 -36.490625 
L 94.692143 -36.490625 
L 94.273119 -36.490625 
L 93.854096 -36.490625 
L 93.435073 -36.490625 
L 93.016049 -36.490625 
L 92.597026 -36.490625 
L 92.178002 -36.490625 
L 91.758979 -36.490625 
L 91.339956 -36.490625 
L 90.920932 -36.490625 
L 90.501909 -36.490625 
L 90.082886 -36.490625 
L 89.663862 -36.490625 
L 89.244839 -36.490625 
L 88.825815 -36.490625 
L 88.406792 -36.490625 
L 87.987769 -36.490625 
L 87.568745 -36.490625 
L 87.149722 -36.490625 
L 86.730699 -36.490625 
L 86.311675 -36.490625 
L 85.892652 -36.490625 
L 85.473628 -36.490625 
L 85.054605 -36.490625 
L 84.635582 -36.490625 
L 84.216558 -36.490625 
L 83.797535 -36.490625 
L 83.378501 -36.490625 
L 82.959478 -36.490625 
L 82.540455 -36.490625 
L 82.121431 -36.490625 
L 81.702408 -36.490625 
L 81.283385 -36.490625 
L 80.864361 -36.490625 
L 80.445338 -36.490625 
L 80.026314 -36.490625 
L 79.607291 -36.490625 
L 79.188268 -36.490625 
L 78.769244 -36.490625 
L 78.350221 -36.490625 
L 77.931198 -36.490625 
L 77.512174 -36.490625 
L 77.093151 -36.490625 
L 76.674127 -36.490625 
L 76.255104 -36.490625 
L 75.836081 -36.490625 
L 75.417057 -36.490625 
L 74.998034 -36.490625 
L 74.579011 -36.490625 
L 74.159987 -36.490625 
L 73.740964 -36.490625 
L 73.32193 -36.490625 
L 72.902907 -36.490625 
L 72.483884 -36.490625 
L 72.06486 -36.490625 
L 71.645837 -36.490625 
L 71.226813 -36.490625 
L 70.80779 -36.490625 
L 70.388767 -36.490625 
L 69.969743 -36.490625 
L 69.55072 -36.490625 
L 69.131697 -36.490625 
L 68.712673 -36.490625 
L 68.29365 -36.490625 
L 67.874626 -36.490625 
L 67.455603 -36.490625 
L 67.03658 -36.490625 
L 66.617556 -36.490625 
L 66.198533 -36.490625 
L 65.77951 -36.490625 
L 65.360486 -36.490625 
L 64.941463 -36.490625 
L 64.522439 -36.490625 
L 64.103416 -36.490625 
L 63.684393 -36.490625 
L 63.265359 -36.490625 
L 62.846336 -36.490625 
L 62.427313 -36.490625 
L 62.008289 -36.490625 
L 61.589266 -36.490625 
L 61.170242 -36.490625 
L 60.751219 -36.490625 
L 60.332196 -36.490625 
L 59.913172 -36.490625 
L 59.494149 -36.490625 
L 59.075125 -36.490625 
L 58.656102 -36.490625 
L 58.237079 -36.490625 
L 57.818055 -36.490625 
L 57.399032 -36.490625 
L 56.980009 -36.490625 
L 56.560985 -36.490625 
L 56.141962 -36.490625 
L 55.722938 -36.490625 
L 55.303915 -36.490625 
L 54.884892 -36.490625 
L 54.465868 -36.490625 
L 54.046845 -36.490625 
L 53.627822 -36.490625 
L 53.208788 -36.490625 
L 52.789765 -36.490625 
L 52.370741 -36.490625 
L 51.951718 -36.490625 
L 51.532695 -36.490625 
L 51.113671 -36.490625 
L 50.694648 -36.490625 
L 50.275625 -36.490625 
L 49.856601 -36.490625 
L 49.437578 -36.490625 
L 49.018554 -36.490625 
L 48.599531 -36.490625 
L 48.180508 -36.490625 
L 47.761484 -36.490625 
L 47.342461 -36.490625 
L 46.923438 -36.490625 
z
" id="m2fc5abb4c7" style="stroke:#1f77b4;stroke-opacity:0.5;"/>
    </defs>
    <g clip-path="url(#p7542aabc29)">
     <use style="fill:#1f77b4;fill-opacity:0.5;stroke:#1f77b4;stroke-opacity:0.5;" x="0" xlink:href="#m2fc5abb4c7" y="221.50625"/>
    </g>
   </g>
   <g id="PolyCollection_2">
    <defs>
     <path d="M 133.242334 -36.490625 
L 133.242334 -101.639875 
L 133.661362 -102.128781 
L 134.080385 -102.619869 
L 134.499409 -103.113139 
L 134.918432 -103.608584 
L 135.337456 -104.106167 
L 135.756479 -104.60591 
L 136.175502 -105.107748 
L 136.594526 -105.611728 
L 137.013554 -106.117755 
L 137.432572 -106.625844 
L 137.851596 -107.135962 
L 138.270619 -107.64809 
L 138.689643 -108.162219 
L 139.108666 -108.678345 
L 139.527689 -109.196385 
L 139.946713 -109.71636 
L 140.365741 -110.238226 
L 140.784764 -110.761969 
L 141.203788 -111.28756 
L 141.622811 -111.814953 
L 142.041835 -112.344157 
L 142.460858 -112.875111 
L 142.879881 -113.407815 
L 143.298905 -113.942207 
L 143.717933 -114.478277 
L 144.136956 -115.016027 
L 144.55598 -115.555341 
L 144.975003 -116.096271 
L 145.394027 -116.638722 
L 145.81305 -117.182701 
L 146.232073 -117.728174 
L 146.651097 -118.275078 
L 147.070125 -118.823414 
L 147.489144 -119.373102 
L 147.908167 -119.924133 
L 148.32719 -120.476445 
L 148.746214 -121.030056 
L 149.165237 -121.58486 
L 149.58426 -122.140857 
L 150.003284 -122.698003 
L 150.422312 -123.25628 
L 150.841336 -123.815573 
L 151.260359 -124.3759 
L 151.679382 -124.937181 
L 152.098406 -125.499399 
L 152.517429 -126.062518 
L 152.936452 -126.626477 
L 153.355476 -127.191214 
L 153.774504 -127.75671 
L 154.193523 -128.322896 
L 154.612546 -128.889709 
L 155.031569 -129.457167 
L 155.450593 -130.025146 
L 155.869616 -130.593656 
L 156.288639 -131.16259 
L 156.707663 -131.731921 
L 157.126691 -132.301632 
L 157.545715 -132.871609 
L 157.964738 -133.441842 
L 158.383761 -134.012251 
L 158.802785 -134.582776 
L 159.221808 -135.153388 
L 159.640832 -135.724028 
L 160.059855 -136.294614 
L 160.478883 -136.865103 
L 160.897907 -137.435442 
L 161.31693 -138.00556 
L 161.735953 -138.575412 
L 162.154977 -139.144894 
L 162.574 -139.714013 
L 162.993024 -140.282664 
L 163.412047 -140.850803 
L 163.831075 -141.418349 
L 164.250094 -141.985268 
L 164.669117 -142.551472 
L 165.08814 -143.116871 
L 165.507164 -143.681448 
L 165.926187 -144.245106 
L 166.345211 -144.80781 
L 166.764234 -145.369481 
L 167.183262 -145.930029 
L 167.602286 -146.489419 
L 168.021309 -147.047545 
L 168.440332 -147.604382 
L 168.440332 -36.490625 
L 168.440332 -36.490625 
L 168.021309 -36.490625 
L 167.602286 -36.490625 
L 167.183262 -36.490625 
L 166.764234 -36.490625 
L 166.345211 -36.490625 
L 165.926187 -36.490625 
L 165.507164 -36.490625 
L 165.08814 -36.490625 
L 164.669117 -36.490625 
L 164.250094 -36.490625 
L 163.831075 -36.490625 
L 163.412047 -36.490625 
L 162.993024 -36.490625 
L 162.574 -36.490625 
L 162.154977 -36.490625 
L 161.735953 -36.490625 
L 161.31693 -36.490625 
L 160.897907 -36.490625 
L 160.478883 -36.490625 
L 160.059855 -36.490625 
L 159.640832 -36.490625 
L 159.221808 -36.490625 
L 158.802785 -36.490625 
L 158.383761 -36.490625 
L 157.964738 -36.490625 
L 157.545715 -36.490625 
L 157.126691 -36.490625 
L 156.707663 -36.490625 
L 156.288639 -36.490625 
L 155.869616 -36.490625 
L 155.450593 -36.490625 
L 155.031569 -36.490625 
L 154.612546 -36.490625 
L 154.193523 -36.490625 
L 153.774504 -36.490625 
L 153.355476 -36.490625 
L 152.936452 -36.490625 
L 152.517429 -36.490625 
L 152.098406 -36.490625 
L 151.679382 -36.490625 
L 151.260359 -36.490625 
L 150.841336 -36.490625 
L 150.422312 -36.490625 
L 150.003284 -36.490625 
L 149.58426 -36.490625 
L 149.165237 -36.490625 
L 148.746214 -36.490625 
L 148.32719 -36.490625 
L 147.908167 -36.490625 
L 147.489144 -36.490625 
L 147.070125 -36.490625 
L 146.651097 -36.490625 
L 146.232073 -36.490625 
L 145.81305 -36.490625 
L 145.394027 -36.490625 
L 144.975003 -36.490625 
L 144.55598 -36.490625 
L 144.136956 -36.490625 
L 143.717933 -36.490625 
L 143.298905 -36.490625 
L 142.879881 -36.490625 
L 142.460858 -36.490625 
L 142.041835 -36.490625 
L 141.622811 -36.490625 
L 141.203788 -36.490625 
L 140.784764 -36.490625 
L 140.365741 -36.490625 
L 139.946713 -36.490625 
L 139.527689 -36.490625 
L 139.108666 -36.490625 
L 138.689643 -36.490625 
L 138.270619 -36.490625 
L 137.851596 -36.490625 
L 137.432572 -36.490625 
L 137.013554 -36.490625 
L 136.594526 -36.490625 
L 136.175502 -36.490625 
L 135.756479 -36.490625 
L 135.337456 -36.490625 
L 134.918432 -36.490625 
L 134.499409 -36.490625 
L 134.080385 -36.490625 
L 133.661362 -36.490625 
L 133.242334 -36.490625 
z
" id="m826403019f" style="stroke:#ff7f0e;stroke-opacity:0.5;"/>
    </defs>
    <g clip-path="url(#p7542aabc29)">
     <use style="fill:#ff7f0e;fill-opacity:0.5;stroke:#ff7f0e;stroke-opacity:0.5;" x="0" xlink:href="#m826403019f" y="221.50625"/>
    </g>
   </g>
   <g id="PolyCollection_3">
    <defs>
     <path d="M 168.859356 -36.490625 
L 168.859356 -148.159805 
L 169.278379 -148.713813 
L 169.697403 -149.266294 
L 170.116426 -149.817165 
L 170.535454 -150.366402 
L 170.954478 -150.91389 
L 171.373501 -151.459575 
L 171.792525 -152.003368 
L 172.211548 -152.545253 
L 172.630574 -153.085088 
L 173.049597 -153.622838 
L 173.468621 -154.158396 
L 173.887644 -154.691736 
L 174.306667 -155.222761 
L 174.725691 -155.751374 
L 175.144714 -156.277529 
L 175.563737 -156.801167 
L 175.982763 -157.32218 
L 176.401787 -157.840489 
L 176.82081 -158.35605 
L 177.239833 -158.868757 
L 177.658857 -159.378574 
L 178.07788 -159.885378 
L 178.496904 -160.389124 
L 178.915927 -160.889734 
L 179.334953 -161.387118 
L 179.753976 -161.881179 
L 180.173 -162.371918 
L 180.592023 -162.859211 
L 181.011046 -163.342969 
L 181.43007 -163.823122 
L 181.849093 -164.299607 
L 182.268116 -164.772337 
L 182.687142 -165.241294 
L 183.106166 -165.706328 
L 183.525189 -166.167376 
L 183.944213 -166.624394 
L 184.363236 -167.077268 
L 184.782259 -167.525963 
L 185.201283 -167.970407 
L 185.620306 -168.410477 
L 186.039332 -168.846147 
L 186.458355 -169.277327 
L 186.877379 -169.703948 
L 187.296402 -170.125921 
L 187.715428 -170.543201 
L 188.134451 -170.955684 
L 188.553475 -171.36335 
L 188.972498 -171.766094 
L 189.391524 -172.16382 
L 189.810547 -172.556526 
L 190.229571 -172.944098 
L 190.648594 -173.326474 
L 191.067617 -173.703575 
L 191.486641 -174.075382 
L 191.905664 -174.441782 
L 192.324688 -174.802694 
L 192.743713 -175.158127 
L 192.743713 -36.490625 
L 192.743713 -36.490625 
L 192.324688 -36.490625 
L 191.905664 -36.490625 
L 191.486641 -36.490625 
L 191.067617 -36.490625 
L 190.648594 -36.490625 
L 190.229571 -36.490625 
L 189.810547 -36.490625 
L 189.391524 -36.490625 
L 188.972498 -36.490625 
L 188.553475 -36.490625 
L 188.134451 -36.490625 
L 187.715428 -36.490625 
L 187.296402 -36.490625 
L 186.877379 -36.490625 
L 186.458355 -36.490625 
L 186.039332 -36.490625 
L 185.620306 -36.490625 
L 185.201283 -36.490625 
L 184.782259 -36.490625 
L 184.363236 -36.490625 
L 183.944213 -36.490625 
L 183.525189 -36.490625 
L 183.106166 -36.490625 
L 182.687142 -36.490625 
L 182.268116 -36.490625 
L 181.849093 -36.490625 
L 181.43007 -36.490625 
L 181.011046 -36.490625 
L 180.592023 -36.490625 
L 180.173 -36.490625 
L 179.753976 -36.490625 
L 179.334953 -36.490625 
L 178.915927 -36.490625 
L 178.496904 -36.490625 
L 178.07788 -36.490625 
L 177.658857 -36.490625 
L 177.239833 -36.490625 
L 176.82081 -36.490625 
L 176.401787 -36.490625 
L 175.982763 -36.490625 
L 175.563737 -36.490625 
L 175.144714 -36.490625 
L 174.725691 -36.490625 
L 174.306667 -36.490625 
L 173.887644 -36.490625 
L 173.468621 -36.490625 
L 173.049597 -36.490625 
L 172.630574 -36.490625 
L 172.211548 -36.490625 
L 171.792525 -36.490625 
L 171.373501 -36.490625 
L 170.954478 -36.490625 
L 170.535454 -36.490625 
L 170.116426 -36.490625 
L 169.697403 -36.490625 
L 169.278379 -36.490625 
L 168.859356 -36.490625 
z
" id="md89c991bd6" style="stroke:#2ca02c;stroke-opacity:0.5;"/>
    </defs>
    <g clip-path="url(#p7542aabc29)">
     <use style="fill:#2ca02c;fill-opacity:0.5;stroke:#2ca02c;stroke-opacity:0.5;" x="0" xlink:href="#md89c991bd6" y="221.50625"/>
    </g>
   </g>
   <g id="PolyCollection_4">
    <defs>
     <path d="M 193.162737 -36.490625 
L 193.162737 -175.507932 
L 193.58176 -175.852098 
L 194.000784 -176.190557 
L 194.419808 -176.523236 
L 194.838832 -176.850092 
L 195.257856 -177.17101 
L 195.67688 -177.486007 
L 196.095903 -177.795004 
L 196.514928 -178.097895 
L 196.933951 -178.394654 
L 197.352974 -178.685253 
L 197.771998 -178.969614 
L 198.191021 -179.247675 
L 198.610046 -179.519399 
L 199.029069 -179.784726 
L 199.448093 -180.043602 
L 199.867117 -180.295983 
L 200.286141 -180.541852 
L 200.705164 -180.781102 
L 201.124189 -181.013707 
L 201.543212 -181.239641 
L 201.962237 -181.45885 
L 202.38126 -181.67129 
L 202.800283 -181.876943 
L 203.219308 -182.075731 
L 203.638331 -182.267626 
L 204.057355 -182.45261 
L 204.476379 -182.630641 
L 204.895403 -182.801673 
L 205.314426 -182.965662 
L 205.73345 -183.122599 
L 206.152474 -183.272468 
L 206.571497 -183.415178 
L 206.990521 -183.550766 
L 207.409545 -183.679171 
L 207.828569 -183.800373 
L 208.247593 -183.914356 
L 208.666616 -184.021084 
L 209.08564 -184.120557 
L 209.504664 -184.212732 
L 209.923688 -184.297616 
L 210.342712 -184.375148 
L 210.761735 -184.445363 
L 211.180759 -184.508218 
L 211.599783 -184.563703 
L 212.018807 -184.6118 
L 212.43783 -184.652537 
L 212.856854 -184.685868 
L 213.275878 -184.711821 
L 213.694902 -184.730343 
L 214.113925 -184.741459 
L 214.113925 -36.490625 
L 214.113925 -36.490625 
L 213.694902 -36.490625 
L 213.275878 -36.490625 
L 212.856854 -36.490625 
L 212.43783 -36.490625 
L 212.018807 -36.490625 
L 211.599783 -36.490625 
L 211.180759 -36.490625 
L 210.761735 -36.490625 
L 210.342712 -36.490625 
L 209.923688 -36.490625 
L 209.504664 -36.490625 
L 209.08564 -36.490625 
L 208.666616 -36.490625 
L 208.247593 -36.490625 
L 207.828569 -36.490625 
L 207.409545 -36.490625 
L 206.990521 -36.490625 
L 206.571497 -36.490625 
L 206.152474 -36.490625 
L 205.73345 -36.490625 
L 205.314426 -36.490625 
L 204.895403 -36.490625 
L 204.476379 -36.490625 
L 204.057355 -36.490625 
L 203.638331 -36.490625 
L 203.219308 -36.490625 
L 202.800283 -36.490625 
L 202.38126 -36.490625 
L 201.962237 -36.490625 
L 201.543212 -36.490625 
L 201.124189 -36.490625 
L 200.705164 -36.490625 
L 200.286141 -36.490625 
L 199.867117 -36.490625 
L 199.448093 -36.490625 
L 199.029069 -36.490625 
L 198.610046 -36.490625 
L 198.191021 -36.490625 
L 197.771998 -36.490625 
L 197.352974 -36.490625 
L 196.933951 -36.490625 
L 196.514928 -36.490625 
L 196.095903 -36.490625 
L 195.67688 -36.490625 
L 195.257856 -36.490625 
L 194.838832 -36.490625 
L 194.419808 -36.490625 
L 194.000784 -36.490625 
L 193.58176 -36.490625 
L 193.162737 -36.490625 
z
" id="mc75193149c" style="stroke:#d62728;stroke-opacity:0.5;"/>
    </defs>
    <g clip-path="url(#p7542aabc29)">
     <use style="fill:#d62728;fill-opacity:0.5;stroke:#d62728;stroke-opacity:0.5;" x="0" xlink:href="#mc75193149c" y="221.50625"/>
    </g>
   </g>
   <g id="PolyCollection_5">
    <defs>
     <path d="M 214.532949 -36.490625 
L 214.532949 -184.74517 
L 214.951973 -184.741459 
L 215.370997 -184.730343 
L 215.79002 -184.711821 
L 216.209044 -184.685886 
L 216.628068 -184.652554 
L 217.047092 -184.611835 
L 217.466116 -184.563703 
L 217.885139 -184.508218 
L 218.304163 -184.445363 
L 218.723187 -184.375148 
L 219.142211 -184.297598 
L 219.561234 -184.212732 
L 219.980258 -184.120557 
L 220.399282 -184.021084 
L 220.818306 -183.914356 
L 221.23733 -183.800391 
L 221.656354 -183.679171 
L 222.075377 -183.550766 
L 222.494401 -183.415178 
L 222.913425 -183.27245 
L 223.332448 -183.122599 
L 223.751472 -182.965662 
L 224.170496 -182.801655 
L 224.58952 -182.630641 
L 225.008544 -182.45261 
L 225.427567 -182.267626 
L 225.84659 -182.075731 
L 226.265615 -181.876943 
L 226.684638 -181.67129 
L 227.103662 -181.45885 
L 227.522686 -181.239641 
L 227.94171 -181.013707 
L 228.360733 -180.781102 
L 228.779758 -180.541835 
L 229.198781 -180.296001 
L 229.617805 -180.043602 
L 230.036829 -179.784726 
L 230.455853 -179.519399 
L 230.874876 -179.247675 
L 231.293901 -178.969614 
L 231.712924 -178.685271 
L 232.131949 -178.394671 
L 232.550972 -178.097895 
L 232.969995 -177.794986 
L 233.38902 -177.486007 
L 233.808043 -177.171027 
L 234.227067 -176.850074 
L 234.64609 -176.523236 
L 235.065114 -176.190557 
L 235.484138 -175.852098 
L 235.903162 -175.507932 
L 235.903162 -36.490625 
L 235.903162 -36.490625 
L 235.484138 -36.490625 
L 235.065114 -36.490625 
L 234.64609 -36.490625 
L 234.227067 -36.490625 
L 233.808043 -36.490625 
L 233.38902 -36.490625 
L 232.969995 -36.490625 
L 232.550972 -36.490625 
L 232.131949 -36.490625 
L 231.712924 -36.490625 
L 231.293901 -36.490625 
L 230.874876 -36.490625 
L 230.455853 -36.490625 
L 230.036829 -36.490625 
L 229.617805 -36.490625 
L 229.198781 -36.490625 
L 228.779758 -36.490625 
L 228.360733 -36.490625 
L 227.94171 -36.490625 
L 227.522686 -36.490625 
L 227.103662 -36.490625 
L 226.684638 -36.490625 
L 226.265615 -36.490625 
L 225.84659 -36.490625 
L 225.427567 -36.490625 
L 225.008544 -36.490625 
L 224.58952 -36.490625 
L 224.170496 -36.490625 
L 223.751472 -36.490625 
L 223.332448 -36.490625 
L 222.913425 -36.490625 
L 222.494401 -36.490625 
L 222.075377 -36.490625 
L 221.656354 -36.490625 
L 221.23733 -36.490625 
L 220.818306 -36.490625 
L 220.399282 -36.490625 
L 219.980258 -36.490625 
L 219.561234 -36.490625 
L 219.142211 -36.490625 
L 218.723187 -36.490625 
L 218.304163 -36.490625 
L 217.885139 -36.490625 
L 217.466116 -36.490625 
L 217.047092 -36.490625 
L 216.628068 -36.490625 
L 216.209044 -36.490625 
L 215.79002 -36.490625 
L 215.370997 -36.490625 
L 214.951973 -36.490625 
L 214.532949 -36.490625 
z
" id="m0c563e6b78" style="stroke:#9467bd;stroke-opacity:0.5;"/>
    </defs>
    <g clip-path="url(#p7542aabc29)">
     <use style="fill:#9467bd;fill-opacity:0.5;stroke:#9467bd;stroke-opacity:0.5;" x="0" xlink:href="#m0c563e6b78" y="221.50625"/>
    </g>
   </g>
   <g id="PolyCollection_6">
    <defs>
     <path d="M 236.322185 -36.490625 
L 236.322185 -175.158109 
L 236.741208 -174.802694 
L 237.160232 -174.441764 
L 237.579258 -174.075382 
L 237.998281 -173.703583 
L 238.417304 -173.326474 
L 238.836328 -172.944098 
L 239.255351 -172.556526 
L 239.674377 -172.163855 
L 240.0934 -171.766086 
L 240.512424 -171.36335 
L 240.931447 -170.955701 
L 241.35047 -170.543193 
L 241.769494 -170.125921 
L 242.188517 -169.703939 
L 242.607541 -169.277318 
L 243.026566 -168.846147 
L 243.44559 -168.410477 
L 243.864613 -167.97039 
L 244.283637 -167.525963 
L 244.702662 -167.077268 
L 245.121686 -166.624385 
L 245.540709 -166.167376 
L 245.959733 -165.706328 
L 246.378759 -165.241294 
L 246.797782 -164.772373 
L 247.216805 -164.299607 
L 247.635829 -163.823122 
L 248.054852 -163.342969 
L 248.473875 -162.859211 
L 248.892899 -162.371927 
L 249.311922 -161.881206 
L 249.730948 -161.387118 
L 250.149971 -160.889725 
L 250.568995 -160.389106 
L 250.988018 -159.885378 
L 251.407042 -159.378565 
L 251.826065 -158.868774 
L 252.245088 -158.356032 
L 252.664112 -157.840489 
L 253.083138 -157.322171 
L 253.502161 -156.801158 
L 253.921184 -156.277529 
L 254.340208 -155.751374 
L 254.759231 -155.222735 
L 255.178254 -154.691736 
L 255.597278 -154.158396 
L 256.016301 -153.62282 
L 256.435327 -153.08508 
L 256.85435 -152.545236 
L 257.273374 -152.003377 
L 257.692397 -151.459575 
L 258.111421 -150.91389 
L 258.530444 -150.366402 
L 258.949467 -149.817174 
L 259.368491 -149.266294 
L 259.787514 -148.713813 
L 260.206538 -148.159822 
L 260.206538 -36.490625 
L 260.206538 -36.490625 
L 259.787514 -36.490625 
L 259.368491 -36.490625 
L 258.949467 -36.490625 
L 258.530444 -36.490625 
L 258.111421 -36.490625 
L 257.692397 -36.490625 
L 257.273374 -36.490625 
L 256.85435 -36.490625 
L 256.435327 -36.490625 
L 256.016301 -36.490625 
L 255.597278 -36.490625 
L 255.178254 -36.490625 
L 254.759231 -36.490625 
L 254.340208 -36.490625 
L 253.921184 -36.490625 
L 253.502161 -36.490625 
L 253.083138 -36.490625 
L 252.664112 -36.490625 
L 252.245088 -36.490625 
L 251.826065 -36.490625 
L 251.407042 -36.490625 
L 250.988018 -36.490625 
L 250.568995 -36.490625 
L 250.149971 -36.490625 
L 249.730948 -36.490625 
L 249.311922 -36.490625 
L 248.892899 -36.490625 
L 248.473875 -36.490625 
L 248.054852 -36.490625 
L 247.635829 -36.490625 
L 247.216805 -36.490625 
L 246.797782 -36.490625 
L 246.378759 -36.490625 
L 245.959733 -36.490625 
L 245.540709 -36.490625 
L 245.121686 -36.490625 
L 244.702662 -36.490625 
L 244.283637 -36.490625 
L 243.864613 -36.490625 
L 243.44559 -36.490625 
L 243.026566 -36.490625 
L 242.607541 -36.490625 
L 242.188517 -36.490625 
L 241.769494 -36.490625 
L 241.35047 -36.490625 
L 240.931447 -36.490625 
L 240.512424 -36.490625 
L 240.0934 -36.490625 
L 239.674377 -36.490625 
L 239.255351 -36.490625 
L 238.836328 -36.490625 
L 238.417304 -36.490625 
L 237.998281 -36.490625 
L 237.579258 -36.490625 
L 237.160232 -36.490625 
L 236.741208 -36.490625 
L 236.322185 -36.490625 
z
" id="mddddc00f3a" style="stroke:#8c564b;stroke-opacity:0.5;"/>
    </defs>
    <g clip-path="url(#p7542aabc29)">
     <use style="fill:#8c564b;fill-opacity:0.5;stroke:#8c564b;stroke-opacity:0.5;" x="0" xlink:href="#mddddc00f3a" y="221.50625"/>
    </g>
   </g>
   <g id="PolyCollection_7">
    <defs>
     <path d="M 260.625561 -36.490625 
L 260.625561 -147.604382 
L 261.044589 -147.047537 
L 261.463613 -146.489401 
L 261.882636 -145.93002 
L 262.301659 -145.369481 
L 262.720683 -144.80781 
L 263.139706 -144.245124 
L 263.55873 -143.681448 
L 263.977753 -143.11688 
L 264.396781 -142.551454 
L 264.815805 -141.985268 
L 265.234828 -141.418367 
L 265.653851 -140.850812 
L 266.072875 -140.282682 
L 266.491898 -139.714022 
L 266.910922 -139.14492 
L 267.329945 -138.575403 
L 267.748973 -138.00556 
L 268.167992 -137.435442 
L 268.587015 -136.865112 
L 269.006038 -136.294614 
L 269.425062 -135.724028 
L 269.844085 -135.153397 
L 270.263109 -134.582784 
L 270.682132 -134.012251 
L 271.10116 -133.441842 
L 271.520184 -132.871627 
L 271.939207 -132.301632 
L 272.358231 -131.731948 
L 272.777254 -131.162598 
L 273.196277 -130.593656 
L 273.615301 -130.025164 
L 274.034324 -129.457167 
L 274.453352 -128.889726 
L 274.872376 -128.322887 
L 275.291399 -127.756701 
L 275.710423 -127.191214 
L 276.129446 -126.626468 
L 276.548469 -126.062518 
L 276.967493 -125.499399 
L 277.386516 -124.937181 
L 277.805544 -124.375882 
L 278.224563 -123.815573 
L 278.643586 -123.256271 
L 279.06261 -122.698012 
L 279.481633 -122.140884 
L 279.900656 -121.584878 
L 280.31968 -121.030056 
L 280.738703 -120.476462 
L 281.157731 -119.924124 
L 281.576755 -119.373084 
L 281.995778 -118.823396 
L 282.414802 -118.275078 
L 282.833825 -117.728165 
L 283.252848 -117.18271 
L 283.671872 -116.638722 
L 284.090895 -116.096271 
L 284.509924 -115.555341 
L 284.928942 -115.016009 
L 285.347965 -114.478295 
L 285.766989 -113.942207 
L 286.186012 -113.407815 
L 286.605035 -112.875111 
L 287.024059 -112.344157 
L 287.443082 -111.81497 
L 287.862111 -111.287542 
L 288.281134 -110.761969 
L 288.700157 -110.238226 
L 289.119181 -109.71636 
L 289.538204 -109.196385 
L 289.957227 -108.678345 
L 290.376251 -108.162237 
L 290.795274 -107.648103 
L 291.214303 -107.135962 
L 291.633326 -106.625844 
L 292.052349 -106.117755 
L 292.471373 -105.611728 
L 292.890396 -105.107765 
L 293.309419 -104.60591 
L 293.728443 -104.106184 
L 294.147466 -103.608584 
L 294.566495 -103.113122 
L 294.985513 -102.619851 
L 295.404536 -102.128763 
L 295.82356 -101.639893 
L 295.82356 -36.490625 
L 295.82356 -36.490625 
L 295.404536 -36.490625 
L 294.985513 -36.490625 
L 294.566495 -36.490625 
L 294.147466 -36.490625 
L 293.728443 -36.490625 
L 293.309419 -36.490625 
L 292.890396 -36.490625 
L 292.471373 -36.490625 
L 292.052349 -36.490625 
L 291.633326 -36.490625 
L 291.214303 -36.490625 
L 290.795274 -36.490625 
L 290.376251 -36.490625 
L 289.957227 -36.490625 
L 289.538204 -36.490625 
L 289.119181 -36.490625 
L 288.700157 -36.490625 
L 288.281134 -36.490625 
L 287.862111 -36.490625 
L 287.443082 -36.490625 
L 287.024059 -36.490625 
L 286.605035 -36.490625 
L 286.186012 -36.490625 
L 285.766989 -36.490625 
L 285.347965 -36.490625 
L 284.928942 -36.490625 
L 284.509924 -36.490625 
L 284.090895 -36.490625 
L 283.671872 -36.490625 
L 283.252848 -36.490625 
L 282.833825 -36.490625 
L 282.414802 -36.490625 
L 281.995778 -36.490625 
L 281.576755 -36.490625 
L 281.157731 -36.490625 
L 280.738703 -36.490625 
L 280.31968 -36.490625 
L 279.900656 -36.490625 
L 279.481633 -36.490625 
L 279.06261 -36.490625 
L 278.643586 -36.490625 
L 278.224563 -36.490625 
L 277.805544 -36.490625 
L 277.386516 -36.490625 
L 276.967493 -36.490625 
L 276.548469 -36.490625 
L 276.129446 -36.490625 
L 275.710423 -36.490625 
L 275.291399 -36.490625 
L 274.872376 -36.490625 
L 274.453352 -36.490625 
L 274.034324 -36.490625 
L 273.615301 -36.490625 
L 273.196277 -36.490625 
L 272.777254 -36.490625 
L 272.358231 -36.490625 
L 271.939207 -36.490625 
L 271.520184 -36.490625 
L 271.10116 -36.490625 
L 270.682132 -36.490625 
L 270.263109 -36.490625 
L 269.844085 -36.490625 
L 269.425062 -36.490625 
L 269.006038 -36.490625 
L 268.587015 -36.490625 
L 268.167992 -36.490625 
L 267.748973 -36.490625 
L 267.329945 -36.490625 
L 266.910922 -36.490625 
L 266.491898 -36.490625 
L 266.072875 -36.490625 
L 265.653851 -36.490625 
L 265.234828 -36.490625 
L 264.815805 -36.490625 
L 264.396781 -36.490625 
L 263.977753 -36.490625 
L 263.55873 -36.490625 
L 263.139706 -36.490625 
L 262.720683 -36.490625 
L 262.301659 -36.490625 
L 261.882636 -36.490625 
L 261.463613 -36.490625 
L 261.044589 -36.490625 
L 260.625561 -36.490625 
z
" id="mae397ad0e0" style="stroke:#e377c2;stroke-opacity:0.5;"/>
    </defs>
    <g clip-path="url(#p7542aabc29)">
     <use style="fill:#e377c2;fill-opacity:0.5;stroke:#e377c2;stroke-opacity:0.5;" x="0" xlink:href="#mae397ad0e0" y="221.50625"/>
    </g>
   </g>
   <g id="PolyCollection_8">
    <defs>
     <path d="M 296.242583 -36.490625 
L 296.242583 -101.153228 
L 296.661607 -100.668807 
L 297.08063 -100.186617 
L 297.499653 -99.706707 
L 297.918682 -99.229073 
L 298.337705 -98.753736 
L 298.756728 -98.280688 
L 299.175752 -97.809968 
L 299.594775 -97.341582 
L 300.013799 -96.875523 
L 300.432822 -96.411815 
L 300.851845 -95.950467 
L 301.270869 -95.491491 
L 301.689892 -95.034896 
L 302.108915 -94.58067 
L 302.527939 -94.128856 
L 302.946962 -93.679441 
L 303.365986 -93.232435 
L 303.785009 -92.787845 
L 304.204032 -92.345676 
L 304.623056 -91.905933 
L 305.042089 -91.46862 
L 305.461112 -91.033768 
L 305.880136 -90.601346 
L 306.299159 -90.171371 
L 306.718183 -89.743849 
L 307.137206 -89.318784 
L 307.556229 -88.896188 
L 307.975253 -88.476044 
L 308.394276 -88.05837 
L 308.8133 -87.643149 
L 309.232323 -87.230415 
L 309.651346 -86.820142 
L 310.07037 -86.412334 
L 310.489393 -86.007 
L 310.908416 -85.604141 
L 311.32744 -85.203747 
L 311.746463 -84.805819 
L 312.165487 -84.410369 
L 312.58451 -84.017393 
L 313.003533 -83.626874 
L 313.422557 -83.238821 
L 313.84158 -82.853232 
L 314.260603 -82.47011 
L 314.679627 -82.089439 
L 315.09866 -81.711225 
L 315.517684 -81.335467 
L 315.936707 -80.962153 
L 316.35573 -80.591296 
L 316.774754 -80.222881 
L 317.193777 -79.856893 
L 317.6128 -79.493347 
L 318.031824 -79.132232 
L 318.450847 -78.773538 
L 318.869871 -78.417265 
L 319.288894 -78.063405 
L 319.707917 -77.711952 
L 320.126941 -77.362903 
L 320.545964 -77.016253 
L 320.964988 -76.671998 
L 321.384011 -76.330111 
L 321.803034 -75.990619 
L 322.222058 -75.653486 
L 322.641081 -75.318735 
L 323.060104 -74.986325 
L 323.479128 -74.656275 
L 323.898151 -74.328561 
L 324.317175 -74.003181 
L 324.736198 -73.680134 
L 325.155231 -73.359397 
L 325.574255 -73.040976 
L 325.993278 -72.724863 
L 326.412301 -72.411048 
L 326.831325 -72.099508 
L 327.250348 -71.790259 
L 327.669372 -71.48327 
L 328.088395 -71.178545 
L 328.507418 -70.876071 
L 328.926442 -70.575838 
L 329.345465 -70.27784 
L 329.764488 -69.982064 
L 330.183512 -69.688505 
L 330.602535 -69.39715 
L 331.021559 -69.107986 
L 331.440582 -68.82101 
L 331.859605 -68.536213 
L 332.278629 -68.253578 
L 332.697652 -67.973096 
L 333.116676 -67.694766 
L 333.535699 -67.418564 
L 333.954722 -67.144491 
L 334.373746 -66.87253 
L 334.792769 -66.602681 
L 335.211802 -66.334913 
L 335.630826 -66.069231 
L 336.049849 -65.805629 
L 336.468873 -65.544084 
L 336.887896 -65.284592 
L 337.306919 -65.027143 
L 337.725943 -64.771722 
L 338.144966 -64.518317 
L 338.563989 -64.266921 
L 338.983013 -64.017529 
L 339.402036 -63.770116 
L 339.82106 -63.524676 
L 340.240083 -63.281206 
L 340.659106 -63.039685 
L 341.07813 -62.800108 
L 341.497153 -62.562462 
L 341.916176 -62.326735 
L 342.3352 -62.092913 
L 342.754223 -61.86099 
L 343.173247 -61.630952 
L 343.59227 -61.402792 
L 344.011293 -61.176492 
L 344.430317 -60.952047 
L 344.84934 -60.729437 
L 345.268364 -60.508664 
L 345.687387 -60.289707 
L 346.10641 -60.072555 
L 346.525434 -59.857196 
L 346.944457 -59.643627 
L 347.36348 -59.431824 
L 347.782504 -59.221789 
L 348.201527 -59.0135 
L 348.620561 -58.806946 
L 349.039584 -58.602127 
L 349.458607 -58.399021 
L 349.877631 -58.197626 
L 350.296654 -57.997922 
L 350.715677 -57.799899 
L 351.134701 -57.603548 
L 351.553724 -57.408856 
L 351.972748 -57.215815 
L 352.391771 -57.02441 
L 352.810794 -56.834638 
L 353.229818 -56.646475 
L 353.648841 -56.459917 
L 354.067864 -56.274956 
L 354.486888 -56.091575 
L 354.905911 -55.909767 
L 355.324935 -55.729519 
L 355.743958 -55.550819 
L 356.162981 -55.373659 
L 356.582005 -55.198024 
L 357.001028 -55.02391 
L 357.420052 -54.851299 
L 357.839075 -54.680183 
L 358.258098 -54.510549 
L 358.677132 -54.342387 
L 359.096155 -54.175694 
L 359.515178 -54.010448 
L 359.934202 -53.846647 
L 360.353225 -53.684279 
L 360.772249 -53.523329 
L 361.191272 -53.363783 
L 361.610295 -53.205642 
L 362.029319 -53.048892 
L 362.448342 -52.893518 
L 362.867365 -52.739508 
L 363.286389 -52.586861 
L 363.705412 -52.43556 
L 364.124436 -52.285595 
L 364.543459 -52.13696 
L 364.962482 -51.989637 
L 365.381506 -51.843628 
L 365.800529 -51.698911 
L 366.219552 -51.555482 
L 366.638576 -51.413328 
L 367.057599 -51.272441 
L 367.476623 -51.132814 
L 367.895646 -50.994434 
L 368.314669 -50.85729 
L 368.733703 -50.72137 
L 369.152726 -50.58667 
L 369.57175 -50.453182 
L 369.990773 -50.320891 
L 370.409796 -50.189793 
L 370.82882 -50.059872 
L 371.247843 -49.931122 
L 371.666866 -49.803533 
L 372.08589 -49.677096 
L 372.504913 -49.551802 
L 372.923937 -49.427641 
L 373.34296 -49.304606 
L 373.761983 -49.182687 
L 374.181007 -49.061871 
L 374.60003 -48.942154 
L 375.019053 -48.823525 
L 375.438077 -48.705976 
L 375.8571 -48.589496 
L 376.276124 -48.47408 
L 376.695147 -48.359715 
L 377.11417 -48.246396 
L 377.533194 -48.134112 
L 377.952217 -48.022854 
L 378.37124 -47.912615 
L 378.790274 -47.803384 
L 379.209297 -47.695161 
L 379.628321 -47.587928 
L 380.047344 -47.481678 
L 380.466367 -47.376408 
L 380.885391 -47.272104 
L 381.304414 -47.168765 
L 381.723437 -47.066376 
L 381.723437 -36.490625 
L 381.723437 -36.490625 
L 381.304414 -36.490625 
L 380.885391 -36.490625 
L 380.466367 -36.490625 
L 380.047344 -36.490625 
L 379.628321 -36.490625 
L 379.209297 -36.490625 
L 378.790274 -36.490625 
L 378.37124 -36.490625 
L 377.952217 -36.490625 
L 377.533194 -36.490625 
L 377.11417 -36.490625 
L 376.695147 -36.490625 
L 376.276124 -36.490625 
L 375.8571 -36.490625 
L 375.438077 -36.490625 
L 375.019053 -36.490625 
L 374.60003 -36.490625 
L 374.181007 -36.490625 
L 373.761983 -36.490625 
L 373.34296 -36.490625 
L 372.923937 -36.490625 
L 372.504913 -36.490625 
L 372.08589 -36.490625 
L 371.666866 -36.490625 
L 371.247843 -36.490625 
L 370.82882 -36.490625 
L 370.409796 -36.490625 
L 369.990773 -36.490625 
L 369.57175 -36.490625 
L 369.152726 -36.490625 
L 368.733703 -36.490625 
L 368.314669 -36.490625 
L 367.895646 -36.490625 
L 367.476623 -36.490625 
L 367.057599 -36.490625 
L 366.638576 -36.490625 
L 366.219552 -36.490625 
L 365.800529 -36.490625 
L 365.381506 -36.490625 
L 364.962482 -36.490625 
L 364.543459 -36.490625 
L 364.124436 -36.490625 
L 363.705412 -36.490625 
L 363.286389 -36.490625 
L 362.867365 -36.490625 
L 362.448342 -36.490625 
L 362.029319 -36.490625 
L 361.610295 -36.490625 
L 361.191272 -36.490625 
L 360.772249 -36.490625 
L 360.353225 -36.490625 
L 359.934202 -36.490625 
L 359.515178 -36.490625 
L 359.096155 -36.490625 
L 358.677132 -36.490625 
L 358.258098 -36.490625 
L 357.839075 -36.490625 
L 357.420052 -36.490625 
L 357.001028 -36.490625 
L 356.582005 -36.490625 
L 356.162981 -36.490625 
L 355.743958 -36.490625 
L 355.324935 -36.490625 
L 354.905911 -36.490625 
L 354.486888 -36.490625 
L 354.067864 -36.490625 
L 353.648841 -36.490625 
L 353.229818 -36.490625 
L 352.810794 -36.490625 
L 352.391771 -36.490625 
L 351.972748 -36.490625 
L 351.553724 -36.490625 
L 351.134701 -36.490625 
L 350.715677 -36.490625 
L 350.296654 -36.490625 
L 349.877631 -36.490625 
L 349.458607 -36.490625 
L 349.039584 -36.490625 
L 348.620561 -36.490625 
L 348.201527 -36.490625 
L 347.782504 -36.490625 
L 347.36348 -36.490625 
L 346.944457 -36.490625 
L 346.525434 -36.490625 
L 346.10641 -36.490625 
L 345.687387 -36.490625 
L 345.268364 -36.490625 
L 344.84934 -36.490625 
L 344.430317 -36.490625 
L 344.011293 -36.490625 
L 343.59227 -36.490625 
L 343.173247 -36.490625 
L 342.754223 -36.490625 
L 342.3352 -36.490625 
L 341.916176 -36.490625 
L 341.497153 -36.490625 
L 341.07813 -36.490625 
L 340.659106 -36.490625 
L 340.240083 -36.490625 
L 339.82106 -36.490625 
L 339.402036 -36.490625 
L 338.983013 -36.490625 
L 338.563989 -36.490625 
L 338.144966 -36.490625 
L 337.725943 -36.490625 
L 337.306919 -36.490625 
L 336.887896 -36.490625 
L 336.468873 -36.490625 
L 336.049849 -36.490625 
L 335.630826 -36.490625 
L 335.211802 -36.490625 
L 334.792769 -36.490625 
L 334.373746 -36.490625 
L 333.954722 -36.490625 
L 333.535699 -36.490625 
L 333.116676 -36.490625 
L 332.697652 -36.490625 
L 332.278629 -36.490625 
L 331.859605 -36.490625 
L 331.440582 -36.490625 
L 331.021559 -36.490625 
L 330.602535 -36.490625 
L 330.183512 -36.490625 
L 329.764488 -36.490625 
L 329.345465 -36.490625 
L 328.926442 -36.490625 
L 328.507418 -36.490625 
L 328.088395 -36.490625 
L 327.669372 -36.490625 
L 327.250348 -36.490625 
L 326.831325 -36.490625 
L 326.412301 -36.490625 
L 325.993278 -36.490625 
L 325.574255 -36.490625 
L 325.155231 -36.490625 
L 324.736198 -36.490625 
L 324.317175 -36.490625 
L 323.898151 -36.490625 
L 323.479128 -36.490625 
L 323.060104 -36.490625 
L 322.641081 -36.490625 
L 322.222058 -36.490625 
L 321.803034 -36.490625 
L 321.384011 -36.490625 
L 320.964988 -36.490625 
L 320.545964 -36.490625 
L 320.126941 -36.490625 
L 319.707917 -36.490625 
L 319.288894 -36.490625 
L 318.869871 -36.490625 
L 318.450847 -36.490625 
L 318.031824 -36.490625 
L 317.6128 -36.490625 
L 317.193777 -36.490625 
L 316.774754 -36.490625 
L 316.35573 -36.490625 
L 315.936707 -36.490625 
L 315.517684 -36.490625 
L 315.09866 -36.490625 
L 314.679627 -36.490625 
L 314.260603 -36.490625 
L 313.84158 -36.490625 
L 313.422557 -36.490625 
L 313.003533 -36.490625 
L 312.58451 -36.490625 
L 312.165487 -36.490625 
L 311.746463 -36.490625 
L 311.32744 -36.490625 
L 310.908416 -36.490625 
L 310.489393 -36.490625 
L 310.07037 -36.490625 
L 309.651346 -36.490625 
L 309.232323 -36.490625 
L 308.8133 -36.490625 
L 308.394276 -36.490625 
L 307.975253 -36.490625 
L 307.556229 -36.490625 
L 307.137206 -36.490625 
L 306.718183 -36.490625 
L 306.299159 -36.490625 
L 305.880136 -36.490625 
L 305.461112 -36.490625 
L 305.042089 -36.490625 
L 304.623056 -36.490625 
L 304.204032 -36.490625 
L 303.785009 -36.490625 
L 303.365986 -36.490625 
L 302.946962 -36.490625 
L 302.527939 -36.490625 
L 302.108915 -36.490625 
L 301.689892 -36.490625 
L 301.270869 -36.490625 
L 300.851845 -36.490625 
L 300.432822 -36.490625 
L 300.013799 -36.490625 
L 299.594775 -36.490625 
L 299.175752 -36.490625 
L 298.756728 -36.490625 
L 298.337705 -36.490625 
L 297.918682 -36.490625 
L 297.499653 -36.490625 
L 297.08063 -36.490625 
L 296.661607 -36.490625 
L 296.242583 -36.490625 
z
" id="mdefb44c675" style="stroke:#7f7f7f;stroke-opacity:0.5;"/>
    </defs>
    <g clip-path="url(#p7542aabc29)">
     <use style="fill:#7f7f7f;fill-opacity:0.5;stroke:#7f7f7f;stroke-opacity:0.5;" x="0" xlink:href="#mdefb44c675" y="221.50625"/>
    </g>
   </g>
   <g id="line2d_1">
    <path clip-path="url(#p7542aabc29)" d="M 46.923438 185.015625 
L 46.923438 174.541317 
" style="fill:none;stroke:#1f77b4;stroke-linecap:round;stroke-width:2;"/>
   </g>
   <g id="line2d_2">
    <path clip-path="url(#p7542aabc29)" d="M 132.82331 185.015625 
L 132.82331 120.353036 
" style="fill:none;stroke:#1f77b4;stroke-linecap:round;stroke-width:2;"/>
   </g>
   <g id="line2d_3">
    <path clip-path="url(#p7542aabc29)" d="M 133.242334 185.015625 
L 133.242334 119.866375 
" style="fill:none;stroke:#ff7f0e;stroke-linecap:round;stroke-width:2;"/>
   </g>
   <g id="line2d_4">
    <path clip-path="url(#p7542aabc29)" d="M 168.440332 185.015625 
L 168.440332 73.901868 
" style="fill:none;stroke:#ff7f0e;stroke-linecap:round;stroke-width:2;"/>
   </g>
   <g id="line2d_5">
    <path clip-path="url(#p7542aabc29)" d="M 168.859356 185.015625 
L 168.859356 73.346445 
" style="fill:none;stroke:#2ca02c;stroke-linecap:round;stroke-width:2;"/>
   </g>
   <g id="line2d_6">
    <path clip-path="url(#p7542aabc29)" d="M 192.743713 185.015625 
L 192.743713 46.348123 
" style="fill:none;stroke:#2ca02c;stroke-linecap:round;stroke-width:2;"/>
   </g>
   <g id="line2d_7">
    <path clip-path="url(#p7542aabc29)" d="M 193.162737 185.015625 
L 193.162737 45.998318 
" style="fill:none;stroke:#d62728;stroke-linecap:round;stroke-width:2;"/>
   </g>
   <g id="line2d_8">
    <path clip-path="url(#p7542aabc29)" d="M 214.113925 185.015625 
L 214.113925 36.764791 
" style="fill:none;stroke:#d62728;stroke-linecap:round;stroke-width:2;"/>
   </g>
   <g id="line2d_9">
    <path clip-path="url(#p7542aabc29)" d="M 214.532949 185.015625 
L 214.532949 36.76108 
" style="fill:none;stroke:#9467bd;stroke-linecap:round;stroke-width:2;"/>
   </g>
   <g id="line2d_10">
    <path clip-path="url(#p7542aabc29)" d="M 235.903162 185.015625 
L 235.903162 45.998318 
" style="fill:none;stroke:#9467bd;stroke-linecap:round;stroke-width:2;"/>
   </g>
   <g id="line2d_11">
    <path clip-path="url(#p7542aabc29)" d="M 236.322185 185.015625 
L 236.322185 46.348141 
" style="fill:none;stroke:#8c564b;stroke-linecap:round;stroke-width:2;"/>
   </g>
   <g id="line2d_12">
    <path clip-path="url(#p7542aabc29)" d="M 260.206538 185.015625 
L 260.206538 73.346428 
" style="fill:none;stroke:#8c564b;stroke-linecap:round;stroke-width:2;"/>
   </g>
   <g id="line2d_13">
    <path clip-path="url(#p7542aabc29)" d="M 260.625561 185.015625 
L 260.625561 73.901868 
" style="fill:none;stroke:#e377c2;stroke-linecap:round;stroke-width:2;"/>
   </g>
   <g id="line2d_14">
    <path clip-path="url(#p7542aabc29)" d="M 295.82356 185.015625 
L 295.82356 119.866357 
" style="fill:none;stroke:#e377c2;stroke-linecap:round;stroke-width:2;"/>
   </g>
   <g id="line2d_15">
    <path clip-path="url(#p7542aabc29)" d="M 296.242583 185.015625 
L 296.242583 120.353022 
" style="fill:none;stroke:#7f7f7f;stroke-linecap:round;stroke-width:2;"/>
   </g>
   <g id="line2d_16">
    <path clip-path="url(#p7542aabc29)" d="M 381.723437 185.015625 
L 381.723437 174.439874 
" style="fill:none;stroke:#7f7f7f;stroke-linecap:round;stroke-width:2;"/>
   </g>
   <g id="line2d_17">
    <path clip-path="url(#p7542aabc29)" d="M 46.923438 174.541317 
L 53.208788 172.916754 
L 59.075125 171.185359 
L 64.941463 169.220652 
L 70.388767 167.163863 
L 75.836081 164.859775 
L 80.864361 162.492754 
L 85.892652 159.875291 
L 90.501909 157.239335 
L 95.111166 154.361766 
L 99.720433 151.22841 
L 104.32969 147.826116 
L 108.938958 144.143356 
L 113.548215 140.170791 
L 118.157482 135.902118 
L 122.766739 131.334879 
L 127.376006 126.471367 
L 132.404287 120.837443 
L 137.432572 114.880406 
L 143.298905 107.564043 
L 150.003284 98.808247 
L 159.221808 86.352862 
L 170.116426 71.689085 
L 175.563737 64.705083 
L 180.173 59.134332 
L 184.363236 54.428982 
L 188.134451 50.550566 
L 191.486641 47.430868 
L 194.419808 44.983014 
L 197.352974 42.820997 
L 200.286141 40.964398 
L 202.800283 39.629307 
L 205.314426 38.540588 
L 207.828569 37.705877 
L 210.342712 37.131102 
L 212.856854 36.820382 
L 215.370997 36.775907 
L 217.885139 36.998032 
L 220.399282 37.485166 
L 222.913425 38.2338 
L 225.427567 39.238624 
L 227.94171 40.492543 
L 230.455853 41.986851 
L 233.38902 44.020243 
L 236.322185 46.348141 
L 239.255351 48.949724 
L 242.607541 52.228932 
L 246.378759 56.264956 
L 250.568995 61.117144 
L 255.178254 66.814514 
L 261.044589 74.458713 
L 269.844085 86.352853 
L 281.157731 101.582126 
L 287.862111 110.218708 
L 293.728443 117.400066 
L 298.756728 123.225562 
L 303.785009 128.718405 
L 308.8133 133.863101 
L 313.422557 138.267429 
L 318.031824 142.374018 
L 322.641081 146.187515 
L 327.250348 149.715991 
L 331.859605 152.970037 
L 336.468873 155.962166 
L 341.07813 158.706142 
L 346.10641 161.433695 
L 351.134701 163.902702 
L 356.162981 166.132591 
L 361.610295 168.300608 
L 367.057599 170.233809 
L 372.923937 172.078609 
L 379.209297 173.811089 
L 381.723437 174.439874 
L 381.723437 174.439874 
" style="fill:none;stroke:#000000;stroke-linecap:round;stroke-width:2;"/>
   </g>
   <g id="patch_3">
    <path d="M 46.923438 185.015625 
L 46.923438 21.935625 
" style="fill:none;stroke:#262626;stroke-linecap:square;stroke-linejoin:miter;stroke-width:0.8;"/>
   </g>
   <g id="patch_4">
    <path d="M 381.723437 185.015625 
L 381.723437 21.935625 
" style="fill:none;stroke:#262626;stroke-linecap:square;stroke-linejoin:miter;stroke-width:0.8;"/>
   </g>
   <g id="patch_5">
    <path d="M 46.923438 185.015625 
L 381.723437 185.015625 
" style="fill:none;stroke:#262626;stroke-linecap:square;stroke-linejoin:miter;stroke-width:0.8;"/>
   </g>
   <g id="patch_6">
    <path d="M 46.923438 21.935625 
L 381.723437 21.935625 
" style="fill:none;stroke:#262626;stroke-linecap:square;stroke-linejoin:miter;stroke-width:0.8;"/>
   </g>
   <g id="text_18">
    <!-- Dequantization distribution for 8 discrete values -->
    <g style="fill:#262626;" transform="translate(88.261562 15.935625)scale(0.12 -0.12)">
     <defs>
      <path d="M 7.71875 0 
L 7.71875 71.578125 
L 32.375 71.578125 
Q 40.71875 71.578125 45.125 70.5625 
Q 51.265625 69.140625 55.609375 65.4375 
Q 61.28125 60.640625 64.078125 53.1875 
Q 66.890625 45.75 66.890625 36.1875 
Q 66.890625 28.03125 64.984375 21.734375 
Q 63.09375 15.4375 60.109375 11.296875 
Q 57.125 7.171875 53.578125 4.796875 
Q 50.046875 2.4375 45.046875 1.21875 
Q 40.046875 0 33.546875 0 
z
M 17.1875 8.453125 
L 32.46875 8.453125 
Q 39.546875 8.453125 43.578125 9.765625 
Q 47.609375 11.078125 50 13.484375 
Q 53.375 16.84375 55.25 22.53125 
Q 57.125 28.21875 57.125 36.328125 
Q 57.125 47.5625 53.4375 53.59375 
Q 49.75 59.625 44.484375 61.671875 
Q 40.671875 63.140625 32.234375 63.140625 
L 17.1875 63.140625 
z
" id="ArialMT-68"/>
      <path d="M 42.09375 16.703125 
L 51.171875 15.578125 
Q 49.03125 7.625 43.21875 3.21875 
Q 37.40625 -1.171875 28.375 -1.171875 
Q 17 -1.171875 10.328125 5.828125 
Q 3.65625 12.84375 3.65625 25.484375 
Q 3.65625 38.578125 10.390625 45.796875 
Q 17.140625 53.03125 27.875 53.03125 
Q 38.28125 53.03125 44.875 45.953125 
Q 51.46875 38.875 51.46875 26.03125 
Q 51.46875 25.25 51.421875 23.6875 
L 12.75 23.6875 
Q 13.234375 15.140625 17.578125 10.59375 
Q 21.921875 6.0625 28.421875 6.0625 
Q 33.25 6.0625 36.671875 8.59375 
Q 40.09375 11.140625 42.09375 16.703125 
z
M 13.234375 30.90625 
L 42.1875 30.90625 
Q 41.609375 37.453125 38.875 40.71875 
Q 34.671875 45.796875 27.984375 45.796875 
Q 21.921875 45.796875 17.796875 41.75 
Q 13.671875 37.703125 13.234375 30.90625 
z
" id="ArialMT-101"/>
      <path d="M 39.65625 -19.875 
L 39.65625 5.515625 
Q 37.59375 2.640625 33.90625 0.734375 
Q 30.21875 -1.171875 26.078125 -1.171875 
Q 16.84375 -1.171875 10.171875 6.203125 
Q 3.515625 13.578125 3.515625 26.421875 
Q 3.515625 34.234375 6.21875 40.421875 
Q 8.9375 46.625 14.078125 49.828125 
Q 19.234375 53.03125 25.390625 53.03125 
Q 35.015625 53.03125 40.53125 44.921875 
L 40.53125 51.859375 
L 48.4375 51.859375 
L 48.4375 -19.875 
z
M 12.546875 26.078125 
Q 12.546875 16.0625 16.75 11.0625 
Q 20.953125 6.0625 26.8125 6.0625 
Q 32.421875 6.0625 36.46875 10.8125 
Q 40.53125 15.578125 40.53125 25.296875 
Q 40.53125 35.640625 36.25 40.859375 
Q 31.984375 46.09375 26.21875 46.09375 
Q 20.515625 46.09375 16.53125 41.234375 
Q 12.546875 36.375 12.546875 26.078125 
z
" id="ArialMT-113"/>
      <path d="M 40.578125 0 
L 40.578125 7.625 
Q 34.515625 -1.171875 24.125 -1.171875 
Q 19.53125 -1.171875 15.546875 0.578125 
Q 11.578125 2.34375 9.640625 5 
Q 7.71875 7.671875 6.9375 11.53125 
Q 6.390625 14.109375 6.390625 19.734375 
L 6.390625 51.859375 
L 15.1875 51.859375 
L 15.1875 23.09375 
Q 15.1875 16.21875 15.71875 13.8125 
Q 16.546875 10.359375 19.234375 8.375 
Q 21.921875 6.390625 25.875 6.390625 
Q 29.828125 6.390625 33.296875 8.421875 
Q 36.765625 10.453125 38.203125 13.9375 
Q 39.65625 17.4375 39.65625 24.078125 
L 39.65625 51.859375 
L 48.4375 51.859375 
L 48.4375 0 
z
" id="ArialMT-117"/>
      <path d="M 6.59375 0 
L 6.59375 51.859375 
L 14.5 51.859375 
L 14.5 44.484375 
Q 20.21875 53.03125 31 53.03125 
Q 35.6875 53.03125 39.625 51.34375 
Q 43.5625 49.65625 45.515625 46.921875 
Q 47.46875 44.1875 48.25 40.4375 
Q 48.734375 37.984375 48.734375 31.890625 
L 48.734375 0 
L 39.9375 0 
L 39.9375 31.546875 
Q 39.9375 36.921875 38.90625 39.578125 
Q 37.890625 42.234375 35.28125 43.8125 
Q 32.671875 45.40625 29.15625 45.40625 
Q 23.53125 45.40625 19.453125 41.84375 
Q 15.375 38.28125 15.375 28.328125 
L 15.375 0 
z
" id="ArialMT-110"/>
      <path id="ArialMT-32"/>
      <path d="M 40.234375 0 
L 40.234375 6.546875 
Q 35.296875 -1.171875 25.734375 -1.171875 
Q 19.53125 -1.171875 14.328125 2.25 
Q 9.125 5.671875 6.265625 11.796875 
Q 3.421875 17.921875 3.421875 25.875 
Q 3.421875 33.640625 6 39.96875 
Q 8.59375 46.296875 13.765625 49.65625 
Q 18.953125 53.03125 25.34375 53.03125 
Q 30.03125 53.03125 33.6875 51.046875 
Q 37.359375 49.078125 39.65625 45.90625 
L 39.65625 71.578125 
L 48.390625 71.578125 
L 48.390625 0 
z
M 12.453125 25.875 
Q 12.453125 15.921875 16.640625 10.984375 
Q 20.84375 6.0625 26.5625 6.0625 
Q 32.328125 6.0625 36.34375 10.765625 
Q 40.375 15.484375 40.375 25.140625 
Q 40.375 35.796875 36.265625 40.765625 
Q 32.171875 45.75 26.171875 45.75 
Q 20.3125 45.75 16.375 40.96875 
Q 12.453125 36.1875 12.453125 25.875 
z
" id="ArialMT-100"/>
      <path d="M 3.078125 15.484375 
L 11.765625 16.84375 
Q 12.5 11.625 15.84375 8.84375 
Q 19.1875 6.0625 25.203125 6.0625 
Q 31.25 6.0625 34.171875 8.515625 
Q 37.109375 10.984375 37.109375 14.3125 
Q 37.109375 17.28125 34.515625 19 
Q 32.71875 20.171875 25.53125 21.96875 
Q 15.875 24.421875 12.140625 26.203125 
Q 8.40625 27.984375 6.46875 31.125 
Q 4.546875 34.28125 4.546875 38.09375 
Q 4.546875 41.546875 6.125 44.5 
Q 7.71875 47.46875 10.453125 49.421875 
Q 12.5 50.921875 16.03125 51.96875 
Q 19.578125 53.03125 23.640625 53.03125 
Q 29.734375 53.03125 34.34375 51.265625 
Q 38.96875 49.515625 41.15625 46.5 
Q 43.359375 43.5 44.1875 38.484375 
L 35.59375 37.3125 
Q 35.015625 41.3125 32.203125 43.546875 
Q 29.390625 45.796875 24.265625 45.796875 
Q 18.21875 45.796875 15.625 43.796875 
Q 13.03125 41.796875 13.03125 39.109375 
Q 13.03125 37.40625 14.109375 36.03125 
Q 15.1875 34.625 17.484375 33.6875 
Q 18.796875 33.203125 25.25 31.453125 
Q 34.578125 28.953125 38.25 27.359375 
Q 41.9375 25.78125 44.03125 22.75 
Q 46.140625 19.734375 46.140625 15.234375 
Q 46.140625 10.84375 43.578125 6.953125 
Q 41.015625 3.078125 36.171875 0.953125 
Q 31.34375 -1.171875 25.25 -1.171875 
Q 15.140625 -1.171875 9.84375 3.03125 
Q 4.546875 7.234375 3.078125 15.484375 
z
" id="ArialMT-115"/>
      <path d="M 8.6875 0 
L 8.6875 45.015625 
L 0.921875 45.015625 
L 0.921875 51.859375 
L 8.6875 51.859375 
L 8.6875 57.375 
Q 8.6875 62.59375 9.625 65.140625 
Q 10.890625 68.5625 14.078125 70.671875 
Q 17.28125 72.796875 23.046875 72.796875 
Q 26.765625 72.796875 31.25 71.921875 
L 29.9375 64.265625 
Q 27.203125 64.75 24.75 64.75 
Q 20.75 64.75 19.09375 63.03125 
Q 17.4375 61.328125 17.4375 56.640625 
L 17.4375 51.859375 
L 27.546875 51.859375 
L 27.546875 45.015625 
L 17.4375 45.015625 
L 17.4375 0 
z
" id="ArialMT-102"/>
      <path d="M 17.671875 38.8125 
Q 12.203125 40.828125 9.5625 44.53125 
Q 6.9375 48.25 6.9375 53.421875 
Q 6.9375 61.234375 12.546875 66.546875 
Q 18.171875 71.875 27.484375 71.875 
Q 36.859375 71.875 42.578125 66.421875 
Q 48.296875 60.984375 48.296875 53.171875 
Q 48.296875 48.1875 45.671875 44.5 
Q 43.0625 40.828125 37.75 38.8125 
Q 44.34375 36.671875 47.78125 31.875 
Q 51.21875 27.09375 51.21875 20.453125 
Q 51.21875 11.28125 44.71875 5.03125 
Q 38.234375 -1.21875 27.640625 -1.21875 
Q 17.046875 -1.21875 10.546875 5.046875 
Q 4.046875 11.328125 4.046875 20.703125 
Q 4.046875 27.6875 7.59375 32.390625 
Q 11.140625 37.109375 17.671875 38.8125 
z
M 15.921875 53.71875 
Q 15.921875 48.640625 19.1875 45.40625 
Q 22.46875 42.1875 27.6875 42.1875 
Q 32.765625 42.1875 36.015625 45.375 
Q 39.265625 48.578125 39.265625 53.21875 
Q 39.265625 58.0625 35.90625 61.359375 
Q 32.5625 64.65625 27.59375 64.65625 
Q 22.5625 64.65625 19.234375 61.421875 
Q 15.921875 58.203125 15.921875 53.71875 
z
M 13.09375 20.65625 
Q 13.09375 16.890625 14.875 13.375 
Q 16.65625 9.859375 20.171875 7.921875 
Q 23.6875 6 27.734375 6 
Q 34.03125 6 38.125 10.046875 
Q 42.234375 14.109375 42.234375 20.359375 
Q 42.234375 26.703125 38.015625 30.859375 
Q 33.796875 35.015625 27.4375 35.015625 
Q 21.234375 35.015625 17.15625 30.90625 
Q 13.09375 26.8125 13.09375 20.65625 
z
" id="ArialMT-56"/>
      <path d="M 40.4375 19 
L 49.078125 17.875 
Q 47.65625 8.9375 41.8125 3.875 
Q 35.984375 -1.171875 27.484375 -1.171875 
Q 16.84375 -1.171875 10.375 5.78125 
Q 3.90625 12.75 3.90625 25.734375 
Q 3.90625 34.125 6.6875 40.421875 
Q 9.46875 46.734375 15.15625 49.875 
Q 20.84375 53.03125 27.546875 53.03125 
Q 35.984375 53.03125 41.359375 48.75 
Q 46.734375 44.484375 48.25 36.625 
L 39.703125 35.296875 
Q 38.484375 40.53125 35.375 43.15625 
Q 32.28125 45.796875 27.875 45.796875 
Q 21.234375 45.796875 17.078125 41.03125 
Q 12.9375 36.28125 12.9375 25.984375 
Q 12.9375 15.53125 16.9375 10.796875 
Q 20.953125 6.0625 27.390625 6.0625 
Q 32.5625 6.0625 36.03125 9.234375 
Q 39.5 12.40625 40.4375 19 
z
" id="ArialMT-99"/>
      <path d="M 21 0 
L 1.265625 51.859375 
L 10.546875 51.859375 
L 21.6875 20.796875 
Q 23.484375 15.765625 25 10.359375 
Q 26.171875 14.453125 28.265625 20.21875 
L 39.796875 51.859375 
L 48.828125 51.859375 
L 29.203125 0 
z
" id="ArialMT-118"/>
     </defs>
     <use xlink:href="#ArialMT-68"/>
     <use x="72.216797" xlink:href="#ArialMT-101"/>
     <use x="127.832031" xlink:href="#ArialMT-113"/>
     <use x="183.447266" xlink:href="#ArialMT-117"/>
     <use x="239.0625" xlink:href="#ArialMT-97"/>
     <use x="294.677734" xlink:href="#ArialMT-110"/>
     <use x="350.292969" xlink:href="#ArialMT-116"/>
     <use x="378.076172" xlink:href="#ArialMT-105"/>
     <use x="400.292969" xlink:href="#ArialMT-122"/>
     <use x="450.292969" xlink:href="#ArialMT-97"/>
     <use x="505.908203" xlink:href="#ArialMT-116"/>
     <use x="533.691406" xlink:href="#ArialMT-105"/>
     <use x="555.908203" xlink:href="#ArialMT-111"/>
     <use x="611.523438" xlink:href="#ArialMT-110"/>
     <use x="667.138672" xlink:href="#ArialMT-32"/>
     <use x="694.921875" xlink:href="#ArialMT-100"/>
     <use x="750.537109" xlink:href="#ArialMT-105"/>
     <use x="772.753906" xlink:href="#ArialMT-115"/>
     <use x="822.753906" xlink:href="#ArialMT-116"/>
     <use x="850.537109" xlink:href="#ArialMT-114"/>
     <use x="883.837891" xlink:href="#ArialMT-105"/>
     <use x="906.054688" xlink:href="#ArialMT-98"/>
     <use x="961.669922" xlink:href="#ArialMT-117"/>
     <use x="1017.285156" xlink:href="#ArialMT-116"/>
     <use x="1045.068359" xlink:href="#ArialMT-105"/>
     <use x="1067.285156" xlink:href="#ArialMT-111"/>
     <use x="1122.900391" xlink:href="#ArialMT-110"/>
     <use x="1178.515625" xlink:href="#ArialMT-32"/>
     <use x="1206.298828" xlink:href="#ArialMT-102"/>
     <use x="1234.082031" xlink:href="#ArialMT-111"/>
     <use x="1289.697266" xlink:href="#ArialMT-114"/>
     <use x="1322.998047" xlink:href="#ArialMT-32"/>
     <use x="1350.78125" xlink:href="#ArialMT-56"/>
     <use x="1406.396484" xlink:href="#ArialMT-32"/>
     <use x="1434.179688" xlink:href="#ArialMT-100"/>
     <use x="1489.794922" xlink:href="#ArialMT-105"/>
     <use x="1512.011719" xlink:href="#ArialMT-115"/>
     <use x="1562.011719" xlink:href="#ArialMT-99"/>
     <use x="1612.011719" xlink:href="#ArialMT-114"/>
     <use x="1645.3125" xlink:href="#ArialMT-101"/>
     <use x="1700.927734" xlink:href="#ArialMT-116"/>
     <use x="1728.710938" xlink:href="#ArialMT-101"/>
     <use x="1784.326172" xlink:href="#ArialMT-32"/>
     <use x="1812.109375" xlink:href="#ArialMT-118"/>
     <use x="1862.109375" xlink:href="#ArialMT-97"/>
     <use x="1917.724609" xlink:href="#ArialMT-108"/>
     <use x="1939.941406" xlink:href="#ArialMT-117"/>
     <use x="1995.556641" xlink:href="#ArialMT-101"/>
     <use x="2051.171875" xlink:href="#ArialMT-115"/>
    </g>
   </g>
   <g id="legend_1">
    <g id="patch_7">
     <path d="M 337.1625 143.098125 
L 374.723437 143.098125 
Q 376.723437 143.098125 376.723437 141.098125 
L 376.723437 28.935625 
Q 376.723437 26.935625 374.723437 26.935625 
L 337.1625 26.935625 
Q 335.1625 26.935625 335.1625 28.935625 
L 335.1625 141.098125 
Q 335.1625 143.098125 337.1625 143.098125 
z
" style="fill:#ffffff;opacity:0.8;stroke:#cccccc;stroke-linejoin:miter;"/>
    </g>
    <g id="patch_8">
     <path d="M 339.1625 38.093437 
L 359.1625 38.093437 
L 359.1625 31.093437 
L 339.1625 31.093437 
z
" style="fill:#1f77b4;fill-opacity:0.5;stroke:#1f77b4;stroke-linejoin:miter;stroke-opacity:0.5;"/>
    </g>
    <g id="text_19">
     <!-- 0 -->
     <g style="fill:#262626;" transform="translate(367.1625 38.093437)scale(0.1 -0.1)">
      <use xlink:href="#ArialMT-48"/>
     </g>
    </g>
    <g id="patch_9">
     <path d="M 339.1625 52.23875 
L 359.1625 52.23875 
L 359.1625 45.23875 
L 339.1625 45.23875 
z
" style="fill:#ff7f0e;fill-opacity:0.5;stroke:#ff7f0e;stroke-linejoin:miter;stroke-opacity:0.5;"/>
    </g>
    <g id="text_20">
     <!-- 1 -->
     <g style="fill:#262626;" transform="translate(367.1625 52.23875)scale(0.1 -0.1)">
      <use xlink:href="#ArialMT-49"/>
     </g>
    </g>
    <g id="patch_10">
     <path d="M 339.1625 66.384062 
L 359.1625 66.384062 
L 359.1625 59.384062 
L 339.1625 59.384062 
z
" style="fill:#2ca02c;fill-opacity:0.5;stroke:#2ca02c;stroke-linejoin:miter;stroke-opacity:0.5;"/>
    </g>
    <g id="text_21">
     <!-- 2 -->
     <g style="fill:#262626;" transform="translate(367.1625 66.384062)scale(0.1 -0.1)">
      <use xlink:href="#ArialMT-50"/>
     </g>
    </g>
    <g id="patch_11">
     <path d="M 339.1625 80.529375 
L 359.1625 80.529375 
L 359.1625 73.529375 
L 339.1625 73.529375 
z
" style="fill:#d62728;fill-opacity:0.5;stroke:#d62728;stroke-linejoin:miter;stroke-opacity:0.5;"/>
    </g>
    <g id="text_22">
     <!-- 3 -->
     <g style="fill:#262626;" transform="translate(367.1625 80.529375)scale(0.1 -0.1)">
      <defs>
       <path d="M 4.203125 18.890625 
L 12.984375 20.0625 
Q 14.5 12.59375 18.140625 9.296875 
Q 21.78125 6 27 6 
Q 33.203125 6 37.46875 10.296875 
Q 41.75 14.59375 41.75 20.953125 
Q 41.75 27 37.796875 30.921875 
Q 33.84375 34.859375 27.734375 34.859375 
Q 25.25 34.859375 21.53125 33.890625 
L 22.515625 41.609375 
Q 23.390625 41.5 23.921875 41.5 
Q 29.546875 41.5 34.03125 44.421875 
Q 38.53125 47.359375 38.53125 53.46875 
Q 38.53125 58.296875 35.25 61.46875 
Q 31.984375 64.65625 26.8125 64.65625 
Q 21.6875 64.65625 18.265625 61.421875 
Q 14.84375 58.203125 13.875 51.765625 
L 5.078125 53.328125 
Q 6.6875 62.15625 12.390625 67.015625 
Q 18.109375 71.875 26.609375 71.875 
Q 32.46875 71.875 37.390625 69.359375 
Q 42.328125 66.84375 44.9375 62.5 
Q 47.5625 58.15625 47.5625 53.265625 
Q 47.5625 48.640625 45.0625 44.828125 
Q 42.578125 41.015625 37.703125 38.765625 
Q 44.046875 37.3125 47.5625 32.6875 
Q 51.078125 28.078125 51.078125 21.140625 
Q 51.078125 11.765625 44.234375 5.25 
Q 37.40625 -1.265625 26.953125 -1.265625 
Q 17.53125 -1.265625 11.296875 4.34375 
Q 5.078125 9.96875 4.203125 18.890625 
z
" id="ArialMT-51"/>
      </defs>
      <use xlink:href="#ArialMT-51"/>
     </g>
    </g>
    <g id="patch_12">
     <path d="M 339.1625 94.674687 
L 359.1625 94.674687 
L 359.1625 87.674687 
L 339.1625 87.674687 
z
" style="fill:#9467bd;fill-opacity:0.5;stroke:#9467bd;stroke-linejoin:miter;stroke-opacity:0.5;"/>
    </g>
    <g id="text_23">
     <!-- 4 -->
     <g style="fill:#262626;" transform="translate(367.1625 94.674687)scale(0.1 -0.1)">
      <use xlink:href="#ArialMT-52"/>
     </g>
    </g>
    <g id="patch_13">
     <path d="M 339.1625 108.82 
L 359.1625 108.82 
L 359.1625 101.82 
L 339.1625 101.82 
z
" style="fill:#8c564b;fill-opacity:0.5;stroke:#8c564b;stroke-linejoin:miter;stroke-opacity:0.5;"/>
    </g>
    <g id="text_24">
     <!-- 5 -->
     <g style="fill:#262626;" transform="translate(367.1625 108.82)scale(0.1 -0.1)">
      <use xlink:href="#ArialMT-53"/>
     </g>
    </g>
    <g id="patch_14">
     <path d="M 339.1625 122.965312 
L 359.1625 122.965312 
L 359.1625 115.965312 
L 339.1625 115.965312 
z
" style="fill:#e377c2;fill-opacity:0.5;stroke:#e377c2;stroke-linejoin:miter;stroke-opacity:0.5;"/>
    </g>
    <g id="text_25">
     <!-- 6 -->
     <g style="fill:#262626;" transform="translate(367.1625 122.965312)scale(0.1 -0.1)">
      <defs>
       <path d="M 49.75 54.046875 
L 41.015625 53.375 
Q 39.84375 58.546875 37.703125 60.890625 
Q 34.125 64.65625 28.90625 64.65625 
Q 24.703125 64.65625 21.53125 62.3125 
Q 17.390625 59.28125 14.984375 53.46875 
Q 12.59375 47.65625 12.5 36.921875 
Q 15.671875 41.75 20.265625 44.09375 
Q 24.859375 46.4375 29.890625 46.4375 
Q 38.671875 46.4375 44.84375 39.96875 
Q 51.03125 33.5 51.03125 23.25 
Q 51.03125 16.5 48.125 10.71875 
Q 45.21875 4.9375 40.140625 1.859375 
Q 35.0625 -1.21875 28.609375 -1.21875 
Q 17.625 -1.21875 10.6875 6.859375 
Q 3.765625 14.9375 3.765625 33.5 
Q 3.765625 54.25 11.421875 63.671875 
Q 18.109375 71.875 29.4375 71.875 
Q 37.890625 71.875 43.28125 67.140625 
Q 48.6875 62.40625 49.75 54.046875 
z
M 13.875 23.1875 
Q 13.875 18.65625 15.796875 14.5 
Q 17.71875 10.359375 21.1875 8.171875 
Q 24.65625 6 28.46875 6 
Q 34.03125 6 38.03125 10.484375 
Q 42.046875 14.984375 42.046875 22.703125 
Q 42.046875 30.125 38.078125 34.390625 
Q 34.125 38.671875 28.125 38.671875 
Q 22.171875 38.671875 18.015625 34.390625 
Q 13.875 30.125 13.875 23.1875 
z
" id="ArialMT-54"/>
      </defs>
      <use xlink:href="#ArialMT-54"/>
     </g>
    </g>
    <g id="patch_15">
     <path d="M 339.1625 137.110625 
L 359.1625 137.110625 
L 359.1625 130.110625 
L 339.1625 130.110625 
z
" style="fill:#7f7f7f;fill-opacity:0.5;stroke:#7f7f7f;stroke-linejoin:miter;stroke-opacity:0.5;"/>
    </g>
    <g id="text_26">
     <!-- 7 -->
     <g style="fill:#262626;" transform="translate(367.1625 137.110625)scale(0.1 -0.1)">
      <defs>
       <path d="M 4.734375 62.203125 
L 4.734375 70.65625 
L 51.078125 70.65625 
L 51.078125 63.8125 
Q 44.234375 56.546875 37.515625 44.484375 
Q 30.8125 32.421875 27.15625 19.671875 
Q 24.515625 10.6875 23.78125 0 
L 14.75 0 
Q 14.890625 8.453125 18.0625 20.40625 
Q 21.234375 32.375 27.171875 43.484375 
Q 33.109375 54.59375 39.796875 62.203125 
z
" id="ArialMT-55"/>
      </defs>
      <use xlink:href="#ArialMT-55"/>
     </g>
    </g>
   </g>
  </g>
 </g>
 <defs>
  <clipPath id="p7542aabc29">
   <rect height="163.08" width="334.8" x="46.923438" y="21.935625"/>
  </clipPath>
 </defs>
</svg>
