<?xml version="1.0" encoding="utf-8" standalone="no"?>
<!DOCTYPE svg PUBLIC "-//W3C//DTD SVG 1.1//EN"
  "http://www.w3.org/Graphics/SVG/1.1/DTD/svg11.dtd">
<!-- Created with matplotlib (https://matplotlib.org/) -->
<svg height="211.629219pt" version="1.1" viewBox="0 0 597.19 211.629219" width="597.19pt" xmlns="http://www.w3.org/2000/svg" xmlns:xlink="http://www.w3.org/1999/xlink">
 <metadata>
  <rdf:RDF xmlns:cc="http://creativecommons.org/ns#" xmlns:dc="http://purl.org/dc/elements/1.1/" xmlns:rdf="http://www.w3.org/1999/02/22-rdf-syntax-ns#">
   <cc:Work>
    <dc:type rdf:resource="http://purl.org/dc/dcmitype/StillImage"/>
    <dc:date>2022-09-25T13:19:54.133075</dc:date>
    <dc:format>image/svg+xml</dc:format>
    <dc:creator>
     <cc:Agent>
      <dc:title>Matplotlib v3.3.2, https://matplotlib.org/</dc:title>
     </cc:Agent>
    </dc:creator>
   </cc:Work>
  </rdf:RDF>
 </metadata>
 <defs>
  <style type="text/css">*{stroke-linecap:butt;stroke-linejoin:round;}</style>
 </defs>
 <g id="figure_1">
  <g id="patch_1">
   <path d="M 0 211.629219 
L 597.19 211.629219 
L 597.19 0 
L 0 0 
z
" style="fill:#ffffff;"/>
  </g>
  <g id="axes_1">
   <g id="patch_2">
    <path d="M 31.99 184.869375 
L 589.99 184.869375 
L 589.99 21.789375 
L 31.99 21.789375 
z
" style="fill:#eaeaf2;"/>
   </g>
   <g id="matplotlib.axis_1">
    <g id="xtick_1">
     <g id="line2d_1">
      <path clip-path="url(#p43f0b9e48c)" d="M 103.243347 184.869375 
L 103.243347 21.789375 
" style="fill:none;stroke:#ffffff;stroke-linecap:round;"/>
     </g>
     <g id="text_1">
      <!-- −10 -->
      <g style="fill:#262626;" transform="translate(93.913972 202.242969)scale(0.11 -0.11)">
       <defs>
        <path d="M 52.828125 31.203125 
L 5.5625 31.203125 
L 5.5625 39.40625 
L 52.828125 39.40625 
z
" id="ArialMT-8722"/>
        <path d="M 37.25 0 
L 28.46875 0 
L 28.46875 56 
Q 25.296875 52.984375 20.140625 49.953125 
Q 14.984375 46.921875 10.890625 45.40625 
L 10.890625 53.90625 
Q 18.265625 57.375 23.78125 62.296875 
Q 29.296875 67.234375 31.59375 71.875 
L 37.25 71.875 
z
" id="ArialMT-49"/>
        <path d="M 4.15625 35.296875 
Q 4.15625 48 6.765625 55.734375 
Q 9.375 63.484375 14.515625 67.671875 
Q 19.671875 71.875 27.484375 71.875 
Q 33.25 71.875 37.59375 69.546875 
Q 41.9375 67.234375 44.765625 62.859375 
Q 47.609375 58.5 49.21875 52.21875 
Q 50.828125 45.953125 50.828125 35.296875 
Q 50.828125 22.703125 48.234375 14.96875 
Q 45.65625 7.234375 40.5 3 
Q 35.359375 -1.21875 27.484375 -1.21875 
Q 17.140625 -1.21875 11.234375 6.203125 
Q 4.15625 15.140625 4.15625 35.296875 
z
M 13.1875 35.296875 
Q 13.1875 17.671875 17.3125 11.828125 
Q 21.4375 6 27.484375 6 
Q 33.546875 6 37.671875 11.859375 
Q 41.796875 17.71875 41.796875 35.296875 
Q 41.796875 52.984375 37.671875 58.78125 
Q 33.546875 64.59375 27.390625 64.59375 
Q 21.34375 64.59375 17.71875 59.46875 
Q 13.1875 52.9375 13.1875 35.296875 
z
" id="ArialMT-48"/>
       </defs>
       <use xlink:href="#ArialMT-8722"/>
       <use x="58.398438" xlink:href="#ArialMT-49"/>
       <use x="114.013672" xlink:href="#ArialMT-48"/>
      </g>
     </g>
    </g>
    <g id="xtick_2">
     <g id="line2d_2">
      <path clip-path="url(#p43f0b9e48c)" d="M 207.300843 184.869375 
L 207.300843 21.789375 
" style="fill:none;stroke:#ffffff;stroke-linecap:round;"/>
     </g>
     <g id="text_2">
      <!-- −5 -->
      <g style="fill:#262626;" transform="translate(201.029983 202.242969)scale(0.11 -0.11)">
       <defs>
        <path d="M 4.15625 18.75 
L 13.375 19.53125 
Q 14.40625 12.796875 18.140625 9.390625 
Q 21.875 6 27.15625 6 
Q 33.5 6 37.890625 10.78125 
Q 42.28125 15.578125 42.28125 23.484375 
Q 42.28125 31 38.0625 35.34375 
Q 33.84375 39.703125 27 39.703125 
Q 22.75 39.703125 19.328125 37.765625 
Q 15.921875 35.84375 13.96875 32.765625 
L 5.71875 33.84375 
L 12.640625 70.609375 
L 48.25 70.609375 
L 48.25 62.203125 
L 19.671875 62.203125 
L 15.828125 42.96875 
Q 22.265625 47.46875 29.34375 47.46875 
Q 38.71875 47.46875 45.15625 40.96875 
Q 51.609375 34.46875 51.609375 24.265625 
Q 51.609375 14.546875 45.953125 7.46875 
Q 39.0625 -1.21875 27.15625 -1.21875 
Q 17.390625 -1.21875 11.203125 4.25 
Q 5.03125 9.71875 4.15625 18.75 
z
" id="ArialMT-53"/>
       </defs>
       <use xlink:href="#ArialMT-8722"/>
       <use x="58.398438" xlink:href="#ArialMT-53"/>
      </g>
     </g>
    </g>
    <g id="xtick_3">
     <g id="line2d_3">
      <path clip-path="url(#p43f0b9e48c)" d="M 311.358338 184.869375 
L 311.358338 21.789375 
" style="fill:none;stroke:#ffffff;stroke-linecap:round;"/>
     </g>
     <g id="text_3">
      <!-- 0 -->
      <g style="fill:#262626;" transform="translate(308.299822 202.242969)scale(0.11 -0.11)">
       <use xlink:href="#ArialMT-48"/>
      </g>
     </g>
    </g>
    <g id="xtick_4">
     <g id="line2d_4">
      <path clip-path="url(#p43f0b9e48c)" d="M 415.415833 184.869375 
L 415.415833 21.789375 
" style="fill:none;stroke:#ffffff;stroke-linecap:round;"/>
     </g>
     <g id="text_4">
      <!-- 5 -->
      <g style="fill:#262626;" transform="translate(412.357317 202.242969)scale(0.11 -0.11)">
       <use xlink:href="#ArialMT-53"/>
      </g>
     </g>
    </g>
    <g id="xtick_5">
     <g id="line2d_5">
      <path clip-path="url(#p43f0b9e48c)" d="M 519.473328 184.869375 
L 519.473328 21.789375 
" style="fill:none;stroke:#ffffff;stroke-linecap:round;"/>
     </g>
     <g id="text_5">
      <!-- 10 -->
      <g style="fill:#262626;" transform="translate(513.356297 202.242969)scale(0.11 -0.11)">
       <use xlink:href="#ArialMT-49"/>
       <use x="55.615234" xlink:href="#ArialMT-48"/>
      </g>
     </g>
    </g>
   </g>
   <g id="matplotlib.axis_2">
    <g id="ytick_1">
     <g id="line2d_6">
      <path clip-path="url(#p43f0b9e48c)" d="M 31.99 184.869375 
L 589.99 184.869375 
" style="fill:none;stroke:#ffffff;stroke-linecap:round;"/>
     </g>
     <g id="text_6">
      <!-- 0.0 -->
      <g style="fill:#262626;" transform="translate(7.2 188.806172)scale(0.11 -0.11)">
       <defs>
        <path d="M 9.078125 0 
L 9.078125 10.015625 
L 19.09375 10.015625 
L 19.09375 0 
z
" id="ArialMT-46"/>
       </defs>
       <use xlink:href="#ArialMT-48"/>
       <use x="55.615234" xlink:href="#ArialMT-46"/>
       <use x="83.398438" xlink:href="#ArialMT-48"/>
      </g>
     </g>
    </g>
    <g id="ytick_2">
     <g id="line2d_7">
      <path clip-path="url(#p43f0b9e48c)" d="M 31.99 144.641516 
L 589.99 144.641516 
" style="fill:none;stroke:#ffffff;stroke-linecap:round;"/>
     </g>
     <g id="text_7">
      <!-- 0.2 -->
      <g style="fill:#262626;" transform="translate(7.2 148.578313)scale(0.11 -0.11)">
       <defs>
        <path d="M 50.34375 8.453125 
L 50.34375 0 
L 3.03125 0 
Q 2.9375 3.171875 4.046875 6.109375 
Q 5.859375 10.9375 9.828125 15.625 
Q 13.8125 20.3125 21.34375 26.46875 
Q 33.015625 36.03125 37.109375 41.625 
Q 41.21875 47.21875 41.21875 52.203125 
Q 41.21875 57.421875 37.46875 61 
Q 33.734375 64.59375 27.734375 64.59375 
Q 21.390625 64.59375 17.578125 60.78125 
Q 13.765625 56.984375 13.71875 50.25 
L 4.6875 51.171875 
Q 5.609375 61.28125 11.65625 66.578125 
Q 17.71875 71.875 27.9375 71.875 
Q 38.234375 71.875 44.234375 66.15625 
Q 50.25 60.453125 50.25 52 
Q 50.25 47.703125 48.484375 43.546875 
Q 46.734375 39.40625 42.65625 34.8125 
Q 38.578125 30.21875 29.109375 22.21875 
Q 21.1875 15.578125 18.9375 13.203125 
Q 16.703125 10.84375 15.234375 8.453125 
z
" id="ArialMT-50"/>
       </defs>
       <use xlink:href="#ArialMT-48"/>
       <use x="55.615234" xlink:href="#ArialMT-46"/>
       <use x="83.398438" xlink:href="#ArialMT-50"/>
      </g>
     </g>
    </g>
    <g id="ytick_3">
     <g id="line2d_8">
      <path clip-path="url(#p43f0b9e48c)" d="M 31.99 104.413658 
L 589.99 104.413658 
" style="fill:none;stroke:#ffffff;stroke-linecap:round;"/>
     </g>
     <g id="text_8">
      <!-- 0.4 -->
      <g style="fill:#262626;" transform="translate(7.2 108.350455)scale(0.11 -0.11)">
       <defs>
        <path d="M 32.328125 0 
L 32.328125 17.140625 
L 1.265625 17.140625 
L 1.265625 25.203125 
L 33.9375 71.578125 
L 41.109375 71.578125 
L 41.109375 25.203125 
L 50.78125 25.203125 
L 50.78125 17.140625 
L 41.109375 17.140625 
L 41.109375 0 
z
M 32.328125 25.203125 
L 32.328125 57.46875 
L 9.90625 25.203125 
z
" id="ArialMT-52"/>
       </defs>
       <use xlink:href="#ArialMT-48"/>
       <use x="55.615234" xlink:href="#ArialMT-46"/>
       <use x="83.398438" xlink:href="#ArialMT-52"/>
      </g>
     </g>
    </g>
    <g id="ytick_4">
     <g id="line2d_9">
      <path clip-path="url(#p43f0b9e48c)" d="M 31.99 64.185799 
L 589.99 64.185799 
" style="fill:none;stroke:#ffffff;stroke-linecap:round;"/>
     </g>
     <g id="text_9">
      <!-- 0.6 -->
      <g style="fill:#262626;" transform="translate(7.2 68.122596)scale(0.11 -0.11)">
       <defs>
        <path d="M 49.75 54.046875 
L 41.015625 53.375 
Q 39.84375 58.546875 37.703125 60.890625 
Q 34.125 64.65625 28.90625 64.65625 
Q 24.703125 64.65625 21.53125 62.3125 
Q 17.390625 59.28125 14.984375 53.46875 
Q 12.59375 47.65625 12.5 36.921875 
Q 15.671875 41.75 20.265625 44.09375 
Q 24.859375 46.4375 29.890625 46.4375 
Q 38.671875 46.4375 44.84375 39.96875 
Q 51.03125 33.5 51.03125 23.25 
Q 51.03125 16.5 48.125 10.71875 
Q 45.21875 4.9375 40.140625 1.859375 
Q 35.0625 -1.21875 28.609375 -1.21875 
Q 17.625 -1.21875 10.6875 6.859375 
Q 3.765625 14.9375 3.765625 33.5 
Q 3.765625 54.25 11.421875 63.671875 
Q 18.109375 71.875 29.4375 71.875 
Q 37.890625 71.875 43.28125 67.140625 
Q 48.6875 62.40625 49.75 54.046875 
z
M 13.875 23.1875 
Q 13.875 18.65625 15.796875 14.5 
Q 17.71875 10.359375 21.1875 8.171875 
Q 24.65625 6 28.46875 6 
Q 34.03125 6 38.03125 10.484375 
Q 42.046875 14.984375 42.046875 22.703125 
Q 42.046875 30.125 38.078125 34.390625 
Q 34.125 38.671875 28.125 38.671875 
Q 22.171875 38.671875 18.015625 34.390625 
Q 13.875 30.125 13.875 23.1875 
z
" id="ArialMT-54"/>
       </defs>
       <use xlink:href="#ArialMT-48"/>
       <use x="55.615234" xlink:href="#ArialMT-46"/>
       <use x="83.398438" xlink:href="#ArialMT-54"/>
      </g>
     </g>
    </g>
    <g id="ytick_5">
     <g id="line2d_10">
      <path clip-path="url(#p43f0b9e48c)" d="M 31.99 23.957941 
L 589.99 23.957941 
" style="fill:none;stroke:#ffffff;stroke-linecap:round;"/>
     </g>
     <g id="text_10">
      <!-- 0.8 -->
      <g style="fill:#262626;" transform="translate(7.2 27.894737)scale(0.11 -0.11)">
       <defs>
        <path d="M 17.671875 38.8125 
Q 12.203125 40.828125 9.5625 44.53125 
Q 6.9375 48.25 6.9375 53.421875 
Q 6.9375 61.234375 12.546875 66.546875 
Q 18.171875 71.875 27.484375 71.875 
Q 36.859375 71.875 42.578125 66.421875 
Q 48.296875 60.984375 48.296875 53.171875 
Q 48.296875 48.1875 45.671875 44.5 
Q 43.0625 40.828125 37.75 38.8125 
Q 44.34375 36.671875 47.78125 31.875 
Q 51.21875 27.09375 51.21875 20.453125 
Q 51.21875 11.28125 44.71875 5.03125 
Q 38.234375 -1.21875 27.640625 -1.21875 
Q 17.046875 -1.21875 10.546875 5.046875 
Q 4.046875 11.328125 4.046875 20.703125 
Q 4.046875 27.6875 7.59375 32.390625 
Q 11.140625 37.109375 17.671875 38.8125 
z
M 15.921875 53.71875 
Q 15.921875 48.640625 19.1875 45.40625 
Q 22.46875 42.1875 27.6875 42.1875 
Q 32.765625 42.1875 36.015625 45.375 
Q 39.265625 48.578125 39.265625 53.21875 
Q 39.265625 58.0625 35.90625 61.359375 
Q 32.5625 64.65625 27.59375 64.65625 
Q 22.5625 64.65625 19.234375 61.421875 
Q 15.921875 58.203125 15.921875 53.71875 
z
M 13.09375 20.65625 
Q 13.09375 16.890625 14.875 13.375 
Q 16.65625 9.859375 20.171875 7.921875 
Q 23.6875 6 27.734375 6 
Q 34.03125 6 38.125 10.046875 
Q 42.234375 14.109375 42.234375 20.359375 
Q 42.234375 26.703125 38.015625 30.859375 
Q 33.796875 35.015625 27.4375 35.015625 
Q 21.234375 35.015625 17.15625 30.90625 
Q 13.09375 26.8125 13.09375 20.65625 
z
" id="ArialMT-56"/>
       </defs>
       <use xlink:href="#ArialMT-48"/>
       <use x="55.615234" xlink:href="#ArialMT-46"/>
       <use x="83.398438" xlink:href="#ArialMT-56"/>
      </g>
     </g>
    </g>
   </g>
   <g id="patch_3">
    <path clip-path="url(#p43f0b9e48c)" d="M 57.353636 184.869375 
L 59.33518 184.869375 
L 59.33518 184.645709 
L 57.353636 184.645709 
z
" style="fill:#4c72b0;fill-opacity:0.5;stroke:#4c72b0;stroke-linejoin:miter;"/>
   </g>
   <g id="patch_4">
    <path clip-path="url(#p43f0b9e48c)" d="M 59.33518 184.869375 
L 61.316704 184.869375 
L 61.316704 184.622024 
L 59.33518 184.622024 
z
" style="fill:#4c72b0;fill-opacity:0.5;stroke:#4c72b0;stroke-linejoin:miter;"/>
   </g>
   <g id="patch_5">
    <path clip-path="url(#p43f0b9e48c)" d="M 61.316684 184.869375 
L 63.298228 184.869375 
L 63.298228 184.56019 
L 61.316684 184.56019 
z
" style="fill:#4c72b0;fill-opacity:0.5;stroke:#4c72b0;stroke-linejoin:miter;"/>
   </g>
   <g id="patch_6">
    <path clip-path="url(#p43f0b9e48c)" d="M 63.298248 184.869375 
L 65.279772 184.869375 
L 65.279772 184.564134 
L 63.298248 184.564134 
z
" style="fill:#4c72b0;fill-opacity:0.5;stroke:#4c72b0;stroke-linejoin:miter;"/>
   </g>
   <g id="patch_7">
    <path clip-path="url(#p43f0b9e48c)" d="M 65.279772 184.869375 
L 67.261316 184.869375 
L 67.261316 184.539139 
L 65.279772 184.539139 
z
" style="fill:#4c72b0;fill-opacity:0.5;stroke:#4c72b0;stroke-linejoin:miter;"/>
   </g>
   <g id="patch_8">
    <path clip-path="url(#p43f0b9e48c)" d="M 67.261316 184.869375 
L 69.24284 184.869375 
L 69.24284 184.512822 
L 67.261316 184.512822 
z
" style="fill:#4c72b0;fill-opacity:0.5;stroke:#4c72b0;stroke-linejoin:miter;"/>
   </g>
   <g id="patch_9">
    <path clip-path="url(#p43f0b9e48c)" d="M 69.24282 184.869375 
L 71.224363 184.869375 
L 71.224363 184.5023 
L 69.24282 184.5023 
z
" style="fill:#4c72b0;fill-opacity:0.5;stroke:#4c72b0;stroke-linejoin:miter;"/>
   </g>
   <g id="patch_10">
    <path clip-path="url(#p43f0b9e48c)" d="M 71.224383 184.869375 
L 73.205907 184.869375 
L 73.205907 184.427302 
L 71.224383 184.427302 
z
" style="fill:#4c72b0;fill-opacity:0.5;stroke:#4c72b0;stroke-linejoin:miter;"/>
   </g>
   <g id="patch_11">
    <path clip-path="url(#p43f0b9e48c)" d="M 73.205907 184.869375 
L 75.187451 184.869375 
L 75.187451 184.38652 
L 73.205907 184.38652 
z
" style="fill:#4c72b0;fill-opacity:0.5;stroke:#4c72b0;stroke-linejoin:miter;"/>
   </g>
   <g id="patch_12">
    <path clip-path="url(#p43f0b9e48c)" d="M 75.187451 184.869375 
L 77.168975 184.869375 
L 77.168975 184.328625 
L 75.187451 184.328625 
z
" style="fill:#4c72b0;fill-opacity:0.5;stroke:#4c72b0;stroke-linejoin:miter;"/>
   </g>
   <g id="patch_13">
    <path clip-path="url(#p43f0b9e48c)" d="M 77.168955 184.869375 
L 79.150499 184.869375 
L 79.150499 184.302316 
L 77.168955 184.302316 
z
" style="fill:#4c72b0;fill-opacity:0.5;stroke:#4c72b0;stroke-linejoin:miter;"/>
   </g>
   <g id="patch_14">
    <path clip-path="url(#p43f0b9e48c)" d="M 79.150519 184.869375 
L 81.132043 184.869375 
L 81.132043 184.223369 
L 79.150519 184.223369 
z
" style="fill:#4c72b0;fill-opacity:0.5;stroke:#4c72b0;stroke-linejoin:miter;"/>
   </g>
   <g id="patch_15">
    <path clip-path="url(#p43f0b9e48c)" d="M 81.132043 184.869375 
L 83.113586 184.869375 
L 83.113586 184.143119 
L 81.132043 184.143119 
z
" style="fill:#4c72b0;fill-opacity:0.5;stroke:#4c72b0;stroke-linejoin:miter;"/>
   </g>
   <g id="patch_16">
    <path clip-path="url(#p43f0b9e48c)" d="M 83.113586 184.869375 
L 85.09511 184.869375 
L 85.09511 184.085221 
L 83.113586 184.085221 
z
" style="fill:#4c72b0;fill-opacity:0.5;stroke:#4c72b0;stroke-linejoin:miter;"/>
   </g>
   <g id="patch_17">
    <path clip-path="url(#p43f0b9e48c)" d="M 85.095091 184.869375 
L 87.076634 184.869375 
L 87.076634 184.06681 
L 85.095091 184.06681 
z
" style="fill:#4c72b0;fill-opacity:0.5;stroke:#4c72b0;stroke-linejoin:miter;"/>
   </g>
   <g id="patch_18">
    <path clip-path="url(#p43f0b9e48c)" d="M 87.076654 184.869375 
L 89.058178 184.869375 
L 89.058178 183.910234 
L 87.076654 183.910234 
z
" style="fill:#4c72b0;fill-opacity:0.5;stroke:#4c72b0;stroke-linejoin:miter;"/>
   </g>
   <g id="patch_19">
    <path clip-path="url(#p43f0b9e48c)" d="M 89.058178 184.869375 
L 91.039722 184.869375 
L 91.039722 183.887877 
L 89.058178 183.887877 
z
" style="fill:#4c72b0;fill-opacity:0.5;stroke:#4c72b0;stroke-linejoin:miter;"/>
   </g>
   <g id="patch_20">
    <path clip-path="url(#p43f0b9e48c)" d="M 91.039722 184.869375 
L 93.021246 184.869375 
L 93.021246 183.803663 
L 91.039722 183.803663 
z
" style="fill:#4c72b0;fill-opacity:0.5;stroke:#4c72b0;stroke-linejoin:miter;"/>
   </g>
   <g id="patch_21">
    <path clip-path="url(#p43f0b9e48c)" d="M 93.021226 184.869375 
L 95.00277 184.869375 
L 95.00277 183.607637 
L 93.021226 183.607637 
z
" style="fill:#4c72b0;fill-opacity:0.5;stroke:#4c72b0;stroke-linejoin:miter;"/>
   </g>
   <g id="patch_22">
    <path clip-path="url(#p43f0b9e48c)" d="M 95.00279 184.869375 
L 96.984314 184.869375 
L 96.984314 183.562891 
L 95.00279 183.562891 
z
" style="fill:#4c72b0;fill-opacity:0.5;stroke:#4c72b0;stroke-linejoin:miter;"/>
   </g>
   <g id="patch_23">
    <path clip-path="url(#p43f0b9e48c)" d="M 96.984314 184.869375 
L 98.965857 184.869375 
L 98.965857 183.361605 
L 96.984314 183.361605 
z
" style="fill:#4c72b0;fill-opacity:0.5;stroke:#4c72b0;stroke-linejoin:miter;"/>
   </g>
   <g id="patch_24">
    <path clip-path="url(#p43f0b9e48c)" d="M 98.965857 184.869375 
L 100.947381 184.869375 
L 100.947381 183.26686 
L 98.965857 183.26686 
z
" style="fill:#4c72b0;fill-opacity:0.5;stroke:#4c72b0;stroke-linejoin:miter;"/>
   </g>
   <g id="patch_25">
    <path clip-path="url(#p43f0b9e48c)" d="M 100.947361 184.869375 
L 102.928905 184.869375 
L 102.928905 183.105047 
L 100.947361 183.105047 
z
" style="fill:#4c72b0;fill-opacity:0.5;stroke:#4c72b0;stroke-linejoin:miter;"/>
   </g>
   <g id="patch_26">
    <path clip-path="url(#p43f0b9e48c)" d="M 102.928925 184.869375 
L 104.910449 184.869375 
L 104.910449 182.873467 
L 102.928925 182.873467 
z
" style="fill:#4c72b0;fill-opacity:0.5;stroke:#4c72b0;stroke-linejoin:miter;"/>
   </g>
   <g id="patch_27">
    <path clip-path="url(#p43f0b9e48c)" d="M 104.910449 184.869375 
L 106.891993 184.869375 
L 106.891993 182.751129 
L 104.910449 182.751129 
z
" style="fill:#4c72b0;fill-opacity:0.5;stroke:#4c72b0;stroke-linejoin:miter;"/>
   </g>
   <g id="patch_28">
    <path clip-path="url(#p43f0b9e48c)" d="M 106.891993 184.869375 
L 108.873517 184.869375 
L 108.873517 182.569542 
L 106.891993 182.569542 
z
" style="fill:#4c72b0;fill-opacity:0.5;stroke:#4c72b0;stroke-linejoin:miter;"/>
   </g>
   <g id="patch_29">
    <path clip-path="url(#p43f0b9e48c)" d="M 108.873497 184.869375 
L 110.855041 184.869375 
L 110.855041 182.235382 
L 108.873497 182.235382 
z
" style="fill:#4c72b0;fill-opacity:0.5;stroke:#4c72b0;stroke-linejoin:miter;"/>
   </g>
   <g id="patch_30">
    <path clip-path="url(#p43f0b9e48c)" d="M 110.85506 184.869375 
L 112.836584 184.869375 
L 112.836584 182.022213 
L 110.85506 182.022213 
z
" style="fill:#4c72b0;fill-opacity:0.5;stroke:#4c72b0;stroke-linejoin:miter;"/>
   </g>
   <g id="patch_31">
    <path clip-path="url(#p43f0b9e48c)" d="M 112.836584 184.869375 
L 114.818128 184.869375 
L 114.818128 181.731476 
L 112.836584 181.731476 
z
" style="fill:#4c72b0;fill-opacity:0.5;stroke:#4c72b0;stroke-linejoin:miter;"/>
   </g>
   <g id="patch_32">
    <path clip-path="url(#p43f0b9e48c)" d="M 114.818128 184.869375 
L 116.799652 184.869375 
L 116.799652 181.359103 
L 114.818128 181.359103 
z
" style="fill:#4c72b0;fill-opacity:0.5;stroke:#4c72b0;stroke-linejoin:miter;"/>
   </g>
   <g id="patch_33">
    <path clip-path="url(#p43f0b9e48c)" d="M 116.799632 184.869375 
L 118.781176 184.869375 
L 118.781176 181.006536 
L 116.799632 181.006536 
z
" style="fill:#4c72b0;fill-opacity:0.5;stroke:#4c72b0;stroke-linejoin:miter;"/>
   </g>
   <g id="patch_34">
    <path clip-path="url(#p43f0b9e48c)" d="M 118.781196 184.869375 
L 120.76272 184.869375 
L 120.76272 180.668364 
L 118.781196 180.668364 
z
" style="fill:#4c72b0;fill-opacity:0.5;stroke:#4c72b0;stroke-linejoin:miter;"/>
   </g>
   <g id="patch_35">
    <path clip-path="url(#p43f0b9e48c)" d="M 120.76272 184.869375 
L 122.744264 184.869375 
L 122.744264 180.405269 
L 120.76272 180.405269 
z
" style="fill:#4c72b0;fill-opacity:0.5;stroke:#4c72b0;stroke-linejoin:miter;"/>
   </g>
   <g id="patch_36">
    <path clip-path="url(#p43f0b9e48c)" d="M 122.744264 184.869375 
L 124.725788 184.869375 
L 124.725788 179.973677 
L 122.744264 179.973677 
z
" style="fill:#4c72b0;fill-opacity:0.5;stroke:#4c72b0;stroke-linejoin:miter;"/>
   </g>
   <g id="patch_37">
    <path clip-path="url(#p43f0b9e48c)" d="M 124.725768 184.869375 
L 126.707311 184.869375 
L 126.707311 179.248786 
L 124.725768 179.248786 
z
" style="fill:#4c72b0;fill-opacity:0.5;stroke:#4c72b0;stroke-linejoin:miter;"/>
   </g>
   <g id="patch_38">
    <path clip-path="url(#p43f0b9e48c)" d="M 126.707331 184.869375 
L 128.688855 184.869375 
L 128.688855 178.650089 
L 126.707331 178.650089 
z
" style="fill:#4c72b0;fill-opacity:0.5;stroke:#4c72b0;stroke-linejoin:miter;"/>
   </g>
   <g id="patch_39">
    <path clip-path="url(#p43f0b9e48c)" d="M 128.688855 184.869375 
L 130.670399 184.869375 
L 130.670399 178.234396 
L 128.688855 178.234396 
z
" style="fill:#4c72b0;fill-opacity:0.5;stroke:#4c72b0;stroke-linejoin:miter;"/>
   </g>
   <g id="patch_40">
    <path clip-path="url(#p43f0b9e48c)" d="M 130.670399 184.869375 
L 132.651923 184.869375 
L 132.651923 177.542274 
L 130.670399 177.542274 
z
" style="fill:#4c72b0;fill-opacity:0.5;stroke:#4c72b0;stroke-linejoin:miter;"/>
   </g>
   <g id="patch_41">
    <path clip-path="url(#p43f0b9e48c)" d="M 132.651903 184.869375 
L 134.633447 184.869375 
L 134.633447 176.762149 
L 132.651903 176.762149 
z
" style="fill:#4c72b0;fill-opacity:0.5;stroke:#4c72b0;stroke-linejoin:miter;"/>
   </g>
   <g id="patch_42">
    <path clip-path="url(#p43f0b9e48c)" d="M 134.633467 184.869375 
L 136.614991 184.869375 
L 136.614991 176.009491 
L 134.633467 176.009491 
z
" style="fill:#4c72b0;fill-opacity:0.5;stroke:#4c72b0;stroke-linejoin:miter;"/>
   </g>
   <g id="patch_43">
    <path clip-path="url(#p43f0b9e48c)" d="M 136.614991 184.869375 
L 138.596534 184.869375 
L 138.596534 175.051764 
L 136.614991 175.051764 
z
" style="fill:#4c72b0;fill-opacity:0.5;stroke:#4c72b0;stroke-linejoin:miter;"/>
   </g>
   <g id="patch_44">
    <path clip-path="url(#p43f0b9e48c)" d="M 138.596534 184.869375 
L 140.578058 184.869375 
L 140.578058 174.043843 
L 138.596534 174.043843 
z
" style="fill:#4c72b0;fill-opacity:0.5;stroke:#4c72b0;stroke-linejoin:miter;"/>
   </g>
   <g id="patch_45">
    <path clip-path="url(#p43f0b9e48c)" d="M 140.578039 184.869375 
L 142.559582 184.869375 
L 142.559582 172.757216 
L 140.578039 172.757216 
z
" style="fill:#4c72b0;fill-opacity:0.5;stroke:#4c72b0;stroke-linejoin:miter;"/>
   </g>
   <g id="patch_46">
    <path clip-path="url(#p43f0b9e48c)" d="M 142.559602 184.869375 
L 144.541146 184.869375 
L 144.541146 171.738879 
L 142.559602 171.738879 
z
" style="fill:#4c72b0;fill-opacity:0.5;stroke:#4c72b0;stroke-linejoin:miter;"/>
   </g>
   <g id="patch_47">
    <path clip-path="url(#p43f0b9e48c)" d="M 144.541146 184.869375 
L 146.52267 184.869375 
L 146.52267 170.427 
L 144.541146 170.427 
z
" style="fill:#4c72b0;fill-opacity:0.5;stroke:#4c72b0;stroke-linejoin:miter;"/>
   </g>
   <g id="patch_48">
    <path clip-path="url(#p43f0b9e48c)" d="M 146.52267 184.869375 
L 148.504194 184.869375 
L 148.504194 169.166644 
L 146.52267 169.166644 
z
" style="fill:#4c72b0;fill-opacity:0.5;stroke:#4c72b0;stroke-linejoin:miter;"/>
   </g>
   <g id="patch_49">
    <path clip-path="url(#p43f0b9e48c)" d="M 148.504214 184.869375 
L 150.485738 184.869375 
L 150.485738 167.452303 
L 148.504214 167.452303 
z
" style="fill:#4c72b0;fill-opacity:0.5;stroke:#4c72b0;stroke-linejoin:miter;"/>
   </g>
   <g id="patch_50">
    <path clip-path="url(#p43f0b9e48c)" d="M 150.485738 184.869375 
L 152.467262 184.869375 
L 152.467262 165.766907 
L 150.485738 165.766907 
z
" style="fill:#4c72b0;fill-opacity:0.5;stroke:#4c72b0;stroke-linejoin:miter;"/>
   </g>
   <g id="patch_51">
    <path clip-path="url(#p43f0b9e48c)" d="M 152.467281 184.869375 
L 154.448805 184.869375 
L 154.448805 163.510503 
L 152.467281 163.510503 
z
" style="fill:#4c72b0;fill-opacity:0.5;stroke:#4c72b0;stroke-linejoin:miter;"/>
   </g>
   <g id="patch_52">
    <path clip-path="url(#p43f0b9e48c)" d="M 154.448805 184.869375 
L 156.430329 184.869375 
L 156.430329 161.852737 
L 154.448805 161.852737 
z
" style="fill:#4c72b0;fill-opacity:0.5;stroke:#4c72b0;stroke-linejoin:miter;"/>
   </g>
   <g id="patch_53">
    <path clip-path="url(#p43f0b9e48c)" d="M 156.430349 184.869375 
L 158.411873 184.869375 
L 158.411873 159.401611 
L 156.430349 159.401611 
z
" style="fill:#4c72b0;fill-opacity:0.5;stroke:#4c72b0;stroke-linejoin:miter;"/>
   </g>
   <g id="patch_54">
    <path clip-path="url(#p43f0b9e48c)" d="M 158.411873 184.869375 
L 160.393397 184.869375 
L 160.393397 156.842598 
L 158.411873 156.842598 
z
" style="fill:#4c72b0;fill-opacity:0.5;stroke:#4c72b0;stroke-linejoin:miter;"/>
   </g>
   <g id="patch_55">
    <path clip-path="url(#p43f0b9e48c)" d="M 160.393417 184.869375 
L 162.374941 184.869375 
L 162.374941 153.950717 
L 160.393417 153.950717 
z
" style="fill:#4c72b0;fill-opacity:0.5;stroke:#4c72b0;stroke-linejoin:miter;"/>
   </g>
   <g id="patch_56">
    <path clip-path="url(#p43f0b9e48c)" d="M 162.374941 184.869375 
L 164.356465 184.869375 
L 164.356465 150.820696 
L 162.374941 150.820696 
z
" style="fill:#4c72b0;fill-opacity:0.5;stroke:#4c72b0;stroke-linejoin:miter;"/>
   </g>
   <g id="patch_57">
    <path clip-path="url(#p43f0b9e48c)" d="M 164.356485 184.869375 
L 166.338008 184.869375 
L 166.338008 147.510427 
L 164.356485 147.510427 
z
" style="fill:#4c72b0;fill-opacity:0.5;stroke:#4c72b0;stroke-linejoin:miter;"/>
   </g>
   <g id="patch_58">
    <path clip-path="url(#p43f0b9e48c)" d="M 166.338008 184.869375 
L 168.319532 184.869375 
L 168.319532 144.067272 
L 166.338008 144.067272 
z
" style="fill:#4c72b0;fill-opacity:0.5;stroke:#4c72b0;stroke-linejoin:miter;"/>
   </g>
   <g id="patch_59">
    <path clip-path="url(#p43f0b9e48c)" d="M 168.319552 184.869375 
L 170.301076 184.869375 
L 170.301076 139.524203 
L 168.319552 139.524203 
z
" style="fill:#4c72b0;fill-opacity:0.5;stroke:#4c72b0;stroke-linejoin:miter;"/>
   </g>
   <g id="patch_60">
    <path clip-path="url(#p43f0b9e48c)" d="M 170.301076 184.869375 
L 172.2826 184.869375 
L 172.2826 135.169277 
L 170.301076 135.169277 
z
" style="fill:#4c72b0;fill-opacity:0.5;stroke:#4c72b0;stroke-linejoin:miter;"/>
   </g>
   <g id="patch_61">
    <path clip-path="url(#p43f0b9e48c)" d="M 172.28262 184.869375 
L 174.264144 184.869375 
L 174.264144 129.948629 
L 172.28262 129.948629 
z
" style="fill:#4c72b0;fill-opacity:0.5;stroke:#4c72b0;stroke-linejoin:miter;"/>
   </g>
   <g id="patch_62">
    <path clip-path="url(#p43f0b9e48c)" d="M 174.264144 184.869375 
L 176.245668 184.869375 
L 176.245668 124.730612 
L 174.264144 124.730612 
z
" style="fill:#4c72b0;fill-opacity:0.5;stroke:#4c72b0;stroke-linejoin:miter;"/>
   </g>
   <g id="patch_63">
    <path clip-path="url(#p43f0b9e48c)" d="M 176.245688 184.869375 
L 178.227212 184.869375 
L 178.227212 119.329715 
L 176.245688 119.329715 
z
" style="fill:#4c72b0;fill-opacity:0.5;stroke:#4c72b0;stroke-linejoin:miter;"/>
   </g>
   <g id="patch_64">
    <path clip-path="url(#p43f0b9e48c)" d="M 178.227212 184.869375 
L 180.208736 184.869375 
L 180.208736 112.409198 
L 178.227212 112.409198 
z
" style="fill:#4c72b0;fill-opacity:0.5;stroke:#4c72b0;stroke-linejoin:miter;"/>
   </g>
   <g id="patch_65">
    <path clip-path="url(#p43f0b9e48c)" d="M 180.208755 184.869375 
L 182.190279 184.869375 
L 182.190279 104.599277 
L 180.208755 104.599277 
z
" style="fill:#4c72b0;fill-opacity:0.5;stroke:#4c72b0;stroke-linejoin:miter;"/>
   </g>
   <g id="patch_66">
    <path clip-path="url(#p43f0b9e48c)" d="M 182.190279 184.869375 
L 184.171823 184.869375 
L 184.171823 97.218708 
L 182.190279 97.218708 
z
" style="fill:#4c72b0;fill-opacity:0.5;stroke:#4c72b0;stroke-linejoin:miter;"/>
   </g>
   <g id="patch_67">
    <path clip-path="url(#p43f0b9e48c)" d="M 184.171823 184.869375 
L 186.153347 184.869375 
L 186.153347 88.586043 
L 184.171823 88.586043 
z
" style="fill:#4c72b0;fill-opacity:0.5;stroke:#4c72b0;stroke-linejoin:miter;"/>
   </g>
   <g id="patch_68">
    <path clip-path="url(#p43f0b9e48c)" d="M 186.153367 184.869375 
L 188.134891 184.869375 
L 188.134891 79.415701 
L 186.153367 79.415701 
z
" style="fill:#4c72b0;fill-opacity:0.5;stroke:#4c72b0;stroke-linejoin:miter;"/>
   </g>
   <g id="patch_69">
    <path clip-path="url(#p43f0b9e48c)" d="M 188.134891 184.869375 
L 190.116415 184.869375 
L 190.116415 67.552146 
L 188.134891 67.552146 
z
" style="fill:#4c72b0;fill-opacity:0.5;stroke:#4c72b0;stroke-linejoin:miter;"/>
   </g>
   <g id="patch_70">
    <path clip-path="url(#p43f0b9e48c)" d="M 190.116435 184.869375 
L 192.097959 184.869375 
L 192.097959 56.02146 
L 190.116435 56.02146 
z
" style="fill:#4c72b0;fill-opacity:0.5;stroke:#4c72b0;stroke-linejoin:miter;"/>
   </g>
   <g id="patch_71">
    <path clip-path="url(#p43f0b9e48c)" d="M 192.097959 184.869375 
L 194.079483 184.869375 
L 194.079483 44.15659 
L 192.097959 44.15659 
z
" style="fill:#4c72b0;fill-opacity:0.5;stroke:#4c72b0;stroke-linejoin:miter;"/>
   </g>
   <g id="patch_72">
    <path clip-path="url(#p43f0b9e48c)" d="M 194.079502 184.869375 
L 196.061026 184.869375 
L 196.061026 29.555089 
L 194.079502 29.555089 
z
" style="fill:#4c72b0;fill-opacity:0.5;stroke:#4c72b0;stroke-linejoin:miter;"/>
   </g>
   <g id="patch_73">
    <path clip-path="url(#p43f0b9e48c)" d="M 196.061026 184.869375 
L 198.04255 184.869375 
L 198.04255 184.63913 
L 196.061026 184.63913 
z
" style="fill:#4c72b0;fill-opacity:0.5;stroke:#4c72b0;stroke-linejoin:miter;"/>
   </g>
   <g id="patch_74">
    <path clip-path="url(#p43f0b9e48c)" d="M 198.04257 184.869375 
L 200.024094 184.869375 
L 200.024094 184.781224 
L 198.04257 184.781224 
z
" style="fill:#4c72b0;fill-opacity:0.5;stroke:#4c72b0;stroke-linejoin:miter;"/>
   </g>
   <g id="patch_75">
    <path clip-path="url(#p43f0b9e48c)" d="M 200.024094 184.869375 
L 202.005618 184.869375 
L 202.005618 184.762804 
L 200.024094 184.762804 
z
" style="fill:#4c72b0;fill-opacity:0.5;stroke:#4c72b0;stroke-linejoin:miter;"/>
   </g>
   <g id="patch_76">
    <path clip-path="url(#p43f0b9e48c)" d="M 202.005638 184.869375 
L 203.987162 184.869375 
L 203.987162 184.766751 
L 202.005638 184.766751 
z
" style="fill:#4c72b0;fill-opacity:0.5;stroke:#4c72b0;stroke-linejoin:miter;"/>
   </g>
   <g id="patch_77">
    <path clip-path="url(#p43f0b9e48c)" d="M 203.987162 184.869375 
L 205.968686 184.869375 
L 205.968686 184.766751 
L 203.987162 184.766751 
z
" style="fill:#4c72b0;fill-opacity:0.5;stroke:#4c72b0;stroke-linejoin:miter;"/>
   </g>
   <g id="patch_78">
    <path clip-path="url(#p43f0b9e48c)" d="M 205.968706 184.869375 
L 207.950229 184.869375 
L 207.950229 184.765436 
L 205.968706 184.765436 
z
" style="fill:#4c72b0;fill-opacity:0.5;stroke:#4c72b0;stroke-linejoin:miter;"/>
   </g>
   <g id="patch_79">
    <path clip-path="url(#p43f0b9e48c)" d="M 207.950229 184.869375 
L 209.931753 184.869375 
L 209.931753 184.736491 
L 207.950229 184.736491 
z
" style="fill:#4c72b0;fill-opacity:0.5;stroke:#4c72b0;stroke-linejoin:miter;"/>
   </g>
   <g id="patch_80">
    <path clip-path="url(#p43f0b9e48c)" d="M 209.931773 184.869375 
L 211.913297 184.869375 
L 211.913297 184.615447 
L 209.931773 184.615447 
z
" style="fill:#4c72b0;fill-opacity:0.5;stroke:#4c72b0;stroke-linejoin:miter;"/>
   </g>
   <g id="patch_81">
    <path clip-path="url(#p43f0b9e48c)" d="M 211.913297 184.869375 
L 213.894821 184.869375 
L 213.894821 184.529928 
L 211.913297 184.529928 
z
" style="fill:#4c72b0;fill-opacity:0.5;stroke:#4c72b0;stroke-linejoin:miter;"/>
   </g>
   <g id="patch_82">
    <path clip-path="url(#p43f0b9e48c)" d="M 213.894841 184.869375 
L 215.876365 184.869375 
L 215.876365 184.478616 
L 213.894841 184.478616 
z
" style="fill:#4c72b0;fill-opacity:0.5;stroke:#4c72b0;stroke-linejoin:miter;"/>
   </g>
   <g id="patch_83">
    <path clip-path="url(#p43f0b9e48c)" d="M 215.876365 184.869375 
L 217.857889 184.869375 
L 217.857889 184.461512 
L 215.876365 184.461512 
z
" style="fill:#4c72b0;fill-opacity:0.5;stroke:#4c72b0;stroke-linejoin:miter;"/>
   </g>
   <g id="patch_84">
    <path clip-path="url(#p43f0b9e48c)" d="M 217.857909 184.869375 
L 219.839433 184.869375 
L 219.839433 184.422041 
L 217.857909 184.422041 
z
" style="fill:#4c72b0;fill-opacity:0.5;stroke:#4c72b0;stroke-linejoin:miter;"/>
   </g>
   <g id="patch_85">
    <path clip-path="url(#p43f0b9e48c)" d="M 219.839433 184.869375 
L 221.820957 184.869375 
L 221.820957 184.42862 
L 219.839433 184.42862 
z
" style="fill:#4c72b0;fill-opacity:0.5;stroke:#4c72b0;stroke-linejoin:miter;"/>
   </g>
   <g id="patch_86">
    <path clip-path="url(#p43f0b9e48c)" d="M 221.820976 184.869375 
L 223.8025 184.869375 
L 223.8025 184.433882 
L 221.820976 184.433882 
z
" style="fill:#4c72b0;fill-opacity:0.5;stroke:#4c72b0;stroke-linejoin:miter;"/>
   </g>
   <g id="patch_87">
    <path clip-path="url(#p43f0b9e48c)" d="M 223.8025 184.869375 
L 225.784024 184.869375 
L 225.784024 184.360204 
L 223.8025 184.360204 
z
" style="fill:#4c72b0;fill-opacity:0.5;stroke:#4c72b0;stroke-linejoin:miter;"/>
   </g>
   <g id="patch_88">
    <path clip-path="url(#p43f0b9e48c)" d="M 225.784044 184.869375 
L 227.765568 184.869375 
L 227.765568 184.169429 
L 225.784044 184.169429 
z
" style="fill:#4c72b0;fill-opacity:0.5;stroke:#4c72b0;stroke-linejoin:miter;"/>
   </g>
   <g id="patch_89">
    <path clip-path="url(#p43f0b9e48c)" d="M 227.765568 184.869375 
L 229.747092 184.869375 
L 229.747092 184.148378 
L 227.765568 184.148378 
z
" style="fill:#4c72b0;fill-opacity:0.5;stroke:#4c72b0;stroke-linejoin:miter;"/>
   </g>
   <g id="patch_90">
    <path clip-path="url(#p43f0b9e48c)" d="M 229.747107 184.869375 
L 231.728631 184.869375 
L 231.728631 184.214163 
L 229.747107 184.214163 
z
" style="fill:#4c72b0;fill-opacity:0.5;stroke:#4c72b0;stroke-linejoin:miter;"/>
   </g>
   <g id="patch_91">
    <path clip-path="url(#p43f0b9e48c)" d="M 231.728641 184.869375 
L 233.710165 184.869375 
L 233.710165 184.131274 
L 231.728641 184.131274 
z
" style="fill:#4c72b0;fill-opacity:0.5;stroke:#4c72b0;stroke-linejoin:miter;"/>
   </g>
   <g id="patch_92">
    <path clip-path="url(#p43f0b9e48c)" d="M 233.710175 184.869375 
L 235.691698 184.869375 
L 235.691698 183.735252 
L 233.710175 183.735252 
z
" style="fill:#4c72b0;fill-opacity:0.5;stroke:#4c72b0;stroke-linejoin:miter;"/>
   </g>
   <g id="patch_93">
    <path clip-path="url(#p43f0b9e48c)" d="M 235.691708 184.869375 
L 237.673232 184.869375 
L 237.673232 183.676046 
L 235.691708 183.676046 
z
" style="fill:#4c72b0;fill-opacity:0.5;stroke:#4c72b0;stroke-linejoin:miter;"/>
   </g>
   <g id="patch_94">
    <path clip-path="url(#p43f0b9e48c)" d="M 237.673242 184.869375 
L 239.654766 184.869375 
L 239.654766 183.754988 
L 237.673242 183.754988 
z
" style="fill:#4c72b0;fill-opacity:0.5;stroke:#4c72b0;stroke-linejoin:miter;"/>
   </g>
   <g id="patch_95">
    <path clip-path="url(#p43f0b9e48c)" d="M 239.654776 184.869375 
L 241.6363 184.869375 
L 241.6363 183.726043 
L 239.654776 183.726043 
z
" style="fill:#4c72b0;fill-opacity:0.5;stroke:#4c72b0;stroke-linejoin:miter;"/>
   </g>
   <g id="patch_96">
    <path clip-path="url(#p43f0b9e48c)" d="M 241.63631 184.869375 
L 243.617834 184.869375 
L 243.617834 183.437907 
L 241.63631 183.437907 
z
" style="fill:#4c72b0;fill-opacity:0.5;stroke:#4c72b0;stroke-linejoin:miter;"/>
   </g>
   <g id="patch_97">
    <path clip-path="url(#p43f0b9e48c)" d="M 243.617844 184.869375 
L 245.599368 184.869375 
L 245.599368 183.187926 
L 243.617844 183.187926 
z
" style="fill:#4c72b0;fill-opacity:0.5;stroke:#4c72b0;stroke-linejoin:miter;"/>
   </g>
   <g id="patch_98">
    <path clip-path="url(#p43f0b9e48c)" d="M 245.599378 184.869375 
L 247.580902 184.869375 
L 247.580902 183.08925 
L 245.599378 183.08925 
z
" style="fill:#4c72b0;fill-opacity:0.5;stroke:#4c72b0;stroke-linejoin:miter;"/>
   </g>
   <g id="patch_99">
    <path clip-path="url(#p43f0b9e48c)" d="M 247.580907 184.869375 
L 249.56245 184.869375 
L 249.56245 183.22477 
L 247.580907 183.22477 
z
" style="fill:#4c72b0;fill-opacity:0.5;stroke:#4c72b0;stroke-linejoin:miter;"/>
   </g>
   <g id="patch_100">
    <path clip-path="url(#p43f0b9e48c)" d="M 249.56245 184.869375 
L 251.543974 184.869375 
L 251.543974 183.001099 
L 249.56245 183.001099 
z
" style="fill:#4c72b0;fill-opacity:0.5;stroke:#4c72b0;stroke-linejoin:miter;"/>
   </g>
   <g id="patch_101">
    <path clip-path="url(#p43f0b9e48c)" d="M 251.543984 184.869375 
L 253.525508 184.869375 
L 253.525508 183.078724 
L 251.543984 183.078724 
z
" style="fill:#4c72b0;fill-opacity:0.5;stroke:#4c72b0;stroke-linejoin:miter;"/>
   </g>
   <g id="patch_102">
    <path clip-path="url(#p43f0b9e48c)" d="M 253.525518 184.869375 
L 255.507042 184.869375 
L 255.507042 183.028728 
L 253.525518 183.028728 
z
" style="fill:#4c72b0;fill-opacity:0.5;stroke:#4c72b0;stroke-linejoin:miter;"/>
   </g>
   <g id="patch_103">
    <path clip-path="url(#p43f0b9e48c)" d="M 255.507052 184.869375 
L 257.488576 184.869375 
L 257.488576 183.069514 
L 255.507052 183.069514 
z
" style="fill:#4c72b0;fill-opacity:0.5;stroke:#4c72b0;stroke-linejoin:miter;"/>
   </g>
   <g id="patch_104">
    <path clip-path="url(#p43f0b9e48c)" d="M 257.488586 184.869375 
L 259.47011 184.869375 
L 259.47011 182.616918 
L 257.488586 182.616918 
z
" style="fill:#4c72b0;fill-opacity:0.5;stroke:#4c72b0;stroke-linejoin:miter;"/>
   </g>
   <g id="patch_105">
    <path clip-path="url(#p43f0b9e48c)" d="M 259.47012 184.869375 
L 261.451644 184.869375 
L 261.451644 182.281418 
L 259.47012 182.281418 
z
" style="fill:#4c72b0;fill-opacity:0.5;stroke:#4c72b0;stroke-linejoin:miter;"/>
   </g>
   <g id="patch_106">
    <path clip-path="url(#p43f0b9e48c)" d="M 261.451654 184.869375 
L 263.433177 184.869375 
L 263.433177 182.214317 
L 261.451654 182.214317 
z
" style="fill:#4c72b0;fill-opacity:0.5;stroke:#4c72b0;stroke-linejoin:miter;"/>
   </g>
   <g id="patch_107">
    <path clip-path="url(#p43f0b9e48c)" d="M 263.433187 184.869375 
L 265.414711 184.869375 
L 265.414711 182.593236 
L 263.433187 182.593236 
z
" style="fill:#4c72b0;fill-opacity:0.5;stroke:#4c72b0;stroke-linejoin:miter;"/>
   </g>
   <g id="patch_108">
    <path clip-path="url(#p43f0b9e48c)" d="M 265.414721 184.869375 
L 267.396245 184.869375 
L 267.396245 182.510347 
L 265.414721 182.510347 
z
" style="fill:#4c72b0;fill-opacity:0.5;stroke:#4c72b0;stroke-linejoin:miter;"/>
   </g>
   <g id="patch_109">
    <path clip-path="url(#p43f0b9e48c)" d="M 267.396255 184.869375 
L 269.377779 184.869375 
L 269.377779 181.527529 
L 267.396255 181.527529 
z
" style="fill:#4c72b0;fill-opacity:0.5;stroke:#4c72b0;stroke-linejoin:miter;"/>
   </g>
   <g id="patch_110">
    <path clip-path="url(#p43f0b9e48c)" d="M 269.377789 184.869375 
L 271.359313 184.869375 
L 271.359313 181.580156 
L 269.377789 181.580156 
z
" style="fill:#4c72b0;fill-opacity:0.5;stroke:#4c72b0;stroke-linejoin:miter;"/>
   </g>
   <g id="patch_111">
    <path clip-path="url(#p43f0b9e48c)" d="M 271.359323 184.869375 
L 273.340847 184.869375 
L 273.340847 182.42088 
L 271.359323 182.42088 
z
" style="fill:#4c72b0;fill-opacity:0.5;stroke:#4c72b0;stroke-linejoin:miter;"/>
   </g>
   <g id="patch_112">
    <path clip-path="url(#p43f0b9e48c)" d="M 273.340857 184.869375 
L 275.322381 184.869375 
L 275.322381 181.510425 
L 273.340857 181.510425 
z
" style="fill:#4c72b0;fill-opacity:0.5;stroke:#4c72b0;stroke-linejoin:miter;"/>
   </g>
   <g id="patch_113">
    <path clip-path="url(#p43f0b9e48c)" d="M 275.322391 184.869375 
L 277.303914 184.869375 
L 277.303914 181.776194 
L 275.322391 181.776194 
z
" style="fill:#4c72b0;fill-opacity:0.5;stroke:#4c72b0;stroke-linejoin:miter;"/>
   </g>
   <g id="patch_114">
    <path clip-path="url(#p43f0b9e48c)" d="M 277.303924 184.869375 
L 279.285448 184.869375 
L 279.285448 181.43543 
L 277.303924 181.43543 
z
" style="fill:#4c72b0;fill-opacity:0.5;stroke:#4c72b0;stroke-linejoin:miter;"/>
   </g>
   <g id="patch_115">
    <path clip-path="url(#p43f0b9e48c)" d="M 279.285448 184.869375 
L 281.266992 184.869375 
L 281.266992 181.613052 
L 279.285448 181.613052 
z
" style="fill:#4c72b0;fill-opacity:0.5;stroke:#4c72b0;stroke-linejoin:miter;"/>
   </g>
   <g id="patch_116">
    <path clip-path="url(#p43f0b9e48c)" d="M 281.266995 184.869375 
L 283.248519 184.869375 
L 283.248519 181.222289 
L 281.266995 181.222289 
z
" style="fill:#4c72b0;fill-opacity:0.5;stroke:#4c72b0;stroke-linejoin:miter;"/>
   </g>
   <g id="patch_117">
    <path clip-path="url(#p43f0b9e48c)" d="M 283.248528 184.869375 
L 285.230052 184.869375 
L 285.230052 181.544633 
L 283.248528 181.544633 
z
" style="fill:#4c72b0;fill-opacity:0.5;stroke:#4c72b0;stroke-linejoin:miter;"/>
   </g>
   <g id="patch_118">
    <path clip-path="url(#p43f0b9e48c)" d="M 285.230062 184.869375 
L 287.211586 184.869375 
L 287.211586 181.122297 
L 285.230062 181.122297 
z
" style="fill:#4c72b0;fill-opacity:0.5;stroke:#4c72b0;stroke-linejoin:miter;"/>
   </g>
   <g id="patch_119">
    <path clip-path="url(#p43f0b9e48c)" d="M 287.211596 184.869375 
L 289.19312 184.869375 
L 289.19312 179.689513 
L 287.211596 179.689513 
z
" style="fill:#4c72b0;fill-opacity:0.5;stroke:#4c72b0;stroke-linejoin:miter;"/>
   </g>
   <g id="patch_120">
    <path clip-path="url(#p43f0b9e48c)" d="M 289.19313 184.869375 
L 291.174654 184.869375 
L 291.174654 181.110456 
L 289.19313 181.110456 
z
" style="fill:#4c72b0;fill-opacity:0.5;stroke:#4c72b0;stroke-linejoin:miter;"/>
   </g>
   <g id="patch_121">
    <path clip-path="url(#p43f0b9e48c)" d="M 291.174664 184.869375 
L 293.156188 184.869375 
L 293.156188 180.809163 
L 291.174664 180.809163 
z
" style="fill:#4c72b0;fill-opacity:0.5;stroke:#4c72b0;stroke-linejoin:miter;"/>
   </g>
   <g id="patch_122">
    <path clip-path="url(#p43f0b9e48c)" d="M 293.156198 184.869375 
L 295.137722 184.869375 
L 295.137722 180.492082 
L 293.156198 180.492082 
z
" style="fill:#4c72b0;fill-opacity:0.5;stroke:#4c72b0;stroke-linejoin:miter;"/>
   </g>
   <g id="patch_123">
    <path clip-path="url(#p43f0b9e48c)" d="M 295.137722 184.869375 
L 297.119265 184.869375 
L 297.119265 179.902658 
L 295.137722 179.902658 
z
" style="fill:#4c72b0;fill-opacity:0.5;stroke:#4c72b0;stroke-linejoin:miter;"/>
   </g>
   <g id="patch_124">
    <path clip-path="url(#p43f0b9e48c)" d="M 297.119267 184.869375 
L 299.100791 184.869375 
L 299.100791 180.474979 
L 297.119267 180.474979 
z
" style="fill:#4c72b0;fill-opacity:0.5;stroke:#4c72b0;stroke-linejoin:miter;"/>
   </g>
   <g id="patch_125">
    <path clip-path="url(#p43f0b9e48c)" d="M 299.100801 184.869375 
L 301.082325 184.869375 
L 301.082325 180.349988 
L 299.100801 180.349988 
z
" style="fill:#4c72b0;fill-opacity:0.5;stroke:#4c72b0;stroke-linejoin:miter;"/>
   </g>
   <g id="patch_126">
    <path clip-path="url(#p43f0b9e48c)" d="M 301.082334 184.869375 
L 303.063858 184.869375 
L 303.063858 180.551288 
L 301.082334 180.551288 
z
" style="fill:#4c72b0;fill-opacity:0.5;stroke:#4c72b0;stroke-linejoin:miter;"/>
   </g>
   <g id="patch_127">
    <path clip-path="url(#p43f0b9e48c)" d="M 303.063858 184.869375 
L 305.045402 184.869375 
L 305.045402 180.411827 
L 303.063858 180.411827 
z
" style="fill:#4c72b0;fill-opacity:0.5;stroke:#4c72b0;stroke-linejoin:miter;"/>
   </g>
   <g id="patch_128">
    <path clip-path="url(#p43f0b9e48c)" d="M 305.045403 184.869375 
L 307.026927 184.869375 
L 307.026927 179.957913 
L 305.045403 179.957913 
z
" style="fill:#4c72b0;fill-opacity:0.5;stroke:#4c72b0;stroke-linejoin:miter;"/>
   </g>
   <g id="patch_129">
    <path clip-path="url(#p43f0b9e48c)" d="M 307.026927 184.869375 
L 309.00847 184.869375 
L 309.00847 180.150004 
L 307.026927 180.150004 
z
" style="fill:#4c72b0;fill-opacity:0.5;stroke:#4c72b0;stroke-linejoin:miter;"/>
   </g>
   <g id="patch_130">
    <path clip-path="url(#p43f0b9e48c)" d="M 309.008461 184.869375 
L 310.990005 184.869375 
L 310.990005 180.165793 
L 309.008461 180.165793 
z
" style="fill:#4c72b0;fill-opacity:0.5;stroke:#4c72b0;stroke-linejoin:miter;"/>
   </g>
   <g id="patch_131">
    <path clip-path="url(#p43f0b9e48c)" d="M 310.989995 184.869375 
L 312.971539 184.869375 
L 312.971539 177.380483 
L 310.989995 177.380483 
z
" style="fill:#4c72b0;fill-opacity:0.5;stroke:#4c72b0;stroke-linejoin:miter;"/>
   </g>
   <g id="patch_132">
    <path clip-path="url(#p43f0b9e48c)" d="M 312.97153 184.869375 
L 314.953073 184.869375 
L 314.953073 180.240787 
L 312.97153 180.240787 
z
" style="fill:#4c72b0;fill-opacity:0.5;stroke:#4c72b0;stroke-linejoin:miter;"/>
   </g>
   <g id="patch_133">
    <path clip-path="url(#p43f0b9e48c)" d="M 314.953073 184.869375 
L 316.934597 184.869375 
L 316.934597 179.969755 
L 314.953073 179.969755 
z
" style="fill:#4c72b0;fill-opacity:0.5;stroke:#4c72b0;stroke-linejoin:miter;"/>
   </g>
   <g id="patch_134">
    <path clip-path="url(#p43f0b9e48c)" d="M 316.934598 184.869375 
L 318.916142 184.869375 
L 318.916142 179.87108 
L 316.934598 179.87108 
z
" style="fill:#4c72b0;fill-opacity:0.5;stroke:#4c72b0;stroke-linejoin:miter;"/>
   </g>
   <g id="patch_135">
    <path clip-path="url(#p43f0b9e48c)" d="M 318.916142 184.869375 
L 320.897666 184.869375 
L 320.897666 180.430245 
L 318.916142 180.430245 
z
" style="fill:#4c72b0;fill-opacity:0.5;stroke:#4c72b0;stroke-linejoin:miter;"/>
   </g>
   <g id="patch_136">
    <path clip-path="url(#p43f0b9e48c)" d="M 320.897675 184.869375 
L 322.879199 184.869375 
L 322.879199 180.777587 
L 320.897675 180.777587 
z
" style="fill:#4c72b0;fill-opacity:0.5;stroke:#4c72b0;stroke-linejoin:miter;"/>
   </g>
   <g id="patch_137">
    <path clip-path="url(#p43f0b9e48c)" d="M 322.879209 184.869375 
L 324.860733 184.869375 
L 324.860733 180.74601 
L 322.879209 180.74601 
z
" style="fill:#4c72b0;fill-opacity:0.5;stroke:#4c72b0;stroke-linejoin:miter;"/>
   </g>
   <g id="patch_138">
    <path clip-path="url(#p43f0b9e48c)" d="M 324.860735 184.869375 
L 326.842278 184.869375 
L 326.842278 179.123771 
L 324.860735 179.123771 
z
" style="fill:#4c72b0;fill-opacity:0.5;stroke:#4c72b0;stroke-linejoin:miter;"/>
   </g>
   <g id="patch_139">
    <path clip-path="url(#p43f0b9e48c)" d="M 326.842278 184.869375 
L 328.823802 184.869375 
L 328.823802 180.686804 
L 326.842278 180.686804 
z
" style="fill:#4c72b0;fill-opacity:0.5;stroke:#4c72b0;stroke-linejoin:miter;"/>
   </g>
   <g id="patch_140">
    <path clip-path="url(#p43f0b9e48c)" d="M 328.823812 184.869375 
L 330.805336 184.869375 
L 330.805336 180.406563 
L 328.823812 180.406563 
z
" style="fill:#4c72b0;fill-opacity:0.5;stroke:#4c72b0;stroke-linejoin:miter;"/>
   </g>
   <g id="patch_141">
    <path clip-path="url(#p43f0b9e48c)" d="M 330.805346 184.869375 
L 332.78687 184.869375 
L 332.78687 181.551211 
L 330.805346 181.551211 
z
" style="fill:#4c72b0;fill-opacity:0.5;stroke:#4c72b0;stroke-linejoin:miter;"/>
   </g>
   <g id="patch_142">
    <path clip-path="url(#p43f0b9e48c)" d="M 332.78688 184.869375 
L 334.768404 184.869375 
L 334.768404 179.135609 
L 332.78688 179.135609 
z
" style="fill:#4c72b0;fill-opacity:0.5;stroke:#4c72b0;stroke-linejoin:miter;"/>
   </g>
   <g id="patch_143">
    <path clip-path="url(#p43f0b9e48c)" d="M 334.768414 184.869375 
L 336.749938 184.869375 
L 336.749938 180.647334 
L 334.768414 180.647334 
z
" style="fill:#4c72b0;fill-opacity:0.5;stroke:#4c72b0;stroke-linejoin:miter;"/>
   </g>
   <g id="patch_144">
    <path clip-path="url(#p43f0b9e48c)" d="M 336.749948 184.869375 
L 338.731472 184.869375 
L 338.731472 180.985465 
L 336.749948 180.985465 
z
" style="fill:#4c72b0;fill-opacity:0.5;stroke:#4c72b0;stroke-linejoin:miter;"/>
   </g>
   <g id="patch_145">
    <path clip-path="url(#p43f0b9e48c)" d="M 338.731481 184.869375 
L 340.713005 184.869375 
L 340.713005 181.517003 
L 338.731481 181.517003 
z
" style="fill:#4c72b0;fill-opacity:0.5;stroke:#4c72b0;stroke-linejoin:miter;"/>
   </g>
   <g id="patch_146">
    <path clip-path="url(#p43f0b9e48c)" d="M 340.713008 184.869375 
L 342.694552 184.869375 
L 342.694552 181.651207 
L 340.713008 181.651207 
z
" style="fill:#4c72b0;fill-opacity:0.5;stroke:#4c72b0;stroke-linejoin:miter;"/>
   </g>
   <g id="patch_147">
    <path clip-path="url(#p43f0b9e48c)" d="M 342.694552 184.869375 
L 344.676076 184.869375 
L 344.676076 181.219658 
L 342.694552 181.219658 
z
" style="fill:#4c72b0;fill-opacity:0.5;stroke:#4c72b0;stroke-linejoin:miter;"/>
   </g>
   <g id="patch_148">
    <path clip-path="url(#p43f0b9e48c)" d="M 344.676086 184.869375 
L 346.657609 184.869375 
L 346.657609 181.103877 
L 344.676086 181.103877 
z
" style="fill:#4c72b0;fill-opacity:0.5;stroke:#4c72b0;stroke-linejoin:miter;"/>
   </g>
   <g id="patch_149">
    <path clip-path="url(#p43f0b9e48c)" d="M 346.657619 184.869375 
L 348.639143 184.869375 
L 348.639143 181.718303 
L 346.657619 181.718303 
z
" style="fill:#4c72b0;fill-opacity:0.5;stroke:#4c72b0;stroke-linejoin:miter;"/>
   </g>
   <g id="patch_150">
    <path clip-path="url(#p43f0b9e48c)" d="M 348.639153 184.869375 
L 350.620677 184.869375 
L 350.620677 181.976178 
L 348.639153 181.976178 
z
" style="fill:#4c72b0;fill-opacity:0.5;stroke:#4c72b0;stroke-linejoin:miter;"/>
   </g>
   <g id="patch_151">
    <path clip-path="url(#p43f0b9e48c)" d="M 350.620687 184.869375 
L 352.602211 184.869375 
L 352.602211 181.836715 
L 350.620687 181.836715 
z
" style="fill:#4c72b0;fill-opacity:0.5;stroke:#4c72b0;stroke-linejoin:miter;"/>
   </g>
   <g id="patch_152">
    <path clip-path="url(#p43f0b9e48c)" d="M 352.602221 184.869375 
L 354.583745 184.869375 
L 354.583745 181.363068 
L 352.602221 181.363068 
z
" style="fill:#4c72b0;fill-opacity:0.5;stroke:#4c72b0;stroke-linejoin:miter;"/>
   </g>
   <g id="patch_153">
    <path clip-path="url(#p43f0b9e48c)" d="M 354.583755 184.869375 
L 356.565279 184.869375 
L 356.565279 182.364306 
L 354.583755 182.364306 
z
" style="fill:#4c72b0;fill-opacity:0.5;stroke:#4c72b0;stroke-linejoin:miter;"/>
   </g>
   <g id="patch_154">
    <path clip-path="url(#p43f0b9e48c)" d="M 356.565289 184.869375 
L 358.546813 184.869375 
L 358.546813 182.340623 
L 356.565289 182.340623 
z
" style="fill:#4c72b0;fill-opacity:0.5;stroke:#4c72b0;stroke-linejoin:miter;"/>
   </g>
   <g id="patch_155">
    <path clip-path="url(#p43f0b9e48c)" d="M 358.546823 184.869375 
L 360.528346 184.869375 
L 360.528346 181.915656 
L 358.546823 181.915656 
z
" style="fill:#4c72b0;fill-opacity:0.5;stroke:#4c72b0;stroke-linejoin:miter;"/>
   </g>
   <g id="patch_156">
    <path clip-path="url(#p43f0b9e48c)" d="M 360.528356 184.869375 
L 362.50988 184.869375 
L 362.50988 182.615602 
L 360.528356 182.615602 
z
" style="fill:#4c72b0;fill-opacity:0.5;stroke:#4c72b0;stroke-linejoin:miter;"/>
   </g>
   <g id="patch_157">
    <path clip-path="url(#p43f0b9e48c)" d="M 362.50989 184.869375 
L 364.491414 184.869375 
L 364.491414 182.270892 
L 362.50989 182.270892 
z
" style="fill:#4c72b0;fill-opacity:0.5;stroke:#4c72b0;stroke-linejoin:miter;"/>
   </g>
   <g id="patch_158">
    <path clip-path="url(#p43f0b9e48c)" d="M 364.491424 184.869375 
L 366.472948 184.869375 
L 366.472948 182.933999 
L 364.491424 182.933999 
z
" style="fill:#4c72b0;fill-opacity:0.5;stroke:#4c72b0;stroke-linejoin:miter;"/>
   </g>
   <g id="patch_159">
    <path clip-path="url(#p43f0b9e48c)" d="M 366.472958 184.869375 
L 368.454482 184.869375 
L 368.454482 182.912948 
L 366.472958 182.912948 
z
" style="fill:#4c72b0;fill-opacity:0.5;stroke:#4c72b0;stroke-linejoin:miter;"/>
   </g>
   <g id="patch_160">
    <path clip-path="url(#p43f0b9e48c)" d="M 368.454492 184.869375 
L 370.436016 184.869375 
L 370.436016 182.930052 
L 368.454492 182.930052 
z
" style="fill:#4c72b0;fill-opacity:0.5;stroke:#4c72b0;stroke-linejoin:miter;"/>
   </g>
   <g id="patch_161">
    <path clip-path="url(#p43f0b9e48c)" d="M 370.436026 184.869375 
L 372.41755 184.869375 
L 372.41755 182.939261 
L 370.436026 182.939261 
z
" style="fill:#4c72b0;fill-opacity:0.5;stroke:#4c72b0;stroke-linejoin:miter;"/>
   </g>
   <g id="patch_162">
    <path clip-path="url(#p43f0b9e48c)" d="M 372.41755 184.869375 
L 374.399093 184.869375 
L 374.399093 183.164248 
L 372.41755 183.164248 
z
" style="fill:#4c72b0;fill-opacity:0.5;stroke:#4c72b0;stroke-linejoin:miter;"/>
   </g>
   <g id="patch_163">
    <path clip-path="url(#p43f0b9e48c)" d="M 374.399098 184.869375 
L 376.380622 184.869375 
L 376.380622 183.287919 
L 374.399098 183.287919 
z
" style="fill:#4c72b0;fill-opacity:0.5;stroke:#4c72b0;stroke-linejoin:miter;"/>
   </g>
   <g id="patch_164">
    <path clip-path="url(#p43f0b9e48c)" d="M 376.380632 184.869375 
L 378.362156 184.869375 
L 378.362156 183.331336 
L 376.380632 183.331336 
z
" style="fill:#4c72b0;fill-opacity:0.5;stroke:#4c72b0;stroke-linejoin:miter;"/>
   </g>
   <g id="patch_165">
    <path clip-path="url(#p43f0b9e48c)" d="M 378.362166 184.869375 
L 380.34369 184.869375 
L 380.34369 183.783933 
L 378.362166 183.783933 
z
" style="fill:#4c72b0;fill-opacity:0.5;stroke:#4c72b0;stroke-linejoin:miter;"/>
   </g>
   <g id="patch_166">
    <path clip-path="url(#p43f0b9e48c)" d="M 380.3437 184.869375 
L 382.325224 184.869375 
L 382.325224 183.483956 
L 380.3437 183.483956 
z
" style="fill:#4c72b0;fill-opacity:0.5;stroke:#4c72b0;stroke-linejoin:miter;"/>
   </g>
   <g id="patch_167">
    <path clip-path="url(#p43f0b9e48c)" d="M 382.325234 184.869375 
L 384.306758 184.869375 
L 384.306758 183.661574 
L 382.325234 183.661574 
z
" style="fill:#4c72b0;fill-opacity:0.5;stroke:#4c72b0;stroke-linejoin:miter;"/>
   </g>
   <g id="patch_168">
    <path clip-path="url(#p43f0b9e48c)" d="M 384.306768 184.869375 
L 386.288292 184.869375 
L 386.288292 183.857611 
L 384.306768 183.857611 
z
" style="fill:#4c72b0;fill-opacity:0.5;stroke:#4c72b0;stroke-linejoin:miter;"/>
   </g>
   <g id="patch_169">
    <path clip-path="url(#p43f0b9e48c)" d="M 386.288302 184.869375 
L 388.269825 184.869375 
L 388.269825 183.818141 
L 386.288302 183.818141 
z
" style="fill:#4c72b0;fill-opacity:0.5;stroke:#4c72b0;stroke-linejoin:miter;"/>
   </g>
   <g id="patch_170">
    <path clip-path="url(#p43f0b9e48c)" d="M 388.269835 184.869375 
L 390.251359 184.869375 
L 390.251359 183.887872 
L 388.269835 183.887872 
z
" style="fill:#4c72b0;fill-opacity:0.5;stroke:#4c72b0;stroke-linejoin:miter;"/>
   </g>
   <g id="patch_171">
    <path clip-path="url(#p43f0b9e48c)" d="M 390.251369 184.869375 
L 392.232893 184.869375 
L 392.232893 184.052333 
L 390.251369 184.052333 
z
" style="fill:#4c72b0;fill-opacity:0.5;stroke:#4c72b0;stroke-linejoin:miter;"/>
   </g>
   <g id="patch_172">
    <path clip-path="url(#p43f0b9e48c)" d="M 392.232903 184.869375 
L 394.214427 184.869375 
L 394.214427 183.06162 
L 392.232903 183.06162 
z
" style="fill:#4c72b0;fill-opacity:0.5;stroke:#4c72b0;stroke-linejoin:miter;"/>
   </g>
   <g id="patch_173">
    <path clip-path="url(#p43f0b9e48c)" d="M 394.214432 184.869375 
L 396.195956 184.869375 
L 396.195956 182.848479 
L 394.214432 182.848479 
z
" style="fill:#4c72b0;fill-opacity:0.5;stroke:#4c72b0;stroke-linejoin:miter;"/>
   </g>
   <g id="patch_174">
    <path clip-path="url(#p43f0b9e48c)" d="M 396.195976 184.869375 
L 398.1775 184.869375 
L 398.1775 179.742141 
L 396.195976 179.742141 
z
" style="fill:#4c72b0;fill-opacity:0.5;stroke:#4c72b0;stroke-linejoin:miter;"/>
   </g>
   <g id="patch_175">
    <path clip-path="url(#p43f0b9e48c)" d="M 398.1775 184.869375 
L 400.159024 184.869375 
L 400.159024 172.820308 
L 398.1775 172.820308 
z
" style="fill:#4c72b0;fill-opacity:0.5;stroke:#4c72b0;stroke-linejoin:miter;"/>
   </g>
   <g id="patch_176">
    <path clip-path="url(#p43f0b9e48c)" d="M 400.159043 184.869375 
L 402.140567 184.869375 
L 402.140567 174.104419 
L 400.159043 174.104419 
z
" style="fill:#4c72b0;fill-opacity:0.5;stroke:#4c72b0;stroke-linejoin:miter;"/>
   </g>
   <g id="patch_177">
    <path clip-path="url(#p43f0b9e48c)" d="M 402.140567 184.869375 
L 404.122091 184.869375 
L 404.122091 173.305797 
L 402.140567 173.305797 
z
" style="fill:#4c72b0;fill-opacity:0.5;stroke:#4c72b0;stroke-linejoin:miter;"/>
   </g>
   <g id="patch_178">
    <path clip-path="url(#p43f0b9e48c)" d="M 404.122111 184.869375 
L 406.103635 184.869375 
L 406.103635 170.108676 
L 404.122111 170.108676 
z
" style="fill:#4c72b0;fill-opacity:0.5;stroke:#4c72b0;stroke-linejoin:miter;"/>
   </g>
   <g id="patch_179">
    <path clip-path="url(#p43f0b9e48c)" d="M 406.103635 184.869375 
L 408.085159 184.869375 
L 408.085159 171.350685 
L 406.103635 171.350685 
z
" style="fill:#4c72b0;fill-opacity:0.5;stroke:#4c72b0;stroke-linejoin:miter;"/>
   </g>
   <g id="patch_180">
    <path clip-path="url(#p43f0b9e48c)" d="M 408.085179 184.869375 
L 410.066703 184.869375 
L 410.066703 172.282192 
L 408.085179 172.282192 
z
" style="fill:#4c72b0;fill-opacity:0.5;stroke:#4c72b0;stroke-linejoin:miter;"/>
   </g>
   <g id="patch_181">
    <path clip-path="url(#p43f0b9e48c)" d="M 410.066703 184.869375 
L 412.048227 184.869375 
L 412.048227 173.716292 
L 410.066703 173.716292 
z
" style="fill:#4c72b0;fill-opacity:0.5;stroke:#4c72b0;stroke-linejoin:miter;"/>
   </g>
   <g id="patch_182">
    <path clip-path="url(#p43f0b9e48c)" d="M 412.048247 184.869375 
L 414.029771 184.869375 
L 414.029771 177.285752 
L 412.048247 177.285752 
z
" style="fill:#4c72b0;fill-opacity:0.5;stroke:#4c72b0;stroke-linejoin:miter;"/>
   </g>
   <g id="patch_183">
    <path clip-path="url(#p43f0b9e48c)" d="M 414.029771 184.869375 
L 416.011294 184.869375 
L 416.011294 177.981751 
L 414.029771 177.981751 
z
" style="fill:#4c72b0;fill-opacity:0.5;stroke:#4c72b0;stroke-linejoin:miter;"/>
   </g>
   <g id="patch_184">
    <path clip-path="url(#p43f0b9e48c)" d="M 416.011314 184.869375 
L 417.992838 184.869375 
L 417.992838 178.519867 
L 416.011314 178.519867 
z
" style="fill:#4c72b0;fill-opacity:0.5;stroke:#4c72b0;stroke-linejoin:miter;"/>
   </g>
   <g id="patch_185">
    <path clip-path="url(#p43f0b9e48c)" d="M 417.992838 184.869375 
L 419.974362 184.869375 
L 419.974362 179.289544 
L 417.992838 179.289544 
z
" style="fill:#4c72b0;fill-opacity:0.5;stroke:#4c72b0;stroke-linejoin:miter;"/>
   </g>
   <g id="patch_186">
    <path clip-path="url(#p43f0b9e48c)" d="M 419.974382 184.869375 
L 421.955906 184.869375 
L 421.955906 179.726352 
L 419.974382 179.726352 
z
" style="fill:#4c72b0;fill-opacity:0.5;stroke:#4c72b0;stroke-linejoin:miter;"/>
   </g>
   <g id="patch_187">
    <path clip-path="url(#p43f0b9e48c)" d="M 421.955906 184.869375 
L 423.93743 184.869375 
L 423.93743 180.165792 
L 421.955906 180.165792 
z
" style="fill:#4c72b0;fill-opacity:0.5;stroke:#4c72b0;stroke-linejoin:miter;"/>
   </g>
   <g id="patch_188">
    <path clip-path="url(#p43f0b9e48c)" d="M 423.93745 184.869375 
L 425.918974 184.869375 
L 425.918974 180.560498 
L 423.93745 180.560498 
z
" style="fill:#4c72b0;fill-opacity:0.5;stroke:#4c72b0;stroke-linejoin:miter;"/>
   </g>
   <g id="patch_189">
    <path clip-path="url(#p43f0b9e48c)" d="M 425.918974 184.869375 
L 427.900498 184.869375 
L 427.900498 182.616918 
L 425.918974 182.616918 
z
" style="fill:#4c72b0;fill-opacity:0.5;stroke:#4c72b0;stroke-linejoin:miter;"/>
   </g>
   <g id="patch_190">
    <path clip-path="url(#p43f0b9e48c)" d="M 427.900517 184.869375 
L 429.882041 184.869375 
L 429.882041 183.604999 
L 427.900517 183.604999 
z
" style="fill:#4c72b0;fill-opacity:0.5;stroke:#4c72b0;stroke-linejoin:miter;"/>
   </g>
   <g id="patch_191">
    <path clip-path="url(#p43f0b9e48c)" d="M 429.882041 184.869375 
L 431.863565 184.869375 
L 431.863565 183.669468 
L 429.882041 183.669468 
z
" style="fill:#4c72b0;fill-opacity:0.5;stroke:#4c72b0;stroke-linejoin:miter;"/>
   </g>
   <g id="patch_192">
    <path clip-path="url(#p43f0b9e48c)" d="M 431.863585 184.869375 
L 433.845109 184.869375 
L 433.845109 183.772092 
L 431.863585 183.772092 
z
" style="fill:#4c72b0;fill-opacity:0.5;stroke:#4c72b0;stroke-linejoin:miter;"/>
   </g>
   <g id="patch_193">
    <path clip-path="url(#p43f0b9e48c)" d="M 433.845109 184.869375 
L 435.826633 184.869375 
L 435.826633 183.954972 
L 433.845109 183.954972 
z
" style="fill:#4c72b0;fill-opacity:0.5;stroke:#4c72b0;stroke-linejoin:miter;"/>
   </g>
   <g id="patch_194">
    <path clip-path="url(#p43f0b9e48c)" d="M 435.826653 184.869375 
L 437.808177 184.869375 
L 437.808177 183.981286 
L 435.826653 183.981286 
z
" style="fill:#4c72b0;fill-opacity:0.5;stroke:#4c72b0;stroke-linejoin:miter;"/>
   </g>
   <g id="patch_195">
    <path clip-path="url(#p43f0b9e48c)" d="M 437.808177 184.869375 
L 439.789721 184.869375 
L 439.789721 184.051021 
L 437.808177 184.051021 
z
" style="fill:#4c72b0;fill-opacity:0.5;stroke:#4c72b0;stroke-linejoin:miter;"/>
   </g>
   <g id="patch_196">
    <path clip-path="url(#p43f0b9e48c)" d="M 439.789721 184.869375 
L 441.771245 184.869375 
L 441.771245 184.198374 
L 439.789721 184.198374 
z
" style="fill:#4c72b0;fill-opacity:0.5;stroke:#4c72b0;stroke-linejoin:miter;"/>
   </g>
   <g id="patch_197">
    <path clip-path="url(#p43f0b9e48c)" d="M 441.771264 184.869375 
L 443.752788 184.869375 
L 443.752788 184.212847 
L 441.771264 184.212847 
z
" style="fill:#4c72b0;fill-opacity:0.5;stroke:#4c72b0;stroke-linejoin:miter;"/>
   </g>
   <g id="patch_198">
    <path clip-path="url(#p43f0b9e48c)" d="M 443.752788 184.869375 
L 445.734312 184.869375 
L 445.734312 184.260212 
L 443.752788 184.260212 
z
" style="fill:#4c72b0;fill-opacity:0.5;stroke:#4c72b0;stroke-linejoin:miter;"/>
   </g>
   <g id="patch_199">
    <path clip-path="url(#p43f0b9e48c)" d="M 445.734332 184.869375 
L 447.715856 184.869375 
L 447.715856 184.308892 
L 445.734332 184.308892 
z
" style="fill:#4c72b0;fill-opacity:0.5;stroke:#4c72b0;stroke-linejoin:miter;"/>
   </g>
   <g id="patch_200">
    <path clip-path="url(#p43f0b9e48c)" d="M 447.715856 184.869375 
L 449.69738 184.869375 
L 449.69738 184.399675 
L 447.715856 184.399675 
z
" style="fill:#4c72b0;fill-opacity:0.5;stroke:#4c72b0;stroke-linejoin:miter;"/>
   </g>
   <g id="patch_201">
    <path clip-path="url(#p43f0b9e48c)" d="M 449.6974 184.869375 
L 451.678924 184.869375 
L 451.678924 184.470722 
L 449.6974 184.470722 
z
" style="fill:#4c72b0;fill-opacity:0.5;stroke:#4c72b0;stroke-linejoin:miter;"/>
   </g>
   <g id="patch_202">
    <path clip-path="url(#p43f0b9e48c)" d="M 451.678924 184.869375 
L 453.660448 184.869375 
L 453.660448 184.447039 
L 451.678924 184.447039 
z
" style="fill:#4c72b0;fill-opacity:0.5;stroke:#4c72b0;stroke-linejoin:miter;"/>
   </g>
   <g id="patch_203">
    <path clip-path="url(#p43f0b9e48c)" d="M 453.660468 184.869375 
L 455.641992 184.869375 
L 455.641992 184.464143 
L 453.660468 184.464143 
z
" style="fill:#4c72b0;fill-opacity:0.5;stroke:#4c72b0;stroke-linejoin:miter;"/>
   </g>
   <g id="patch_204">
    <path clip-path="url(#p43f0b9e48c)" d="M 455.641992 184.869375 
L 457.623515 184.869375 
L 457.623515 184.55361 
L 455.641992 184.55361 
z
" style="fill:#4c72b0;fill-opacity:0.5;stroke:#4c72b0;stroke-linejoin:miter;"/>
   </g>
   <g id="patch_205">
    <path clip-path="url(#p43f0b9e48c)" d="M 457.623535 184.869375 
L 459.605059 184.869375 
L 459.605059 184.565451 
L 457.623535 184.565451 
z
" style="fill:#4c72b0;fill-opacity:0.5;stroke:#4c72b0;stroke-linejoin:miter;"/>
   </g>
   <g id="patch_206">
    <path clip-path="url(#p43f0b9e48c)" d="M 459.605059 184.869375 
L 461.586583 184.869375 
L 461.586583 184.582555 
L 459.605059 184.582555 
z
" style="fill:#4c72b0;fill-opacity:0.5;stroke:#4c72b0;stroke-linejoin:miter;"/>
   </g>
   <g id="patch_207">
    <path clip-path="url(#p43f0b9e48c)" d="M 461.586603 184.869375 
L 463.568127 184.869375 
L 463.568127 184.594396 
L 461.586603 184.594396 
z
" style="fill:#4c72b0;fill-opacity:0.5;stroke:#4c72b0;stroke-linejoin:miter;"/>
   </g>
   <g id="patch_208">
    <path clip-path="url(#p43f0b9e48c)" d="M 463.568127 184.869375 
L 465.549651 184.869375 
L 465.549651 184.644392 
L 463.568127 184.644392 
z
" style="fill:#4c72b0;fill-opacity:0.5;stroke:#4c72b0;stroke-linejoin:miter;"/>
   </g>
   <g id="patch_209">
    <path clip-path="url(#p43f0b9e48c)" d="M 465.549671 184.869375 
L 467.531195 184.869375 
L 467.531195 184.660181 
L 465.549671 184.660181 
z
" style="fill:#4c72b0;fill-opacity:0.5;stroke:#4c72b0;stroke-linejoin:miter;"/>
   </g>
   <g id="patch_210">
    <path clip-path="url(#p43f0b9e48c)" d="M 467.531195 184.869375 
L 469.512719 184.869375 
L 469.512719 184.694389 
L 467.531195 184.694389 
z
" style="fill:#4c72b0;fill-opacity:0.5;stroke:#4c72b0;stroke-linejoin:miter;"/>
   </g>
   <g id="patch_211">
    <path clip-path="url(#p43f0b9e48c)" d="M 469.512738 184.869375 
L 471.494262 184.869375 
L 471.494262 184.685179 
L 469.512738 184.685179 
z
" style="fill:#4c72b0;fill-opacity:0.5;stroke:#4c72b0;stroke-linejoin:miter;"/>
   </g>
   <g id="patch_212">
    <path clip-path="url(#p43f0b9e48c)" d="M 471.494262 184.869375 
L 473.475786 184.869375 
L 473.475786 184.69702 
L 471.494262 184.69702 
z
" style="fill:#4c72b0;fill-opacity:0.5;stroke:#4c72b0;stroke-linejoin:miter;"/>
   </g>
   <g id="patch_213">
    <path clip-path="url(#p43f0b9e48c)" d="M 473.475806 184.869375 
L 475.45733 184.869375 
L 475.45733 184.736491 
L 473.475806 184.736491 
z
" style="fill:#4c72b0;fill-opacity:0.5;stroke:#4c72b0;stroke-linejoin:miter;"/>
   </g>
   <g id="patch_214">
    <path clip-path="url(#p43f0b9e48c)" d="M 475.45733 184.869375 
L 477.438854 184.869375 
L 477.438854 184.737806 
L 475.45733 184.737806 
z
" style="fill:#4c72b0;fill-opacity:0.5;stroke:#4c72b0;stroke-linejoin:miter;"/>
   </g>
   <g id="patch_215">
    <path clip-path="url(#p43f0b9e48c)" d="M 477.438874 184.869375 
L 479.420398 184.869375 
L 479.420398 184.740438 
L 477.438874 184.740438 
z
" style="fill:#4c72b0;fill-opacity:0.5;stroke:#4c72b0;stroke-linejoin:miter;"/>
   </g>
   <g id="patch_216">
    <path clip-path="url(#p43f0b9e48c)" d="M 479.420378 184.869375 
L 481.401922 184.869375 
L 481.401922 184.770699 
L 479.420378 184.770699 
z
" style="fill:#4c72b0;fill-opacity:0.5;stroke:#4c72b0;stroke-linejoin:miter;"/>
   </g>
   <g id="patch_217">
    <path clip-path="url(#p43f0b9e48c)" d="M 481.401942 184.869375 
L 483.383466 184.869375 
L 483.383466 184.770698 
L 481.401942 184.770698 
z
" style="fill:#4c72b0;fill-opacity:0.5;stroke:#4c72b0;stroke-linejoin:miter;"/>
   </g>
   <g id="patch_218">
    <path clip-path="url(#p43f0b9e48c)" d="M 483.383466 184.869375 
L 485.365009 184.869375 
L 485.365009 184.777277 
L 483.383466 184.777277 
z
" style="fill:#4c72b0;fill-opacity:0.5;stroke:#4c72b0;stroke-linejoin:miter;"/>
   </g>
   <g id="patch_219">
    <path clip-path="url(#p43f0b9e48c)" d="M 485.365009 184.869375 
L 487.346533 184.869375 
L 487.346533 184.791749 
L 485.365009 184.791749 
z
" style="fill:#4c72b0;fill-opacity:0.5;stroke:#4c72b0;stroke-linejoin:miter;"/>
   </g>
   <g id="patch_220">
    <path clip-path="url(#p43f0b9e48c)" d="M 487.346513 184.869375 
L 489.328057 184.869375 
L 489.328057 184.794381 
L 487.346513 184.794381 
z
" style="fill:#4c72b0;fill-opacity:0.5;stroke:#4c72b0;stroke-linejoin:miter;"/>
   </g>
   <g id="patch_221">
    <path clip-path="url(#p43f0b9e48c)" d="M 489.328077 184.869375 
L 491.309601 184.869375 
L 491.309601 184.806222 
L 489.328077 184.806222 
z
" style="fill:#4c72b0;fill-opacity:0.5;stroke:#4c72b0;stroke-linejoin:miter;"/>
   </g>
   <g id="patch_222">
    <path clip-path="url(#p43f0b9e48c)" d="M 491.309601 184.869375 
L 493.291145 184.869375 
L 493.291145 184.818063 
L 491.309601 184.818063 
z
" style="fill:#4c72b0;fill-opacity:0.5;stroke:#4c72b0;stroke-linejoin:miter;"/>
   </g>
   <g id="patch_223">
    <path clip-path="url(#p43f0b9e48c)" d="M 493.291145 184.869375 
L 495.272669 184.869375 
L 495.272669 184.802275 
L 493.291145 184.802275 
z
" style="fill:#4c72b0;fill-opacity:0.5;stroke:#4c72b0;stroke-linejoin:miter;"/>
   </g>
   <g id="patch_224">
    <path clip-path="url(#p43f0b9e48c)" d="M 495.272649 184.869375 
L 497.254193 184.869375 
L 497.254193 184.829905 
L 495.272649 184.829905 
z
" style="fill:#4c72b0;fill-opacity:0.5;stroke:#4c72b0;stroke-linejoin:miter;"/>
   </g>
   <g id="patch_225">
    <path clip-path="url(#p43f0b9e48c)" d="M 497.254212 184.869375 
L 499.235736 184.869375 
L 499.235736 184.816747 
L 497.254212 184.816747 
z
" style="fill:#4c72b0;fill-opacity:0.5;stroke:#4c72b0;stroke-linejoin:miter;"/>
   </g>
   <g id="patch_226">
    <path clip-path="url(#p43f0b9e48c)" d="M 499.235736 184.869375 
L 501.21728 184.869375 
L 501.21728 184.833852 
L 499.235736 184.833852 
z
" style="fill:#4c72b0;fill-opacity:0.5;stroke:#4c72b0;stroke-linejoin:miter;"/>
   </g>
   <g id="patch_227">
    <path clip-path="url(#p43f0b9e48c)" d="M 501.21728 184.869375 
L 503.198804 184.869375 
L 503.198804 184.835167 
L 501.21728 184.835167 
z
" style="fill:#4c72b0;fill-opacity:0.5;stroke:#4c72b0;stroke-linejoin:miter;"/>
   </g>
   <g id="patch_228">
    <path clip-path="url(#p43f0b9e48c)" d="M 503.198784 184.869375 
L 505.180328 184.869375 
L 505.180328 184.828589 
L 503.198784 184.828589 
z
" style="fill:#4c72b0;fill-opacity:0.5;stroke:#4c72b0;stroke-linejoin:miter;"/>
   </g>
   <g id="patch_229">
    <path clip-path="url(#p43f0b9e48c)" d="M 505.180348 184.869375 
L 507.161872 184.869375 
L 507.161872 184.829904 
L 505.180348 184.829904 
z
" style="fill:#4c72b0;fill-opacity:0.5;stroke:#4c72b0;stroke-linejoin:miter;"/>
   </g>
   <g id="patch_230">
    <path clip-path="url(#p43f0b9e48c)" d="M 507.161872 184.869375 
L 509.143416 184.869375 
L 509.143416 184.843061 
L 507.161872 184.843061 
z
" style="fill:#4c72b0;fill-opacity:0.5;stroke:#4c72b0;stroke-linejoin:miter;"/>
   </g>
   <g id="patch_231">
    <path clip-path="url(#p43f0b9e48c)" d="M 509.143416 184.869375 
L 511.12494 184.869375 
L 511.12494 184.848324 
L 509.143416 184.848324 
z
" style="fill:#4c72b0;fill-opacity:0.5;stroke:#4c72b0;stroke-linejoin:miter;"/>
   </g>
   <g id="patch_232">
    <path clip-path="url(#p43f0b9e48c)" d="M 511.12492 184.869375 
L 513.106463 184.869375 
L 513.106463 184.854903 
L 511.12492 184.854903 
z
" style="fill:#4c72b0;fill-opacity:0.5;stroke:#4c72b0;stroke-linejoin:miter;"/>
   </g>
   <g id="patch_233">
    <path clip-path="url(#p43f0b9e48c)" d="M 513.106483 184.869375 
L 515.088007 184.869375 
L 515.088007 184.860165 
L 513.106483 184.860165 
z
" style="fill:#4c72b0;fill-opacity:0.5;stroke:#4c72b0;stroke-linejoin:miter;"/>
   </g>
   <g id="patch_234">
    <path clip-path="url(#p43f0b9e48c)" d="M 515.088007 184.869375 
L 517.069551 184.869375 
L 517.069551 184.84964 
L 515.088007 184.84964 
z
" style="fill:#4c72b0;fill-opacity:0.5;stroke:#4c72b0;stroke-linejoin:miter;"/>
   </g>
   <g id="patch_235">
    <path clip-path="url(#p43f0b9e48c)" d="M 517.069551 184.869375 
L 519.051075 184.869375 
L 519.051075 184.861481 
L 517.069551 184.861481 
z
" style="fill:#4c72b0;fill-opacity:0.5;stroke:#4c72b0;stroke-linejoin:miter;"/>
   </g>
   <g id="patch_236">
    <path clip-path="url(#p43f0b9e48c)" d="M 519.051055 184.869375 
L 521.032599 184.869375 
L 521.032599 184.862797 
L 519.051055 184.862797 
z
" style="fill:#4c72b0;fill-opacity:0.5;stroke:#4c72b0;stroke-linejoin:miter;"/>
   </g>
   <g id="patch_237">
    <path clip-path="url(#p43f0b9e48c)" d="M 521.032619 184.869375 
L 523.014143 184.869375 
L 523.014143 184.853587 
L 521.032619 184.853587 
z
" style="fill:#4c72b0;fill-opacity:0.5;stroke:#4c72b0;stroke-linejoin:miter;"/>
   </g>
   <g id="patch_238">
    <path clip-path="url(#p43f0b9e48c)" d="M 523.014143 184.869375 
L 524.995686 184.869375 
L 524.995686 184.853587 
L 523.014143 184.853587 
z
" style="fill:#4c72b0;fill-opacity:0.5;stroke:#4c72b0;stroke-linejoin:miter;"/>
   </g>
   <g id="patch_239">
    <path clip-path="url(#p43f0b9e48c)" d="M 524.995686 184.869375 
L 526.97721 184.869375 
L 526.97721 184.857534 
L 524.995686 184.857534 
z
" style="fill:#4c72b0;fill-opacity:0.5;stroke:#4c72b0;stroke-linejoin:miter;"/>
   </g>
   <g id="patch_240">
    <path clip-path="url(#p43f0b9e48c)" d="M 526.977191 184.869375 
L 528.958734 184.869375 
L 528.958734 184.862797 
L 526.977191 184.862797 
z
" style="fill:#4c72b0;fill-opacity:0.5;stroke:#4c72b0;stroke-linejoin:miter;"/>
   </g>
   <g id="patch_241">
    <path clip-path="url(#p43f0b9e48c)" d="M 528.958754 184.869375 
L 530.940278 184.869375 
L 530.940278 184.862797 
L 528.958754 184.862797 
z
" style="fill:#4c72b0;fill-opacity:0.5;stroke:#4c72b0;stroke-linejoin:miter;"/>
   </g>
   <g id="patch_242">
    <path clip-path="url(#p43f0b9e48c)" d="M 530.940278 184.869375 
L 532.921822 184.869375 
L 532.921822 184.860165 
L 530.940278 184.860165 
z
" style="fill:#4c72b0;fill-opacity:0.5;stroke:#4c72b0;stroke-linejoin:miter;"/>
   </g>
   <g id="patch_243">
    <path clip-path="url(#p43f0b9e48c)" d="M 532.921822 184.869375 
L 534.903346 184.869375 
L 534.903346 184.865428 
L 532.921822 184.865428 
z
" style="fill:#4c72b0;fill-opacity:0.5;stroke:#4c72b0;stroke-linejoin:miter;"/>
   </g>
   <g id="patch_244">
    <path clip-path="url(#p43f0b9e48c)" d="M 534.903326 184.869375 
L 536.88487 184.869375 
L 536.88487 184.861481 
L 534.903326 184.861481 
z
" style="fill:#4c72b0;fill-opacity:0.5;stroke:#4c72b0;stroke-linejoin:miter;"/>
   </g>
   <g id="patch_245">
    <path clip-path="url(#p43f0b9e48c)" d="M 536.88489 184.869375 
L 538.866414 184.869375 
L 538.866414 184.862797 
L 536.88489 184.862797 
z
" style="fill:#4c72b0;fill-opacity:0.5;stroke:#4c72b0;stroke-linejoin:miter;"/>
   </g>
   <g id="patch_246">
    <path clip-path="url(#p43f0b9e48c)" d="M 538.866414 184.869375 
L 540.847957 184.869375 
L 540.847957 184.857534 
L 538.866414 184.857534 
z
" style="fill:#4c72b0;fill-opacity:0.5;stroke:#4c72b0;stroke-linejoin:miter;"/>
   </g>
   <g id="patch_247">
    <path clip-path="url(#p43f0b9e48c)" d="M 540.847957 184.869375 
L 542.829481 184.869375 
L 542.829481 184.865428 
L 540.847957 184.865428 
z
" style="fill:#4c72b0;fill-opacity:0.5;stroke:#4c72b0;stroke-linejoin:miter;"/>
   </g>
   <g id="patch_248">
    <path clip-path="url(#p43f0b9e48c)" d="M 542.829461 184.869375 
L 544.811005 184.869375 
L 544.811005 184.866744 
L 542.829461 184.866744 
z
" style="fill:#4c72b0;fill-opacity:0.5;stroke:#4c72b0;stroke-linejoin:miter;"/>
   </g>
   <g id="patch_249">
    <path clip-path="url(#p43f0b9e48c)" d="M 544.811025 184.869375 
L 546.792549 184.869375 
L 546.792549 184.868059 
L 544.811025 184.868059 
z
" style="fill:#4c72b0;fill-opacity:0.5;stroke:#4c72b0;stroke-linejoin:miter;"/>
   </g>
   <g id="patch_250">
    <path clip-path="url(#p43f0b9e48c)" d="M 546.792549 184.869375 
L 548.774093 184.869375 
L 548.774093 184.865428 
L 546.792549 184.865428 
z
" style="fill:#4c72b0;fill-opacity:0.5;stroke:#4c72b0;stroke-linejoin:miter;"/>
   </g>
   <g id="patch_251">
    <path clip-path="url(#p43f0b9e48c)" d="M 548.774093 184.869375 
L 550.755617 184.869375 
L 550.755617 184.868059 
L 548.774093 184.868059 
z
" style="fill:#4c72b0;fill-opacity:0.5;stroke:#4c72b0;stroke-linejoin:miter;"/>
   </g>
   <g id="patch_252">
    <path clip-path="url(#p43f0b9e48c)" d="M 550.755597 184.869375 
L 552.737141 184.869375 
L 552.737141 184.866744 
L 550.755597 184.866744 
z
" style="fill:#4c72b0;fill-opacity:0.5;stroke:#4c72b0;stroke-linejoin:miter;"/>
   </g>
   <g id="patch_253">
    <path clip-path="url(#p43f0b9e48c)" d="M 552.73716 184.869375 
L 554.718684 184.869375 
L 554.718684 184.868059 
L 552.73716 184.868059 
z
" style="fill:#4c72b0;fill-opacity:0.5;stroke:#4c72b0;stroke-linejoin:miter;"/>
   </g>
   <g id="patch_254">
    <path clip-path="url(#p43f0b9e48c)" d="M 554.718684 184.869375 
L 556.700228 184.869375 
L 556.700228 184.865428 
L 554.718684 184.865428 
z
" style="fill:#4c72b0;fill-opacity:0.5;stroke:#4c72b0;stroke-linejoin:miter;"/>
   </g>
   <g id="patch_255">
    <path clip-path="url(#p43f0b9e48c)" d="M 556.700228 184.869375 
L 558.681752 184.869375 
L 558.681752 184.869375 
L 556.700228 184.869375 
z
" style="fill:#4c72b0;fill-opacity:0.5;stroke:#4c72b0;stroke-linejoin:miter;"/>
   </g>
   <g id="patch_256">
    <path clip-path="url(#p43f0b9e48c)" d="M 558.681732 184.869375 
L 560.663276 184.869375 
L 560.663276 184.868059 
L 558.681732 184.868059 
z
" style="fill:#4c72b0;fill-opacity:0.5;stroke:#4c72b0;stroke-linejoin:miter;"/>
   </g>
   <g id="patch_257">
    <path clip-path="url(#p43f0b9e48c)" d="M 560.663296 184.869375 
L 562.64482 184.869375 
L 562.64482 184.868059 
L 560.663296 184.868059 
z
" style="fill:#4c72b0;fill-opacity:0.5;stroke:#4c72b0;stroke-linejoin:miter;"/>
   </g>
   <g id="patch_258">
    <path clip-path="url(#p43f0b9e48c)" d="M 562.64482 184.869375 
L 564.626364 184.869375 
L 564.626364 184.868059 
L 562.64482 184.868059 
z
" style="fill:#4c72b0;fill-opacity:0.5;stroke:#4c72b0;stroke-linejoin:miter;"/>
   </g>
   <g id="patch_259">
    <path d="M 31.99 184.869375 
L 31.99 21.789375 
" style="fill:none;stroke:#ffffff;stroke-linecap:square;stroke-linejoin:miter;stroke-width:1.25;"/>
   </g>
   <g id="patch_260">
    <path d="M 589.99 184.869375 
L 589.99 21.789375 
" style="fill:none;stroke:#ffffff;stroke-linecap:square;stroke-linejoin:miter;stroke-width:1.25;"/>
   </g>
   <g id="patch_261">
    <path d="M 31.99 184.869375 
L 589.99 184.869375 
" style="fill:none;stroke:#ffffff;stroke-linecap:square;stroke-linejoin:miter;stroke-width:1.25;"/>
   </g>
   <g id="patch_262">
    <path d="M 31.99 21.789375 
L 589.99 21.789375 
" style="fill:none;stroke:#ffffff;stroke-linecap:square;stroke-linejoin:miter;stroke-width:1.25;"/>
   </g>
   <g id="text_11">
    <!-- Dequantization -->
    <g style="fill:#262626;" transform="translate(270.964375 15.789375)scale(0.12 -0.12)">
     <defs>
      <path d="M 7.71875 0 
L 7.71875 71.578125 
L 32.375 71.578125 
Q 40.71875 71.578125 45.125 70.5625 
Q 51.265625 69.140625 55.609375 65.4375 
Q 61.28125 60.640625 64.078125 53.1875 
Q 66.890625 45.75 66.890625 36.1875 
Q 66.890625 28.03125 64.984375 21.734375 
Q 63.09375 15.4375 60.109375 11.296875 
Q 57.125 7.171875 53.578125 4.796875 
Q 50.046875 2.4375 45.046875 1.21875 
Q 40.046875 0 33.546875 0 
z
M 17.1875 8.453125 
L 32.46875 8.453125 
Q 39.546875 8.453125 43.578125 9.765625 
Q 47.609375 11.078125 50 13.484375 
Q 53.375 16.84375 55.25 22.53125 
Q 57.125 28.21875 57.125 36.328125 
Q 57.125 47.5625 53.4375 53.59375 
Q 49.75 59.625 44.484375 61.671875 
Q 40.671875 63.140625 32.234375 63.140625 
L 17.1875 63.140625 
z
" id="ArialMT-68"/>
      <path d="M 42.09375 16.703125 
L 51.171875 15.578125 
Q 49.03125 7.625 43.21875 3.21875 
Q 37.40625 -1.171875 28.375 -1.171875 
Q 17 -1.171875 10.328125 5.828125 
Q 3.65625 12.84375 3.65625 25.484375 
Q 3.65625 38.578125 10.390625 45.796875 
Q 17.140625 53.03125 27.875 53.03125 
Q 38.28125 53.03125 44.875 45.953125 
Q 51.46875 38.875 51.46875 26.03125 
Q 51.46875 25.25 51.421875 23.6875 
L 12.75 23.6875 
Q 13.234375 15.140625 17.578125 10.59375 
Q 21.921875 6.0625 28.421875 6.0625 
Q 33.25 6.0625 36.671875 8.59375 
Q 40.09375 11.140625 42.09375 16.703125 
z
M 13.234375 30.90625 
L 42.1875 30.90625 
Q 41.609375 37.453125 38.875 40.71875 
Q 34.671875 45.796875 27.984375 45.796875 
Q 21.921875 45.796875 17.796875 41.75 
Q 13.671875 37.703125 13.234375 30.90625 
z
" id="ArialMT-101"/>
      <path d="M 39.65625 -19.875 
L 39.65625 5.515625 
Q 37.59375 2.640625 33.90625 0.734375 
Q 30.21875 -1.171875 26.078125 -1.171875 
Q 16.84375 -1.171875 10.171875 6.203125 
Q 3.515625 13.578125 3.515625 26.421875 
Q 3.515625 34.234375 6.21875 40.421875 
Q 8.9375 46.625 14.078125 49.828125 
Q 19.234375 53.03125 25.390625 53.03125 
Q 35.015625 53.03125 40.53125 44.921875 
L 40.53125 51.859375 
L 48.4375 51.859375 
L 48.4375 -19.875 
z
M 12.546875 26.078125 
Q 12.546875 16.0625 16.75 11.0625 
Q 20.953125 6.0625 26.8125 6.0625 
Q 32.421875 6.0625 36.46875 10.8125 
Q 40.53125 15.578125 40.53125 25.296875 
Q 40.53125 35.640625 36.25 40.859375 
Q 31.984375 46.09375 26.21875 46.09375 
Q 20.515625 46.09375 16.53125 41.234375 
Q 12.546875 36.375 12.546875 26.078125 
z
" id="ArialMT-113"/>
      <path d="M 40.578125 0 
L 40.578125 7.625 
Q 34.515625 -1.171875 24.125 -1.171875 
Q 19.53125 -1.171875 15.546875 0.578125 
Q 11.578125 2.34375 9.640625 5 
Q 7.71875 7.671875 6.9375 11.53125 
Q 6.390625 14.109375 6.390625 19.734375 
L 6.390625 51.859375 
L 15.1875 51.859375 
L 15.1875 23.09375 
Q 15.1875 16.21875 15.71875 13.8125 
Q 16.546875 10.359375 19.234375 8.375 
Q 21.921875 6.390625 25.875 6.390625 
Q 29.828125 6.390625 33.296875 8.421875 
Q 36.765625 10.453125 38.203125 13.9375 
Q 39.65625 17.4375 39.65625 24.078125 
L 39.65625 51.859375 
L 48.4375 51.859375 
L 48.4375 0 
z
" id="ArialMT-117"/>
      <path d="M 40.4375 6.390625 
Q 35.546875 2.25 31.03125 0.53125 
Q 26.515625 -1.171875 21.34375 -1.171875 
Q 12.796875 -1.171875 8.203125 3 
Q 3.609375 7.171875 3.609375 13.671875 
Q 3.609375 17.484375 5.34375 20.625 
Q 7.078125 23.78125 9.890625 25.6875 
Q 12.703125 27.59375 16.21875 28.5625 
Q 18.796875 29.25 24.03125 29.890625 
Q 34.671875 31.15625 39.703125 32.90625 
Q 39.75 34.71875 39.75 35.203125 
Q 39.75 40.578125 37.25 42.78125 
Q 33.890625 45.75 27.25 45.75 
Q 21.046875 45.75 18.09375 43.578125 
Q 15.140625 41.40625 13.71875 35.890625 
L 5.125 37.0625 
Q 6.296875 42.578125 8.984375 45.96875 
Q 11.671875 49.359375 16.75 51.1875 
Q 21.828125 53.03125 28.515625 53.03125 
Q 35.15625 53.03125 39.296875 51.46875 
Q 43.453125 49.90625 45.40625 47.53125 
Q 47.359375 45.171875 48.140625 41.546875 
Q 48.578125 39.3125 48.578125 33.453125 
L 48.578125 21.734375 
Q 48.578125 9.46875 49.140625 6.21875 
Q 49.703125 2.984375 51.375 0 
L 42.1875 0 
Q 40.828125 2.734375 40.4375 6.390625 
z
M 39.703125 26.03125 
Q 34.90625 24.078125 25.34375 22.703125 
Q 19.921875 21.921875 17.671875 20.9375 
Q 15.4375 19.96875 14.203125 18.09375 
Q 12.984375 16.21875 12.984375 13.921875 
Q 12.984375 10.40625 15.640625 8.0625 
Q 18.3125 5.71875 23.4375 5.71875 
Q 28.515625 5.71875 32.46875 7.9375 
Q 36.421875 10.15625 38.28125 14.015625 
Q 39.703125 17 39.703125 22.796875 
z
" id="ArialMT-97"/>
      <path d="M 6.59375 0 
L 6.59375 51.859375 
L 14.5 51.859375 
L 14.5 44.484375 
Q 20.21875 53.03125 31 53.03125 
Q 35.6875 53.03125 39.625 51.34375 
Q 43.5625 49.65625 45.515625 46.921875 
Q 47.46875 44.1875 48.25 40.4375 
Q 48.734375 37.984375 48.734375 31.890625 
L 48.734375 0 
L 39.9375 0 
L 39.9375 31.546875 
Q 39.9375 36.921875 38.90625 39.578125 
Q 37.890625 42.234375 35.28125 43.8125 
Q 32.671875 45.40625 29.15625 45.40625 
Q 23.53125 45.40625 19.453125 41.84375 
Q 15.375 38.28125 15.375 28.328125 
L 15.375 0 
z
" id="ArialMT-110"/>
      <path d="M 25.78125 7.859375 
L 27.046875 0.09375 
Q 23.34375 -0.6875 20.40625 -0.6875 
Q 15.625 -0.6875 12.984375 0.828125 
Q 10.359375 2.34375 9.28125 4.8125 
Q 8.203125 7.28125 8.203125 15.1875 
L 8.203125 45.015625 
L 1.765625 45.015625 
L 1.765625 51.859375 
L 8.203125 51.859375 
L 8.203125 64.703125 
L 16.9375 69.96875 
L 16.9375 51.859375 
L 25.78125 51.859375 
L 25.78125 45.015625 
L 16.9375 45.015625 
L 16.9375 14.703125 
Q 16.9375 10.9375 17.40625 9.859375 
Q 17.875 8.796875 18.921875 8.15625 
Q 19.96875 7.515625 21.921875 7.515625 
Q 23.390625 7.515625 25.78125 7.859375 
z
" id="ArialMT-116"/>
      <path d="M 6.640625 61.46875 
L 6.640625 71.578125 
L 15.4375 71.578125 
L 15.4375 61.46875 
z
M 6.640625 0 
L 6.640625 51.859375 
L 15.4375 51.859375 
L 15.4375 0 
z
" id="ArialMT-105"/>
      <path d="M 1.953125 0 
L 1.953125 7.125 
L 34.96875 45.015625 
Q 29.34375 44.734375 25.046875 44.734375 
L 3.90625 44.734375 
L 3.90625 51.859375 
L 46.296875 51.859375 
L 46.296875 46.046875 
L 18.21875 13.140625 
L 12.796875 7.125 
Q 18.703125 7.5625 23.875 7.5625 
L 47.859375 7.5625 
L 47.859375 0 
z
" id="ArialMT-122"/>
      <path d="M 3.328125 25.921875 
Q 3.328125 40.328125 11.328125 47.265625 
Q 18.015625 53.03125 27.640625 53.03125 
Q 38.328125 53.03125 45.109375 46.015625 
Q 51.90625 39.015625 51.90625 26.65625 
Q 51.90625 16.65625 48.90625 10.90625 
Q 45.90625 5.171875 40.15625 2 
Q 34.421875 -1.171875 27.640625 -1.171875 
Q 16.75 -1.171875 10.03125 5.8125 
Q 3.328125 12.796875 3.328125 25.921875 
z
M 12.359375 25.921875 
Q 12.359375 15.96875 16.703125 11.015625 
Q 21.046875 6.0625 27.640625 6.0625 
Q 34.1875 6.0625 38.53125 11.03125 
Q 42.875 16.015625 42.875 26.21875 
Q 42.875 35.84375 38.5 40.796875 
Q 34.125 45.75 27.640625 45.75 
Q 21.046875 45.75 16.703125 40.8125 
Q 12.359375 35.890625 12.359375 25.921875 
z
" id="ArialMT-111"/>
     </defs>
     <use xlink:href="#ArialMT-68"/>
     <use x="72.216797" xlink:href="#ArialMT-101"/>
     <use x="127.832031" xlink:href="#ArialMT-113"/>
     <use x="183.447266" xlink:href="#ArialMT-117"/>
     <use x="239.0625" xlink:href="#ArialMT-97"/>
     <use x="294.677734" xlink:href="#ArialMT-110"/>
     <use x="350.292969" xlink:href="#ArialMT-116"/>
     <use x="378.076172" xlink:href="#ArialMT-105"/>
     <use x="400.292969" xlink:href="#ArialMT-122"/>
     <use x="450.292969" xlink:href="#ArialMT-97"/>
     <use x="505.908203" xlink:href="#ArialMT-116"/>
     <use x="533.691406" xlink:href="#ArialMT-105"/>
     <use x="555.908203" xlink:href="#ArialMT-111"/>
     <use x="611.523438" xlink:href="#ArialMT-110"/>
    </g>
   </g>
  </g>
 </g>
 <defs>
  <clipPath id="p43f0b9e48c">
   <rect height="163.08" width="558" x="31.99" y="21.789375"/>
  </clipPath>
 </defs>
</svg>
