<?xml version="1.0" encoding="utf-8" standalone="no"?>
<!DOCTYPE svg PUBLIC "-//W3C//DTD SVG 1.1//EN"
  "http://www.w3.org/Graphics/SVG/1.1/DTD/svg11.dtd">
<!-- Created with matplotlib (https://matplotlib.org/) -->
<svg height="221.50625pt" version="1.1" viewBox="0 0 390.3125 221.50625" width="390.3125pt" xmlns="http://www.w3.org/2000/svg" xmlns:xlink="http://www.w3.org/1999/xlink">
 <metadata>
  <rdf:RDF xmlns:cc="http://creativecommons.org/ns#" xmlns:dc="http://purl.org/dc/elements/1.1/" xmlns:rdf="http://www.w3.org/1999/02/22-rdf-syntax-ns#">
   <cc:Work>
    <dc:type rdf:resource="http://purl.org/dc/dcmitype/StillImage"/>
    <dc:date>2022-09-25T13:19:49.996373</dc:date>
    <dc:format>image/svg+xml</dc:format>
    <dc:creator>
     <cc:Agent>
      <dc:title>Matplotlib v3.3.2, https://matplotlib.org/</dc:title>
     </cc:Agent>
    </dc:creator>
   </cc:Work>
  </rdf:RDF>
 </metadata>
 <defs>
  <style type="text/css">*{stroke-linecap:butt;stroke-linejoin:round;}</style>
 </defs>
 <g id="figure_1">
  <g id="patch_1">
   <path d="M 0 221.50625 
L 390.3125 221.50625 
L 390.3125 -0 
L 0 -0 
z
" style="fill:#ffffff;"/>
  </g>
  <g id="axes_1">
   <g id="patch_2">
    <path d="M 41.3625 185.015625 
L 376.1625 185.015625 
L 376.1625 21.935625 
L 41.3625 21.935625 
z
" style="fill:#ffffff;"/>
   </g>
   <g id="matplotlib.axis_1">
    <g id="xtick_1">
     <g id="text_1">
      <!-- -4.0 -->
      <g style="fill:#262626;" transform="translate(32.747656 199.173438)scale(0.1 -0.1)">
       <defs>
        <path d="M 3.171875 21.484375 
L 3.171875 30.328125 
L 30.171875 30.328125 
L 30.171875 21.484375 
z
" id="ArialMT-45"/>
        <path d="M 32.328125 0 
L 32.328125 17.140625 
L 1.265625 17.140625 
L 1.265625 25.203125 
L 33.9375 71.578125 
L 41.109375 71.578125 
L 41.109375 25.203125 
L 50.78125 25.203125 
L 50.78125 17.140625 
L 41.109375 17.140625 
L 41.109375 0 
z
M 32.328125 25.203125 
L 32.328125 57.46875 
L 9.90625 25.203125 
z
" id="ArialMT-52"/>
        <path d="M 9.078125 0 
L 9.078125 10.015625 
L 19.09375 10.015625 
L 19.09375 0 
z
" id="ArialMT-46"/>
        <path d="M 4.15625 35.296875 
Q 4.15625 48 6.765625 55.734375 
Q 9.375 63.484375 14.515625 67.671875 
Q 19.671875 71.875 27.484375 71.875 
Q 33.25 71.875 37.59375 69.546875 
Q 41.9375 67.234375 44.765625 62.859375 
Q 47.609375 58.5 49.21875 52.21875 
Q 50.828125 45.953125 50.828125 35.296875 
Q 50.828125 22.703125 48.234375 14.96875 
Q 45.65625 7.234375 40.5 3 
Q 35.359375 -1.21875 27.484375 -1.21875 
Q 17.140625 -1.21875 11.234375 6.203125 
Q 4.15625 15.140625 4.15625 35.296875 
z
M 13.1875 35.296875 
Q 13.1875 17.671875 17.3125 11.828125 
Q 21.4375 6 27.484375 6 
Q 33.546875 6 37.671875 11.859375 
Q 41.796875 17.71875 41.796875 35.296875 
Q 41.796875 52.984375 37.671875 58.78125 
Q 33.546875 64.59375 27.390625 64.59375 
Q 21.34375 64.59375 17.71875 59.46875 
Q 13.1875 52.9375 13.1875 35.296875 
z
" id="ArialMT-48"/>
       </defs>
       <use xlink:href="#ArialMT-45"/>
       <use x="33.300781" xlink:href="#ArialMT-52"/>
       <use x="88.916016" xlink:href="#ArialMT-46"/>
       <use x="116.699219" xlink:href="#ArialMT-48"/>
      </g>
     </g>
    </g>
    <g id="xtick_2">
     <g id="text_2">
      <!-- -1.9 -->
      <g style="fill:#262626;" transform="translate(119.066552 199.173438)scale(0.1 -0.1)">
       <defs>
        <path d="M 37.25 0 
L 28.46875 0 
L 28.46875 56 
Q 25.296875 52.984375 20.140625 49.953125 
Q 14.984375 46.921875 10.890625 45.40625 
L 10.890625 53.90625 
Q 18.265625 57.375 23.78125 62.296875 
Q 29.296875 67.234375 31.59375 71.875 
L 37.25 71.875 
z
" id="ArialMT-49"/>
        <path d="M 5.46875 16.546875 
L 13.921875 17.328125 
Q 14.984375 11.375 18.015625 8.6875 
Q 21.046875 6 25.78125 6 
Q 29.828125 6 32.875 7.859375 
Q 35.9375 9.71875 37.890625 12.8125 
Q 39.84375 15.921875 41.15625 21.1875 
Q 42.484375 26.46875 42.484375 31.9375 
Q 42.484375 32.515625 42.4375 33.6875 
Q 39.796875 29.5 35.234375 26.875 
Q 30.671875 24.265625 25.34375 24.265625 
Q 16.453125 24.265625 10.296875 30.703125 
Q 4.15625 37.15625 4.15625 47.703125 
Q 4.15625 58.59375 10.578125 65.234375 
Q 17 71.875 26.65625 71.875 
Q 33.640625 71.875 39.421875 68.109375 
Q 45.21875 64.359375 48.21875 57.390625 
Q 51.21875 50.4375 51.21875 37.25 
Q 51.21875 23.53125 48.234375 15.40625 
Q 45.265625 7.28125 39.375 3.03125 
Q 33.5 -1.21875 25.59375 -1.21875 
Q 17.1875 -1.21875 11.859375 3.4375 
Q 6.546875 8.109375 5.46875 16.546875 
z
M 41.453125 48.140625 
Q 41.453125 55.71875 37.421875 60.15625 
Q 33.40625 64.59375 27.734375 64.59375 
Q 21.875 64.59375 17.53125 59.8125 
Q 13.1875 55.03125 13.1875 47.40625 
Q 13.1875 40.578125 17.3125 36.296875 
Q 21.4375 32.03125 27.484375 32.03125 
Q 33.59375 32.03125 37.515625 36.296875 
Q 41.453125 40.578125 41.453125 48.140625 
z
" id="ArialMT-57"/>
       </defs>
       <use xlink:href="#ArialMT-45"/>
       <use x="33.300781" xlink:href="#ArialMT-49"/>
       <use x="88.916016" xlink:href="#ArialMT-46"/>
       <use x="116.699219" xlink:href="#ArialMT-57"/>
      </g>
     </g>
    </g>
    <g id="xtick_3">
     <g id="text_3">
      <!-- -1.1 -->
      <g style="fill:#262626;" transform="translate(154.683575 199.173438)scale(0.1 -0.1)">
       <use xlink:href="#ArialMT-45"/>
       <use x="33.300781" xlink:href="#ArialMT-49"/>
       <use x="88.916016" xlink:href="#ArialMT-46"/>
       <use x="116.699219" xlink:href="#ArialMT-49"/>
      </g>
     </g>
    </g>
    <g id="xtick_4">
     <g id="text_4">
      <!-- -0.5 -->
      <g style="fill:#262626;" transform="translate(178.986956 199.173438)scale(0.1 -0.1)">
       <defs>
        <path d="M 4.15625 18.75 
L 13.375 19.53125 
Q 14.40625 12.796875 18.140625 9.390625 
Q 21.875 6 27.15625 6 
Q 33.5 6 37.890625 10.78125 
Q 42.28125 15.578125 42.28125 23.484375 
Q 42.28125 31 38.0625 35.34375 
Q 33.84375 39.703125 27 39.703125 
Q 22.75 39.703125 19.328125 37.765625 
Q 15.921875 35.84375 13.96875 32.765625 
L 5.71875 33.84375 
L 12.640625 70.609375 
L 48.25 70.609375 
L 48.25 62.203125 
L 19.671875 62.203125 
L 15.828125 42.96875 
Q 22.265625 47.46875 29.34375 47.46875 
Q 38.71875 47.46875 45.15625 40.96875 
Q 51.609375 34.46875 51.609375 24.265625 
Q 51.609375 14.546875 45.953125 7.46875 
Q 39.0625 -1.21875 27.15625 -1.21875 
Q 17.390625 -1.21875 11.203125 4.25 
Q 5.03125 9.71875 4.15625 18.75 
z
" id="ArialMT-53"/>
       </defs>
       <use xlink:href="#ArialMT-45"/>
       <use x="33.300781" xlink:href="#ArialMT-48"/>
       <use x="88.916016" xlink:href="#ArialMT-46"/>
       <use x="116.699219" xlink:href="#ArialMT-53"/>
      </g>
     </g>
    </g>
    <g id="xtick_5">
     <g id="text_5">
      <!-- 0.0 -->
      <g style="fill:#262626;" transform="translate(202.022012 199.173438)scale(0.1 -0.1)">
       <use xlink:href="#ArialMT-48"/>
       <use x="55.615234" xlink:href="#ArialMT-46"/>
       <use x="83.398438" xlink:href="#ArialMT-48"/>
      </g>
     </g>
    </g>
    <g id="xtick_6">
     <g id="text_6">
      <!-- 0.5 -->
      <g style="fill:#262626;" transform="translate(223.811247 199.173438)scale(0.1 -0.1)">
       <use xlink:href="#ArialMT-48"/>
       <use x="55.615234" xlink:href="#ArialMT-46"/>
       <use x="83.398438" xlink:href="#ArialMT-53"/>
      </g>
     </g>
    </g>
    <g id="xtick_7">
     <g id="text_7">
      <!-- 1.1 -->
      <g style="fill:#262626;" transform="translate(248.114623 199.173438)scale(0.1 -0.1)">
       <use xlink:href="#ArialMT-49"/>
       <use x="55.615234" xlink:href="#ArialMT-46"/>
       <use x="83.398438" xlink:href="#ArialMT-49"/>
      </g>
     </g>
    </g>
    <g id="xtick_8">
     <g id="text_8">
      <!-- 1.9 -->
      <g style="fill:#262626;" transform="translate(283.731646 199.173438)scale(0.1 -0.1)">
       <use xlink:href="#ArialMT-49"/>
       <use x="55.615234" xlink:href="#ArialMT-46"/>
       <use x="83.398438" xlink:href="#ArialMT-57"/>
      </g>
     </g>
    </g>
    <g id="xtick_9">
     <g id="text_9">
      <!-- 4.0 -->
      <g style="fill:#262626;" transform="translate(369.2125 199.173438)scale(0.1 -0.1)">
       <use xlink:href="#ArialMT-52"/>
       <use x="55.615234" xlink:href="#ArialMT-46"/>
       <use x="83.398438" xlink:href="#ArialMT-48"/>
      </g>
     </g>
    </g>
    <g id="text_10">
     <!-- z -->
     <g style="fill:#262626;" transform="translate(206.2625 212.31875)scale(0.1 -0.1)">
      <defs>
       <path d="M 1.953125 0 
L 1.953125 7.125 
L 34.96875 45.015625 
Q 29.34375 44.734375 25.046875 44.734375 
L 3.90625 44.734375 
L 3.90625 51.859375 
L 46.296875 51.859375 
L 46.296875 46.046875 
L 18.21875 13.140625 
L 12.796875 7.125 
Q 18.703125 7.5625 23.875 7.5625 
L 47.859375 7.5625 
L 47.859375 0 
z
" id="ArialMT-122"/>
      </defs>
      <use xlink:href="#ArialMT-122"/>
     </g>
    </g>
   </g>
   <g id="matplotlib.axis_2">
    <g id="ytick_1">
     <g id="text_11">
      <!-- 0.0 -->
      <g style="fill:#262626;" transform="translate(20.4625 188.594531)scale(0.1 -0.1)">
       <use xlink:href="#ArialMT-48"/>
       <use x="55.615234" xlink:href="#ArialMT-46"/>
       <use x="83.398438" xlink:href="#ArialMT-48"/>
      </g>
     </g>
    </g>
    <g id="ytick_2">
     <g id="text_12">
      <!-- 0.2 -->
      <g style="fill:#262626;" transform="translate(20.4625 148.968826)scale(0.1 -0.1)">
       <defs>
        <path d="M 50.34375 8.453125 
L 50.34375 0 
L 3.03125 0 
Q 2.9375 3.171875 4.046875 6.109375 
Q 5.859375 10.9375 9.828125 15.625 
Q 13.8125 20.3125 21.34375 26.46875 
Q 33.015625 36.03125 37.109375 41.625 
Q 41.21875 47.21875 41.21875 52.203125 
Q 41.21875 57.421875 37.46875 61 
Q 33.734375 64.59375 27.734375 64.59375 
Q 21.390625 64.59375 17.578125 60.78125 
Q 13.765625 56.984375 13.71875 50.25 
L 4.6875 51.171875 
Q 5.609375 61.28125 11.65625 66.578125 
Q 17.71875 71.875 27.9375 71.875 
Q 38.234375 71.875 44.234375 66.15625 
Q 50.25 60.453125 50.25 52 
Q 50.25 47.703125 48.484375 43.546875 
Q 46.734375 39.40625 42.65625 34.8125 
Q 38.578125 30.21875 29.109375 22.21875 
Q 21.1875 15.578125 18.9375 13.203125 
Q 16.703125 10.84375 15.234375 8.453125 
z
" id="ArialMT-50"/>
       </defs>
       <use xlink:href="#ArialMT-48"/>
       <use x="55.615234" xlink:href="#ArialMT-46"/>
       <use x="83.398438" xlink:href="#ArialMT-50"/>
      </g>
     </g>
    </g>
    <g id="ytick_3">
     <g id="text_13">
      <!-- 0.4 -->
      <g style="fill:#262626;" transform="translate(20.4625 109.343121)scale(0.1 -0.1)">
       <use xlink:href="#ArialMT-48"/>
       <use x="55.615234" xlink:href="#ArialMT-46"/>
       <use x="83.398438" xlink:href="#ArialMT-52"/>
      </g>
     </g>
    </g>
    <g id="ytick_4">
     <g id="text_14">
      <!-- 0.6 -->
      <g style="fill:#262626;" transform="translate(20.4625 69.717416)scale(0.1 -0.1)">
       <defs>
        <path d="M 49.75 54.046875 
L 41.015625 53.375 
Q 39.84375 58.546875 37.703125 60.890625 
Q 34.125 64.65625 28.90625 64.65625 
Q 24.703125 64.65625 21.53125 62.3125 
Q 17.390625 59.28125 14.984375 53.46875 
Q 12.59375 47.65625 12.5 36.921875 
Q 15.671875 41.75 20.265625 44.09375 
Q 24.859375 46.4375 29.890625 46.4375 
Q 38.671875 46.4375 44.84375 39.96875 
Q 51.03125 33.5 51.03125 23.25 
Q 51.03125 16.5 48.125 10.71875 
Q 45.21875 4.9375 40.140625 1.859375 
Q 35.0625 -1.21875 28.609375 -1.21875 
Q 17.625 -1.21875 10.6875 6.859375 
Q 3.765625 14.9375 3.765625 33.5 
Q 3.765625 54.25 11.421875 63.671875 
Q 18.109375 71.875 29.4375 71.875 
Q 37.890625 71.875 43.28125 67.140625 
Q 48.6875 62.40625 49.75 54.046875 
z
M 13.875 23.1875 
Q 13.875 18.65625 15.796875 14.5 
Q 17.71875 10.359375 21.1875 8.171875 
Q 24.65625 6 28.46875 6 
Q 34.03125 6 38.03125 10.484375 
Q 42.046875 14.984375 42.046875 22.703125 
Q 42.046875 30.125 38.078125 34.390625 
Q 34.125 38.671875 28.125 38.671875 
Q 22.171875 38.671875 18.015625 34.390625 
Q 13.875 30.125 13.875 23.1875 
z
" id="ArialMT-54"/>
       </defs>
       <use xlink:href="#ArialMT-48"/>
       <use x="55.615234" xlink:href="#ArialMT-46"/>
       <use x="83.398438" xlink:href="#ArialMT-54"/>
      </g>
     </g>
    </g>
    <g id="ytick_5">
     <g id="text_15">
      <!-- 0.8 -->
      <g style="fill:#262626;" transform="translate(20.4625 30.091711)scale(0.1 -0.1)">
       <defs>
        <path d="M 17.671875 38.8125 
Q 12.203125 40.828125 9.5625 44.53125 
Q 6.9375 48.25 6.9375 53.421875 
Q 6.9375 61.234375 12.546875 66.546875 
Q 18.171875 71.875 27.484375 71.875 
Q 36.859375 71.875 42.578125 66.421875 
Q 48.296875 60.984375 48.296875 53.171875 
Q 48.296875 48.1875 45.671875 44.5 
Q 43.0625 40.828125 37.75 38.8125 
Q 44.34375 36.671875 47.78125 31.875 
Q 51.21875 27.09375 51.21875 20.453125 
Q 51.21875 11.28125 44.71875 5.03125 
Q 38.234375 -1.21875 27.640625 -1.21875 
Q 17.046875 -1.21875 10.546875 5.046875 
Q 4.046875 11.328125 4.046875 20.703125 
Q 4.046875 27.6875 7.59375 32.390625 
Q 11.140625 37.109375 17.671875 38.8125 
z
M 15.921875 53.71875 
Q 15.921875 48.640625 19.1875 45.40625 
Q 22.46875 42.1875 27.6875 42.1875 
Q 32.765625 42.1875 36.015625 45.375 
Q 39.265625 48.578125 39.265625 53.21875 
Q 39.265625 58.0625 35.90625 61.359375 
Q 32.5625 64.65625 27.59375 64.65625 
Q 22.5625 64.65625 19.234375 61.421875 
Q 15.921875 58.203125 15.921875 53.71875 
z
M 13.09375 20.65625 
Q 13.09375 16.890625 14.875 13.375 
Q 16.65625 9.859375 20.171875 7.921875 
Q 23.6875 6 27.734375 6 
Q 34.03125 6 38.125 10.046875 
Q 42.234375 14.109375 42.234375 20.359375 
Q 42.234375 26.703125 38.015625 30.859375 
Q 33.796875 35.015625 27.4375 35.015625 
Q 21.234375 35.015625 17.15625 30.90625 
Q 13.09375 26.8125 13.09375 20.65625 
z
" id="ArialMT-56"/>
       </defs>
       <use xlink:href="#ArialMT-48"/>
       <use x="55.615234" xlink:href="#ArialMT-46"/>
       <use x="83.398438" xlink:href="#ArialMT-56"/>
      </g>
     </g>
    </g>
    <g id="text_16">
     <!-- Probability -->
     <g style="fill:#262626;" transform="translate(14.357812 126.819375)rotate(-90)scale(0.1 -0.1)">
      <defs>
       <path d="M 7.71875 0 
L 7.71875 71.578125 
L 34.71875 71.578125 
Q 41.84375 71.578125 45.609375 70.90625 
Q 50.875 70.015625 54.4375 67.546875 
Q 58.015625 65.09375 60.1875 60.640625 
Q 62.359375 56.203125 62.359375 50.875 
Q 62.359375 41.75 56.546875 35.421875 
Q 50.734375 29.109375 35.546875 29.109375 
L 17.1875 29.109375 
L 17.1875 0 
z
M 17.1875 37.546875 
L 35.6875 37.546875 
Q 44.875 37.546875 48.734375 40.96875 
Q 52.59375 44.390625 52.59375 50.59375 
Q 52.59375 55.078125 50.3125 58.265625 
Q 48.046875 61.46875 44.34375 62.5 
Q 41.9375 63.140625 35.5 63.140625 
L 17.1875 63.140625 
z
" id="ArialMT-80"/>
       <path d="M 6.5 0 
L 6.5 51.859375 
L 14.40625 51.859375 
L 14.40625 44 
Q 17.4375 49.515625 20 51.265625 
Q 22.5625 53.03125 25.640625 53.03125 
Q 30.078125 53.03125 34.671875 50.203125 
L 31.640625 42.046875 
Q 28.421875 43.953125 25.203125 43.953125 
Q 22.3125 43.953125 20.015625 42.21875 
Q 17.71875 40.484375 16.75 37.40625 
Q 15.28125 32.71875 15.28125 27.15625 
L 15.28125 0 
z
" id="ArialMT-114"/>
       <path d="M 3.328125 25.921875 
Q 3.328125 40.328125 11.328125 47.265625 
Q 18.015625 53.03125 27.640625 53.03125 
Q 38.328125 53.03125 45.109375 46.015625 
Q 51.90625 39.015625 51.90625 26.65625 
Q 51.90625 16.65625 48.90625 10.90625 
Q 45.90625 5.171875 40.15625 2 
Q 34.421875 -1.171875 27.640625 -1.171875 
Q 16.75 -1.171875 10.03125 5.8125 
Q 3.328125 12.796875 3.328125 25.921875 
z
M 12.359375 25.921875 
Q 12.359375 15.96875 16.703125 11.015625 
Q 21.046875 6.0625 27.640625 6.0625 
Q 34.1875 6.0625 38.53125 11.03125 
Q 42.875 16.015625 42.875 26.21875 
Q 42.875 35.84375 38.5 40.796875 
Q 34.125 45.75 27.640625 45.75 
Q 21.046875 45.75 16.703125 40.8125 
Q 12.359375 35.890625 12.359375 25.921875 
z
" id="ArialMT-111"/>
       <path d="M 14.703125 0 
L 6.546875 0 
L 6.546875 71.578125 
L 15.328125 71.578125 
L 15.328125 46.046875 
Q 20.90625 53.03125 29.546875 53.03125 
Q 34.328125 53.03125 38.59375 51.09375 
Q 42.875 49.171875 45.625 45.671875 
Q 48.390625 42.1875 49.953125 37.25 
Q 51.515625 32.328125 51.515625 26.703125 
Q 51.515625 13.375 44.921875 6.09375 
Q 38.328125 -1.171875 29.109375 -1.171875 
Q 19.921875 -1.171875 14.703125 6.5 
z
M 14.59375 26.3125 
Q 14.59375 17 17.140625 12.84375 
Q 21.296875 6.0625 28.375 6.0625 
Q 34.125 6.0625 38.328125 11.0625 
Q 42.53125 16.0625 42.53125 25.984375 
Q 42.53125 36.140625 38.5 40.96875 
Q 34.46875 45.796875 28.765625 45.796875 
Q 23 45.796875 18.796875 40.796875 
Q 14.59375 35.796875 14.59375 26.3125 
z
" id="ArialMT-98"/>
       <path d="M 40.4375 6.390625 
Q 35.546875 2.25 31.03125 0.53125 
Q 26.515625 -1.171875 21.34375 -1.171875 
Q 12.796875 -1.171875 8.203125 3 
Q 3.609375 7.171875 3.609375 13.671875 
Q 3.609375 17.484375 5.34375 20.625 
Q 7.078125 23.78125 9.890625 25.6875 
Q 12.703125 27.59375 16.21875 28.5625 
Q 18.796875 29.25 24.03125 29.890625 
Q 34.671875 31.15625 39.703125 32.90625 
Q 39.75 34.71875 39.75 35.203125 
Q 39.75 40.578125 37.25 42.78125 
Q 33.890625 45.75 27.25 45.75 
Q 21.046875 45.75 18.09375 43.578125 
Q 15.140625 41.40625 13.71875 35.890625 
L 5.125 37.0625 
Q 6.296875 42.578125 8.984375 45.96875 
Q 11.671875 49.359375 16.75 51.1875 
Q 21.828125 53.03125 28.515625 53.03125 
Q 35.15625 53.03125 39.296875 51.46875 
Q 43.453125 49.90625 45.40625 47.53125 
Q 47.359375 45.171875 48.140625 41.546875 
Q 48.578125 39.3125 48.578125 33.453125 
L 48.578125 21.734375 
Q 48.578125 9.46875 49.140625 6.21875 
Q 49.703125 2.984375 51.375 0 
L 42.1875 0 
Q 40.828125 2.734375 40.4375 6.390625 
z
M 39.703125 26.03125 
Q 34.90625 24.078125 25.34375 22.703125 
Q 19.921875 21.921875 17.671875 20.9375 
Q 15.4375 19.96875 14.203125 18.09375 
Q 12.984375 16.21875 12.984375 13.921875 
Q 12.984375 10.40625 15.640625 8.0625 
Q 18.3125 5.71875 23.4375 5.71875 
Q 28.515625 5.71875 32.46875 7.9375 
Q 36.421875 10.15625 38.28125 14.015625 
Q 39.703125 17 39.703125 22.796875 
z
" id="ArialMT-97"/>
       <path d="M 6.640625 61.46875 
L 6.640625 71.578125 
L 15.4375 71.578125 
L 15.4375 61.46875 
z
M 6.640625 0 
L 6.640625 51.859375 
L 15.4375 51.859375 
L 15.4375 0 
z
" id="ArialMT-105"/>
       <path d="M 6.390625 0 
L 6.390625 71.578125 
L 15.1875 71.578125 
L 15.1875 0 
z
" id="ArialMT-108"/>
       <path d="M 25.78125 7.859375 
L 27.046875 0.09375 
Q 23.34375 -0.6875 20.40625 -0.6875 
Q 15.625 -0.6875 12.984375 0.828125 
Q 10.359375 2.34375 9.28125 4.8125 
Q 8.203125 7.28125 8.203125 15.1875 
L 8.203125 45.015625 
L 1.765625 45.015625 
L 1.765625 51.859375 
L 8.203125 51.859375 
L 8.203125 64.703125 
L 16.9375 69.96875 
L 16.9375 51.859375 
L 25.78125 51.859375 
L 25.78125 45.015625 
L 16.9375 45.015625 
L 16.9375 14.703125 
Q 16.9375 10.9375 17.40625 9.859375 
Q 17.875 8.796875 18.921875 8.15625 
Q 19.96875 7.515625 21.921875 7.515625 
Q 23.390625 7.515625 25.78125 7.859375 
z
" id="ArialMT-116"/>
       <path d="M 6.203125 -19.96875 
L 5.21875 -11.71875 
Q 8.109375 -12.5 10.25 -12.5 
Q 13.1875 -12.5 14.9375 -11.515625 
Q 16.703125 -10.546875 17.828125 -8.796875 
Q 18.65625 -7.46875 20.515625 -2.25 
Q 20.75 -1.515625 21.296875 -0.09375 
L 1.609375 51.859375 
L 11.078125 51.859375 
L 21.875 21.828125 
Q 23.96875 16.109375 25.640625 9.8125 
Q 27.15625 15.875 29.25 21.625 
L 40.328125 51.859375 
L 49.125 51.859375 
L 29.390625 -0.875 
Q 26.21875 -9.421875 24.46875 -12.640625 
Q 22.125 -17 19.09375 -19.015625 
Q 16.0625 -21.046875 11.859375 -21.046875 
Q 9.328125 -21.046875 6.203125 -19.96875 
z
" id="ArialMT-121"/>
      </defs>
      <use xlink:href="#ArialMT-80"/>
      <use x="66.699219" xlink:href="#ArialMT-114"/>
      <use x="100" xlink:href="#ArialMT-111"/>
      <use x="155.615234" xlink:href="#ArialMT-98"/>
      <use x="211.230469" xlink:href="#ArialMT-97"/>
      <use x="266.845703" xlink:href="#ArialMT-98"/>
      <use x="322.460938" xlink:href="#ArialMT-105"/>
      <use x="344.677734" xlink:href="#ArialMT-108"/>
      <use x="366.894531" xlink:href="#ArialMT-105"/>
      <use x="389.111328" xlink:href="#ArialMT-116"/>
      <use x="416.894531" xlink:href="#ArialMT-121"/>
     </g>
    </g>
   </g>
   <g id="PolyCollection_1">
    <defs>
     <path d="M 41.3625 -36.490625 
L 41.3625 -38.590338 
L 41.781523 -38.610672 
L 42.200547 -38.631199 
L 42.61957 -38.651916 
L 43.038594 -38.672824 
L 43.457617 -38.693926 
L 43.87664 -38.715226 
L 44.295664 -38.736721 
L 44.714687 -38.758417 
L 45.13371 -38.780313 
L 45.552734 -38.802412 
L 45.971757 -38.824715 
L 46.390781 -38.847223 
L 46.809804 -38.86994 
L 47.228827 -38.892866 
L 47.647851 -38.916003 
L 48.066884 -38.939352 
L 48.485907 -38.962918 
L 48.904931 -38.986698 
L 49.323954 -39.010697 
L 49.742978 -39.034915 
L 50.162001 -39.059356 
L 50.581024 -39.084021 
L 51.000048 -39.10891 
L 51.419071 -39.134028 
L 51.838094 -39.159374 
L 52.257118 -39.18495 
L 52.676141 -39.210759 
L 53.095165 -39.236803 
L 53.514188 -39.263084 
L 53.933211 -39.289603 
L 54.352235 -39.316363 
L 54.771258 -39.343365 
L 55.190282 -39.370612 
L 55.609305 -39.398103 
L 56.028328 -39.425844 
L 56.447352 -39.453834 
L 56.866375 -39.482077 
L 57.285398 -39.510573 
L 57.704422 -39.539325 
L 58.123455 -39.568337 
L 58.542479 -39.597607 
L 58.961502 -39.627139 
L 59.380525 -39.656935 
L 59.799549 -39.686996 
L 60.218572 -39.717328 
L 60.637595 -39.747928 
L 61.056619 -39.778801 
L 61.475642 -39.809948 
L 61.894666 -39.84137 
L 62.313689 -39.873073 
L 62.732712 -39.905054 
L 63.151736 -39.937319 
L 63.570759 -39.969868 
L 63.989782 -40.002704 
L 64.408806 -40.03583 
L 64.827829 -40.069246 
L 65.246853 -40.102956 
L 65.665876 -40.13696 
L 66.084899 -40.171262 
L 66.503923 -40.205864 
L 66.922946 -40.240769 
L 67.34197 -40.275977 
L 67.760993 -40.311491 
L 68.180026 -40.347315 
L 68.59905 -40.383448 
L 69.018073 -40.419895 
L 69.437096 -40.456655 
L 69.85612 -40.493733 
L 70.275143 -40.531131 
L 70.694167 -40.568849 
L 71.11319 -40.606893 
L 71.532213 -40.645264 
L 71.951237 -40.68396 
L 72.37026 -40.722989 
L 72.789283 -40.76235 
L 73.208307 -40.802046 
L 73.62733 -40.842078 
L 74.046354 -40.882451 
L 74.465377 -40.923166 
L 74.8844 -40.964227 
L 75.303424 -41.005631 
L 75.722447 -41.047384 
L 76.14147 -41.08949 
L 76.560494 -41.131948 
L 76.979517 -41.174762 
L 77.398541 -41.217933 
L 77.817564 -41.261462 
L 78.236597 -41.305357 
L 78.655621 -41.349615 
L 79.074644 -41.394238 
L 79.493668 -41.439234 
L 79.912691 -41.484598 
L 80.331714 -41.530336 
L 80.750738 -41.576449 
L 81.169761 -41.622942 
L 81.588784 -41.669814 
L 82.007808 -41.717068 
L 82.426831 -41.764708 
L 82.845855 -41.812735 
L 83.264878 -41.86115 
L 83.683901 -41.909957 
L 84.102925 -41.959157 
L 84.521948 -42.008754 
L 84.940971 -42.058748 
L 85.359995 -42.109144 
L 85.779018 -42.159942 
L 86.198042 -42.211145 
L 86.617065 -42.262755 
L 87.036088 -42.314775 
L 87.455112 -42.367205 
L 87.874135 -42.420048 
L 88.293158 -42.473306 
L 88.712182 -42.526982 
L 89.131205 -42.581078 
L 89.550229 -42.635595 
L 89.969252 -42.690538 
L 90.388275 -42.745903 
L 90.807299 -42.8017 
L 91.226322 -42.857927 
L 91.645356 -42.914584 
L 92.064379 -42.971678 
L 92.483402 -43.029205 
L 92.902426 -43.08717 
L 93.321449 -43.145575 
L 93.740472 -43.204425 
L 94.159496 -43.263717 
L 94.578519 -43.323455 
L 94.997543 -43.383641 
L 95.416566 -43.444277 
L 95.835589 -43.505363 
L 96.254613 -43.566902 
L 96.673636 -43.628895 
L 97.092659 -43.691345 
L 97.511683 -43.754255 
L 97.930706 -43.817624 
L 98.34973 -43.881454 
L 98.768753 -43.945752 
L 99.187776 -44.010507 
L 99.6068 -44.075736 
L 100.025823 -44.141428 
L 100.444846 -44.207593 
L 100.86387 -44.274227 
L 101.282893 -44.341335 
L 101.701927 -44.408917 
L 102.12095 -44.476977 
L 102.539973 -44.54551 
L 102.958997 -44.614519 
L 103.37802 -44.68401 
L 103.797044 -44.753985 
L 104.216067 -44.824434 
L 104.63509 -44.895372 
L 105.054114 -44.966792 
L 105.473137 -45.038697 
L 105.89216 -45.111089 
L 106.311184 -45.183965 
L 106.730207 -45.257332 
L 107.149231 -45.331187 
L 107.568254 -45.405529 
L 107.987277 -45.480363 
L 108.406301 -45.55569 
L 108.825324 -45.631505 
L 109.244347 -45.707818 
L 109.663371 -45.784619 
L 110.082394 -45.861915 
L 110.501418 -45.939705 
L 110.920441 -46.017987 
L 111.339464 -46.096766 
L 111.758498 -46.176042 
L 112.177521 -46.255812 
L 112.596544 -46.336074 
L 113.015568 -46.416835 
L 113.434591 -46.498092 
L 113.853615 -46.57984 
L 114.272638 -46.662086 
L 114.691661 -46.744822 
L 115.110685 -46.828059 
L 115.529708 -46.911787 
L 115.948732 -46.996013 
L 116.367755 -47.080728 
L 116.786778 -47.165938 
L 117.205802 -47.251638 
L 117.624825 -47.33783 
L 118.043848 -47.424514 
L 118.462872 -47.511691 
L 118.881895 -47.599351 
L 119.300919 -47.687506 
L 119.719942 -47.776144 
L 120.138965 -47.865268 
L 120.557989 -47.954877 
L 120.977012 -48.044965 
L 121.396035 -48.13554 
L 121.815069 -48.226593 
L 122.234092 -48.318122 
L 122.653116 -48.410133 
L 123.072139 -48.502614 
L 123.491162 -48.59557 
L 123.910186 -48.689001 
L 124.329209 -48.782895 
L 124.748232 -48.877257 
L 125.167256 -48.972082 
L 125.586279 -49.067376 
L 126.005303 -49.163119 
L 126.424326 -49.259323 
L 126.843349 -49.355987 
L 127.262373 -49.453093 
L 127.262373 -36.490625 
L 127.262373 -36.490625 
L 126.843349 -36.490625 
L 126.424326 -36.490625 
L 126.005303 -36.490625 
L 125.586279 -36.490625 
L 125.167256 -36.490625 
L 124.748232 -36.490625 
L 124.329209 -36.490625 
L 123.910186 -36.490625 
L 123.491162 -36.490625 
L 123.072139 -36.490625 
L 122.653116 -36.490625 
L 122.234092 -36.490625 
L 121.815069 -36.490625 
L 121.396035 -36.490625 
L 120.977012 -36.490625 
L 120.557989 -36.490625 
L 120.138965 -36.490625 
L 119.719942 -36.490625 
L 119.300919 -36.490625 
L 118.881895 -36.490625 
L 118.462872 -36.490625 
L 118.043848 -36.490625 
L 117.624825 -36.490625 
L 117.205802 -36.490625 
L 116.786778 -36.490625 
L 116.367755 -36.490625 
L 115.948732 -36.490625 
L 115.529708 -36.490625 
L 115.110685 -36.490625 
L 114.691661 -36.490625 
L 114.272638 -36.490625 
L 113.853615 -36.490625 
L 113.434591 -36.490625 
L 113.015568 -36.490625 
L 112.596544 -36.490625 
L 112.177521 -36.490625 
L 111.758498 -36.490625 
L 111.339464 -36.490625 
L 110.920441 -36.490625 
L 110.501418 -36.490625 
L 110.082394 -36.490625 
L 109.663371 -36.490625 
L 109.244347 -36.490625 
L 108.825324 -36.490625 
L 108.406301 -36.490625 
L 107.987277 -36.490625 
L 107.568254 -36.490625 
L 107.149231 -36.490625 
L 106.730207 -36.490625 
L 106.311184 -36.490625 
L 105.89216 -36.490625 
L 105.473137 -36.490625 
L 105.054114 -36.490625 
L 104.63509 -36.490625 
L 104.216067 -36.490625 
L 103.797044 -36.490625 
L 103.37802 -36.490625 
L 102.958997 -36.490625 
L 102.539973 -36.490625 
L 102.12095 -36.490625 
L 101.701927 -36.490625 
L 101.282893 -36.490625 
L 100.86387 -36.490625 
L 100.444846 -36.490625 
L 100.025823 -36.490625 
L 99.6068 -36.490625 
L 99.187776 -36.490625 
L 98.768753 -36.490625 
L 98.34973 -36.490625 
L 97.930706 -36.490625 
L 97.511683 -36.490625 
L 97.092659 -36.490625 
L 96.673636 -36.490625 
L 96.254613 -36.490625 
L 95.835589 -36.490625 
L 95.416566 -36.490625 
L 94.997543 -36.490625 
L 94.578519 -36.490625 
L 94.159496 -36.490625 
L 93.740472 -36.490625 
L 93.321449 -36.490625 
L 92.902426 -36.490625 
L 92.483402 -36.490625 
L 92.064379 -36.490625 
L 91.645356 -36.490625 
L 91.226322 -36.490625 
L 90.807299 -36.490625 
L 90.388275 -36.490625 
L 89.969252 -36.490625 
L 89.550229 -36.490625 
L 89.131205 -36.490625 
L 88.712182 -36.490625 
L 88.293158 -36.490625 
L 87.874135 -36.490625 
L 87.455112 -36.490625 
L 87.036088 -36.490625 
L 86.617065 -36.490625 
L 86.198042 -36.490625 
L 85.779018 -36.490625 
L 85.359995 -36.490625 
L 84.940971 -36.490625 
L 84.521948 -36.490625 
L 84.102925 -36.490625 
L 83.683901 -36.490625 
L 83.264878 -36.490625 
L 82.845855 -36.490625 
L 82.426831 -36.490625 
L 82.007808 -36.490625 
L 81.588784 -36.490625 
L 81.169761 -36.490625 
L 80.750738 -36.490625 
L 80.331714 -36.490625 
L 79.912691 -36.490625 
L 79.493668 -36.490625 
L 79.074644 -36.490625 
L 78.655621 -36.490625 
L 78.236597 -36.490625 
L 77.817564 -36.490625 
L 77.398541 -36.490625 
L 76.979517 -36.490625 
L 76.560494 -36.490625 
L 76.14147 -36.490625 
L 75.722447 -36.490625 
L 75.303424 -36.490625 
L 74.8844 -36.490625 
L 74.465377 -36.490625 
L 74.046354 -36.490625 
L 73.62733 -36.490625 
L 73.208307 -36.490625 
L 72.789283 -36.490625 
L 72.37026 -36.490625 
L 71.951237 -36.490625 
L 71.532213 -36.490625 
L 71.11319 -36.490625 
L 70.694167 -36.490625 
L 70.275143 -36.490625 
L 69.85612 -36.490625 
L 69.437096 -36.490625 
L 69.018073 -36.490625 
L 68.59905 -36.490625 
L 68.180026 -36.490625 
L 67.760993 -36.490625 
L 67.34197 -36.490625 
L 66.922946 -36.490625 
L 66.503923 -36.490625 
L 66.084899 -36.490625 
L 65.665876 -36.490625 
L 65.246853 -36.490625 
L 64.827829 -36.490625 
L 64.408806 -36.490625 
L 63.989782 -36.490625 
L 63.570759 -36.490625 
L 63.151736 -36.490625 
L 62.732712 -36.490625 
L 62.313689 -36.490625 
L 61.894666 -36.490625 
L 61.475642 -36.490625 
L 61.056619 -36.490625 
L 60.637595 -36.490625 
L 60.218572 -36.490625 
L 59.799549 -36.490625 
L 59.380525 -36.490625 
L 58.961502 -36.490625 
L 58.542479 -36.490625 
L 58.123455 -36.490625 
L 57.704422 -36.490625 
L 57.285398 -36.490625 
L 56.866375 -36.490625 
L 56.447352 -36.490625 
L 56.028328 -36.490625 
L 55.609305 -36.490625 
L 55.190282 -36.490625 
L 54.771258 -36.490625 
L 54.352235 -36.490625 
L 53.933211 -36.490625 
L 53.514188 -36.490625 
L 53.095165 -36.490625 
L 52.676141 -36.490625 
L 52.257118 -36.490625 
L 51.838094 -36.490625 
L 51.419071 -36.490625 
L 51.000048 -36.490625 
L 50.581024 -36.490625 
L 50.162001 -36.490625 
L 49.742978 -36.490625 
L 49.323954 -36.490625 
L 48.904931 -36.490625 
L 48.485907 -36.490625 
L 48.066884 -36.490625 
L 47.647851 -36.490625 
L 47.228827 -36.490625 
L 46.809804 -36.490625 
L 46.390781 -36.490625 
L 45.971757 -36.490625 
L 45.552734 -36.490625 
L 45.13371 -36.490625 
L 44.714687 -36.490625 
L 44.295664 -36.490625 
L 43.87664 -36.490625 
L 43.457617 -36.490625 
L 43.038594 -36.490625 
L 42.61957 -36.490625 
L 42.200547 -36.490625 
L 41.781523 -36.490625 
L 41.3625 -36.490625 
z
" id="mf86feac84a" style="stroke:#1f77b4;stroke-opacity:0.5;"/>
    </defs>
    <g clip-path="url(#p16203728eb)">
     <use style="fill:#1f77b4;fill-opacity:0.5;stroke:#1f77b4;stroke-opacity:0.5;" x="0" xlink:href="#mf86feac84a" y="221.50625"/>
    </g>
   </g>
   <g id="PolyCollection_2">
    <defs>
     <path d="M 127.681396 -36.490625 
L 127.681396 -71.317359 
L 128.100424 -71.578713 
L 128.519448 -71.841233 
L 128.938471 -72.10492 
L 129.357495 -72.369769 
L 129.776518 -72.635761 
L 130.195541 -72.902908 
L 130.614565 -73.171175 
L 131.033588 -73.440587 
L 131.452617 -73.711092 
L 131.871635 -73.982701 
L 132.290658 -74.255394 
L 132.709682 -74.529161 
L 133.128705 -74.803998 
L 133.547728 -75.079903 
L 133.966752 -75.356831 
L 134.385775 -75.634793 
L 134.804804 -75.913766 
L 135.223827 -76.193743 
L 135.64285 -76.474707 
L 136.061874 -76.756635 
L 136.480897 -77.039531 
L 136.89992 -77.323362 
L 137.318944 -77.608129 
L 137.737967 -77.893798 
L 138.156996 -78.180364 
L 138.576019 -78.467828 
L 138.995042 -78.756128 
L 139.414066 -79.045293 
L 139.833089 -79.33527 
L 140.252112 -79.626064 
L 140.671136 -79.917656 
L 141.090159 -80.210014 
L 141.509188 -80.503137 
L 141.928206 -80.796983 
L 142.347229 -81.091546 
L 142.766253 -81.386795 
L 143.185276 -81.682738 
L 143.6043 -81.979319 
L 144.023323 -82.276537 
L 144.442346 -82.57437 
L 144.861375 -82.872807 
L 145.280398 -83.171788 
L 145.699421 -83.471321 
L 146.118445 -83.771364 
L 146.537468 -84.071908 
L 146.956492 -84.372934 
L 147.375515 -84.674409 
L 147.794538 -84.976299 
L 148.213567 -85.278595 
L 148.632585 -85.58126 
L 149.051608 -85.884261 
L 149.470632 -86.187606 
L 149.889655 -86.49123 
L 150.308679 -86.795137 
L 150.727702 -87.099271 
L 151.146725 -87.403618 
L 151.565754 -87.708167 
L 151.984777 -88.012859 
L 152.4038 -88.317687 
L 152.822824 -88.62261 
L 153.241847 -88.927595 
L 153.660871 -89.232626 
L 154.079894 -89.537672 
L 154.498917 -89.842689 
L 154.917946 -90.147655 
L 155.336969 -90.45254 
L 155.755993 -90.757307 
L 156.175016 -91.061932 
L 156.594039 -91.366359 
L 157.013063 -91.670592 
L 157.432086 -91.974575 
L 157.851109 -92.278284 
L 158.270138 -92.581677 
L 158.689156 -92.884734 
L 159.10818 -93.187408 
L 159.527203 -93.489653 
L 159.946226 -93.791458 
L 160.36525 -94.092772 
L 160.784273 -94.393576 
L 161.203296 -94.693827 
L 161.622325 -94.993478 
L 162.041348 -95.292511 
L 162.460372 -95.590867 
L 162.879395 -95.888535 
L 162.879395 -36.490625 
L 162.879395 -36.490625 
L 162.460372 -36.490625 
L 162.041348 -36.490625 
L 161.622325 -36.490625 
L 161.203296 -36.490625 
L 160.784273 -36.490625 
L 160.36525 -36.490625 
L 159.946226 -36.490625 
L 159.527203 -36.490625 
L 159.10818 -36.490625 
L 158.689156 -36.490625 
L 158.270138 -36.490625 
L 157.851109 -36.490625 
L 157.432086 -36.490625 
L 157.013063 -36.490625 
L 156.594039 -36.490625 
L 156.175016 -36.490625 
L 155.755993 -36.490625 
L 155.336969 -36.490625 
L 154.917946 -36.490625 
L 154.498917 -36.490625 
L 154.079894 -36.490625 
L 153.660871 -36.490625 
L 153.241847 -36.490625 
L 152.822824 -36.490625 
L 152.4038 -36.490625 
L 151.984777 -36.490625 
L 151.565754 -36.490625 
L 151.146725 -36.490625 
L 150.727702 -36.490625 
L 150.308679 -36.490625 
L 149.889655 -36.490625 
L 149.470632 -36.490625 
L 149.051608 -36.490625 
L 148.632585 -36.490625 
L 148.213567 -36.490625 
L 147.794538 -36.490625 
L 147.375515 -36.490625 
L 146.956492 -36.490625 
L 146.537468 -36.490625 
L 146.118445 -36.490625 
L 145.699421 -36.490625 
L 145.280398 -36.490625 
L 144.861375 -36.490625 
L 144.442346 -36.490625 
L 144.023323 -36.490625 
L 143.6043 -36.490625 
L 143.185276 -36.490625 
L 142.766253 -36.490625 
L 142.347229 -36.490625 
L 141.928206 -36.490625 
L 141.509188 -36.490625 
L 141.090159 -36.490625 
L 140.671136 -36.490625 
L 140.252112 -36.490625 
L 139.833089 -36.490625 
L 139.414066 -36.490625 
L 138.995042 -36.490625 
L 138.576019 -36.490625 
L 138.156996 -36.490625 
L 137.737967 -36.490625 
L 137.318944 -36.490625 
L 136.89992 -36.490625 
L 136.480897 -36.490625 
L 136.061874 -36.490625 
L 135.64285 -36.490625 
L 135.223827 -36.490625 
L 134.804804 -36.490625 
L 134.385775 -36.490625 
L 133.966752 -36.490625 
L 133.547728 -36.490625 
L 133.128705 -36.490625 
L 132.709682 -36.490625 
L 132.290658 -36.490625 
L 131.871635 -36.490625 
L 131.452617 -36.490625 
L 131.033588 -36.490625 
L 130.614565 -36.490625 
L 130.195541 -36.490625 
L 129.776518 -36.490625 
L 129.357495 -36.490625 
L 128.938471 -36.490625 
L 128.519448 -36.490625 
L 128.100424 -36.490625 
L 127.681396 -36.490625 
z
" id="mdfa6940152" style="stroke:#ff7f0e;stroke-opacity:0.5;"/>
    </defs>
    <g clip-path="url(#p16203728eb)">
     <use style="fill:#ff7f0e;fill-opacity:0.5;stroke:#ff7f0e;stroke-opacity:0.5;" x="0" xlink:href="#mdfa6940152" y="221.50625"/>
    </g>
   </g>
   <g id="PolyCollection_3">
    <defs>
     <path d="M 163.298418 -36.490625 
L 163.298418 -155.880267 
L 163.717442 -156.472579 
L 164.136465 -157.063255 
L 164.555488 -157.652213 
L 164.974517 -158.239422 
L 165.39354 -158.824761 
L 165.812564 -159.408173 
L 166.231587 -159.989563 
L 166.65061 -160.568912 
L 167.069636 -161.14607 
L 167.48866 -161.720998 
L 167.907683 -162.293583 
L 168.326706 -162.863796 
L 168.74573 -163.431535 
L 169.164753 -163.996694 
L 169.583777 -164.559227 
L 170.0028 -165.119067 
L 170.421826 -165.676101 
L 170.840849 -166.230244 
L 171.259873 -166.78145 
L 171.678896 -167.329603 
L 172.097919 -167.874668 
L 172.516943 -168.41651 
L 172.935966 -168.955084 
L 173.354989 -169.490304 
L 173.774015 -170.022076 
L 174.193039 -170.550295 
L 174.612062 -171.074962 
L 175.031085 -171.595945 
L 175.450109 -172.113149 
L 175.869132 -172.626498 
L 176.288156 -173.135926 
L 176.707179 -173.641339 
L 177.126205 -174.142718 
L 177.545228 -174.639903 
L 177.964252 -175.132826 
L 178.383275 -175.621442 
L 178.802298 -176.105626 
L 179.221322 -176.585342 
L 179.640345 -177.060514 
L 180.059369 -177.531009 
L 180.478394 -177.996799 
L 180.897418 -178.45779 
L 181.316441 -178.913906 
L 181.735465 -179.365053 
L 182.15449 -179.811183 
L 182.573514 -180.252183 
L 182.992537 -180.688034 
L 183.411561 -181.118623 
L 183.830586 -181.543846 
L 184.24961 -181.963702 
L 184.668633 -182.37807 
L 185.087657 -182.786882 
L 185.50668 -183.190055 
L 185.925703 -183.587568 
L 186.344727 -183.979299 
L 186.76375 -184.365163 
L 187.182776 -184.74517 
L 187.182776 -36.490625 
L 187.182776 -36.490625 
L 186.76375 -36.490625 
L 186.344727 -36.490625 
L 185.925703 -36.490625 
L 185.50668 -36.490625 
L 185.087657 -36.490625 
L 184.668633 -36.490625 
L 184.24961 -36.490625 
L 183.830586 -36.490625 
L 183.411561 -36.490625 
L 182.992537 -36.490625 
L 182.573514 -36.490625 
L 182.15449 -36.490625 
L 181.735465 -36.490625 
L 181.316441 -36.490625 
L 180.897418 -36.490625 
L 180.478394 -36.490625 
L 180.059369 -36.490625 
L 179.640345 -36.490625 
L 179.221322 -36.490625 
L 178.802298 -36.490625 
L 178.383275 -36.490625 
L 177.964252 -36.490625 
L 177.545228 -36.490625 
L 177.126205 -36.490625 
L 176.707179 -36.490625 
L 176.288156 -36.490625 
L 175.869132 -36.490625 
L 175.450109 -36.490625 
L 175.031085 -36.490625 
L 174.612062 -36.490625 
L 174.193039 -36.490625 
L 173.774015 -36.490625 
L 173.354989 -36.490625 
L 172.935966 -36.490625 
L 172.516943 -36.490625 
L 172.097919 -36.490625 
L 171.678896 -36.490625 
L 171.259873 -36.490625 
L 170.840849 -36.490625 
L 170.421826 -36.490625 
L 170.0028 -36.490625 
L 169.583777 -36.490625 
L 169.164753 -36.490625 
L 168.74573 -36.490625 
L 168.326706 -36.490625 
L 167.907683 -36.490625 
L 167.48866 -36.490625 
L 167.069636 -36.490625 
L 166.65061 -36.490625 
L 166.231587 -36.490625 
L 165.812564 -36.490625 
L 165.39354 -36.490625 
L 164.974517 -36.490625 
L 164.555488 -36.490625 
L 164.136465 -36.490625 
L 163.717442 -36.490625 
L 163.298418 -36.490625 
z
" id="meab8d46954" style="stroke:#2ca02c;stroke-opacity:0.5;"/>
    </defs>
    <g clip-path="url(#p16203728eb)">
     <use style="fill:#2ca02c;fill-opacity:0.5;stroke:#2ca02c;stroke-opacity:0.5;" x="0" xlink:href="#meab8d46954" y="221.50625"/>
    </g>
   </g>
   <g id="PolyCollection_4">
    <defs>
     <path d="M 187.601799 -36.490625 
L 187.601799 -110.804892 
L 188.020823 -110.988873 
L 188.439846 -111.169802 
L 188.858871 -111.347642 
L 189.277894 -111.522369 
L 189.696919 -111.693921 
L 190.115942 -111.862309 
L 190.534966 -112.027489 
L 190.95399 -112.189405 
L 191.373014 -112.348043 
L 191.792037 -112.503388 
L 192.21106 -112.655398 
L 192.630084 -112.804041 
L 193.049108 -112.949296 
L 193.468132 -113.091132 
L 193.887155 -113.229519 
L 194.30618 -113.364434 
L 194.725203 -113.495867 
L 195.144226 -113.623763 
L 195.563251 -113.748106 
L 195.982274 -113.868883 
L 196.401299 -113.986065 
L 196.820322 -114.099629 
L 197.239346 -114.209565 
L 197.65837 -114.31583 
L 198.077394 -114.418411 
L 198.496417 -114.517298 
L 198.915441 -114.612468 
L 199.334465 -114.703896 
L 199.753489 -114.791559 
L 200.172513 -114.875453 
L 200.591537 -114.955568 
L 201.01056 -115.031857 
L 201.429584 -115.104338 
L 201.848607 -115.172979 
L 202.267631 -115.23777 
L 202.686655 -115.298702 
L 203.105679 -115.355755 
L 203.524703 -115.40893 
L 203.943726 -115.458204 
L 204.36275 -115.50358 
L 204.781774 -115.545026 
L 205.200798 -115.582561 
L 205.619822 -115.616161 
L 206.038845 -115.645822 
L 206.457869 -115.671533 
L 206.876893 -115.69331 
L 207.295917 -115.711128 
L 207.71494 -115.725001 
L 208.133964 -115.734902 
L 208.552988 -115.740845 
L 208.552988 -36.490625 
L 208.552988 -36.490625 
L 208.133964 -36.490625 
L 207.71494 -36.490625 
L 207.295917 -36.490625 
L 206.876893 -36.490625 
L 206.457869 -36.490625 
L 206.038845 -36.490625 
L 205.619822 -36.490625 
L 205.200798 -36.490625 
L 204.781774 -36.490625 
L 204.36275 -36.490625 
L 203.943726 -36.490625 
L 203.524703 -36.490625 
L 203.105679 -36.490625 
L 202.686655 -36.490625 
L 202.267631 -36.490625 
L 201.848607 -36.490625 
L 201.429584 -36.490625 
L 201.01056 -36.490625 
L 200.591537 -36.490625 
L 200.172513 -36.490625 
L 199.753489 -36.490625 
L 199.334465 -36.490625 
L 198.915441 -36.490625 
L 198.496417 -36.490625 
L 198.077394 -36.490625 
L 197.65837 -36.490625 
L 197.239346 -36.490625 
L 196.820322 -36.490625 
L 196.401299 -36.490625 
L 195.982274 -36.490625 
L 195.563251 -36.490625 
L 195.144226 -36.490625 
L 194.725203 -36.490625 
L 194.30618 -36.490625 
L 193.887155 -36.490625 
L 193.468132 -36.490625 
L 193.049108 -36.490625 
L 192.630084 -36.490625 
L 192.21106 -36.490625 
L 191.792037 -36.490625 
L 191.373014 -36.490625 
L 190.95399 -36.490625 
L 190.534966 -36.490625 
L 190.115942 -36.490625 
L 189.696919 -36.490625 
L 189.277894 -36.490625 
L 188.858871 -36.490625 
L 188.439846 -36.490625 
L 188.020823 -36.490625 
L 187.601799 -36.490625 
z
" id="me616a05049" style="stroke:#d62728;stroke-opacity:0.5;"/>
    </defs>
    <g clip-path="url(#p16203728eb)">
     <use style="fill:#d62728;fill-opacity:0.5;stroke:#d62728;stroke-opacity:0.5;" x="0" xlink:href="#me616a05049" y="221.50625"/>
    </g>
   </g>
   <g id="PolyCollection_5">
    <defs>
     <path d="M 208.972012 -36.490625 
L 208.972012 -66.210201 
L 209.391035 -66.209457 
L 209.810059 -66.207229 
L 210.229083 -66.203516 
L 210.648107 -66.198317 
L 211.067131 -66.191635 
L 211.486154 -66.183473 
L 211.905178 -66.173824 
L 212.324202 -66.162701 
L 212.743226 -66.150101 
L 213.16225 -66.136025 
L 213.581273 -66.12048 
L 214.000297 -66.103467 
L 214.419321 -66.084989 
L 214.838345 -66.065049 
L 215.257368 -66.043654 
L 215.676392 -66.020808 
L 216.095416 -65.996508 
L 216.514439 -65.970767 
L 216.933463 -65.943587 
L 217.352487 -65.914975 
L 217.771511 -65.884936 
L 218.190535 -65.853475 
L 218.609558 -65.820598 
L 219.028582 -65.786316 
L 219.447606 -65.750628 
L 219.86663 -65.713545 
L 220.285653 -65.675077 
L 220.704678 -65.635227 
L 221.123701 -65.594001 
L 221.542724 -65.551415 
L 221.961749 -65.507472 
L 222.380772 -65.46218 
L 222.799796 -65.415552 
L 223.21882 -65.367587 
L 223.637844 -65.318307 
L 224.056867 -65.26771 
L 224.475892 -65.215815 
L 224.894915 -65.162627 
L 225.313938 -65.108156 
L 225.732963 -65.052415 
L 226.151986 -64.995415 
L 226.571011 -64.93716 
L 226.990034 -64.877668 
L 227.409058 -64.816945 
L 227.828083 -64.755006 
L 228.247106 -64.691865 
L 228.666129 -64.627525 
L 229.085153 -64.562006 
L 229.504176 -64.495316 
L 229.923201 -64.427468 
L 230.342224 -64.358475 
L 230.342224 -36.490625 
L 230.342224 -36.490625 
L 229.923201 -36.490625 
L 229.504176 -36.490625 
L 229.085153 -36.490625 
L 228.666129 -36.490625 
L 228.247106 -36.490625 
L 227.828083 -36.490625 
L 227.409058 -36.490625 
L 226.990034 -36.490625 
L 226.571011 -36.490625 
L 226.151986 -36.490625 
L 225.732963 -36.490625 
L 225.313938 -36.490625 
L 224.894915 -36.490625 
L 224.475892 -36.490625 
L 224.056867 -36.490625 
L 223.637844 -36.490625 
L 223.21882 -36.490625 
L 222.799796 -36.490625 
L 222.380772 -36.490625 
L 221.961749 -36.490625 
L 221.542724 -36.490625 
L 221.123701 -36.490625 
L 220.704678 -36.490625 
L 220.285653 -36.490625 
L 219.86663 -36.490625 
L 219.447606 -36.490625 
L 219.028582 -36.490625 
L 218.609558 -36.490625 
L 218.190535 -36.490625 
L 217.771511 -36.490625 
L 217.352487 -36.490625 
L 216.933463 -36.490625 
L 216.514439 -36.490625 
L 216.095416 -36.490625 
L 215.676392 -36.490625 
L 215.257368 -36.490625 
L 214.838345 -36.490625 
L 214.419321 -36.490625 
L 214.000297 -36.490625 
L 213.581273 -36.490625 
L 213.16225 -36.490625 
L 212.743226 -36.490625 
L 212.324202 -36.490625 
L 211.905178 -36.490625 
L 211.486154 -36.490625 
L 211.067131 -36.490625 
L 210.648107 -36.490625 
L 210.229083 -36.490625 
L 209.810059 -36.490625 
L 209.391035 -36.490625 
L 208.972012 -36.490625 
z
" id="mdbc597001d" style="stroke:#9467bd;stroke-opacity:0.5;"/>
    </defs>
    <g clip-path="url(#p16203728eb)">
     <use style="fill:#9467bd;fill-opacity:0.5;stroke:#9467bd;stroke-opacity:0.5;" x="0" xlink:href="#mdbc597001d" y="221.50625"/>
    </g>
   </g>
   <g id="PolyCollection_6">
    <defs>
     <path d="M 230.761247 -36.490625 
L 230.761247 -45.756533 
L 231.180271 -45.732784 
L 231.599294 -45.708666 
L 232.01832 -45.684184 
L 232.437343 -45.65934 
L 232.856367 -45.634141 
L 233.27539 -45.60859 
L 233.694414 -45.582692 
L 234.113439 -45.556454 
L 234.532463 -45.529874 
L 234.951486 -45.502963 
L 235.37051 -45.475724 
L 235.789533 -45.448159 
L 236.208556 -45.420277 
L 236.62758 -45.392079 
L 237.046603 -45.363572 
L 237.465629 -45.334761 
L 237.884652 -45.305649 
L 238.303676 -45.276242 
L 238.722699 -45.246545 
L 239.141725 -45.216563 
L 239.560748 -45.1863 
L 239.979772 -45.155763 
L 240.398795 -45.124955 
L 240.817821 -45.093881 
L 241.236844 -45.062547 
L 241.655868 -45.030956 
L 242.074891 -44.999117 
L 242.493915 -44.967033 
L 242.912938 -44.934708 
L 243.331961 -44.902147 
L 243.750985 -44.869356 
L 244.170011 -44.836341 
L 244.589034 -44.803104 
L 245.008057 -44.769653 
L 245.427081 -44.735993 
L 245.846104 -44.702127 
L 246.265127 -44.668062 
L 246.684151 -44.6338 
L 247.103174 -44.599351 
L 247.5222 -44.564717 
L 247.941223 -44.529902 
L 248.360247 -44.494913 
L 248.77927 -44.459754 
L 249.198294 -44.42443 
L 249.617317 -44.388948 
L 250.03634 -44.35331 
L 250.455364 -44.317522 
L 250.87439 -44.28159 
L 251.293413 -44.245517 
L 251.712436 -44.209309 
L 252.13146 -44.172972 
L 252.550483 -44.136509 
L 252.969507 -44.099925 
L 253.38853 -44.063225 
L 253.807553 -44.026414 
L 254.226577 -43.989497 
L 254.6456 -43.952479 
L 254.6456 -36.490625 
L 254.6456 -36.490625 
L 254.226577 -36.490625 
L 253.807553 -36.490625 
L 253.38853 -36.490625 
L 252.969507 -36.490625 
L 252.550483 -36.490625 
L 252.13146 -36.490625 
L 251.712436 -36.490625 
L 251.293413 -36.490625 
L 250.87439 -36.490625 
L 250.455364 -36.490625 
L 250.03634 -36.490625 
L 249.617317 -36.490625 
L 249.198294 -36.490625 
L 248.77927 -36.490625 
L 248.360247 -36.490625 
L 247.941223 -36.490625 
L 247.5222 -36.490625 
L 247.103174 -36.490625 
L 246.684151 -36.490625 
L 246.265127 -36.490625 
L 245.846104 -36.490625 
L 245.427081 -36.490625 
L 245.008057 -36.490625 
L 244.589034 -36.490625 
L 244.170011 -36.490625 
L 243.750985 -36.490625 
L 243.331961 -36.490625 
L 242.912938 -36.490625 
L 242.493915 -36.490625 
L 242.074891 -36.490625 
L 241.655868 -36.490625 
L 241.236844 -36.490625 
L 240.817821 -36.490625 
L 240.398795 -36.490625 
L 239.979772 -36.490625 
L 239.560748 -36.490625 
L 239.141725 -36.490625 
L 238.722699 -36.490625 
L 238.303676 -36.490625 
L 237.884652 -36.490625 
L 237.465629 -36.490625 
L 237.046603 -36.490625 
L 236.62758 -36.490625 
L 236.208556 -36.490625 
L 235.789533 -36.490625 
L 235.37051 -36.490625 
L 234.951486 -36.490625 
L 234.532463 -36.490625 
L 234.113439 -36.490625 
L 233.694414 -36.490625 
L 233.27539 -36.490625 
L 232.856367 -36.490625 
L 232.437343 -36.490625 
L 232.01832 -36.490625 
L 231.599294 -36.490625 
L 231.180271 -36.490625 
L 230.761247 -36.490625 
z
" id="mf688c3f639" style="stroke:#8c564b;stroke-opacity:0.5;"/>
    </defs>
    <g clip-path="url(#p16203728eb)">
     <use style="fill:#8c564b;fill-opacity:0.5;stroke:#8c564b;stroke-opacity:0.5;" x="0" xlink:href="#mf688c3f639" y="221.50625"/>
    </g>
   </g>
   <g id="PolyCollection_7">
    <defs>
     <path d="M 255.064623 -36.490625 
L 255.064623 -40.202994 
L 255.483652 -40.18439 
L 255.902675 -40.165742 
L 256.321699 -40.147053 
L 256.740722 -40.128325 
L 257.159745 -40.109559 
L 257.578769 -40.09076 
L 257.997792 -40.071927 
L 258.416815 -40.053065 
L 258.835844 -40.034173 
L 259.254867 -40.015257 
L 259.673891 -39.996316 
L 260.092914 -39.977354 
L 260.511937 -39.958372 
L 260.930961 -39.939373 
L 261.349984 -39.920359 
L 261.769007 -39.901331 
L 262.188036 -39.882293 
L 262.607054 -39.863245 
L 263.026078 -39.84419 
L 263.445101 -39.825129 
L 263.864124 -39.806065 
L 264.283148 -39.787 
L 264.702171 -39.767936 
L 265.121195 -39.748874 
L 265.540223 -39.729816 
L 265.959246 -39.710765 
L 266.37827 -39.691721 
L 266.797293 -39.672688 
L 267.216316 -39.653666 
L 267.63534 -39.634657 
L 268.054363 -39.615663 
L 268.473387 -39.596686 
L 268.892415 -39.577728 
L 269.311438 -39.558789 
L 269.730462 -39.539873 
L 270.149485 -39.52098 
L 270.568508 -39.502111 
L 270.987532 -39.483269 
L 271.406555 -39.464455 
L 271.825579 -39.445671 
L 272.244607 -39.426918 
L 272.663625 -39.408198 
L 273.082649 -39.389511 
L 273.501672 -39.370859 
L 273.920695 -39.352245 
L 274.339719 -39.333669 
L 274.758742 -39.315132 
L 275.177766 -39.296636 
L 275.596794 -39.278182 
L 276.015817 -39.259772 
L 276.434841 -39.241406 
L 276.853864 -39.223087 
L 277.272888 -39.204814 
L 277.691911 -39.18659 
L 278.110934 -39.168415 
L 278.529958 -39.150292 
L 278.948986 -39.132219 
L 279.368004 -39.1142 
L 279.787028 -39.096234 
L 280.206051 -39.078323 
L 280.625075 -39.060469 
L 281.044098 -39.042671 
L 281.463121 -39.024932 
L 281.882145 -39.007251 
L 282.301173 -38.98963 
L 282.720196 -38.97207 
L 283.13922 -38.954571 
L 283.558243 -38.937136 
L 283.977267 -38.919763 
L 284.39629 -38.902455 
L 284.815313 -38.885211 
L 285.234337 -38.868034 
L 285.653365 -38.850923 
L 286.072388 -38.83388 
L 286.491412 -38.816904 
L 286.910435 -38.799998 
L 287.329459 -38.78316 
L 287.748482 -38.766393 
L 288.167505 -38.749697 
L 288.586529 -38.733071 
L 289.005557 -38.716518 
L 289.424576 -38.700037 
L 289.843599 -38.68363 
L 290.262622 -38.667296 
L 290.262622 -36.490625 
L 290.262622 -36.490625 
L 289.843599 -36.490625 
L 289.424576 -36.490625 
L 289.005557 -36.490625 
L 288.586529 -36.490625 
L 288.167505 -36.490625 
L 287.748482 -36.490625 
L 287.329459 -36.490625 
L 286.910435 -36.490625 
L 286.491412 -36.490625 
L 286.072388 -36.490625 
L 285.653365 -36.490625 
L 285.234337 -36.490625 
L 284.815313 -36.490625 
L 284.39629 -36.490625 
L 283.977267 -36.490625 
L 283.558243 -36.490625 
L 283.13922 -36.490625 
L 282.720196 -36.490625 
L 282.301173 -36.490625 
L 281.882145 -36.490625 
L 281.463121 -36.490625 
L 281.044098 -36.490625 
L 280.625075 -36.490625 
L 280.206051 -36.490625 
L 279.787028 -36.490625 
L 279.368004 -36.490625 
L 278.948986 -36.490625 
L 278.529958 -36.490625 
L 278.110934 -36.490625 
L 277.691911 -36.490625 
L 277.272888 -36.490625 
L 276.853864 -36.490625 
L 276.434841 -36.490625 
L 276.015817 -36.490625 
L 275.596794 -36.490625 
L 275.177766 -36.490625 
L 274.758742 -36.490625 
L 274.339719 -36.490625 
L 273.920695 -36.490625 
L 273.501672 -36.490625 
L 273.082649 -36.490625 
L 272.663625 -36.490625 
L 272.244607 -36.490625 
L 271.825579 -36.490625 
L 271.406555 -36.490625 
L 270.987532 -36.490625 
L 270.568508 -36.490625 
L 270.149485 -36.490625 
L 269.730462 -36.490625 
L 269.311438 -36.490625 
L 268.892415 -36.490625 
L 268.473387 -36.490625 
L 268.054363 -36.490625 
L 267.63534 -36.490625 
L 267.216316 -36.490625 
L 266.797293 -36.490625 
L 266.37827 -36.490625 
L 265.959246 -36.490625 
L 265.540223 -36.490625 
L 265.121195 -36.490625 
L 264.702171 -36.490625 
L 264.283148 -36.490625 
L 263.864124 -36.490625 
L 263.445101 -36.490625 
L 263.026078 -36.490625 
L 262.607054 -36.490625 
L 262.188036 -36.490625 
L 261.769007 -36.490625 
L 261.349984 -36.490625 
L 260.930961 -36.490625 
L 260.511937 -36.490625 
L 260.092914 -36.490625 
L 259.673891 -36.490625 
L 259.254867 -36.490625 
L 258.835844 -36.490625 
L 258.416815 -36.490625 
L 257.997792 -36.490625 
L 257.578769 -36.490625 
L 257.159745 -36.490625 
L 256.740722 -36.490625 
L 256.321699 -36.490625 
L 255.902675 -36.490625 
L 255.483652 -36.490625 
L 255.064623 -36.490625 
z
" id="m473c514266" style="stroke:#e377c2;stroke-opacity:0.5;"/>
    </defs>
    <g clip-path="url(#p16203728eb)">
     <use style="fill:#e377c2;fill-opacity:0.5;stroke:#e377c2;stroke-opacity:0.5;" x="0" xlink:href="#m473c514266" y="221.50625"/>
    </g>
   </g>
   <g id="PolyCollection_8">
    <defs>
     <path d="M 290.681646 -36.490625 
L 290.681646 -38.651037 
L 291.100669 -38.634852 
L 291.519692 -38.618742 
L 291.938716 -38.602708 
L 292.357744 -38.58675 
L 292.776768 -38.570868 
L 293.195791 -38.555064 
L 293.614814 -38.539337 
L 294.033838 -38.523688 
L 294.452861 -38.508116 
L 294.871884 -38.492624 
L 295.290908 -38.47721 
L 295.709931 -38.461875 
L 296.128955 -38.44662 
L 296.547978 -38.431444 
L 296.967001 -38.416349 
L 297.386025 -38.401334 
L 297.805048 -38.386399 
L 298.224071 -38.371545 
L 298.643095 -38.356772 
L 299.062118 -38.34208 
L 299.481152 -38.327469 
L 299.900175 -38.31294 
L 300.319198 -38.298493 
L 300.738222 -38.284127 
L 301.157245 -38.269843 
L 301.576268 -38.255642 
L 301.995292 -38.241523 
L 302.414315 -38.227485 
L 302.833339 -38.213531 
L 303.252362 -38.199658 
L 303.671385 -38.185868 
L 304.090409 -38.172161 
L 304.509432 -38.158536 
L 304.928456 -38.144993 
L 305.347479 -38.131534 
L 305.766502 -38.118156 
L 306.185526 -38.104861 
L 306.604549 -38.091649 
L 307.023572 -38.078519 
L 307.442596 -38.065472 
L 307.861619 -38.052507 
L 308.280643 -38.039624 
L 308.699666 -38.026824 
L 309.118689 -38.014105 
L 309.537723 -38.001469 
L 309.956746 -37.988915 
L 310.375769 -37.976442 
L 310.794793 -37.964052 
L 311.213816 -37.951743 
L 311.63284 -37.939515 
L 312.051863 -37.927369 
L 312.470886 -37.915304 
L 312.88991 -37.903319 
L 313.308933 -37.891416 
L 313.727956 -37.879594 
L 314.14698 -37.867851 
L 314.566003 -37.856189 
L 314.985027 -37.844608 
L 315.40405 -37.833106 
L 315.823073 -37.821683 
L 316.242097 -37.810341 
L 316.66112 -37.799077 
L 317.080144 -37.787893 
L 317.499167 -37.776787 
L 317.91819 -37.76576 
L 318.337214 -37.75481 
L 318.756237 -37.743939 
L 319.17526 -37.733146 
L 319.594294 -37.72243 
L 320.013317 -37.711792 
L 320.432341 -37.70123 
L 320.851364 -37.690745 
L 321.270387 -37.680337 
L 321.689411 -37.670004 
L 322.108434 -37.659748 
L 322.527457 -37.649567 
L 322.946481 -37.639461 
L 323.365504 -37.62943 
L 323.784528 -37.619474 
L 324.203551 -37.609592 
L 324.622574 -37.599784 
L 325.041598 -37.590049 
L 325.460621 -37.580388 
L 325.879644 -37.5708 
L 326.298668 -37.561285 
L 326.717691 -37.551842 
L 327.136715 -37.542471 
L 327.555738 -37.533172 
L 327.974761 -37.523944 
L 328.393785 -37.514787 
L 328.812808 -37.505701 
L 329.231832 -37.496685 
L 329.650865 -37.487738 
L 330.069888 -37.478862 
L 330.488912 -37.470055 
L 330.907935 -37.461316 
L 331.326958 -37.452647 
L 331.745982 -37.444045 
L 332.165005 -37.435511 
L 332.584029 -37.427045 
L 333.003052 -37.418646 
L 333.422075 -37.410313 
L 333.841099 -37.402047 
L 334.260122 -37.393847 
L 334.679145 -37.385712 
L 335.098169 -37.377643 
L 335.517192 -37.369639 
L 335.936216 -37.361699 
L 336.355239 -37.353823 
L 336.774262 -37.346011 
L 337.193286 -37.338262 
L 337.612309 -37.330577 
L 338.031332 -37.322954 
L 338.450356 -37.315393 
L 338.869379 -37.307894 
L 339.288403 -37.300457 
L 339.707426 -37.29308 
L 340.126449 -37.285765 
L 340.545473 -37.27851 
L 340.964496 -37.271314 
L 341.38352 -37.264179 
L 341.802543 -37.257103 
L 342.221566 -37.250085 
L 342.64059 -37.243126 
L 343.059623 -37.236225 
L 343.478646 -37.229382 
L 343.89767 -37.222596 
L 344.316693 -37.215867 
L 344.735717 -37.209195 
L 345.15474 -37.202579 
L 345.573763 -37.196019 
L 345.992787 -37.189514 
L 346.41181 -37.183065 
L 346.830833 -37.17667 
L 347.249857 -37.170329 
L 347.66888 -37.164043 
L 348.087904 -37.15781 
L 348.506927 -37.15163 
L 348.92595 -37.145503 
L 349.344974 -37.139429 
L 349.763997 -37.133407 
L 350.18302 -37.127436 
L 350.602044 -37.121517 
L 351.021067 -37.115649 
L 351.440091 -37.109832 
L 351.859114 -37.104065 
L 352.278137 -37.098348 
L 352.697161 -37.09268 
L 353.116194 -37.087062 
L 353.535218 -37.081493 
L 353.954241 -37.075972 
L 354.373264 -37.070499 
L 354.792288 -37.065074 
L 355.211311 -37.059697 
L 355.630334 -37.054366 
L 356.049358 -37.049083 
L 356.468381 -37.043845 
L 356.887405 -37.038654 
L 357.306428 -37.033509 
L 357.725451 -37.028409 
L 358.144475 -37.023354 
L 358.563498 -37.018343 
L 358.982521 -37.013377 
L 359.401545 -37.008455 
L 359.820568 -37.003577 
L 360.239592 -36.998742 
L 360.658615 -36.99395 
L 361.077638 -36.9892 
L 361.496662 -36.984493 
L 361.915685 -36.979828 
L 362.334708 -36.975205 
L 362.753732 -36.970623 
L 363.172765 -36.966082 
L 363.591789 -36.961581 
L 364.010812 -36.957121 
L 364.429835 -36.952702 
L 364.848859 -36.948321 
L 365.267882 -36.943981 
L 365.686906 -36.939679 
L 366.105929 -36.935416 
L 366.524952 -36.931192 
L 366.943976 -36.927006 
L 367.362999 -36.922858 
L 367.782022 -36.918747 
L 368.201046 -36.914673 
L 368.620069 -36.910637 
L 369.039093 -36.906637 
L 369.458116 -36.902674 
L 369.877139 -36.898746 
L 370.296163 -36.894855 
L 370.715186 -36.890999 
L 371.134209 -36.887178 
L 371.553233 -36.883392 
L 371.972256 -36.87964 
L 372.39128 -36.875923 
L 372.810303 -36.87224 
L 373.229336 -36.86859 
L 373.64836 -36.864974 
L 374.067383 -36.861392 
L 374.486406 -36.857842 
L 374.90543 -36.854325 
L 375.324453 -36.85084 
L 375.743477 -36.847387 
L 376.1625 -36.843966 
L 376.1625 -36.490625 
L 376.1625 -36.490625 
L 375.743477 -36.490625 
L 375.324453 -36.490625 
L 374.90543 -36.490625 
L 374.486406 -36.490625 
L 374.067383 -36.490625 
L 373.64836 -36.490625 
L 373.229336 -36.490625 
L 372.810303 -36.490625 
L 372.39128 -36.490625 
L 371.972256 -36.490625 
L 371.553233 -36.490625 
L 371.134209 -36.490625 
L 370.715186 -36.490625 
L 370.296163 -36.490625 
L 369.877139 -36.490625 
L 369.458116 -36.490625 
L 369.039093 -36.490625 
L 368.620069 -36.490625 
L 368.201046 -36.490625 
L 367.782022 -36.490625 
L 367.362999 -36.490625 
L 366.943976 -36.490625 
L 366.524952 -36.490625 
L 366.105929 -36.490625 
L 365.686906 -36.490625 
L 365.267882 -36.490625 
L 364.848859 -36.490625 
L 364.429835 -36.490625 
L 364.010812 -36.490625 
L 363.591789 -36.490625 
L 363.172765 -36.490625 
L 362.753732 -36.490625 
L 362.334708 -36.490625 
L 361.915685 -36.490625 
L 361.496662 -36.490625 
L 361.077638 -36.490625 
L 360.658615 -36.490625 
L 360.239592 -36.490625 
L 359.820568 -36.490625 
L 359.401545 -36.490625 
L 358.982521 -36.490625 
L 358.563498 -36.490625 
L 358.144475 -36.490625 
L 357.725451 -36.490625 
L 357.306428 -36.490625 
L 356.887405 -36.490625 
L 356.468381 -36.490625 
L 356.049358 -36.490625 
L 355.630334 -36.490625 
L 355.211311 -36.490625 
L 354.792288 -36.490625 
L 354.373264 -36.490625 
L 353.954241 -36.490625 
L 353.535218 -36.490625 
L 353.116194 -36.490625 
L 352.697161 -36.490625 
L 352.278137 -36.490625 
L 351.859114 -36.490625 
L 351.440091 -36.490625 
L 351.021067 -36.490625 
L 350.602044 -36.490625 
L 350.18302 -36.490625 
L 349.763997 -36.490625 
L 349.344974 -36.490625 
L 348.92595 -36.490625 
L 348.506927 -36.490625 
L 348.087904 -36.490625 
L 347.66888 -36.490625 
L 347.249857 -36.490625 
L 346.830833 -36.490625 
L 346.41181 -36.490625 
L 345.992787 -36.490625 
L 345.573763 -36.490625 
L 345.15474 -36.490625 
L 344.735717 -36.490625 
L 344.316693 -36.490625 
L 343.89767 -36.490625 
L 343.478646 -36.490625 
L 343.059623 -36.490625 
L 342.64059 -36.490625 
L 342.221566 -36.490625 
L 341.802543 -36.490625 
L 341.38352 -36.490625 
L 340.964496 -36.490625 
L 340.545473 -36.490625 
L 340.126449 -36.490625 
L 339.707426 -36.490625 
L 339.288403 -36.490625 
L 338.869379 -36.490625 
L 338.450356 -36.490625 
L 338.031332 -36.490625 
L 337.612309 -36.490625 
L 337.193286 -36.490625 
L 336.774262 -36.490625 
L 336.355239 -36.490625 
L 335.936216 -36.490625 
L 335.517192 -36.490625 
L 335.098169 -36.490625 
L 334.679145 -36.490625 
L 334.260122 -36.490625 
L 333.841099 -36.490625 
L 333.422075 -36.490625 
L 333.003052 -36.490625 
L 332.584029 -36.490625 
L 332.165005 -36.490625 
L 331.745982 -36.490625 
L 331.326958 -36.490625 
L 330.907935 -36.490625 
L 330.488912 -36.490625 
L 330.069888 -36.490625 
L 329.650865 -36.490625 
L 329.231832 -36.490625 
L 328.812808 -36.490625 
L 328.393785 -36.490625 
L 327.974761 -36.490625 
L 327.555738 -36.490625 
L 327.136715 -36.490625 
L 326.717691 -36.490625 
L 326.298668 -36.490625 
L 325.879644 -36.490625 
L 325.460621 -36.490625 
L 325.041598 -36.490625 
L 324.622574 -36.490625 
L 324.203551 -36.490625 
L 323.784528 -36.490625 
L 323.365504 -36.490625 
L 322.946481 -36.490625 
L 322.527457 -36.490625 
L 322.108434 -36.490625 
L 321.689411 -36.490625 
L 321.270387 -36.490625 
L 320.851364 -36.490625 
L 320.432341 -36.490625 
L 320.013317 -36.490625 
L 319.594294 -36.490625 
L 319.17526 -36.490625 
L 318.756237 -36.490625 
L 318.337214 -36.490625 
L 317.91819 -36.490625 
L 317.499167 -36.490625 
L 317.080144 -36.490625 
L 316.66112 -36.490625 
L 316.242097 -36.490625 
L 315.823073 -36.490625 
L 315.40405 -36.490625 
L 314.985027 -36.490625 
L 314.566003 -36.490625 
L 314.14698 -36.490625 
L 313.727956 -36.490625 
L 313.308933 -36.490625 
L 312.88991 -36.490625 
L 312.470886 -36.490625 
L 312.051863 -36.490625 
L 311.63284 -36.490625 
L 311.213816 -36.490625 
L 310.794793 -36.490625 
L 310.375769 -36.490625 
L 309.956746 -36.490625 
L 309.537723 -36.490625 
L 309.118689 -36.490625 
L 308.699666 -36.490625 
L 308.280643 -36.490625 
L 307.861619 -36.490625 
L 307.442596 -36.490625 
L 307.023572 -36.490625 
L 306.604549 -36.490625 
L 306.185526 -36.490625 
L 305.766502 -36.490625 
L 305.347479 -36.490625 
L 304.928456 -36.490625 
L 304.509432 -36.490625 
L 304.090409 -36.490625 
L 303.671385 -36.490625 
L 303.252362 -36.490625 
L 302.833339 -36.490625 
L 302.414315 -36.490625 
L 301.995292 -36.490625 
L 301.576268 -36.490625 
L 301.157245 -36.490625 
L 300.738222 -36.490625 
L 300.319198 -36.490625 
L 299.900175 -36.490625 
L 299.481152 -36.490625 
L 299.062118 -36.490625 
L 298.643095 -36.490625 
L 298.224071 -36.490625 
L 297.805048 -36.490625 
L 297.386025 -36.490625 
L 296.967001 -36.490625 
L 296.547978 -36.490625 
L 296.128955 -36.490625 
L 295.709931 -36.490625 
L 295.290908 -36.490625 
L 294.871884 -36.490625 
L 294.452861 -36.490625 
L 294.033838 -36.490625 
L 293.614814 -36.490625 
L 293.195791 -36.490625 
L 292.776768 -36.490625 
L 292.357744 -36.490625 
L 291.938716 -36.490625 
L 291.519692 -36.490625 
L 291.100669 -36.490625 
L 290.681646 -36.490625 
z
" id="md73420c01e" style="stroke:#7f7f7f;stroke-opacity:0.5;"/>
    </defs>
    <g clip-path="url(#p16203728eb)">
     <use style="fill:#7f7f7f;fill-opacity:0.5;stroke:#7f7f7f;stroke-opacity:0.5;" x="0" xlink:href="#md73420c01e" y="221.50625"/>
    </g>
   </g>
   <g id="line2d_1">
    <path clip-path="url(#p16203728eb)" d="M 41.3625 185.015625 
L 41.3625 182.915912 
" style="fill:none;stroke:#1f77b4;stroke-linecap:round;stroke-width:2;"/>
   </g>
   <g id="line2d_2">
    <path clip-path="url(#p16203728eb)" d="M 127.262373 185.015625 
L 127.262373 172.053157 
" style="fill:none;stroke:#1f77b4;stroke-linecap:round;stroke-width:2;"/>
   </g>
   <g id="line2d_3">
    <path clip-path="url(#p16203728eb)" d="M 127.681396 185.015625 
L 127.681396 150.188891 
" style="fill:none;stroke:#ff7f0e;stroke-linecap:round;stroke-width:2;"/>
   </g>
   <g id="line2d_4">
    <path clip-path="url(#p16203728eb)" d="M 162.879395 185.015625 
L 162.879395 125.617715 
" style="fill:none;stroke:#ff7f0e;stroke-linecap:round;stroke-width:2;"/>
   </g>
   <g id="line2d_5">
    <path clip-path="url(#p16203728eb)" d="M 163.298418 185.015625 
L 163.298418 65.625983 
" style="fill:none;stroke:#2ca02c;stroke-linecap:round;stroke-width:2;"/>
   </g>
   <g id="line2d_6">
    <path clip-path="url(#p16203728eb)" d="M 187.182776 185.015625 
L 187.182776 36.76108 
" style="fill:none;stroke:#2ca02c;stroke-linecap:round;stroke-width:2;"/>
   </g>
   <g id="line2d_7">
    <path clip-path="url(#p16203728eb)" d="M 187.601799 185.015625 
L 187.601799 110.701358 
" style="fill:none;stroke:#d62728;stroke-linecap:round;stroke-width:2;"/>
   </g>
   <g id="line2d_8">
    <path clip-path="url(#p16203728eb)" d="M 208.552988 185.015625 
L 208.552988 105.765405 
" style="fill:none;stroke:#d62728;stroke-linecap:round;stroke-width:2;"/>
   </g>
   <g id="line2d_9">
    <path clip-path="url(#p16203728eb)" d="M 208.972012 185.015625 
L 208.972012 155.296049 
" style="fill:none;stroke:#9467bd;stroke-linecap:round;stroke-width:2;"/>
   </g>
   <g id="line2d_10">
    <path clip-path="url(#p16203728eb)" d="M 230.342224 185.015625 
L 230.342224 157.147775 
" style="fill:none;stroke:#9467bd;stroke-linecap:round;stroke-width:2;"/>
   </g>
   <g id="line2d_11">
    <path clip-path="url(#p16203728eb)" d="M 230.761247 185.015625 
L 230.761247 175.749717 
" style="fill:none;stroke:#8c564b;stroke-linecap:round;stroke-width:2;"/>
   </g>
   <g id="line2d_12">
    <path clip-path="url(#p16203728eb)" d="M 254.6456 185.015625 
L 254.6456 177.553771 
" style="fill:none;stroke:#8c564b;stroke-linecap:round;stroke-width:2;"/>
   </g>
   <g id="line2d_13">
    <path clip-path="url(#p16203728eb)" d="M 255.064623 185.015625 
L 255.064623 181.303256 
" style="fill:none;stroke:#e377c2;stroke-linecap:round;stroke-width:2;"/>
   </g>
   <g id="line2d_14">
    <path clip-path="url(#p16203728eb)" d="M 290.262622 185.015625 
L 290.262622 182.838954 
" style="fill:none;stroke:#e377c2;stroke-linecap:round;stroke-width:2;"/>
   </g>
   <g id="line2d_15">
    <path clip-path="url(#p16203728eb)" d="M 290.681646 185.015625 
L 290.681646 182.855213 
" style="fill:none;stroke:#7f7f7f;stroke-linecap:round;stroke-width:2;"/>
   </g>
   <g id="line2d_16">
    <path clip-path="url(#p16203728eb)" d="M 376.1625 185.015625 
L 376.1625 184.662284 
" style="fill:none;stroke:#7f7f7f;stroke-linecap:round;stroke-width:2;"/>
   </g>
   <g id="line2d_17">
    <path clip-path="url(#p16203728eb)" d="M 41.3625 182.915912 
L 55.190282 182.135638 
L 67.34197 181.230273 
L 78.236597 180.200893 
L 88.293158 179.032944 
L 97.930706 177.688626 
L 107.149231 176.175063 
L 115.948732 174.510237 
L 125.167256 172.534168 
L 127.262373 172.053157 
L 127.681396 150.188891 
L 133.966752 146.149419 
L 141.090159 141.296236 
L 149.889655 135.01502 
L 162.879395 125.617715 
L 163.298418 65.625983 
L 169.164753 57.509556 
L 173.774015 51.484174 
L 177.964252 46.373424 
L 181.735465 42.141197 
L 185.087657 38.719368 
L 187.182776 36.76108 
L 187.601799 110.701358 
L 191.373014 109.158207 
L 194.725203 108.010383 
L 198.077394 107.087839 
L 201.429584 106.401912 
L 204.781774 105.961224 
L 208.133964 105.771348 
L 208.552988 105.765405 
L 208.972012 155.296049 
L 214.000297 155.402783 
L 219.028582 155.719934 
L 224.475892 156.290435 
L 229.923201 157.078782 
L 230.342224 157.147775 
L 230.761247 175.749717 
L 241.655868 176.475294 
L 254.6456 177.553771 
L 255.064623 181.303256 
L 300.738222 183.222123 
L 322.527457 183.856683 
L 346.41181 184.323185 
L 375.324453 184.65541 
L 376.1625 184.662284 
L 376.1625 184.662284 
" style="fill:none;stroke:#000000;stroke-linecap:round;stroke-width:2;"/>
   </g>
   <g id="patch_3">
    <path d="M 41.3625 185.015625 
L 41.3625 21.935625 
" style="fill:none;stroke:#262626;stroke-linecap:square;stroke-linejoin:miter;stroke-width:0.8;"/>
   </g>
   <g id="patch_4">
    <path d="M 376.1625 185.015625 
L 376.1625 21.935625 
" style="fill:none;stroke:#262626;stroke-linecap:square;stroke-linejoin:miter;stroke-width:0.8;"/>
   </g>
   <g id="patch_5">
    <path d="M 41.3625 185.015625 
L 376.1625 185.015625 
" style="fill:none;stroke:#262626;stroke-linecap:square;stroke-linejoin:miter;stroke-width:0.8;"/>
   </g>
   <g id="patch_6">
    <path d="M 41.3625 21.935625 
L 376.1625 21.935625 
" style="fill:none;stroke:#262626;stroke-linecap:square;stroke-linejoin:miter;stroke-width:0.8;"/>
   </g>
   <g id="text_17">
    <!-- Dequantization distribution for 8 discrete values -->
    <g style="fill:#262626;" transform="translate(82.700625 15.935625)scale(0.12 -0.12)">
     <defs>
      <path d="M 7.71875 0 
L 7.71875 71.578125 
L 32.375 71.578125 
Q 40.71875 71.578125 45.125 70.5625 
Q 51.265625 69.140625 55.609375 65.4375 
Q 61.28125 60.640625 64.078125 53.1875 
Q 66.890625 45.75 66.890625 36.1875 
Q 66.890625 28.03125 64.984375 21.734375 
Q 63.09375 15.4375 60.109375 11.296875 
Q 57.125 7.171875 53.578125 4.796875 
Q 50.046875 2.4375 45.046875 1.21875 
Q 40.046875 0 33.546875 0 
z
M 17.1875 8.453125 
L 32.46875 8.453125 
Q 39.546875 8.453125 43.578125 9.765625 
Q 47.609375 11.078125 50 13.484375 
Q 53.375 16.84375 55.25 22.53125 
Q 57.125 28.21875 57.125 36.328125 
Q 57.125 47.5625 53.4375 53.59375 
Q 49.75 59.625 44.484375 61.671875 
Q 40.671875 63.140625 32.234375 63.140625 
L 17.1875 63.140625 
z
" id="ArialMT-68"/>
      <path d="M 42.09375 16.703125 
L 51.171875 15.578125 
Q 49.03125 7.625 43.21875 3.21875 
Q 37.40625 -1.171875 28.375 -1.171875 
Q 17 -1.171875 10.328125 5.828125 
Q 3.65625 12.84375 3.65625 25.484375 
Q 3.65625 38.578125 10.390625 45.796875 
Q 17.140625 53.03125 27.875 53.03125 
Q 38.28125 53.03125 44.875 45.953125 
Q 51.46875 38.875 51.46875 26.03125 
Q 51.46875 25.25 51.421875 23.6875 
L 12.75 23.6875 
Q 13.234375 15.140625 17.578125 10.59375 
Q 21.921875 6.0625 28.421875 6.0625 
Q 33.25 6.0625 36.671875 8.59375 
Q 40.09375 11.140625 42.09375 16.703125 
z
M 13.234375 30.90625 
L 42.1875 30.90625 
Q 41.609375 37.453125 38.875 40.71875 
Q 34.671875 45.796875 27.984375 45.796875 
Q 21.921875 45.796875 17.796875 41.75 
Q 13.671875 37.703125 13.234375 30.90625 
z
" id="ArialMT-101"/>
      <path d="M 39.65625 -19.875 
L 39.65625 5.515625 
Q 37.59375 2.640625 33.90625 0.734375 
Q 30.21875 -1.171875 26.078125 -1.171875 
Q 16.84375 -1.171875 10.171875 6.203125 
Q 3.515625 13.578125 3.515625 26.421875 
Q 3.515625 34.234375 6.21875 40.421875 
Q 8.9375 46.625 14.078125 49.828125 
Q 19.234375 53.03125 25.390625 53.03125 
Q 35.015625 53.03125 40.53125 44.921875 
L 40.53125 51.859375 
L 48.4375 51.859375 
L 48.4375 -19.875 
z
M 12.546875 26.078125 
Q 12.546875 16.0625 16.75 11.0625 
Q 20.953125 6.0625 26.8125 6.0625 
Q 32.421875 6.0625 36.46875 10.8125 
Q 40.53125 15.578125 40.53125 25.296875 
Q 40.53125 35.640625 36.25 40.859375 
Q 31.984375 46.09375 26.21875 46.09375 
Q 20.515625 46.09375 16.53125 41.234375 
Q 12.546875 36.375 12.546875 26.078125 
z
" id="ArialMT-113"/>
      <path d="M 40.578125 0 
L 40.578125 7.625 
Q 34.515625 -1.171875 24.125 -1.171875 
Q 19.53125 -1.171875 15.546875 0.578125 
Q 11.578125 2.34375 9.640625 5 
Q 7.71875 7.671875 6.9375 11.53125 
Q 6.390625 14.109375 6.390625 19.734375 
L 6.390625 51.859375 
L 15.1875 51.859375 
L 15.1875 23.09375 
Q 15.1875 16.21875 15.71875 13.8125 
Q 16.546875 10.359375 19.234375 8.375 
Q 21.921875 6.390625 25.875 6.390625 
Q 29.828125 6.390625 33.296875 8.421875 
Q 36.765625 10.453125 38.203125 13.9375 
Q 39.65625 17.4375 39.65625 24.078125 
L 39.65625 51.859375 
L 48.4375 51.859375 
L 48.4375 0 
z
" id="ArialMT-117"/>
      <path d="M 6.59375 0 
L 6.59375 51.859375 
L 14.5 51.859375 
L 14.5 44.484375 
Q 20.21875 53.03125 31 53.03125 
Q 35.6875 53.03125 39.625 51.34375 
Q 43.5625 49.65625 45.515625 46.921875 
Q 47.46875 44.1875 48.25 40.4375 
Q 48.734375 37.984375 48.734375 31.890625 
L 48.734375 0 
L 39.9375 0 
L 39.9375 31.546875 
Q 39.9375 36.921875 38.90625 39.578125 
Q 37.890625 42.234375 35.28125 43.8125 
Q 32.671875 45.40625 29.15625 45.40625 
Q 23.53125 45.40625 19.453125 41.84375 
Q 15.375 38.28125 15.375 28.328125 
L 15.375 0 
z
" id="ArialMT-110"/>
      <path id="ArialMT-32"/>
      <path d="M 40.234375 0 
L 40.234375 6.546875 
Q 35.296875 -1.171875 25.734375 -1.171875 
Q 19.53125 -1.171875 14.328125 2.25 
Q 9.125 5.671875 6.265625 11.796875 
Q 3.421875 17.921875 3.421875 25.875 
Q 3.421875 33.640625 6 39.96875 
Q 8.59375 46.296875 13.765625 49.65625 
Q 18.953125 53.03125 25.34375 53.03125 
Q 30.03125 53.03125 33.6875 51.046875 
Q 37.359375 49.078125 39.65625 45.90625 
L 39.65625 71.578125 
L 48.390625 71.578125 
L 48.390625 0 
z
M 12.453125 25.875 
Q 12.453125 15.921875 16.640625 10.984375 
Q 20.84375 6.0625 26.5625 6.0625 
Q 32.328125 6.0625 36.34375 10.765625 
Q 40.375 15.484375 40.375 25.140625 
Q 40.375 35.796875 36.265625 40.765625 
Q 32.171875 45.75 26.171875 45.75 
Q 20.3125 45.75 16.375 40.96875 
Q 12.453125 36.1875 12.453125 25.875 
z
" id="ArialMT-100"/>
      <path d="M 3.078125 15.484375 
L 11.765625 16.84375 
Q 12.5 11.625 15.84375 8.84375 
Q 19.1875 6.0625 25.203125 6.0625 
Q 31.25 6.0625 34.171875 8.515625 
Q 37.109375 10.984375 37.109375 14.3125 
Q 37.109375 17.28125 34.515625 19 
Q 32.71875 20.171875 25.53125 21.96875 
Q 15.875 24.421875 12.140625 26.203125 
Q 8.40625 27.984375 6.46875 31.125 
Q 4.546875 34.28125 4.546875 38.09375 
Q 4.546875 41.546875 6.125 44.5 
Q 7.71875 47.46875 10.453125 49.421875 
Q 12.5 50.921875 16.03125 51.96875 
Q 19.578125 53.03125 23.640625 53.03125 
Q 29.734375 53.03125 34.34375 51.265625 
Q 38.96875 49.515625 41.15625 46.5 
Q 43.359375 43.5 44.1875 38.484375 
L 35.59375 37.3125 
Q 35.015625 41.3125 32.203125 43.546875 
Q 29.390625 45.796875 24.265625 45.796875 
Q 18.21875 45.796875 15.625 43.796875 
Q 13.03125 41.796875 13.03125 39.109375 
Q 13.03125 37.40625 14.109375 36.03125 
Q 15.1875 34.625 17.484375 33.6875 
Q 18.796875 33.203125 25.25 31.453125 
Q 34.578125 28.953125 38.25 27.359375 
Q 41.9375 25.78125 44.03125 22.75 
Q 46.140625 19.734375 46.140625 15.234375 
Q 46.140625 10.84375 43.578125 6.953125 
Q 41.015625 3.078125 36.171875 0.953125 
Q 31.34375 -1.171875 25.25 -1.171875 
Q 15.140625 -1.171875 9.84375 3.03125 
Q 4.546875 7.234375 3.078125 15.484375 
z
" id="ArialMT-115"/>
      <path d="M 8.6875 0 
L 8.6875 45.015625 
L 0.921875 45.015625 
L 0.921875 51.859375 
L 8.6875 51.859375 
L 8.6875 57.375 
Q 8.6875 62.59375 9.625 65.140625 
Q 10.890625 68.5625 14.078125 70.671875 
Q 17.28125 72.796875 23.046875 72.796875 
Q 26.765625 72.796875 31.25 71.921875 
L 29.9375 64.265625 
Q 27.203125 64.75 24.75 64.75 
Q 20.75 64.75 19.09375 63.03125 
Q 17.4375 61.328125 17.4375 56.640625 
L 17.4375 51.859375 
L 27.546875 51.859375 
L 27.546875 45.015625 
L 17.4375 45.015625 
L 17.4375 0 
z
" id="ArialMT-102"/>
      <path d="M 40.4375 19 
L 49.078125 17.875 
Q 47.65625 8.9375 41.8125 3.875 
Q 35.984375 -1.171875 27.484375 -1.171875 
Q 16.84375 -1.171875 10.375 5.78125 
Q 3.90625 12.75 3.90625 25.734375 
Q 3.90625 34.125 6.6875 40.421875 
Q 9.46875 46.734375 15.15625 49.875 
Q 20.84375 53.03125 27.546875 53.03125 
Q 35.984375 53.03125 41.359375 48.75 
Q 46.734375 44.484375 48.25 36.625 
L 39.703125 35.296875 
Q 38.484375 40.53125 35.375 43.15625 
Q 32.28125 45.796875 27.875 45.796875 
Q 21.234375 45.796875 17.078125 41.03125 
Q 12.9375 36.28125 12.9375 25.984375 
Q 12.9375 15.53125 16.9375 10.796875 
Q 20.953125 6.0625 27.390625 6.0625 
Q 32.5625 6.0625 36.03125 9.234375 
Q 39.5 12.40625 40.4375 19 
z
" id="ArialMT-99"/>
      <path d="M 21 0 
L 1.265625 51.859375 
L 10.546875 51.859375 
L 21.6875 20.796875 
Q 23.484375 15.765625 25 10.359375 
Q 26.171875 14.453125 28.265625 20.21875 
L 39.796875 51.859375 
L 48.828125 51.859375 
L 29.203125 0 
z
" id="ArialMT-118"/>
     </defs>
     <use xlink:href="#ArialMT-68"/>
     <use x="72.216797" xlink:href="#ArialMT-101"/>
     <use x="127.832031" xlink:href="#ArialMT-113"/>
     <use x="183.447266" xlink:href="#ArialMT-117"/>
     <use x="239.0625" xlink:href="#ArialMT-97"/>
     <use x="294.677734" xlink:href="#ArialMT-110"/>
     <use x="350.292969" xlink:href="#ArialMT-116"/>
     <use x="378.076172" xlink:href="#ArialMT-105"/>
     <use x="400.292969" xlink:href="#ArialMT-122"/>
     <use x="450.292969" xlink:href="#ArialMT-97"/>
     <use x="505.908203" xlink:href="#ArialMT-116"/>
     <use x="533.691406" xlink:href="#ArialMT-105"/>
     <use x="555.908203" xlink:href="#ArialMT-111"/>
     <use x="611.523438" xlink:href="#ArialMT-110"/>
     <use x="667.138672" xlink:href="#ArialMT-32"/>
     <use x="694.921875" xlink:href="#ArialMT-100"/>
     <use x="750.537109" xlink:href="#ArialMT-105"/>
     <use x="772.753906" xlink:href="#ArialMT-115"/>
     <use x="822.753906" xlink:href="#ArialMT-116"/>
     <use x="850.537109" xlink:href="#ArialMT-114"/>
     <use x="883.837891" xlink:href="#ArialMT-105"/>
     <use x="906.054688" xlink:href="#ArialMT-98"/>
     <use x="961.669922" xlink:href="#ArialMT-117"/>
     <use x="1017.285156" xlink:href="#ArialMT-116"/>
     <use x="1045.068359" xlink:href="#ArialMT-105"/>
     <use x="1067.285156" xlink:href="#ArialMT-111"/>
     <use x="1122.900391" xlink:href="#ArialMT-110"/>
     <use x="1178.515625" xlink:href="#ArialMT-32"/>
     <use x="1206.298828" xlink:href="#ArialMT-102"/>
     <use x="1234.082031" xlink:href="#ArialMT-111"/>
     <use x="1289.697266" xlink:href="#ArialMT-114"/>
     <use x="1322.998047" xlink:href="#ArialMT-32"/>
     <use x="1350.78125" xlink:href="#ArialMT-56"/>
     <use x="1406.396484" xlink:href="#ArialMT-32"/>
     <use x="1434.179688" xlink:href="#ArialMT-100"/>
     <use x="1489.794922" xlink:href="#ArialMT-105"/>
     <use x="1512.011719" xlink:href="#ArialMT-115"/>
     <use x="1562.011719" xlink:href="#ArialMT-99"/>
     <use x="1612.011719" xlink:href="#ArialMT-114"/>
     <use x="1645.3125" xlink:href="#ArialMT-101"/>
     <use x="1700.927734" xlink:href="#ArialMT-116"/>
     <use x="1728.710938" xlink:href="#ArialMT-101"/>
     <use x="1784.326172" xlink:href="#ArialMT-32"/>
     <use x="1812.109375" xlink:href="#ArialMT-118"/>
     <use x="1862.109375" xlink:href="#ArialMT-97"/>
     <use x="1917.724609" xlink:href="#ArialMT-108"/>
     <use x="1939.941406" xlink:href="#ArialMT-117"/>
     <use x="1995.556641" xlink:href="#ArialMT-101"/>
     <use x="2051.171875" xlink:href="#ArialMT-115"/>
    </g>
   </g>
   <g id="legend_1">
    <g id="patch_7">
     <path d="M 331.601562 143.098125 
L 369.1625 143.098125 
Q 371.1625 143.098125 371.1625 141.098125 
L 371.1625 28.935625 
Q 371.1625 26.935625 369.1625 26.935625 
L 331.601562 26.935625 
Q 329.601562 26.935625 329.601562 28.935625 
L 329.601562 141.098125 
Q 329.601562 143.098125 331.601562 143.098125 
z
" style="fill:#ffffff;opacity:0.8;stroke:#cccccc;stroke-linejoin:miter;"/>
    </g>
    <g id="patch_8">
     <path d="M 333.601562 38.093437 
L 353.601562 38.093437 
L 353.601562 31.093437 
L 333.601562 31.093437 
z
" style="fill:#1f77b4;fill-opacity:0.5;stroke:#1f77b4;stroke-linejoin:miter;stroke-opacity:0.5;"/>
    </g>
    <g id="text_18">
     <!-- 0 -->
     <g style="fill:#262626;" transform="translate(361.601562 38.093437)scale(0.1 -0.1)">
      <use xlink:href="#ArialMT-48"/>
     </g>
    </g>
    <g id="patch_9">
     <path d="M 333.601562 52.23875 
L 353.601562 52.23875 
L 353.601562 45.23875 
L 333.601562 45.23875 
z
" style="fill:#ff7f0e;fill-opacity:0.5;stroke:#ff7f0e;stroke-linejoin:miter;stroke-opacity:0.5;"/>
    </g>
    <g id="text_19">
     <!-- 1 -->
     <g style="fill:#262626;" transform="translate(361.601562 52.23875)scale(0.1 -0.1)">
      <use xlink:href="#ArialMT-49"/>
     </g>
    </g>
    <g id="patch_10">
     <path d="M 333.601562 66.384062 
L 353.601562 66.384062 
L 353.601562 59.384062 
L 333.601562 59.384062 
z
" style="fill:#2ca02c;fill-opacity:0.5;stroke:#2ca02c;stroke-linejoin:miter;stroke-opacity:0.5;"/>
    </g>
    <g id="text_20">
     <!-- 2 -->
     <g style="fill:#262626;" transform="translate(361.601562 66.384062)scale(0.1 -0.1)">
      <use xlink:href="#ArialMT-50"/>
     </g>
    </g>
    <g id="patch_11">
     <path d="M 333.601562 80.529375 
L 353.601562 80.529375 
L 353.601562 73.529375 
L 333.601562 73.529375 
z
" style="fill:#d62728;fill-opacity:0.5;stroke:#d62728;stroke-linejoin:miter;stroke-opacity:0.5;"/>
    </g>
    <g id="text_21">
     <!-- 3 -->
     <g style="fill:#262626;" transform="translate(361.601562 80.529375)scale(0.1 -0.1)">
      <defs>
       <path d="M 4.203125 18.890625 
L 12.984375 20.0625 
Q 14.5 12.59375 18.140625 9.296875 
Q 21.78125 6 27 6 
Q 33.203125 6 37.46875 10.296875 
Q 41.75 14.59375 41.75 20.953125 
Q 41.75 27 37.796875 30.921875 
Q 33.84375 34.859375 27.734375 34.859375 
Q 25.25 34.859375 21.53125 33.890625 
L 22.515625 41.609375 
Q 23.390625 41.5 23.921875 41.5 
Q 29.546875 41.5 34.03125 44.421875 
Q 38.53125 47.359375 38.53125 53.46875 
Q 38.53125 58.296875 35.25 61.46875 
Q 31.984375 64.65625 26.8125 64.65625 
Q 21.6875 64.65625 18.265625 61.421875 
Q 14.84375 58.203125 13.875 51.765625 
L 5.078125 53.328125 
Q 6.6875 62.15625 12.390625 67.015625 
Q 18.109375 71.875 26.609375 71.875 
Q 32.46875 71.875 37.390625 69.359375 
Q 42.328125 66.84375 44.9375 62.5 
Q 47.5625 58.15625 47.5625 53.265625 
Q 47.5625 48.640625 45.0625 44.828125 
Q 42.578125 41.015625 37.703125 38.765625 
Q 44.046875 37.3125 47.5625 32.6875 
Q 51.078125 28.078125 51.078125 21.140625 
Q 51.078125 11.765625 44.234375 5.25 
Q 37.40625 -1.265625 26.953125 -1.265625 
Q 17.53125 -1.265625 11.296875 4.34375 
Q 5.078125 9.96875 4.203125 18.890625 
z
" id="ArialMT-51"/>
      </defs>
      <use xlink:href="#ArialMT-51"/>
     </g>
    </g>
    <g id="patch_12">
     <path d="M 333.601562 94.674687 
L 353.601562 94.674687 
L 353.601562 87.674687 
L 333.601562 87.674687 
z
" style="fill:#9467bd;fill-opacity:0.5;stroke:#9467bd;stroke-linejoin:miter;stroke-opacity:0.5;"/>
    </g>
    <g id="text_22">
     <!-- 4 -->
     <g style="fill:#262626;" transform="translate(361.601562 94.674687)scale(0.1 -0.1)">
      <use xlink:href="#ArialMT-52"/>
     </g>
    </g>
    <g id="patch_13">
     <path d="M 333.601562 108.82 
L 353.601562 108.82 
L 353.601562 101.82 
L 333.601562 101.82 
z
" style="fill:#8c564b;fill-opacity:0.5;stroke:#8c564b;stroke-linejoin:miter;stroke-opacity:0.5;"/>
    </g>
    <g id="text_23">
     <!-- 5 -->
     <g style="fill:#262626;" transform="translate(361.601562 108.82)scale(0.1 -0.1)">
      <use xlink:href="#ArialMT-53"/>
     </g>
    </g>
    <g id="patch_14">
     <path d="M 333.601562 122.965312 
L 353.601562 122.965312 
L 353.601562 115.965312 
L 333.601562 115.965312 
z
" style="fill:#e377c2;fill-opacity:0.5;stroke:#e377c2;stroke-linejoin:miter;stroke-opacity:0.5;"/>
    </g>
    <g id="text_24">
     <!-- 6 -->
     <g style="fill:#262626;" transform="translate(361.601562 122.965312)scale(0.1 -0.1)">
      <use xlink:href="#ArialMT-54"/>
     </g>
    </g>
    <g id="patch_15">
     <path d="M 333.601562 137.110625 
L 353.601562 137.110625 
L 353.601562 130.110625 
L 333.601562 130.110625 
z
" style="fill:#7f7f7f;fill-opacity:0.5;stroke:#7f7f7f;stroke-linejoin:miter;stroke-opacity:0.5;"/>
    </g>
    <g id="text_25">
     <!-- 7 -->
     <g style="fill:#262626;" transform="translate(361.601562 137.110625)scale(0.1 -0.1)">
      <defs>
       <path d="M 4.734375 62.203125 
L 4.734375 70.65625 
L 51.078125 70.65625 
L 51.078125 63.8125 
Q 44.234375 56.546875 37.515625 44.484375 
Q 30.8125 32.421875 27.15625 19.671875 
Q 24.515625 10.6875 23.78125 0 
L 14.75 0 
Q 14.890625 8.453125 18.0625 20.40625 
Q 21.234375 32.375 27.171875 43.484375 
Q 33.109375 54.59375 39.796875 62.203125 
z
" id="ArialMT-55"/>
      </defs>
      <use xlink:href="#ArialMT-55"/>
     </g>
    </g>
   </g>
  </g>
 </g>
 <defs>
  <clipPath id="p16203728eb">
   <rect height="163.08" width="334.8" x="41.3625" y="21.935625"/>
  </clipPath>
 </defs>
</svg>
