<?xml version="1.0" encoding="utf-8" standalone="no"?>
<!DOCTYPE svg PUBLIC "-//W3C//DTD SVG 1.1//EN"
  "http://www.w3.org/Graphics/SVG/1.1/DTD/svg11.dtd">
<!-- Created with matplotlib (https://matplotlib.org/) -->
<svg height="211.629219pt" version="1.1" viewBox="0 0 597.19 211.629219" width="597.19pt" xmlns="http://www.w3.org/2000/svg" xmlns:xlink="http://www.w3.org/1999/xlink">
 <metadata>
  <rdf:RDF xmlns:cc="http://creativecommons.org/ns#" xmlns:dc="http://purl.org/dc/elements/1.1/" xmlns:rdf="http://www.w3.org/1999/02/22-rdf-syntax-ns#">
   <cc:Work>
    <dc:type rdf:resource="http://purl.org/dc/dcmitype/StillImage"/>
    <dc:date>2022-09-25T13:19:55.041847</dc:date>
    <dc:format>image/svg+xml</dc:format>
    <dc:creator>
     <cc:Agent>
      <dc:title>Matplotlib v3.3.2, https://matplotlib.org/</dc:title>
     </cc:Agent>
    </dc:creator>
   </cc:Work>
  </rdf:RDF>
 </metadata>
 <defs>
  <style type="text/css">*{stroke-linecap:butt;stroke-linejoin:round;}</style>
 </defs>
 <g id="figure_1">
  <g id="patch_1">
   <path d="M 0 211.629219 
L 597.19 211.629219 
L 597.19 0 
L 0 0 
z
" style="fill:#ffffff;"/>
  </g>
  <g id="axes_1">
   <g id="patch_2">
    <path d="M 31.99 184.869375 
L 589.99 184.869375 
L 589.99 21.789375 
L 31.99 21.789375 
z
" style="fill:#eaeaf2;"/>
   </g>
   <g id="matplotlib.axis_1">
    <g id="xtick_1">
     <g id="line2d_1">
      <path clip-path="url(#p080f374c2c)" d="M 103.463384 184.869375 
L 103.463384 21.789375 
" style="fill:none;stroke:#ffffff;stroke-linecap:round;"/>
     </g>
     <g id="text_1">
      <!-- −10 -->
      <g style="fill:#262626;" transform="translate(94.134009 202.242969)scale(0.11 -0.11)">
       <defs>
        <path d="M 52.828125 31.203125 
L 5.5625 31.203125 
L 5.5625 39.40625 
L 52.828125 39.40625 
z
" id="ArialMT-8722"/>
        <path d="M 37.25 0 
L 28.46875 0 
L 28.46875 56 
Q 25.296875 52.984375 20.140625 49.953125 
Q 14.984375 46.921875 10.890625 45.40625 
L 10.890625 53.90625 
Q 18.265625 57.375 23.78125 62.296875 
Q 29.296875 67.234375 31.59375 71.875 
L 37.25 71.875 
z
" id="ArialMT-49"/>
        <path d="M 4.15625 35.296875 
Q 4.15625 48 6.765625 55.734375 
Q 9.375 63.484375 14.515625 67.671875 
Q 19.671875 71.875 27.484375 71.875 
Q 33.25 71.875 37.59375 69.546875 
Q 41.9375 67.234375 44.765625 62.859375 
Q 47.609375 58.5 49.21875 52.21875 
Q 50.828125 45.953125 50.828125 35.296875 
Q 50.828125 22.703125 48.234375 14.96875 
Q 45.65625 7.234375 40.5 3 
Q 35.359375 -1.21875 27.484375 -1.21875 
Q 17.140625 -1.21875 11.234375 6.203125 
Q 4.15625 15.140625 4.15625 35.296875 
z
M 13.1875 35.296875 
Q 13.1875 17.671875 17.3125 11.828125 
Q 21.4375 6 27.484375 6 
Q 33.546875 6 37.671875 11.859375 
Q 41.796875 17.71875 41.796875 35.296875 
Q 41.796875 52.984375 37.671875 58.78125 
Q 33.546875 64.59375 27.390625 64.59375 
Q 21.34375 64.59375 17.71875 59.46875 
Q 13.1875 52.9375 13.1875 35.296875 
z
" id="ArialMT-48"/>
       </defs>
       <use xlink:href="#ArialMT-8722"/>
       <use x="58.398438" xlink:href="#ArialMT-49"/>
       <use x="114.013672" xlink:href="#ArialMT-48"/>
      </g>
     </g>
    </g>
    <g id="xtick_2">
     <g id="line2d_2">
      <path clip-path="url(#p080f374c2c)" d="M 207.935151 184.869375 
L 207.935151 21.789375 
" style="fill:none;stroke:#ffffff;stroke-linecap:round;"/>
     </g>
     <g id="text_2">
      <!-- −5 -->
      <g style="fill:#262626;" transform="translate(201.664291 202.242969)scale(0.11 -0.11)">
       <defs>
        <path d="M 4.15625 18.75 
L 13.375 19.53125 
Q 14.40625 12.796875 18.140625 9.390625 
Q 21.875 6 27.15625 6 
Q 33.5 6 37.890625 10.78125 
Q 42.28125 15.578125 42.28125 23.484375 
Q 42.28125 31 38.0625 35.34375 
Q 33.84375 39.703125 27 39.703125 
Q 22.75 39.703125 19.328125 37.765625 
Q 15.921875 35.84375 13.96875 32.765625 
L 5.71875 33.84375 
L 12.640625 70.609375 
L 48.25 70.609375 
L 48.25 62.203125 
L 19.671875 62.203125 
L 15.828125 42.96875 
Q 22.265625 47.46875 29.34375 47.46875 
Q 38.71875 47.46875 45.15625 40.96875 
Q 51.609375 34.46875 51.609375 24.265625 
Q 51.609375 14.546875 45.953125 7.46875 
Q 39.0625 -1.21875 27.15625 -1.21875 
Q 17.390625 -1.21875 11.203125 4.25 
Q 5.03125 9.71875 4.15625 18.75 
z
" id="ArialMT-53"/>
       </defs>
       <use xlink:href="#ArialMT-8722"/>
       <use x="58.398438" xlink:href="#ArialMT-53"/>
      </g>
     </g>
    </g>
    <g id="xtick_3">
     <g id="line2d_3">
      <path clip-path="url(#p080f374c2c)" d="M 312.406917 184.869375 
L 312.406917 21.789375 
" style="fill:none;stroke:#ffffff;stroke-linecap:round;"/>
     </g>
     <g id="text_3">
      <!-- 0 -->
      <g style="fill:#262626;" transform="translate(309.348401 202.242969)scale(0.11 -0.11)">
       <use xlink:href="#ArialMT-48"/>
      </g>
     </g>
    </g>
    <g id="xtick_4">
     <g id="line2d_4">
      <path clip-path="url(#p080f374c2c)" d="M 416.878683 184.869375 
L 416.878683 21.789375 
" style="fill:none;stroke:#ffffff;stroke-linecap:round;"/>
     </g>
     <g id="text_4">
      <!-- 5 -->
      <g style="fill:#262626;" transform="translate(413.820168 202.242969)scale(0.11 -0.11)">
       <use xlink:href="#ArialMT-53"/>
      </g>
     </g>
    </g>
    <g id="xtick_5">
     <g id="line2d_5">
      <path clip-path="url(#p080f374c2c)" d="M 521.35045 184.869375 
L 521.35045 21.789375 
" style="fill:none;stroke:#ffffff;stroke-linecap:round;"/>
     </g>
     <g id="text_5">
      <!-- 10 -->
      <g style="fill:#262626;" transform="translate(515.233418 202.242969)scale(0.11 -0.11)">
       <use xlink:href="#ArialMT-49"/>
       <use x="55.615234" xlink:href="#ArialMT-48"/>
      </g>
     </g>
    </g>
   </g>
   <g id="matplotlib.axis_2">
    <g id="ytick_1">
     <g id="line2d_6">
      <path clip-path="url(#p080f374c2c)" d="M 31.99 184.869375 
L 589.99 184.869375 
" style="fill:none;stroke:#ffffff;stroke-linecap:round;"/>
     </g>
     <g id="text_6">
      <!-- 0.0 -->
      <g style="fill:#262626;" transform="translate(7.2 188.806172)scale(0.11 -0.11)">
       <defs>
        <path d="M 9.078125 0 
L 9.078125 10.015625 
L 19.09375 10.015625 
L 19.09375 0 
z
" id="ArialMT-46"/>
       </defs>
       <use xlink:href="#ArialMT-48"/>
       <use x="55.615234" xlink:href="#ArialMT-46"/>
       <use x="83.398438" xlink:href="#ArialMT-48"/>
      </g>
     </g>
    </g>
    <g id="ytick_2">
     <g id="line2d_7">
      <path clip-path="url(#p080f374c2c)" d="M 31.99 144.206334 
L 589.99 144.206334 
" style="fill:none;stroke:#ffffff;stroke-linecap:round;"/>
     </g>
     <g id="text_7">
      <!-- 0.1 -->
      <g style="fill:#262626;" transform="translate(7.2 148.143131)scale(0.11 -0.11)">
       <use xlink:href="#ArialMT-48"/>
       <use x="55.615234" xlink:href="#ArialMT-46"/>
       <use x="83.398438" xlink:href="#ArialMT-49"/>
      </g>
     </g>
    </g>
    <g id="ytick_3">
     <g id="line2d_8">
      <path clip-path="url(#p080f374c2c)" d="M 31.99 103.543292 
L 589.99 103.543292 
" style="fill:none;stroke:#ffffff;stroke-linecap:round;"/>
     </g>
     <g id="text_8">
      <!-- 0.2 -->
      <g style="fill:#262626;" transform="translate(7.2 107.480089)scale(0.11 -0.11)">
       <defs>
        <path d="M 50.34375 8.453125 
L 50.34375 0 
L 3.03125 0 
Q 2.9375 3.171875 4.046875 6.109375 
Q 5.859375 10.9375 9.828125 15.625 
Q 13.8125 20.3125 21.34375 26.46875 
Q 33.015625 36.03125 37.109375 41.625 
Q 41.21875 47.21875 41.21875 52.203125 
Q 41.21875 57.421875 37.46875 61 
Q 33.734375 64.59375 27.734375 64.59375 
Q 21.390625 64.59375 17.578125 60.78125 
Q 13.765625 56.984375 13.71875 50.25 
L 4.6875 51.171875 
Q 5.609375 61.28125 11.65625 66.578125 
Q 17.71875 71.875 27.9375 71.875 
Q 38.234375 71.875 44.234375 66.15625 
Q 50.25 60.453125 50.25 52 
Q 50.25 47.703125 48.484375 43.546875 
Q 46.734375 39.40625 42.65625 34.8125 
Q 38.578125 30.21875 29.109375 22.21875 
Q 21.1875 15.578125 18.9375 13.203125 
Q 16.703125 10.84375 15.234375 8.453125 
z
" id="ArialMT-50"/>
       </defs>
       <use xlink:href="#ArialMT-48"/>
       <use x="55.615234" xlink:href="#ArialMT-46"/>
       <use x="83.398438" xlink:href="#ArialMT-50"/>
      </g>
     </g>
    </g>
    <g id="ytick_4">
     <g id="line2d_9">
      <path clip-path="url(#p080f374c2c)" d="M 31.99 62.880251 
L 589.99 62.880251 
" style="fill:none;stroke:#ffffff;stroke-linecap:round;"/>
     </g>
     <g id="text_9">
      <!-- 0.3 -->
      <g style="fill:#262626;" transform="translate(7.2 66.817048)scale(0.11 -0.11)">
       <defs>
        <path d="M 4.203125 18.890625 
L 12.984375 20.0625 
Q 14.5 12.59375 18.140625 9.296875 
Q 21.78125 6 27 6 
Q 33.203125 6 37.46875 10.296875 
Q 41.75 14.59375 41.75 20.953125 
Q 41.75 27 37.796875 30.921875 
Q 33.84375 34.859375 27.734375 34.859375 
Q 25.25 34.859375 21.53125 33.890625 
L 22.515625 41.609375 
Q 23.390625 41.5 23.921875 41.5 
Q 29.546875 41.5 34.03125 44.421875 
Q 38.53125 47.359375 38.53125 53.46875 
Q 38.53125 58.296875 35.25 61.46875 
Q 31.984375 64.65625 26.8125 64.65625 
Q 21.6875 64.65625 18.265625 61.421875 
Q 14.84375 58.203125 13.875 51.765625 
L 5.078125 53.328125 
Q 6.6875 62.15625 12.390625 67.015625 
Q 18.109375 71.875 26.609375 71.875 
Q 32.46875 71.875 37.390625 69.359375 
Q 42.328125 66.84375 44.9375 62.5 
Q 47.5625 58.15625 47.5625 53.265625 
Q 47.5625 48.640625 45.0625 44.828125 
Q 42.578125 41.015625 37.703125 38.765625 
Q 44.046875 37.3125 47.5625 32.6875 
Q 51.078125 28.078125 51.078125 21.140625 
Q 51.078125 11.765625 44.234375 5.25 
Q 37.40625 -1.265625 26.953125 -1.265625 
Q 17.53125 -1.265625 11.296875 4.34375 
Q 5.078125 9.96875 4.203125 18.890625 
z
" id="ArialMT-51"/>
       </defs>
       <use xlink:href="#ArialMT-48"/>
       <use x="55.615234" xlink:href="#ArialMT-46"/>
       <use x="83.398438" xlink:href="#ArialMT-51"/>
      </g>
     </g>
    </g>
    <g id="ytick_5">
     <g id="line2d_10">
      <path clip-path="url(#p080f374c2c)" d="M 31.99 22.21721 
L 589.99 22.21721 
" style="fill:none;stroke:#ffffff;stroke-linecap:round;"/>
     </g>
     <g id="text_10">
      <!-- 0.4 -->
      <g style="fill:#262626;" transform="translate(7.2 26.154007)scale(0.11 -0.11)">
       <defs>
        <path d="M 32.328125 0 
L 32.328125 17.140625 
L 1.265625 17.140625 
L 1.265625 25.203125 
L 33.9375 71.578125 
L 41.109375 71.578125 
L 41.109375 25.203125 
L 50.78125 25.203125 
L 50.78125 17.140625 
L 41.109375 17.140625 
L 41.109375 0 
z
M 32.328125 25.203125 
L 32.328125 57.46875 
L 9.90625 25.203125 
z
" id="ArialMT-52"/>
       </defs>
       <use xlink:href="#ArialMT-48"/>
       <use x="55.615234" xlink:href="#ArialMT-46"/>
       <use x="83.398438" xlink:href="#ArialMT-52"/>
      </g>
     </g>
    </g>
   </g>
   <g id="patch_3">
    <path clip-path="url(#p080f374c2c)" d="M 57.353636 184.869375 
L 59.335178 184.869375 
L 59.335178 184.738524 
L 57.353636 184.738524 
z
" style="fill:#4c72b0;fill-opacity:0.5;stroke:#4c72b0;stroke-linejoin:miter;"/>
   </g>
   <g id="patch_4">
    <path clip-path="url(#p080f374c2c)" d="M 59.335178 184.869375 
L 61.3167 184.869375 
L 61.3167 184.647728 
L 59.335178 184.647728 
z
" style="fill:#4c72b0;fill-opacity:0.5;stroke:#4c72b0;stroke-linejoin:miter;"/>
   </g>
   <g id="patch_5">
    <path clip-path="url(#p080f374c2c)" d="M 61.31668 184.869375 
L 63.298222 184.869375 
L 63.298222 184.575629 
L 61.31668 184.575629 
z
" style="fill:#4c72b0;fill-opacity:0.5;stroke:#4c72b0;stroke-linejoin:miter;"/>
   </g>
   <g id="patch_6">
    <path clip-path="url(#p080f374c2c)" d="M 63.298242 184.869375 
L 65.279764 184.869375 
L 65.279764 184.450115 
L 63.298242 184.450115 
z
" style="fill:#4c72b0;fill-opacity:0.5;stroke:#4c72b0;stroke-linejoin:miter;"/>
   </g>
   <g id="patch_7">
    <path clip-path="url(#p080f374c2c)" d="M 65.279764 184.869375 
L 67.261305 184.869375 
L 67.261305 184.303246 
L 65.279764 184.303246 
z
" style="fill:#4c72b0;fill-opacity:0.5;stroke:#4c72b0;stroke-linejoin:miter;"/>
   </g>
   <g id="patch_8">
    <path clip-path="url(#p080f374c2c)" d="M 67.261286 184.869375 
L 69.242827 184.869375 
L 69.242827 184.057567 
L 67.261286 184.057567 
z
" style="fill:#4c72b0;fill-opacity:0.5;stroke:#4c72b0;stroke-linejoin:miter;"/>
   </g>
   <g id="patch_9">
    <path clip-path="url(#p080f374c2c)" d="M 69.242847 184.869375 
L 71.224369 184.869375 
L 71.224369 183.875969 
L 69.242847 183.875969 
z
" style="fill:#4c72b0;fill-opacity:0.5;stroke:#4c72b0;stroke-linejoin:miter;"/>
   </g>
   <g id="patch_10">
    <path clip-path="url(#p080f374c2c)" d="M 71.224369 184.869375 
L 73.205911 184.869375 
L 73.205911 183.462064 
L 71.224369 183.462064 
z
" style="fill:#4c72b0;fill-opacity:0.5;stroke:#4c72b0;stroke-linejoin:miter;"/>
   </g>
   <g id="patch_11">
    <path clip-path="url(#p080f374c2c)" d="M 73.205891 184.869375 
L 75.187433 184.869375 
L 75.187433 183.18434 
L 73.205891 183.18434 
z
" style="fill:#4c72b0;fill-opacity:0.5;stroke:#4c72b0;stroke-linejoin:miter;"/>
   </g>
   <g id="patch_12">
    <path clip-path="url(#p080f374c2c)" d="M 75.187453 184.869375 
L 77.168975 184.869375 
L 77.168975 182.522052 
L 75.187453 182.522052 
z
" style="fill:#4c72b0;fill-opacity:0.5;stroke:#4c72b0;stroke-linejoin:miter;"/>
   </g>
   <g id="patch_13">
    <path clip-path="url(#p080f374c2c)" d="M 77.168975 184.869375 
L 79.150516 184.869375 
L 79.150516 181.899868 
L 77.168975 181.899868 
z
" style="fill:#4c72b0;fill-opacity:0.5;stroke:#4c72b0;stroke-linejoin:miter;"/>
   </g>
   <g id="patch_14">
    <path clip-path="url(#p080f374c2c)" d="M 79.150516 184.869375 
L 81.132038 184.869375 
L 81.132038 180.89575 
L 79.150516 180.89575 
z
" style="fill:#4c72b0;fill-opacity:0.5;stroke:#4c72b0;stroke-linejoin:miter;"/>
   </g>
   <g id="patch_15">
    <path clip-path="url(#p080f374c2c)" d="M 81.132018 184.869375 
L 83.11356 184.869375 
L 83.11356 179.728817 
L 81.132018 179.728817 
z
" style="fill:#4c72b0;fill-opacity:0.5;stroke:#4c72b0;stroke-linejoin:miter;"/>
   </g>
   <g id="patch_16">
    <path clip-path="url(#p080f374c2c)" d="M 83.11358 184.869375 
L 85.095122 184.869375 
L 85.095122 178.345539 
L 83.11358 178.345539 
z
" style="fill:#4c72b0;fill-opacity:0.5;stroke:#4c72b0;stroke-linejoin:miter;"/>
   </g>
   <g id="patch_17">
    <path clip-path="url(#p080f374c2c)" d="M 85.095122 184.869375 
L 87.076644 184.869375 
L 87.076644 176.270537 
L 85.095122 176.270537 
z
" style="fill:#4c72b0;fill-opacity:0.5;stroke:#4c72b0;stroke-linejoin:miter;"/>
   </g>
   <g id="patch_18">
    <path clip-path="url(#p080f374c2c)" d="M 87.076624 184.869375 
L 89.058166 184.869375 
L 89.058166 173.664294 
L 87.076624 173.664294 
z
" style="fill:#4c72b0;fill-opacity:0.5;stroke:#4c72b0;stroke-linejoin:miter;"/>
   </g>
   <g id="patch_19">
    <path clip-path="url(#p080f374c2c)" d="M 89.058186 184.869375 
L 91.039707 184.869375 
L 91.039707 170.865553 
L 89.058186 170.865553 
z
" style="fill:#4c72b0;fill-opacity:0.5;stroke:#4c72b0;stroke-linejoin:miter;"/>
   </g>
   <g id="patch_20">
    <path clip-path="url(#p080f374c2c)" d="M 91.039707 184.869375 
L 93.021249 184.869375 
L 93.021249 167.500965 
L 91.039707 167.500965 
z
" style="fill:#4c72b0;fill-opacity:0.5;stroke:#4c72b0;stroke-linejoin:miter;"/>
   </g>
   <g id="patch_21">
    <path clip-path="url(#p080f374c2c)" d="M 93.021229 184.869375 
L 95.002771 184.869375 
L 95.002771 163.281701 
L 93.021229 163.281701 
z
" style="fill:#4c72b0;fill-opacity:0.5;stroke:#4c72b0;stroke-linejoin:miter;"/>
   </g>
   <g id="patch_22">
    <path clip-path="url(#p080f374c2c)" d="M 95.002791 184.869375 
L 96.984313 184.869375 
L 96.984313 157.81508 
L 95.002791 157.81508 
z
" style="fill:#4c72b0;fill-opacity:0.5;stroke:#4c72b0;stroke-linejoin:miter;"/>
   </g>
   <g id="patch_23">
    <path clip-path="url(#p080f374c2c)" d="M 96.984313 184.869375 
L 98.965855 184.869375 
L 98.965855 152.600022 
L 96.984313 152.600022 
z
" style="fill:#4c72b0;fill-opacity:0.5;stroke:#4c72b0;stroke-linejoin:miter;"/>
   </g>
   <g id="patch_24">
    <path clip-path="url(#p080f374c2c)" d="M 98.965835 184.869375 
L 100.947377 184.869375 
L 100.947377 145.699657 
L 98.965835 145.699657 
z
" style="fill:#4c72b0;fill-opacity:0.5;stroke:#4c72b0;stroke-linejoin:miter;"/>
   </g>
   <g id="patch_25">
    <path clip-path="url(#p080f374c2c)" d="M 100.947396 184.869375 
L 102.928918 184.869375 
L 102.928918 138.136559 
L 100.947396 138.136559 
z
" style="fill:#4c72b0;fill-opacity:0.5;stroke:#4c72b0;stroke-linejoin:miter;"/>
   </g>
   <g id="patch_26">
    <path clip-path="url(#p080f374c2c)" d="M 102.928918 184.869375 
L 104.91046 184.869375 
L 104.91046 129.319302 
L 102.928918 129.319302 
z
" style="fill:#4c72b0;fill-opacity:0.5;stroke:#4c72b0;stroke-linejoin:miter;"/>
   </g>
   <g id="patch_27">
    <path clip-path="url(#p080f374c2c)" d="M 104.91046 184.869375 
L 106.891982 184.869375 
L 106.891982 120.017578 
L 104.91046 120.017578 
z
" style="fill:#4c72b0;fill-opacity:0.5;stroke:#4c72b0;stroke-linejoin:miter;"/>
   </g>
   <g id="patch_28">
    <path clip-path="url(#p080f374c2c)" d="M 106.891962 184.869375 
L 108.873504 184.869375 
L 108.873504 111.496921 
L 106.891962 111.496921 
z
" style="fill:#4c72b0;fill-opacity:0.5;stroke:#4c72b0;stroke-linejoin:miter;"/>
   </g>
   <g id="patch_29">
    <path clip-path="url(#p080f374c2c)" d="M 108.873524 184.869375 
L 110.855066 184.869375 
L 110.855066 102.054316 
L 108.873524 102.054316 
z
" style="fill:#4c72b0;fill-opacity:0.5;stroke:#4c72b0;stroke-linejoin:miter;"/>
   </g>
   <g id="patch_30">
    <path clip-path="url(#p080f374c2c)" d="M 110.855066 184.869375 
L 112.836587 184.869375 
L 112.836587 91.486526 
L 110.855066 91.486526 
z
" style="fill:#4c72b0;fill-opacity:0.5;stroke:#4c72b0;stroke-linejoin:miter;"/>
   </g>
   <g id="patch_31">
    <path clip-path="url(#p080f374c2c)" d="M 112.836568 184.869375 
L 114.818109 184.869375 
L 114.818109 79.398475 
L 112.836568 79.398475 
z
" style="fill:#4c72b0;fill-opacity:0.5;stroke:#4c72b0;stroke-linejoin:miter;"/>
   </g>
   <g id="patch_32">
    <path clip-path="url(#p080f374c2c)" d="M 114.818129 184.869375 
L 116.799671 184.869375 
L 116.799671 70.626146 
L 114.818129 70.626146 
z
" style="fill:#4c72b0;fill-opacity:0.5;stroke:#4c72b0;stroke-linejoin:miter;"/>
   </g>
   <g id="patch_33">
    <path clip-path="url(#p080f374c2c)" d="M 116.799671 184.869375 
L 118.781193 184.869375 
L 118.781193 60.325084 
L 116.799671 60.325084 
z
" style="fill:#4c72b0;fill-opacity:0.5;stroke:#4c72b0;stroke-linejoin:miter;"/>
   </g>
   <g id="patch_34">
    <path clip-path="url(#p080f374c2c)" d="M 118.781173 184.869375 
L 120.762715 184.869375 
L 120.762715 51.340374 
L 118.781173 51.340374 
z
" style="fill:#4c72b0;fill-opacity:0.5;stroke:#4c72b0;stroke-linejoin:miter;"/>
   </g>
   <g id="patch_35">
    <path clip-path="url(#p080f374c2c)" d="M 120.762735 184.869375 
L 122.744257 184.869375 
L 122.744257 43.469225 
L 120.762735 43.469225 
z
" style="fill:#4c72b0;fill-opacity:0.5;stroke:#4c72b0;stroke-linejoin:miter;"/>
   </g>
   <g id="patch_36">
    <path clip-path="url(#p080f374c2c)" d="M 122.744257 184.869375 
L 124.725798 184.869375 
L 124.725798 37.609075 
L 122.744257 37.609075 
z
" style="fill:#4c72b0;fill-opacity:0.5;stroke:#4c72b0;stroke-linejoin:miter;"/>
   </g>
   <g id="patch_37">
    <path clip-path="url(#p080f374c2c)" d="M 124.725778 184.869375 
L 126.70732 184.869375 
L 126.70732 32.540619 
L 124.725778 32.540619 
z
" style="fill:#4c72b0;fill-opacity:0.5;stroke:#4c72b0;stroke-linejoin:miter;"/>
   </g>
   <g id="patch_38">
    <path clip-path="url(#p080f374c2c)" d="M 126.70734 184.869375 
L 128.688862 184.869375 
L 128.688862 29.796538 
L 126.70734 29.796538 
z
" style="fill:#4c72b0;fill-opacity:0.5;stroke:#4c72b0;stroke-linejoin:miter;"/>
   </g>
   <g id="patch_39">
    <path clip-path="url(#p080f374c2c)" d="M 128.688862 184.869375 
L 130.670404 184.869375 
L 130.670404 29.555089 
L 128.688862 29.555089 
z
" style="fill:#4c72b0;fill-opacity:0.5;stroke:#4c72b0;stroke-linejoin:miter;"/>
   </g>
   <g id="patch_40">
    <path clip-path="url(#p080f374c2c)" d="M 130.670404 184.869375 
L 132.651926 184.869375 
L 132.651926 30.52557 
L 130.670404 30.52557 
z
" style="fill:#4c72b0;fill-opacity:0.5;stroke:#4c72b0;stroke-linejoin:miter;"/>
   </g>
   <g id="patch_41">
    <path clip-path="url(#p080f374c2c)" d="M 132.651906 184.869375 
L 134.633448 184.869375 
L 134.633448 33.88651 
L 132.651906 33.88651 
z
" style="fill:#4c72b0;fill-opacity:0.5;stroke:#4c72b0;stroke-linejoin:miter;"/>
   </g>
   <g id="patch_42">
    <path clip-path="url(#p080f374c2c)" d="M 134.633468 184.869375 
L 136.615009 184.869375 
L 136.615009 38.511677 
L 134.633468 38.511677 
z
" style="fill:#4c72b0;fill-opacity:0.5;stroke:#4c72b0;stroke-linejoin:miter;"/>
   </g>
   <g id="patch_43">
    <path clip-path="url(#p080f374c2c)" d="M 136.615009 184.869375 
L 138.596531 184.869375 
L 138.596531 45.124902 
L 136.615009 45.124902 
z
" style="fill:#4c72b0;fill-opacity:0.5;stroke:#4c72b0;stroke-linejoin:miter;"/>
   </g>
   <g id="patch_44">
    <path clip-path="url(#p080f374c2c)" d="M 138.596511 184.869375 
L 140.578053 184.869375 
L 140.578053 54.488799 
L 138.596511 54.488799 
z
" style="fill:#4c72b0;fill-opacity:0.5;stroke:#4c72b0;stroke-linejoin:miter;"/>
   </g>
   <g id="patch_45">
    <path clip-path="url(#p080f374c2c)" d="M 140.578073 184.869375 
L 142.559615 184.869375 
L 142.559615 64.131685 
L 140.578073 64.131685 
z
" style="fill:#4c72b0;fill-opacity:0.5;stroke:#4c72b0;stroke-linejoin:miter;"/>
   </g>
   <g id="patch_46">
    <path clip-path="url(#p080f374c2c)" d="M 142.559615 184.869375 
L 144.541137 184.869375 
L 144.541137 74.475781 
L 142.559615 74.475781 
z
" style="fill:#4c72b0;fill-opacity:0.5;stroke:#4c72b0;stroke-linejoin:miter;"/>
   </g>
   <g id="patch_47">
    <path clip-path="url(#p080f374c2c)" d="M 144.541137 184.869375 
L 146.522678 184.869375 
L 146.522678 84.239946 
L 144.541137 84.239946 
z
" style="fill:#4c72b0;fill-opacity:0.5;stroke:#4c72b0;stroke-linejoin:miter;"/>
   </g>
   <g id="patch_48">
    <path clip-path="url(#p080f374c2c)" d="M 146.522678 184.869375 
L 148.5042 184.869375 
L 148.5042 96.285764 
L 146.522678 96.285764 
z
" style="fill:#4c72b0;fill-opacity:0.5;stroke:#4c72b0;stroke-linejoin:miter;"/>
   </g>
   <g id="patch_49">
    <path clip-path="url(#p080f374c2c)" d="M 148.50422 184.869375 
L 150.485742 184.869375 
L 150.485742 106.355968 
L 148.50422 106.355968 
z
" style="fill:#4c72b0;fill-opacity:0.5;stroke:#4c72b0;stroke-linejoin:miter;"/>
   </g>
   <g id="patch_50">
    <path clip-path="url(#p080f374c2c)" d="M 150.485742 184.869375 
L 152.467264 184.869375 
L 152.467264 116.930883 
L 150.485742 116.930883 
z
" style="fill:#4c72b0;fill-opacity:0.5;stroke:#4c72b0;stroke-linejoin:miter;"/>
   </g>
   <g id="patch_51">
    <path clip-path="url(#p080f374c2c)" d="M 152.467284 184.869375 
L 154.448806 184.869375 
L 154.448806 126.565806 
L 152.467284 126.565806 
z
" style="fill:#4c72b0;fill-opacity:0.5;stroke:#4c72b0;stroke-linejoin:miter;"/>
   </g>
   <g id="patch_52">
    <path clip-path="url(#p080f374c2c)" d="M 154.448806 184.869375 
L 156.430348 184.869375 
L 156.430348 136.409267 
L 154.448806 136.409267 
z
" style="fill:#4c72b0;fill-opacity:0.5;stroke:#4c72b0;stroke-linejoin:miter;"/>
   </g>
   <g id="patch_53">
    <path clip-path="url(#p080f374c2c)" d="M 156.430348 184.869375 
L 158.411869 184.869375 
L 158.411869 144.03311 
L 156.430348 144.03311 
z
" style="fill:#4c72b0;fill-opacity:0.5;stroke:#4c72b0;stroke-linejoin:miter;"/>
   </g>
   <g id="patch_54">
    <path clip-path="url(#p080f374c2c)" d="M 158.411889 184.869375 
L 160.393411 184.869375 
L 160.393411 150.767943 
L 158.411889 150.767943 
z
" style="fill:#4c72b0;fill-opacity:0.5;stroke:#4c72b0;stroke-linejoin:miter;"/>
   </g>
   <g id="patch_55">
    <path clip-path="url(#p080f374c2c)" d="M 160.393411 184.869375 
L 162.374933 184.869375 
L 162.374933 156.576135 
L 160.393411 156.576135 
z
" style="fill:#4c72b0;fill-opacity:0.5;stroke:#4c72b0;stroke-linejoin:miter;"/>
   </g>
   <g id="patch_56">
    <path clip-path="url(#p080f374c2c)" d="M 162.374943 184.869375 
L 164.356485 184.869375 
L 164.356485 161.650075 
L 162.374943 161.650075 
z
" style="fill:#4c72b0;fill-opacity:0.5;stroke:#4c72b0;stroke-linejoin:miter;"/>
   </g>
   <g id="patch_57">
    <path clip-path="url(#p080f374c2c)" d="M 164.356495 184.869375 
L 166.338017 184.869375 
L 166.338017 166.072196 
L 164.356495 166.072196 
z
" style="fill:#4c72b0;fill-opacity:0.5;stroke:#4c72b0;stroke-linejoin:miter;"/>
   </g>
   <g id="patch_58">
    <path clip-path="url(#p080f374c2c)" d="M 166.338017 184.869375 
L 168.319539 184.869375 
L 168.319539 169.044388 
L 166.338017 169.044388 
z
" style="fill:#4c72b0;fill-opacity:0.5;stroke:#4c72b0;stroke-linejoin:miter;"/>
   </g>
   <g id="patch_59">
    <path clip-path="url(#p080f374c2c)" d="M 168.319559 184.869375 
L 170.30108 184.869375 
L 170.30108 172.198169 
L 168.319559 172.198169 
z
" style="fill:#4c72b0;fill-opacity:0.5;stroke:#4c72b0;stroke-linejoin:miter;"/>
   </g>
   <g id="patch_60">
    <path clip-path="url(#p080f374c2c)" d="M 170.30108 184.869375 
L 172.282622 184.869375 
L 172.282622 174.40667 
L 170.30108 174.40667 
z
" style="fill:#4c72b0;fill-opacity:0.5;stroke:#4c72b0;stroke-linejoin:miter;"/>
   </g>
   <g id="patch_61">
    <path clip-path="url(#p080f374c2c)" d="M 172.282622 184.869375 
L 174.264144 184.869375 
L 174.264144 176.302625 
L 172.282622 176.302625 
z
" style="fill:#4c72b0;fill-opacity:0.5;stroke:#4c72b0;stroke-linejoin:miter;"/>
   </g>
   <g id="patch_62">
    <path clip-path="url(#p080f374c2c)" d="M 174.264164 184.869375 
L 176.245686 184.869375 
L 176.245686 177.771363 
L 174.264164 177.771363 
z
" style="fill:#4c72b0;fill-opacity:0.5;stroke:#4c72b0;stroke-linejoin:miter;"/>
   </g>
   <g id="patch_63">
    <path clip-path="url(#p080f374c2c)" d="M 176.245686 184.869375 
L 178.227208 184.869375 
L 178.227208 179.031808 
L 176.245686 179.031808 
z
" style="fill:#4c72b0;fill-opacity:0.5;stroke:#4c72b0;stroke-linejoin:miter;"/>
   </g>
   <g id="patch_64">
    <path clip-path="url(#p080f374c2c)" d="M 178.227218 184.869375 
L 180.208759 184.869375 
L 180.208759 180.126709 
L 178.227218 180.126709 
z
" style="fill:#4c72b0;fill-opacity:0.5;stroke:#4c72b0;stroke-linejoin:miter;"/>
   </g>
   <g id="patch_65">
    <path clip-path="url(#p080f374c2c)" d="M 180.208769 184.869375 
L 182.190291 184.869375 
L 182.190291 180.847703 
L 180.208769 180.847703 
z
" style="fill:#4c72b0;fill-opacity:0.5;stroke:#4c72b0;stroke-linejoin:miter;"/>
   </g>
   <g id="patch_66">
    <path clip-path="url(#p080f374c2c)" d="M 182.190291 184.869375 
L 184.171813 184.869375 
L 184.171813 181.341733 
L 182.190291 181.341733 
z
" style="fill:#4c72b0;fill-opacity:0.5;stroke:#4c72b0;stroke-linejoin:miter;"/>
   </g>
   <g id="patch_67">
    <path clip-path="url(#p080f374c2c)" d="M 184.171833 184.869375 
L 186.153355 184.869375 
L 186.153355 181.926558 
L 184.171833 181.926558 
z
" style="fill:#4c72b0;fill-opacity:0.5;stroke:#4c72b0;stroke-linejoin:miter;"/>
   </g>
   <g id="patch_68">
    <path clip-path="url(#p080f374c2c)" d="M 186.153355 184.869375 
L 188.134877 184.869375 
L 188.134877 182.228317 
L 186.153355 182.228317 
z
" style="fill:#4c72b0;fill-opacity:0.5;stroke:#4c72b0;stroke-linejoin:miter;"/>
   </g>
   <g id="patch_69">
    <path clip-path="url(#p080f374c2c)" d="M 188.134887 184.869375 
L 190.116429 184.869375 
L 190.116429 182.831845 
L 188.134887 182.831845 
z
" style="fill:#4c72b0;fill-opacity:0.5;stroke:#4c72b0;stroke-linejoin:miter;"/>
   </g>
   <g id="patch_70">
    <path clip-path="url(#p080f374c2c)" d="M 190.116439 184.869375 
L 192.09796 184.869375 
L 192.09796 182.981379 
L 190.116439 182.981379 
z
" style="fill:#4c72b0;fill-opacity:0.5;stroke:#4c72b0;stroke-linejoin:miter;"/>
   </g>
   <g id="patch_71">
    <path clip-path="url(#p080f374c2c)" d="M 192.09796 184.869375 
L 194.079482 184.869375 
L 194.079482 183.221718 
L 192.09796 183.221718 
z
" style="fill:#4c72b0;fill-opacity:0.5;stroke:#4c72b0;stroke-linejoin:miter;"/>
   </g>
   <g id="patch_72">
    <path clip-path="url(#p080f374c2c)" d="M 194.079502 184.869375 
L 196.061024 184.869375 
L 196.061024 183.635635 
L 194.079502 183.635635 
z
" style="fill:#4c72b0;fill-opacity:0.5;stroke:#4c72b0;stroke-linejoin:miter;"/>
   </g>
   <g id="patch_73">
    <path clip-path="url(#p080f374c2c)" d="M 196.061024 184.869375 
L 198.042566 184.869375 
L 198.042566 184.353984 
L 196.061024 184.353984 
z
" style="fill:#4c72b0;fill-opacity:0.5;stroke:#4c72b0;stroke-linejoin:miter;"/>
   </g>
   <g id="patch_74">
    <path clip-path="url(#p080f374c2c)" d="M 198.042566 184.869375 
L 200.024088 184.869375 
L 200.024088 184.669093 
L 198.042566 184.669093 
z
" style="fill:#4c72b0;fill-opacity:0.5;stroke:#4c72b0;stroke-linejoin:miter;"/>
   </g>
   <g id="patch_75">
    <path clip-path="url(#p080f374c2c)" d="M 200.024108 184.869375 
L 202.00563 184.869375 
L 202.00563 184.669093 
L 200.024108 184.669093 
z
" style="fill:#4c72b0;fill-opacity:0.5;stroke:#4c72b0;stroke-linejoin:miter;"/>
   </g>
   <g id="patch_76">
    <path clip-path="url(#p080f374c2c)" d="M 202.00563 184.869375 
L 203.987151 184.869375 
L 203.987151 184.674433 
L 202.00563 184.674433 
z
" style="fill:#4c72b0;fill-opacity:0.5;stroke:#4c72b0;stroke-linejoin:miter;"/>
   </g>
   <g id="patch_77">
    <path clip-path="url(#p080f374c2c)" d="M 203.987161 184.869375 
L 205.968703 184.869375 
L 205.968703 184.679775 
L 203.987161 184.679775 
z
" style="fill:#4c72b0;fill-opacity:0.5;stroke:#4c72b0;stroke-linejoin:miter;"/>
   </g>
   <g id="patch_78">
    <path clip-path="url(#p080f374c2c)" d="M 205.968713 184.869375 
L 207.950235 184.869375 
L 207.950235 184.690456 
L 205.968713 184.690456 
z
" style="fill:#4c72b0;fill-opacity:0.5;stroke:#4c72b0;stroke-linejoin:miter;"/>
   </g>
   <g id="patch_79">
    <path clip-path="url(#p080f374c2c)" d="M 207.950235 184.869375 
L 209.931757 184.869375 
L 209.931757 184.618354 
L 207.950235 184.618354 
z
" style="fill:#4c72b0;fill-opacity:0.5;stroke:#4c72b0;stroke-linejoin:miter;"/>
   </g>
   <g id="patch_80">
    <path clip-path="url(#p080f374c2c)" d="M 209.931777 184.869375 
L 211.913299 184.869375 
L 211.913299 184.511537 
L 209.931777 184.511537 
z
" style="fill:#4c72b0;fill-opacity:0.5;stroke:#4c72b0;stroke-linejoin:miter;"/>
   </g>
   <g id="patch_81">
    <path clip-path="url(#p080f374c2c)" d="M 211.913299 184.869375 
L 213.894841 184.869375 
L 213.894841 184.191088 
L 211.913299 184.191088 
z
" style="fill:#4c72b0;fill-opacity:0.5;stroke:#4c72b0;stroke-linejoin:miter;"/>
   </g>
   <g id="patch_82">
    <path clip-path="url(#p080f374c2c)" d="M 213.894841 184.869375 
L 215.876362 184.869375 
L 215.876362 184.129665 
L 213.894841 184.129665 
z
" style="fill:#4c72b0;fill-opacity:0.5;stroke:#4c72b0;stroke-linejoin:miter;"/>
   </g>
   <g id="patch_83">
    <path clip-path="url(#p080f374c2c)" d="M 215.876382 184.869375 
L 217.857904 184.869375 
L 217.857904 184.030859 
L 215.876382 184.030859 
z
" style="fill:#4c72b0;fill-opacity:0.5;stroke:#4c72b0;stroke-linejoin:miter;"/>
   </g>
   <g id="patch_84">
    <path clip-path="url(#p080f374c2c)" d="M 217.857904 184.869375 
L 219.839426 184.869375 
L 219.839426 184.004155 
L 217.857904 184.004155 
z
" style="fill:#4c72b0;fill-opacity:0.5;stroke:#4c72b0;stroke-linejoin:miter;"/>
   </g>
   <g id="patch_85">
    <path clip-path="url(#p080f374c2c)" d="M 219.839446 184.869375 
L 221.820968 184.869375 
L 221.820968 184.094949 
L 219.839446 184.094949 
z
" style="fill:#4c72b0;fill-opacity:0.5;stroke:#4c72b0;stroke-linejoin:miter;"/>
   </g>
   <g id="patch_86">
    <path clip-path="url(#p080f374c2c)" d="M 221.820968 184.869375 
L 223.80251 184.869375 
L 223.80251 183.966773 
L 221.820968 183.966773 
z
" style="fill:#4c72b0;fill-opacity:0.5;stroke:#4c72b0;stroke-linejoin:miter;"/>
   </g>
   <g id="patch_87">
    <path clip-path="url(#p080f374c2c)" d="M 223.80251 184.869375 
L 225.784032 184.869375 
L 225.784032 183.870633 
L 223.80251 183.870633 
z
" style="fill:#4c72b0;fill-opacity:0.5;stroke:#4c72b0;stroke-linejoin:miter;"/>
   </g>
   <g id="patch_88">
    <path clip-path="url(#p080f374c2c)" d="M 225.784051 184.869375 
L 227.765573 184.869375 
L 227.765573 183.515465 
L 225.784051 183.515465 
z
" style="fill:#4c72b0;fill-opacity:0.5;stroke:#4c72b0;stroke-linejoin:miter;"/>
   </g>
   <g id="patch_89">
    <path clip-path="url(#p080f374c2c)" d="M 227.765573 184.869375 
L 229.747115 184.869375 
L 229.747115 183.438026 
L 227.765573 183.438026 
z
" style="fill:#4c72b0;fill-opacity:0.5;stroke:#4c72b0;stroke-linejoin:miter;"/>
   </g>
   <g id="patch_90">
    <path clip-path="url(#p080f374c2c)" d="M 229.747115 184.869375 
L 231.728637 184.869375 
L 231.728637 183.432682 
L 229.747115 183.432682 
z
" style="fill:#4c72b0;fill-opacity:0.5;stroke:#4c72b0;stroke-linejoin:miter;"/>
   </g>
   <g id="patch_91">
    <path clip-path="url(#p080f374c2c)" d="M 231.728637 184.869375 
L 233.710179 184.869375 
L 233.710179 183.456719 
L 231.728637 183.456719 
z
" style="fill:#4c72b0;fill-opacity:0.5;stroke:#4c72b0;stroke-linejoin:miter;"/>
   </g>
   <g id="patch_92">
    <path clip-path="url(#p080f374c2c)" d="M 233.710184 184.869375 
L 235.691706 184.869375 
L 235.691706 182.9253 
L 233.710184 182.9253 
z
" style="fill:#4c72b0;fill-opacity:0.5;stroke:#4c72b0;stroke-linejoin:miter;"/>
   </g>
   <g id="patch_93">
    <path clip-path="url(#p080f374c2c)" d="M 235.691711 184.869375 
L 237.673252 184.869375 
L 237.673252 182.420594 
L 235.691711 182.420594 
z
" style="fill:#4c72b0;fill-opacity:0.5;stroke:#4c72b0;stroke-linejoin:miter;"/>
   </g>
   <g id="patch_94">
    <path clip-path="url(#p080f374c2c)" d="M 237.673252 184.869375 
L 239.654774 184.869375 
L 239.654774 182.754392 
L 237.673252 182.754392 
z
" style="fill:#4c72b0;fill-opacity:0.5;stroke:#4c72b0;stroke-linejoin:miter;"/>
   </g>
   <g id="patch_95">
    <path clip-path="url(#p080f374c2c)" d="M 239.654774 184.869375 
L 241.636316 184.869375 
L 241.636316 182.514059 
L 239.654774 182.514059 
z
" style="fill:#4c72b0;fill-opacity:0.5;stroke:#4c72b0;stroke-linejoin:miter;"/>
   </g>
   <g id="patch_96">
    <path clip-path="url(#p080f374c2c)" d="M 241.636321 184.869375 
L 243.617843 184.869375 
L 243.617843 182.228317 
L 241.636321 182.228317 
z
" style="fill:#4c72b0;fill-opacity:0.5;stroke:#4c72b0;stroke-linejoin:miter;"/>
   </g>
   <g id="patch_97">
    <path clip-path="url(#p080f374c2c)" d="M 243.617848 184.869375 
L 245.59939 184.869375 
L 245.59939 181.445888 
L 243.617848 181.445888 
z
" style="fill:#4c72b0;fill-opacity:0.5;stroke:#4c72b0;stroke-linejoin:miter;"/>
   </g>
   <g id="patch_98">
    <path clip-path="url(#p080f374c2c)" d="M 245.59939 184.869375 
L 247.580912 184.869375 
L 247.580912 181.50997 
L 245.59939 181.50997 
z
" style="fill:#4c72b0;fill-opacity:0.5;stroke:#4c72b0;stroke-linejoin:miter;"/>
   </g>
   <g id="patch_99">
    <path clip-path="url(#p080f374c2c)" d="M 247.580922 184.869375 
L 249.562443 184.869375 
L 249.562443 181.266961 
L 247.580922 181.266961 
z
" style="fill:#4c72b0;fill-opacity:0.5;stroke:#4c72b0;stroke-linejoin:miter;"/>
   </g>
   <g id="patch_100">
    <path clip-path="url(#p080f374c2c)" d="M 249.562443 184.869375 
L 251.543985 184.869375 
L 251.543985 181.70759 
L 249.562443 181.70759 
z
" style="fill:#4c72b0;fill-opacity:0.5;stroke:#4c72b0;stroke-linejoin:miter;"/>
   </g>
   <g id="patch_101">
    <path clip-path="url(#p080f374c2c)" d="M 251.54399 184.869375 
L 253.525512 184.869375 
L 253.525512 180.82901 
L 251.54399 180.82901 
z
" style="fill:#4c72b0;fill-opacity:0.5;stroke:#4c72b0;stroke-linejoin:miter;"/>
   </g>
   <g id="patch_102">
    <path clip-path="url(#p080f374c2c)" d="M 253.525517 184.869375 
L 255.507059 184.869375 
L 255.507059 181.258958 
L 253.525517 181.258958 
z
" style="fill:#4c72b0;fill-opacity:0.5;stroke:#4c72b0;stroke-linejoin:miter;"/>
   </g>
   <g id="patch_103">
    <path clip-path="url(#p080f374c2c)" d="M 255.507059 184.869375 
L 257.488581 184.869375 
L 257.488581 181.242927 
L 255.507059 181.242927 
z
" style="fill:#4c72b0;fill-opacity:0.5;stroke:#4c72b0;stroke-linejoin:miter;"/>
   </g>
   <g id="patch_104">
    <path clip-path="url(#p080f374c2c)" d="M 257.488581 184.869375 
L 259.470123 184.869375 
L 259.470123 180.796975 
L 257.488581 180.796975 
z
" style="fill:#4c72b0;fill-opacity:0.5;stroke:#4c72b0;stroke-linejoin:miter;"/>
   </g>
   <g id="patch_105">
    <path clip-path="url(#p080f374c2c)" d="M 259.470127 184.869375 
L 261.451649 184.869375 
L 261.451649 179.947767 
L 259.470127 179.947767 
z
" style="fill:#4c72b0;fill-opacity:0.5;stroke:#4c72b0;stroke-linejoin:miter;"/>
   </g>
   <g id="patch_106">
    <path clip-path="url(#p080f374c2c)" d="M 261.451654 184.869375 
L 263.433196 184.869375 
L 263.433196 179.037164 
L 261.451654 179.037164 
z
" style="fill:#4c72b0;fill-opacity:0.5;stroke:#4c72b0;stroke-linejoin:miter;"/>
   </g>
   <g id="patch_107">
    <path clip-path="url(#p080f374c2c)" d="M 263.433196 184.869375 
L 265.414718 184.869375 
L 265.414718 180.356343 
L 263.433196 180.356343 
z
" style="fill:#4c72b0;fill-opacity:0.5;stroke:#4c72b0;stroke-linejoin:miter;"/>
   </g>
   <g id="patch_108">
    <path clip-path="url(#p080f374c2c)" d="M 265.414718 184.869375 
L 267.39626 184.869375 
L 267.39626 180.035903 
L 265.414718 180.035903 
z
" style="fill:#4c72b0;fill-opacity:0.5;stroke:#4c72b0;stroke-linejoin:miter;"/>
   </g>
   <g id="patch_109">
    <path clip-path="url(#p080f374c2c)" d="M 267.396265 184.869375 
L 269.377787 184.869375 
L 269.377787 180.0893 
L 267.396265 180.0893 
z
" style="fill:#4c72b0;fill-opacity:0.5;stroke:#4c72b0;stroke-linejoin:miter;"/>
   </g>
   <g id="patch_110">
    <path clip-path="url(#p080f374c2c)" d="M 269.377787 184.869375 
L 271.359328 184.869375 
L 271.359328 177.328081 
L 269.377787 177.328081 
z
" style="fill:#4c72b0;fill-opacity:0.5;stroke:#4c72b0;stroke-linejoin:miter;"/>
   </g>
   <g id="patch_111">
    <path clip-path="url(#p080f374c2c)" d="M 271.359323 184.869375 
L 273.340865 184.869375 
L 273.340865 179.095906 
L 271.359323 179.095906 
z
" style="fill:#4c72b0;fill-opacity:0.5;stroke:#4c72b0;stroke-linejoin:miter;"/>
   </g>
   <g id="patch_112">
    <path clip-path="url(#p080f374c2c)" d="M 273.340855 184.869375 
L 275.322397 184.869375 
L 275.322397 179.149314 
L 273.340855 179.149314 
z
" style="fill:#4c72b0;fill-opacity:0.5;stroke:#4c72b0;stroke-linejoin:miter;"/>
   </g>
   <g id="patch_113">
    <path clip-path="url(#p080f374c2c)" d="M 275.322392 184.869375 
L 277.303934 184.869375 
L 277.303934 178.147903 
L 275.322392 178.147903 
z
" style="fill:#4c72b0;fill-opacity:0.5;stroke:#4c72b0;stroke-linejoin:miter;"/>
   </g>
   <g id="patch_114">
    <path clip-path="url(#p080f374c2c)" d="M 277.303924 184.869375 
L 279.285466 184.869375 
L 279.285466 177.450921 
L 277.303924 177.450921 
z
" style="fill:#4c72b0;fill-opacity:0.5;stroke:#4c72b0;stroke-linejoin:miter;"/>
   </g>
   <g id="patch_115">
    <path clip-path="url(#p080f374c2c)" d="M 279.285461 184.869375 
L 281.267003 184.869375 
L 281.267003 179.085224 
L 279.285461 179.085224 
z
" style="fill:#4c72b0;fill-opacity:0.5;stroke:#4c72b0;stroke-linejoin:miter;"/>
   </g>
   <g id="patch_116">
    <path clip-path="url(#p080f374c2c)" d="M 281.266993 184.869375 
L 283.248534 184.869375 
L 283.248534 177.776713 
L 281.266993 177.776713 
z
" style="fill:#4c72b0;fill-opacity:0.5;stroke:#4c72b0;stroke-linejoin:miter;"/>
   </g>
   <g id="patch_117">
    <path clip-path="url(#p080f374c2c)" d="M 283.248529 184.869375 
L 285.230071 184.869375 
L 285.230071 177.779384 
L 283.248529 177.779384 
z
" style="fill:#4c72b0;fill-opacity:0.5;stroke:#4c72b0;stroke-linejoin:miter;"/>
   </g>
   <g id="patch_118">
    <path clip-path="url(#p080f374c2c)" d="M 285.230061 184.869375 
L 287.211603 184.869375 
L 287.211603 177.034334 
L 285.230061 177.034334 
z
" style="fill:#4c72b0;fill-opacity:0.5;stroke:#4c72b0;stroke-linejoin:miter;"/>
   </g>
   <g id="patch_119">
    <path clip-path="url(#p080f374c2c)" d="M 287.211598 184.869375 
L 289.19314 184.869375 
L 289.19314 177.94495 
L 287.211598 177.94495 
z
" style="fill:#4c72b0;fill-opacity:0.5;stroke:#4c72b0;stroke-linejoin:miter;"/>
   </g>
   <g id="patch_120">
    <path clip-path="url(#p080f374c2c)" d="M 289.19313 184.869375 
L 291.174672 184.869375 
L 291.174672 174.059475 
L 289.19313 174.059475 
z
" style="fill:#4c72b0;fill-opacity:0.5;stroke:#4c72b0;stroke-linejoin:miter;"/>
   </g>
   <g id="patch_121">
    <path clip-path="url(#p080f374c2c)" d="M 291.174664 184.869375 
L 293.156206 184.869375 
L 293.156206 177.055692 
L 291.174664 177.055692 
z
" style="fill:#4c72b0;fill-opacity:0.5;stroke:#4c72b0;stroke-linejoin:miter;"/>
   </g>
   <g id="patch_122">
    <path clip-path="url(#p080f374c2c)" d="M 293.156199 184.869375 
L 295.13774 184.869375 
L 295.13774 176.345363 
L 293.156199 176.345363 
z
" style="fill:#4c72b0;fill-opacity:0.5;stroke:#4c72b0;stroke-linejoin:miter;"/>
   </g>
   <g id="patch_123">
    <path clip-path="url(#p080f374c2c)" d="M 295.137733 184.869375 
L 297.119275 184.869375 
L 297.119275 176.342692 
L 295.137733 176.342692 
z
" style="fill:#4c72b0;fill-opacity:0.5;stroke:#4c72b0;stroke-linejoin:miter;"/>
   </g>
   <g id="patch_124">
    <path clip-path="url(#p080f374c2c)" d="M 297.119267 184.869375 
L 299.100809 184.869375 
L 299.100809 173.642888 
L 297.119267 173.642888 
z
" style="fill:#4c72b0;fill-opacity:0.5;stroke:#4c72b0;stroke-linejoin:miter;"/>
   </g>
   <g id="patch_125">
    <path clip-path="url(#p080f374c2c)" d="M 299.100802 184.869375 
L 301.082343 184.869375 
L 301.082343 176.855415 
L 299.100802 176.855415 
z
" style="fill:#4c72b0;fill-opacity:0.5;stroke:#4c72b0;stroke-linejoin:miter;"/>
   </g>
   <g id="patch_126">
    <path clip-path="url(#p080f374c2c)" d="M 301.082336 184.869375 
L 303.063878 184.869375 
L 303.063878 175.819285 
L 301.082336 175.819285 
z
" style="fill:#4c72b0;fill-opacity:0.5;stroke:#4c72b0;stroke-linejoin:miter;"/>
   </g>
   <g id="patch_127">
    <path clip-path="url(#p080f374c2c)" d="M 303.06387 184.869375 
L 305.045411 184.869375 
L 305.045411 176.436157 
L 303.06387 176.436157 
z
" style="fill:#4c72b0;fill-opacity:0.5;stroke:#4c72b0;stroke-linejoin:miter;"/>
   </g>
   <g id="patch_128">
    <path clip-path="url(#p080f374c2c)" d="M 305.045403 184.869375 
L 307.026945 184.869375 
L 307.026945 175.60298 
L 305.045403 175.60298 
z
" style="fill:#4c72b0;fill-opacity:0.5;stroke:#4c72b0;stroke-linejoin:miter;"/>
   </g>
   <g id="patch_129">
    <path clip-path="url(#p080f374c2c)" d="M 307.026938 184.869375 
L 309.008479 184.869375 
L 309.008479 174.657651 
L 307.026938 174.657651 
z
" style="fill:#4c72b0;fill-opacity:0.5;stroke:#4c72b0;stroke-linejoin:miter;"/>
   </g>
   <g id="patch_130">
    <path clip-path="url(#p080f374c2c)" d="M 309.008472 184.869375 
L 310.990014 184.869375 
L 310.990014 175.250487 
L 309.008472 175.250487 
z
" style="fill:#4c72b0;fill-opacity:0.5;stroke:#4c72b0;stroke-linejoin:miter;"/>
   </g>
   <g id="patch_131">
    <path clip-path="url(#p080f374c2c)" d="M 310.990006 184.869375 
L 312.971548 184.869375 
L 312.971548 170.49712 
L 310.990006 170.49712 
z
" style="fill:#4c72b0;fill-opacity:0.5;stroke:#4c72b0;stroke-linejoin:miter;"/>
   </g>
   <g id="patch_132">
    <path clip-path="url(#p080f374c2c)" d="M 312.97154 184.869375 
L 314.953082 184.869375 
L 314.953082 175.127646 
L 312.97154 175.127646 
z
" style="fill:#4c72b0;fill-opacity:0.5;stroke:#4c72b0;stroke-linejoin:miter;"/>
   </g>
   <g id="patch_133">
    <path clip-path="url(#p080f374c2c)" d="M 314.953074 184.869375 
L 316.934616 184.869375 
L 316.934616 173.987372 
L 314.953074 173.987372 
z
" style="fill:#4c72b0;fill-opacity:0.5;stroke:#4c72b0;stroke-linejoin:miter;"/>
   </g>
   <g id="patch_134">
    <path clip-path="url(#p080f374c2c)" d="M 316.934609 184.869375 
L 318.91615 184.869375 
L 318.91615 175.776561 
L 316.934609 175.776561 
z
" style="fill:#4c72b0;fill-opacity:0.5;stroke:#4c72b0;stroke-linejoin:miter;"/>
   </g>
   <g id="patch_135">
    <path clip-path="url(#p080f374c2c)" d="M 318.916143 184.869375 
L 320.897685 184.869375 
L 320.897685 175.095602 
L 318.916143 175.095602 
z
" style="fill:#4c72b0;fill-opacity:0.5;stroke:#4c72b0;stroke-linejoin:miter;"/>
   </g>
   <g id="patch_136">
    <path clip-path="url(#p080f374c2c)" d="M 320.897677 184.869375 
L 322.879218 184.869375 
L 322.879218 176.262577 
L 320.897677 176.262577 
z
" style="fill:#4c72b0;fill-opacity:0.5;stroke:#4c72b0;stroke-linejoin:miter;"/>
   </g>
   <g id="patch_137">
    <path clip-path="url(#p080f374c2c)" d="M 322.879211 184.869375 
L 324.860753 184.869375 
L 324.860753 176.086331 
L 322.879211 176.086331 
z
" style="fill:#4c72b0;fill-opacity:0.5;stroke:#4c72b0;stroke-linejoin:miter;"/>
   </g>
   <g id="patch_138">
    <path clip-path="url(#p080f374c2c)" d="M 324.860745 184.869375 
L 326.842287 184.869375 
L 326.842287 174.630947 
L 324.860745 174.630947 
z
" style="fill:#4c72b0;fill-opacity:0.5;stroke:#4c72b0;stroke-linejoin:miter;"/>
   </g>
   <g id="patch_139">
    <path clip-path="url(#p080f374c2c)" d="M 326.84228 184.869375 
L 328.823821 184.869375 
L 328.823821 175.578949 
L 326.84228 175.578949 
z
" style="fill:#4c72b0;fill-opacity:0.5;stroke:#4c72b0;stroke-linejoin:miter;"/>
   </g>
   <g id="patch_140">
    <path clip-path="url(#p080f374c2c)" d="M 328.823814 184.869375 
L 330.805356 184.869375 
L 330.805356 175.717812 
L 328.823814 175.717812 
z
" style="fill:#4c72b0;fill-opacity:0.5;stroke:#4c72b0;stroke-linejoin:miter;"/>
   </g>
   <g id="patch_141">
    <path clip-path="url(#p080f374c2c)" d="M 330.805348 184.869375 
L 332.78689 184.869375 
L 332.78689 177.173196 
L 330.805348 177.173196 
z
" style="fill:#4c72b0;fill-opacity:0.5;stroke:#4c72b0;stroke-linejoin:miter;"/>
   </g>
   <g id="patch_142">
    <path clip-path="url(#p080f374c2c)" d="M 332.786883 184.869375 
L 334.768424 184.869375 
L 334.768424 177.045011 
L 332.786883 177.045011 
z
" style="fill:#4c72b0;fill-opacity:0.5;stroke:#4c72b0;stroke-linejoin:miter;"/>
   </g>
   <g id="patch_143">
    <path clip-path="url(#p080f374c2c)" d="M 334.768417 184.869375 
L 336.749959 184.869375 
L 336.749959 173.597491 
L 334.768417 173.597491 
z
" style="fill:#4c72b0;fill-opacity:0.5;stroke:#4c72b0;stroke-linejoin:miter;"/>
   </g>
   <g id="patch_144">
    <path clip-path="url(#p080f374c2c)" d="M 336.749949 184.869375 
L 338.731491 184.869375 
L 338.731491 175.886049 
L 336.749949 175.886049 
z
" style="fill:#4c72b0;fill-opacity:0.5;stroke:#4c72b0;stroke-linejoin:miter;"/>
   </g>
   <g id="patch_145">
    <path clip-path="url(#p080f374c2c)" d="M 338.731486 184.869375 
L 340.713027 184.869375 
L 340.713027 178.073131 
L 338.731486 178.073131 
z
" style="fill:#4c72b0;fill-opacity:0.5;stroke:#4c72b0;stroke-linejoin:miter;"/>
   </g>
   <g id="patch_146">
    <path clip-path="url(#p080f374c2c)" d="M 340.713017 184.869375 
L 342.694559 184.869375 
L 342.694559 178.532445 
L 340.713017 178.532445 
z
" style="fill:#4c72b0;fill-opacity:0.5;stroke:#4c72b0;stroke-linejoin:miter;"/>
   </g>
   <g id="patch_147">
    <path clip-path="url(#p080f374c2c)" d="M 342.694554 184.869375 
L 344.676096 184.869375 
L 344.676096 177.94495 
L 342.694554 177.94495 
z
" style="fill:#4c72b0;fill-opacity:0.5;stroke:#4c72b0;stroke-linejoin:miter;"/>
   </g>
   <g id="patch_148">
    <path clip-path="url(#p080f374c2c)" d="M 344.676086 184.869375 
L 346.657628 184.869375 
L 346.657628 177.453591 
L 344.676086 177.453591 
z
" style="fill:#4c72b0;fill-opacity:0.5;stroke:#4c72b0;stroke-linejoin:miter;"/>
   </g>
   <g id="patch_149">
    <path clip-path="url(#p080f374c2c)" d="M 346.657623 184.869375 
L 348.639165 184.869375 
L 348.639165 177.205241 
L 346.657623 177.205241 
z
" style="fill:#4c72b0;fill-opacity:0.5;stroke:#4c72b0;stroke-linejoin:miter;"/>
   </g>
   <g id="patch_150">
    <path clip-path="url(#p080f374c2c)" d="M 348.639155 184.869375 
L 350.620696 184.869375 
L 350.620696 179.533856 
L 348.639155 179.533856 
z
" style="fill:#4c72b0;fill-opacity:0.5;stroke:#4c72b0;stroke-linejoin:miter;"/>
   </g>
   <g id="patch_151">
    <path clip-path="url(#p080f374c2c)" d="M 350.620691 184.869375 
L 352.602233 184.869375 
L 352.602233 178.262732 
L 350.620691 178.262732 
z
" style="fill:#4c72b0;fill-opacity:0.5;stroke:#4c72b0;stroke-linejoin:miter;"/>
   </g>
   <g id="patch_152">
    <path clip-path="url(#p080f374c2c)" d="M 352.602233 184.869375 
L 354.583755 184.869375 
L 354.583755 179.066524 
L 352.602233 179.066524 
z
" style="fill:#4c72b0;fill-opacity:0.5;stroke:#4c72b0;stroke-linejoin:miter;"/>
   </g>
   <g id="patch_153">
    <path clip-path="url(#p080f374c2c)" d="M 354.58376 184.869375 
L 356.565302 184.869375 
L 356.565302 178.083821 
L 354.58376 178.083821 
z
" style="fill:#4c72b0;fill-opacity:0.5;stroke:#4c72b0;stroke-linejoin:miter;"/>
   </g>
   <g id="patch_154">
    <path clip-path="url(#p080f374c2c)" d="M 356.565302 184.869375 
L 358.546824 184.869375 
L 358.546824 180.006516 
L 356.565302 180.006516 
z
" style="fill:#4c72b0;fill-opacity:0.5;stroke:#4c72b0;stroke-linejoin:miter;"/>
   </g>
   <g id="patch_155">
    <path clip-path="url(#p080f374c2c)" d="M 358.546824 184.869375 
L 360.528366 184.869375 
L 360.528366 179.277502 
L 358.546824 179.277502 
z
" style="fill:#4c72b0;fill-opacity:0.5;stroke:#4c72b0;stroke-linejoin:miter;"/>
   </g>
   <g id="patch_156">
    <path clip-path="url(#p080f374c2c)" d="M 360.528371 184.869375 
L 362.509892 184.869375 
L 362.509892 179.10391 
L 360.528371 179.10391 
z
" style="fill:#4c72b0;fill-opacity:0.5;stroke:#4c72b0;stroke-linejoin:miter;"/>
   </g>
   <g id="patch_157">
    <path clip-path="url(#p080f374c2c)" d="M 362.509897 184.869375 
L 364.491439 184.869375 
L 364.491439 180.361695 
L 362.509897 180.361695 
z
" style="fill:#4c72b0;fill-opacity:0.5;stroke:#4c72b0;stroke-linejoin:miter;"/>
   </g>
   <g id="patch_158">
    <path clip-path="url(#p080f374c2c)" d="M 364.491439 184.869375 
L 366.472961 184.869375 
L 366.472961 179.870324 
L 364.491439 179.870324 
z
" style="fill:#4c72b0;fill-opacity:0.5;stroke:#4c72b0;stroke-linejoin:miter;"/>
   </g>
   <g id="patch_159">
    <path clip-path="url(#p080f374c2c)" d="M 366.472961 184.869375 
L 368.454503 184.869375 
L 368.454503 181.218902 
L 366.472961 181.218902 
z
" style="fill:#4c72b0;fill-opacity:0.5;stroke:#4c72b0;stroke-linejoin:miter;"/>
   </g>
   <g id="patch_160">
    <path clip-path="url(#p080f374c2c)" d="M 368.454508 184.869375 
L 370.43603 184.869375 
L 370.43603 180.95719 
L 368.454508 180.95719 
z
" style="fill:#4c72b0;fill-opacity:0.5;stroke:#4c72b0;stroke-linejoin:miter;"/>
   </g>
   <g id="patch_161">
    <path clip-path="url(#p080f374c2c)" d="M 370.436035 184.869375 
L 372.417577 184.869375 
L 372.417577 180.826349 
L 370.436035 180.826349 
z
" style="fill:#4c72b0;fill-opacity:0.5;stroke:#4c72b0;stroke-linejoin:miter;"/>
   </g>
   <g id="patch_162">
    <path clip-path="url(#p080f374c2c)" d="M 372.417577 184.869375 
L 374.399098 184.869375 
L 374.399098 181.250938 
L 372.417577 181.250938 
z
" style="fill:#4c72b0;fill-opacity:0.5;stroke:#4c72b0;stroke-linejoin:miter;"/>
   </g>
   <g id="patch_163">
    <path clip-path="url(#p080f374c2c)" d="M 374.399108 184.869375 
L 376.38063 184.869375 
L 376.38063 181.63548 
L 374.399108 181.63548 
z
" style="fill:#4c72b0;fill-opacity:0.5;stroke:#4c72b0;stroke-linejoin:miter;"/>
   </g>
   <g id="patch_164">
    <path clip-path="url(#p080f374c2c)" d="M 376.38063 184.869375 
L 378.362172 184.869375 
L 378.362172 181.45657 
L 376.38063 181.45657 
z
" style="fill:#4c72b0;fill-opacity:0.5;stroke:#4c72b0;stroke-linejoin:miter;"/>
   </g>
   <g id="patch_165">
    <path clip-path="url(#p080f374c2c)" d="M 378.362177 184.869375 
L 380.343699 184.869375 
L 380.343699 182.233657 
L 378.362177 182.233657 
z
" style="fill:#4c72b0;fill-opacity:0.5;stroke:#4c72b0;stroke-linejoin:miter;"/>
   </g>
   <g id="patch_166">
    <path clip-path="url(#p080f374c2c)" d="M 380.343704 184.869375 
L 382.325246 184.869375 
L 382.325246 182.39389 
L 380.343704 182.39389 
z
" style="fill:#4c72b0;fill-opacity:0.5;stroke:#4c72b0;stroke-linejoin:miter;"/>
   </g>
   <g id="patch_167">
    <path clip-path="url(#p080f374c2c)" d="M 382.325246 184.869375 
L 384.306768 184.869375 
L 384.306768 182.156215 
L 382.325246 182.156215 
z
" style="fill:#4c72b0;fill-opacity:0.5;stroke:#4c72b0;stroke-linejoin:miter;"/>
   </g>
   <g id="patch_168">
    <path clip-path="url(#p080f374c2c)" d="M 384.306768 184.869375 
L 386.288309 184.869375 
L 386.288309 182.741045 
L 384.306768 182.741045 
z
" style="fill:#4c72b0;fill-opacity:0.5;stroke:#4c72b0;stroke-linejoin:miter;"/>
   </g>
   <g id="patch_169">
    <path clip-path="url(#p080f374c2c)" d="M 386.288314 184.869375 
L 388.269836 184.869375 
L 388.269836 182.652915 
L 386.288314 182.652915 
z
" style="fill:#4c72b0;fill-opacity:0.5;stroke:#4c72b0;stroke-linejoin:miter;"/>
   </g>
   <g id="patch_170">
    <path clip-path="url(#p080f374c2c)" d="M 388.269841 184.869375 
L 390.251383 184.869375 
L 390.251383 182.666273 
L 388.269841 182.666273 
z
" style="fill:#4c72b0;fill-opacity:0.5;stroke:#4c72b0;stroke-linejoin:miter;"/>
   </g>
   <g id="patch_171">
    <path clip-path="url(#p080f374c2c)" d="M 390.251383 184.869375 
L 392.232905 184.869375 
L 392.232905 183.152286 
L 390.251383 183.152286 
z
" style="fill:#4c72b0;fill-opacity:0.5;stroke:#4c72b0;stroke-linejoin:miter;"/>
   </g>
   <g id="patch_172">
    <path clip-path="url(#p080f374c2c)" d="M 392.232905 184.869375 
L 394.214447 184.869375 
L 394.214447 183.061496 
L 392.232905 183.061496 
z
" style="fill:#4c72b0;fill-opacity:0.5;stroke:#4c72b0;stroke-linejoin:miter;"/>
   </g>
   <g id="patch_173">
    <path clip-path="url(#p080f374c2c)" d="M 394.214452 184.869375 
L 396.195968 184.869375 
L 396.195968 181.042644 
L 394.214452 181.042644 
z
" style="fill:#4c72b0;fill-opacity:0.5;stroke:#4c72b0;stroke-linejoin:miter;"/>
   </g>
   <g id="patch_174">
    <path clip-path="url(#p080f374c2c)" d="M 396.195988 184.869375 
L 398.17751 184.869375 
L 398.17751 180.083959 
L 396.195988 180.083959 
z
" style="fill:#4c72b0;fill-opacity:0.5;stroke:#4c72b0;stroke-linejoin:miter;"/>
   </g>
   <g id="patch_175">
    <path clip-path="url(#p080f374c2c)" d="M 398.17751 184.869375 
L 400.159052 184.869375 
L 400.159052 173.111517 
L 398.17751 173.111517 
z
" style="fill:#4c72b0;fill-opacity:0.5;stroke:#4c72b0;stroke-linejoin:miter;"/>
   </g>
   <g id="patch_176">
    <path clip-path="url(#p080f374c2c)" d="M 400.159052 184.869375 
L 402.140574 184.869375 
L 402.140574 157.609593 
L 400.159052 157.609593 
z
" style="fill:#4c72b0;fill-opacity:0.5;stroke:#4c72b0;stroke-linejoin:miter;"/>
   </g>
   <g id="patch_177">
    <path clip-path="url(#p080f374c2c)" d="M 402.140594 184.869375 
L 404.122116 184.869375 
L 404.122116 159.919517 
L 402.140594 159.919517 
z
" style="fill:#4c72b0;fill-opacity:0.5;stroke:#4c72b0;stroke-linejoin:miter;"/>
   </g>
   <g id="patch_178">
    <path clip-path="url(#p080f374c2c)" d="M 404.122116 184.869375 
L 406.103638 184.869375 
L 406.103638 167.824 
L 404.122116 167.824 
z
" style="fill:#4c72b0;fill-opacity:0.5;stroke:#4c72b0;stroke-linejoin:miter;"/>
   </g>
   <g id="patch_179">
    <path clip-path="url(#p080f374c2c)" d="M 406.103658 184.869375 
L 408.085179 184.869375 
L 408.085179 154.1407 
L 406.103658 154.1407 
z
" style="fill:#4c72b0;fill-opacity:0.5;stroke:#4c72b0;stroke-linejoin:miter;"/>
   </g>
   <g id="patch_180">
    <path clip-path="url(#p080f374c2c)" d="M 408.085179 184.869375 
L 410.066721 184.869375 
L 410.066721 150.495731 
L 408.085179 150.495731 
z
" style="fill:#4c72b0;fill-opacity:0.5;stroke:#4c72b0;stroke-linejoin:miter;"/>
   </g>
   <g id="patch_181">
    <path clip-path="url(#p080f374c2c)" d="M 410.066721 184.869375 
L 412.048243 184.869375 
L 412.048243 157.219709 
L 410.066721 157.219709 
z
" style="fill:#4c72b0;fill-opacity:0.5;stroke:#4c72b0;stroke-linejoin:miter;"/>
   </g>
   <g id="patch_182">
    <path clip-path="url(#p080f374c2c)" d="M 412.048263 184.869375 
L 414.029785 184.869375 
L 414.029785 171.594651 
L 412.048263 171.594651 
z
" style="fill:#4c72b0;fill-opacity:0.5;stroke:#4c72b0;stroke-linejoin:miter;"/>
   </g>
   <g id="patch_183">
    <path clip-path="url(#p080f374c2c)" d="M 414.029785 184.869375 
L 416.011307 184.869375 
L 416.011307 173.111458 
L 414.029785 173.111458 
z
" style="fill:#4c72b0;fill-opacity:0.5;stroke:#4c72b0;stroke-linejoin:miter;"/>
   </g>
   <g id="patch_184">
    <path clip-path="url(#p080f374c2c)" d="M 416.011317 184.869375 
L 417.992859 184.869375 
L 417.992859 169.725424 
L 416.011317 169.725424 
z
" style="fill:#4c72b0;fill-opacity:0.5;stroke:#4c72b0;stroke-linejoin:miter;"/>
   </g>
   <g id="patch_185">
    <path clip-path="url(#p080f374c2c)" d="M 417.992868 184.869375 
L 419.97439 184.869375 
L 419.97439 169.052399 
L 417.992868 169.052399 
z
" style="fill:#4c72b0;fill-opacity:0.5;stroke:#4c72b0;stroke-linejoin:miter;"/>
   </g>
   <g id="patch_186">
    <path clip-path="url(#p080f374c2c)" d="M 419.97439 184.869375 
L 421.955912 184.869375 
L 421.955912 170.633295 
L 419.97439 170.633295 
z
" style="fill:#4c72b0;fill-opacity:0.5;stroke:#4c72b0;stroke-linejoin:miter;"/>
   </g>
   <g id="patch_187">
    <path clip-path="url(#p080f374c2c)" d="M 421.955932 184.869375 
L 423.937454 184.869375 
L 423.937454 173.234297 
L 421.955932 173.234297 
z
" style="fill:#4c72b0;fill-opacity:0.5;stroke:#4c72b0;stroke-linejoin:miter;"/>
   </g>
   <g id="patch_188">
    <path clip-path="url(#p080f374c2c)" d="M 423.937454 184.869375 
L 425.918996 184.869375 
L 425.918996 176.369429 
L 423.937454 176.369429 
z
" style="fill:#4c72b0;fill-opacity:0.5;stroke:#4c72b0;stroke-linejoin:miter;"/>
   </g>
   <g id="patch_189">
    <path clip-path="url(#p080f374c2c)" d="M 425.918996 184.869375 
L 427.900518 184.869375 
L 427.900518 179.670042 
L 425.918996 179.670042 
z
" style="fill:#4c72b0;fill-opacity:0.5;stroke:#4c72b0;stroke-linejoin:miter;"/>
   </g>
   <g id="patch_190">
    <path clip-path="url(#p080f374c2c)" d="M 427.900538 184.869375 
L 429.882059 184.869375 
L 429.882059 183.446034 
L 427.900538 183.446034 
z
" style="fill:#4c72b0;fill-opacity:0.5;stroke:#4c72b0;stroke-linejoin:miter;"/>
   </g>
   <g id="patch_191">
    <path clip-path="url(#p080f374c2c)" d="M 429.882059 184.869375 
L 431.863581 184.869375 
L 431.863581 183.208366 
L 429.882059 183.208366 
z
" style="fill:#4c72b0;fill-opacity:0.5;stroke:#4c72b0;stroke-linejoin:miter;"/>
   </g>
   <g id="patch_192">
    <path clip-path="url(#p080f374c2c)" d="M 431.863591 184.869375 
L 433.845133 184.869375 
L 433.845133 182.99207 
L 431.863591 182.99207 
z
" style="fill:#4c72b0;fill-opacity:0.5;stroke:#4c72b0;stroke-linejoin:miter;"/>
   </g>
   <g id="patch_193">
    <path clip-path="url(#p080f374c2c)" d="M 433.845143 184.869375 
L 435.826665 184.869375 
L 435.826665 182.663597 
L 433.845143 182.663597 
z
" style="fill:#4c72b0;fill-opacity:0.5;stroke:#4c72b0;stroke-linejoin:miter;"/>
   </g>
   <g id="patch_194">
    <path clip-path="url(#p080f374c2c)" d="M 435.826665 184.869375 
L 437.808187 184.869375 
L 437.808187 182.98672 
L 435.826665 182.98672 
z
" style="fill:#4c72b0;fill-opacity:0.5;stroke:#4c72b0;stroke-linejoin:miter;"/>
   </g>
   <g id="patch_195">
    <path clip-path="url(#p080f374c2c)" d="M 437.808207 184.869375 
L 439.789729 184.869375 
L 439.789729 182.890584 
L 437.808207 182.890584 
z
" style="fill:#4c72b0;fill-opacity:0.5;stroke:#4c72b0;stroke-linejoin:miter;"/>
   </g>
   <g id="patch_196">
    <path clip-path="url(#p080f374c2c)" d="M 439.789729 184.869375 
L 441.77125 184.869375 
L 441.77125 182.810471 
L 439.789729 182.810471 
z
" style="fill:#4c72b0;fill-opacity:0.5;stroke:#4c72b0;stroke-linejoin:miter;"/>
   </g>
   <g id="patch_197">
    <path clip-path="url(#p080f374c2c)" d="M 441.77126 184.869375 
L 443.752802 184.869375 
L 443.752802 182.976047 
L 441.77126 182.976047 
z
" style="fill:#4c72b0;fill-opacity:0.5;stroke:#4c72b0;stroke-linejoin:miter;"/>
   </g>
   <g id="patch_198">
    <path clip-path="url(#p080f374c2c)" d="M 443.752812 184.869375 
L 445.734334 184.869375 
L 445.734334 183.088196 
L 443.752812 183.088196 
z
" style="fill:#4c72b0;fill-opacity:0.5;stroke:#4c72b0;stroke-linejoin:miter;"/>
   </g>
   <g id="patch_199">
    <path clip-path="url(#p080f374c2c)" d="M 445.734334 184.869375 
L 447.715856 184.869375 
L 447.715856 183.349898 
L 445.734334 183.349898 
z
" style="fill:#4c72b0;fill-opacity:0.5;stroke:#4c72b0;stroke-linejoin:miter;"/>
   </g>
   <g id="patch_200">
    <path clip-path="url(#p080f374c2c)" d="M 447.715876 184.869375 
L 449.697398 184.869375 
L 449.697398 183.448705 
L 447.715876 183.448705 
z
" style="fill:#4c72b0;fill-opacity:0.5;stroke:#4c72b0;stroke-linejoin:miter;"/>
   </g>
   <g id="patch_201">
    <path clip-path="url(#p080f374c2c)" d="M 449.697398 184.869375 
L 451.67894 184.869375 
L 451.67894 183.632971 
L 449.697398 183.632971 
z
" style="fill:#4c72b0;fill-opacity:0.5;stroke:#4c72b0;stroke-linejoin:miter;"/>
   </g>
   <g id="patch_202">
    <path clip-path="url(#p080f374c2c)" d="M 451.67894 184.869375 
L 453.660461 184.869375 
L 453.660461 183.777168 
L 451.67894 183.777168 
z
" style="fill:#4c72b0;fill-opacity:0.5;stroke:#4c72b0;stroke-linejoin:miter;"/>
   </g>
   <g id="patch_203">
    <path clip-path="url(#p080f374c2c)" d="M 453.660481 184.869375 
L 455.642003 184.869375 
L 455.642003 183.875974 
L 453.660481 183.875974 
z
" style="fill:#4c72b0;fill-opacity:0.5;stroke:#4c72b0;stroke-linejoin:miter;"/>
   </g>
   <g id="patch_204">
    <path clip-path="url(#p080f374c2c)" d="M 455.642003 184.869375 
L 457.623525 184.869375 
L 457.623525 184.028189 
L 455.642003 184.028189 
z
" style="fill:#4c72b0;fill-opacity:0.5;stroke:#4c72b0;stroke-linejoin:miter;"/>
   </g>
   <g id="patch_205">
    <path clip-path="url(#p080f374c2c)" d="M 457.623535 184.869375 
L 459.605077 184.869375 
L 459.605077 184.121657 
L 457.623535 184.121657 
z
" style="fill:#4c72b0;fill-opacity:0.5;stroke:#4c72b0;stroke-linejoin:miter;"/>
   </g>
   <g id="patch_206">
    <path clip-path="url(#p080f374c2c)" d="M 459.605087 184.869375 
L 461.586609 184.869375 
L 461.586609 184.188415 
L 459.605087 184.188415 
z
" style="fill:#4c72b0;fill-opacity:0.5;stroke:#4c72b0;stroke-linejoin:miter;"/>
   </g>
   <g id="patch_207">
    <path clip-path="url(#p080f374c2c)" d="M 461.586609 184.869375 
L 463.568131 184.869375 
L 463.568131 184.225801 
L 461.586609 184.225801 
z
" style="fill:#4c72b0;fill-opacity:0.5;stroke:#4c72b0;stroke-linejoin:miter;"/>
   </g>
   <g id="patch_208">
    <path clip-path="url(#p080f374c2c)" d="M 463.56815 184.869375 
L 465.549672 184.869375 
L 465.549672 184.356652 
L 463.56815 184.356652 
z
" style="fill:#4c72b0;fill-opacity:0.5;stroke:#4c72b0;stroke-linejoin:miter;"/>
   </g>
   <g id="patch_209">
    <path clip-path="url(#p080f374c2c)" d="M 465.549672 184.869375 
L 467.531214 184.869375 
L 467.531214 184.463471 
L 465.549672 184.463471 
z
" style="fill:#4c72b0;fill-opacity:0.5;stroke:#4c72b0;stroke-linejoin:miter;"/>
   </g>
   <g id="patch_210">
    <path clip-path="url(#p080f374c2c)" d="M 467.531214 184.869375 
L 469.512736 184.869375 
L 469.512736 184.46881 
L 467.531214 184.46881 
z
" style="fill:#4c72b0;fill-opacity:0.5;stroke:#4c72b0;stroke-linejoin:miter;"/>
   </g>
   <g id="patch_211">
    <path clip-path="url(#p080f374c2c)" d="M 469.512756 184.869375 
L 471.494278 184.869375 
L 471.494278 184.548923 
L 469.512756 184.548923 
z
" style="fill:#4c72b0;fill-opacity:0.5;stroke:#4c72b0;stroke-linejoin:miter;"/>
   </g>
   <g id="patch_212">
    <path clip-path="url(#p080f374c2c)" d="M 471.494278 184.869375 
L 473.4758 184.869375 
L 473.4758 184.564946 
L 471.494278 184.564946 
z
" style="fill:#4c72b0;fill-opacity:0.5;stroke:#4c72b0;stroke-linejoin:miter;"/>
   </g>
   <g id="patch_213">
    <path clip-path="url(#p080f374c2c)" d="M 473.47582 184.869375 
L 475.457341 184.869375 
L 475.457341 184.610343 
L 473.47582 184.610343 
z
" style="fill:#4c72b0;fill-opacity:0.5;stroke:#4c72b0;stroke-linejoin:miter;"/>
   </g>
   <g id="patch_214">
    <path clip-path="url(#p080f374c2c)" d="M 475.457341 184.869375 
L 477.438883 184.869375 
L 477.438883 184.591651 
L 475.457341 184.591651 
z
" style="fill:#4c72b0;fill-opacity:0.5;stroke:#4c72b0;stroke-linejoin:miter;"/>
   </g>
   <g id="patch_215">
    <path clip-path="url(#p080f374c2c)" d="M 477.438883 184.869375 
L 479.420405 184.869375 
L 479.420405 184.629036 
L 477.438883 184.629036 
z
" style="fill:#4c72b0;fill-opacity:0.5;stroke:#4c72b0;stroke-linejoin:miter;"/>
   </g>
   <g id="patch_216">
    <path clip-path="url(#p080f374c2c)" d="M 479.420425 184.869375 
L 481.401947 184.869375 
L 481.401947 184.71716 
L 479.420425 184.71716 
z
" style="fill:#4c72b0;fill-opacity:0.5;stroke:#4c72b0;stroke-linejoin:miter;"/>
   </g>
   <g id="patch_217">
    <path clip-path="url(#p080f374c2c)" d="M 481.401947 184.869375 
L 483.383489 184.869375 
L 483.383489 184.733184 
L 481.401947 184.733184 
z
" style="fill:#4c72b0;fill-opacity:0.5;stroke:#4c72b0;stroke-linejoin:miter;"/>
   </g>
   <g id="patch_218">
    <path clip-path="url(#p080f374c2c)" d="M 483.383489 184.869375 
L 485.365011 184.869375 
L 485.365011 184.738523 
L 483.383489 184.738523 
z
" style="fill:#4c72b0;fill-opacity:0.5;stroke:#4c72b0;stroke-linejoin:miter;"/>
   </g>
   <g id="patch_219">
    <path clip-path="url(#p080f374c2c)" d="M 485.364991 184.869375 
L 487.346532 184.869375 
L 487.346532 184.762558 
L 485.364991 184.762558 
z
" style="fill:#4c72b0;fill-opacity:0.5;stroke:#4c72b0;stroke-linejoin:miter;"/>
   </g>
   <g id="patch_220">
    <path clip-path="url(#p080f374c2c)" d="M 487.346552 184.869375 
L 489.328094 184.869375 
L 489.328094 184.751877 
L 487.346552 184.751877 
z
" style="fill:#4c72b0;fill-opacity:0.5;stroke:#4c72b0;stroke-linejoin:miter;"/>
   </g>
   <g id="patch_221">
    <path clip-path="url(#p080f374c2c)" d="M 489.328094 184.869375 
L 491.309616 184.869375 
L 491.309616 184.738523 
L 489.328094 184.738523 
z
" style="fill:#4c72b0;fill-opacity:0.5;stroke:#4c72b0;stroke-linejoin:miter;"/>
   </g>
   <g id="patch_222">
    <path clip-path="url(#p080f374c2c)" d="M 491.309596 184.869375 
L 493.291138 184.869375 
L 493.291138 184.778581 
L 491.309596 184.778581 
z
" style="fill:#4c72b0;fill-opacity:0.5;stroke:#4c72b0;stroke-linejoin:miter;"/>
   </g>
   <g id="patch_223">
    <path clip-path="url(#p080f374c2c)" d="M 493.291158 184.869375 
L 495.27268 184.869375 
L 495.27268 184.759887 
L 493.291158 184.759887 
z
" style="fill:#4c72b0;fill-opacity:0.5;stroke:#4c72b0;stroke-linejoin:miter;"/>
   </g>
   <g id="patch_224">
    <path clip-path="url(#p080f374c2c)" d="M 495.27268 184.869375 
L 497.254222 184.869375 
L 497.254222 184.799944 
L 495.27268 184.799944 
z
" style="fill:#4c72b0;fill-opacity:0.5;stroke:#4c72b0;stroke-linejoin:miter;"/>
   </g>
   <g id="patch_225">
    <path clip-path="url(#p080f374c2c)" d="M 497.254202 184.869375 
L 499.235743 184.869375 
L 499.235743 184.810626 
L 497.254202 184.810626 
z
" style="fill:#4c72b0;fill-opacity:0.5;stroke:#4c72b0;stroke-linejoin:miter;"/>
   </g>
   <g id="patch_226">
    <path clip-path="url(#p080f374c2c)" d="M 499.235763 184.869375 
L 501.217285 184.869375 
L 501.217285 184.797273 
L 499.235763 184.797273 
z
" style="fill:#4c72b0;fill-opacity:0.5;stroke:#4c72b0;stroke-linejoin:miter;"/>
   </g>
   <g id="patch_227">
    <path clip-path="url(#p080f374c2c)" d="M 501.217285 184.869375 
L 503.198827 184.869375 
L 503.198827 184.826648 
L 501.217285 184.826648 
z
" style="fill:#4c72b0;fill-opacity:0.5;stroke:#4c72b0;stroke-linejoin:miter;"/>
   </g>
   <g id="patch_228">
    <path clip-path="url(#p080f374c2c)" d="M 503.198827 184.869375 
L 505.180349 184.869375 
L 505.180349 184.826648 
L 503.198827 184.826648 
z
" style="fill:#4c72b0;fill-opacity:0.5;stroke:#4c72b0;stroke-linejoin:miter;"/>
   </g>
   <g id="patch_229">
    <path clip-path="url(#p080f374c2c)" d="M 505.180329 184.869375 
L 507.161871 184.869375 
L 507.161871 184.815967 
L 505.180329 184.815967 
z
" style="fill:#4c72b0;fill-opacity:0.5;stroke:#4c72b0;stroke-linejoin:miter;"/>
   </g>
   <g id="patch_230">
    <path clip-path="url(#p080f374c2c)" d="M 507.161891 184.869375 
L 509.143432 184.869375 
L 509.143432 184.829319 
L 507.161891 184.829319 
z
" style="fill:#4c72b0;fill-opacity:0.5;stroke:#4c72b0;stroke-linejoin:miter;"/>
   </g>
   <g id="patch_231">
    <path clip-path="url(#p080f374c2c)" d="M 509.143432 184.869375 
L 511.124954 184.869375 
L 511.124954 184.826648 
L 509.143432 184.826648 
z
" style="fill:#4c72b0;fill-opacity:0.5;stroke:#4c72b0;stroke-linejoin:miter;"/>
   </g>
   <g id="patch_232">
    <path clip-path="url(#p080f374c2c)" d="M 511.124934 184.869375 
L 513.106476 184.869375 
L 513.106476 184.829319 
L 511.124934 184.829319 
z
" style="fill:#4c72b0;fill-opacity:0.5;stroke:#4c72b0;stroke-linejoin:miter;"/>
   </g>
   <g id="patch_233">
    <path clip-path="url(#p080f374c2c)" d="M 513.106496 184.869375 
L 515.088038 184.869375 
L 515.088038 184.842671 
L 513.106496 184.842671 
z
" style="fill:#4c72b0;fill-opacity:0.5;stroke:#4c72b0;stroke-linejoin:miter;"/>
   </g>
   <g id="patch_234">
    <path clip-path="url(#p080f374c2c)" d="M 515.088038 184.869375 
L 517.06956 184.869375 
L 517.06956 184.858693 
L 515.088038 184.858693 
z
" style="fill:#4c72b0;fill-opacity:0.5;stroke:#4c72b0;stroke-linejoin:miter;"/>
   </g>
   <g id="patch_235">
    <path clip-path="url(#p080f374c2c)" d="M 517.06954 184.869375 
L 519.051082 184.869375 
L 519.051082 184.83466 
L 517.06954 184.83466 
z
" style="fill:#4c72b0;fill-opacity:0.5;stroke:#4c72b0;stroke-linejoin:miter;"/>
   </g>
   <g id="patch_236">
    <path clip-path="url(#p080f374c2c)" d="M 519.051102 184.869375 
L 521.032623 184.869375 
L 521.032623 184.853352 
L 519.051102 184.853352 
z
" style="fill:#4c72b0;fill-opacity:0.5;stroke:#4c72b0;stroke-linejoin:miter;"/>
   </g>
   <g id="patch_237">
    <path clip-path="url(#p080f374c2c)" d="M 521.032623 184.869375 
L 523.014165 184.869375 
L 523.014165 184.850682 
L 521.032623 184.850682 
z
" style="fill:#4c72b0;fill-opacity:0.5;stroke:#4c72b0;stroke-linejoin:miter;"/>
   </g>
   <g id="patch_238">
    <path clip-path="url(#p080f374c2c)" d="M 523.014145 184.869375 
L 524.995687 184.869375 
L 524.995687 184.845341 
L 523.014145 184.845341 
z
" style="fill:#4c72b0;fill-opacity:0.5;stroke:#4c72b0;stroke-linejoin:miter;"/>
   </g>
   <g id="patch_239">
    <path clip-path="url(#p080f374c2c)" d="M 524.995707 184.869375 
L 526.977229 184.869375 
L 526.977229 184.858693 
L 524.995707 184.858693 
z
" style="fill:#4c72b0;fill-opacity:0.5;stroke:#4c72b0;stroke-linejoin:miter;"/>
   </g>
   <g id="patch_240">
    <path clip-path="url(#p080f374c2c)" d="M 526.977229 184.869375 
L 528.958771 184.869375 
L 528.958771 184.856023 
L 526.977229 184.856023 
z
" style="fill:#4c72b0;fill-opacity:0.5;stroke:#4c72b0;stroke-linejoin:miter;"/>
   </g>
   <g id="patch_241">
    <path clip-path="url(#p080f374c2c)" d="M 528.958751 184.869375 
L 530.940293 184.869375 
L 530.940293 184.850682 
L 528.958751 184.850682 
z
" style="fill:#4c72b0;fill-opacity:0.5;stroke:#4c72b0;stroke-linejoin:miter;"/>
   </g>
   <g id="patch_242">
    <path clip-path="url(#p080f374c2c)" d="M 530.940313 184.869375 
L 532.921834 184.869375 
L 532.921834 184.864034 
L 530.940313 184.864034 
z
" style="fill:#4c72b0;fill-opacity:0.5;stroke:#4c72b0;stroke-linejoin:miter;"/>
   </g>
   <g id="patch_243">
    <path clip-path="url(#p080f374c2c)" d="M 532.921834 184.869375 
L 534.903376 184.869375 
L 534.903376 184.861364 
L 532.921834 184.861364 
z
" style="fill:#4c72b0;fill-opacity:0.5;stroke:#4c72b0;stroke-linejoin:miter;"/>
   </g>
   <g id="patch_244">
    <path clip-path="url(#p080f374c2c)" d="M 534.903376 184.869375 
L 536.884898 184.869375 
L 536.884898 184.861364 
L 534.903376 184.861364 
z
" style="fill:#4c72b0;fill-opacity:0.5;stroke:#4c72b0;stroke-linejoin:miter;"/>
   </g>
   <g id="patch_245">
    <path clip-path="url(#p080f374c2c)" d="M 536.884878 184.869375 
L 538.86642 184.869375 
L 538.86642 184.858693 
L 536.884878 184.858693 
z
" style="fill:#4c72b0;fill-opacity:0.5;stroke:#4c72b0;stroke-linejoin:miter;"/>
   </g>
   <g id="patch_246">
    <path clip-path="url(#p080f374c2c)" d="M 538.86644 184.869375 
L 540.847982 184.869375 
L 540.847982 184.864034 
L 538.86644 184.864034 
z
" style="fill:#4c72b0;fill-opacity:0.5;stroke:#4c72b0;stroke-linejoin:miter;"/>
   </g>
   <g id="patch_247">
    <path clip-path="url(#p080f374c2c)" d="M 540.847982 184.869375 
L 542.829504 184.869375 
L 542.829504 184.866705 
L 540.847982 184.866705 
z
" style="fill:#4c72b0;fill-opacity:0.5;stroke:#4c72b0;stroke-linejoin:miter;"/>
   </g>
   <g id="patch_248">
    <path clip-path="url(#p080f374c2c)" d="M 542.829484 184.869375 
L 544.811025 184.869375 
L 544.811025 184.869375 
L 542.829484 184.869375 
z
" style="fill:#4c72b0;fill-opacity:0.5;stroke:#4c72b0;stroke-linejoin:miter;"/>
   </g>
   <g id="patch_249">
    <path clip-path="url(#p080f374c2c)" d="M 544.811045 184.869375 
L 546.792567 184.869375 
L 546.792567 184.866705 
L 544.811045 184.866705 
z
" style="fill:#4c72b0;fill-opacity:0.5;stroke:#4c72b0;stroke-linejoin:miter;"/>
   </g>
   <g id="patch_250">
    <path clip-path="url(#p080f374c2c)" d="M 546.792567 184.869375 
L 548.774109 184.869375 
L 548.774109 184.864034 
L 546.792567 184.864034 
z
" style="fill:#4c72b0;fill-opacity:0.5;stroke:#4c72b0;stroke-linejoin:miter;"/>
   </g>
   <g id="patch_251">
    <path clip-path="url(#p080f374c2c)" d="M 548.774089 184.869375 
L 550.755631 184.869375 
L 550.755631 184.861364 
L 548.774089 184.861364 
z
" style="fill:#4c72b0;fill-opacity:0.5;stroke:#4c72b0;stroke-linejoin:miter;"/>
   </g>
   <g id="patch_252">
    <path clip-path="url(#p080f374c2c)" d="M 550.755651 184.869375 
L 552.737173 184.869375 
L 552.737173 184.866705 
L 550.755651 184.866705 
z
" style="fill:#4c72b0;fill-opacity:0.5;stroke:#4c72b0;stroke-linejoin:miter;"/>
   </g>
   <g id="patch_253">
    <path clip-path="url(#p080f374c2c)" d="M 552.737173 184.869375 
L 554.718714 184.869375 
L 554.718714 184.869375 
L 552.737173 184.869375 
z
" style="fill:#4c72b0;fill-opacity:0.5;stroke:#4c72b0;stroke-linejoin:miter;"/>
   </g>
   <g id="patch_254">
    <path clip-path="url(#p080f374c2c)" d="M 554.718695 184.869375 
L 556.700236 184.869375 
L 556.700236 184.861364 
L 554.718695 184.861364 
z
" style="fill:#4c72b0;fill-opacity:0.5;stroke:#4c72b0;stroke-linejoin:miter;"/>
   </g>
   <g id="patch_255">
    <path clip-path="url(#p080f374c2c)" d="M 556.700256 184.869375 
L 558.681778 184.869375 
L 558.681778 184.866705 
L 556.700256 184.866705 
z
" style="fill:#4c72b0;fill-opacity:0.5;stroke:#4c72b0;stroke-linejoin:miter;"/>
   </g>
   <g id="patch_256">
    <path clip-path="url(#p080f374c2c)" d="M 558.681778 184.869375 
L 560.66332 184.869375 
L 560.66332 184.869375 
L 558.681778 184.869375 
z
" style="fill:#4c72b0;fill-opacity:0.5;stroke:#4c72b0;stroke-linejoin:miter;"/>
   </g>
   <g id="patch_257">
    <path clip-path="url(#p080f374c2c)" d="M 560.66332 184.869375 
L 562.644842 184.869375 
L 562.644842 184.869375 
L 560.66332 184.869375 
z
" style="fill:#4c72b0;fill-opacity:0.5;stroke:#4c72b0;stroke-linejoin:miter;"/>
   </g>
   <g id="patch_258">
    <path clip-path="url(#p080f374c2c)" d="M 562.644822 184.869375 
L 564.626364 184.869375 
L 564.626364 184.861364 
L 562.644822 184.861364 
z
" style="fill:#4c72b0;fill-opacity:0.5;stroke:#4c72b0;stroke-linejoin:miter;"/>
   </g>
   <g id="patch_259">
    <path d="M 31.99 184.869375 
L 31.99 21.789375 
" style="fill:none;stroke:#ffffff;stroke-linecap:square;stroke-linejoin:miter;stroke-width:1.25;"/>
   </g>
   <g id="patch_260">
    <path d="M 589.99 184.869375 
L 589.99 21.789375 
" style="fill:none;stroke:#ffffff;stroke-linecap:square;stroke-linejoin:miter;stroke-width:1.25;"/>
   </g>
   <g id="patch_261">
    <path d="M 31.99 184.869375 
L 589.99 184.869375 
" style="fill:none;stroke:#ffffff;stroke-linecap:square;stroke-linejoin:miter;stroke-width:1.25;"/>
   </g>
   <g id="patch_262">
    <path d="M 31.99 21.789375 
L 589.99 21.789375 
" style="fill:none;stroke:#ffffff;stroke-linecap:square;stroke-linejoin:miter;stroke-width:1.25;"/>
   </g>
   <g id="text_11">
    <!-- Variational dequantization -->
    <g style="fill:#262626;" transform="translate(242.3875 15.789375)scale(0.12 -0.12)">
     <defs>
      <path d="M 28.171875 0 
L 0.4375 71.578125 
L 10.6875 71.578125 
L 29.296875 19.578125 
Q 31.546875 13.328125 33.0625 7.859375 
Q 34.71875 13.71875 36.921875 19.578125 
L 56.25 71.578125 
L 65.921875 71.578125 
L 37.890625 0 
z
" id="ArialMT-86"/>
      <path d="M 40.4375 6.390625 
Q 35.546875 2.25 31.03125 0.53125 
Q 26.515625 -1.171875 21.34375 -1.171875 
Q 12.796875 -1.171875 8.203125 3 
Q 3.609375 7.171875 3.609375 13.671875 
Q 3.609375 17.484375 5.34375 20.625 
Q 7.078125 23.78125 9.890625 25.6875 
Q 12.703125 27.59375 16.21875 28.5625 
Q 18.796875 29.25 24.03125 29.890625 
Q 34.671875 31.15625 39.703125 32.90625 
Q 39.75 34.71875 39.75 35.203125 
Q 39.75 40.578125 37.25 42.78125 
Q 33.890625 45.75 27.25 45.75 
Q 21.046875 45.75 18.09375 43.578125 
Q 15.140625 41.40625 13.71875 35.890625 
L 5.125 37.0625 
Q 6.296875 42.578125 8.984375 45.96875 
Q 11.671875 49.359375 16.75 51.1875 
Q 21.828125 53.03125 28.515625 53.03125 
Q 35.15625 53.03125 39.296875 51.46875 
Q 43.453125 49.90625 45.40625 47.53125 
Q 47.359375 45.171875 48.140625 41.546875 
Q 48.578125 39.3125 48.578125 33.453125 
L 48.578125 21.734375 
Q 48.578125 9.46875 49.140625 6.21875 
Q 49.703125 2.984375 51.375 0 
L 42.1875 0 
Q 40.828125 2.734375 40.4375 6.390625 
z
M 39.703125 26.03125 
Q 34.90625 24.078125 25.34375 22.703125 
Q 19.921875 21.921875 17.671875 20.9375 
Q 15.4375 19.96875 14.203125 18.09375 
Q 12.984375 16.21875 12.984375 13.921875 
Q 12.984375 10.40625 15.640625 8.0625 
Q 18.3125 5.71875 23.4375 5.71875 
Q 28.515625 5.71875 32.46875 7.9375 
Q 36.421875 10.15625 38.28125 14.015625 
Q 39.703125 17 39.703125 22.796875 
z
" id="ArialMT-97"/>
      <path d="M 6.5 0 
L 6.5 51.859375 
L 14.40625 51.859375 
L 14.40625 44 
Q 17.4375 49.515625 20 51.265625 
Q 22.5625 53.03125 25.640625 53.03125 
Q 30.078125 53.03125 34.671875 50.203125 
L 31.640625 42.046875 
Q 28.421875 43.953125 25.203125 43.953125 
Q 22.3125 43.953125 20.015625 42.21875 
Q 17.71875 40.484375 16.75 37.40625 
Q 15.28125 32.71875 15.28125 27.15625 
L 15.28125 0 
z
" id="ArialMT-114"/>
      <path d="M 6.640625 61.46875 
L 6.640625 71.578125 
L 15.4375 71.578125 
L 15.4375 61.46875 
z
M 6.640625 0 
L 6.640625 51.859375 
L 15.4375 51.859375 
L 15.4375 0 
z
" id="ArialMT-105"/>
      <path d="M 25.78125 7.859375 
L 27.046875 0.09375 
Q 23.34375 -0.6875 20.40625 -0.6875 
Q 15.625 -0.6875 12.984375 0.828125 
Q 10.359375 2.34375 9.28125 4.8125 
Q 8.203125 7.28125 8.203125 15.1875 
L 8.203125 45.015625 
L 1.765625 45.015625 
L 1.765625 51.859375 
L 8.203125 51.859375 
L 8.203125 64.703125 
L 16.9375 69.96875 
L 16.9375 51.859375 
L 25.78125 51.859375 
L 25.78125 45.015625 
L 16.9375 45.015625 
L 16.9375 14.703125 
Q 16.9375 10.9375 17.40625 9.859375 
Q 17.875 8.796875 18.921875 8.15625 
Q 19.96875 7.515625 21.921875 7.515625 
Q 23.390625 7.515625 25.78125 7.859375 
z
" id="ArialMT-116"/>
      <path d="M 3.328125 25.921875 
Q 3.328125 40.328125 11.328125 47.265625 
Q 18.015625 53.03125 27.640625 53.03125 
Q 38.328125 53.03125 45.109375 46.015625 
Q 51.90625 39.015625 51.90625 26.65625 
Q 51.90625 16.65625 48.90625 10.90625 
Q 45.90625 5.171875 40.15625 2 
Q 34.421875 -1.171875 27.640625 -1.171875 
Q 16.75 -1.171875 10.03125 5.8125 
Q 3.328125 12.796875 3.328125 25.921875 
z
M 12.359375 25.921875 
Q 12.359375 15.96875 16.703125 11.015625 
Q 21.046875 6.0625 27.640625 6.0625 
Q 34.1875 6.0625 38.53125 11.03125 
Q 42.875 16.015625 42.875 26.21875 
Q 42.875 35.84375 38.5 40.796875 
Q 34.125 45.75 27.640625 45.75 
Q 21.046875 45.75 16.703125 40.8125 
Q 12.359375 35.890625 12.359375 25.921875 
z
" id="ArialMT-111"/>
      <path d="M 6.59375 0 
L 6.59375 51.859375 
L 14.5 51.859375 
L 14.5 44.484375 
Q 20.21875 53.03125 31 53.03125 
Q 35.6875 53.03125 39.625 51.34375 
Q 43.5625 49.65625 45.515625 46.921875 
Q 47.46875 44.1875 48.25 40.4375 
Q 48.734375 37.984375 48.734375 31.890625 
L 48.734375 0 
L 39.9375 0 
L 39.9375 31.546875 
Q 39.9375 36.921875 38.90625 39.578125 
Q 37.890625 42.234375 35.28125 43.8125 
Q 32.671875 45.40625 29.15625 45.40625 
Q 23.53125 45.40625 19.453125 41.84375 
Q 15.375 38.28125 15.375 28.328125 
L 15.375 0 
z
" id="ArialMT-110"/>
      <path d="M 6.390625 0 
L 6.390625 71.578125 
L 15.1875 71.578125 
L 15.1875 0 
z
" id="ArialMT-108"/>
      <path id="ArialMT-32"/>
      <path d="M 40.234375 0 
L 40.234375 6.546875 
Q 35.296875 -1.171875 25.734375 -1.171875 
Q 19.53125 -1.171875 14.328125 2.25 
Q 9.125 5.671875 6.265625 11.796875 
Q 3.421875 17.921875 3.421875 25.875 
Q 3.421875 33.640625 6 39.96875 
Q 8.59375 46.296875 13.765625 49.65625 
Q 18.953125 53.03125 25.34375 53.03125 
Q 30.03125 53.03125 33.6875 51.046875 
Q 37.359375 49.078125 39.65625 45.90625 
L 39.65625 71.578125 
L 48.390625 71.578125 
L 48.390625 0 
z
M 12.453125 25.875 
Q 12.453125 15.921875 16.640625 10.984375 
Q 20.84375 6.0625 26.5625 6.0625 
Q 32.328125 6.0625 36.34375 10.765625 
Q 40.375 15.484375 40.375 25.140625 
Q 40.375 35.796875 36.265625 40.765625 
Q 32.171875 45.75 26.171875 45.75 
Q 20.3125 45.75 16.375 40.96875 
Q 12.453125 36.1875 12.453125 25.875 
z
" id="ArialMT-100"/>
      <path d="M 42.09375 16.703125 
L 51.171875 15.578125 
Q 49.03125 7.625 43.21875 3.21875 
Q 37.40625 -1.171875 28.375 -1.171875 
Q 17 -1.171875 10.328125 5.828125 
Q 3.65625 12.84375 3.65625 25.484375 
Q 3.65625 38.578125 10.390625 45.796875 
Q 17.140625 53.03125 27.875 53.03125 
Q 38.28125 53.03125 44.875 45.953125 
Q 51.46875 38.875 51.46875 26.03125 
Q 51.46875 25.25 51.421875 23.6875 
L 12.75 23.6875 
Q 13.234375 15.140625 17.578125 10.59375 
Q 21.921875 6.0625 28.421875 6.0625 
Q 33.25 6.0625 36.671875 8.59375 
Q 40.09375 11.140625 42.09375 16.703125 
z
M 13.234375 30.90625 
L 42.1875 30.90625 
Q 41.609375 37.453125 38.875 40.71875 
Q 34.671875 45.796875 27.984375 45.796875 
Q 21.921875 45.796875 17.796875 41.75 
Q 13.671875 37.703125 13.234375 30.90625 
z
" id="ArialMT-101"/>
      <path d="M 39.65625 -19.875 
L 39.65625 5.515625 
Q 37.59375 2.640625 33.90625 0.734375 
Q 30.21875 -1.171875 26.078125 -1.171875 
Q 16.84375 -1.171875 10.171875 6.203125 
Q 3.515625 13.578125 3.515625 26.421875 
Q 3.515625 34.234375 6.21875 40.421875 
Q 8.9375 46.625 14.078125 49.828125 
Q 19.234375 53.03125 25.390625 53.03125 
Q 35.015625 53.03125 40.53125 44.921875 
L 40.53125 51.859375 
L 48.4375 51.859375 
L 48.4375 -19.875 
z
M 12.546875 26.078125 
Q 12.546875 16.0625 16.75 11.0625 
Q 20.953125 6.0625 26.8125 6.0625 
Q 32.421875 6.0625 36.46875 10.8125 
Q 40.53125 15.578125 40.53125 25.296875 
Q 40.53125 35.640625 36.25 40.859375 
Q 31.984375 46.09375 26.21875 46.09375 
Q 20.515625 46.09375 16.53125 41.234375 
Q 12.546875 36.375 12.546875 26.078125 
z
" id="ArialMT-113"/>
      <path d="M 40.578125 0 
L 40.578125 7.625 
Q 34.515625 -1.171875 24.125 -1.171875 
Q 19.53125 -1.171875 15.546875 0.578125 
Q 11.578125 2.34375 9.640625 5 
Q 7.71875 7.671875 6.9375 11.53125 
Q 6.390625 14.109375 6.390625 19.734375 
L 6.390625 51.859375 
L 15.1875 51.859375 
L 15.1875 23.09375 
Q 15.1875 16.21875 15.71875 13.8125 
Q 16.546875 10.359375 19.234375 8.375 
Q 21.921875 6.390625 25.875 6.390625 
Q 29.828125 6.390625 33.296875 8.421875 
Q 36.765625 10.453125 38.203125 13.9375 
Q 39.65625 17.4375 39.65625 24.078125 
L 39.65625 51.859375 
L 48.4375 51.859375 
L 48.4375 0 
z
" id="ArialMT-117"/>
      <path d="M 1.953125 0 
L 1.953125 7.125 
L 34.96875 45.015625 
Q 29.34375 44.734375 25.046875 44.734375 
L 3.90625 44.734375 
L 3.90625 51.859375 
L 46.296875 51.859375 
L 46.296875 46.046875 
L 18.21875 13.140625 
L 12.796875 7.125 
Q 18.703125 7.5625 23.875 7.5625 
L 47.859375 7.5625 
L 47.859375 0 
z
" id="ArialMT-122"/>
     </defs>
     <use xlink:href="#ArialMT-86"/>
     <use x="59.324219" xlink:href="#ArialMT-97"/>
     <use x="114.939453" xlink:href="#ArialMT-114"/>
     <use x="148.240234" xlink:href="#ArialMT-105"/>
     <use x="170.457031" xlink:href="#ArialMT-97"/>
     <use x="226.072266" xlink:href="#ArialMT-116"/>
     <use x="253.855469" xlink:href="#ArialMT-105"/>
     <use x="276.072266" xlink:href="#ArialMT-111"/>
     <use x="331.6875" xlink:href="#ArialMT-110"/>
     <use x="387.302734" xlink:href="#ArialMT-97"/>
     <use x="442.917969" xlink:href="#ArialMT-108"/>
     <use x="465.134766" xlink:href="#ArialMT-32"/>
     <use x="492.917969" xlink:href="#ArialMT-100"/>
     <use x="548.533203" xlink:href="#ArialMT-101"/>
     <use x="604.148438" xlink:href="#ArialMT-113"/>
     <use x="659.763672" xlink:href="#ArialMT-117"/>
     <use x="715.378906" xlink:href="#ArialMT-97"/>
     <use x="770.994141" xlink:href="#ArialMT-110"/>
     <use x="826.609375" xlink:href="#ArialMT-116"/>
     <use x="854.392578" xlink:href="#ArialMT-105"/>
     <use x="876.609375" xlink:href="#ArialMT-122"/>
     <use x="926.609375" xlink:href="#ArialMT-97"/>
     <use x="982.224609" xlink:href="#ArialMT-116"/>
     <use x="1010.007812" xlink:href="#ArialMT-105"/>
     <use x="1032.224609" xlink:href="#ArialMT-111"/>
     <use x="1087.839844" xlink:href="#ArialMT-110"/>
    </g>
   </g>
  </g>
 </g>
 <defs>
  <clipPath id="p080f374c2c">
   <rect height="163.08" width="558" x="31.99" y="21.789375"/>
  </clipPath>
 </defs>
</svg>
