<?xml version="1.0" encoding="UTF-8" standalone="no"?>
<!-- Created with Inkscape (http://www.inkscape.org/) -->

<svg
   version="1.1"
   id="svg1"
   width="132.29601"
   height="18.511999"
   viewBox="0 0 132.29601 18.511999"
   xmlns="http://www.w3.org/2000/svg"
   xmlns:svg="http://www.w3.org/2000/svg">
  <defs
     id="defs1" />
  <g
     id="g1">
    <path
       id="path1"
       d="m 7.1366719,0.00135937 v -0.3046875 H 6.9608906 c -0.5976562,0 -0.7382812,-0.0703125 -0.84375,-0.3984375 l -2.15625,-6.23437497 c -0.046875,-0.1289063 -0.070312,-0.1992188 -0.2226562,-0.1992188 -0.1640625,0 -0.1875,0.058594 -0.2460938,0.1992188 l -2.0625,5.96484372 c -0.1757812,0.50390625 -0.57421872,0.65625 -1.11328122,0.66796875 v 0.3046875 L 1.3358906,-0.03379688 2.4843281,0.00135937 v -0.3046875 c -0.5039062,0 -0.75,-0.2578125 -0.75,-0.515625 0,-0.0234375 0.011719,-0.12890625 0.023437,-0.140625 L 2.2147969,-2.2720781 h 2.4609375 l 0.5273437,1.52343747 c 0.011719,0.046875 0.023437,0.10546875 0.023437,0.140625 0,0.3046875 -0.5507812,0.3046875 -0.8203125,0.3046875 v 0.3046875 c 0.351563,-0.03515625 1.054688,-0.03515625 1.429688,-0.03515625 z M 4.5585469,-2.5767656 H 2.3202656 l 1.1132813,-3.234375 z m 0,0"
       style="fill:#ff0000;fill-opacity:1;fill-rule:nonzero;stroke:none"
       aria-label="A"
       transform="matrix(1.3333333,0,0,1.3333333,13.836,4.756)" />
    <path
       id="path2"
       d="m 6.4800859,-1.8287578 c 0,-0.8671875 -0.8085937,-1.6054688 -1.921875,-1.7226563 0.9726563,-0.1992187 1.6523438,-0.8320312 1.6523438,-1.5703125 0,-0.8671875 -0.9140625,-1.6875 -2.203125,-1.6875 H 0.36289844 v 0.3164063 h 0.234375 c 0.76171876,0 0.78515626,0.1054687 0.78515626,0.46875 v 5.24999999 c 0,0.3515625 -0.023437,0.46875 -0.78515626,0.46875 h -0.234375 V -6.328125e-4 H 4.2652422 c 1.3242187,0 2.2148437,-0.8906249975 2.2148437,-1.8281249875 z M 5.2496172,-5.1217266 c 0,0.6328125 -0.4921875,1.4765625 -1.59375,1.4765625 H 2.2144609 v -2.4492187 c 0,-0.328125 0.011719,-0.3984375 0.4804688,-0.3984375 h 1.2421875 c 0.9609375,0 1.3125,0.84375 1.3125,1.3710937 z m 0.234375,3.2929688 c 0,0.703125 -0.515625,1.52343749 -1.5351563,1.52343749 H 2.6949297 c -0.46875,0 -0.4804688,-0.0703125 -0.4804688,-0.3984375 V -3.4225078 h 1.875 c 0.984375,0 1.3945313,0.9257812 1.3945313,1.59375 z m 0,0"
       style="fill:#0000ff;fill-opacity:1;fill-rule:nonzero;stroke:none"
       aria-label="B"
       transform="matrix(1.3333333,0,0,1.3333333,51.910667,4.536)" />
    <path
       id="path3"
       d="m 6.6220547,-2.3209453 c 0,-0.1054688 0,-0.1757813 -0.1289063,-0.1757813 -0.1054687,0 -0.1054687,0.070312 -0.1171875,0.1640625 -0.082031,1.42968754 -1.1484375,2.23828129 -2.2265625,2.23828129 -0.609375,0 -2.5664062,-0.33984375 -2.5664062,-3.30468749 0,-2.9765625 1.9453125,-3.3164063 2.5546875,-3.3164063 1.078125,0 1.96875,0.9023438 2.1679687,2.3671875 0.023437,0.1289063 0.023437,0.1640625 0.1640625,0.1640625 0.1523438,0 0.1523438,-0.035156 0.1523438,-0.234375 v -2.3671875 c 0,-0.1640625 0,-0.234375 -0.1054688,-0.234375 -0.035156,0 -0.082031,0 -0.1640625,0.1171875 l -0.4921875,0.7382813 c -0.375,-0.3632813 -0.8789062,-0.8554688 -1.8398437,-0.8554688 -1.8632813,0 -3.45703126,1.5820313 -3.45703126,3.609375 0,2.0625 1.60546876,3.63281254 3.45703126,3.63281254 1.6289062,0 2.6015625,-1.38281254 2.6015625,-2.54296874 z m 0,0"
       style="fill:#00ff00;fill-opacity:1;fill-rule:nonzero;stroke:none"
       aria-label="C"
       transform="matrix(1.3333333,0,0,1.3333333,89.612,4.536)" />
    <path
       id="path4"
       d="m 7.0426484,-3.3521953 c 0,-1.8867188 -1.3476562,-3.4570313 -3.046875,-3.4570313 H 0.35124219 v 0.3164063 h 0.234375 c 0.77343751,0 0.78515621,0.1054687 0.78515621,0.46875 v 5.24999999 c 0,0.3515625 -0.011719,0.46875 -0.78515621,0.46875 h -0.234375 V -6.328125e-4 H 3.9957734 c 1.6757813,0 3.046875,-1.4765624875 3.046875,-3.3515624875 z m -0.9960937,0 c 0,1.1132812 -0.1875,1.7109375 -0.5507813,2.1914062 -0.1992187,0.26953129 -0.7617187,0.85546879 -1.7695312,0.85546879 H 2.7184297 c -0.46875,0 -0.4921875,-0.0703125 -0.4921875,-0.3984375 V -6.0943828 c 0,-0.328125 0.023437,-0.3984375 0.4921875,-0.3984375 h 0.9960937 c 0.6210938,0 1.3007813,0.2109375 1.8164063,0.9257812 0.421875,0.5859375 0.515625,1.4414063 0.515625,2.2148438 z m 0,0"
       style="fill:#000000;fill-opacity:1;fill-rule:nonzero;stroke:none"
       aria-label="D"
       transform="matrix(1.3333333,0,0,1.3333333,127.12933,4.536)" />
  </g>
</svg>
