<?xml version="1.0" encoding="UTF-8" standalone="no"?>
<!-- Created with Inkscape (http://www.inkscape.org/) -->

<svg
   version="1.1"
   id="svg1"
   width="181.20799"
   height="38.966667"
   viewBox="0 0 181.20799 38.966667"
   xmlns="http://www.w3.org/2000/svg"
   xmlns:svg="http://www.w3.org/2000/svg">
  <defs
     id="defs1" />
  <g
     id="g1">
    <path
       id="path1"
       d="m 26.90953,8.7121 h -53.81906 c -4.6967,0 -8.50403,-3.80735 -8.50403,-8.50403 v -0.41614 c 0,-4.69668 3.80733,-8.50403 8.50403,-8.50403 h 53.81906 c 4.6967,0 8.50403,3.80735 8.50403,8.50403 v 0.41614 c 0,4.69668 -3.80733,8.50403 -8.50403,8.50403 z"
       style="fill:#ccffcc;fill-opacity:1;fill-rule:nonzero;stroke:#808080;stroke-width:1.19553;stroke-linecap:butt;stroke-linejoin:miter;stroke-miterlimit:10;stroke-dasharray:none;stroke-opacity:1"
       transform="matrix(1.3333333,0,0,-1.3333333,90.604,12.412)" />
    <path
       id="path2"
       d="m 5.1439063,-6.8079453 c 0,0 0,-0.1054688 -0.1289063,-0.1054688 -0.1523437,0 -1.1015625,0.09375 -1.265625,0.1054688 -0.082031,0.011719 -0.140625,0.070312 -0.140625,0.1992187 0,0.1171875 0.082031,0.1171875 0.234375,0.1171875 0.4804688,0 0.5039063,0.070312 0.5039063,0.1640625 l -0.035156,0.1992188 -0.5976562,2.3671875 c -0.1757813,-0.375 -0.46875,-0.6445313 -0.9140625,-0.6445313 -1.171875,0 -2.4023438,1.4648438 -2.4023438,2.9179688 0,0.93749999 0.55078125,1.59374999 1.3242188,1.59374999 0.1992187,0 0.703125,-0.03515625 1.3007812,-0.73828125 0.070312,0.41015625 0.421875,0.73828125 0.9023438,0.73828125 0.3515625,0 0.5742187,-0.22265625 0.7382812,-0.5390625 C 4.8275,-0.79622656 4.9564063,-1.4056016 4.9564063,-1.4290391 c 0,-0.09375 -0.082031,-0.09375 -0.1171875,-0.09375 -0.09375,0 -0.1054688,0.035156 -0.140625,0.1757813 -0.1640625,0.64453124 -0.3515625,1.24218749 -0.75,1.24218749 -0.2695313,0 -0.3046875,-0.2578125 -0.3046875,-0.45703125 0,-0.24609375 0.023437,-0.31640625 0.058594,-0.48046874 z m -2.0742188,5.625 c -0.046875,0.1757812 -0.046875,0.19921874 -0.1992187,0.36328124 -0.4453125,0.55078125 -0.84375,0.71484375 -1.125,0.71484375 -0.5039063,0 -0.6445313,-0.55078125 -0.6445313,-0.93749999 0,-0.5039063 0.328125,-1.7226563 0.5507813,-2.1796875 0.3046875,-0.5976563 0.7617187,-0.9609375 1.1601562,-0.9609375 0.6445313,0 0.7851563,0.8203125 0.7851563,0.8789062 0,0.058594 -0.023437,0.1171875 -0.035156,0.1640625 z m 3.4394531,0.35156249 C 7.0482031,-1.4056016 7.3411719,-1.6516953 7.6927344,-1.9563828 c 0,-0.011719 0.6210937,-0.5390625 0.984375,-0.9023438 0.9375,-0.9257812 1.1601562,-1.40625 1.1601562,-1.4414062 0,-0.1054688 -0.09375,-0.1054688 -0.1054687,-0.1054688 -0.070312,0 -0.1054688,0.023437 -0.1523438,0.1171875 -0.3046875,0.46875 -0.5039062,0.6328125 -0.75,0.6328125 -0.234375,0 -0.3515625,-0.1523437 -0.5039062,-0.3164062 -0.1875,-0.234375 -0.3632813,-0.4335938 -0.6914063,-0.4335938 -0.75,0 -1.2070312,0.9257813 -1.2070312,1.1367188 0,0.046875 0.035156,0.1171875 0.1171875,0.1171875 0.09375,0 0.1171875,-0.058594 0.140625,-0.1171875 0.1875,-0.4570313 0.7617187,-0.46875 0.84375,-0.46875 0.2109375,0 0.3984375,0.070312 0.6210937,0.1523437 0.3984375,0.1523438 0.515625,0.1523438 0.7734375,0.1523438 -0.3632812,0.421875 -1.1953125,1.1367187 -1.3828125,1.3007812 l -0.9023437,0.8320313 c -0.6796875,0.66796874 -1.0195313,1.24218749 -1.0195313,1.31249999 0,0.09375 0.09375,0.09375 0.1171875,0.09375 0.082031,0 0.09375,-0.01171875 0.1523438,-0.12890625 0.234375,-0.33984375 0.5273437,-0.609375 0.8554687,-0.609375 0.2226563,0 0.328125,0.0820313 0.5742188,0.375 0.1640625,0.2109375 0.3515625,0.36328125 0.6328125,0.36328125 0.984375,0 1.5703125,-1.26562499 1.5703125,-1.53515629 0,-0.046875 -0.046875,-0.09375 -0.1171875,-0.09375 -0.09375,0 -0.1171875,0.058594 -0.140625,0.1289063 -0.234375,0.64453124 -0.8671875,0.83203124 -1.1953125,0.83203124 -0.1992188,0 -0.3867188,-0.0585938 -0.5859375,-0.12890625 -0.3398438,-0.12890625 -0.4921875,-0.1640625 -0.703125,-0.1640625 -0.023437,0 -0.1757813,0 -0.2695313,0.0234375 z m 0,0"
       style="fill:#000000;fill-opacity:1;fill-rule:nonzero;stroke:none"
       aria-label="dz"
       transform="matrix(1.3333333,0,0,1.3333333,47.813333,17.018667)" />
    <path
       id="path3"
       d="M 2.0265547,1.7475078 V 1.4076641 H 1.2882734 V -4.8853047 H 2.0265547 V -5.2251484 H 0.94842969 v 6.9726562 z m 3.7441406,-3.0117187 h -0.234375 c -0.023437,0.1523437 -0.082031,0.56249996 -0.1757812,0.63281246 -0.058594,0.0351563 -0.5976563,0.0351563 -0.6914063,0.0351563 H 3.3800703 c 0.7382813,-0.64453116 0.984375,-0.84374996 1.3945313,-1.17187496 0.515625,-0.4101562 0.9960937,-0.84375 0.9960937,-1.5 0,-0.84375 -0.7382812,-1.359375 -1.6289062,-1.359375 -0.8671875,0 -1.453125,0.609375 -1.453125,1.2421874 0,0.3632813 0.3046875,0.3984375 0.375,0.3984375 0.1640625,0 0.375,-0.1171875 0.375,-0.375 0,-0.1289062 -0.058594,-0.3632812 -0.421875,-0.3632812 0.2226562,-0.5039062 0.6914062,-0.6562499 1.0195312,-0.6562499 0.703125,0 1.0664063,0.5507812 1.0664063,1.1132812 0,0.609375 -0.4335938,1.0898438 -0.65625,1.3359375 l -1.6875,1.66406246 c -0.070312,0.0585938 -0.070312,0.0703125 -0.070312,0.26953125 h 2.8828125 z m 1.7548828,-3.9609375 h -1.078125 v 0.3398437 H 7.1857344 V 1.4076641 H 6.4474531 v 0.3398437 h 1.078125 z m 0,0"
       style="fill:#000000;fill-opacity:1;fill-rule:nonzero;stroke:none"
       aria-label="[2]"
       transform="matrix(1.3333333,0,0,1.3333333,61.489333,12.197333)" />
    <path
       id="path4"
       d="m 6.8430078,-3.2571641 c 0.1523438,0 0.3398438,0 0.3398438,-0.1992187 0,-0.1992188 -0.1875,-0.1992188 -0.328125,-0.1992188 H 0.88988281 c -0.140625,0 -0.328125,0 -0.328125,0.1992188 0,0.1992187 0.1875,0.1992187 0.33984375,0.1992187 z m 0.011719,1.9335938 c 0.140625,0 0.328125,0 0.328125,-0.1992188 0,-0.1992187 -0.1875,-0.1992187 -0.3398438,-0.1992187 H 0.90160156 c -0.15234375,0 -0.33984375,0 -0.33984375,0.1992187 0,0.1992188 0.1875,0.1992188 0.328125,0.1992188 z m 0,0"
       style="fill:#000000;fill-opacity:1;fill-rule:nonzero;stroke:none"
       aria-label="="
       transform="matrix(1.3333333,0,0,1.3333333,77.153333,17.018667)" />
    <path
       id="path5"
       d="m 3.7156797,-3.7610703 c -0.1757813,-0.375 -0.46875,-0.6445313 -0.9140625,-0.6445313 -1.171875,0 -2.40234376,1.4648438 -2.40234376,2.9179688 0,0.93749999 0.55078125,1.59374999 1.32421876,1.59374999 0.1992187,0 0.703125,-0.03515625 1.3007812,-0.73828125 0.070312,0.41015625 0.421875,0.73828125 0.9023438,0.73828125 0.3515625,0 0.5742187,-0.22265625 0.7382812,-0.5390625 0.1640625,-0.36328125 0.2929688,-0.97265629 0.2929688,-0.99609379 0,-0.09375 -0.082031,-0.09375 -0.1171875,-0.09375 -0.09375,0 -0.1054688,0.035156 -0.140625,0.1757813 -0.1640625,0.64453124 -0.3515625,1.24218749 -0.75,1.24218749 -0.2695313,0 -0.3046875,-0.2578125 -0.3046875,-0.45703125 0,-0.22265625 0.023437,-0.3046875 0.1289062,-0.73828124 0.1171875,-0.421875 0.1289063,-0.5273438 0.2226563,-0.9023438 l 0.3515625,-1.3945312 c 0.070312,-0.28125 0.070312,-0.2929688 0.070312,-0.3398438 0,-0.1640625 -0.1171875,-0.2695312 -0.28125,-0.2695312 -0.2460938,0 -0.3867188,0.2226562 -0.4218745,0.4453125 z m -0.6445313,2.578125 c -0.046875,0.1757812 -0.046875,0.19921874 -0.1992187,0.36328124 -0.4453125,0.55078125 -0.84375,0.71484375 -1.125,0.71484375 -0.5039063,0 -0.6445313,-0.55078125 -0.6445313,-0.93749999 0,-0.5039063 0.328125,-1.7226563 0.5507813,-2.1796875 0.3046875,-0.5976563 0.7617187,-0.9609375 1.1601562,-0.9609375 0.6445313,0 0.7851563,0.8203125 0.7851563,0.8789062 0,0.058594 -0.023437,0.1171875 -0.035156,0.1640625 z m 0,0"
       style="fill:#000000;fill-opacity:1;fill-rule:nonzero;stroke:none"
       aria-label="a"
       transform="matrix(1.3333333,0,0,1.3333333,91.174667,17.018667)" />
    <path
       id="path6"
       d="M 2.0268281,1.7475078 V 1.4076641 H 1.2885469 V -4.8853047 H 2.0268281 V -5.2251484 H 0.94870313 v 6.9726562 z m 3.7441407,-3.0117187 h -0.234375 c -0.023437,0.1523437 -0.082031,0.56249996 -0.1757813,0.63281246 -0.058594,0.0351563 -0.5976562,0.0351563 -0.6914062,0.0351563 H 3.3803438 C 4.118625,-1.2407734 4.3647188,-1.4399922 4.774875,-1.7681172 c 0.515625,-0.4101562 0.9960938,-0.84375 0.9960938,-1.5 0,-0.84375 -0.7382813,-1.359375 -1.6289063,-1.359375 -0.8671875,0 -1.453125,0.609375 -1.453125,1.2421875 0,0.3632813 0.3046875,0.3984375 0.375,0.3984375 0.1640625,0 0.375,-0.1171875 0.375,-0.375 0,-0.1289062 -0.058594,-0.3632812 -0.421875,-0.3632812 0.2226563,-0.5039063 0.6914063,-0.65625 1.0195313,-0.65625 0.703125,0 1.0664062,0.5507812 1.0664062,1.1132812 0,0.609375 -0.4335937,1.0898438 -0.65625,1.3359375 l -1.6875,1.66406251 c -0.070312,0.0585938 -0.070312,0.0703125 -0.070312,0.26953125 H 5.57175 Z m 1.7548828,-3.9609375 h -1.078125 v 0.3398437 H 7.1860078 V 1.4076641 H 6.4477266 v 0.3398437 h 1.078125 z m 0,0"
       style="fill:#000000;fill-opacity:1;fill-rule:nonzero;stroke:none"
       aria-label="[2]"
       transform="matrix(1.3333333,0,0,1.3333333,98.196,12.197333)" />
    <path
       id="path7"
       d="m 6.5623203,-2.2962266 c 0.1757813,0 0.3515625,0 0.3515625,-0.1992187 0,-0.1992188 -0.1757812,-0.1992188 -0.3515625,-0.1992188 h -5.390625 c -0.1640625,0 -0.33984374,0 -0.33984374,0.1992188 0,0.1992187 0.17578124,0.1992187 0.33984374,0.1992187 z m 0,0"
       style="fill:#000000;fill-opacity:1;fill-rule:nonzero;stroke:none"
       aria-label="−"
       transform="matrix(1.3333333,0,0,1.3333333,113.12133,17.018667)" />
    <path
       id="path8"
       d="m 4.8405312,-3.7962266 c 0.046875,-0.140625 0.046875,-0.1523437 0.046875,-0.2226562 0,-0.1875 -0.140625,-0.2695313 -0.2929687,-0.2695313 -0.1054688,0 -0.2578125,0.058594 -0.3515625,0.1992188 -0.023437,0.058594 -0.09375,0.3632812 -0.140625,0.5390625 -0.070312,0.2578125 -0.140625,0.5273437 -0.1992188,0.796875 l -0.4453125,1.79296874 c -0.035156,0.15234375 -0.46875,0.85546875 -1.125,0.85546875 -0.5039062,0 -0.6210937,-0.4453125 -0.6210937,-0.80859375 0,-0.45703124 0.1757812,-1.07812504 0.515625,-1.95703124 0.1523437,-0.4101563 0.1992187,-0.515625 0.1992187,-0.7148438 0,-0.4453125 -0.328125,-0.8203125 -0.8203125,-0.8203125 -0.9492187,0 -1.31249995,1.453125 -1.31249995,1.5351563 0,0.1054687 0.09375,0.1054687 0.1171875,0.1054687 0.09375,0 0.10546875,-0.023437 0.15234375,-0.1875 0.26953125,-0.9375 0.6679687,-1.2304687 1.0078125,-1.2304687 0.082031,0 0.2578125,0 0.2578125,0.3164062 0,0.2460938 -0.1054688,0.515625 -0.1757813,0.703125 -0.3984375,1.0546875 -0.5742187,1.6171875 -0.5742187,2.0859375 0,0.89062504 0.6210937,1.18359379 1.21875,1.18359379 0.3867187,0 0.7265625,-0.1640625 0.9960937,-0.4453125 C 3.16475,0.17642969 3.0475625,0.66861719 2.649125,1.1959609 2.3913125,1.5358047 2.0163125,1.8287734 1.5592812,1.8287734 c -0.140625,0 -0.5976562,-0.035156 -0.7617187,-0.421875 0.1640625,0 0.2929687,0 0.4335937,-0.1171875 0.09375,-0.09375 0.1992188,-0.2226562 0.1992188,-0.41015621 0,-0.31640625 -0.2695313,-0.3515625 -0.375,-0.3515625 -0.22265625,0 -0.55078125,0.1640625 -0.55078125,0.64453121 0,0.5039063 0.43359375,0.8671875 1.05468745,0.8671875 1.0195313,0 2.0507813,-0.9023437 2.3320313,-2.02734371 z m 0,0"
       style="fill:#000000;fill-opacity:1;fill-rule:nonzero;stroke:none"
       aria-label="y"
       transform="matrix(1.3333333,0,0,1.3333333,126.40533,17.018667)" />
    <path
       id="path9"
       d="m 33.56866,-0.59775 h -67.13732 c -4.69671,0 -8.50404,-3.80734 -8.50404,-8.50403 v 0 c 0,-4.6967 3.80733,-8.50404 8.50404,-8.50404 h 67.13732 c 4.69671,0 8.50404,3.80734 8.50404,8.50404 v 0 c 0,4.69669 -3.80733,8.50403 -8.50404,8.50403 z"
       style="fill:#ccffcc;fill-opacity:1;fill-rule:nonzero;stroke:#808080;stroke-width:1.19553;stroke-linecap:butt;stroke-linejoin:miter;stroke-miterlimit:10;stroke-dasharray:none;stroke-opacity:1"
       transform="matrix(1.3333333,0,0,-1.3333333,90.604,12.412)" />
    <path
       id="path10"
       d="m 5.1437266,-6.8086094 c 0,0 0,-0.1054687 -0.1289063,-0.1054687 -0.1523437,0 -1.1015625,0.09375 -1.265625,0.1054687 -0.082031,0.011719 -0.140625,0.070312 -0.140625,0.1992188 0,0.1171875 0.082031,0.1171875 0.234375,0.1171875 0.4804688,0 0.5039063,0.070312 0.5039063,0.1640625 l -0.035156,0.1992187 -0.5976562,2.3671875 c -0.1757813,-0.375 -0.46875,-0.6445312 -0.9140625,-0.6445312 -1.171875,0 -2.40234379,1.4648437 -2.40234379,2.9179687 0,0.93750003 0.55078125,1.59375003 1.32421879,1.59375003 0.1992187,0 0.703125,-0.03515625 1.3007812,-0.73828125 0.070312,0.41015625 0.421875,0.73828125 0.9023438,0.73828125 0.3515625,0 0.5742187,-0.22265625 0.7382812,-0.5390625 0.1640625,-0.36328125 0.2929688,-0.97265623 0.2929688,-0.99609373 0,-0.09375 -0.082031,-0.09375 -0.1171875,-0.09375 -0.09375,0 -0.1054688,0.035156 -0.140625,0.1757812 -0.1640625,0.64453128 -0.3515625,1.24218753 -0.75,1.24218753 -0.2695313,0 -0.3046875,-0.2578125 -0.3046875,-0.45703125 0,-0.24609375 0.023437,-0.31640625 0.058594,-0.48046878 z m -2.0742188,5.625 c -0.046875,0.1757813 -0.046875,0.19921878 -0.1992187,0.36328128 -0.4453125,0.55078125 -0.84375,0.71484375 -1.125,0.71484375 -0.5039063,0 -0.6445313,-0.55078125 -0.6445313,-0.93750003 0,-0.5039062 0.328125,-1.7226562 0.5507813,-2.1796875 0.3046875,-0.5976562 0.7617187,-0.9609375 1.1601562,-0.9609375 0.6445313,0 0.7851563,0.8203125 0.7851563,0.8789063 0,0.058594 -0.023437,0.1171875 -0.035156,0.1640625 z M 14.313648,-5.6484531 c 0.257813,-0.4335938 0.492188,-0.796875 1.125,-0.84375 0.08203,-0.011719 0.1875,-0.011719 0.1875,-0.1992188 0,-0.046875 -0.04687,-0.1171875 -0.117187,-0.1171875 -0.246094,0 -0.527344,0.035156 -0.773438,0.035156 -0.339843,0 -0.703125,-0.035156 -1.03125,-0.035156 -0.05859,0 -0.1875,0 -0.1875,0.1992188 0,0.1054687 0.08203,0.1171875 0.140625,0.1171875 0.246094,0.011719 0.597657,0.082031 0.597657,0.3867187 0,0.1054688 -0.05859,0.1875 -0.140625,0.328125 l -2.683594,4.6875 -0.363281,-4.9335937 c -0.01172,-0.1992188 -0.03516,-0.4570313 0.691406,-0.46875 0.164062,0 0.269531,0 0.269531,-0.1992188 0,-0.1054687 -0.105469,-0.1171875 -0.152344,-0.1171875 -0.398437,0 -0.808593,0.035156 -1.207031,0.035156 -0.234375,0 -0.8203123,-0.035156 -1.0546873,-0.035156 -0.058594,0 -0.1875,0 -0.1875,0.1992188 0,0.1171875 0.1054687,0.1171875 0.2460937,0.1171875 0.4335936,0 0.5039066,0.058594 0.5273436,0.2460937 l 0.05859,0.7617188 -2.5195313,4.3945312 -0.3867188,-5.0507812 c 0,-0.1171875 0,-0.3398438 0.7617188,-0.3515625 0.09375,0 0.2109375,0 0.2109375,-0.1992188 0,-0.1171875 -0.1171875,-0.1171875 -0.140625,-0.1171875 -0.3984375,0 -0.8203125,0.035156 -1.2304688,0.035156 -0.3398437,0 -0.703125,-0.035156 -1.0429687,-0.035156 -0.046875,0 -0.1757813,0 -0.1757813,0.1992188 0,0.1171875 0.082031,0.1171875 0.2460938,0.1171875 0.5039062,0 0.5039062,0.082031 0.5273437,0.3632812 l 0.4453125,6.09375003 c 0.011719,0.17578125 0.023437,0.2578125 0.1640625,0.2578125 0.1171875,0 0.1523438,-0.0585938 0.234375,-0.2109375 l 2.9296871,-5.08593753 0.375,5.03906253 c 0.01172,0.19921875 0.03516,0.2578125 0.152344,0.2578125 0.128906,0 0.1875,-0.10546875 0.246094,-0.1875 z m 0,0"
       style="fill:#000000;fill-opacity:1;fill-rule:nonzero;stroke:none"
       aria-label="dW"
       transform="matrix(1.3333333,0,0,1.3333333,38.934667,30.445333)" />
    <path
       id="path11"
       d="M 2.0260547,1.7468438 V 1.407 H 1.2877734 V -4.8859687 H 2.0260547 V -5.2258125 H 0.94792969 V 1.7468438 Z M 5.7701953,-1.264875 h -0.234375 c -0.023437,0.1523438 -0.082031,0.5625 -0.1757812,0.6328125 -0.058594,0.0351563 -0.5976563,0.0351563 -0.6914063,0.0351563 H 3.3795703 c 0.7382813,-0.6445312 0.984375,-0.8437499 1.3945313,-1.171875 0.515625,-0.4101563 0.9960937,-0.84375 0.9960937,-1.5 0,-0.84375 -0.7382812,-1.359375 -1.6289062,-1.359375 -0.8671875,0 -1.453125,0.609375 -1.453125,1.2421875 0,0.3632812 0.3046875,0.3984375 0.375,0.3984375 0.1640625,0 0.375,-0.1171875 0.375,-0.375 0,-0.1289063 -0.058594,-0.3632813 -0.421875,-0.3632813 0.2226562,-0.5039062 0.6914062,-0.65625 1.0195312,-0.65625 0.703125,0 1.0664063,0.5507813 1.0664063,1.1132813 0,0.609375 -0.4335938,1.0898437 -0.65625,1.3359375 l -1.6875,1.6640625 c -0.070312,0.0585937 -0.070312,0.0703125 -0.070312,0.2695312 h 2.8828125 z m 1.7578125,-3.9609375 h -1.078125 v 0.3398438 H 7.1881641 V 1.407 H 6.4498828 v 0.3398438 h 1.078125 z m 0,0"
       style="fill:#000000;fill-opacity:1;fill-rule:nonzero;stroke:none"
       aria-label="[2]"
       transform="matrix(1.3333333,0,0,1.3333333,60.24,25.624)" />
    <path
       id="path12"
       d="m 6.8435078,-3.2578281 c 0.1523438,0 0.3398438,0 0.3398438,-0.1992188 0,-0.1992187 -0.1875,-0.1992187 -0.328125,-0.1992187 H 0.89038281 c -0.140625,0 -0.328125,0 -0.328125,0.1992187 0,0.1992188 0.1875,0.1992188 0.33984375,0.1992188 z m 0.011719,1.9335937 c 0.140625,0 0.328125,0 0.328125,-0.1992187 0,-0.1992188 -0.1875,-0.1992188 -0.3398438,-0.1992188 H 0.90210156 c -0.15234375,0 -0.33984375,0 -0.33984375,0.1992188 0,0.1992187 0.1875,0.1992187 0.328125,0.1992187 z m 0,0"
       style="fill:#000000;fill-opacity:1;fill-rule:nonzero;stroke:none"
       aria-label="="
       transform="matrix(1.3333333,0,0,1.3333333,75.902667,30.445333)" />
    <path
       id="path13"
       d="m 5.1458672,-6.8086094 c 0,0 0,-0.1054687 -0.1289063,-0.1054687 -0.1523437,0 -1.1015625,0.09375 -1.265625,0.1054687 -0.082031,0.011719 -0.140625,0.070312 -0.140625,0.1992188 0,0.1171875 0.082031,0.1171875 0.234375,0.1171875 0.4804688,0 0.5039063,0.070312 0.5039063,0.1640625 L 4.3138362,-6.1289219 3.71618,-3.7617344 c -0.1757813,-0.375 -0.46875,-0.6445312 -0.9140625,-0.6445312 -1.171875,0 -2.40234376,1.4648437 -2.40234376,2.9179687 0,0.93750003 0.55078125,1.59375003 1.32421876,1.59375003 0.1992187,0 0.703125,-0.03515625 1.3007812,-0.73828125 0.070312,0.41015625 0.421875,0.73828125 0.9023438,0.73828125 0.3515625,0 0.5742187,-0.22265625 0.7382812,-0.5390625 0.1640625,-0.36328125 0.2929688,-0.97265623 0.2929688,-0.99609373 0,-0.09375 -0.082031,-0.09375 -0.1171875,-0.09375 -0.09375,0 -0.1054688,0.035156 -0.140625,0.1757812 -0.1640625,0.64453128 -0.3515625,1.24218753 -0.75,1.24218753 -0.2695313,0 -0.3046875,-0.2578125 -0.3046875,-0.45703125 0,-0.24609375 0.023437,-0.31640625 0.058594,-0.48046878 z m -2.0742188,5.625 c -0.046875,0.1757813 -0.046875,0.19921878 -0.1992187,0.36328128 -0.4453125,0.55078125 -0.84375,0.71484375 -1.125,0.71484375 -0.5039063,0 -0.6445313,-0.55078125 -0.6445313,-0.93750003 0,-0.5039062 0.328125,-1.7226562 0.5507813,-2.1796875 0.3046875,-0.5976562 0.7617187,-0.9609375 1.1601562,-0.9609375 0.6445313,0 0.7851563,0.8203125 0.7851563,0.8789063 0,0.058594 -0.023437,0.1171875 -0.035156,0.1640625 z m 3.4394532,0.35156253 C 7.0501641,-1.4062656 7.3431328,-1.6523594 7.6946953,-1.9570469 c 0,-0.011719 0.6210938,-0.5390625 0.984375,-0.9023437 0.9375,-0.9257813 1.1601563,-1.40625 1.1601563,-1.4414063 0,-0.1054687 -0.09375,-0.1054687 -0.1054688,-0.1054687 -0.070312,0 -0.1054687,0.023437 -0.1523437,0.1171875 -0.3046875,0.46875 -0.5039063,0.6328125 -0.75,0.6328125 -0.234375,0 -0.3515625,-0.1523438 -0.5039063,-0.3164063 -0.1875,-0.234375 -0.3632812,-0.4335937 -0.6914062,-0.4335937 -0.75,0 -1.2070313,0.9257812 -1.2070313,1.1367187 0,0.046875 0.035156,0.1171875 0.1171875,0.1171875 0.09375,0 0.1171875,-0.058594 0.140625,-0.1171875 0.1875,-0.4570312 0.7617188,-0.46875 0.84375,-0.46875 0.2109375,0 0.3984375,0.070312 0.6210938,0.1523438 0.3984375,0.1523437 0.515625,0.1523437 0.7734375,0.1523437 -0.3632813,0.421875 -1.1953125,1.1367188 -1.3828125,1.3007813 l -0.9023438,0.8320312 c -0.6796875,0.66796878 -1.0195312,1.24218753 -1.0195312,1.31250003 0,0.09375 0.09375,0.09375 0.1171875,0.09375 0.082031,0 0.09375,-0.01171875 0.1523437,-0.12890625 0.234375,-0.33984375 0.5273438,-0.609375 0.8554688,-0.609375 0.2226562,0 0.328125,0.0820313 0.5742187,0.375 0.1640625,0.2109375 0.3515625,0.36328125 0.6328125,0.36328125 0.984375,0 1.5703125,-1.26562503 1.5703125,-1.53515623 0,-0.046875 -0.046875,-0.09375 -0.1171875,-0.09375 -0.09375,0 -0.1171875,0.058594 -0.140625,0.1289062 -0.234375,0.64453128 -0.8671875,0.83203128 -1.1953125,0.83203128 -0.1992187,0 -0.3867187,-0.0585938 -0.5859375,-0.12890625 -0.3398437,-0.12890625 -0.4921875,-0.1640625 -0.703125,-0.1640625 -0.023437,0 -0.1757812,0 -0.2695312,0.0234375 z m 0,0"
       style="fill:#000000;fill-opacity:1;fill-rule:nonzero;stroke:none"
       aria-label="dz"
       transform="matrix(1.3333333,0,0,1.3333333,89.924,30.445333)" />
    <path
       id="path14"
       d="M 2.0285156,1.7468438 V 1.407 H 1.2902344 V -4.8859687 H 2.0285156 V -5.2258125 H 0.95039063 v 6.9726563 z m 3.741211,-3.0117188 h -0.234375 c -0.023437,0.1523438 -0.082031,0.5625 -0.1757813,0.6328125 -0.058594,0.0351563 -0.5976562,0.0351563 -0.6914062,0.0351563 H 3.3791016 c 0.7382812,-0.6445313 0.984375,-0.84375 1.3945312,-1.171875 0.515625,-0.4101563 0.9960938,-0.84375 0.9960938,-1.5 0,-0.84375 -0.7382813,-1.359375 -1.6289063,-1.359375 -0.8671875,0 -1.453125,0.609375 -1.453125,1.2421875 0,0.3632812 0.3046875,0.3984375 0.375,0.3984375 0.1640625,0 0.375,-0.1171875 0.375,-0.375 0,-0.1289063 -0.058594,-0.3632813 -0.421875,-0.3632813 0.2226563,-0.5039062 0.6914063,-0.65625 1.0195313,-0.65625 0.703125,0 1.0664062,0.5507813 1.0664062,1.1132813 0,0.609375 -0.4335937,1.0898437 -0.65625,1.3359375 l -1.6875,1.6640625 c -0.070312,0.0585937 -0.070312,0.0703125 -0.070312,0.2695312 h 2.8828125 z m 1.7578125,-3.9609375 h -1.078125 v 0.3398438 H 7.1876953 V 1.407 H 6.4494141 v 0.3398438 h 1.078125 z m 0,0"
       style="fill:#000000;fill-opacity:1;fill-rule:nonzero;stroke:none"
       aria-label="[2]"
       transform="matrix(1.3333333,0,0,1.3333333,103.6,25.624)" />
    <path
       id="path15"
       d="m 3.7155078,-3.7617344 c -0.1757812,-0.375 -0.46875,-0.6445312 -0.9140625,-0.6445312 -1.171875,0 -2.40234374,1.4648437 -2.40234374,2.9179687 0,0.93750003 0.55078125,1.59375003 1.32421874,1.59375003 0.1992188,0 0.703125,-0.03515625 1.3007813,-0.73828125 0.070312,0.41015625 0.421875,0.73828125 0.9023437,0.73828125 0.3515625,0 0.5742188,-0.22265625 0.7382813,-0.5390625 0.1640625,-0.36328125 0.2929687,-0.97265623 0.2929687,-0.99609373 0,-0.09375 -0.082031,-0.09375 -0.1171875,-0.09375 -0.09375,0 -0.1054687,0.035156 -0.140625,0.1757812 -0.1640625,0.64453128 -0.3515625,1.24218753 -0.75,1.24218753 -0.2695312,0 -0.3046875,-0.2578125 -0.3046875,-0.45703125 0,-0.22265625 0.023437,-0.3046875 0.1289063,-0.73828128 0.1171875,-0.421875 0.1289062,-0.5273437 0.2226562,-0.9023437 l 0.3515625,-1.3945313 c 0.070312,-0.28125 0.070312,-0.2929687 0.070312,-0.3398437 0,-0.1640625 -0.1171875,-0.2695313 -0.28125,-0.2695313 -0.2460937,0 -0.3867187,0.2226563 -0.4218745,0.4453125 z m -0.6445312,2.578125 c -0.046875,0.1757813 -0.046875,0.19921878 -0.1992188,0.36328128 -0.4453125,0.55078125 -0.84375,0.71484375 -1.125,0.71484375 -0.5039062,0 -0.6445312,-0.55078125 -0.6445312,-0.93750003 0,-0.5039062 0.328125,-1.7226562 0.5507812,-2.1796875 0.3046875,-0.5976562 0.7617188,-0.9609375 1.1601563,-0.9609375 0.6445312,0 0.7851562,0.8203125 0.7851562,0.8789063 0,0.058594 -0.023437,0.1171875 -0.035156,0.1640625 z m 0,0"
       style="fill:#000000;fill-opacity:1;fill-rule:nonzero;stroke:none"
       aria-label="a"
       transform="matrix(1.3333333,0,0,1.3333333,115.57333,30.445333)" />
    <path
       id="path16"
       d="M 2.0266562,1.7468438 V 1.407 H 1.288375 V -4.8859687 H 2.0266562 V -5.2258125 H 0.94853125 v 6.9726563 z m 2.5605469,-6.1757813 c 0,-0.1875 -0.011719,-0.1992187 -0.2109375,-0.1992187 -0.4453125,0.4335937 -1.078125,0.4453125 -1.359375,0.4453125 V -3.93675 c 0.1640625,0 0.6210938,0 1.0078125,-0.1875 v 3.55078125 c 0,0.234375 0,0.328125 -0.6914062,0.328125 H 3.0637656 V 7.5e-4 c 0.1289063,-0.01171875 0.984375,-0.0234375 1.2421875,-0.0234375 0.2109375,0 1.0898438,0.01171875 1.2421875,0.0234375 V -0.24534375 H 5.2903281 c -0.703125,0 -0.703125,-0.09375 -0.703125,-0.328125 z m 2.9384766,-0.796875 h -1.078125 v 0.3398438 H 7.1858359 V 1.407 H 6.4475547 v 0.3398438 h 1.078125 z m 0,0"
       style="fill:#000000;fill-opacity:1;fill-rule:nonzero;stroke:none"
       aria-label="[1]"
       transform="matrix(1.3333333,0,0,1.3333333,122.59467,25.624)" />
    <path
       id="path17"
       d="m 3.3874063,-4.218 c 0.046875,-0.1992187 0.070312,-0.2226562 0.2226562,-0.234375 0.035156,-0.011719 0.2695313,-0.011719 0.4101563,-0.011719 0.4335937,0 0.609375,0 0.7851562,0.058594 0.3164063,0.09375 0.328125,0.3046875 0.328125,0.5507813 0,0.1054687 0,0.1992187 -0.046875,0.5625 l -0.011719,0.082031 c 0,0.070312 0.046875,0.1054688 0.1171875,0.1054688 0.1054687,0 0.1171875,-0.070312 0.1289062,-0.1757813 l 0.1875,-1.3359375 c 0,-0.09375 -0.082031,-0.09375 -0.2109375,-0.09375 H 1.0085 c -0.17578125,0 -0.1875,0 -0.234375,0.140625 L 0.34053125,-3.327375 c -0.0117188,0.023437 -0.0351563,0.082031 -0.0351563,0.1171875 0,0.035156 0.0117188,0.1054688 0.1171875,0.1054688 0.0820312,0 0.10546875,-0.035156 0.140625,-0.1757813 C 0.97334375,-4.3937812 1.196,-4.4640937 2.2624063,-4.4640937 H 2.555375 c 0.2109375,0 0.2109375,0.011719 0.2109375,0.070312 0,0.011719 0,0.046875 -0.023437,0.1523437 l -0.9257812,3.66796875 c -0.058594,0.2578125 -0.082031,0.328125 -0.8085938,0.328125 -0.2578125,0 -0.31640625,0 -0.31640625,0.15234375 0,0.01171875 0.0117188,0.09375 0.1171875,0.09375 0.19921875,0 0.41015625,-0.0234375 0.59765625,-0.0234375 0.1992188,0 0.4101563,0 0.5976563,0 0.1992187,0 0.4335937,0 0.6328125,0 0.1875,0.01171875 0.3984375,0.0234375 0.5859375,0.0234375 0.058594,0 0.1640625,0 0.1640625,-0.15234375 0,-0.09375 -0.070312,-0.09375 -0.2929688,-0.09375 -0.1289062,0 -0.2695312,-0.0117188 -0.3984375,-0.0234375 -0.2460942,-0.0117183 -0.257813,-0.0468745 -0.257813,-0.12890575 0,-0.046875 0,-0.0585938 0.035156,-0.1640625 z m 0,0"
       style="fill:#000000;fill-opacity:1;fill-rule:nonzero;stroke:none"
       aria-label="T"
       transform="matrix(1.3333333,0,0,1.3333333,133.90533,25.624)" />
    <path
       id="path18"
       d="m 20.29768,-0.59775 h -40.59536 c -4.6967,0 -8.50405,-3.80734 -8.50405,-8.50403 v 0 c 0,-4.6967 3.80735,-8.50404 8.50405,-8.50404 h 40.59536 c 4.6967,0 8.50405,3.80734 8.50405,8.50404 v 0 c 0,4.69669 -3.80735,8.50403 -8.50405,8.50403 z"
       style="fill:#ccffcc;fill-opacity:1;fill-rule:nonzero;stroke:#808080;stroke-width:1.19553;stroke-linecap:butt;stroke-linejoin:miter;stroke-miterlimit:10;stroke-dasharray:none;stroke-opacity:1"
       transform="matrix(1.3333333,0,0,-1.3333333,90.604,12.412)" />
    <path
       id="path19"
       d="m 5.1442109,-6.8086094 c 0,0 0,-0.1054687 -0.1289062,-0.1054687 -0.1523438,0 -1.1015625,0.09375 -1.265625,0.1054687 -0.082031,0.011719 -0.140625,0.070312 -0.140625,0.1992188 0,0.1171875 0.082031,0.1171875 0.234375,0.1171875 0.4804687,0 0.5039062,0.070312 0.5039062,0.1640625 l -0.035156,0.1992187 -0.5976563,2.3671875 c -0.1757812,-0.375 -0.46875,-0.6445312 -0.9140625,-0.6445312 -1.171875,0 -2.40234371,1.4648437 -2.40234371,2.9179687 0,0.93750003 0.55078125,1.59375003 1.32421871,1.59375003 0.1992188,0 0.703125,-0.03515625 1.3007813,-0.73828125 0.070312,0.41015625 0.421875,0.73828125 0.9023437,0.73828125 0.3515625,0 0.5742188,-0.22265625 0.7382813,-0.5390625 0.1640625,-0.36328125 0.2929687,-0.97265623 0.2929687,-0.99609373 0,-0.09375 -0.082031,-0.09375 -0.1171875,-0.09375 -0.09375,0 -0.1054687,0.035156 -0.140625,0.1757812 -0.1640625,0.64453128 -0.3515625,1.24218753 -0.75,1.24218753 -0.2695312,0 -0.3046875,-0.2578125 -0.3046875,-0.45703125 0,-0.24609375 0.023437,-0.31640625 0.058594,-0.48046878 z m -2.0742187,5.625 c -0.046875,0.1757813 -0.046875,0.19921878 -0.1992188,0.36328128 -0.4453125,0.55078125 -0.84375,0.71484375 -1.125,0.71484375 -0.5039062,0 -0.6445312,-0.55078125 -0.6445312,-0.93750003 0,-0.5039062 0.328125,-1.7226562 0.5507812,-2.1796875 0.3046875,-0.5976562 0.7617188,-0.9609375 1.1601563,-0.9609375 0.6445312,0 0.7851562,0.8203125 0.7851562,0.8789063 0,0.058594 -0.023437,0.1171875 -0.035156,0.1640625 z m 4.4941406,-5.625 c 0,0 0,-0.1054687 -0.1289062,-0.1054687 -0.2226563,0 -0.9492188,0.082031 -1.21875,0.1054687 -0.070312,0 -0.1875,0.011719 -0.1875,0.1992188 0,0.1171875 0.09375,0.1171875 0.2460937,0.1171875 0.46875,0 0.4921875,0.070312 0.4921875,0.1640625 0,0.070312 -0.082031,0.4101562 -0.140625,0.6210937 l -0.8085937,3.2460938 c -0.1289063,0.5039062 -0.1640625,0.65625 -0.1640625,1.0078125 0,0.94921873 0.5273437,1.55859373 1.265625,1.55859373 1.171875,0 2.4023437,-1.47656253 2.4023437,-2.91796873 0,-0.9023438 -0.5273437,-1.59375 -1.3242187,-1.59375 -0.4570313,0 -0.8671875,0.2929687 -1.171875,0.5976562 z m -0.9375,3.7734375 c 0.058594,-0.2226562 0.058594,-0.2460937 0.1523438,-0.3515625 0.4921875,-0.6445312 0.9375,-0.796875 1.1953125,-0.796875 0.3632812,0 0.6328125,0.2929688 0.6328125,0.9375 0,0.5859375 -0.328125,1.734375 -0.515625,2.109375 -0.328125,0.66796878 -0.7851563,1.03125003 -1.171875,1.03125003 -0.3398438,0 -0.6679688,-0.26953125 -0.6679688,-1.00781253 0,-0.1875 0,-0.3867187 0.1640625,-1.0078125 z m 0,0"
       style="fill:#000000;fill-opacity:1;fill-rule:nonzero;stroke:none"
       aria-label="db"
       transform="matrix(1.3333333,0,0,1.3333333,56.629333,30.445333)" />
    <path
       id="path20"
       d="M 2.0259844,1.7468438 V 1.407 H 1.2877031 V -4.8859687 H 2.0259844 V -5.2258125 H 0.94785938 V 1.7468438 Z M 5.770125,-1.264875 H 5.53575 c -0.023437,0.1523438 -0.082031,0.5625 -0.1757813,0.6328125 -0.058594,0.0351563 -0.5976562,0.0351563 -0.6914062,0.0351563 H 3.3795 c 0.7382812,-0.6445313 0.984375,-0.84375 1.3945312,-1.171875 0.515625,-0.4101563 0.9960938,-0.84375 0.9960938,-1.5 0,-0.84375 -0.7382813,-1.359375 -1.6289063,-1.359375 -0.8671874,0 -1.4531249,0.609375 -1.4531249,1.2421875 0,0.3632812 0.3046875,0.3984375 0.375,0.3984375 0.1640625,0 0.375,-0.1171875 0.375,-0.375 0,-0.1289063 -0.058594,-0.3632813 -0.421875,-0.3632813 0.2226562,-0.5039062 0.6914062,-0.65625 1.0195312,-0.65625 0.703125,0 1.0664062,0.5507813 1.0664062,1.1132813 0,0.609375 -0.4335937,1.0898437 -0.65625,1.3359375 L 2.7584063,-0.26878125 C 2.6880938,-0.2101875 2.6880938,-0.19846875 2.6880938,7.5e-4 h 2.8828124 z m 1.7578125,-3.9609375 h -1.078125 v 0.3398438 H 7.1880937 V 1.407 H 6.4498125 v 0.3398438 h 1.078125 z m 0,0"
       style="fill:#000000;fill-opacity:1;fill-rule:nonzero;stroke:none"
       aria-label="[2]"
       transform="matrix(1.3333333,0,0,1.3333333,69.244,25.624)" />
    <path
       id="path21"
       d="m 6.8424375,-3.2578281 c 0.1523438,0 0.3398438,0 0.3398438,-0.1992188 0,-0.1992187 -0.1875,-0.1992187 -0.328125,-0.1992187 H 0.8893125 c -0.140625,0 -0.328125,0 -0.328125,0.1992187 0,0.1992188 0.1875,0.1992188 0.33984375,0.1992188 z m 0.011719,1.9335937 c 0.140625,0 0.328125,0 0.328125,-0.1992187 0,-0.1992188 -0.1875,-0.1992188 -0.3398438,-0.1992188 H 0.90103125 c -0.15234375,0 -0.33984375,0 -0.33984375,0.1992188 0,0.1992187 0.1875,0.1992187 0.328125,0.1992187 z m 0,0"
       style="fill:#000000;fill-opacity:1;fill-rule:nonzero;stroke:none"
       aria-label="="
       transform="matrix(1.3333333,0,0,1.3333333,84.908,30.445333)" />
    <path
       id="path22"
       d="m 5.1447969,-6.8086094 c 0,0 0,-0.1054687 -0.1289063,-0.1054687 -0.1523437,0 -1.1015625,0.09375 -1.265625,0.1054687 -0.082031,0.011719 -0.140625,0.070312 -0.140625,0.1992188 0,0.1171875 0.082031,0.1171875 0.234375,0.1171875 0.4804688,0 0.5039063,0.070312 0.5039063,0.1640625 l -0.035156,0.1992187 -0.5976562,2.3671875 c -0.1757813,-0.375 -0.46875,-0.6445312 -0.9140625,-0.6445312 -1.171875,0 -2.40234378,1.4648437 -2.40234378,2.9179687 0,0.93750003 0.55078125,1.59375003 1.32421878,1.59375003 0.1992187,0 0.703125,-0.03515625 1.3007812,-0.73828125 0.070312,0.41015625 0.421875,0.73828125 0.9023438,0.73828125 0.3515625,0 0.5742187,-0.22265625 0.7382812,-0.5390625 0.1640625,-0.36328125 0.2929688,-0.97265623 0.2929688,-0.99609373 0,-0.09375 -0.082031,-0.09375 -0.1171875,-0.09375 -0.09375,0 -0.1054688,0.035156 -0.140625,0.1757812 -0.1640625,0.64453128 -0.3515625,1.24218753 -0.75,1.24218753 -0.2695313,0 -0.3046875,-0.2578125 -0.3046875,-0.45703125 0,-0.24609375 0.023437,-0.31640625 0.058594,-0.48046878 z m -2.0742188,5.625 c -0.046875,0.1757813 -0.046875,0.19921878 -0.1992187,0.36328128 -0.4453125,0.55078125 -0.84375,0.71484375 -1.125,0.71484375 -0.5039063,0 -0.6445313,-0.55078125 -0.6445313,-0.93750003 0,-0.5039062 0.328125,-1.7226562 0.5507813,-2.1796875 0.3046875,-0.5976562 0.7617187,-0.9609375 1.1601562,-0.9609375 0.6445313,0 0.7851563,0.8203125 0.7851563,0.8789063 0,0.058594 -0.023437,0.1171875 -0.035156,0.1640625 z m 3.4394531,0.35156253 C 7.0490937,-1.4062656 7.3420625,-1.6523594 7.693625,-1.9570469 c 0,-0.011719 0.6210937,-0.5390625 0.984375,-0.9023437 0.9375,-0.9257813 1.1601562,-1.40625 1.1601562,-1.4414063 0,-0.1054687 -0.09375,-0.1054687 -0.1054687,-0.1054687 -0.070312,0 -0.1054688,0.023437 -0.1523438,0.1171875 -0.3046875,0.46875 -0.5039062,0.6328125 -0.75,0.6328125 -0.234375,0 -0.3515625,-0.1523438 -0.5039062,-0.3164063 -0.1875,-0.234375 -0.3632813,-0.4335937 -0.6914063,-0.4335937 -0.75,0 -1.2070312,0.9257812 -1.2070312,1.1367187 0,0.046875 0.035156,0.1171875 0.1171875,0.1171875 0.09375,0 0.1171875,-0.058594 0.140625,-0.1171875 0.1875,-0.4570312 0.7617187,-0.46875 0.84375,-0.46875 0.2109375,0 0.3984375,0.070312 0.6210937,0.1523438 0.3984375,0.1523437 0.515625,0.1523437 0.7734375,0.1523437 -0.3632812,0.421875 -1.1953125,1.1367188 -1.3828125,1.3007813 L 6.6389375,-1.3007969 C 5.95925,-0.63282812 5.6194062,-0.05860937 5.6194062,0.01170313 c 0,0.09375 0.09375,0.09375 0.1171875,0.09375 0.082031,0 0.09375,-0.01171875 0.1523438,-0.12890625 0.234375,-0.33984375 0.5273437,-0.609375 0.8554687,-0.609375 0.2226563,0 0.328125,0.0820313 0.5742188,0.375 0.1640625,0.2109375 0.3515625,0.36328125 0.6328125,0.36328125 0.984375,0 1.5703125,-1.26562503 1.5703125,-1.53515623 0,-0.046875 -0.046875,-0.09375 -0.1171875,-0.09375 -0.09375,0 -0.1171875,0.058594 -0.140625,0.1289062 -0.234375,0.64453128 -0.8671875,0.83203128 -1.1953125,0.83203128 -0.1992188,0 -0.3867188,-0.0585938 -0.5859375,-0.12890625 -0.3398438,-0.12890625 -0.4921875,-0.1640625 -0.703125,-0.1640625 -0.023437,0 -0.1757813,0 -0.2695313,0.0234375 z m 0,0"
       style="fill:#000000;fill-opacity:1;fill-rule:nonzero;stroke:none"
       aria-label="dz"
       transform="matrix(1.3333333,0,0,1.3333333,98.929333,30.445333)" />
    <path
       id="path23"
       d="M 2.0274453,1.7468438 V 1.407 H 1.2891641 V -4.8859687 H 2.0274453 V -5.2258125 H 0.94932031 V 1.7468438 Z M 5.7715859,-1.264875 h -0.234375 c -0.023437,0.1523438 -0.082031,0.5625 -0.1757812,0.6328125 -0.058594,0.0351563 -0.5976563,0.0351563 -0.6914063,0.0351563 H 3.3809609 c 0.7382813,-0.6445312 0.984375,-0.8437499 1.3945313,-1.171875 0.515625,-0.4101563 0.9960937,-0.84375 0.9960937,-1.5 0,-0.84375 -0.7382812,-1.359375 -1.6289062,-1.359375 -0.8671875,0 -1.453125,0.609375 -1.453125,1.2421875 0,0.3632812 0.3046875,0.3984375 0.375,0.3984375 0.1640625,0 0.375,-0.1171875 0.375,-0.375 0,-0.1289063 -0.058594,-0.3632813 -0.421875,-0.3632813 0.2226562,-0.5039062 0.6914062,-0.65625 1.0195312,-0.65625 0.703125,0 1.0664063,0.5507813 1.0664063,1.1132813 0,0.609375 -0.4335938,1.0898437 -0.65625,1.3359375 l -1.6875,1.6640625 c -0.070312,0.0585937 -0.070312,0.0703125 -0.070312,0.2695312 h 2.8828125 z m 1.7548828,-3.9609375 h -1.078125 v 0.3398438 H 7.186625 V 1.407 H 6.4483437 v 0.3398438 h 1.078125 z m 0,0"
       style="fill:#000000;fill-opacity:1;fill-rule:nonzero;stroke:none"
       aria-label="[2]"
       transform="matrix(1.3333333,0,0,1.3333333,112.60533,25.624)" />
    <path
       id="path24"
       d="M 58.85211,-0.59775 H -58.85211 c -4.6967,0 -8.50403,-3.80734 -8.50403,-8.50403 v -1.51318 c 0,-4.69669 3.80733,-8.50403 8.50403,-8.50403 H 58.85211 c 4.6967,0 8.50403,3.80734 8.50403,8.50403 v 1.51318 c 0,4.69669 -3.80733,8.50403 -8.50403,8.50403 z"
       style="fill:#ccffcc;fill-opacity:1;fill-rule:nonzero;stroke:#808080;stroke-width:1.19553;stroke-linecap:butt;stroke-linejoin:miter;stroke-miterlimit:10;stroke-dasharray:none;stroke-opacity:1"
       transform="matrix(1.3333333,0,0,-1.3333333,90.604,12.412)" />
    <path
       id="path25"
       d="m 5.1435234,-6.8084062 c 0,0 0,-0.1054688 -0.1289062,-0.1054688 -0.1523438,0 -1.1015625,0.09375 -1.265625,0.1054688 -0.082031,0.011719 -0.140625,0.070312 -0.140625,0.1992187 0,0.1171875 0.082031,0.1171875 0.234375,0.1171875 0.4804687,0 0.5039062,0.070312 0.5039062,0.1640625 l -0.035156,0.1992188 -0.5976563,2.3671875 c -0.1757812,-0.375 -0.46875,-0.6445313 -0.9140625,-0.6445313 -1.171875,0 -2.40234371,1.4648438 -2.40234371,2.9179688 0,0.93749995 0.55078125,1.59374995 1.32421871,1.59374995 0.1992188,0 0.703125,-0.03515625 1.3007813,-0.73828125 0.070312,0.41015625 0.421875,0.73828125 0.9023437,0.73828125 0.3515625,0 0.5742188,-0.22265625 0.7382813,-0.5390625 C 4.8271172,-0.7966875 4.9560234,-1.4060625 4.9560234,-1.4295 c 0,-0.09375 -0.082031,-0.09375 -0.1171875,-0.09375 -0.09375,0 -0.1054687,0.035156 -0.140625,0.1757813 -0.1640625,0.6445312 -0.3515625,1.24218745 -0.75,1.24218745 -0.2695312,0 -0.3046875,-0.2578125 -0.3046875,-0.45703125 0,-0.24609375 0.023437,-0.31640625 0.058594,-0.4804687 z m -2.0742187,5.625 c -0.046875,0.1757812 -0.046875,0.1992187 -0.1992188,0.3632812 -0.4453125,0.55078125 -0.84375,0.71484375 -1.125,0.71484375 -0.5039062,0 -0.6445312,-0.55078125 -0.6445312,-0.93749995 0,-0.5039063 0.328125,-1.7226563 0.5507812,-2.1796875 0.3046875,-0.5976563 0.7617188,-0.9609375 1.1601563,-0.9609375 0.6445312,0 0.7851562,0.8203125 0.7851562,0.8789062 0,0.058594 -0.023437,0.1171875 -0.035156,0.1640625 z m 3.4394531,0.35156245 C 7.0478203,-1.4060625 7.3407891,-1.6521562 7.6923516,-1.9568437 c 0,-0.011719 0.6210937,-0.5390625 0.984375,-0.9023438 0.9375,-0.9257812 1.1601562,-1.40625 1.1601562,-1.4414062 0,-0.1054688 -0.09375,-0.1054688 -0.1054687,-0.1054688 -0.070312,0 -0.1054688,0.023437 -0.1523438,0.1171875 -0.3046875,0.46875 -0.5039062,0.6328125 -0.75,0.6328125 -0.234375,0 -0.3515625,-0.1523437 -0.5039062,-0.3164062 -0.1875,-0.234375 -0.3632813,-0.4335938 -0.6914063,-0.4335938 -0.75,0 -1.2070312,0.9257813 -1.2070312,1.1367188 0,0.046875 0.035156,0.1171875 0.1171875,0.1171875 0.09375,0 0.1171875,-0.058594 0.140625,-0.1171875 0.1875,-0.4570313 0.7617187,-0.46875 0.84375,-0.46875 0.2109375,0 0.3984375,0.070312 0.6210937,0.1523437 0.3984375,0.1523438 0.515625,0.1523438 0.7734375,0.1523438 -0.3632812,0.421875 -1.1953125,1.1367187 -1.3828125,1.3007812 l -0.9023437,0.8320313 c -0.6796875,0.6679687 -1.0195313,1.24218745 -1.0195313,1.31249995 0,0.09375 0.09375,0.09375 0.1171875,0.09375 0.082031,0 0.09375,-0.01171875 0.1523438,-0.12890625 0.234375,-0.33984375 0.5273437,-0.609375 0.8554687,-0.609375 0.2226563,0 0.328125,0.0820313 0.5742188,0.375 0.1640625,0.2109375 0.3515625,0.36328125 0.6328125,0.36328125 0.984375,0 1.5703125,-1.26562495 1.5703125,-1.53515625 0,-0.046875 -0.046875,-0.09375 -0.1171875,-0.09375 -0.09375,0 -0.1171875,0.058594 -0.140625,0.1289063 -0.234375,0.6445312 -0.8671875,0.8320312 -1.1953125,0.8320312 -0.1992188,0 -0.3867188,-0.0585938 -0.5859375,-0.12890625 -0.3398438,-0.12890625 -0.4921875,-0.1640625 -0.703125,-0.1640625 -0.023437,0 -0.1757813,0 -0.2695313,0.0234375 z m 0,0"
       style="fill:#000000;fill-opacity:1;fill-rule:nonzero;stroke:none"
       aria-label="dz"
       transform="matrix(1.3333333,0,0,1.3333333,5.224,30.156)" />
    <path
       id="path26"
       d="M 2.0261719,1.7470469 V 1.4072031 H 1.2878906 V -4.8857656 H 2.0261719 V -5.2256094 H 0.94804687 v 6.9726563 z m 2.5605468,-6.1757813 c 0,-0.1875 -0.011719,-0.1992187 -0.2109375,-0.1992187 -0.4453125,0.4335937 -1.078125,0.4453125 -1.359375,0.4453125 v 0.2460937 c 0.1640625,0 0.6210938,0 1.0078125,-0.1875 v 3.55078128 c 0,0.234375 0,0.328125 -0.6914062,0.328125 H 3.0632812 V 9.53125e-4 c 0.1289063,-0.011718745 0.984375,-0.023437495 1.2421875,-0.023437495 0.2109375,0 1.0898438,0.01171875 1.2421875,0.023437495 V -0.24514062 H 5.2898437 c -0.703125,0 -0.703125,-0.09375 -0.703125,-0.328125 z M 7.528125,-5.2256094 H 6.45 v 0.3398438 H 7.1882812 V 1.4072031 H 6.45 v 0.3398438 h 1.078125 z m 0,0"
       style="fill:#000000;fill-opacity:1;fill-rule:nonzero;stroke:none"
       aria-label="[1]"
       transform="matrix(1.3333333,0,0,1.3333333,18.9,25.334667)" />
    <path
       id="path27"
       d="m 6.842625,-3.257625 c 0.1523437,0 0.3398437,0 0.3398437,-0.1992187 0,-0.1992188 -0.1875,-0.1992188 -0.328125,-0.1992188 H 0.8895 c -0.140625,0 -0.328125,0 -0.328125,0.1992188 0,0.1992187 0.1875,0.1992187 0.33984375,0.1992187 z m 0.011719,1.9335938 c 0.140625,0 0.328125,0 0.328125,-0.1992188 0,-0.1992187 -0.1875,-0.1992187 -0.3398437,-0.1992187 H 0.90121875 c -0.15234375,0 -0.33984375,0 -0.33984375,0.1992187 0,0.1992188 0.1875,0.1992188 0.328125,0.1992188 z m 0,0"
       style="fill:#000000;fill-opacity:1;fill-rule:nonzero;stroke:none"
       aria-label="="
       transform="matrix(1.3333333,0,0,1.3333333,34.564,30.156)" />
    <path
       id="path28"
       d="m 9.1293594,-5.64825 c 0.2578125,-0.4335937 0.4921875,-0.796875 1.1249996,-0.84375 0.08203,-0.011719 0.1875,-0.011719 0.1875,-0.1992187 0,-0.046875 -0.04687,-0.1171875 -0.117187,-0.1171875 -0.246094,0 -0.5273439,0.035156 -0.7734376,0.035156 -0.3398438,0 -0.703125,-0.035156 -1.03125,-0.035156 -0.058594,0 -0.1875,0 -0.1875,0.1992187 0,0.1054688 0.082031,0.1171875 0.140625,0.1171875 0.2460937,0.011719 0.5976562,0.082031 0.5976562,0.3867188 0,0.1054687 -0.058594,0.1875 -0.140625,0.328125 l -2.6835937,4.6875 L 5.8832656,-6.02325 c -0.011719,-0.1992187 -0.035156,-0.4570312 0.6914063,-0.46875 0.1640625,0 0.2695312,0 0.2695312,-0.1992187 0,-0.1054688 -0.1054687,-0.1171875 -0.1523437,-0.1171875 -0.3984375,0 -0.8085938,0.035156 -1.2070313,0.035156 -0.234375,0 -0.8203125,-0.035156 -1.0546875,-0.035156 -0.058594,0 -0.1875,0 -0.1875,0.1992187 0,0.1171875 0.1054688,0.1171875 0.2460938,0.1171875 0.4335937,0 0.5039062,0.058594 0.5273437,0.2460938 l 0.058594,0.7617187 -2.5195313,4.3945313 -0.3867187,-5.0507813 c 0,-0.1171875 0,-0.3398437 0.7617187,-0.3515625 0.09375,0 0.2109375,0 0.2109375,-0.1992187 0,-0.1171875 -0.1171875,-0.1171875 -0.140625,-0.1171875 -0.3984375,0 -0.8203125,0.035156 -1.2304687,0.035156 -0.3398438,0 -0.703125,-0.035156 -1.04296878,-0.035156 -0.046875,0 -0.17578125,0 -0.17578125,0.1992187 0,0.1171875 0.0820313,0.1171875 0.24609375,0.1171875 0.50390628,0 0.50390628,0.082031 0.52734378,0.3632813 l 0.4453125,6.09374995 c 0.011719,0.17578125 0.023437,0.2578125 0.1640625,0.2578125 0.1171875,0 0.1523437,-0.0585938 0.234375,-0.2109375 l 2.9296875,-5.08593745 0.375,5.03906245 c 0.011719,0.19921875 0.035156,0.2578125 0.1523437,0.2578125 0.1289063,0 0.1875,-0.10546875 0.2460938,-0.1875 z m 0,0"
       style="fill:#000000;fill-opacity:1;fill-rule:nonzero;stroke:none"
       aria-label="W"
       transform="matrix(1.3333333,0,0,1.3333333,48.585333,30.156)" />
    <path
       id="path29"
       d="M 2.0287656,1.7470469 V 1.4072031 H 1.2904844 V -4.8857656 H 2.0287656 V -5.2256094 H 0.95064062 v 6.9726563 z m 3.741211,-3.0117188 h -0.234375 c -0.023437,0.1523438 -0.082031,0.56250003 -0.1757813,0.63281253 -0.058594,0.0351563 -0.5976562,0.0351563 -0.6914062,0.0351563 H 3.3793516 C 4.1176328,-1.2412343 4.3637266,-1.4404531 4.7738828,-1.768578 c 0.515625,-0.4101564 0.9960938,-0.8437501 0.9960938,-1.5000001 0,-0.84375 -0.7382813,-1.359375 -1.6289063,-1.359375 -0.8671875,0 -1.453125,0.609375 -1.453125,1.2421875 0,0.3632812 0.3046875,0.3984375 0.375,0.3984375 0.1640625,0 0.375,-0.1171875 0.375,-0.375 0,-0.1289063 -0.058594,-0.3632813 -0.421875,-0.3632813 0.2226563,-0.5039062 0.6914063,-0.65625 1.0195313,-0.65625 0.703125,0 1.0664062,0.5507813 1.0664062,1.1132813 0,0.609375 -0.4335937,1.0898437 -0.65625,1.3359375 l -1.6875,1.66406253 c -0.070312,0.0585937 -0.070312,0.0703125 -0.070312,0.269531245 h 2.8828125 z m 1.7578125,-3.9609375 h -1.078125 v 0.3398438 H 7.1879453 V 1.4072031 H 6.4496641 v 0.3398438 h 1.078125 z m 0,0"
       style="fill:#000000;fill-opacity:1;fill-rule:nonzero;stroke:none"
       aria-label="[2]"
       transform="matrix(1.3333333,0,0,1.3333333,62.974667,25.334667)" />
    <path
       id="path30"
       d="m 3.3865859,-4.2177969 c 0.046875,-0.1992187 0.070312,-0.2226562 0.2226563,-0.234375 0.035156,-0.011719 0.2695312,-0.011719 0.4101562,-0.011719 0.4335938,0 0.609375,0 0.7851563,0.058594 0.3164062,0.09375 0.328125,0.3046875 0.328125,0.5507813 0,0.1054687 0,0.1992187 -0.046875,0.5625 l -0.011719,0.082031 c 0,0.070312 0.046875,0.1054688 0.1171875,0.1054688 0.1054688,0 0.1171875,-0.070312 0.1289063,-0.1757813 l 0.1875,-1.3359375 c 0,-0.09375 -0.082031,-0.09375 -0.2109375,-0.09375 H 1.0076797 c -0.17578126,0 -0.18750001,0 -0.23437501,0.140625 l -0.43359375,1.2421875 c -0.0117188,0.023437 -0.0351563,0.082031 -0.0351563,0.1171875 0,0.035156 0.0117188,0.1054688 0.1171875,0.1054688 0.0820313,0 0.10546875,-0.035156 0.140625,-0.1757813 0.41015625,-1.1132812 0.63281246,-1.1835937 1.69921876,-1.1835937 h 0.2929688 c 0.2109375,0 0.2109375,0.011719 0.2109375,0.070312 0,0.011719 0,0.046875 -0.023437,0.1523437 l -0.9257814,3.66796878 c -0.058594,0.2578125 -0.082031,0.328125 -0.8085936,0.328125 -0.25781256,0 -0.31640631,0 -0.31640631,0.15234375 0,0.01171875 0.0117188,0.093749995 0.1171875,0.093749995 0.19921881,0 0.41015631,-0.023437495 0.59765631,-0.023437495 0.1992187,0 0.4101562,0 0.5976562,0 0.1992188,0 0.4335938,0 0.6328125,0 0.1875,0.01171875 0.3984375,0.023437495 0.5859375,0.023437495 0.058594,0 0.1640625,0 0.1640625,-0.152343745 0,-0.09375 -0.070312,-0.09375 -0.2929687,-0.09375 -0.1289063,0 -0.2695313,-0.0117187 -0.3984375,-0.0234375 -0.2460938,-0.0117188 -0.2578125,-0.046875 -0.2578125,-0.12890625 0,-0.046875 0,-0.0585938 0.035156,-0.1640625 z m 0,0"
       style="fill:#000000;fill-opacity:1;fill-rule:nonzero;stroke:none"
       aria-label="T"
       transform="matrix(1.3333333,0,0,1.3333333,74.285333,25.334667)" />
    <path
       id="path31"
       d="m 5.1437891,-6.8084062 c 0,0 0,-0.1054688 -0.1289063,-0.1054688 -0.1523437,0 -1.1015625,0.09375 -1.265625,0.1054688 -0.082031,0.011719 -0.140625,0.070312 -0.140625,0.1992187 0,0.1171875 0.082031,0.1171875 0.234375,0.1171875 0.4804688,0 0.5039063,0.070312 0.5039063,0.1640625 l -0.035156,0.1992188 -0.5976562,2.3671875 c -0.1757813,-0.375 -0.46875,-0.6445313 -0.9140625,-0.6445313 -1.171875,0 -2.40234379,1.4648438 -2.40234379,2.9179688 0,0.93749995 0.55078125,1.59374995 1.32421879,1.59374995 0.1992187,0 0.703125,-0.03515625 1.3007812,-0.73828125 0.070312,0.41015625 0.421875,0.73828125 0.9023438,0.73828125 0.3515625,0 0.5742187,-0.22265625 0.7382812,-0.5390625 C 4.8273828,-0.7966875 4.9562891,-1.4060625 4.9562891,-1.4295 c 0,-0.09375 -0.082031,-0.09375 -0.1171875,-0.09375 -0.09375,0 -0.1054688,0.035156 -0.140625,0.1757813 -0.1640625,0.6445312 -0.3515625,1.24218745 -0.75,1.24218745 -0.2695313,0 -0.3046875,-0.2578125 -0.3046875,-0.45703125 0,-0.24609375 0.023437,-0.31640625 0.058594,-0.4804687 z m -2.0742188,5.625 c -0.046875,0.1757812 -0.046875,0.1992187 -0.1992187,0.3632812 -0.4453125,0.55078125 -0.84375,0.71484375 -1.125,0.71484375 -0.5039063,0 -0.6445313,-0.55078125 -0.6445313,-0.93749995 0,-0.5039063 0.328125,-1.7226563 0.5507813,-2.1796875 0.3046875,-0.5976563 0.7617187,-0.9609375 1.1601562,-0.9609375 0.6445313,0 0.7851563,0.8203125 0.7851563,0.8789062 0,0.058594 -0.023437,0.1171875 -0.035156,0.1640625 z m 3.4394531,0.35156245 C 7.0480859,-1.4060625 7.3410547,-1.6521562 7.6926172,-1.9568437 c 0,-0.011719 0.6210937,-0.5390625 0.984375,-0.9023438 0.9375,-0.9257812 1.1601562,-1.40625 1.1601562,-1.4414062 0,-0.1054688 -0.09375,-0.1054688 -0.1054687,-0.1054688 -0.070312,0 -0.1054688,0.023437 -0.1523438,0.1171875 -0.3046875,0.46875 -0.5039062,0.6328125 -0.75,0.6328125 -0.234375,0 -0.3515625,-0.1523437 -0.5039062,-0.3164062 -0.1875,-0.234375 -0.3632813,-0.4335938 -0.6914063,-0.4335938 -0.75,0 -1.2070312,0.9257813 -1.2070312,1.1367188 0,0.046875 0.035156,0.1171875 0.1171875,0.1171875 0.09375,0 0.1171875,-0.058594 0.140625,-0.1171875 0.1875,-0.4570313 0.7617187,-0.46875 0.84375,-0.46875 0.2109375,0 0.3984375,0.070312 0.6210937,0.1523437 0.3984375,0.1523438 0.515625,0.1523438 0.7734375,0.1523438 -0.3632812,0.421875 -1.1953125,1.1367187 -1.3828125,1.3007812 l -0.9023437,0.8320313 c -0.6796875,0.6679687 -1.0195313,1.24218745 -1.0195313,1.31249995 0,0.09375 0.09375,0.09375 0.1171875,0.09375 0.082031,0 0.09375,-0.01171875 0.1523438,-0.12890625 0.234375,-0.33984375 0.5273437,-0.609375 0.8554687,-0.609375 0.2226563,0 0.328125,0.0820313 0.5742188,0.375 0.1640625,0.2109375 0.3515625,0.36328125 0.6328125,0.36328125 0.984375,0 1.5703125,-1.26562495 1.5703125,-1.53515625 0,-0.046875 -0.046875,-0.09375 -0.1171875,-0.09375 -0.09375,0 -0.1171875,0.058594 -0.140625,0.1289063 -0.234375,0.6445312 -0.8671875,0.8320312 -1.1953125,0.8320312 -0.1992188,0 -0.3867188,-0.0585938 -0.5859375,-0.12890625 -0.3398438,-0.12890625 -0.4921875,-0.1640625 -0.703125,-0.1640625 -0.023437,0 -0.1757813,0 -0.2695313,0.0234375 z m 0,0"
       style="fill:#000000;fill-opacity:1;fill-rule:nonzero;stroke:none"
       aria-label="dz"
       transform="matrix(1.3333333,0,0,1.3333333,82.653333,30.156)" />
    <path
       id="path32"
       d="M 2.0274375,1.7470469 V 1.4072031 H 1.2891562 v -6.2929687 h 0.7382813 v -0.3398438 h -1.078125 v 6.9726563 z m 3.7441406,-3.0117188 h -0.234375 c -0.023437,0.1523438 -0.082031,0.56250003 -0.1757812,0.63281253 -0.058594,0.0351563 -0.5976563,0.0351563 -0.6914063,0.0351563 H 3.3809531 C 4.1192344,-1.2412343 4.3653281,-1.4404531 4.7754844,-1.768578 c 0.515625,-0.4101564 0.9960937,-0.8437501 0.9960937,-1.5000001 0,-0.84375 -0.7382812,-1.359375 -1.6289062,-1.359375 -0.8671875,0 -1.453125,0.609375 -1.453125,1.2421875 0,0.3632812 0.3046875,0.3984375 0.375,0.3984375 0.1640625,0 0.375,-0.1171875 0.375,-0.375 0,-0.1289063 -0.058594,-0.3632813 -0.421875,-0.3632813 0.2226562,-0.5039062 0.6914062,-0.65625 1.0195312,-0.65625 0.703125,0 1.0664063,0.5507813 1.0664063,1.1132813 0,0.609375 -0.4335938,1.0898437 -0.65625,1.3359375 l -1.6875,1.66406253 c -0.070312,0.0585937 -0.070312,0.0703125 -0.070312,0.269531245 h 2.8828125 z m 1.7548828,-3.9609375 h -1.078125 v 0.3398438 H 7.1866172 V 1.4072031 H 6.4483359 v 0.3398438 h 1.078125 z m 0,0"
       style="fill:#000000;fill-opacity:1;fill-rule:nonzero;stroke:none"
       aria-label="[2]"
       transform="matrix(1.3333333,0,0,1.3333333,96.328,25.334667)" />
    <path
       id="path33"
       d="m 7.1947422,-2.4959062 c 0,-1.828125 -1.5,-3.3164063 -3.3164063,-3.3164063 -1.8515625,0 -3.32812496,1.5117188 -3.32812496,3.3164063 0,1.8398437 1.48828126,3.32812495 3.31640626,3.32812495 1.8515625,0 3.328125,-1.51171875 3.328125,-3.32812495 z M 3.8783359,0.57440625 c -1.7226562,0 -3.08203121,-1.3828125 -3.08203121,-3.07031245 0,-1.7109375 1.39453121,-3.0585938 3.07031251,-3.0585938 1.7109375,0 3.0703125,1.3828125 3.0703125,3.0585938 0,1.7226562 -1.3945313,3.07031245 -3.0585938,3.07031245 z M 4.5463047,-2.4959062 c 0,-0.375 -0.3046875,-0.6796875 -0.6679688,-0.6796875 -0.3984375,0 -0.6914062,0.328125 -0.6914062,0.6796875 0,0.3867187 0.3046875,0.6914062 0.6796875,0.6914062 0.3984375,0 0.6796875,-0.328125 0.6796875,-0.6914062 z m 0,0"
       style="fill:#000000;fill-opacity:1;fill-rule:nonzero;stroke:none"
       aria-label=""
       transform="matrix(1.3333333,0,0,1.3333333,111.25467,30.156)" />
    <path
       id="path34"
       d="m 4.6887969,-3.7498125 c 0.011719,-0.070312 0.035156,-0.1171875 0.035156,-0.1875 0,-0.1640625 -0.1171875,-0.2695312 -0.2929687,-0.2695312 -0.09375,0 -0.3632813,0.070312 -0.4101563,0.4335937 -0.1757812,-0.375 -0.5273437,-0.6328125 -0.9257812,-0.6328125 -1.1367188,0 -2.36718753,1.3945313 -2.36718753,2.8359375 0,0.984375 0.60937503,1.5703125 1.32421873,1.5703125 0.5859375,0 1.0546875,-0.46875 1.1601563,-0.57421875 l 0.011719,0.0117188 c -0.2109375,0.87890625 -0.328125,1.2890625 -0.328125,1.3125 -0.046875,0.0820313 -0.3867187,1.07812495 -1.4414062,1.07812495 -0.1875,0 -0.51562503,-0.011719 -0.79687503,-0.1054687 0.3046875,-0.09375 0.41015623,-0.3515625 0.41015623,-0.515625 0,-0.1640625 -0.10546873,-0.3515625 -0.37499998,-0.3515625 -0.22265625,0 -0.5390625,0.1757812 -0.5390625,0.5742187 0,0.4101563 0.36328125,0.609375 1.32421878,0.609375 1.2421875,0 1.9570312,-0.7734375 2.109375,-1.3710937 z m -1.2890625,2.4726563 c -0.058594,0.2578125 -0.2929688,0.51562495 -0.5039063,0.70312495 -0.2109375,0.17578125 -0.5273437,0.3515625 -0.8085937,0.3515625 -0.5039063,0 -0.65625,-0.515625 -0.65625,-0.91406245 0,-0.4804688 0.2929687,-1.6523438 0.5625,-2.15625 0.2695312,-0.4921875 0.703125,-0.890625 1.1132812,-0.890625 0.65625,0 0.796875,0.8085937 0.796875,0.8554687 0,0.046875 -0.011719,0.1054688 -0.023437,0.1523438 z m 0,0"
       style="fill:#000000;fill-opacity:1;fill-rule:nonzero;stroke:none"
       aria-label="g"
       transform="matrix(1.3333333,0,0,1.3333333,124.53733,30.156)" />
    <path
       id="path35"
       d="M 2.0260859,1.7470469 V 1.4072031 H 1.2878047 V -4.8857656 H 2.0260859 V -5.2256094 H 0.94796094 v 6.9726563 z m 2.5605469,-6.1757813 c 0,-0.1875 -0.011719,-0.1992187 -0.2109375,-0.1992187 -0.4453125,0.4335937 -1.078125,0.4453125 -1.359375,0.4453125 v 0.2460937 c 0.1640625,0 0.6210938,0 1.0078125,-0.1875 v 3.55078128 c 0,0.234375 0,0.328125 -0.6914062,0.328125 H 3.0631953 V 9.53125e-4 c 0.1289063,-0.011718745 0.984375,-0.023437495 1.2421875,-0.023437495 0.2109375,0 1.0898438,0.01171875 1.2421875,0.023437495 V -0.24514062 H 5.2897578 c -0.703125,0 -0.703125,-0.09375 -0.703125,-0.328125 z m 2.9414063,-0.796875 h -1.078125 v 0.3398438 H 7.1881953 V 1.4072031 H 6.4499141 v 0.3398438 h 1.078125 z m 0,0"
       style="fill:#000000;fill-opacity:1;fill-rule:nonzero;stroke:none"
       aria-label="[1]"
       transform="matrix(1.3333333,0,0,1.3333333,131.34933,25.334667)" />
    <path
       id="path36"
       d="m 1.7930859,-2.3192187 c 0,0 0.046875,-0.09375 0.046875,-0.1757813 0,-0.1757812 -0.1523437,-0.2929687 -0.3046875,-0.2929687 -0.2109375,0 -0.2578125,0.1640625 -0.28125,0.234375 l -0.77343746,2.15624995 c -0.0117188,0.0585938 -0.0117188,0.0703125 -0.0117188,0.0820313 0,0.0820313 0.19921875,0.12890625 0.2109375,0.12890625 0.046875,0 0.046875,-0.0234375 0.0820313,-0.0820313 z m 0,0"
       style="fill:#000000;fill-opacity:1;fill-rule:nonzero;stroke:none"
       aria-label="0"
       transform="matrix(1.3333333,0,0,1.3333333,142.66,21.326667)" />
    <path
       id="path37"
       d="m 3.2934453,2.3908125 c 0,-0.035156 0,-0.046875 -0.1640625,-0.2226562 C 1.8871953,0.91425 1.5590703,-0.96075 1.5590703,-2.4959062 c 0,-1.7226563 0.3867188,-3.4570313 1.6054688,-4.7109375 0.1289062,-0.1171875 0.1289062,-0.1289063 0.1289062,-0.1640625 0,-0.070312 -0.035156,-0.1054688 -0.09375,-0.1054688 -0.1054687,0 -0.9960937,0.6796875 -1.5820312,1.9453125 -0.515625,1.1015625 -0.63281254,2.203125 -0.63281254,3.0351563 0,0.7851562 0.11718754,1.99218745 0.65625004,3.11718745 0.5976562,1.21875005 1.453125,1.87500005 1.5585937,1.87500005 0.058594,0 0.09375,-0.035156 0.09375,-0.1054688 z m 0,0"
       style="fill:#000000;fill-opacity:1;fill-rule:nonzero;stroke:none"
       aria-label="("
       transform="matrix(1.3333333,0,0,1.3333333,146.91733,30.156)" />
    <path
       id="path38"
       d="M 1.3237422,-0.83184375 C 1.8628047,-1.4060625 2.1557734,-1.6521562 2.5073359,-1.9568437 c 0,-0.011719 0.6210938,-0.5390625 0.984375,-0.9023438 0.9375,-0.9257812 1.1601563,-1.40625 1.1601563,-1.4414062 0,-0.1054688 -0.09375,-0.1054688 -0.1054688,-0.1054688 -0.070312,0 -0.1054687,0.023437 -0.1523437,0.1171875 -0.3046875,0.46875 -0.5039063,0.6328125 -0.75,0.6328125 -0.234375,0 -0.3515625,-0.1523437 -0.5039063,-0.3164062 -0.1875,-0.234375 -0.3632812,-0.4335938 -0.6914062,-0.4335938 -0.75,0 -1.2070313,0.9257813 -1.2070313,1.1367188 0,0.046875 0.035156,0.1171875 0.1171875,0.1171875 0.09375,0 0.1171875,-0.058594 0.140625,-0.1171875 0.1875,-0.4570313 0.7617188,-0.46875 0.84375,-0.46875 0.2109375,0 0.3984375,0.070312 0.6210938,0.1523437 0.3984375,0.1523438 0.515625,0.1523438 0.7734375,0.1523438 -0.3632813,0.421875 -1.1953125,1.1367187 -1.3828125,1.3007812 l -0.9023438,0.8320313 c -0.67968746,0.6679687 -1.01953121,1.24218745 -1.01953121,1.31249995 0,0.09375 0.09375,0.09375 0.1171875,0.09375 0.0820313,0 0.09375,-0.01171875 0.15234375,-0.12890625 0.234375,-0.33984375 0.52734376,-0.609375 0.85546876,-0.609375 0.2226562,0 0.328125,0.0820313 0.5742187,0.375 0.1640625,0.2109375 0.3515625,0.36328125 0.6328125,0.36328125 0.984375,0 1.5703125,-1.26562495 1.5703125,-1.53515625 0,-0.046875 -0.046875,-0.09375 -0.1171875,-0.09375 -0.09375,0 -0.1171875,0.058594 -0.140625,0.1289063 -0.234375,0.6445312 -0.8671875,0.8320312 -1.1953125,0.8320312 -0.1992187,0 -0.3867187,-0.0585938 -0.5859375,-0.12890625 -0.3398437,-0.12890625 -0.4921875,-0.1640625 -0.703125,-0.1640625 -0.023437,0 -0.1757812,0 -0.2695312,0.0234375 z m 0,0"
       style="fill:#000000;fill-opacity:1;fill-rule:nonzero;stroke:none"
       aria-label="z"
       transform="matrix(1.3333333,0,0,1.3333333,152.08267,30.156)" />
    <path
       id="path39"
       d="M 2.0271563,1.7470469 V 1.4072031 H 1.288875 V -4.8857656 H 2.0271563 V -5.2256094 H 0.94903125 v 6.9726563 z m 2.5605468,-6.1757813 c 0,-0.1875 -0.011719,-0.1992187 -0.2109375,-0.1992187 -0.4453125,0.4335937 -1.078125,0.4453125 -1.359375,0.4453125 v 0.2460937 c 0.1640625,0 0.6210938,0 1.0078125,-0.1875 v 3.55078128 c 0,0.234375 0,0.328125 -0.6914062,0.328125 H 3.0642656 V 9.53125e-4 c 0.1289063,-0.011718745 0.984375,-0.023437495 1.2421875,-0.023437495 0.2109375,0 1.0898438,0.01171875 1.2421875,0.023437495 V -0.24514062 H 5.2908281 c -0.703125,0 -0.703125,-0.09375 -0.703125,-0.328125 z m 2.9384766,-0.796875 h -1.078125 v 0.3398438 H 7.1863359 V 1.4072031 H 6.4480547 v 0.3398438 h 1.078125 z m 0,0"
       style="fill:#000000;fill-opacity:1;fill-rule:nonzero;stroke:none"
       aria-label="[1]"
       transform="matrix(1.3333333,0,0,1.3333333,158.844,25.334667)" />
    <path
       id="path40"
       d="m 2.8821172,-2.4959062 c 0,-0.7734375 -0.1171875,-1.9804688 -0.65625,-3.1054688 -0.5976563,-1.21875 -1.46484376,-1.875 -1.55859376,-1.875 -0.0585938,0 -0.10546875,0.046875 -0.10546875,0.1054688 0,0.035156 0,0.046875 0.19921875,0.234375 0.97265626,0.984375 1.53515626,2.5664062 1.53515626,4.640625 0,1.71093745 -0.3632813,3.4570312 -1.59375001,4.7226562 -0.140625,0.1171875 -0.140625,0.1289063 -0.140625,0.1640625 0,0.058594 0.046875,0.1054688 0.10546875,0.1054688 0.09375,0 0.99609376,-0.6796875 1.58203126,-1.94531255 0.5039062,-1.1015625 0.6328125,-2.20312495 0.6328125,-3.04687495 z m 0,0"
       style="fill:#000000;fill-opacity:1;fill-rule:nonzero;stroke:none"
       aria-label=")"
       transform="matrix(1.3333333,0,0,1.3333333,170.81733,30.156)" />
    <path
       id="path41"
       d="m 29.54144,-0.59775 h -59.08288 c -4.6967,0 -8.50405,-3.80734 -8.50405,-8.50403 v 0 c 0,-4.6967 3.80735,-8.50404 8.50405,-8.50404 h 59.08288 c 4.6967,0 8.50405,3.80734 8.50405,8.50404 v 0 c 0,4.69669 -3.80735,8.50403 -8.50405,8.50403 z"
       style="fill:#ccffcc;fill-opacity:1;fill-rule:nonzero;stroke:#808080;stroke-width:1.19553;stroke-linecap:butt;stroke-linejoin:miter;stroke-miterlimit:10;stroke-dasharray:none;stroke-opacity:1"
       transform="matrix(1.3333333,0,0,-1.3333333,90.604,12.412)" />
    <path
       id="path42"
       d="m 5.1440469,-6.8086094 c 0,0 0,-0.1054687 -0.1289063,-0.1054687 -0.1523437,0 -1.1015625,0.09375 -1.265625,0.1054687 -0.082031,0.011719 -0.140625,0.070312 -0.140625,0.1992188 0,0.1171875 0.082031,0.1171875 0.234375,0.1171875 0.4804688,0 0.5039063,0.070312 0.5039063,0.1640625 l -0.035156,0.1992187 -0.5976562,2.3671875 c -0.1757813,-0.375 -0.46875,-0.6445312 -0.9140625,-0.6445312 -1.171875,0 -2.40234377,1.4648437 -2.40234377,2.9179687 0,0.93750003 0.55078125,1.59375003 1.32421877,1.59375003 0.1992187,0 0.703125,-0.03515625 1.3007812,-0.73828125 0.070312,0.41015625 0.421875,0.73828125 0.9023438,0.73828125 0.3515625,0 0.5742187,-0.22265625 0.7382812,-0.5390625 0.1640625,-0.36328125 0.2929688,-0.97265623 0.2929688,-0.99609373 0,-0.09375 -0.082031,-0.09375 -0.1171875,-0.09375 -0.09375,0 -0.1054688,0.035156 -0.140625,0.1757812 -0.1640625,0.64453128 -0.3515625,1.24218753 -0.75,1.24218753 -0.2695313,0 -0.3046875,-0.2578125 -0.3046875,-0.45703125 0,-0.24609375 0.023437,-0.31640625 0.058594,-0.48046878 z m -2.0742188,5.625 c -0.046875,0.1757813 -0.046875,0.19921878 -0.1992187,0.36328128 -0.4453125,0.55078125 -0.84375,0.71484375 -1.125,0.71484375 -0.5039063,0 -0.6445313,-0.55078125 -0.6445313,-0.93750003 0,-0.5039062 0.328125,-1.7226562 0.5507813,-2.1796875 0.3046875,-0.5976562 0.7617187,-0.9609375 1.1601562,-0.9609375 0.6445313,0 0.7851563,0.8203125 0.7851563,0.8789063 0,0.058594 -0.023437,0.1171875 -0.035156,0.1640625 z M 14.313969,-5.6484531 c 0.257812,-0.4335938 0.492187,-0.796875 1.125,-0.84375 0.08203,-0.011719 0.1875,-0.011719 0.1875,-0.1992188 0,-0.046875 -0.04687,-0.1171875 -0.117188,-0.1171875 -0.246093,0 -0.527343,0.035156 -0.773437,0.035156 -0.339844,0 -0.703125,-0.035156 -1.03125,-0.035156 -0.05859,0 -0.1875,0 -0.1875,0.1992188 0,0.1054687 0.08203,0.1171875 0.140625,0.1171875 0.246094,0.011719 0.597656,0.082031 0.597656,0.3867187 0,0.1054688 -0.05859,0.1875 -0.140625,0.328125 l -2.683594,4.6875 -0.363281,-4.9335937 c -0.01172,-0.1992188 -0.03516,-0.4570313 0.691406,-0.46875 0.164063,0 0.269532,0 0.269532,-0.1992188 0,-0.1054687 -0.105469,-0.1171875 -0.152344,-0.1171875 -0.398438,0 -0.808594,0.035156 -1.207031,0.035156 -0.234375,0 -0.820313,-0.035156 -1.054688,-0.035156 -0.058594,0 -0.1875,0 -0.1875,0.1992188 0,0.1171875 0.1054688,0.1171875 0.2460938,0.1171875 0.4335942,0 0.5039062,0.058594 0.5273442,0.2460937 l 0.05859,0.7617188 -2.519531,4.3945312 -0.3867187,-5.0507812 c 0,-0.1171875 0,-0.3398438 0.7617187,-0.3515625 0.09375,0 0.2109375,0 0.2109375,-0.1992188 0,-0.1171875 -0.1171875,-0.1171875 -0.140625,-0.1171875 -0.3984375,0 -0.8203125,0.035156 -1.2304687,0.035156 -0.3398438,0 -0.703125,-0.035156 -1.0429688,-0.035156 -0.046875,0 -0.1757812,0 -0.1757812,0.1992188 0,0.1171875 0.082031,0.1171875 0.2460937,0.1171875 0.5039063,0 0.5039063,0.082031 0.5273438,0.3632812 l 0.4453125,6.09375003 c 0.011719,0.17578125 0.023437,0.2578125 0.1640625,0.2578125 0.1171875,0 0.1523437,-0.0585938 0.234375,-0.2109375 l 2.9296877,-5.08593753 0.375,5.03906253 c 0.01172,0.19921875 0.03516,0.2578125 0.152344,0.2578125 0.128906,0 0.1875,-0.10546875 0.246093,-0.1875 z m 0,0"
       style="fill:#000000;fill-opacity:1;fill-rule:nonzero;stroke:none"
       aria-label="dW"
       transform="matrix(1.3333333,0,0,1.3333333,44.305333,30.445333)" />
    <path
       id="path43"
       d="M 2.027375,1.7468438 V 1.407 H 1.2890938 V -4.8859687 H 2.027375 V -5.2258125 H 0.94925 v 6.9726563 z m 2.5605469,-6.1757813 c 0,-0.1875 -0.011719,-0.1992187 -0.2109375,-0.1992187 -0.4453125,0.4335937 -1.078125,0.4453125 -1.359375,0.4453125 V -3.93675 c 0.1640625,0 0.6210937,0 1.0078125,-0.1875 v 3.55078125 c 0,0.234375 0,0.328125 -0.6914063,0.328125 H 3.0644844 V 7.5e-4 c 0.1289062,-0.01171875 0.984375,-0.0234375 1.2421875,-0.0234375 0.2109375,0 1.0898437,0.01171875 1.2421875,0.0234375 V -0.24534375 H 5.2910469 c -0.703125,0 -0.703125,-0.09375 -0.703125,-0.328125 z m 2.9384765,-0.796875 h -1.078125 v 0.3398438 H 7.1865547 V 1.407 H 6.4482734 v 0.3398438 h 1.078125 z m 0,0"
       style="fill:#000000;fill-opacity:1;fill-rule:nonzero;stroke:none"
       aria-label="[1]"
       transform="matrix(1.3333333,0,0,1.3333333,65.609333,25.624)" />
    <path
       id="path44"
       d="m 6.8448281,-3.2578281 c 0.1523438,0 0.3398438,0 0.3398438,-0.1992188 0,-0.1992187 -0.1875,-0.1992187 -0.328125,-0.1992187 H 0.89170313 c -0.140625,0 -0.328125,0 -0.328125,0.1992187 0,0.1992188 0.1875,0.1992188 0.33984375,0.1992188 z m 0.011719,1.9335937 c 0.140625,0 0.328125,0 0.328125,-0.1992187 0,-0.1992188 -0.1875,-0.1992188 -0.3398438,-0.1992188 H 0.90342188 c -0.15234375,0 -0.33984375,0 -0.33984375,0.1992188 0,0.1992187 0.1875,0.1992187 0.328125,0.1992187 z m 0,0"
       style="fill:#000000;fill-opacity:1;fill-rule:nonzero;stroke:none"
       aria-label="="
       transform="matrix(1.3333333,0,0,1.3333333,81.272,30.445333)" />
    <path
       id="path45"
       d="m 5.1442578,-6.8086094 c 0,0 0,-0.1054687 -0.1289062,-0.1054687 -0.1523438,0 -1.1015625,0.09375 -1.265625,0.1054687 -0.082031,0.011719 -0.140625,0.070312 -0.140625,0.1992188 0,0.1171875 0.082031,0.1171875 0.234375,0.1171875 0.4804687,0 0.5039062,0.070312 0.5039062,0.1640625 l -0.035156,0.1992187 -0.5976563,2.3671875 c -0.1757812,-0.375 -0.46875,-0.6445312 -0.9140625,-0.6445312 -1.171875,0 -2.40234374,1.4648437 -2.40234374,2.9179687 0,0.93750003 0.55078125,1.59375003 1.32421874,1.59375003 0.1992188,0 0.703125,-0.03515625 1.3007813,-0.73828125 0.070312,0.41015625 0.421875,0.73828125 0.9023437,0.73828125 0.3515625,0 0.5742188,-0.22265625 0.7382813,-0.5390625 0.1640625,-0.36328125 0.2929687,-0.97265623 0.2929687,-0.99609373 0,-0.09375 -0.082031,-0.09375 -0.1171875,-0.09375 -0.09375,0 -0.1054687,0.035156 -0.140625,0.1757812 -0.1640625,0.64453128 -0.3515625,1.24218753 -0.75,1.24218753 -0.2695312,0 -0.3046875,-0.2578125 -0.3046875,-0.45703125 0,-0.24609375 0.023437,-0.31640625 0.058594,-0.48046878 z m -2.0742187,5.625 c -0.046875,0.1757813 -0.046875,0.19921878 -0.1992188,0.36328128 -0.4453125,0.55078125 -0.84375,0.71484375 -1.125,0.71484375 -0.5039062,0 -0.6445312,-0.55078125 -0.6445312,-0.93750003 0,-0.5039062 0.328125,-1.7226562 0.5507812,-2.1796875 0.3046875,-0.5976562 0.7617188,-0.9609375 1.1601563,-0.9609375 0.6445312,0 0.7851562,0.8203125 0.7851562,0.8789063 0,0.058594 -0.023437,0.1171875 -0.035156,0.1640625 z m 3.4394531,0.35156253 C 7.0485547,-1.4062656 7.3415234,-1.6523594 7.6930859,-1.9570469 c 0,-0.011719 0.6210938,-0.5390625 0.984375,-0.9023437 0.9375,-0.9257813 1.1601563,-1.40625 1.1601563,-1.4414063 0,-0.1054687 -0.09375,-0.1054687 -0.1054688,-0.1054687 -0.070312,0 -0.1054687,0.023437 -0.1523437,0.1171875 -0.3046875,0.46875 -0.5039063,0.6328125 -0.75,0.6328125 -0.234375,0 -0.3515625,-0.1523438 -0.5039063,-0.3164063 -0.1875,-0.234375 -0.3632812,-0.4335937 -0.6914062,-0.4335937 -0.75,0 -1.2070313,0.9257812 -1.2070313,1.1367187 0,0.046875 0.035156,0.1171875 0.1171875,0.1171875 0.09375,0 0.1171875,-0.058594 0.140625,-0.1171875 0.1875,-0.4570312 0.7617188,-0.46875 0.84375,-0.46875 0.2109375,0 0.3984375,0.070312 0.6210938,0.1523438 0.3984375,0.1523437 0.515625,0.1523437 0.7734375,0.1523437 -0.3632813,0.421875 -1.1953125,1.1367188 -1.3828125,1.3007813 l -0.9023438,0.8320312 c -0.6796875,0.66796878 -1.0195312,1.24218753 -1.0195312,1.31250003 0,0.09375 0.09375,0.09375 0.1171875,0.09375 0.082031,0 0.09375,-0.01171875 0.1523437,-0.12890625 0.234375,-0.33984375 0.5273438,-0.609375 0.8554688,-0.609375 0.2226562,0 0.328125,0.0820313 0.5742187,0.375 0.1640625,0.2109375 0.3515625,0.36328125 0.6328125,0.36328125 0.984375,0 1.5703125,-1.26562503 1.5703125,-1.53515623 0,-0.046875 -0.046875,-0.09375 -0.1171875,-0.09375 -0.09375,0 -0.1171875,0.058594 -0.140625,0.1289062 -0.234375,0.64453128 -0.8671875,0.83203128 -1.1953125,0.83203128 -0.1992187,0 -0.3867187,-0.0585938 -0.5859375,-0.12890625 -0.3398437,-0.12890625 -0.4921875,-0.1640625 -0.703125,-0.1640625 -0.023437,0 -0.1757812,0 -0.2695312,0.0234375 z m 0,0"
       style="fill:#000000;fill-opacity:1;fill-rule:nonzero;stroke:none"
       aria-label="dz"
       transform="matrix(1.3333333,0,0,1.3333333,95.293333,30.445333)" />
    <path
       id="path46"
       d="M 2.0269062,1.7468438 V 1.407 H 1.288625 V -4.8859687 H 2.0269062 V -5.2258125 H 0.94878125 v 6.9726563 z m 2.5605469,-6.1757813 c 0,-0.1875 -0.011719,-0.1992187 -0.2109375,-0.1992187 -0.4453125,0.4335937 -1.078125,0.4453125 -1.359375,0.4453125 V -3.93675 c 0.1640625,0 0.6210938,0 1.0078125,-0.1875 v 3.55078125 c 0,0.234375 0,0.328125 -0.6914062,0.328125 H 3.0640156 V 7.5e-4 c 0.1289063,-0.01171875 0.984375,-0.0234375 1.2421875,-0.0234375 0.2109375,0 1.0898438,0.01171875 1.2421875,0.0234375 V -0.24534375 H 5.2905781 c -0.703125,0 -0.703125,-0.09375 -0.703125,-0.328125 z m 2.9384766,-0.796875 h -1.078125 v 0.3398438 H 7.1860859 V 1.407 H 6.4478047 v 0.3398438 h 1.078125 z m 0,0"
       style="fill:#000000;fill-opacity:1;fill-rule:nonzero;stroke:none"
       aria-label="[1]"
       transform="matrix(1.3333333,0,0,1.3333333,108.96933,25.624)" />
    <path
       id="path47"
       d="m 3.3271797,-3.0117344 c 0.058594,-0.2578125 0.2929687,-1.171875 0.984375,-1.171875 0.046875,0 0.2929687,0 0.5039062,0.1289063 -0.28125,0.046875 -0.4804687,0.3046875 -0.4804687,0.5390625 0,0.1640625 0.1054687,0.3515625 0.375,0.3515625 0.2226562,0 0.5390625,-0.1875 0.5390625,-0.5859375 0,-0.515625 -0.5859375,-0.65625 -0.9257813,-0.65625 -0.5742187,0 -0.9257812,0.5273437 -1.0429687,0.7617187 -0.2578125,-0.65625 -0.7851563,-0.7617187 -1.078125,-0.7617187 -1.0429688,0 -1.60546876,1.2890625 -1.60546876,1.5351562 0,0.1054688 0.10546875,0.1054688 0.1171875,0.1054688 0.0820313,0 0.1171875,-0.023437 0.12890625,-0.1171875 0.33984371,-1.0546875 0.99609371,-1.3007813 1.33593751,-1.3007813 0.1875,0 0.5390625,0.09375 0.5390625,0.6679688 0,0.3046875 -0.1640625,0.9726562 -0.5390625,2.3671875 -0.1523438,0.62109373 -0.5039063,1.04296873 -0.9492188,1.04296873 -0.058594,0 -0.28124996,0 -0.49218746,-0.12890625 0.24609375,-0.0585938 0.46874996,-0.26953125 0.46874996,-0.5390625 0,-0.26953128 -0.22265621,-0.35156248 -0.37499996,-0.35156248 -0.29296875,0 -0.5390625,0.25781248 -0.5390625,0.57421873 0,0.45703125 0.4921875,0.65625 0.93749996,0.65625 0.65625,0 1.0078125,-0.69140625 1.0429688,-0.75 0.1171875,0.36328125 0.4804687,0.75 1.078125,0.75 1.0195312,0 1.59375,-1.27734373 1.59375,-1.53515623 0,-0.09375 -0.09375,-0.09375 -0.1289063,-0.09375 -0.082031,0 -0.1054687,0.035156 -0.1289062,0.1054687 -0.328125,1.06640628 -0.9960938,1.31250003 -1.3242188,1.31250003 -0.3867187,0 -0.5390625,-0.328125 -0.5390625,-0.65625 0,-0.22265625 0.058594,-0.44531253 0.1640625,-0.87890623 z m 0,0"
       style="fill:#000000;fill-opacity:1;fill-rule:nonzero;stroke:none"
       aria-label="x"
       transform="matrix(1.3333333,0,0,1.3333333,120.94267,30.445333)" />
    <path
       id="path48"
       d="m 3.3870859,-4.218 c 0.046875,-0.1992187 0.070312,-0.2226562 0.2226563,-0.234375 0.035156,-0.011719 0.2695312,-0.011719 0.4101562,-0.011719 0.4335938,0 0.609375,0 0.7851563,0.058594 0.3164062,0.09375 0.328125,0.3046875 0.328125,0.5507813 0,0.1054687 0,0.1992187 -0.046875,0.5625 l -0.011719,0.082031 c 0,0.070312 0.046875,0.1054688 0.1171875,0.1054688 0.1054688,0 0.1171875,-0.070312 0.1289063,-0.1757813 l 0.1875,-1.3359375 c 0,-0.09375 -0.082031,-0.09375 -0.2109375,-0.09375 H 1.0081797 c -0.17578126,0 -0.18750001,0 -0.23437501,0.140625 L 0.34021094,-3.327375 c -0.0117188,0.023437 -0.0351563,0.082031 -0.0351563,0.1171875 0,0.035156 0.0117188,0.1054688 0.1171875,0.1054688 0.0820312,0 0.10546875,-0.035156 0.140625,-0.1757813 0.41015625,-1.1132812 0.63281256,-1.1835937 1.69921876,-1.1835937 h 0.2929688 c 0.2109375,0 0.2109375,0.011719 0.2109375,0.070312 0,0.011719 0,0.046875 -0.023437,0.1523437 l -0.9257813,3.66796875 c -0.058594,0.2578125 -0.082031,0.328125 -0.8085937,0.328125 -0.25781256,0 -0.31640631,0 -0.31640631,0.15234375 0,0.01171875 0.0117188,0.09375 0.1171875,0.09375 0.19921881,0 0.41015631,-0.0234375 0.59765631,-0.0234375 0.1992187,0 0.4101562,0 0.5976562,0 0.1992188,0 0.4335938,0 0.6328125,0 0.1875,0.01171875 0.3984375,0.0234375 0.5859375,0.0234375 0.058594,0 0.1640625,0 0.1640625,-0.15234375 0,-0.09375 -0.070312,-0.09375 -0.2929687,-0.09375 -0.1289063,0 -0.2695313,-0.0117188 -0.3984375,-0.0234375 -0.2460943,-0.0117183 -0.257813,-0.0468745 -0.257813,-0.12890575 0,-0.046875 0,-0.0585938 0.035156,-0.1640625 z m 0,0"
       style="fill:#000000;fill-opacity:1;fill-rule:nonzero;stroke:none"
       aria-label="T"
       transform="matrix(1.3333333,0,0,1.3333333,128.53467,25.624)" />
    <path
       id="path49"
       d="m 20.29768,-0.59775 h -40.59536 c -4.6967,0 -8.50405,-3.80734 -8.50405,-8.50403 v 0 c 0,-4.6967 3.80735,-8.50404 8.50405,-8.50404 h 40.59536 c 4.6967,0 8.50405,3.80734 8.50405,8.50404 v 0 c 0,4.69669 -3.80735,8.50403 -8.50405,8.50403 z"
       style="fill:#ccffcc;fill-opacity:1;fill-rule:nonzero;stroke:#808080;stroke-width:1.19553;stroke-linecap:butt;stroke-linejoin:miter;stroke-miterlimit:10;stroke-dasharray:none;stroke-opacity:1"
       transform="matrix(1.3333333,0,0,-1.3333333,90.604,12.412)" />
    <path
       id="path50"
       d="m 5.1442109,-6.8086094 c 0,0 0,-0.1054687 -0.1289062,-0.1054687 -0.1523438,0 -1.1015625,0.09375 -1.265625,0.1054687 -0.082031,0.011719 -0.140625,0.070312 -0.140625,0.1992188 0,0.1171875 0.082031,0.1171875 0.234375,0.1171875 0.4804687,0 0.5039062,0.070312 0.5039062,0.1640625 l -0.035156,0.1992187 -0.5976563,2.3671875 c -0.1757812,-0.375 -0.46875,-0.6445312 -0.9140625,-0.6445312 -1.171875,0 -2.40234371,1.4648437 -2.40234371,2.9179687 0,0.93750003 0.55078125,1.59375003 1.32421871,1.59375003 0.1992188,0 0.703125,-0.03515625 1.3007813,-0.73828125 0.070312,0.41015625 0.421875,0.73828125 0.9023437,0.73828125 0.3515625,0 0.5742188,-0.22265625 0.7382813,-0.5390625 0.1640625,-0.36328125 0.2929687,-0.97265623 0.2929687,-0.99609373 0,-0.09375 -0.082031,-0.09375 -0.1171875,-0.09375 -0.09375,0 -0.1054687,0.035156 -0.140625,0.1757812 -0.1640625,0.64453128 -0.3515625,1.24218753 -0.75,1.24218753 -0.2695312,0 -0.3046875,-0.2578125 -0.3046875,-0.45703125 0,-0.24609375 0.023437,-0.31640625 0.058594,-0.48046878 z m -2.0742187,5.625 c -0.046875,0.1757813 -0.046875,0.19921878 -0.1992188,0.36328128 -0.4453125,0.55078125 -0.84375,0.71484375 -1.125,0.71484375 -0.5039062,0 -0.6445312,-0.55078125 -0.6445312,-0.93750003 0,-0.5039062 0.328125,-1.7226562 0.5507812,-2.1796875 0.3046875,-0.5976562 0.7617188,-0.9609375 1.1601563,-0.9609375 0.6445312,0 0.7851562,0.8203125 0.7851562,0.8789063 0,0.058594 -0.023437,0.1171875 -0.035156,0.1640625 z m 4.4941406,-5.625 c 0,0 0,-0.1054687 -0.1289062,-0.1054687 -0.2226563,0 -0.9492188,0.082031 -1.21875,0.1054687 -0.070312,0 -0.1875,0.011719 -0.1875,0.1992188 0,0.1171875 0.09375,0.1171875 0.2460937,0.1171875 0.46875,0 0.4921875,0.070312 0.4921875,0.1640625 0,0.070312 -0.082031,0.4101562 -0.140625,0.6210937 l -0.8085937,3.2460938 c -0.1289063,0.5039062 -0.1640625,0.65625 -0.1640625,1.0078125 0,0.94921873 0.5273437,1.55859373 1.265625,1.55859373 1.171875,0 2.4023437,-1.47656253 2.4023437,-2.91796873 0,-0.9023438 -0.5273437,-1.59375 -1.3242187,-1.59375 -0.4570313,0 -0.8671875,0.2929687 -1.171875,0.5976562 z m -0.9375,3.7734375 c 0.058594,-0.2226562 0.058594,-0.2460937 0.1523438,-0.3515625 0.4921875,-0.6445312 0.9375,-0.796875 1.1953125,-0.796875 0.3632812,0 0.6328125,0.2929688 0.6328125,0.9375 0,0.5859375 -0.328125,1.734375 -0.515625,2.109375 -0.328125,0.66796878 -0.7851563,1.03125003 -1.171875,1.03125003 -0.3398438,0 -0.6679688,-0.26953125 -0.6679688,-1.00781253 0,-0.1875 0,-0.3867187 0.1640625,-1.0078125 z m 0,0"
       style="fill:#000000;fill-opacity:1;fill-rule:nonzero;stroke:none"
       aria-label="db"
       transform="matrix(1.3333333,0,0,1.3333333,56.629333,30.445333)" />
    <path
       id="path51"
       d="M 2.0259844,1.7468438 V 1.407 H 1.2877031 V -4.8859687 H 2.0259844 V -5.2258125 H 0.94785938 v 6.9726563 z m 2.5605468,-6.1757813 c 0,-0.1875 -0.011719,-0.1992187 -0.2109375,-0.1992187 -0.4453124,0.4335937 -1.0781249,0.4453125 -1.3593749,0.4453125 V -3.93675 c 0.1640625,0 0.6210937,0 1.0078124,-0.1875 v 3.55078125 c 0,0.234375 0,0.328125 -0.6914062,0.328125 H 3.0630938 V 7.5e-4 C 3.192,-0.01096875 4.0474687,-0.0226875 4.3052812,-0.0226875 c 0.2109375,0 1.0898438,0.01171875 1.2421875,0.0234375 V -0.24534375 H 5.2896562 c -0.703125,0 -0.703125,-0.09375 -0.703125,-0.328125 z m 2.9414063,-0.796875 h -1.078125 v 0.3398438 H 7.1880937 V 1.407 H 6.4498125 v 0.3398438 h 1.078125 z m 0,0"
       style="fill:#000000;fill-opacity:1;fill-rule:nonzero;stroke:none"
       aria-label="[1]"
       transform="matrix(1.3333333,0,0,1.3333333,69.244,25.624)" />
    <path
       id="path52"
       d="m 6.8424375,-3.2578281 c 0.1523438,0 0.3398438,0 0.3398438,-0.1992188 0,-0.1992187 -0.1875,-0.1992187 -0.328125,-0.1992187 H 0.8893125 c -0.140625,0 -0.328125,0 -0.328125,0.1992187 0,0.1992188 0.1875,0.1992188 0.33984375,0.1992188 z m 0.011719,1.9335937 c 0.140625,0 0.328125,0 0.328125,-0.1992187 0,-0.1992188 -0.1875,-0.1992188 -0.3398438,-0.1992188 H 0.90103125 c -0.15234375,0 -0.33984375,0 -0.33984375,0.1992188 0,0.1992187 0.1875,0.1992187 0.328125,0.1992187 z m 0,0"
       style="fill:#000000;fill-opacity:1;fill-rule:nonzero;stroke:none"
       aria-label="="
       transform="matrix(1.3333333,0,0,1.3333333,84.908,30.445333)" />
    <path
       id="path53"
       d="m 5.1447969,-6.8086094 c 0,0 0,-0.1054687 -0.1289063,-0.1054687 -0.1523437,0 -1.1015625,0.09375 -1.265625,0.1054687 -0.082031,0.011719 -0.140625,0.070312 -0.140625,0.1992188 0,0.1171875 0.082031,0.1171875 0.234375,0.1171875 0.4804688,0 0.5039063,0.070312 0.5039063,0.1640625 l -0.035156,0.1992187 -0.5976562,2.3671875 c -0.1757813,-0.375 -0.46875,-0.6445312 -0.9140625,-0.6445312 -1.171875,0 -2.40234378,1.4648437 -2.40234378,2.9179687 0,0.93750003 0.55078125,1.59375003 1.32421878,1.59375003 0.1992187,0 0.703125,-0.03515625 1.3007812,-0.73828125 0.070312,0.41015625 0.421875,0.73828125 0.9023438,0.73828125 0.3515625,0 0.5742187,-0.22265625 0.7382812,-0.5390625 0.1640625,-0.36328125 0.2929688,-0.97265623 0.2929688,-0.99609373 0,-0.09375 -0.082031,-0.09375 -0.1171875,-0.09375 -0.09375,0 -0.1054688,0.035156 -0.140625,0.1757812 -0.1640625,0.64453128 -0.3515625,1.24218753 -0.75,1.24218753 -0.2695313,0 -0.3046875,-0.2578125 -0.3046875,-0.45703125 0,-0.24609375 0.023437,-0.31640625 0.058594,-0.48046878 z m -2.0742188,5.625 c -0.046875,0.1757813 -0.046875,0.19921878 -0.1992187,0.36328128 -0.4453125,0.55078125 -0.84375,0.71484375 -1.125,0.71484375 -0.5039063,0 -0.6445313,-0.55078125 -0.6445313,-0.93750003 0,-0.5039062 0.328125,-1.7226562 0.5507813,-2.1796875 0.3046875,-0.5976562 0.7617187,-0.9609375 1.1601562,-0.9609375 0.6445313,0 0.7851563,0.8203125 0.7851563,0.8789063 0,0.058594 -0.023437,0.1171875 -0.035156,0.1640625 z m 3.4394531,0.35156253 C 7.0490937,-1.4062656 7.3420625,-1.6523594 7.693625,-1.9570469 c 0,-0.011719 0.6210937,-0.5390625 0.984375,-0.9023437 0.9375,-0.9257813 1.1601562,-1.40625 1.1601562,-1.4414063 0,-0.1054687 -0.09375,-0.1054687 -0.1054687,-0.1054687 -0.070312,0 -0.1054688,0.023437 -0.1523438,0.1171875 -0.3046875,0.46875 -0.5039062,0.6328125 -0.75,0.6328125 -0.234375,0 -0.3515625,-0.1523438 -0.5039062,-0.3164063 -0.1875,-0.234375 -0.3632813,-0.4335937 -0.6914063,-0.4335937 -0.75,0 -1.2070312,0.9257812 -1.2070312,1.1367187 0,0.046875 0.035156,0.1171875 0.1171875,0.1171875 0.09375,0 0.1171875,-0.058594 0.140625,-0.1171875 0.1875,-0.4570312 0.7617187,-0.46875 0.84375,-0.46875 0.2109375,0 0.3984375,0.070312 0.6210937,0.1523438 0.3984375,0.1523437 0.515625,0.1523437 0.7734375,0.1523437 -0.3632812,0.421875 -1.1953125,1.1367188 -1.3828125,1.3007813 L 6.6389375,-1.3007969 C 5.95925,-0.63282812 5.6194062,-0.05860937 5.6194062,0.01170313 c 0,0.09375 0.09375,0.09375 0.1171875,0.09375 0.082031,0 0.09375,-0.01171875 0.1523438,-0.12890625 0.234375,-0.33984375 0.5273437,-0.609375 0.8554687,-0.609375 0.2226563,0 0.328125,0.0820313 0.5742188,0.375 0.1640625,0.2109375 0.3515625,0.36328125 0.6328125,0.36328125 0.984375,0 1.5703125,-1.26562503 1.5703125,-1.53515623 0,-0.046875 -0.046875,-0.09375 -0.1171875,-0.09375 -0.09375,0 -0.1171875,0.058594 -0.140625,0.1289062 -0.234375,0.64453128 -0.8671875,0.83203128 -1.1953125,0.83203128 -0.1992188,0 -0.3867188,-0.0585938 -0.5859375,-0.12890625 -0.3398438,-0.12890625 -0.4921875,-0.1640625 -0.703125,-0.1640625 -0.023437,0 -0.1757813,0 -0.2695313,0.0234375 z m 0,0"
       style="fill:#000000;fill-opacity:1;fill-rule:nonzero;stroke:none"
       aria-label="dz"
       transform="matrix(1.3333333,0,0,1.3333333,98.929333,30.445333)" />
    <path
       id="path54"
       d="M 2.0274453,1.7468438 V 1.407 H 1.2891641 V -4.8859687 H 2.0274453 V -5.2258125 H 0.94932031 v 6.9726563 z m 2.5605469,-6.1757813 c 0,-0.1875 -0.011719,-0.1992187 -0.2109375,-0.1992187 -0.4453125,0.4335937 -1.078125,0.4453125 -1.359375,0.4453125 V -3.93675 c 0.1640625,0 0.6210937,0 1.0078125,-0.1875 v 3.55078125 c 0,0.234375 0,0.328125 -0.6914063,0.328125 H 3.0645547 V 7.5e-4 c 0.1289062,-0.01171875 0.984375,-0.0234375 1.2421875,-0.0234375 0.2109375,0 1.0898437,0.01171875 1.2421875,0.0234375 V -0.24534375 H 5.2911172 c -0.703125,0 -0.703125,-0.09375 -0.703125,-0.328125 z m 2.9384765,-0.796875 h -1.078125 v 0.3398438 H 7.186625 V 1.407 H 6.4483437 v 0.3398438 h 1.078125 z m 0,0"
       style="fill:#000000;fill-opacity:1;fill-rule:nonzero;stroke:none"
       aria-label="[1]"
       transform="matrix(1.3333333,0,0,1.3333333,112.60533,25.624)" />
    <path
       id="path55"
       d="m 0,-9.30984 v 8.85157"
       style="fill:none;stroke:#000000;stroke-width:0.3985;stroke-linecap:butt;stroke-linejoin:miter;stroke-miterlimit:10;stroke-dasharray:none;stroke-opacity:1"
       transform="matrix(1.3333333,0,0,-1.3333333,90.604,12.412)" />
    <path
       id="path56"
       d="M -1.19551,1.59401 C -1.09587,0.99626 0,0.09961 0.29886,0 0,-0.09961 -1.09587,-0.99626 -1.19551,-1.59401"
       style="fill:none;stroke:#000000;stroke-width:0.31879;stroke-linecap:round;stroke-linejoin:round;stroke-miterlimit:10;stroke-dasharray:none;stroke-opacity:1"
       transform="matrix(0,-1.3333333,-1.3333333,0,90.604,13.023027)" />
    <path
       id="path57"
       d="m 0,-18.20357 v 17.7453"
       style="fill:none;stroke:#000000;stroke-width:0.3985;stroke-linecap:butt;stroke-linejoin:miter;stroke-miterlimit:10;stroke-dasharray:none;stroke-opacity:1"
       transform="matrix(1.3333333,0,0,-1.3333333,90.604,12.412)" />
    <path
       id="path58"
       d="M -1.19551,1.59401 C -1.09587,0.99626 0,0.09961 0.29886,0 0,-0.09961 -1.09587,-0.99626 -1.19551,-1.59401"
       style="fill:none;stroke:#000000;stroke-width:0.31879;stroke-linecap:round;stroke-linejoin:round;stroke-miterlimit:10;stroke-dasharray:none;stroke-opacity:1"
       transform="matrix(0,-1.3333333,-1.3333333,0,90.604,13.023027)" />
    <path
       id="path59"
       d="m 0,-18.20357 v 17.7453"
       style="fill:none;stroke:#000000;stroke-width:0.3985;stroke-linecap:butt;stroke-linejoin:miter;stroke-miterlimit:10;stroke-dasharray:none;stroke-opacity:1"
       transform="matrix(1.3333333,0,0,-1.3333333,90.604,12.412)" />
    <path
       id="path60"
       d="M -1.19551,1.59401 C -1.09587,0.99626 0,0.09961 0.29886,0 0,-0.09961 -1.09587,-0.99626 -1.19551,-1.59401"
       style="fill:none;stroke:#000000;stroke-width:0.31879;stroke-linecap:round;stroke-linejoin:round;stroke-miterlimit:10;stroke-dasharray:none;stroke-opacity:1"
       transform="matrix(0,-1.3333333,-1.3333333,0,90.604,13.023027)" />
    <path
       id="path61"
       d="M 0,-19.71675 V -0.45827"
       style="fill:none;stroke:#000000;stroke-width:0.3985;stroke-linecap:butt;stroke-linejoin:miter;stroke-miterlimit:10;stroke-dasharray:none;stroke-opacity:1"
       transform="matrix(1.3333333,0,0,-1.3333333,90.604,12.412)" />
    <path
       id="path62"
       d="M -1.19551,1.59401 C -1.09587,0.99626 0,0.09961 0.29886,0 0,-0.09961 -1.09587,-0.99626 -1.19551,-1.59401"
       style="fill:none;stroke:#000000;stroke-width:0.31879;stroke-linecap:round;stroke-linejoin:round;stroke-miterlimit:10;stroke-dasharray:none;stroke-opacity:1"
       transform="matrix(0,-1.3333333,-1.3333333,0,90.604,13.023027)" />
    <path
       id="path63"
       d="m 0,-18.20357 v 17.7453"
       style="fill:none;stroke:#000000;stroke-width:0.3985;stroke-linecap:butt;stroke-linejoin:miter;stroke-miterlimit:10;stroke-dasharray:none;stroke-opacity:1"
       transform="matrix(1.3333333,0,0,-1.3333333,90.604,12.412)" />
    <path
       id="path64"
       d="M -1.19551,1.59401 C -1.09587,0.99626 0,0.09961 0.29886,0 0,-0.09961 -1.09587,-0.99626 -1.19551,-1.59401"
       style="fill:none;stroke:#000000;stroke-width:0.31879;stroke-linecap:round;stroke-linejoin:round;stroke-miterlimit:10;stroke-dasharray:none;stroke-opacity:1"
       transform="matrix(0,-1.3333333,-1.3333333,0,90.604,13.023027)" />
  </g>
</svg>
