<?xml version="1.0" encoding="UTF-8" standalone="no"?>
<!-- Created with Inkscape (http://www.inkscape.org/) -->

<svg
   version="1.1"
   id="svg1"
   width="126.164"
   height="38.612"
   viewBox="0 0 126.164 38.612"
   xmlns="http://www.w3.org/2000/svg"
   xmlns:svg="http://www.w3.org/2000/svg">
  <defs
     id="defs1" />
  <g
     id="g1">
    <path
       id="path1"
       d="m 24.37103,8.98883 h -48.74206 c -4.69669,0 -8.50403,-3.80734 -8.50403,-8.50403 v -0.9696 c 0,-4.69669 3.80734,-8.50403 8.50403,-8.50403 h 48.74206 c 4.69669,0 8.50403,3.80734 8.50403,8.50403 v 0.9696 c 0,4.69669 -3.80734,8.50403 -8.50403,8.50403 z"
       style="fill:#ccffcc;fill-opacity:1;fill-rule:nonzero;stroke:#808080;stroke-width:1.19553;stroke-linecap:butt;stroke-linejoin:miter;stroke-miterlimit:10;stroke-dasharray:none;stroke-opacity:1"
       transform="matrix(1.3333333,0,0,-1.3333333,63.082667,12.782667)" />
    <path
       id="path2"
       d="m 3.2918047,2.3912734 c 0,-0.035156 0,-0.046875 -0.1640625,-0.2226562 -1.2421875,-1.25390626 -1.5703125,-3.12890626 -1.5703125,-4.6640625 0,-1.7226563 0.3867187,-3.4570313 1.6054687,-4.7109375 0.1289063,-0.1171875 0.1289063,-0.1289063 0.1289063,-0.1640625 0,-0.070312 -0.035156,-0.1054688 -0.09375,-0.1054688 -0.1054688,0 -0.9960938,0.6796875 -1.5820313,1.9453125 -0.515625,1.1015625 -0.63281246,2.203125 -0.63281246,3.0351563 0,0.7851562 0.11718746,1.99218749 0.65624996,3.11718749 0.5976563,1.21875001 1.453125,1.87500001 1.5585938,1.87500001 0.058594,0 0.09375,-0.035156 0.09375,-0.1054688 z m 0,0"
       style="fill:#000000;fill-opacity:1;fill-rule:nonzero;stroke:none"
       aria-label="("
       transform="matrix(1.3333333,0,0,1.3333333,23.677333,17.018667)" />
    <path
       id="path3"
       d="m 3.3289375,-3.0110703 c 0.058594,-0.2578125 0.2929688,-1.171875 0.984375,-1.171875 0.046875,0 0.2929688,0 0.5039063,0.1289062 -0.28125,0.046875 -0.4804688,0.3046875 -0.4804688,0.5390625 0,0.1640625 0.1054688,0.3515625 0.375,0.3515625 0.2226563,0 0.5390625,-0.1875 0.5390625,-0.5859375 0,-0.515625 -0.5859375,-0.65625 -0.9257812,-0.65625 -0.5742188,0 -0.9257813,0.5273438 -1.0429688,0.7617188 -0.2578125,-0.65625 -0.7851562,-0.7617188 -1.078125,-0.7617188 -1.0429687,0 -1.60546875,1.2890625 -1.60546875,1.5351563 0,0.1054687 0.10546875,0.1054687 0.1171875,0.1054687 0.0820313,0 0.1171875,-0.023437 0.12890625,-0.1171875 0.3398438,-1.0546875 0.9960938,-1.3007812 1.3359375,-1.3007812 0.1875,0 0.5390625,0.09375 0.5390625,0.6679687 0,0.3046875 -0.1640625,0.9726563 -0.5390625,2.3671875 -0.1523437,0.62109379 -0.5039062,1.04296879 -0.9492187,1.04296879 -0.058594,0 -0.28125005,0 -0.49218755,-0.12890625 0.24609375,-0.0585938 0.46875005,-0.26953125 0.46875005,-0.5390625 0,-0.26953124 -0.2226563,-0.35156254 -0.37500005,-0.35156254 -0.29296875,0 -0.5390625,0.25781254 -0.5390625,0.57421879 0,0.45703125 0.4921875,0.65625 0.93750005,0.65625 0.65625,0 1.0078125,-0.69140625 1.0429687,-0.75 0.1171875,0.36328125 0.4804688,0.75 1.078125,0.75 1.0195313,0 1.59375,-1.27734379 1.59375,-1.53515629 0,-0.09375 -0.09375,-0.09375 -0.1289062,-0.09375 -0.082031,0 -0.1054688,0.035156 -0.1289063,0.1054688 -0.328125,1.06640624 -0.9960937,1.31249999 -1.3242187,1.31249999 -0.3867188,0 -0.5390625,-0.328125 -0.5390625,-0.65625 0,-0.22265625 0.058594,-0.44531249 0.1640625,-0.87890629 z m 4.3916016,2.99999999 c 0,-0.65625 -0.2578125,-1.04296879 -0.6445313,-1.04296879 -0.328125,0 -0.5273437,0.24609379 -0.5273437,0.52734379 0,0.26953125 0.1992187,0.5273437475 0.5273437,0.5273437475 0.1171875,0 0.2460938,-0.0351562475 0.3515625,-0.1289062475 0.023437,-0.0234375 0.035156,-0.0351563 0.046875,-0.0351563 0.011719,0 0.023437,0.0117188 0.023437,0.15234375 0,0.73828125 -0.3515625,1.33593746 -0.6796875,1.66406246 -0.1054687,0.1054688 -0.1054687,0.1289063 -0.1054687,0.1640625 0,0.070312 0.046875,0.1054688 0.09375,0.1054688 0.1171875,0 0.9140625,-0.7617187 0.914063,-1.93359371 z M 19.243,-5.6477891 c 0.257813,-0.4335937 0.492188,-0.796875 1.125,-0.84375 0.08203,-0.011719 0.1875,-0.011719 0.1875,-0.1992187 0,-0.046875 -0.04687,-0.1171875 -0.117187,-0.1171875 -0.246094,0 -0.527344,0.035156 -0.773438,0.035156 -0.339844,0 -0.703125,-0.035156 -1.03125,-0.035156 -0.05859,0 -0.1875,0 -0.1875,0.1992187 0,0.1054688 0.08203,0.1171875 0.140625,0.1171875 0.246094,0.011719 0.597656,0.082031 0.597656,0.3867188 0,0.1054687 -0.05859,0.1875 -0.140625,0.328125 l -2.683593,4.6875 -0.363282,-4.9335938 c -0.01172,-0.1992187 -0.03516,-0.4570312 0.691407,-0.46875 0.164062,0 0.269531,0 0.269531,-0.1992187 0,-0.1054688 -0.105469,-0.1171875 -0.152344,-0.1171875 -0.398437,0 -0.808594,0.035156 -1.207031,0.035156 -0.234375,0 -0.820313,-0.035156 -1.054688,-0.035156 -0.05859,0 -0.1875,0 -0.1875,0.1992187 0,0.1171875 0.105469,0.1171875 0.246094,0.1171875 0.433594,0 0.503906,0.058594 0.527344,0.2460938 l 0.05859,0.7617187 -2.519532,4.3945313 -0.386718,-5.0507813 c 0,-0.1171875 0,-0.3398437 0.761718,-0.3515625 0.09375,0 0.210938,0 0.210938,-0.1992187 0,-0.1171875 -0.117188,-0.1171875 -0.140625,-0.1171875 -0.398438,0 -0.820313,0.035156 -1.230469,0.035156 -0.339844,0 -0.703125,-0.035156 -1.042969,-0.035156 -0.04687,0 -0.175781,0 -0.175781,0.1992187 0,0.1171875 0.08203,0.1171875 0.246094,0.1171875 0.503906,0 0.503906,0.082031 0.527344,0.3632813 l 0.445312,6.09374999 c 0.01172,0.17578125 0.02344,0.2578125 0.164063,0.2578125 0.117187,0 0.152343,-0.0585938 0.234375,-0.2109375 l 2.929687,-5.08593749 0.375,5.03906249 c 0.01172,0.19921875 0.03516,0.2578125 0.152344,0.2578125 0.128906,0 0.1875,-0.10546875 0.246094,-0.1875 z m 0,0"
       style="fill:#000000;fill-opacity:1;fill-rule:nonzero;stroke:none"
       aria-label="x,W"
       transform="matrix(1.3333333,0,0,1.3333333,28.842667,17.018667)" />
    <path
       id="path4"
       d="M 2.0281953,1.7465078 V 1.4066641 H 1.2899141 V -4.8863047 H 2.0281953 V -5.2261484 H 0.95007031 v 6.9726562 z m 2.5605469,-6.1757812 c 0,-0.1875 -0.011719,-0.1992188 -0.2109375,-0.1992188 -0.4453125,0.4335938 -1.078125,0.4453125 -1.359375,0.4453125 v 0.2460938 c 0.1640625,0 0.6210937,0 1.0078125,-0.1875 v 3.55078121 c 0,0.234375 0,0.328125 -0.6914063,0.328125 H 3.0653047 V 4.140625e-4 C 3.1942109,-0.01130469 4.0496797,-0.02302344 4.3074922,-0.02302344 c 0.2109375,0 1.0898437,0.01171875 1.2421875,0.0234375025 V -0.24567969 H 5.2918672 c -0.703125,0 -0.703125,-0.09375 -0.703125,-0.328125 z m 2.9384766,-0.796875 h -1.078125 v 0.3398437 H 7.187375 V 1.4066641 H 6.4490938 v 0.3398437 h 1.078125 z m 0,0"
       style="fill:#000000;fill-opacity:1;fill-rule:nonzero;stroke:none"
       aria-label="[1]"
       transform="matrix(1.3333333,0,0,1.3333333,56.729333,12.198667)" />
    <path
       id="path5"
       d="m 2.0276875,-0.01107031 c 0,-0.65625 -0.2578125,-1.04296879 -0.6445312,-1.04296879 -0.328125,0 -0.5273438,0.24609379 -0.5273438,0.52734379 0,0.26953125 0.1992188,0.5273437475 0.5273438,0.5273437475 0.1171875,0 0.2460937,-0.0351562475 0.3515625,-0.1289062475 0.023437,-0.0234375 0.035156,-0.0351563 0.046875,-0.0351563 0.011719,0 0.023437,0.0117188 0.023437,0.15234375 0,0.73828125 -0.3515625,1.33593746 -0.6796875,1.66406246 C 1.019875,1.7584609 1.019875,1.7818984 1.019875,1.8170547 c 0,0.070312 0.046875,0.1054687 0.09375,0.1054687 0.1171875,0 0.9140625,-0.7617187 0.9140625,-1.93359371 z m 3.9873047,-0.76171875 c -0.09375,0.38671875 -0.1171875,0.46875 -0.9023438,0.46875 -0.1757812,0 -0.2695312,0 -0.2695312,0.19921875 0,0.1054687475 0.082031,0.1054687475 0.2695312,0.1054687475 h 3.5507813 c 1.5703123,0 2.7539063,-1.1718750375 2.7539063,-2.1562500375 0,-0.7148437 -0.585938,-1.2890625 -1.5468751,-1.3945312 1.0312501,-0.1992188 2.0859371,-0.9375 2.0859371,-1.875 0,-0.7382813 -0.65625,-1.3828125 -1.851562,-1.3828125 H 6.7532734 c -0.1875,0 -0.2929687,0 -0.2929687,0.1992187 0,0.1171875 0.09375,0.1171875 0.28125,0.1171875 0.023437,0 0.2109375,0 0.375,0.011719 0.1875,0.023437 0.2695312,0.035156 0.2695312,0.1640625 0,0.035156 -0.011719,0.070312 -0.035156,0.1875 z m 1.5,-2.87109374 0.6210937,-2.4726563 c 0.09375,-0.3515625 0.1054688,-0.375 0.5390625,-0.375 h 1.2890625 c 0.8671871,0 1.0781251,0.5859375 1.0781251,1.0195313 0,0.8789062 -0.855469,1.828125 -2.0742188,1.828125 z m -0.4453125,3.33984374 c -0.140625,0 -0.1523438,0 -0.2226563,-0.0117188 -0.09375,-0.0117188 -0.1289062,-0.0234375 -0.1289062,-0.10546875 0,-0.0234375 0,-0.046875 0.058594,-0.22265625 L 7.4563984,-3.4212266 h 1.8867188 c 0.9609378,0 1.1484378,0.7265625 1.1484378,1.1601563 0,0.984375 -0.8906253,1.95703124 -2.0625003,1.95703124 z m 0,0"
       style="fill:#000000;fill-opacity:1;fill-rule:nonzero;stroke:none"
       aria-label=",B"
       transform="matrix(1.3333333,0,0,1.3333333,68.702667,17.018667)" />
    <path
       id="path6"
       d="M 2.0270859,1.7465078 V 1.4066641 H 1.2888047 V -4.8863047 H 2.0270859 V -5.2261484 H 0.94896094 v 6.9726562 z m 2.5605469,-6.1757812 c 0,-0.1875 -0.011719,-0.1992188 -0.2109375,-0.1992188 -0.4453125,0.4335938 -1.078125,0.4453125 -1.359375,0.4453125 v 0.2460938 c 0.1640625,0 0.6210938,0 1.0078125,-0.1875 v 3.55078121 c 0,0.234375 0,0.328125 -0.6914062,0.328125 H 3.0641953 V 4.140625e-4 C 3.1931016,-0.01130469 4.0485703,-0.02302344 4.3063828,-0.02302344 c 0.2109375,0 1.0898438,0.01171875 1.2421875,0.0234375025 V -0.24567969 H 5.2907578 c -0.703125,0 -0.703125,-0.09375 -0.703125,-0.328125 z m 2.9384766,-0.796875 h -1.078125 v 0.3398437 H 7.1862656 V 1.4066641 H 6.4479844 v 0.3398437 h 1.078125 z m 0,0"
       style="fill:#000000;fill-opacity:1;fill-rule:nonzero;stroke:none"
       aria-label="[1]"
       transform="matrix(1.3333333,0,0,1.3333333,85.348,12.198667)" />
    <path
       id="path7"
       d="m 2.8820469,-2.4954453 c 0,-0.7734375 -0.1171875,-1.9804688 -0.65625,-3.1054688 -0.5976563,-1.21875 -1.46484378,-1.875 -1.55859378,-1.875 -0.0585938,0 -0.10546875,0.046875 -0.10546875,0.1054688 0,0.035156 0,0.046875 0.19921875,0.234375 0.97265628,0.984375 1.53515628,2.5664062 1.53515628,4.640625 0,1.71093749 -0.3632813,3.45703124 -1.59375003,4.7226562 -0.140625,0.1171875 -0.140625,0.1289063 -0.140625,0.1640625 0,0.058594 0.046875,0.1054688 0.10546875,0.1054688 0.09375,0 0.99609378,-0.6796875 1.58203128,-1.94531251 0.5039062,-1.1015625 0.6328125,-2.20312499 0.6328125,-3.04687499 z m 0,0"
       style="fill:#000000;fill-opacity:1;fill-rule:nonzero;stroke:none"
       aria-label=")"
       transform="matrix(1.3333333,0,0,1.3333333,97.321333,17.018667)" />
    <path
       id="path8"
       d="m 35.82472,-0.59775 h -71.64944 c -4.69669,0 -8.50403,-3.80734 -8.50403,-8.50403 v 0 c 0,-4.6967 3.80734,-8.50404 8.50403,-8.50404 h 71.64944 c 4.69669,0 8.50403,3.80734 8.50403,8.50404 v 0 c 0,4.69669 -3.80734,8.50403 -8.50403,8.50403 z"
       style="fill:#ccffcc;fill-opacity:1;fill-rule:nonzero;stroke:#808080;stroke-width:1.19553;stroke-linecap:butt;stroke-linejoin:miter;stroke-miterlimit:10;stroke-dasharray:none;stroke-opacity:1"
       transform="matrix(1.3333333,0,0,-1.3333333,63.082667,12.782667)" />
    <path
       id="path9"
       d="M 1.3249063,-0.83174219 C 1.8639688,-1.4059609 2.1569375,-1.6520547 2.5085,-1.9567422 c 0,-0.011719 0.6210938,-0.5390625 0.984375,-0.9023437 0.9375,-0.9257813 1.1601563,-1.40625 1.1601563,-1.4414063 0,-0.1054687 -0.09375,-0.1054687 -0.1054688,-0.1054687 -0.070312,0 -0.1054687,0.023437 -0.1523437,0.1171875 -0.3046875,0.46875 -0.5039063,0.6328125 -0.75,0.6328125 -0.234375,0 -0.3515625,-0.1523438 -0.5039063,-0.3164063 -0.1875,-0.234375 -0.3632812,-0.4335937 -0.6914062,-0.4335937 -0.75,0 -1.2070313,0.9257812 -1.2070313,1.1367187 0,0.046875 0.035156,0.1171875 0.1171875,0.1171875 0.09375,0 0.1171875,-0.058594 0.140625,-0.1171875 0.1875,-0.4570312 0.7617188,-0.46875 0.84375,-0.46875 0.2109375,0 0.3984375,0.070312 0.6210938,0.1523438 0.3984375,0.1523437 0.515625,0.1523437 0.7734375,0.1523437 -0.3632813,0.421875 -1.1953125,1.1367188 -1.3828125,1.3007813 l -0.9023438,0.8320312 c -0.6796875,0.66796876 -1.01953125,1.24218751 -1.01953125,1.31250001 0,0.09375 0.09375,0.09375 0.1171875,0.09375 0.0820313,0 0.09375,-0.01171875 0.15234375,-0.12890625 0.234375,-0.33984375 0.5273438,-0.609375 0.8554688,-0.609375 0.2226562,0 0.328125,0.0820313 0.5742187,0.375 0.1640625,0.2109375 0.3515625,0.36328125 0.6328125,0.36328125 0.984375,0 1.5703125,-1.26562501 1.5703125,-1.53515621 0,-0.046875 -0.046875,-0.09375 -0.1171875,-0.09375 -0.09375,0 -0.1171875,0.058594 -0.140625,0.1289062 -0.234375,0.64453126 -0.8671875,0.83203126 -1.1953125,0.83203126 -0.1992187,0 -0.3867187,-0.0585938 -0.5859375,-0.12890625 -0.3398437,-0.12890625 -0.4921875,-0.1640625 -0.703125,-0.1640625 -0.023437,0 -0.1757812,0 -0.2695312,0.0234375 z m 0,0"
       style="fill:#000000;fill-opacity:1;fill-rule:nonzero;stroke:none"
       aria-label="z"
       transform="matrix(1.3333333,0,0,1.3333333,8.4053333,30.261333)" />
    <path
       id="path10"
       d="M 2.0283203,1.7461484 V 1.4063047 H 1.2900391 V -4.8866641 H 2.0283203 V -5.2265078 H 0.95019531 v 6.9726562 z m 2.5576172,-6.1757812 c 0,-0.1875 -0.011719,-0.1992188 -0.2109375,-0.1992188 -0.4453125,0.4335938 -1.078125,0.4453125 -1.359375,0.4453125 v 0.2460938 c 0.1640625,0 0.6210938,0 1.0078125,-0.1875 v 3.55078124 c 0,0.234375 0,0.328125 -0.6914062,0.328125 H 3.0625 V 5.46875e-5 C 3.1914063,-0.01166406 4.046875,-0.02338281 4.3046875,-0.02338281 c 0.2109375,0 1.0898438,0.01171875 1.2421875,0.0234374975 V -0.24603906 H 5.2890625 c -0.703125,0 -0.703125,-0.09375 -0.703125,-0.328125 z m 2.9414063,-0.796875 h -1.078125 v 0.3398437 H 7.1875 V 1.4063047 H 6.4492188 v 0.3398437 h 1.078125 z m 0,0"
       style="fill:#000000;fill-opacity:1;fill-rule:nonzero;stroke:none"
       aria-label="[1]"
       transform="matrix(1.3333333,0,0,1.3333333,15.166667,25.441333)" />
    <path
       id="path11"
       d="m 6.8447734,-3.2575234 c 0.1523438,0 0.3398438,0 0.3398438,-0.1992188 0,-0.1992187 -0.1875,-0.1992187 -0.328125,-0.1992187 H 0.89164844 c -0.140625,0 -0.328125,0 -0.328125,0.1992187 0,0.1992188 0.1875,0.1992188 0.33984375,0.1992188 z m 0.011719,1.9335937 c 0.140625,0 0.328125,0 0.328125,-0.1992187 0,-0.1992188 -0.1875,-0.1992188 -0.3398438,-0.1992188 H 0.90336719 c -0.15234375,0 -0.33984375,0 -0.33984375,0.1992188 0,0.1992187 0.1875,0.1992187 0.328125,0.1992187 z m 0,0"
       style="fill:#000000;fill-opacity:1;fill-rule:nonzero;stroke:none"
       aria-label="="
       transform="matrix(1.3333333,0,0,1.3333333,30.830667,30.261333)" />
    <path
       id="path12"
       d="m 9.1285781,-5.6481484 c 0.2578125,-0.4335938 0.4921875,-0.796875 1.1249999,-0.84375 0.08203,-0.011719 0.1875,-0.011719 0.1875,-0.1992188 0,-0.046875 -0.04687,-0.1171875 -0.117187,-0.1171875 -0.246094,0 -0.5273441,0.035156 -0.7734379,0.035156 -0.3398437,0 -0.703125,-0.035156 -1.03125,-0.035156 -0.058594,0 -0.1875,0 -0.1875,0.1992188 0,0.1054687 0.082031,0.1171875 0.140625,0.1171875 0.2460938,0.011719 0.5976563,0.082031 0.5976563,0.3867187 0,0.1054688 -0.058594,0.1875 -0.140625,0.328125 l -2.6835938,4.6875 -0.3632812,-4.9335937 c -0.011719,-0.1992188 -0.035156,-0.4570313 0.6914062,-0.46875 0.1640625,0 0.2695313,0 0.2695313,-0.1992188 0,-0.1054687 -0.1054688,-0.1171875 -0.1523438,-0.1171875 -0.3984375,0 -0.8085937,0.035156 -1.2070312,0.035156 -0.234375,0 -0.8203125,-0.035156 -1.0546875,-0.035156 -0.058594,0 -0.1875,0 -0.1875,0.1992188 0,0.1171875 0.1054687,0.1171875 0.2460937,0.1171875 0.4335938,0 0.5039063,0.058594 0.5273438,0.2460937 l 0.058594,0.7617188 -2.5195312,4.3945312 -0.3867188,-5.0507812 c 0,-0.1171875 0,-0.3398438 0.7617188,-0.3515625 0.09375,0 0.2109375,0 0.2109375,-0.1992188 0,-0.1171875 -0.1171875,-0.1171875 -0.140625,-0.1171875 -0.3984375,0 -0.8203125,0.035156 -1.2304688,0.035156 -0.3398437,0 -0.703125,-0.035156 -1.04296872,-0.035156 -0.046875,0 -0.17578125,0 -0.17578125,0.1992188 0,0.1171875 0.0820313,0.1171875 0.24609375,0.1171875 0.50390622,0 0.50390622,0.082031 0.52734372,0.3632812 l 0.4453125,6.09375001 c 0.011719,0.17578125 0.023437,0.2578125 0.1640625,0.2578125 0.1171875,0 0.1523438,-0.0585938 0.234375,-0.2109375 l 2.9296875,-5.08593751 0.375,5.03906251 c 0.011719,0.19921875 0.035156,0.2578125 0.1523438,0.2578125 0.1289062,0 0.1875,-0.10546875 0.2460937,-0.1875 z m 0,0"
       style="fill:#000000;fill-opacity:1;fill-rule:nonzero;stroke:none"
       aria-label="W"
       transform="matrix(1.3333333,0,0,1.3333333,44.852,30.261333)" />
    <path
       id="path13"
       d="M 2.0269844,1.7461484 V 1.4063047 H 1.2887031 V -4.8866641 H 2.0269844 V -5.2265078 H 0.94885938 v 6.9726562 z m 2.5605469,-6.1757812 c 0,-0.1875 -0.011719,-0.1992188 -0.2109375,-0.1992188 -0.4453125,0.4335938 -1.078125,0.4453125 -1.359375,0.4453125 v 0.2460938 c 0.1640625,0 0.6210937,0 1.0078125,-0.1875 v 3.55078124 c 0,0.234375 0,0.328125 -0.6914063,0.328125 H 3.0640938 V 5.46875e-5 C 3.193,-0.01166406 4.0484688,-0.02338281 4.3062813,-0.02338281 c 0.2109375,0 1.0898437,0.01171875 1.2421875,0.0234374975 V -0.24603906 H 5.2906563 c -0.703125,0 -0.703125,-0.09375 -0.703125,-0.328125 z m 2.9384765,-0.796875 h -1.078125 v 0.3398437 H 7.1861641 V 1.4063047 H 6.4478828 v 0.3398437 h 1.078125 z m 0,0"
       style="fill:#000000;fill-opacity:1;fill-rule:nonzero;stroke:none"
       aria-label="[1]"
       transform="matrix(1.3333333,0,0,1.3333333,59.242667,25.441333)" />
    <path
       id="path14"
       d="m 3.3272578,-3.0114297 c 0.058594,-0.2578125 0.2929688,-1.171875 0.984375,-1.171875 0.046875,0 0.2929688,0 0.5039063,0.1289063 -0.28125,0.046875 -0.4804688,0.3046875 -0.4804688,0.5390625 0,0.1640625 0.1054688,0.3515625 0.375,0.3515625 0.2226563,0 0.5390625,-0.1875 0.5390625,-0.5859375 0,-0.515625 -0.5859375,-0.65625 -0.9257812,-0.65625 -0.5742188,0 -0.9257813,0.5273437 -1.0429688,0.7617187 -0.2578125,-0.65625 -0.7851562,-0.7617187 -1.078125,-0.7617187 -1.0429687,0 -1.60546874,1.2890625 -1.60546874,1.5351562 0,0.1054688 0.10546875,0.1054688 0.1171875,0.1054688 0.0820313,0 0.1171875,-0.023437 0.12890625,-0.1171875 0.33984379,-1.0546875 0.99609379,-1.3007813 1.33593749,-1.3007813 0.1875,0 0.5390625,0.09375 0.5390625,0.6679688 0,0.3046875 -0.1640625,0.9726562 -0.5390625,2.3671875 -0.1523437,0.62109371 -0.5039062,1.04296871 -0.9492187,1.04296871 -0.058594,0 -0.28125004,0 -0.49218754,-0.12890625 0.24609375,-0.0585938 0.46875004,-0.26953125 0.46875004,-0.5390625 0,-0.26953126 -0.22265629,-0.35156246 -0.37500004,-0.35156246 -0.29296875,0 -0.5390625,0.25781246 -0.5390625,0.57421871 0,0.45703125 0.4921875,0.65625 0.93750004,0.65625 0.65625,0 1.0078125,-0.69140625 1.0429687,-0.75 0.1171875,0.36328125 0.4804688,0.75 1.078125,0.75 1.0195313,0 1.59375,-1.27734371 1.59375,-1.53515621 0,-0.09375 -0.09375,-0.09375 -0.1289062,-0.09375 -0.082031,0 -0.1054688,0.035156 -0.1289063,0.1054687 -0.328125,1.06640626 -0.9960937,1.31250001 -1.3242187,1.31250001 -0.3867188,0 -0.5390625,-0.328125 -0.5390625,-0.65625 0,-0.22265625 0.058594,-0.44531251 0.1640625,-0.87890621 z m 0,0"
       style="fill:#000000;fill-opacity:1;fill-rule:nonzero;stroke:none"
       aria-label="x"
       transform="matrix(1.3333333,0,0,1.3333333,71.216,30.261333)" />
    <path
       id="path15"
       d="m 4.0794141,-2.2965859 h 2.7773437 c 0.140625,0 0.328125,0 0.328125,-0.1992188 0,-0.1992187 -0.1875,-0.1992187 -0.328125,-0.1992187 H 4.0794141 v -2.7890625 c 0,-0.1289063 0,-0.328125 -0.1992188,-0.328125 -0.1992187,0 -0.1992187,0.1992187 -0.1992187,0.328125 v 2.7890625 H 0.89191406 c -0.140625,0 -0.328125,0 -0.328125,0.1992187 0,0.1992188 0.1875,0.1992188 0.328125,0.1992188 H 3.6809766 v 2.80078121 c 0,0.12890625 0,0.328125 0.1992187,0.328125 0.1992188,0 0.1992188,-0.19921875 0.1992188,-0.328125 z m 0,0"
       style="fill:#000000;fill-opacity:1;fill-rule:nonzero;stroke:none"
       aria-label="+"
       transform="matrix(1.3333333,0,0,1.3333333,81.76,30.261333)" />
    <path
       id="path16"
       d="m 1.5939766,-0.77314844 c -0.09375,0.38671875 -0.1171875,0.46875 -0.90234379,0.46875 -0.17578125,0 -0.26953125,0 -0.26953125,0.19921875 0,0.1054687525 0.0820313,0.1054687525 0.26953125,0.1054687525 H 4.2424141 c 1.5703125,0 2.7539062,-1.1718749625 2.7539062,-2.1562499625 0,-0.7148438 -0.5859375,-1.2890625 -1.546875,-1.3945313 1.03125,-0.1992187 2.0859375,-0.9375 2.0859375,-1.875 0,-0.7382812 -0.65625,-1.3828125 -1.8515625,-1.3828125 H 2.3322578 c -0.1875,0 -0.2929687,0 -0.2929687,0.1992188 0,0.1171875 0.09375,0.1171875 0.28125,0.1171875 0.023437,0 0.2109375,0 0.375,0.011719 0.1875,0.023437 0.2695312,0.035156 0.2695312,0.1640625 0,0.035156 -0.011719,0.070312 -0.035156,0.1875 z m 1.5,-2.87109376 0.6210937,-2.4726562 c 0.09375,-0.3515625 0.1054688,-0.375 0.5390625,-0.375 h 1.2890625 c 0.8671875,0 1.078125,0.5859375 1.078125,1.0195312 0,0.8789063 -0.8554687,1.828125 -2.0742187,1.828125 z m -0.4453125,3.33984376 c -0.140625,0 -0.1523438,0 -0.2226563,-0.0117188 -0.09375,-0.0117188 -0.1289062,-0.0234375 -0.1289062,-0.10546875 0,-0.0234375 0,-0.046875 0.058594,-0.22265625 L 3.0353828,-3.4215859 h 1.8867188 c 0.9609375,0 1.1484375,0.7265625 1.1484375,1.1601562 0,0.984375 -0.890625,1.95703126 -2.0625,1.95703126 z m 0,0"
       style="fill:#000000;fill-opacity:1;fill-rule:nonzero;stroke:none"
       aria-label="B"
       transform="matrix(1.3333333,0,0,1.3333333,95.042667,30.261333)" />
    <path
       id="path17"
       d="M 2.0272109,1.7461484 V 1.4063047 H 1.2889297 V -4.8866641 H 2.0272109 V -5.2265078 H 0.94908594 v 6.9726562 z m 2.5605469,-6.1757812 c 0,-0.1875 -0.011719,-0.1992188 -0.2109375,-0.1992188 -0.4453125,0.4335938 -1.078125,0.4453125 -1.359375,0.4453125 v 0.2460938 c 0.1640625,0 0.6210938,0 1.0078125,-0.1875 v 3.55078124 c 0,0.234375 0,0.328125 -0.6914062,0.328125 H 3.0643203 V 5.46875e-5 C 3.1932266,-0.01166406 4.0486953,-0.02338281 4.3065078,-0.02338281 c 0.2109375,0 1.0898438,0.01171875 1.2421875,0.0234374975 V -0.24603906 H 5.2908828 c -0.703125,0 -0.703125,-0.09375 -0.703125,-0.328125 z m 2.9384766,-0.796875 h -1.078125 v 0.3398437 H 7.1863906 V 1.4063047 H 6.4481094 v 0.3398437 h 1.078125 z m 0,0"
       style="fill:#000000;fill-opacity:1;fill-rule:nonzero;stroke:none"
       aria-label="[1]"
       transform="matrix(1.3333333,0,0,1.3333333,105.78533,25.441333)" />
    <path
       id="path18"
       d="m 22.50703,-0.59775 h -45.01406 c -4.69671,0 -8.50405,-3.80734 -8.50405,-8.50403 v -0.96962 c 0,-4.6967 3.80734,-8.50402 8.50405,-8.50402 h 45.01406 c 4.69671,0 8.50405,3.80732 8.50405,8.50402 v 0.96962 c 0,4.69669 -3.80734,8.50403 -8.50405,8.50403 z"
       style="fill:#ccffcc;fill-opacity:1;fill-rule:nonzero;stroke:#808080;stroke-width:1.19553;stroke-linecap:butt;stroke-linejoin:miter;stroke-miterlimit:10;stroke-dasharray:none;stroke-opacity:1"
       transform="matrix(1.3333333,0,0,-1.3333333,63.082667,12.782667)" />
    <path
       id="path19"
       d="m 3.7158906,-3.7621328 c -0.1757812,-0.375 -0.46875,-0.6445313 -0.9140625,-0.6445313 -1.171875,0 -2.40234372,1.4648438 -2.40234372,2.9179688 0,0.93749999 0.55078125,1.59374999 1.32421872,1.59374999 0.1992188,0 0.703125,-0.03515625 1.3007813,-0.73828125 0.070312,0.41015625 0.421875,0.73828125 0.9023437,0.73828125 0.3515625,0 0.5742188,-0.22265625 0.7382813,-0.5390625 0.1640625,-0.36328125 0.2929687,-0.97265629 0.2929687,-0.99609379 0,-0.09375 -0.082031,-0.09375 -0.1171875,-0.09375 -0.09375,0 -0.1054687,0.035156 -0.140625,0.1757813 -0.1640625,0.64453124 -0.3515625,1.24218749 -0.75,1.24218749 -0.2695312,0 -0.3046875,-0.2578125 -0.3046875,-0.45703125 0,-0.22265625 0.023437,-0.3046875 0.1289063,-0.73828124 0.1171875,-0.421875 0.1289062,-0.5273438 0.2226562,-0.9023438 l 0.3515625,-1.3945312 c 0.070312,-0.28125 0.070312,-0.2929688 0.070312,-0.3398438 0,-0.1640625 -0.1171875,-0.2695312 -0.28125,-0.2695312 -0.2460937,0 -0.3867187,0.2226562 -0.4218745,0.4453125 z m -0.6445312,2.578125 c -0.046875,0.1757812 -0.046875,0.19921874 -0.1992188,0.36328124 -0.4453125,0.55078125 -0.84375,0.71484375 -1.125,0.71484375 -0.5039062,0 -0.6445312,-0.55078125 -0.6445312,-0.93749999 0,-0.5039063 0.328125,-1.7226563 0.5507812,-2.1796875 0.3046875,-0.5976563 0.7617188,-0.9609375 1.1601563,-0.9609375 0.6445312,0 0.7851562,0.8203125 0.7851562,0.8789062 0,0.058594 -0.023437,0.1171875 -0.035156,0.1640625 z m 0,0"
       style="fill:#000000;fill-opacity:1;fill-rule:nonzero;stroke:none"
       aria-label="a"
       transform="matrix(1.3333333,0,0,1.3333333,26.162667,29.801333)" />
    <path
       id="path20"
       d="M 2.0270391,1.7464453 V 1.4066016 H 1.2887578 V -4.8863672 H 2.0270391 V -5.2262109 H 0.94891406 v 6.9726562 z m 2.5605468,-6.1757812 c 0,-0.1875 -0.011719,-0.1992188 -0.2109375,-0.1992188 -0.4453125,0.4335938 -1.078125,0.4453125 -1.359375,0.4453125 v 0.2460938 c 0.1640625,0 0.6210938,0 1.0078125,-0.1875 v 3.55078121 c 0,0.234375 0,0.328125 -0.6914062,0.328125 H 3.0641484 V 3.515625e-4 C 3.1930547,-0.01136719 4.0485234,-0.02308594 4.3063359,-0.02308594 c 0.2109375,0 1.0898438,0.01171875 1.2421875,0.0234375025 V -0.24574219 H 5.2907109 c -0.703125,0 -0.703125,-0.09375 -0.703125,-0.328125 z m 2.9384766,-0.796875 h -1.078125 v 0.3398437 H 7.1862188 V 1.4066016 H 6.4479375 v 0.3398437 h 1.078125 z m 0,0"
       style="fill:#000000;fill-opacity:1;fill-rule:nonzero;stroke:none"
       aria-label="[1]"
       transform="matrix(1.3333333,0,0,1.3333333,33.184,24.98)" />
    <path
       id="path21"
       d="m 6.8444922,-3.2582266 c 0.1523437,0 0.3398437,0 0.3398437,-0.1992187 0,-0.1992188 -0.1875,-0.1992188 -0.328125,-0.1992188 H 0.89136719 c -0.140625,0 -0.328125,0 -0.328125,0.1992188 0,0.1992187 0.1875,0.1992187 0.33984375,0.1992187 z m 0.011719,1.9335938 c 0.140625,0 0.328125,0 0.328125,-0.1992188 0,-0.1992187 -0.1875,-0.1992187 -0.3398437,-0.1992187 H 0.90308594 c -0.15234375,0 -0.33984375,0 -0.33984375,0.1992187 0,0.1992188 0.1875,0.1992188 0.328125,0.1992188 z m 0,0"
       style="fill:#000000;fill-opacity:1;fill-rule:nonzero;stroke:none"
       aria-label="="
       transform="matrix(1.3333333,0,0,1.3333333,48.846667,29.801333)" />
    <path
       id="path22"
       d="m 5.1556406,-3.7152578 c 0.1289063,0 0.4921875,0 0.4921875,-0.3398438 0,-0.234375 -0.2109375,-0.234375 -0.3867187,-0.234375 H 2.9876719 c -1.5,0 -2.61328127,1.640625 -2.61328127,2.8242188 0,0.87890624 0.5859375,1.57031249 1.49999997,1.57031249 1.171875,0 2.4960938,-1.20703129 2.4960938,-2.73046879 0,-0.1757812 0,-0.65625 -0.3046875,-1.0898437 z m -3.2695312,3.60937499 c -0.4921875,0 -0.89062502,-0.36328125 -0.89062502,-1.07812499 0,-0.3046875 0.11718752,-1.1132813 0.46875002,-1.7109375 0.421875,-0.6796875 1.0195312,-0.8203125 1.359375,-0.8203125 0.8320312,0 0.9140625,0.65625 0.9140625,0.9609375 0,0.46875 -0.1992188,1.2890625 -0.5390625,1.79296874 -0.3867188,0.59765625 -0.9257813,0.85546875 -1.3125,0.85546875 z m 0,0"
       style="fill:#000000;fill-opacity:1;fill-rule:nonzero;stroke:none"
       aria-label="σ"
       transform="matrix(1.3333333,0,0,1.3333333,62.868,29.801333)" />
    <path
       id="path23"
       d="m 3.2940937,2.3902109 c 0,-0.035156 0,-0.046875 -0.1640625,-0.2226562 -1.2421875,-1.25390626 -1.5703125,-3.12890626 -1.5703125,-4.6640625 0,-1.7226563 0.3867188,-3.4570313 1.6054688,-4.7109375 0.1289062,-0.1171875 0.1289062,-0.1289063 0.1289062,-0.1640625 0,-0.070312 -0.035156,-0.1054688 -0.09375,-0.1054688 -0.1054687,0 -0.9960937,0.6796875 -1.5820312,1.9453125 -0.515625,1.1015625 -0.6328125,2.203125 -0.6328125,3.0351563 0,0.7851562 0.1171875,1.99218749 0.65625,3.11718749 0.5976562,1.21875001 1.453125,1.87500001 1.5585937,1.87500001 0.058594,0 0.09375,-0.035156 0.09375,-0.1054688 z m 0,0"
       style="fill:#000000;fill-opacity:1;fill-rule:nonzero;stroke:none"
       aria-label="("
       transform="matrix(1.3333333,0,0,1.3333333,70.936,29.801333)" />
    <path
       id="path24"
       d="M 1.3243906,-0.83244531 C 1.8634531,-1.4066641 2.1564219,-1.6527578 2.5079844,-1.9574453 c 0,-0.011719 0.6210937,-0.5390625 0.984375,-0.9023438 0.9375,-0.9257812 1.1601562,-1.40625 1.1601562,-1.4414062 0,-0.1054688 -0.09375,-0.1054688 -0.1054687,-0.1054688 -0.070312,0 -0.1054688,0.023437 -0.1523438,0.1171875 -0.3046875,0.46875 -0.5039062,0.6328125 -0.75,0.6328125 -0.234375,0 -0.3515625,-0.1523437 -0.5039062,-0.3164062 -0.1875,-0.234375 -0.3632813,-0.4335938 -0.6914063,-0.4335938 -0.75,0 -1.2070312,0.9257813 -1.2070312,1.1367188 0,0.046875 0.035156,0.1171875 0.1171875,0.1171875 0.09375,0 0.1171875,-0.058594 0.140625,-0.1171875 0.1875,-0.4570313 0.7617187,-0.46875 0.84375,-0.46875 0.2109375,0 0.3984375,0.070312 0.6210937,0.1523437 0.3984375,0.1523438 0.515625,0.1523438 0.7734375,0.1523438 -0.3632812,0.421875 -1.1953125,1.1367187 -1.3828125,1.3007812 l -0.9023437,0.8320313 c -0.67968752,0.66796874 -1.01953127,1.24218749 -1.01953127,1.31249999 0,0.09375 0.09375,0.09375 0.1171875,0.09375 0.0820313,0 0.09375,-0.01171875 0.15234375,-0.12890625 0.234375,-0.33984375 0.52734372,-0.609375 0.85546872,-0.609375 0.2226563,0 0.328125,0.0820313 0.5742188,0.375 0.1640625,0.2109375 0.3515625,0.36328125 0.6328125,0.36328125 0.984375,0 1.5703125,-1.26562499 1.5703125,-1.53515629 0,-0.046875 -0.046875,-0.09375 -0.1171875,-0.09375 -0.09375,0 -0.1171875,0.058594 -0.140625,0.1289063 -0.234375,0.64453124 -0.8671875,0.83203124 -1.1953125,0.83203124 -0.1992188,0 -0.3867188,-0.0585938 -0.5859375,-0.12890625 -0.3398438,-0.12890625 -0.4921875,-0.1640625 -0.703125,-0.1640625 -0.023437,0 -0.1757813,0 -0.2695313,0.0234375 z m 0,0"
       style="fill:#000000;fill-opacity:1;fill-rule:nonzero;stroke:none"
       aria-label="z"
       transform="matrix(1.3333333,0,0,1.3333333,76.101333,29.801333)" />
    <path
       id="path25"
       d="M 2.0278047,1.7464453 V 1.4066016 H 1.2895234 V -4.8863672 H 2.0278047 V -5.2262109 H 0.94967969 v 6.9726562 z m 2.5605469,-6.1757812 c 0,-0.1875 -0.011719,-0.1992188 -0.2109375,-0.1992188 -0.4453125,0.4335938 -1.078125,0.4453125 -1.359375,0.4453125 v 0.2460938 c 0.1640625,0 0.6210937,0 1.0078125,-0.1875 v 3.55078121 c 0,0.234375 0,0.328125 -0.6914063,0.328125 H 3.0649141 V 3.515625e-4 C 3.1938203,-0.01136719 4.0492891,-0.02308594 4.3071016,-0.02308594 c 0.2109375,0 1.0898437,0.01171875 1.2421875,0.0234375025 V -0.24574219 H 5.2914766 c -0.703125,0 -0.703125,-0.09375 -0.703125,-0.328125 z m 2.9384765,-0.796875 h -1.078125 v 0.3398437 H 7.1869844 V 1.4066016 H 6.4487031 v 0.3398437 h 1.078125 z m 0,0"
       style="fill:#000000;fill-opacity:1;fill-rule:nonzero;stroke:none"
       aria-label="[1]"
       transform="matrix(1.3333333,0,0,1.3333333,82.862667,24.98)" />
    <path
       id="path26"
       d="m 2.8827656,-2.4965078 c 0,-0.7734375 -0.1171875,-1.9804688 -0.65625,-3.1054688 -0.5976562,-1.21875 -1.46484372,-1.875 -1.55859372,-1.875 -0.0585938,0 -0.10546875,0.046875 -0.10546875,0.1054688 0,0.035156 0,0.046875 0.19921875,0.234375 0.97265622,0.984375 1.53515622,2.5664062 1.53515622,4.640625 0,1.71093749 -0.3632812,3.45703124 -1.59374997,4.7226562 -0.140625,0.1171875 -0.140625,0.1289063 -0.140625,0.1640625 0,0.058594 0.046875,0.1054688 0.10546875,0.1054688 0.09375,0 0.99609372,-0.6796875 1.58203122,-1.94531251 0.5039063,-1.1015625 0.6328125,-2.20312499 0.6328125,-3.04687499 z m 0,0"
       style="fill:#000000;fill-opacity:1;fill-rule:nonzero;stroke:none"
       aria-label=")"
       transform="matrix(1.3333333,0,0,1.3333333,94.836,29.801333)" />
    <path
       id="path27"
       d="m 38.2105,-0.59775 h -76.421 c -4.6967,0 -8.50404,-3.80734 -8.50404,-8.50403 v 0 c 0,-4.6967 3.80734,-8.50404 8.50404,-8.50404 h 76.421 c 4.6967,0 8.50404,3.80734 8.50404,8.50404 v 0 c 0,4.69669 -3.80734,8.50403 -8.50404,8.50403 z"
       style="fill:#ccffcc;fill-opacity:1;fill-rule:nonzero;stroke:#808080;stroke-width:1.19553;stroke-linecap:butt;stroke-linejoin:miter;stroke-miterlimit:10;stroke-dasharray:none;stroke-opacity:1"
       transform="matrix(1.3333333,0,0,-1.3333333,63.082667,12.782667)" />
    <path
       id="path28"
       d="M 1.3232109,-0.83174219 C 1.8622734,-1.4059609 2.1552422,-1.6520547 2.5068047,-1.9567422 c 0,-0.011719 0.6210937,-0.5390625 0.984375,-0.9023437 0.9375,-0.9257813 1.1601562,-1.40625 1.1601562,-1.4414063 0,-0.1054687 -0.09375,-0.1054687 -0.1054687,-0.1054687 -0.070312,0 -0.1054688,0.023437 -0.1523438,0.1171875 -0.3046875,0.46875 -0.5039062,0.6328125 -0.75,0.6328125 -0.234375,0 -0.3515625,-0.1523438 -0.5039062,-0.3164063 -0.1875,-0.234375 -0.3632813,-0.4335937 -0.6914063,-0.4335937 -0.75,0 -1.2070312,0.9257812 -1.2070312,1.1367187 0,0.046875 0.035156,0.1171875 0.1171875,0.1171875 0.09375,0 0.1171875,-0.058594 0.140625,-0.1171875 0.1875,-0.4570312 0.7617187,-0.46875 0.84375,-0.46875 0.2109375,0 0.3984375,0.070312 0.6210937,0.1523438 0.3984375,0.1523437 0.515625,0.1523437 0.7734375,0.1523437 -0.3632812,0.421875 -1.1953125,1.1367188 -1.3828125,1.3007813 l -0.9023437,0.8320312 c -0.67968751,0.66796876 -1.01953126,1.24218751 -1.01953126,1.31250001 0,0.09375 0.09375,0.09375 0.1171875,0.09375 0.0820313,0 0.09375,-0.01171875 0.15234375,-0.12890625 0.234375,-0.33984375 0.52734371,-0.609375 0.85546871,-0.609375 0.2226563,0 0.328125,0.0820313 0.5742188,0.375 0.1640625,0.2109375 0.3515625,0.36328125 0.6328125,0.36328125 0.984375,0 1.5703125,-1.26562501 1.5703125,-1.53515621 0,-0.046875 -0.046875,-0.09375 -0.1171875,-0.09375 -0.09375,0 -0.1171875,0.058594 -0.140625,0.1289062 -0.234375,0.64453126 -0.8671875,0.83203126 -1.1953125,0.83203126 -0.1992188,0 -0.3867188,-0.0585938 -0.5859375,-0.12890625 -0.3398438,-0.12890625 -0.4921875,-0.1640625 -0.703125,-0.1640625 -0.023437,0 -0.1757813,0 -0.2695313,0.0234375 z m 0,0"
       style="fill:#000000;fill-opacity:1;fill-rule:nonzero;stroke:none"
       aria-label="z"
       transform="matrix(1.3333333,0,0,1.3333333,5.224,30.261333)" />
    <path
       id="path29"
       d="M 2.0285547,1.7461484 V 1.4063047 H 1.2902734 V -4.8866641 H 2.0285547 V -5.2265078 H 0.95042969 v 6.9726562 z m 3.7412109,-3.0117187 h -0.234375 c -0.023437,0.1523437 -0.082031,0.56249999 -0.1757812,0.63281249 -0.058594,0.0351563 -0.5976563,0.0351563 -0.6914063,0.0351563 H 3.3791406 c 0.7382813,-0.64453119 0.984375,-0.84374999 1.3945313,-1.17187499 0.515625,-0.4101562 0.9960937,-0.84375 0.9960937,-1.5 0,-0.84375 -0.7382812,-1.359375 -1.6289062,-1.359375 -0.8671875,0 -1.453125,0.609375 -1.453125,1.2421874 0,0.3632813 0.3046875,0.3984375 0.375,0.3984375 0.1640625,0 0.375,-0.1171875 0.375,-0.375 0,-0.1289062 -0.058594,-0.3632812 -0.421875,-0.3632812 0.2226562,-0.5039062 0.6914062,-0.6562499 1.0195312,-0.6562499 0.703125,0 1.0664063,0.5507812 1.0664063,1.1132812 0,0.609375 -0.4335938,1.0898438 -0.65625,1.3359375 l -1.6875,1.66406249 c -0.070312,0.0585937 -0.070312,0.0703125 -0.070312,0.2695312475 h 2.8828125 z m 1.7578125,-3.9609375 h -1.078125 v 0.3398437 H 7.1877344 V 1.4063047 H 6.4494531 v 0.3398437 h 1.078125 z m 0,0"
       style="fill:#000000;fill-opacity:1;fill-rule:nonzero;stroke:none"
       aria-label="[2]"
       transform="matrix(1.3333333,0,0,1.3333333,11.986667,25.441333)" />
    <path
       id="path30"
       d="m 6.8430781,-3.2575234 c 0.1523438,0 0.3398438,0 0.3398438,-0.1992188 0,-0.1992187 -0.1875,-0.1992187 -0.328125,-0.1992187 H 0.88995313 c -0.140625,0 -0.328125,0 -0.328125,0.1992187 0,0.1992188 0.1875,0.1992188 0.33984375,0.1992188 z m 0.011719,1.9335937 c 0.140625,0 0.328125,0 0.328125,-0.1992187 0,-0.1992188 -0.1875,-0.1992188 -0.3398438,-0.1992188 H 0.90167188 c -0.15234375,0 -0.33984375,0 -0.33984375,0.1992188 0,0.1992187 0.1875,0.1992187 0.328125,0.1992187 z m 0,0"
       style="fill:#000000;fill-opacity:1;fill-rule:nonzero;stroke:none"
       aria-label="="
       transform="matrix(1.3333333,0,0,1.3333333,27.649333,30.261333)" />
    <path
       id="path31"
       d="m 9.1298125,-5.6481484 c 0.2578125,-0.4335938 0.4921875,-0.796875 1.1250005,-0.84375 0.08203,-0.011719 0.1875,-0.011719 0.1875,-0.1992188 0,-0.046875 -0.04687,-0.1171875 -0.117188,-0.1171875 -0.246094,0 -0.5273437,0.035156 -0.7734375,0.035156 -0.3398437,0 -0.703125,-0.035156 -1.03125,-0.035156 -0.058594,0 -0.1875,0 -0.1875,0.1992188 0,0.1054687 0.082031,0.1171875 0.140625,0.1171875 0.2460938,0.011719 0.5976563,0.082031 0.5976563,0.3867187 0,0.1054688 -0.058594,0.1875 -0.140625,0.328125 L 6.247,-1.0895547 5.8837188,-6.0231484 C 5.872,-6.2223672 5.8485625,-6.4801797 6.575125,-6.4918984 c 0.1640625,0 0.2695313,0 0.2695313,-0.1992188 0,-0.1054687 -0.1054688,-0.1171875 -0.1523438,-0.1171875 -0.3984375,0 -0.8085937,0.035156 -1.2070312,0.035156 -0.234375,0 -0.8203125,-0.035156 -1.0546875,-0.035156 -0.058594,0 -0.1875,0 -0.1875,0.1992188 0,0.1171875 0.1054687,0.1171875 0.2460937,0.1171875 0.4335938,0 0.5039063,0.058594 0.5273438,0.2460937 L 5.075125,-5.4840859 2.5555938,-1.0895547 2.168875,-6.1403359 c 0,-0.1171875 0,-0.3398438 0.7617188,-0.3515625 0.09375,0 0.2109375,0 0.2109375,-0.1992188 0,-0.1171875 -0.1171875,-0.1171875 -0.140625,-0.1171875 -0.3984375,0 -0.8203125,0.035156 -1.2304688,0.035156 -0.3398437,0 -0.703125,-0.035156 -1.04296875,-0.035156 -0.046875,0 -0.17578125,0 -0.17578125,0.1992188 0,0.1171875 0.0820313,0.1171875 0.24609375,0.1171875 0.50390625,0 0.50390625,0.082031 0.52734375,0.3632812 l 0.4453125,6.09375001 c 0.011719,0.17578125 0.023437,0.2578125 0.1640625,0.2578125 0.1171875,0 0.1523438,-0.0585938 0.234375,-0.2109375 l 2.9296875,-5.08593751 0.375,5.03906251 c 0.011719,0.19921875 0.035156,0.2578125 0.1523438,0.2578125 0.1289062,0 0.1875,-0.10546875 0.2460937,-0.1875 z m 0,0"
       style="fill:#000000;fill-opacity:1;fill-rule:nonzero;stroke:none"
       aria-label="W"
       transform="matrix(1.3333333,0,0,1.3333333,41.670667,30.261333)" />
    <path
       id="path32"
       d="M 2.0282188,1.7461484 V 1.4063047 H 1.2899375 V -4.8866641 H 2.0282188 V -5.2265078 H 0.95009375 v 6.9726562 z m 3.7441406,-3.0117187 h -0.234375 c -0.023437,0.1523437 -0.082031,0.56249999 -0.1757813,0.63281249 -0.058594,0.0351563 -0.5976562,0.0351563 -0.6914062,0.0351563 H 3.3817344 c 0.7382812,-0.64453119 0.984375,-0.84374999 1.3945312,-1.17187499 0.515625,-0.4101562 0.9960938,-0.84375 0.9960938,-1.5 0,-0.84375 -0.7382813,-1.359375 -1.6289063,-1.359375 -0.8671875,0 -1.453125,0.609375 -1.453125,1.2421874 0,0.3632813 0.3046875,0.3984375 0.375,0.3984375 0.1640625,0 0.375,-0.1171875 0.375,-0.375 0,-0.1289062 -0.058594,-0.3632812 -0.421875,-0.3632812 0.2226563,-0.5039062 0.6914063,-0.6562499 1.0195313,-0.6562499 0.703125,0 1.0664062,0.5507812 1.0664062,1.1132812 0,0.609375 -0.4335937,1.0898438 -0.65625,1.3359375 l -1.6875,1.66406249 c -0.070312,0.0585937 -0.070312,0.0703125 -0.070312,0.2695312475 h 2.8828125 z m 1.7548828,-3.9609375 h -1.078125 v 0.3398437 H 7.1873984 V 1.4063047 H 6.4491172 v 0.3398437 h 1.078125 z m 0,0"
       style="fill:#000000;fill-opacity:1;fill-rule:nonzero;stroke:none"
       aria-label="[2]"
       transform="matrix(1.3333333,0,0,1.3333333,56.061333,25.441333)" />
    <path
       id="path33"
       d="m 3.7152109,-3.7614297 c -0.1757812,-0.375 -0.46875,-0.6445312 -0.9140625,-0.6445312 -1.171875,0 -2.40234371,1.4648437 -2.40234371,2.9179687 0,0.93750001 0.55078125,1.59375001 1.32421871,1.59375001 0.1992188,0 0.703125,-0.03515625 1.3007813,-0.73828125 0.070312,0.41015625 0.421875,0.73828125 0.9023437,0.73828125 0.3515625,0 0.5742188,-0.22265625 0.7382813,-0.5390625 0.1640625,-0.36328125 0.2929687,-0.97265621 0.2929687,-0.99609371 0,-0.09375 -0.082031,-0.09375 -0.1171875,-0.09375 -0.09375,0 -0.1054687,0.035156 -0.140625,0.1757812 -0.1640625,0.64453126 -0.3515625,1.24218751 -0.75,1.24218751 -0.2695312,0 -0.3046875,-0.2578125 -0.3046875,-0.45703125 0,-0.22265625 0.023437,-0.3046875 0.1289063,-0.73828126 0.1171875,-0.421875 0.1289062,-0.5273437 0.2226562,-0.9023437 l 0.3515625,-1.3945313 c 0.070312,-0.28125 0.070312,-0.2929687 0.070312,-0.3398437 0,-0.1640625 -0.1171875,-0.2695313 -0.28125,-0.2695313 -0.2460937,0 -0.3867187,0.2226563 -0.4218745,0.4453125 z m -0.6445312,2.578125 c -0.046875,0.1757813 -0.046875,0.19921876 -0.1992188,0.36328126 -0.4453125,0.55078125 -0.84375,0.71484375 -1.125,0.71484375 -0.5039062,0 -0.6445312,-0.55078125 -0.6445312,-0.93750001 0,-0.5039062 0.328125,-1.7226562 0.5507812,-2.1796875 0.3046875,-0.5976562 0.7617188,-0.9609375 1.1601563,-0.9609375 0.6445312,0 0.7851562,0.8203125 0.7851562,0.8789063 0,0.058594 -0.023437,0.1171875 -0.035156,0.1640625 z m 0,0"
       style="fill:#000000;fill-opacity:1;fill-rule:nonzero;stroke:none"
       aria-label="a"
       transform="matrix(1.3333333,0,0,1.3333333,68.034667,30.261333)" />
    <path
       id="path34"
       d="M 2.0263594,1.7461484 V 1.4063047 H 1.2880781 V -4.8866641 H 2.0263594 V -5.2265078 H 0.94823437 v 6.9726562 z m 2.5605468,-6.1757812 c 0,-0.1875 -0.011719,-0.1992188 -0.2109375,-0.1992188 -0.4453125,0.4335938 -1.078125,0.4453125 -1.359375,0.4453125 v 0.2460938 c 0.1640625,0 0.6210938,0 1.0078125,-0.1875 v 3.55078124 c 0,0.234375 0,0.328125 -0.6914062,0.328125 H 3.0634687 V 5.46875e-5 C 3.192375,-0.01166406 4.0478437,-0.02338281 4.3056562,-0.02338281 c 0.2109375,0 1.0898438,0.01171875 1.2421875,0.0234374975 V -0.24603906 H 5.2900312 c -0.703125,0 -0.703125,-0.09375 -0.703125,-0.328125 z m 2.9414063,-0.796875 h -1.078125 v 0.3398437 H 7.1884687 V 1.4063047 H 6.4501875 v 0.3398437 h 1.078125 z m 0,0"
       style="fill:#000000;fill-opacity:1;fill-rule:nonzero;stroke:none"
       aria-label="[1]"
       transform="matrix(1.3333333,0,0,1.3333333,75.056,25.441333)" />
    <path
       id="path35"
       d="M 4.0794062,-2.2965859 H 6.85675 c 0.140625,0 0.328125,0 0.328125,-0.1992188 0,-0.1992187 -0.1875,-0.1992187 -0.328125,-0.1992187 H 4.0794062 v -2.7890625 c 0,-0.1289063 0,-0.328125 -0.1992187,-0.328125 -0.1992188,0 -0.1992188,0.1992187 -0.1992188,0.328125 v 2.7890625 H 0.89190625 c -0.140625,0 -0.328125,0 -0.328125,0.1992187 0,0.1992188 0.1875,0.1992188 0.328125,0.1992188 H 3.6809687 v 2.80078121 c 0,0.12890625 0,0.328125 0.1992188,0.328125 0.1992187,0 0.1992187,-0.19921875 0.1992187,-0.328125 z m 0,0"
       style="fill:#000000;fill-opacity:1;fill-rule:nonzero;stroke:none"
       aria-label="+"
       transform="matrix(1.3333333,0,0,1.3333333,89.982667,30.261333)" />
    <path
       id="path36"
       d="m 2.379125,-6.8083047 c 0,0 0,-0.1054687 -0.1289063,-0.1054687 -0.2226562,0 -0.9492187,0.082031 -1.21875,0.1054687 -0.0703124,0 -0.18749995,0.011719 -0.18749995,0.1992188 0,0.1171875 0.09375,0.1171875 0.24609375,0.1171875 0.46875,0 0.4921875,0.070312 0.4921875,0.1640625 0,0.070312 -0.082031,0.4101562 -0.140625,0.6210937 l -0.80859375,3.2460938 c -0.12890625,0.5039062 -0.1640625,0.65625 -0.1640625,1.0078125 0,0.94921871 0.52734375,1.55859371 1.26562495,1.55859371 1.171875,0 2.4023438,-1.47656251 2.4023438,-2.91796871 0,-0.9023438 -0.5273438,-1.59375 -1.3242188,-1.59375 -0.4570312,0 -0.8671875,0.2929687 -1.171875,0.5976562 z m -0.9375,3.7734375 c 0.058594,-0.2226562 0.058594,-0.2460937 0.1523437,-0.3515625 0.4921875,-0.6445312 0.9375,-0.796875 1.1953125,-0.796875 0.3632813,0 0.6328125,0.2929688 0.6328125,0.9375 0,0.5859375 -0.328125,1.734375 -0.515625,2.109375 -0.328125,0.66796876 -0.7851562,1.03125001 -1.171875,1.03125001 -0.3398437,0 -0.6679687,-0.26953125 -0.6679687,-1.00781251 0,-0.1875 0,-0.3867187 0.1640625,-1.0078125 z m 0,0"
       style="fill:#000000;fill-opacity:1;fill-rule:nonzero;stroke:none"
       aria-label="b"
       transform="matrix(1.3333333,0,0,1.3333333,103.26533,30.261333)" />
    <path
       id="path37"
       d="M 2.0259766,1.7461484 V 1.4063047 H 1.2876953 V -4.8866641 H 2.0259766 V -5.2265078 H 0.94785156 v 6.9726562 z m 3.7441406,-3.0117187 h -0.234375 c -0.023437,0.1523437 -0.082031,0.56249999 -0.1757813,0.63281249 -0.058594,0.0351563 -0.5976562,0.0351563 -0.6914062,0.0351563 H 3.3794922 c 0.7382812,-0.64453119 0.984375,-0.84374999 1.3945312,-1.17187499 0.515625,-0.4101562 0.9960938,-0.84375 0.9960938,-1.5 0,-0.84375 -0.7382813,-1.359375 -1.6289063,-1.359375 -0.8671875,0 -1.453125,0.609375 -1.453125,1.2421874 0,0.3632813 0.3046875,0.3984375 0.375,0.3984375 0.1640625,0 0.375,-0.1171875 0.375,-0.375 0,-0.1289062 -0.058594,-0.3632812 -0.421875,-0.3632812 0.2226563,-0.5039062 0.6914063,-0.6562499 1.0195313,-0.6562499 0.703125,0 1.0664062,0.5507812 1.0664062,1.1132812 0,0.609375 -0.4335937,1.0898438 -0.65625,1.3359375 l -1.6875,1.66406249 c -0.070312,0.0585937 -0.070312,0.0703125 -0.070312,0.2695312475 h 2.8828125 z m 1.7578125,-3.9609375 h -1.078125 v 0.3398437 H 7.1880859 V 1.4063047 H 6.4498047 v 0.3398437 h 1.078125 z m 0,0"
       style="fill:#000000;fill-opacity:1;fill-rule:nonzero;stroke:none"
       aria-label="[2]"
       transform="matrix(1.3333333,0,0,1.3333333,108.96667,25.441333)" />
    <path
       id="path38"
       d="m 22.50703,-0.59775 h -45.01406 c -4.69671,0 -8.50405,-3.80734 -8.50405,-8.50403 v -0.96962 c 0,-4.6967 3.80734,-8.50402 8.50405,-8.50402 h 45.01406 c 4.69671,0 8.50405,3.80732 8.50405,8.50402 v 0.96962 c 0,4.69669 -3.80734,8.50403 -8.50405,8.50403 z"
       style="fill:#ccffcc;fill-opacity:1;fill-rule:nonzero;stroke:#808080;stroke-width:1.19553;stroke-linecap:butt;stroke-linejoin:miter;stroke-miterlimit:10;stroke-dasharray:none;stroke-opacity:1"
       transform="matrix(1.3333333,0,0,-1.3333333,63.082667,12.782667)" />
    <path
       id="path39"
       d="m 3.7158906,-3.7621328 c -0.1757812,-0.375 -0.46875,-0.6445313 -0.9140625,-0.6445313 -1.171875,0 -2.40234372,1.4648438 -2.40234372,2.9179688 0,0.93749999 0.55078125,1.59374999 1.32421872,1.59374999 0.1992188,0 0.703125,-0.03515625 1.3007813,-0.73828125 0.070312,0.41015625 0.421875,0.73828125 0.9023437,0.73828125 0.3515625,0 0.5742188,-0.22265625 0.7382813,-0.5390625 0.1640625,-0.36328125 0.2929687,-0.97265629 0.2929687,-0.99609379 0,-0.09375 -0.082031,-0.09375 -0.1171875,-0.09375 -0.09375,0 -0.1054687,0.035156 -0.140625,0.1757813 -0.1640625,0.64453124 -0.3515625,1.24218749 -0.75,1.24218749 -0.2695312,0 -0.3046875,-0.2578125 -0.3046875,-0.45703125 0,-0.22265625 0.023437,-0.3046875 0.1289063,-0.73828124 0.1171875,-0.421875 0.1289062,-0.5273438 0.2226562,-0.9023438 l 0.3515625,-1.3945312 c 0.070312,-0.28125 0.070312,-0.2929688 0.070312,-0.3398438 0,-0.1640625 -0.1171875,-0.2695312 -0.28125,-0.2695312 -0.2460937,0 -0.3867187,0.2226562 -0.4218745,0.4453125 z m -0.6445312,2.578125 c -0.046875,0.1757812 -0.046875,0.19921874 -0.1992188,0.36328124 -0.4453125,0.55078125 -0.84375,0.71484375 -1.125,0.71484375 -0.5039062,0 -0.6445312,-0.55078125 -0.6445312,-0.93749999 0,-0.5039063 0.328125,-1.7226563 0.5507812,-2.1796875 0.3046875,-0.5976563 0.7617188,-0.9609375 1.1601563,-0.9609375 0.6445312,0 0.7851562,0.8203125 0.7851562,0.8789062 0,0.058594 -0.023437,0.1171875 -0.035156,0.1640625 z m 0,0"
       style="fill:#000000;fill-opacity:1;fill-rule:nonzero;stroke:none"
       aria-label="a"
       transform="matrix(1.3333333,0,0,1.3333333,26.162667,29.801333)" />
    <path
       id="path40"
       d="M 2.0270391,1.7464453 V 1.4066016 H 1.2887578 V -4.8863672 H 2.0270391 V -5.2262109 H 0.94891406 v 6.9726562 z m 3.7441406,-3.0117187 h -0.234375 c -0.023437,0.1523437 -0.082031,0.56249996 -0.1757813,0.63281246 -0.058594,0.0351563 -0.5976562,0.0351563 -0.6914062,0.0351563 H 3.3805547 c 0.7382812,-0.64453116 0.984375,-0.84374996 1.3945312,-1.17187496 0.515625,-0.4101562 0.9960938,-0.8437501 0.9960938,-1.5000001 0,-0.8437499 -0.7382813,-1.3593749 -1.6289063,-1.3593749 -0.8671875,0 -1.453125,0.609375 -1.453125,1.2421874 0,0.3632814 0.3046875,0.3984375 0.375,0.3984375 0.1640625,0 0.375,-0.1171875 0.375,-0.375 0,-0.1289061 -0.058594,-0.3632811 -0.421875,-0.3632811 0.2226563,-0.5039063 0.6914063,-0.65625 1.0195313,-0.65625 0.703125,0 1.0664062,0.5507812 1.0664062,1.1132812 0,0.609375 -0.4335937,1.0898438 -0.65625,1.3359375 l -1.6875,1.66406246 c -0.070312,0.0585938 -0.070312,0.0703125 -0.070312,0.2695312525 h 2.8828125 z m 1.7548828,-3.9609375 h -1.078125 v 0.3398437 H 7.1862188 V 1.4066016 H 6.4479375 v 0.3398437 h 1.078125 z m 0,0"
       style="fill:#000000;fill-opacity:1;fill-rule:nonzero;stroke:none"
       aria-label="[2]"
       transform="matrix(1.3333333,0,0,1.3333333,33.184,24.98)" />
    <path
       id="path41"
       d="m 6.8444922,-3.2582266 c 0.1523437,0 0.3398437,0 0.3398437,-0.1992187 0,-0.1992188 -0.1875,-0.1992188 -0.328125,-0.1992188 H 0.89136719 c -0.140625,0 -0.328125,0 -0.328125,0.1992188 0,0.1992187 0.1875,0.1992187 0.33984375,0.1992187 z m 0.011719,1.9335938 c 0.140625,0 0.328125,0 0.328125,-0.1992188 0,-0.1992187 -0.1875,-0.1992187 -0.3398437,-0.1992187 H 0.90308594 c -0.15234375,0 -0.33984375,0 -0.33984375,0.1992187 0,0.1992188 0.1875,0.1992188 0.328125,0.1992188 z m 0,0"
       style="fill:#000000;fill-opacity:1;fill-rule:nonzero;stroke:none"
       aria-label="="
       transform="matrix(1.3333333,0,0,1.3333333,48.846667,29.801333)" />
    <path
       id="path42"
       d="m 5.1556406,-3.7152578 c 0.1289063,0 0.4921875,0 0.4921875,-0.3398438 0,-0.234375 -0.2109375,-0.234375 -0.3867187,-0.234375 H 2.9876719 c -1.5,0 -2.61328127,1.640625 -2.61328127,2.8242188 0,0.87890624 0.5859375,1.57031249 1.49999997,1.57031249 1.171875,0 2.4960938,-1.20703129 2.4960938,-2.73046879 0,-0.1757812 0,-0.65625 -0.3046875,-1.0898437 z m -3.2695312,3.60937499 c -0.4921875,0 -0.89062502,-0.36328125 -0.89062502,-1.07812499 0,-0.3046875 0.11718752,-1.1132813 0.46875002,-1.7109375 0.421875,-0.6796875 1.0195312,-0.8203125 1.359375,-0.8203125 0.8320312,0 0.9140625,0.65625 0.9140625,0.9609375 0,0.46875 -0.1992188,1.2890625 -0.5390625,1.79296874 -0.3867188,0.59765625 -0.9257813,0.85546875 -1.3125,0.85546875 z m 0,0"
       style="fill:#000000;fill-opacity:1;fill-rule:nonzero;stroke:none"
       aria-label="σ"
       transform="matrix(1.3333333,0,0,1.3333333,62.868,29.801333)" />
    <path
       id="path43"
       d="m 3.2940937,2.3902109 c 0,-0.035156 0,-0.046875 -0.1640625,-0.2226562 -1.2421875,-1.25390626 -1.5703125,-3.12890626 -1.5703125,-4.6640625 0,-1.7226563 0.3867188,-3.4570313 1.6054688,-4.7109375 0.1289062,-0.1171875 0.1289062,-0.1289063 0.1289062,-0.1640625 0,-0.070312 -0.035156,-0.1054688 -0.09375,-0.1054688 -0.1054687,0 -0.9960937,0.6796875 -1.5820312,1.9453125 -0.515625,1.1015625 -0.6328125,2.203125 -0.6328125,3.0351563 0,0.7851562 0.1171875,1.99218749 0.65625,3.11718749 0.5976562,1.21875001 1.453125,1.87500001 1.5585937,1.87500001 0.058594,0 0.09375,-0.035156 0.09375,-0.1054688 z m 0,0"
       style="fill:#000000;fill-opacity:1;fill-rule:nonzero;stroke:none"
       aria-label="("
       transform="matrix(1.3333333,0,0,1.3333333,70.936,29.801333)" />
    <path
       id="path44"
       d="M 1.3243906,-0.83244531 C 1.8634531,-1.4066641 2.1564219,-1.6527578 2.5079844,-1.9574453 c 0,-0.011719 0.6210937,-0.5390625 0.984375,-0.9023438 0.9375,-0.9257812 1.1601562,-1.40625 1.1601562,-1.4414062 0,-0.1054688 -0.09375,-0.1054688 -0.1054687,-0.1054688 -0.070312,0 -0.1054688,0.023437 -0.1523438,0.1171875 -0.3046875,0.46875 -0.5039062,0.6328125 -0.75,0.6328125 -0.234375,0 -0.3515625,-0.1523437 -0.5039062,-0.3164062 -0.1875,-0.234375 -0.3632813,-0.4335938 -0.6914063,-0.4335938 -0.75,0 -1.2070312,0.9257813 -1.2070312,1.1367188 0,0.046875 0.035156,0.1171875 0.1171875,0.1171875 0.09375,0 0.1171875,-0.058594 0.140625,-0.1171875 0.1875,-0.4570313 0.7617187,-0.46875 0.84375,-0.46875 0.2109375,0 0.3984375,0.070312 0.6210937,0.1523437 0.3984375,0.1523438 0.515625,0.1523438 0.7734375,0.1523438 -0.3632812,0.421875 -1.1953125,1.1367187 -1.3828125,1.3007812 l -0.9023437,0.8320313 c -0.67968752,0.66796874 -1.01953127,1.24218749 -1.01953127,1.31249999 0,0.09375 0.09375,0.09375 0.1171875,0.09375 0.0820313,0 0.09375,-0.01171875 0.15234375,-0.12890625 0.234375,-0.33984375 0.52734372,-0.609375 0.85546872,-0.609375 0.2226563,0 0.328125,0.0820313 0.5742188,0.375 0.1640625,0.2109375 0.3515625,0.36328125 0.6328125,0.36328125 0.984375,0 1.5703125,-1.26562499 1.5703125,-1.53515629 0,-0.046875 -0.046875,-0.09375 -0.1171875,-0.09375 -0.09375,0 -0.1171875,0.058594 -0.140625,0.1289063 -0.234375,0.64453124 -0.8671875,0.83203124 -1.1953125,0.83203124 -0.1992188,0 -0.3867188,-0.0585938 -0.5859375,-0.12890625 -0.3398438,-0.12890625 -0.4921875,-0.1640625 -0.703125,-0.1640625 -0.023437,0 -0.1757813,0 -0.2695313,0.0234375 z m 0,0"
       style="fill:#000000;fill-opacity:1;fill-rule:nonzero;stroke:none"
       aria-label="z"
       transform="matrix(1.3333333,0,0,1.3333333,76.101333,29.801333)" />
    <path
       id="path45"
       d="M 2.0278047,1.7464453 V 1.4066016 H 1.2895234 V -4.8863672 H 2.0278047 V -5.2262109 H 0.94967969 v 6.9726562 z m 3.7441406,-3.0117187 h -0.234375 c -0.023437,0.1523437 -0.082031,0.56249996 -0.1757812,0.63281246 -0.058594,0.0351563 -0.5976563,0.0351563 -0.6914063,0.0351563 H 3.3813203 c 0.7382813,-0.64453116 0.984375,-0.84374996 1.3945313,-1.17187496 0.515625,-0.4101562 0.9960937,-0.8437501 0.9960937,-1.5000001 0,-0.8437499 -0.7382812,-1.3593749 -1.6289062,-1.3593749 -0.8671875,0 -1.453125,0.609375 -1.453125,1.2421874 0,0.3632814 0.3046875,0.3984375 0.375,0.3984375 0.1640625,0 0.375,-0.1171875 0.375,-0.375 0,-0.1289061 -0.058594,-0.3632811 -0.421875,-0.3632811 0.2226562,-0.5039063 0.6914062,-0.65625 1.0195312,-0.65625 0.703125,0 1.0664063,0.5507812 1.0664063,1.1132812 0,0.609375 -0.4335938,1.0898438 -0.65625,1.3359375 l -1.6875,1.66406246 c -0.070312,0.0585938 -0.070312,0.0703125 -0.070312,0.2695312525 h 2.8828125 z m 1.7548828,-3.9609375 h -1.078125 v 0.3398437 H 7.1869844 V 1.4066016 H 6.4487031 v 0.3398437 h 1.078125 z m 0,0"
       style="fill:#000000;fill-opacity:1;fill-rule:nonzero;stroke:none"
       aria-label="[2]"
       transform="matrix(1.3333333,0,0,1.3333333,82.862667,24.98)" />
    <path
       id="path46"
       d="m 2.8827656,-2.4965078 c 0,-0.7734375 -0.1171875,-1.9804688 -0.65625,-3.1054688 -0.5976562,-1.21875 -1.46484372,-1.875 -1.55859372,-1.875 -0.0585938,0 -0.10546875,0.046875 -0.10546875,0.1054688 0,0.035156 0,0.046875 0.19921875,0.234375 0.97265622,0.984375 1.53515622,2.5664062 1.53515622,4.640625 0,1.71093749 -0.3632812,3.45703124 -1.59374997,4.7226562 -0.140625,0.1171875 -0.140625,0.1289063 -0.140625,0.1640625 0,0.058594 0.046875,0.1054688 0.10546875,0.1054688 0.09375,0 0.99609372,-0.6796875 1.58203122,-1.94531251 0.5039063,-1.1015625 0.6328125,-2.20312499 0.6328125,-3.04687499 z m 0,0"
       style="fill:#000000;fill-opacity:1;fill-rule:nonzero;stroke:none"
       aria-label=")"
       transform="matrix(1.3333333,0,0,1.3333333,94.836,29.801333)" />
    <path
       id="path47"
       d="m 14.03929,-0.59775 h -28.07858 c -4.69671,0 -8.50403,-3.80734 -8.50403,-8.50403 v -0.96962 c 0,-4.6967 3.80732,-8.50402 8.50403,-8.50402 h 28.07858 c 4.69671,0 8.50403,3.80732 8.50403,8.50402 v 0.96962 c 0,4.69669 -3.80732,8.50403 -8.50403,8.50403 z"
       style="fill:#ccffcc;fill-opacity:1;fill-rule:nonzero;stroke:#808080;stroke-width:1.19553;stroke-linecap:butt;stroke-linejoin:miter;stroke-miterlimit:10;stroke-dasharray:none;stroke-opacity:1"
       transform="matrix(1.3333333,0,0,-1.3333333,63.082667,12.782667)" />
    <path
       id="path48"
       d="m 3.7274063,-6.0238516 c 0.09375,-0.3632812 0.1171875,-0.46875 1.0546875,-0.46875 0.3046875,0 0.375,0 0.375,-0.1875 0,-0.1289062 -0.1054688,-0.1289062 -0.1523438,-0.1289062 -0.328125,0 -1.1484375,0.035156 -1.4765625,0.035156 -0.3046875,0 -1.03125,-0.035156 -1.3242187,-0.035156 -0.070312,0 -0.1875,0 -0.1875,0.1992187 0,0.1171875 0.082031,0.1171875 0.28125,0.1171875 0.011719,0 0.1992187,0 0.375,0.011719 0.1757812,0.023437 0.2695312,0.035156 0.2695312,0.1640625 0,0.035156 -0.011719,0.070312 -0.046875,0.1875 l -1.3359375,5.35546874 c -0.09375,0.38671875 -0.1171875,0.46875 -0.90234375,0.46875 -0.1640625,0 -0.26953125,0 -0.26953125,0.19921875 0,0.1054687475 0.09375,0.1054687475 0.26953125,0.1054687475 H 5.2742813 c 0.234375,0 0.2460937,0 0.3046875,-0.1640624975 L 6.364125,-2.3207266 C 6.411,-2.4261953 6.411,-2.4496328 6.411,-2.4613516 c 0,-0.035156 -0.035156,-0.1054687 -0.1289062,-0.1054687 -0.082031,0 -0.09375,0.046875 -0.1640625,0.2109375 -0.3398438,0.9140625 -0.7734375,2.05078124 -2.4960938,2.05078124 h -0.9375 c -0.140625,0 -0.1640625,0 -0.2226562,-0.0117188 -0.1054688,-0.0117188 -0.1289063,-0.0234375 -0.1289063,-0.10546875 0,-0.0234375 0,-0.046875 0.046875,-0.22265625 z m 0,0"
       style="fill:#000000;fill-opacity:1;fill-rule:nonzero;stroke:none"
       aria-label="L"
       transform="matrix(1.3333333,0,0,1.3333333,37.452,29.801333)" />
    <path
       id="path49"
       d="m 3.2931094,2.3902109 c 0,-0.035156 0,-0.046875 -0.1640625,-0.2226562 -1.2421875,-1.25390626 -1.5703125,-3.12890626 -1.5703125,-4.6640625 0,-1.7226563 0.3867187,-3.4570313 1.6054687,-4.7109375 0.1289063,-0.1171875 0.1289063,-0.1289063 0.1289063,-0.1640625 0,-0.070312 -0.035156,-0.1054688 -0.09375,-0.1054688 -0.1054688,0 -0.9960938,0.6796875 -1.5820313,1.9453125 -0.515625,1.1015625 -0.63281247,2.203125 -0.63281247,3.0351563 0,0.7851562 0.11718747,1.99218749 0.65624997,3.11718749 0.5976563,1.21875001 1.453125,1.87500001 1.5585938,1.87500001 0.058594,0 0.09375,-0.035156 0.09375,-0.1054688 z m 0,0"
       style="fill:#000000;fill-opacity:1;fill-rule:nonzero;stroke:none"
       aria-label="("
       transform="matrix(1.3333333,0,0,1.3333333,46.492,29.801333)" />
    <path
       id="path50"
       d="m 3.7159609,-3.7621328 c -0.1757812,-0.375 -0.46875,-0.6445313 -0.9140625,-0.6445313 -1.171875,0 -2.40234371,1.4648438 -2.40234371,2.9179688 0,0.93749999 0.55078125,1.59374999 1.32421871,1.59374999 0.1992188,0 0.703125,-0.03515625 1.3007813,-0.73828125 0.070312,0.41015625 0.421875,0.73828125 0.9023437,0.73828125 0.3515625,0 0.5742188,-0.22265625 0.7382813,-0.5390625 0.1640625,-0.36328125 0.2929687,-0.97265629 0.2929687,-0.99609379 0,-0.09375 -0.082031,-0.09375 -0.1171875,-0.09375 -0.09375,0 -0.1054687,0.035156 -0.140625,0.1757813 -0.1640625,0.64453124 -0.3515625,1.24218749 -0.75,1.24218749 -0.2695312,0 -0.3046875,-0.2578125 -0.3046875,-0.45703125 0,-0.22265625 0.023437,-0.3046875 0.1289063,-0.73828124 0.1171875,-0.421875 0.1289062,-0.5273438 0.2226562,-0.9023438 l 0.3515625,-1.3945312 c 0.070312,-0.28125 0.070312,-0.2929688 0.070312,-0.3398438 0,-0.1640625 -0.1171875,-0.2695312 -0.28125,-0.2695312 -0.2460937,0 -0.3867187,0.2226562 -0.4218745,0.4453125 z m -0.6445312,2.578125 c -0.046875,0.1757812 -0.046875,0.19921874 -0.1992188,0.36328124 -0.4453125,0.55078125 -0.84375,0.71484375 -1.125,0.71484375 -0.5039062,0 -0.6445312,-0.55078125 -0.6445312,-0.93749999 0,-0.5039063 0.328125,-1.7226563 0.5507812,-2.1796875 0.3046875,-0.5976563 0.7617188,-0.9609375 1.1601563,-0.9609375 0.6445312,0 0.7851562,0.8203125 0.7851562,0.8789062 0,0.058594 -0.023437,0.1171875 -0.035156,0.1640625 z m 0,0"
       style="fill:#000000;fill-opacity:1;fill-rule:nonzero;stroke:none"
       aria-label="a"
       transform="matrix(1.3333333,0,0,1.3333333,51.658667,29.801333)" />
    <path
       id="path51"
       d="M 2.0271094,1.7464453 V 1.4066016 H 1.2888281 V -4.8863672 H 2.0271094 V -5.2262109 H 0.94898438 V 1.7464453 Z M 5.77125,-1.2652734 H 5.536875 c -0.023437,0.1523437 -0.082031,0.56249996 -0.1757812,0.63281246 -0.058594,0.0351563 -0.5976563,0.0351563 -0.6914063,0.0351563 H 3.380625 C 4.1189063,-1.2418359 4.365,-1.4410547 4.7751563,-1.7691797 c 0.515625,-0.4101562 0.9960937,-0.84375 0.9960937,-1.5 0,-0.84375 -0.7382812,-1.359375 -1.6289062,-1.359375 -0.8671875,0 -1.453125,0.609375 -1.453125,1.2421875 0,0.3632813 0.3046875,0.3984375 0.375,0.3984375 0.1640625,0 0.375,-0.1171875 0.375,-0.375 0,-0.1289062 -0.058594,-0.3632812 -0.421875,-0.3632812 0.2226562,-0.5039063 0.6914062,-0.65625 1.0195312,-0.65625 0.703125,0 1.0664063,0.5507812 1.0664063,1.1132812 0,0.609375 -0.4335938,1.0898438 -0.65625,1.3359375 l -1.6875,1.66406251 c -0.070312,0.0585938 -0.070312,0.0703125 -0.070312,0.2695312525 h 2.8828125 z m 1.7548828,-3.9609375 h -1.078125 v 0.3398437 H 7.1862891 V 1.4066016 H 6.4480078 v 0.3398437 h 1.078125 z m 0,0"
       style="fill:#000000;fill-opacity:1;fill-rule:nonzero;stroke:none"
       aria-label="[2]"
       transform="matrix(1.3333333,0,0,1.3333333,58.68,24.98)" />
    <path
       id="path52"
       d="m 2.0266016,-0.01213281 c 0,-0.65625 -0.2578125,-1.04296879 -0.6445313,-1.04296879 -0.328125,0 -0.52734374,0.24609379 -0.52734374,0.52734379 0,0.26953125 0.19921874,0.5273437475 0.52734374,0.5273437475 0.1171875,0 0.2460938,-0.0351562475 0.3515625,-0.1289062475 0.023437,-0.0234375 0.035156,-0.0351563 0.046875,-0.0351563 0.011719,0 0.023437,0.0117188 0.023437,0.15234375 0,0.73828125 -0.3515625,1.33593746 -0.6796875,1.66406246 -0.1054687,0.1054688 -0.1054687,0.1289063 -0.1054687,0.1640625 0,0.070312 0.046875,0.1054687 0.09375,0.1054687 0.1171875,0 0.9140625,-0.7617187 0.914063,-1.93359361 z M 9.26,-3.7972891 c 0.046875,-0.140625 0.046875,-0.1523437 0.046875,-0.2226562 0,-0.1875 -0.140625,-0.2695313 -0.2929688,-0.2695313 -0.1054687,0 -0.2578125,0.058594 -0.3515625,0.1992188 -0.023437,0.058594 -0.09375,0.3632812 -0.140625,0.5390625 -0.070312,0.2578125 -0.140625,0.5273437 -0.1992187,0.796875 l -0.4453125,1.79296874 c -0.035156,0.15234375 -0.46875,0.85546875 -1.125,0.85546875 -0.5039063,0 -0.6210938,-0.4453125 -0.6210938,-0.80859375 0,-0.45703124 0.1757813,-1.07812504 0.515625,-1.95703124 0.1523438,-0.4101563 0.1992188,-0.515625 0.1992188,-0.7148438 0,-0.4453125 -0.328125,-0.8203125 -0.8203125,-0.8203125 -0.9492188,0 -1.3125,1.453125 -1.3125,1.5351563 0,0.1054687 0.09375,0.1054687 0.1171875,0.1054687 0.09375,0 0.1054687,-0.023437 0.1523437,-0.1875 0.2695313,-0.9375 0.6679688,-1.2304687 1.0078125,-1.2304687 0.082031,0 0.2578125,0 0.2578125,0.3164062 0,0.2460938 -0.1054687,0.515625 -0.1757812,0.703125 -0.3984375,1.0546875 -0.5742188,1.6171875 -0.5742188,2.0859375 0,0.89062504 0.6210938,1.18359379 1.21875,1.18359379 0.3867188,0 0.7265625,-0.1640625 0.9960938,-0.4453125 C 7.5842187,0.17536719 7.4670312,0.66755469 7.0685937,1.1948984 6.8107812,1.5347422 6.4357812,1.8277109 5.97875,1.8277109 c -0.140625,0 -0.5976563,-0.035156 -0.7617188,-0.421875 0.1640625,0 0.2929688,0 0.4335938,-0.1171875 0.09375,-0.09375 0.1992187,-0.2226562 0.1992187,-0.41015621 0,-0.31640625 -0.2695312,-0.3515625 -0.375,-0.3515625 -0.2226562,0 -0.5507812,0.1640625 -0.5507812,0.64453121 0,0.5039063 0.4335937,0.8671875 1.0546875,0.8671875 1.0195312,0 2.0507812,-0.9023437 2.3320312,-2.02734371 z m 0,0"
       style="fill:#000000;fill-opacity:1;fill-rule:nonzero;stroke:none"
       aria-label=",y"
       transform="matrix(1.3333333,0,0,1.3333333,70.653333,29.801333)" />
    <path
       id="path53"
       d="m 2.8829688,-2.4965078 c 0,-0.7734375 -0.1171875,-1.9804688 -0.65625,-3.1054688 -0.5976563,-1.21875 -1.4648438,-1.875 -1.5585938,-1.875 -0.0585938,0 -0.10546875,0.046875 -0.10546875,0.1054688 0,0.035156 0,0.046875 0.19921875,0.234375 0.9726563,0.984375 1.5351563,2.5664062 1.5351563,4.640625 0,1.71093749 -0.3632813,3.45703124 -1.59375005,4.7226562 -0.140625,0.1171875 -0.140625,0.1289063 -0.140625,0.1640625 0,0.058594 0.046875,0.1054688 0.10546875,0.1054688 0.09375,0 0.9960938,-0.6796875 1.5820313,-1.94531251 0.5039062,-1.1015625 0.6328125,-2.20312499 0.6328125,-3.04687499 z m 0,0"
       style="fill:#000000;fill-opacity:1;fill-rule:nonzero;stroke:none"
       aria-label=")"
       transform="matrix(1.3333333,0,0,1.3333333,83.546667,29.801333)" />
    <path
       id="path54"
       d="m 0,-9.5866 v 9.12833"
       style="fill:none;stroke:#000000;stroke-width:0.3985;stroke-linecap:butt;stroke-linejoin:miter;stroke-miterlimit:10;stroke-dasharray:none;stroke-opacity:1"
       transform="matrix(1.3333333,0,0,-1.3333333,63.082667,12.782667)" />
    <path
       id="path55"
       d="M -1.19551,1.59401 C -1.09587,0.99626 0,0.09961 0.29886,0 0,-0.09961 -1.09587,-0.99626 -1.19551,-1.59401"
       style="fill:none;stroke:#000000;stroke-width:0.31879;stroke-linecap:round;stroke-linejoin:round;stroke-miterlimit:10;stroke-dasharray:none;stroke-opacity:1"
       transform="matrix(0,-1.3333333,-1.3333333,0,63.082667,13.393693)" />
    <path
       id="path56"
       d="m 0,-18.20357 v 17.7453"
       style="fill:none;stroke:#000000;stroke-width:0.3985;stroke-linecap:butt;stroke-linejoin:miter;stroke-miterlimit:10;stroke-dasharray:none;stroke-opacity:1"
       transform="matrix(1.3333333,0,0,-1.3333333,63.082667,12.782667)" />
    <path
       id="path57"
       d="M -1.19551,1.59401 C -1.09587,0.99626 0,0.09961 0.29886,0 0,-0.09961 -1.09587,-0.99626 -1.19551,-1.59401"
       style="fill:none;stroke:#000000;stroke-width:0.31879;stroke-linecap:round;stroke-linejoin:round;stroke-miterlimit:10;stroke-dasharray:none;stroke-opacity:1"
       transform="matrix(0,-1.3333333,-1.3333333,0,63.082667,13.393693)" />
    <path
       id="path58"
       d="M 0,-19.17319 V -0.45827"
       style="fill:none;stroke:#000000;stroke-width:0.3985;stroke-linecap:butt;stroke-linejoin:miter;stroke-miterlimit:10;stroke-dasharray:none;stroke-opacity:1"
       transform="matrix(1.3333333,0,0,-1.3333333,63.082667,12.782667)" />
    <path
       id="path59"
       d="M -1.19551,1.59401 C -1.09587,0.99626 0,0.09961 0.29886,0 0,-0.09961 -1.09587,-0.99626 -1.19551,-1.59401"
       style="fill:none;stroke:#000000;stroke-width:0.31879;stroke-linecap:round;stroke-linejoin:round;stroke-miterlimit:10;stroke-dasharray:none;stroke-opacity:1"
       transform="matrix(0,-1.3333333,-1.3333333,0,63.082667,13.393693)" />
    <path
       id="path60"
       d="m 0,-18.20357 v 17.7453"
       style="fill:none;stroke:#000000;stroke-width:0.3985;stroke-linecap:butt;stroke-linejoin:miter;stroke-miterlimit:10;stroke-dasharray:none;stroke-opacity:1"
       transform="matrix(1.3333333,0,0,-1.3333333,63.082667,12.782667)" />
    <path
       id="path61"
       d="M -1.19551,1.59401 C -1.09587,0.99626 0,0.09961 0.29886,0 0,-0.09961 -1.09587,-0.99626 -1.19551,-1.59401"
       style="fill:none;stroke:#000000;stroke-width:0.31879;stroke-linecap:round;stroke-linejoin:round;stroke-miterlimit:10;stroke-dasharray:none;stroke-opacity:1"
       transform="matrix(0,-1.3333333,-1.3333333,0,63.082667,13.393693)" />
    <path
       id="path62"
       d="M 0,-19.17319 V -0.45827"
       style="fill:none;stroke:#000000;stroke-width:0.3985;stroke-linecap:butt;stroke-linejoin:miter;stroke-miterlimit:10;stroke-dasharray:none;stroke-opacity:1"
       transform="matrix(1.3333333,0,0,-1.3333333,63.082667,12.782667)" />
    <path
       id="path63"
       d="M -1.19551,1.59401 C -1.09587,0.99626 0,0.09961 0.29886,0 0,-0.09961 -1.09587,-0.99626 -1.19551,-1.59401"
       style="fill:none;stroke:#000000;stroke-width:0.31879;stroke-linecap:round;stroke-linejoin:round;stroke-miterlimit:10;stroke-dasharray:none;stroke-opacity:1"
       transform="matrix(0,-1.3333333,-1.3333333,0,63.082667,13.393693)" />
  </g>
</svg>
