<?xml version="1.0" encoding="UTF-8" standalone="no"?>
<!-- Created with Inkscape (http://www.inkscape.org/) -->

<svg
   version="1.1"
   id="svg1"
   width="455.13287"
   height="29.238281"
   viewBox="0 0 455.13287 29.238281"
   xmlns="http://www.w3.org/2000/svg"
   xmlns:svg="http://www.w3.org/2000/svg">
  <defs
     id="defs1" />
  <g
     id="g1"
     transform="translate(-1.5625001,0.00781278)">
    <path
       id="path1"
       d="M 2.5433047,2.4947969 V 2.0963594 H 1.5706484 V -7.0794219 H 2.5433047 V -7.4778594 H 1.1722109 v 9.9726563 z m 1.3271484,-3.25781253 c 0,0.45703125 -0.1171875,0.45703125 -0.7851562,0.45703125 v 0.3046875 c 0.3515625,-0.01171875 0.8554687,-0.03515625 1.125,-0.03515625 0.2578125,0 0.7851562,0.0234375 1.1132812,0.03515625 v -0.3046875 c -0.65625,0 -0.7734375,0 -0.7734375,-0.45703125 V -2.5911406 c 0,-1.03125 0.7148438,-1.59375 1.3476563,-1.59375 0.6210937,0 0.7382812,0.5390625 0.7382812,1.1015625 v 2.32031247 c 0,0.45703125 -0.1171875,0.45703125 -0.7734375,0.45703125 v 0.3046875 c 0.3398438,-0.01171875 0.8554688,-0.03515625 1.125,-0.03515625 0.2578125,0 0.7734375,0.0234375 1.1132813,0.03515625 v -0.3046875 c -0.515625,0 -0.7734375,0 -0.7851563,-0.3046875 V -2.5091094 c 0,-0.8554687 0,-1.171875 -0.3046875,-1.5234375 -0.140625,-0.1757812 -0.46875,-0.375 -1.0429687,-0.375 -0.84375,0 -1.2773438,0.5976563 -1.4414063,0.984375 v -3.4921875 l -1.4414062,0.1054688 v 0.3164062 c 0.703125,0 0.7851562,0.070312 0.7851562,0.5507813 z M 9.4163516,-2.5091094 c 0.058594,-1.4882812 0.9023434,-1.734375 1.2421874,-1.734375 1.019531,0 1.125,1.3476563 1.125,1.734375 z m -0.011719,0.2109375 h 2.7890624 c 0.210938,0 0.246094,0 0.246094,-0.2109375 0,-0.984375 -0.539062,-1.9570312 -1.78125,-1.9570312 -1.1601564,0 -2.0742189,1.03125 -2.0742189,2.2734375 0,1.33593747 1.0429688,2.29687497 2.1914069,2.29687497 1.21875,0 1.664062,-1.1015625 1.664062,-1.28906247 0,-0.1054688 -0.08203,-0.1171875 -0.128906,-0.1171875 -0.09375,0 -0.117188,0.058594 -0.128906,0.140625 -0.351563,1.01953122 -1.253907,1.01953122 -1.347657,1.01953122 -0.503906,0 -0.9023436,-0.29296875 -1.1249999,-0.66796875 C 9.4046328,-1.2903594 9.4046328,-1.9466094 9.4046326,-2.2981719 Z m 5.0830084,-2.109375 -1.394532,0.1171875 v 0.3046875 c 0.65625,0 0.738282,0.058594 0.738282,0.5507813 v 2.67187497 c 0,0.45703125 -0.105469,0.45703125 -0.773438,0.45703125 v 0.3046875 c 0.316406,-0.01171875 0.855469,-0.03515625 1.101563,-0.03515625 0.339843,0 0.691406,0.0234375 1.03125,0.03515625 v -0.3046875 c -0.65625,0 -0.703125,-0.0585938 -0.703125,-0.4453125 z m 0.04687,-1.734375 c 0,-0.3164062 -0.246094,-0.5273437 -0.527344,-0.5273437 -0.316406,0 -0.527344,0.2695312 -0.527344,0.5273437 0,0.2695313 0.210938,0.5273438 0.527344,0.5273438 0.28125,0 0.527344,-0.1992188 0.527344,-0.5273438 z m 3.178711,4.4296875 c -0.867188,0 -0.867188,-0.9960937 -0.867188,-1.2304687 0,-0.2695313 0.01172,-0.5859375 0.152344,-0.8320313 0.08203,-0.1171875 0.316406,-0.3984375 0.714844,-0.3984375 0.867187,0 0.867187,0.9960938 0.867187,1.21875 0,0.2695313 -0.01172,0.5976563 -0.164062,0.84375 -0.08203,0.1171875 -0.304688,0.3984375 -0.703125,0.3984375 z m -1.160157,0.3867188 c 0,-0.035156 0,-0.2695313 0.175782,-0.46875 0.386718,0.28125 0.796875,0.3046875 0.984375,0.3046875 0.925781,0 1.605468,-0.6796875 1.605468,-1.453125 0,-0.3632813 -0.152343,-0.7382813 -0.398437,-0.9609375 0.351562,-0.3398438 0.714844,-0.3867188 0.890625,-0.3867188 0.02344,0 0.07031,0 0.105469,0 -0.117188,0.046875 -0.164063,0.1523438 -0.164063,0.2695313 0,0.1757812 0.128906,0.2929687 0.292969,0.2929687 0.09375,0 0.28125,-0.070312 0.28125,-0.2929687 0,-0.1757813 -0.117188,-0.4921875 -0.503906,-0.4921875 -0.199219,0 -0.632813,0.058594 -1.054688,0.46875 -0.421875,-0.328125 -0.84375,-0.3632813 -1.054687,-0.3632813 -0.925782,0 -1.617188,0.6914063 -1.617188,1.453125 0,0.4453125 0.222656,0.8203125 0.46875,1.03125 -0.128906,0.1523438 -0.304687,0.4804688 -0.304687,0.8203125 0,0.31640627 0.128906,0.69140627 0.433593,0.89062502 -0.597656,0.17578125 -0.914062,0.59765625 -0.914062,0.99609375 0,0.71484373 0.984375,1.26562503 2.203125,1.26562503 1.171875,0 2.203125,-0.5039063 2.203125,-1.28906253 0,-0.33984375 -0.140625,-0.85546875 -0.644531,-1.125 -0.527344,-0.28125 -1.101563,-0.28125 -1.710938,-0.28125 -0.246094,0 -0.679687,0 -0.75,-0.0117188 -0.316406,-0.046875 -0.527344,-0.35156247 -0.527344,-0.66796867 z m 1.441407,3.1523437 c -1.007813,0 -1.699219,-0.515625 -1.699219,-1.04296873 0,-0.45703125 0.375,-0.8203125 0.820312,-0.85546875 h 0.585938 c 0.855469,0 1.96875,0 1.96875,0.85546875 0,0.53906253 -0.703125,1.04296873 -1.675781,1.04296873 z m 3.585937,-2.58984373 c 0,0.45703125 -0.117187,0.45703125 -0.785156,0.45703125 v 0.3046875 c 0.351562,-0.01171875 0.855469,-0.03515625 1.125,-0.03515625 0.257812,0 0.785156,0.0234375 1.113281,0.03515625 v -0.3046875 c -0.65625,0 -0.773437,0 -0.773437,-0.45703125 V -2.5911406 c 0,-1.03125 0.714843,-1.59375 1.347656,-1.59375 0.621094,0 0.738281,0.5390625 0.738281,1.1015625 v 2.32031247 c 0,0.45703125 -0.117187,0.45703125 -0.773437,0.45703125 v 0.3046875 c 0.339843,-0.01171875 0.855468,-0.03515625 1.125,-0.03515625 0.257812,0 0.773437,0.0234375 1.113281,0.03515625 v -0.3046875 c -0.515625,0 -0.773438,0 -0.785156,-0.3046875 V -2.5091094 c 0,-0.8554687 0,-1.171875 -0.304688,-1.5234375 -0.140625,-0.1757812 -0.46875,-0.375 -1.042969,-0.375 -0.84375,0 -1.277343,0.5976563 -1.441406,0.984375 v -3.4921875 l -1.441406,0.1054688 v 0.3164062 c 0.703125,0 0.785156,0.070312 0.785156,0.5507813 z m 5.876953,-3.22265627 h 1.429688 v -0.3046875 h -1.429688 v -1.8398437 h -0.246094 c -0.01172,0.8203125 -0.316406,1.8867187 -1.289062,1.921875 v 0.2226562 h 0.84375 v 2.7539063 c 0,1.21874997 0.925781,1.33593747 1.289062,1.33593747 0.703125,0 0.984375,-0.703125 0.984375,-1.33593747 V -1.8059844 H 28.7933 v 0.5507813 c 0,0.73828122 -0.304688,1.11328122 -0.667969,1.11328122 -0.667969,0 -0.667969,-0.90234372 -0.667969,-1.07812502 z m 8.99707,0.7265625 c 0.152344,0 0.339844,0 0.339844,-0.1992187 0,-0.1992188 -0.1875,-0.1992188 -0.328125,-0.1992188 h -5.964844 c -0.140625,0 -0.328125,0 -0.328125,0.1992188 0,0.1992187 0.1875,0.1992187 0.339844,0.1992187 z m 0.01172,1.9335938 c 0.140625,0 0.328125,0 0.328125,-0.1992188 0,-0.1992187 -0.1875,-0.1992187 -0.339844,-0.1992187 h -5.941406 c -0.152344,0 -0.339844,0 -0.339844,0.1992187 0,0.1992188 0.1875,0.1992188 0.328125,0.1992188 z m 3.823242,-0.3164063 v 0.86718752 c 0,0.3515625 -0.02344,0.46875 -0.761718,0.46875 h -0.210938 v 0.3046875 c 0.410156,-0.03515625 0.9375,-0.03515625 1.347656,-0.03515625 0.421875,0 0.949219,0 1.359375,0.03515625 v -0.3046875 h -0.210937 c -0.738281,0 -0.761719,-0.1171875 -0.761719,-0.46875 V -1.6419219 h 0.996094 v -0.3164062 h -0.996094 v -4.5234375 c 0,-0.1992188 0,-0.2578125 -0.152344,-0.2578125 -0.09375,0 -0.117187,0 -0.199218,0.1171875 l -3.058594,4.6640625 v 0.3164062 z m 0.05859,-0.3164062 h -2.425781 l 2.425781,-3.7148438 z m 4.019531,1.94531247 c 0,-0.6328125 -0.246093,-1.04296877 -0.644531,-1.04296877 -0.351562,0 -0.527344,0.26953127 -0.527344,0.52734377 0,0.2578125 0.175782,0.52734375 0.527344,0.52734375 0.164063,0 0.28125,-0.05859375 0.375,-0.140625 l 0.02344,-0.0234375 c 0.01172,0 0.02344,0.0117188 0.02344,0.15234375 0,0.64453125 -0.28125,1.24218753 -0.714844,1.71093753 -0.05859,0.058594 -0.07031,0.070312 -0.07031,0.1171875 0,0.070312 0.04687,0.1054687 0.09375,0.1054687 0.117187,0 0.914062,-0.7851562 0.914062,-1.93359373 z m 2.499024,-6.90234377 -1.429688,0.1054688 v 0.3164062 c 0.703125,0 0.773438,0.070312 0.773438,0.5507813 v 5.17968747 c 0,0.45703125 -0.105469,0.45703125 -0.773438,0.45703125 v 0.3046875 c 0.328125,-0.01171875 0.855469,-0.03515625 1.101563,-0.03515625 0.257812,0 0.738281,0.0234375 1.113281,0.03515625 v -0.3046875 c -0.667969,0 -0.785156,0 -0.785156,-0.45703125 z m 4.324219,6.15234377 c 0.03516,0.3984375 0.304687,0.8203125 0.773437,0.8203125 0.210938,0 0.820313,-0.140625 0.820313,-0.94921875 V -1.4427031 h -0.246094 v 0.55078122 c 0,0.5859375 -0.246094,0.64453125 -0.363281,0.64453125 -0.328125,0 -0.363282,-0.45703125 -0.363282,-0.50390625 V -2.7434844 c 0,-0.4101562 0,-0.8085937 -0.363281,-1.171875 -0.386719,-0.3867187 -0.878906,-0.5507812 -1.359375,-0.5507812 -0.820312,0 -1.511719,0.46875 -1.511719,1.125 0,0.3046875 0.199219,0.46875 0.457032,0.46875 0.28125,0 0.46875,-0.1992188 0.46875,-0.4570313 0,-0.1171875 -0.05859,-0.4453125 -0.515625,-0.4570312 0.269531,-0.3515625 0.761718,-0.4570313 1.078125,-0.4570313 0.492187,0 1.054687,0.3867188 1.054687,1.2773438 v 0.3632812 c -0.503906,0.035156 -1.207031,0.058594 -1.828125,0.3632813 -0.75,0.3398437 -0.996094,0.8554687 -0.996094,1.28906247 0,0.80859375 0.960938,1.0546875 1.59375,1.0546875 0.65625,0 1.113282,-0.3984375 1.300782,-0.8671875 z m -0.07031,-1.62890627 v 0.9960938 c 0,0.94921872 -0.714844,1.28906247 -1.160156,1.28906247 -0.492188,0 -0.902344,-0.3515625 -0.902344,-0.85546875 0,-0.53906252 0.421875,-1.37109372 2.0625,-1.42968752 z m 5.592774,-0.9609375 c 0.257812,-0.6210937 0.761718,-0.6328125 0.925781,-0.6328125 v -0.3046875 c -0.234375,0.011719 -0.515625,0.023437 -0.75,0.023437 -0.175781,0 -0.644531,-0.023437 -0.867188,-0.023437 v 0.3046875 c 0.304688,0.011719 0.46875,0.1757813 0.46875,0.4335938 0,0.09375 -0.01172,0.1171875 -0.05859,0.234375 L 55.424162,-0.86848438 54.3226,-3.5520781 c -0.04687,-0.09375 -0.05859,-0.140625 -0.05859,-0.1757813 0,-0.2578125 0.363281,-0.2578125 0.550781,-0.2578125 v -0.3046875 c -0.257812,0 -0.914062,0.023437 -1.078125,0.023437 -0.269531,0 -0.667969,-0.011719 -0.972656,-0.023437 v 0.3046875 c 0.480469,0 0.667969,0 0.808594,0.3515625 l 1.5,3.63281252 c -0.05859,0.12890625 -0.199219,0.45703125 -0.257813,0.5859375 -0.210937,0.55078128 -0.492187,1.24218748 -1.136719,1.24218748 -0.04687,0 -0.269531,0 -0.46875,-0.1875 0.316407,-0.035156 0.398438,-0.2578125 0.398438,-0.4101562 0,-0.26953128 -0.199219,-0.42187503 -0.421875,-0.42187503 -0.199219,0 -0.421875,0.12890625 -0.421875,0.42187503 0,0.4570312 0.421875,0.8085937 0.914062,0.8085937 0.632813,0 1.042969,-0.5625 1.277344,-1.13671873 z m 1.96582,0.84375 c 0.05859,-1.4882812 0.902344,-1.734375 1.242187,-1.734375 1.019532,0 1.125,1.3476563 1.125,1.734375 z m -0.01172,0.2109375 h 2.789063 c 0.210937,0 0.246093,0 0.246093,-0.2109375 0,-0.984375 -0.539062,-1.9570312 -1.78125,-1.9570312 -1.160156,0 -2.074218,1.03125 -2.074218,2.2734375 0,1.33593747 1.042968,2.29687497 2.191406,2.29687497 1.21875,0 1.664062,-1.1015625 1.664062,-1.28906247 0,-0.1054688 -0.08203,-0.1171875 -0.128906,-0.1171875 -0.09375,0 -0.117187,0.058594 -0.128906,0.140625 -0.351563,1.01953122 -1.253906,1.01953122 -1.347656,1.01953122 -0.503907,0 -0.902344,-0.29296875 -1.125,-0.66796875 C 58.667328,-1.2903594 58.667328,-1.9466094 58.667328,-2.2981719 Z m 4.992188,-1.0078125 v -1.1015625 l -1.382813,0.1171875 v 0.3046875 c 0.691406,0 0.773438,0.070312 0.773438,0.5625 v 2.66015627 c 0,0.45703125 -0.105469,0.45703125 -0.773438,0.45703125 v 0.3046875 c 0.386719,-0.01171875 0.855469,-0.03515625 1.136719,-0.03515625 0.398437,0 0.867187,0 1.265625,0.03515625 v -0.3046875 h -0.210938 c -0.738281,0 -0.761718,-0.1171875 -0.761718,-0.46875 V -2.3098906 c 0,-0.984375 0.421875,-1.875 1.183593,-1.875 0.05859,0 0.08203,0 0.105469,0.011719 -0.03516,0.011719 -0.234375,0.1289063 -0.234375,0.3867188 0,0.28125 0.210938,0.4335937 0.433594,0.4335937 0.175781,0 0.421875,-0.1289062 0.421875,-0.4453125 0,-0.3164062 -0.304688,-0.609375 -0.726563,-0.609375 -0.738281,0 -1.089843,0.6679688 -1.230468,1.1015622 z m 3.960937,-0.6796875 h 1.429688 v -0.3046875 h -1.429688 v -1.8398437 h -0.246094 c -0.01172,0.8203125 -0.316406,1.8867187 -1.289062,1.921875 v 0.2226562 h 0.84375 v 2.7539063 c 0,1.21874997 0.925781,1.33593747 1.289062,1.33593747 0.703125,0 0.984375,-0.703125 0.984375,-1.33593747 v -0.5742188 h -0.246093 v 0.5507813 c 0,0.73828122 -0.304688,1.11328122 -0.667969,1.11328122 -0.667969,0 -0.667969,-0.90234372 -0.667969,-1.07812502 z m 3.908203,-0.421875 -1.394531,0.1171875 v 0.3046875 c 0.65625,0 0.738281,0.058594 0.738281,0.5507813 v 2.67187497 c 0,0.45703125 -0.105469,0.45703125 -0.773437,0.45703125 v 0.3046875 c 0.316406,-0.01171875 0.855468,-0.03515625 1.101562,-0.03515625 0.339844,0 0.691406,0.0234375 1.03125,0.03515625 v -0.3046875 c -0.65625,0 -0.703125,-0.0585938 -0.703125,-0.4453125 z m 0.04687,-1.734375 c 0,-0.3164062 -0.246094,-0.5273437 -0.527344,-0.5273437 -0.316406,0 -0.527343,0.2695312 -0.527343,0.5273437 0,0.2695313 0.210937,0.5273438 0.527343,0.5273438 0.28125,0 0.527344,-0.1992188 0.527344,-0.5273438 z m 2.674805,2.15625 h 1.429687 v -0.3046875 h -1.429687 v -1.8398437 h -0.246094 c -0.01172,0.8203125 -0.316406,1.8867187 -1.289062,1.921875 v 0.2226562 h 0.84375 v 2.7539063 c 0,1.21874997 0.925781,1.33593747 1.289062,1.33593747 0.703125,0 0.984375,-0.703125 0.984375,-1.33593747 v -0.5742188 h -0.246094 v 0.5507813 c 0,0.73828122 -0.304687,1.11328122 -0.667968,1.11328122 -0.667969,0 -0.667969,-0.90234372 -0.667969,-1.07812502 z m 3.911133,-2.9296875 -1.429688,0.1054688 v 0.3164062 c 0.703125,0 0.773438,0.070312 0.773438,0.5507813 v 5.17968747 c 0,0.45703125 -0.105469,0.45703125 -0.773438,0.45703125 v 0.3046875 c 0.328125,-0.01171875 0.855469,-0.03515625 1.101563,-0.03515625 0.257812,0 0.738281,0.0234375 1.113281,0.03515625 v -0.3046875 c -0.667969,0 -0.785156,0 -0.785156,-0.45703125 z m 2.124023,4.40625 c 0.05859,-1.4882812 0.902344,-1.734375 1.242188,-1.734375 1.019531,0 1.125,1.3476563 1.125,1.734375 z m -0.01172,0.2109375 h 2.789063 c 0.210937,0 0.246094,0 0.246094,-0.2109375 0,-0.984375 -0.539063,-1.9570312 -1.78125,-1.9570312 -1.160157,0 -2.074219,1.03125 -2.074219,2.2734375 0,1.33593747 1.042969,2.29687497 2.191406,2.29687497 1.21875,0 1.664063,-1.1015625 1.664063,-1.28906247 0,-0.1054688 -0.08203,-0.1171875 -0.128907,-0.1171875 -0.09375,0 -0.117187,0.058594 -0.128906,0.140625 -0.351562,1.01953122 -1.253906,1.01953122 -1.347656,1.01953122 -0.503906,0 -0.902344,-0.29296875 -1.125,-0.66796875 C 80.273773,-1.2903594 80.273773,-1.9466094 80.273773,-2.2981719 Z m 4.435547,1.53515627 c 0,0.45703125 -0.117187,0.45703125 -0.785156,0.45703125 v 0.3046875 c 0.351563,-0.01171875 0.855469,-0.03515625 1.125,-0.03515625 0.257813,0 0.785156,0.0234375 1.113281,0.03515625 v -0.3046875 c -0.65625,0 -0.773437,0 -0.773437,-0.45703125 V -2.5911406 c 0,-1.03125 0.714844,-1.59375 1.347656,-1.59375 0.621094,0 0.738281,0.5390625 0.738281,1.1015625 v 2.32031247 c 0,0.45703125 -0.117187,0.45703125 -0.773437,0.45703125 v 0.3046875 c 0.339844,-0.01171875 0.855469,-0.03515625 1.125,-0.03515625 0.257812,0 0.773437,0.0234375 1.113281,0.03515625 v -0.3046875 c -0.515625,0 -0.773437,0 -0.785156,-0.3046875 V -2.5091094 c 0,-0.8554687 0,-1.171875 -0.304688,-1.5234375 -0.140625,-0.1757812 -0.46875,-0.375 -1.042968,-0.375 -0.84375,0 -1.277344,0.5976563 -1.441407,0.984375 v -3.4921875 l -1.441406,0.1054688 v 0.3164062 c 0.703125,0 0.785156,0.070312 0.785156,0.5507813 z m 5.53711,-1.74609377 c 0.05859,-1.4882812 0.902343,-1.734375 1.242187,-1.734375 1.019531,0 1.125,1.3476563 1.125,1.734375 z m -0.01172,0.2109375 h 2.789062 c 0.210938,0 0.246094,0 0.246094,-0.2109375 0,-0.984375 -0.539062,-1.9570312 -1.78125,-1.9570312 -1.160156,0 -2.074219,1.03125 -2.074219,2.2734375 0,1.33593747 1.042969,2.29687497 2.191407,2.29687497 1.21875,0 1.664062,-1.1015625 1.664062,-1.28906247 0,-0.1054688 -0.08203,-0.1171875 -0.128906,-0.1171875 -0.09375,0 -0.117188,0.058594 -0.128906,0.140625 -0.351563,1.01953122 -1.253907,1.01953122 -1.347657,1.01953122 -0.503906,0 -0.902343,-0.29296875 -1.125,-0.66796875 C 90.234711,-1.2903594 90.234711,-1.9466094 90.234711,-2.2981719 Z m 5.094726,-2.109375 -1.394531,0.1171875 v 0.3046875 c 0.65625,0 0.738281,0.058594 0.738281,0.5507813 v 2.67187497 c 0,0.45703125 -0.105468,0.45703125 -0.773437,0.45703125 v 0.3046875 c 0.316406,-0.01171875 0.855469,-0.03515625 1.101562,-0.03515625 0.339844,0 0.691407,0.0234375 1.03125,0.03515625 v -0.3046875 c -0.65625,0 -0.703125,-0.0585938 -0.703125,-0.4453125 z m 0.04687,-1.734375 c 0,-0.3164062 -0.246093,-0.5273437 -0.527343,-0.5273437 -0.316407,0 -0.527344,0.2695312 -0.527344,0.5273437 0,0.2695313 0.210937,0.5273438 0.527344,0.5273438 0.28125,0 0.527343,-0.1992188 0.527343,-0.5273438 z m 3.175782,4.4296875 c -0.867188,0 -0.867188,-0.9960937 -0.867188,-1.2304687 0,-0.2695313 0.01172,-0.5859375 0.152344,-0.8320313 0.08203,-0.1171875 0.316406,-0.3984375 0.714844,-0.3984375 0.867187,0 0.867187,0.9960938 0.867187,1.21875 0,0.2695313 -0.01172,0.5976563 -0.164062,0.84375 -0.08203,0.1171875 -0.304688,0.3984375 -0.703125,0.3984375 z m -1.160157,0.3867188 c 0,-0.035156 0,-0.2695313 0.175782,-0.46875 0.386718,0.28125 0.796875,0.3046875 0.984375,0.3046875 0.925781,0 1.605464,-0.6796875 1.605464,-1.453125 0,-0.3632813 -0.15234,-0.7382813 -0.398433,-0.9609375 0.351563,-0.3398438 0.714843,-0.3867188 0.890623,-0.3867188 0.0234,0 0.0703,0 0.10547,0 -0.11719,0.046875 -0.16406,0.1523438 -0.16406,0.2695313 0,0.1757812 0.1289,0.2929687 0.29296,0.2929687 0.0937,0 0.28125,-0.070312 0.28125,-0.2929687 0,-0.1757813 -0.11718,-0.4921875 -0.5039,-0.4921875 -0.19922,0 -0.63281,0.058594 -1.054687,0.46875 -0.421875,-0.328125 -0.84375,-0.3632813 -1.054687,-0.3632813 -0.925782,0 -1.617188,0.6914063 -1.617188,1.453125 0,0.4453125 0.222656,0.8203125 0.46875,1.03125 -0.128906,0.1523438 -0.304687,0.4804688 -0.304687,0.8203125 0,0.31640627 0.128906,0.69140627 0.433593,0.89062502 -0.597656,0.17578125 -0.914062,0.59765625 -0.914062,0.99609375 0,0.71484373 0.984375,1.26562503 2.203125,1.26562503 1.171875,0 2.203123,-0.5039063 2.203123,-1.28906253 0,-0.33984375 -0.14063,-0.85546875 -0.64453,-1.125 -0.527343,-0.28125 -1.101562,-0.28125 -1.710937,-0.28125 -0.246094,0 -0.679687,0 -0.75,-0.0117188 -0.316406,-0.046875 -0.527344,-0.35156247 -0.527344,-0.66796867 z m 1.441407,3.1523437 c -1.007813,0 -1.699219,-0.515625 -1.699219,-1.04296873 0,-0.45703125 0.375,-0.8203125 0.820312,-0.85546875 h 0.585938 c 0.855469,0 1.968743,0 1.968743,0.85546875 0,0.53906253 -0.703118,1.04296873 -1.675774,1.04296873 z m 3.588864,-2.58984373 c 0,0.45703125 -0.11719,0.45703125 -0.78516,0.45703125 v 0.3046875 c 0.35157,-0.01171875 0.85547,-0.03515625 1.125,-0.03515625 0.25782,0 0.78516,0.0234375 1.11329,0.03515625 v -0.3046875 c -0.65625,0 -0.77344,0 -0.77344,-0.45703125 V -2.5911406 c 0,-1.03125 0.71484,-1.59375 1.34765,-1.59375 0.6211,0 0.73829,0.5390625 0.73829,1.1015625 v 2.32031247 c 0,0.45703125 -0.11719,0.45703125 -0.77344,0.45703125 v 0.3046875 c 0.33984,-0.01171875 0.85547,-0.03515625 1.125,-0.03515625 0.25781,0 0.77344,0.0234375 1.11328,0.03515625 v -0.3046875 c -0.51563,0 -0.77344,0 -0.78516,-0.3046875 V -2.5091094 c 0,-0.8554687 0,-1.171875 -0.30468,-1.5234375 -0.14063,-0.1757812 -0.46875,-0.375 -1.04297,-0.375 -0.84375,0 -1.27735,0.5976563 -1.44141,0.984375 v -3.4921875 l -1.44141,0.1054688 v 0.3164062 c 0.70313,0 0.78516,0.070312 0.78516,0.5507813 z m 5.87695,-3.22265627 h 1.42969 v -0.3046875 h -1.42969 v -1.8398437 h -0.24609 c -0.0117,0.8203125 -0.31641,1.8867187 -1.28906,1.921875 v 0.2226562 h 0.84375 v 2.7539063 c 0,1.21874997 0.92578,1.33593747 1.28906,1.33593747 0.70313,0 0.98438,-0.703125 0.98438,-1.33593747 v -0.5742188 h -0.2461 v 0.5507813 c 0,0.73828122 -0.30469,1.11328122 -0.66797,1.11328122 -0.66797,0 -0.66797,-0.90234372 -0.66797,-1.07812502 z m 8.99414,0.7265625 c 0.15235,0 0.33985,0 0.33985,-0.1992187 0,-0.1992188 -0.1875,-0.1992188 -0.32813,-0.1992188 h -5.96484 c -0.14063,0 -0.32813,0 -0.32813,0.1992188 0,0.1992187 0.1875,0.1992187 0.33985,0.1992187 z m 0.0117,1.9335938 c 0.14063,0 0.32813,0 0.32813,-0.1992188 0,-0.1992187 -0.1875,-0.1992187 -0.33985,-0.1992187 h -5.9414 c -0.15235,0 -0.33985,0 -0.33985,0.1992187 0,0.1992188 0.1875,0.1992188 0.32813,0.1992188 z m 3.82325,-0.3164063 v 0.86718752 c 0,0.3515625 -0.0234,0.46875 -0.76172,0.46875 h -0.21094 v 0.3046875 c 0.41016,-0.03515625 0.9375,-0.03515625 1.34766,-0.03515625 0.42187,0 0.94921,0 1.35937,0.03515625 v -0.3046875 h -0.21094 c -0.73828,0 -0.76172,-0.1171875 -0.76172,-0.46875 V -1.6419219 h 0.9961 v -0.3164062 h -0.9961 v -4.5234375 c 0,-0.1992188 0,-0.2578125 -0.15234,-0.2578125 -0.0937,0 -0.11719,0 -0.19922,0.1171875 l -3.05859,4.6640625 v 0.3164062 z m 0.0586,-0.3164062 h -2.42578 l 2.42578,-3.7148438 z m 3.1084,-0.5507813 c 0.0586,-1.4882812 0.90234,-1.734375 1.24219,-1.734375 1.01953,0 1.125,1.3476563 1.125,1.734375 z m -0.0117,0.2109375 h 2.78906 c 0.21094,0 0.2461,0 0.2461,-0.2109375 0,-0.984375 -0.53907,-1.9570312 -1.78125,-1.9570312 -1.16016,0 -2.07422,1.03125 -2.07422,2.2734375 0,1.33593747 1.04297,2.29687497 2.1914,2.29687497 1.21875,0 1.66407,-1.1015625 1.66407,-1.28906247 0,-0.1054688 -0.082,-0.1171875 -0.12891,-0.1171875 -0.0937,0 -0.11719,0.058594 -0.12891,0.140625 -0.35156,1.01953122 -1.2539,1.01953122 -1.34765,1.01953122 -0.50391,0 -0.90235,-0.29296875 -1.125,-0.66796875 -0.30469,-0.48046877 -0.30469,-1.13671877 -0.30469,-1.48828127 z m 4.42676,-1.125 v 2.66015627 c 0,0.45703125 -0.11719,0.45703125 -0.78516,0.45703125 v 0.3046875 c 0.35156,-0.01171875 0.85547,-0.03515625 1.125,-0.03515625 0.25781,0 0.78516,0.0234375 1.11328,0.03515625 v -0.3046875 c -0.65625,0 -0.77344,0 -0.77344,-0.45703125 V -2.5911406 c 0,-1.03125 0.71485,-1.59375 1.34766,-1.59375 0.62109,0 0.73828,0.5390625 0.73828,1.1015625 v 2.32031247 c 0,0.45703125 -0.11719,0.45703125 -0.77344,0.45703125 v 0.3046875 c 0.33985,-0.01171875 0.85547,-0.03515625 1.125,-0.03515625 0.25782,0 0.77344,0.0234375 1.11329,0.03515625 v -0.3046875 c -0.66797,0 -0.78516,0 -0.78516,-0.45703125 V -2.5911406 c 0,-1.03125 0.71484,-1.59375 1.34766,-1.59375 0.63281,0 0.73828,0.5390625 0.73828,1.1015625 v 2.32031247 c 0,0.45703125 -0.10547,0.45703125 -0.77344,0.45703125 v 0.3046875 c 0.35156,-0.01171875 0.85547,-0.03515625 1.125,-0.03515625 0.25781,0 0.77344,0.0234375 1.11328,0.03515625 v -0.3046875 c -0.51562,0 -0.76172,0 -0.77344,-0.3046875 V -2.5091094 c 0,-0.8554687 0,-1.171875 -0.3164,-1.5234375 -0.12891,-0.1757812 -0.46875,-0.375 -1.04297,-0.375 -0.83203,0 -1.27735,0.5976563 -1.44141,0.984375 -0.14062,-0.8671875 -0.8789,-0.984375 -1.32422,-0.984375 -0.72656,0 -1.19531,0.4335938 -1.47656,1.0546875 v -1.0546875 l -1.40625,0.1171875 v 0.3046875 c 0.70313,0 0.78516,0.070312 0.78516,0.5625 z m 8.78027,-4.0546875 h -1.35937 v 0.3984375 h 0.96093 v 9.1757813 h -0.96093 v 0.3984375 h 1.35937 z m 6.59766,9.9726563 V 2.0963594 h -0.97266 v -9.1757813 h 0.97266 v -0.3984375 h -1.3711 v 9.9726563 z m 1.37695,-4.6640625 c 0,-1.6289063 0.82031,-2.0507813 1.34766,-2.0507813 0.0937,0 0.71484,0.011719 1.0664,0.375 -0.41015,0.023437 -0.46875,0.328125 -0.46875,0.4570313 0,0.2578125 0.1875,0.4570312 0.45703,0.4570312 0.25782,0 0.45703,-0.1640625 0.45703,-0.46875 0,-0.6796875 -0.75,-1.0664062 -1.52343,-1.0664062 -1.24219,0 -2.15625,1.078125 -2.15625,2.3085937 0,1.27734377 0.98437,2.26171877 2.14453,2.26171877 1.33594,0 1.65234,-1.19531247 1.65234,-1.28906247 0,-0.1054688 -0.10547,-0.1054688 -0.1289,-0.1054688 -0.0937,0 -0.11719,0.046875 -0.12891,0.1054688 -0.29297,0.92578122 -0.9375,1.04296872 -1.3125,1.04296872 -0.52734,0 -1.40625,-0.421875 -1.40625,-2.02734372 z m 7.96289,0.035156 c 0,-1.2773437 -0.99609,-2.3320312 -2.19141,-2.3320312 -1.2539,0 -2.21484,1.0898437 -2.21484,2.3320312 0,1.28906252 1.03125,2.23828127 2.20313,2.23828127 1.20703,0 2.20312,-0.97265625 2.20312,-2.23828127 z m -2.19141,1.99218752 c -0.43359,0 -0.86718,-0.2109375 -1.13671,-0.66796875 -0.25782,-0.43359377 -0.25782,-1.04296877 -0.25782,-1.40624997 0,-0.3867188 0,-0.9257813 0.2461,-1.359375 0.26953,-0.4570313 0.73828,-0.6679688 1.13672,-0.6679688 0.43359,0 0.86718,0.2226563 1.125,0.6445313 0.25781,0.4335937 0.25781,1.0078125 0.25781,1.3828125 0,0.3632812 0,0.9023437 -0.22266,1.33593747 -0.22265,0.4453125 -0.65625,0.73828125 -1.14844,0.73828125 z m 6.37793,-0.64453125 v 0.890625 l 1.44141,-0.10546875 v -0.3046875 c -0.70313,0 -0.78516,-0.0703125 -0.78516,-0.5625 V -4.4075469 l -1.45312,0.1171875 v 0.3046875 c 0.6914,0 0.77344,0.070312 0.77344,0.5625 v 1.7695313 c 0,0.86718747 -0.48047,1.54687497 -1.20704,1.54687497 -0.83203,0 -0.8789,-0.46875 -0.8789,-0.99609377 v -3.3046875 l -1.46485,0.1171875 v 0.3046875 c 0.78516,0 0.78516,0.035156 0.78516,0.9140625 v 1.5 c 0,0.77343752 0,1.67578127 1.51172,1.67578127 0.55078,0 0.99609,-0.26953125 1.27734,-0.8906252 z m 2.74512,-2.63671877 v 2.66015627 c 0,0.45703125 -0.11719,0.45703125 -0.78516,0.45703125 v 0.3046875 c 0.35157,-0.01171875 0.85547,-0.03515625 1.125,-0.03515625 0.25782,0 0.78516,0.0234375 1.11329,0.03515625 v -0.3046875 c -0.65625,0 -0.77344,0 -0.77344,-0.45703125 V -2.5911406 c 0,-1.03125 0.71484,-1.59375 1.34765,-1.59375 0.6211,0 0.73829,0.5390625 0.73829,1.1015625 v 2.32031247 c 0,0.45703125 -0.11719,0.45703125 -0.77344,0.45703125 v 0.3046875 c 0.33984,-0.01171875 0.85547,-0.03515625 1.125,-0.03515625 0.25781,0 0.77344,0.0234375 1.11328,0.03515625 v -0.3046875 c -0.51563,0 -0.77344,0 -0.78516,-0.3046875 V -2.5091094 c 0,-0.8554687 0,-1.171875 -0.30468,-1.5234375 -0.14063,-0.1757812 -0.46875,-0.375 -1.04297,-0.375 -0.72657,0 -1.19532,0.4335938 -1.47657,1.0546875 v -1.0546875 l -1.40625,0.1171875 v 0.3046875 c 0.70313,0 0.78516,0.070312 0.78516,0.5624998 z m 5.87695,-0.5625 h 1.42969 v -0.3046875 h -1.42969 v -1.8398437 h -0.24609 c -0.0117,0.8203125 -0.31641,1.8867187 -1.28906,1.921875 v 0.2226562 h 0.84375 v 2.7539063 c 0,1.21874997 0.92578,1.33593747 1.28906,1.33593747 0.70313,0 0.98438,-0.703125 0.98438,-1.33593747 v -0.5742188 h -0.2461 v 0.5507813 c 0,0.73828122 -0.30469,1.11328122 -0.66797,1.11328122 -0.66797,0 -0.66797,-0.90234372 -0.66797,-1.07812502 z m 8.99707,0.7265625 c 0.15235,0 0.33985,0 0.33985,-0.1992187 0,-0.1992188 -0.1875,-0.1992188 -0.32813,-0.1992188 h -5.96484 c -0.14063,0 -0.32813,0 -0.32813,0.1992188 0,0.1992187 0.1875,0.1992187 0.33985,0.1992187 z m 0.0117,1.9335938 c 0.14063,0 0.32813,0 0.32813,-0.1992188 0,-0.1992187 -0.1875,-0.1992187 -0.33985,-0.1992187 h -5.9414 c -0.15235,0 -0.33985,0 -0.33985,0.1992187 0,0.1992188 0.1875,0.1992188 0.32813,0.1992188 z m 3.78809,-2.1796875 c 0.80859,-0.2695313 1.39453,-0.9726563 1.39453,-1.7578125 0,-0.8203125 -0.87891,-1.3710938 -1.83984,-1.3710938 -1.00782,0 -1.75782,0.5976563 -1.75782,1.3476563 0,0.3398437 0.21094,0.5273437 0.50391,0.5273437 0.30469,0 0.50391,-0.2226562 0.50391,-0.515625 0,-0.4921875 -0.46875,-0.4921875 -0.60938,-0.4921875 0.30469,-0.4921875 0.96094,-0.6210937 1.32422,-0.6210937 0.41016,0 0.94922,0.2226562 0.94922,1.1132812 0,0.1289063 -0.0117,0.703125 -0.26953,1.1367188 -0.30469,0.4804687 -0.64453,0.515625 -0.89063,0.515625 -0.082,0.011719 -0.3164,0.035156 -0.38672,0.035156 -0.082,0.011719 -0.15234,0.023437 -0.15234,0.1171875 0,0.1171875 0.0703,0.1171875 0.23438,0.1171875 h 0.44531 c 0.80859,0 1.18359,0.6679688 1.18359,1.6523438 0,1.34765622 -0.6914,1.64062497 -1.125,1.64062497 -0.43359,0 -1.17187,-0.17578125 -1.52344,-0.76171875 0.35157,0.0585938 0.65625,-0.1640625 0.65625,-0.53906252 0,-0.3632812 -0.26953,-0.5625 -0.5625,-0.5625 -0.23437,0 -0.55078,0.140625 -0.55078,0.5742188 0,0.91406247 0.92578,1.57031247 2.00391,1.57031247 1.21875,0 2.12109,-0.9140625 2.12109,-1.92187497 0,-0.8203125 -0.62109,-1.59375 -1.65234,-1.8046873 z m 4.11328,3.49218747 c 0,-0.6328125 -0.24609,-1.04296877 -0.64453,-1.04296877 -0.35156,0 -0.52734,0.26953127 -0.52734,0.52734377 0,0.2578125 0.17578,0.52734375 0.52734,0.52734375 0.16406,0 0.28125,-0.05859375 0.375,-0.140625 l 0.0234,-0.0234375 c 0.0117,0 0.0234,0.0117188 0.0234,0.15234375 0,0.64453125 -0.28125,1.24218753 -0.71484,1.71093753 -0.0586,0.058594 -0.0703,0.070312 -0.0703,0.1171875 0,0.070312 0.0469,0.1054687 0.0937,0.1054687 0.11719,0 0.91406,-0.7851562 0.91406,-1.93359373 z m 5.41113,-3.73828127 v -3.1640625 l -1.42968,0.1054688 v 0.3164062 c 0.6914,0 0.77343,0.070312 0.77343,0.5507813 v 5.94140622 h 0.2461 c 0.0117,-0.01171875 0.0937,-0.15234375 0.36328,-0.62109375 0.15234,0.234375 0.5625,0.7265625 1.30078,0.7265625 1.18359,0 2.22656,-0.97265625 2.22656,-2.26171877 0,-1.265625 -0.97265,-2.25 -2.10937,-2.25 -0.78516,0 -1.20703,0.46875 -1.3711,0.65625 z m 0.0352,2.6132813 v -2.0507813 c 0,-0.1875 0,-0.1992187 0.10547,-0.3632812 0.38672,-0.5507813 0.9375,-0.6328125 1.17187,-0.6328125 0.45703,0 0.8086,0.2578125 1.05469,0.6328125 0.25781,0.4101562 0.28125,0.984375 0.28125,1.3945312 0,0.3632813 -0.0117,0.9609375 -0.30469,1.40625002 -0.21093,0.31640625 -0.58593,0.64453125 -1.125,0.64453125 -0.44531,0 -0.80859,-0.24609375 -1.04297,-0.609375 -0.14062,-0.2109375 -0.14062,-0.24609375 -0.14062,-0.42187497 z m 5.5459,-3.2695313 -1.39453,0.1171875 v 0.3046875 c 0.65625,0 0.73828,0.058594 0.73828,0.5507813 v 2.67187497 c 0,0.45703125 -0.10547,0.45703125 -0.77344,0.45703125 v 0.3046875 c 0.31641,-0.01171875 0.85547,-0.03515625 1.10156,-0.03515625 0.33985,0 0.69141,0.0234375 1.03125,0.03515625 v -0.3046875 c -0.65625,0 -0.70312,-0.0585938 -0.70312,-0.4453125 z m 0.0469,-1.734375 c 0,-0.3164062 -0.24609,-0.5273437 -0.52734,-0.5273437 -0.31641,0 -0.52734,0.2695312 -0.52734,0.5273437 0,0.2695313 0.21093,0.5273438 0.52734,0.5273438 0.28125,0 0.52734,-0.1992188 0.52734,-0.5273438 z m 4.26856,5.37890627 c 0.0351,0.3984375 0.30468,0.8203125 0.77343,0.8203125 0.21094,0 0.82032,-0.140625 0.82032,-0.94921875 V -1.4427031 h -0.2461 v 0.55078122 c 0,0.5859375 -0.24609,0.64453125 -0.36328,0.64453125 -0.32812,0 -0.36328,-0.45703125 -0.36328,-0.50390625 V -2.7434844 c 0,-0.4101562 0,-0.8085937 -0.36328,-1.171875 -0.38672,-0.3867187 -0.87891,-0.5507812 -1.35938,-0.5507812 -0.82031,0 -1.51171,0.46875 -1.51171,1.125 0,0.3046875 0.19921,0.46875 0.45703,0.46875 0.28125,0 0.46875,-0.1992188 0.46875,-0.4570313 0,-0.1171875 -0.0586,-0.4453125 -0.51563,-0.4570312 0.26953,-0.3515625 0.76172,-0.4570313 1.07813,-0.4570313 0.49218,0 1.05468,0.3867188 1.05468,1.2773438 v 0.3632812 c -0.5039,0.035156 -1.20703,0.058594 -1.82812,0.3632813 -0.75,0.3398437 -0.99609,0.8554687 -0.99609,1.28906247 0,0.80859375 0.96093,1.0546875 1.59375,1.0546875 0.65625,0 1.11328,-0.3984375 1.30078,-0.8671877 z m -0.0703,-1.62890627 v 0.9960938 c 0,0.94921872 -0.71484,1.28906247 -1.16015,1.28906247 -0.49219,0 -0.90235,-0.3515625 -0.90235,-0.85546875 0,-0.53906252 0.42188,-1.37109372 2.0625,-1.42968752 z m 3.8086,0.4570313 c 0.22265,0.035156 1.03125,0.1992187 1.03125,0.9140625 0,0.51562497 -0.35156,0.91406247 -1.125,0.91406247 -0.83203,0 -1.19531,-0.57421875 -1.38281,-1.41796877 -0.0352,-0.1289062 -0.0352,-0.1757812 -0.14063,-0.1757812 -0.12891,0 -0.12891,0.070312 -0.12891,0.2578125 v 1.31249997 c 0,0.1640625 0,0.234375 0.10547,0.234375 0.0586,0 0.0703,0 0.25782,-0.19921875 0.0117,-0.01171875 0.0117,-0.03515625 0.19921,-0.22265625 0.4336,0.421875 0.87891,0.421875 1.08985,0.421875 1.14844,0 1.60547,-0.66796875 1.60547,-1.38281247 0,-0.5273438 -0.29297,-0.8203125 -0.42188,-0.9492188 -0.32812,-0.3164062 -0.71484,-0.3984375 -1.13672,-0.46875 -0.55078,-0.1171875 -1.21875,-0.2460937 -1.21875,-0.8203125 0,-0.3515625 0.25782,-0.7617187 1.11328,-0.7617187 1.10157,0 1.14844,0.9023437 1.17188,1.2070312 0,0.09375 0.0937,0.09375 0.11719,0.09375 0.1289,0 0.1289,-0.046875 0.1289,-0.2460937 v -0.9960938 c 0,-0.1757812 0,-0.2460937 -0.11718,-0.2460937 -0.0469,0 -0.0703,0 -0.19922,0.1171875 -0.0234,0.046875 -0.12891,0.1289062 -0.16407,0.1640625 -0.375,-0.28125 -0.78515,-0.28125 -0.9375,-0.28125 -1.21875,0 -1.59375,0.6679687 -1.59375,1.2304687 0,0.3398438 0.16407,0.6210938 0.4336,0.84375 0.3164,0.2578125 0.59765,0.3164063 1.3125,0.4570313 z m 8.70996,-1.3242188 c 0.15234,0 0.33984,0 0.33984,-0.1992187 0,-0.1992188 -0.1875,-0.1992188 -0.32812,-0.1992188 h -5.96485 c -0.14062,0 -0.32812,0 -0.32812,0.1992188 0,0.1992187 0.1875,0.1992187 0.33984,0.1992187 z m 0.0117,1.9335938 c 0.14062,0 0.32812,0 0.32812,-0.1992188 0,-0.1992187 -0.1875,-0.1992187 -0.33984,-0.1992187 h -5.94141 c -0.15234,0 -0.33984,0 -0.33984,0.1992187 0,0.1992188 0.1875,0.1992188 0.32812,0.1992188 z m 2.63965,-2.9648438 v -1.1601562 c 0,-0.8789063 0.48047,-1.359375 0.91406,-1.359375 0.0352,0 0.17578,0 0.32812,0.070312 -0.11718,0.046875 -0.29296,0.1757812 -0.29296,0.421875 0,0.234375 0.15234,0.4335937 0.42187,0.4335937 0.29297,0 0.43359,-0.1992187 0.43359,-0.4453125 0,-0.3632812 -0.36328,-0.6914062 -0.89062,-0.6914062 -0.70313,0 -1.54688,0.5273437 -1.54688,1.5820312 v 1.1484375 h -0.78515 v 0.3046875 h 0.78515 v 3.22265627 c 0,0.45703125 -0.10546,0.45703125 -0.77343,0.45703125 v 0.3046875 c 0.38672,-0.01171875 0.85547,-0.03515625 1.13672,-0.03515625 0.39843,0 0.86718,0 1.26562,0.03515625 v -0.3046875 h -0.21094 c -0.73828,0 -0.76172,-0.1171875 -0.76172,-0.46875 V -3.9856719 h 1.13672 v -0.3046875 z m 4.60547,3.52734377 c 0.0352,0.3984375 0.30468,0.8203125 0.77343,0.8203125 0.21094,0 0.82032,-0.140625 0.82032,-0.94921875 V -1.4427031 h -0.2461 v 0.55078122 c 0,0.5859375 -0.24609,0.64453125 -0.36328,0.64453125 -0.32812,0 -0.36328,-0.45703125 -0.36328,-0.50390625 V -2.7434844 c 0,-0.4101562 0,-0.8085937 -0.36328,-1.171875 -0.38672,-0.3867187 -0.87891,-0.5507812 -1.35938,-0.5507812 -0.82031,0 -1.51172,0.46875 -1.51172,1.125 0,0.3046875 0.19922,0.46875 0.45704,0.46875 0.28125,0 0.46875,-0.1992188 0.46875,-0.4570313 0,-0.1171875 -0.0586,-0.4453125 -0.51563,-0.4570312 0.26953,-0.3515625 0.76172,-0.4570313 1.07813,-0.4570313 0.49218,0 1.05468,0.3867188 1.05468,1.2773438 v 0.3632812 c -0.5039,0.035156 -1.20703,0.058594 -1.82812,0.3632813 -0.75,0.3398437 -0.9961,0.8554687 -0.9961,1.28906247 0,0.80859375 0.96094,1.0546875 1.59375,1.0546875 0.65625,0 1.11329,-0.3984375 1.30079,-0.8671877 z m -0.0703,-1.62890627 v 0.9960938 c 0,0.94921872 -0.71484,1.28906247 -1.16015,1.28906247 -0.49219,0 -0.90235,-0.3515625 -0.90235,-0.85546875 0,-0.53906252 0.42188,-1.37109372 2.0625,-1.42968752 z m 3.49219,-4.5234375 -1.42969,0.1054688 v 0.3164062 c 0.70313,0 0.77344,0.070312 0.77344,0.5507813 v 5.17968747 c 0,0.45703125 -0.10547,0.45703125 -0.77344,0.45703125 v 0.3046875 c 0.32813,-0.01171875 0.85547,-0.03515625 1.10157,-0.03515625 0.25781,0 0.73828,0.0234375 1.11328,0.03515625 v -0.3046875 c -0.66797,0 -0.78516,0 -0.78516,-0.45703125 z m 3.08496,4.9804688 c 0.22266,0.035156 1.03125,0.1992187 1.03125,0.9140625 0,0.51562497 -0.35156,0.91406247 -1.125,0.91406247 -0.83203,0 -1.19531,-0.57421875 -1.38281,-1.41796877 -0.0352,-0.1289062 -0.0352,-0.1757812 -0.14063,-0.1757812 -0.1289,0 -0.1289,0.070312 -0.1289,0.2578125 v 1.31249997 c 0,0.1640625 0,0.234375 0.10547,0.234375 0.0586,0 0.0703,0 0.25781,-0.19921875 0.0117,-0.01171875 0.0117,-0.03515625 0.19922,-0.22265625 0.43359,0.421875 0.8789,0.421875 1.08984,0.421875 1.14844,0 1.60547,-0.66796875 1.60547,-1.38281247 0,-0.5273438 -0.29297,-0.8203125 -0.42187,-0.9492188 -0.32813,-0.3164062 -0.71485,-0.3984375 -1.13672,-0.46875 -0.55078,-0.1171875 -1.21875,-0.2460937 -1.21875,-0.8203125 0,-0.3515625 0.25781,-0.7617187 1.11328,-0.7617187 1.10156,0 1.14844,0.9023437 1.17187,1.2070312 0,0.09375 0.0937,0.09375 0.11719,0.09375 0.12891,0 0.12891,-0.046875 0.12891,-0.2460937 v -0.9960938 c 0,-0.1757812 0,-0.2460937 -0.11719,-0.2460937 -0.0469,0 -0.0703,0 -0.19922,0.1171875 -0.0234,0.046875 -0.12891,0.1289062 -0.16406,0.1640625 -0.375,-0.28125 -0.78516,-0.28125 -0.9375,-0.28125 -1.21875,0 -1.59375,0.6679687 -1.59375,1.2304687 0,0.3398438 0.16406,0.6210938 0.43359,0.84375 0.31641,0.2578125 0.59766,0.3164063 1.3125,0.4570313 z m 2.97656,-0.5742188 c 0.0586,-1.4882812 0.90235,-1.734375 1.24219,-1.734375 1.01953,0 1.125,1.3476563 1.125,1.734375 z m -0.0117,0.2109375 h 2.78906 c 0.21094,0 0.24609,0 0.24609,-0.2109375 0,-0.984375 -0.53906,-1.9570312 -1.78125,-1.9570312 -1.16015,0 -2.07422,1.03125 -2.07422,2.2734375 0,1.33593747 1.04297,2.29687497 2.19141,2.29687497 1.21875,0 1.66406,-1.1015625 1.66406,-1.28906247 0,-0.1054688 -0.082,-0.1171875 -0.1289,-0.1171875 -0.0937,0 -0.11719,0.058594 -0.12891,0.140625 -0.35156,1.01953122 -1.25391,1.01953122 -1.34766,1.01953122 -0.5039,0 -0.90234,-0.29296875 -1.125,-0.66796875 C 227.6312,-1.2903594 227.6312,-1.9466094 227.6312,-2.2981719 Z m 4.91015,-5.1796875 h -1.35937 v 0.3984375 h 0.96093 v 9.1757813 h -0.96093 v 0.3984375 h 1.35937 z m 6.58594,9.9726563 V 2.0963594 h -0.97266 v -9.1757813 h 0.97266 v -0.3984375 h -1.37109 v 9.9726563 z m 1.38574,-4.6640625 c 0,-1.6289063 0.82031,-2.0507813 1.34766,-2.0507813 0.0937,0 0.71484,0.011719 1.0664,0.375 -0.41015,0.023437 -0.46875,0.328125 -0.46875,0.4570313 0,0.2578125 0.1875,0.4570312 0.45703,0.4570312 0.25782,0 0.45704,-0.1640625 0.45704,-0.46875 0,-0.6796875 -0.75,-1.0664062 -1.52344,-1.0664062 -1.24219,0 -2.15625,1.078125 -2.15625,2.3085937 0,1.27734377 0.98437,2.26171877 2.14453,2.26171877 1.33594,0 1.65234,-1.19531247 1.65234,-1.28906247 0,-0.1054688 -0.10547,-0.1054688 -0.1289,-0.1054688 -0.0937,0 -0.11719,0.046875 -0.12891,0.1054688 -0.29297,0.92578122 -0.9375,1.04296872 -1.3125,1.04296872 -0.52734,0 -1.40625,-0.421875 -1.40625,-2.02734372 z m 7.9541,0.035156 c 0,-1.2773437 -0.99609,-2.3320312 -2.1914,-2.3320312 -1.25391,0 -2.21485,1.0898437 -2.21485,2.3320312 0,1.28906252 1.03125,2.23828127 2.20313,2.23828127 1.20703,0 2.20312,-0.97265625 2.20312,-2.23828127 z m -2.1914,1.99218752 c -0.4336,0 -0.86719,-0.2109375 -1.13672,-0.66796875 -0.25781,-0.43359377 -0.25781,-1.04296877 -0.25781,-1.40624997 0,-0.3867188 0,-0.9257813 0.24609,-1.359375 0.26953,-0.4570313 0.73828,-0.6679688 1.13672,-0.6679688 0.43359,0 0.86719,0.2226563 1.125,0.6445313 0.25781,0.4335937 0.25781,1.0078125 0.25781,1.3828125 0,0.3632812 0,0.9023437 -0.22266,1.33593747 -0.22265,0.4453125 -0.65625,0.73828125 -1.14843,0.73828125 z m 6.375,-0.64453125 v 0.890625 l 1.4414,-0.10546875 v -0.3046875 c -0.70312,0 -0.78515,-0.0703125 -0.78515,-0.5625 V -4.4075469 l -1.45313,0.1171875 v 0.3046875 c 0.69141,0 0.77344,0.070312 0.77344,0.5625 v 1.7695313 c 0,0.86718747 -0.48047,1.54687497 -1.20703,1.54687497 -0.83203,0 -0.87891,-0.46875 -0.87891,-0.99609377 v -3.3046875 l -1.46484,0.1171875 v 0.3046875 c 0.78515,0 0.78515,0.035156 0.78515,0.9140625 v 1.5 c 0,0.77343752 0,1.67578127 1.51172,1.67578127 0.55078,0 0.9961,-0.26953125 1.27735,-0.8906254 z m 2.74804,-2.63671877 v 2.66015627 c 0,0.45703125 -0.11718,0.45703125 -0.78515,0.45703125 v 0.3046875 c 0.35156,-0.01171875 0.85547,-0.03515625 1.125,-0.03515625 0.25781,0 0.78515,0.0234375 1.11328,0.03515625 v -0.3046875 c -0.65625,0 -0.77344,0 -0.77344,-0.45703125 V -2.5911406 c 0,-1.03125 0.71484,-1.59375 1.34766,-1.59375 0.62109,0 0.73828,0.5390625 0.73828,1.1015625 v 2.32031247 c 0,0.45703125 -0.11719,0.45703125 -0.77344,0.45703125 v 0.3046875 c 0.33984,-0.01171875 0.85547,-0.03515625 1.125,-0.03515625 0.25781,0 0.77344,0.0234375 1.11328,0.03515625 v -0.3046875 c -0.51562,0 -0.77344,0 -0.78515,-0.3046875 V -2.5091094 c 0,-0.8554687 0,-1.171875 -0.30469,-1.5234375 -0.14063,-0.1757812 -0.46875,-0.375 -1.04297,-0.375 -0.72656,0 -1.19531,0.4335938 -1.47656,1.0546875 v -1.0546875 l -1.40625,0.1171875 v 0.3046875 c 0.70312,0 0.78515,0.070312 0.78515,0.5624996 z m 5.87696,-0.5625 h 1.42968 v -0.3046875 h -1.42968 v -1.8398437 h -0.2461 c -0.0117,0.8203125 -0.3164,1.8867187 -1.28906,1.921875 v 0.2226562 h 0.84375 v 2.7539063 c 0,1.21874997 0.92578,1.33593747 1.28906,1.33593747 0.70313,0 0.98438,-0.703125 0.98438,-1.33593747 v -0.5742188 h -0.2461 v 0.5507813 c 0,0.73828122 -0.30468,1.11328122 -0.66796,1.11328122 -0.66797,0 -0.66797,-0.90234372 -0.66797,-1.07812502 z m 8.99414,0.7265625 c 0.15234,0 0.33984,0 0.33984,-0.1992187 0,-0.1992188 -0.1875,-0.1992188 -0.32812,-0.1992188 h -5.96485 c -0.14062,0 -0.32812,0 -0.32812,0.1992188 0,0.1992187 0.1875,0.1992187 0.33984,0.1992187 z m 0.0117,1.9335938 c 0.14062,0 0.32812,0 0.32812,-0.1992188 0,-0.1992187 -0.1875,-0.1992187 -0.33984,-0.1992187 h -5.94141 c -0.15234,0 -0.33984,0 -0.33984,0.1992187 0,0.1992188 0.1875,0.1992188 0.32812,0.1992188 z m 3.82324,-0.3164063 v 0.86718752 c 0,0.3515625 -0.0234,0.46875 -0.76172,0.46875 h -0.21094 v 0.3046875 c 0.41016,-0.03515625 0.9375,-0.03515625 1.34766,-0.03515625 0.42187,0 0.94922,0 1.35937,0.03515625 v -0.3046875 h -0.21093 c -0.73829,0 -0.76172,-0.1171875 -0.76172,-0.46875 V -1.6419219 h 0.99609 v -0.3164062 h -0.99609 v -4.5234375 c 0,-0.1992188 0,-0.2578125 -0.15235,-0.2578125 -0.0937,0 -0.11718,0 -0.19922,0.1171875 l -3.05859,4.6640625 v 0.3164062 z m 0.0586,-0.3164062 h -2.42578 l 2.42578,-3.7148438 z m 4.02246,1.94531247 c 0,-0.6328125 -0.24609,-1.04296877 -0.64453,-1.04296877 -0.35156,0 -0.52734,0.26953127 -0.52734,0.52734377 0,0.2578125 0.17578,0.52734375 0.52734,0.52734375 0.16406,0 0.28125,-0.05859375 0.375,-0.140625 l 0.0234,-0.0234375 c 0.0117,0 0.0234,0.0117188 0.0234,0.15234375 0,0.64453125 -0.28125,1.24218753 -0.71485,1.71093753 -0.0586,0.058594 -0.0703,0.070312 -0.0703,0.1171875 0,0.070312 0.0469,0.1054687 0.0937,0.1054687 0.11719,0 0.91406,-0.7851562 0.91406,-1.93359373 z m 5.40821,-3.73828127 v -3.1640625 l -1.42969,0.1054688 v 0.3164062 c 0.6914,0 0.77344,0.070312 0.77344,0.5507813 v 5.94140622 h 0.24609 c 0.0117,-0.01171875 0.0937,-0.15234375 0.36328,-0.62109375 0.15234,0.234375 0.5625,0.7265625 1.30078,0.7265625 1.1836,0 2.22656,-0.97265625 2.22656,-2.26171877 0,-1.265625 -0.97265,-2.25 -2.10937,-2.25 -0.78516,0 -1.20703,0.46875 -1.37109,0.65625 z m 0.0351,2.6132813 v -2.0507813 c 0,-0.1875 0,-0.1992187 0.10547,-0.3632812 0.38672,-0.5507813 0.9375,-0.6328125 1.17188,-0.6328125 0.45703,0 0.80859,0.2578125 1.05468,0.6328125 0.25782,0.4101562 0.28125,0.984375 0.28125,1.3945312 0,0.3632813 -0.0117,0.9609375 -0.30468,1.40625002 -0.21094,0.31640625 -0.58594,0.64453125 -1.125,0.64453125 -0.44532,0 -0.8086,-0.24609375 -1.04297,-0.609375 -0.14063,-0.2109375 -0.14063,-0.24609375 -0.14063,-0.42187497 z m 5.54883,-3.2695313 -1.39453,0.1171875 v 0.3046875 c 0.65625,0 0.73828,0.058594 0.73828,0.5507813 v 2.67187497 c 0,0.45703125 -0.10547,0.45703125 -0.77344,0.45703125 v 0.3046875 c 0.31641,-0.01171875 0.85547,-0.03515625 1.10157,-0.03515625 0.33984,0 0.6914,0.0234375 1.03125,0.03515625 v -0.3046875 c -0.65625,0 -0.70313,-0.0585938 -0.70313,-0.4453125 z m 0.0469,-1.734375 c 0,-0.3164062 -0.2461,-0.5273437 -0.52735,-0.5273437 -0.3164,0 -0.52734,0.2695312 -0.52734,0.5273437 0,0.2695313 0.21094,0.5273438 0.52734,0.5273438 0.28125,0 0.52735,-0.1992188 0.52735,-0.5273438 z m 4.27734,5.37890627 c 0.0352,0.3984375 0.30469,0.8203125 0.77344,0.8203125 0.21093,0 0.82031,-0.140625 0.82031,-0.94921875 V -1.4427031 h -0.24609 v 0.55078122 c 0,0.5859375 -0.2461,0.64453125 -0.36329,0.64453125 -0.32812,0 -0.36328,-0.45703125 -0.36328,-0.50390625 V -2.7434844 c 0,-0.4101562 0,-0.8085937 -0.36328,-1.171875 -0.38672,-0.3867187 -0.8789,-0.5507812 -1.35937,-0.5507812 -0.82032,0 -1.51172,0.46875 -1.51172,1.125 0,0.3046875 0.19922,0.46875 0.45703,0.46875 0.28125,0 0.46875,-0.1992188 0.46875,-0.4570313 0,-0.1171875 -0.0586,-0.4453125 -0.51563,-0.4570312 0.26954,-0.3515625 0.76172,-0.4570313 1.07813,-0.4570313 0.49219,0 1.05469,0.3867188 1.05469,1.2773438 v 0.3632812 c -0.50391,0.035156 -1.20703,0.058594 -1.82813,0.3632813 -0.75,0.3398437 -0.99609,0.8554687 -0.99609,1.28906247 0,0.80859375 0.96094,1.0546875 1.59375,1.0546875 0.65625,0 1.11328,-0.3984375 1.30078,-0.8671879 z m -0.0703,-1.62890627 v 0.9960938 c 0,0.94921872 -0.71485,1.28906247 -1.16016,1.28906247 -0.49219,0 -0.90234,-0.3515625 -0.90234,-0.85546875 0,-0.53906252 0.42187,-1.37109372 2.0625,-1.42968752 z m 3.81152,0.4570313 c 0.22266,0.035156 1.03125,0.1992187 1.03125,0.9140625 0,0.51562497 -0.35156,0.91406247 -1.125,0.91406247 -0.83203,0 -1.19531,-0.57421875 -1.38281,-1.41796877 -0.0352,-0.1289062 -0.0352,-0.1757812 -0.14063,-0.1757812 -0.1289,0 -0.1289,0.070312 -0.1289,0.2578125 v 1.31249997 c 0,0.1640625 0,0.234375 0.10546,0.234375 0.0586,0 0.0703,0 0.25782,-0.19921875 0.0117,-0.01171875 0.0117,-0.03515625 0.19922,-0.22265625 0.43359,0.421875 0.8789,0.421875 1.08984,0.421875 1.14844,0 1.60547,-0.66796875 1.60547,-1.38281247 0,-0.5273438 -0.29297,-0.8203125 -0.42188,-0.9492188 -0.32812,-0.3164062 -0.71484,-0.3984375 -1.13672,-0.46875 -0.55078,-0.1171875 -1.21875,-0.2460937 -1.21875,-0.8203125 0,-0.3515625 0.25782,-0.7617187 1.11329,-0.7617187 1.10156,0 1.14843,0.9023437 1.17187,1.2070312 0,0.09375 0.0937,0.09375 0.11719,0.09375 0.1289,0 0.1289,-0.046875 0.1289,-0.2460937 v -0.9960938 c 0,-0.1757812 0,-0.2460937 -0.11718,-0.2460937 -0.0469,0 -0.0703,0 -0.19922,0.1171875 -0.0234,0.046875 -0.12891,0.1289062 -0.16406,0.1640625 -0.375,-0.28125 -0.78516,-0.28125 -0.9375,-0.28125 -1.21875,0 -1.59375,0.6679687 -1.59375,1.2304687 0,0.3398438 0.16406,0.6210938 0.43359,0.84375 0.31641,0.2578125 0.59766,0.3164063 1.3125,0.4570313 z m 8.69824,-1.3242188 c 0.15235,0 0.33985,0 0.33985,-0.1992187 0,-0.1992188 -0.1875,-0.1992188 -0.32813,-0.1992188 h -5.96484 c -0.14063,0 -0.32813,0 -0.32813,0.1992188 0,0.1992187 0.1875,0.1992187 0.33985,0.1992187 z m 0.0117,1.9335938 c 0.14063,0 0.32813,0 0.32813,-0.1992188 0,-0.1992187 -0.1875,-0.1992187 -0.33985,-0.1992187 h -5.9414 c -0.15235,0 -0.33985,0 -0.33985,0.1992187 0,0.1992188 0.1875,0.1992188 0.32813,0.1992188 z m 2.63965,-2.9648438 V -5.450516 c 0,-0.8789063 0.48047,-1.359375 0.91406,-1.359375 0.0352,0 0.17578,0 0.32813,0.070312 -0.11719,0.046875 -0.29297,0.1757812 -0.29297,0.421875 0,0.234375 0.15234,0.4335937 0.42187,0.4335937 0.29297,0 0.4336,-0.1992187 0.4336,-0.4453125 0,-0.3632812 -0.36328,-0.6914062 -0.89063,-0.6914062 -0.70312,0 -1.54687,0.5273437 -1.54687,1.5820312 v 1.1484375 h -0.78516 v 0.3046875 h 0.78516 v 3.22265627 c 0,0.45703125 -0.10547,0.45703125 -0.77344,0.45703125 v 0.3046875 c 0.38672,-0.01171875 0.85547,-0.03515625 1.13672,-0.03515625 0.39844,0 0.86719,0 1.26562,0.03515625 v -0.3046875 h -0.21093 c -0.73829,0 -0.76172,-0.1171875 -0.76172,-0.46875 V -3.9856719 h 1.13672 v -0.3046875 z m 4.61426,3.52734377 c 0.0351,0.3984375 0.30468,0.8203125 0.77343,0.8203125 0.21094,0 0.82032,-0.140625 0.82032,-0.94921875 V -1.4427031 h -0.2461 v 0.55078122 c 0,0.5859375 -0.24609,0.64453125 -0.36328,0.64453125 -0.32812,0 -0.36328,-0.45703125 -0.36328,-0.50390625 V -2.7434844 c 0,-0.4101562 0,-0.8085937 -0.36328,-1.171875 -0.38672,-0.3867187 -0.87891,-0.5507812 -1.35938,-0.5507812 -0.82031,0 -1.51171,0.46875 -1.51171,1.125 0,0.3046875 0.19921,0.46875 0.45703,0.46875 0.28125,0 0.46875,-0.1992188 0.46875,-0.4570313 0,-0.1171875 -0.0586,-0.4453125 -0.51563,-0.4570312 0.26953,-0.3515625 0.76172,-0.4570313 1.07813,-0.4570313 0.49218,0 1.05468,0.3867188 1.05468,1.2773438 v 0.3632812 c -0.5039,0.035156 -1.20703,0.058594 -1.82812,0.3632813 -0.75,0.3398437 -0.99609,0.8554687 -0.99609,1.28906247 0,0.80859375 0.96093,1.0546875 1.59375,1.0546875 0.65625,0 1.11328,-0.3984375 1.30078,-0.8671879 z m -0.0703,-1.62890627 v 0.9960938 c 0,0.94921872 -0.71484,1.28906247 -1.16015,1.28906247 -0.49219,0 -0.90235,-0.3515625 -0.90235,-0.85546875 0,-0.53906252 0.42188,-1.37109372 2.0625,-1.42968752 z m 3.49219,-4.5234375 -1.42969,0.1054688 v 0.3164062 c 0.70313,0 0.77344,0.070312 0.77344,0.5507813 v 5.17968747 c 0,0.45703125 -0.10547,0.45703125 -0.77344,0.45703125 v 0.3046875 c 0.32813,-0.01171875 0.85547,-0.03515625 1.10157,-0.03515625 0.25781,0 0.73828,0.0234375 1.11328,0.03515625 v -0.3046875 c -0.66797,0 -0.78516,0 -0.78516,-0.45703125 z m 3.08496,4.9804688 c 0.22266,0.035156 1.03125,0.1992187 1.03125,0.9140625 0,0.51562497 -0.35156,0.91406247 -1.125,0.91406247 -0.83203,0 -1.19531,-0.57421875 -1.38281,-1.41796877 -0.0352,-0.1289062 -0.0352,-0.1757812 -0.14062,-0.1757812 -0.12891,0 -0.12891,0.070312 -0.12891,0.2578125 v 1.31249997 c 0,0.1640625 0,0.234375 0.10547,0.234375 0.0586,0 0.0703,0 0.25781,-0.19921875 0.0117,-0.01171875 0.0117,-0.03515625 0.19922,-0.22265625 0.43359,0.421875 0.87891,0.421875 1.08984,0.421875 1.14844,0 1.60547,-0.66796875 1.60547,-1.38281247 0,-0.5273438 -0.29297,-0.8203125 -0.42187,-0.9492188 -0.32813,-0.3164062 -0.71485,-0.3984375 -1.13672,-0.46875 -0.55078,-0.1171875 -1.21875,-0.2460937 -1.21875,-0.8203125 0,-0.3515625 0.25781,-0.7617187 1.11328,-0.7617187 1.10156,0 1.14844,0.9023437 1.17187,1.2070312 0,0.09375 0.0937,0.09375 0.11719,0.09375 0.12891,0 0.12891,-0.046875 0.12891,-0.2460937 v -0.9960938 c 0,-0.1757812 0,-0.2460937 -0.11719,-0.2460937 -0.0469,0 -0.0703,0 -0.19922,0.1171875 -0.0234,0.046875 -0.1289,0.1289062 -0.16406,0.1640625 -0.375,-0.28125 -0.78516,-0.28125 -0.9375,-0.28125 -1.21875,0 -1.59375,0.6679687 -1.59375,1.2304687 0,0.3398438 0.16406,0.6210938 0.43359,0.84375 0.31641,0.2578125 0.59766,0.3164063 1.3125,0.4570313 z m 2.96778,-0.5742188 c 0.0586,-1.4882812 0.90234,-1.734375 1.24218,-1.734375 1.01954,0 1.125,1.3476563 1.125,1.734375 z m -0.0117,0.2109375 h 2.78906 c 0.21094,0 0.24609,0 0.24609,-0.2109375 0,-0.984375 -0.53906,-1.9570312 -1.78125,-1.9570312 -1.16015,0 -2.07421,1.03125 -2.07421,2.2734375 0,1.33593747 1.04296,2.29687497 2.1914,2.29687497 1.21875,0 1.66406,-1.1015625 1.66406,-1.28906247 0,-0.1054688 -0.082,-0.1171875 -0.1289,-0.1171875 -0.0937,0 -0.11719,0.058594 -0.12891,0.140625 -0.35156,1.01953122 -1.2539,1.01953122 -1.34765,1.01953122 -0.50391,0 -0.90235,-0.29296875 -1.125,-0.66796875 -0.30469,-0.48046877 -0.30469,-1.13671877 -0.30469,-1.48828127 z m 4.90722,-5.1796875 h -1.35937 v 0.3984375 h 0.96094 V 2.096359 h -0.96094 v 0.3984375 h 1.35937 z M -12.401031,14.450852 v -0.398438 h -0.972656 V 4.8766328 h 0.972656 V 4.4781953 h -1.371094 v 9.9726567 z m 1.385742,-4.6640629 c 0,-1.6289063 0.820312,-2.0507813 1.3476562,-2.0507813 0.09375,0 0.7148437,0.011719 1.0664062,0.375 -0.4101562,0.023437 -0.46875,0.328125 -0.46875,0.4570313 0,0.2578125 0.1875,0.4570312 0.4570313,0.4570312 0.2578125,0 0.4570312,-0.1640625 0.4570312,-0.46875 0,-0.6796875 -0.75,-1.0664062 -1.5234375,-1.0664062 -1.2421874,0 -2.1562504,1.078125 -2.1562504,2.3085937 0,1.2773442 0.984375,2.2617192 2.1445317,2.2617192 1.3359375,0 1.6523437,-1.195313 1.6523437,-1.289063 0,-0.105469 -0.1054687,-0.105469 -0.1289062,-0.105469 -0.09375,0 -0.1171875,0.04687 -0.1289063,0.105469 -0.2929687,0.925781 -0.9375,1.042969 -1.3125,1.042969 -0.5273439,0 -1.4062499,-0.421875 -1.4062499,-2.0273439 z m 7.9541015,0.035156 c 0,-1.2773437 -0.9960937,-2.3320312 -2.1914062,-2.3320312 -1.2539063,0 -2.2148438,1.0898437 -2.2148438,2.3320312 0,1.2890629 1.03125,2.2382819 2.203125,2.2382819 1.2070313,0 2.203125,-0.972657 2.203125,-2.2382819 z m -2.1914062,1.9921879 c -0.4335938,0 -0.8671875,-0.210938 -1.1367188,-0.667969 C -6.647125,10.71257 -6.647125,10.103195 -6.647125,9.7399141 c 0,-0.3867188 0,-0.9257813 0.2460938,-1.359375 C -6.1315,7.9235078 -5.66275,7.7125703 -5.2643125,7.7125703 c 0.4335938,0 0.8671875,0.2226563 1.125,0.6445313 C -3.8815,8.7906953 -3.8815,9.3649141 -3.8815,9.7399141 c 0,0.3632809 0,0.9023439 -0.2226562,1.3359379 -0.2226563,0.445312 -0.65625,0.738281 -1.1484375,0.738281 z m 6.375,-0.644531 v 0.890625 L 2.5638125,11.954758 V 11.65007 c -0.703125,0 -0.7851562,-0.07031 -0.7851562,-0.5625 V 7.5485078 L 0.32553125,7.6656953 v 0.3046875 c 0.69140625,0 0.77343755,0.070312 0.77343755,0.5625 v 1.7695312 c 0,0.867188 -0.4804688,1.546875 -1.2070313,1.546875 -0.83203125,0 -0.87890625,-0.46875 -0.87890625,-0.996094 V 7.5485078 L -2.4518125,7.6656953 v 0.3046875 c 0.7851563,0 0.7851563,0.035156 0.7851563,0.9140625 v 1.4999997 c 0,0.773438 0,1.675782 1.5117187,1.675782 0.55078125,0 0.99609375,-0.269532 1.2773438,-0.890625 z M 3.8704531,8.5328828 v 2.6601562 c 0,0.457031 -0.1171875,0.457031 -0.7851562,0.457031 v 0.304688 c 0.3515625,-0.01172 0.8554687,-0.03516 1.125,-0.03516 0.2578125,0 0.7851562,0.02344 1.1132812,0.03516 V 11.65007 c -0.65625,0 -0.7734375,0 -0.7734375,-0.457031 V 9.3649141 c 0,-1.03125 0.7148438,-1.59375 1.3476563,-1.59375 0.6210937,0 0.7382812,0.5390625 0.7382812,1.1015625 v 2.3203124 c 0,0.457031 -0.1171875,0.457031 -0.7734375,0.457031 v 0.304688 c 0.3398438,-0.01172 0.8554688,-0.03516 1.125,-0.03516 0.2578125,0 0.7734375,0.02344 1.1132813,0.03516 V 11.65007 c -0.515625,0 -0.7734375,0 -0.7851563,-0.304687 V 9.4469453 c 0,-0.8554687 0,-1.171875 -0.3046875,-1.5234375 -0.140625,-0.1757812 -0.46875,-0.375 -1.0429687,-0.375 -0.7265625,0 -1.1953125,0.4335938 -1.4765625,1.0546875 V 7.5485078 l -1.40625,0.1171875 v 0.3046875 c 0.703125,0 0.7851562,0.070312 0.7851562,0.5625 z m 5.8769532,-0.5625 H 11.177094 V 7.6656953 H 9.7474063 V 5.8258516 H 9.5013125 C 9.4895938,6.6461641 9.1849063,7.7125703 8.21225,7.7477266 V 7.9703828 H 9.056 v 2.7539062 c 0,1.21875 0.9257813,1.335938 1.289063,1.335938 0.703125,0 0.984375,-0.703125 0.984375,-1.335938 V 10.15007 h -0.246094 v 0.550782 c 0,0.738281 -0.304688,1.113281 -0.667969,1.113281 -0.6679687,0 -0.6679687,-0.902344 -0.6679687,-1.078125 z m 8.9941407,0.7265625 c 0.152344,0 0.339844,0 0.339844,-0.1992187 0,-0.1992188 -0.1875,-0.1992188 -0.328125,-0.1992188 h -5.964844 c -0.140625,0 -0.328125,0 -0.328125,0.1992188 0,0.1992187 0.1875,0.1992187 0.339844,0.1992187 z m 0.01172,1.9335937 c 0.140625,0 0.328125,0 0.328125,-0.199219 0,-0.199218 -0.1875,-0.199218 -0.339844,-0.199218 h -5.941406 c -0.152344,0 -0.339844,0 -0.339844,0.199218 0,0.199219 0.1875,0.199219 0.328125,0.199219 z m 3.823242,-5.0507812 c 0,-0.234375 0,-0.2578125 -0.234375,-0.2578125 -0.609375,0.6328125 -1.488281,0.6328125 -1.804688,0.6328125 v 0.3164063 c 0.199219,0 0.785157,0 1.300782,-0.2578125 v 5.1562504 c 0,0.351562 -0.03516,0.480468 -0.925782,0.480468 H 20.59604 v 0.304688 c 0.351563,-0.03516 1.207031,-0.03516 1.605469,-0.03516 0.398437,0 1.265625,0 1.617187,0.03516 V 11.65007 H 23.50229 c -0.902344,0 -0.925781,-0.117187 -0.925781,-0.480468 z M 26.20932,4.4781953 h -1.359375 v 0.3984375 h 0.960938 v 9.1757812 h -0.960938 v 0.398438 h 1.359375 z m 0,0"
       style="fill:#000000;fill-opacity:1;fill-rule:nonzero;stroke:none"
       aria-label="[height=4,layertitleheight=4em][count=3,bias=false][count=4,bias=false]&#10;[count=1]"
       transform="matrix(1.3333333,0,0,1.3333333,19.925333,9.9626667)" />
  </g>
</svg>
