<?xml version="1.0" encoding="UTF-8" standalone="no"?>
<!-- Created with Inkscape (http://www.inkscape.org/) -->

<svg
   version="1.1"
   id="svg1"
   width="98.599998"
   height="44.749332"
   viewBox="0 0 98.599998 44.749332"
   xmlns="http://www.w3.org/2000/svg"
   xmlns:svg="http://www.w3.org/2000/svg">
  <defs
     id="defs1" />
  <g
     id="g1">
    <path
       id="path1"
       d="m 13.33817,10.58986 h -26.67634 c -4.6967,0 -8.50403,-3.80734 -8.50403,-8.50403 v -4.17166 c 0,-4.69669 3.80733,-8.50403 8.50403,-8.50403 h 26.67634 c 4.6967,0 8.50403,3.80734 8.50403,8.50403 v 4.17166 c 0,4.69669 -3.80733,8.50403 -8.50403,8.50403 z"
       style="fill:#ccffcc;fill-opacity:1;fill-rule:nonzero;stroke:#808080;stroke-width:1.19553;stroke-linecap:butt;stroke-linejoin:miter;stroke-miterlimit:10;stroke-dasharray:none;stroke-opacity:1"
       transform="matrix(1.3333333,0,0,-1.3333333,49.3,14.916)" />
    <path
       id="path2"
       d="m 3.4932891,-0.56225781 c 0.1054687,0.41015625 0.4570312,0.66796875 0.8789062,0.66796875 0.3515625,0 0.5742188,-0.22265625 0.7382813,-0.5390625 0.1757812,-0.36328125 0.3046875,-0.97265624 0.3046875,-0.99609374 0,-0.09375 -0.09375,-0.09375 -0.1289063,-0.09375 -0.09375,0 -0.1054687,0.035156 -0.140625,0.1757812 -0.1289062,0.56250004 -0.328125,1.24218754 -0.7382812,1.24218754 -0.2109375,0 -0.3164063,-0.12890625 -0.3164063,-0.45703125 0,-0.22265625 0.1289063,-0.69140629 0.1992188,-1.04296879 l 0.28125,-1.078125 c 0.035156,-0.140625 0.1289062,-0.5273437 0.1757812,-0.6679687 0.046875,-0.234375 0.140625,-0.609375 0.140625,-0.6679688 0,-0.1875 -0.140625,-0.2695312 -0.28125,-0.2695312 -0.058594,0 -0.3164062,0 -0.3867187,0.3398437 -0.1992188,0.7265625 -0.6328125,2.4726563 -0.75,3.00000004 -0.011719,0.046875 -0.4101563,0.84375 -1.1367188,0.84375 -0.515625,0 -0.6210937,-0.45703125 -0.6210937,-0.8203125 0,-0.56250004 0.28125,-1.34765624 0.5390625,-2.02734374 0.1171875,-0.3046875 0.1757812,-0.4453125 0.1757812,-0.6328125 0,-0.4453125 -0.328125,-0.8203125 -0.8203125,-0.8203125 -0.94921874,0 -1.31249999,1.453125 -1.31249999,1.5351562 0,0.1054688 0.09375,0.1054688 0.1171875,0.1054688 0.09375,0 0.10546875,-0.023437 0.15234375,-0.1875 0.2578125,-0.8671875 0.63281254,-1.2304688 1.00781254,-1.2304688 0.09375,0 0.2578125,0.011719 0.2578125,0.328125 0,0.234375 -0.1171875,0.5273438 -0.1757813,0.6796875 -0.3632812,0.984375 -0.5742187,1.6054688 -0.5742187,2.0859375 0,0.94921879 0.6796875,1.19531254 1.21875,1.19531254 0.65625,0 1.0195312,-0.4453125 1.1953125,-0.66796875 z m 0,0"
       style="fill:#000000;fill-opacity:1;fill-rule:nonzero;stroke:none"
       aria-label="u"
       transform="matrix(1.3333333,0,0,1.3333333,24.604,19.097333)" />
    <path
       id="path3"
       d="m 3.5988594,-2.2271797 c 0,-0.7617187 -0.09375,-1.3125 -0.4101563,-1.8046875 -0.2226562,-0.3164062 -0.6445312,-0.5976562 -1.2070312,-0.5976562 -1.61718753,0 -1.61718753,1.8984375 -1.61718753,2.4023437 0,0.5039063 0,2.36718751 1.61718753,2.36718751 1.6171875,0 1.6171875,-1.86328121 1.6171875,-2.36718751 z m -1.6171875,2.16796876 c -0.3164063,0 -0.75,-0.1875 -0.890625,-0.76171875 -0.09375,-0.41015621 -0.09375,-0.98437501 -0.09375,-1.50000001 0,-0.5039062 0,-1.03125 0.1054687,-1.4179687 0.1523438,-0.5507813 0.5976563,-0.6914063 0.8789063,-0.6914063 0.375,0 0.7382812,0.2226563 0.8671875,0.6328125 0.1054687,0.375 0.1171875,0.8789063 0.1171875,1.4765625 0,0.515625 0,1.0429688 -0.09375,1.47656251 -0.140625,0.6328125 -0.609375,0.78515625 -0.890625,0.78515625 z m 0,0"
       style="fill:#000000;fill-opacity:1;fill-rule:nonzero;stroke:none"
       aria-label="0"
       transform="matrix(1.3333333,0,0,1.3333333,32.209333,21.090667)" />
    <path
       id="path4"
       d="m 6.8423516,-3.2575703 c 0.1523437,0 0.3398437,0 0.3398437,-0.1992188 0,-0.1992187 -0.1875,-0.1992187 -0.328125,-0.1992187 H 0.88922656 c -0.140625,0 -0.328125,0 -0.328125,0.1992187 0,0.1992188 0.1875,0.1992188 0.33984375,0.1992188 z m 0.011719,1.9335937 c 0.140625,0 0.328125,0 0.328125,-0.1992187 0,-0.1992188 -0.1875,-0.1992188 -0.3398437,-0.1992188 H 0.90094531 c -0.15234375,0 -0.33984375,0 -0.33984375,0.1992188 0,0.1992187 0.1875,0.1992187 0.328125,0.1992187 z m 0,0"
       style="fill:#000000;fill-opacity:1;fill-rule:nonzero;stroke:none"
       aria-label="="
       transform="matrix(1.3333333,0,0,1.3333333,41.857333,19.097333)" />
    <path
       id="path5"
       d="M 1.3243984,-0.83178906 C 1.8634609,-1.4060078 2.1564297,-1.6521016 2.5079922,-1.9567891 c 0,-0.011719 0.6210937,-0.5390625 0.984375,-0.9023437 0.9375,-0.9257813 1.1601562,-1.40625 1.1601562,-1.4414063 0,-0.1054687 -0.09375,-0.1054687 -0.1054687,-0.1054687 -0.070312,0 -0.1054688,0.023437 -0.1523438,0.1171875 -0.3046875,0.46875 -0.5039062,0.6328125 -0.75,0.6328125 -0.234375,0 -0.3515625,-0.1523438 -0.5039062,-0.3164063 -0.1875,-0.234375 -0.3632813,-0.4335937 -0.6914063,-0.4335937 -0.75,0 -1.2070312,0.9257812 -1.2070312,1.1367187 0,0.046875 0.035156,0.1171875 0.1171875,0.1171875 0.09375,0 0.1171875,-0.058594 0.140625,-0.1171875 0.1875,-0.4570312 0.7617187,-0.46875 0.84375,-0.46875 0.2109375,0 0.3984375,0.070312 0.6210937,0.1523438 0.3984375,0.1523437 0.515625,0.1523437 0.7734375,0.1523437 -0.3632812,0.421875 -1.1953125,1.1367188 -1.3828125,1.3007813 l -0.9023437,0.8320312 c -0.67968751,0.66796879 -1.01953126,1.24218754 -1.01953126,1.31250004 0,0.09375 0.09375,0.09375 0.1171875,0.09375 0.0820313,0 0.09375,-0.01171875 0.15234375,-0.12890625 0.234375,-0.33984375 0.52734371,-0.609375 0.85546871,-0.609375 0.2226563,0 0.328125,0.0820313 0.5742188,0.375 0.1640625,0.2109375 0.3515625,0.36328125 0.6328125,0.36328125 0.984375,0 1.5703125,-1.26562504 1.5703125,-1.53515624 0,-0.046875 -0.046875,-0.09375 -0.1171875,-0.09375 -0.09375,0 -0.1171875,0.058594 -0.140625,0.1289062 -0.234375,0.64453129 -0.8671875,0.83203129 -1.1953125,0.83203129 -0.1992188,0 -0.3867188,-0.0585938 -0.5859375,-0.12890625 -0.3398438,-0.12890625 -0.4921875,-0.1640625 -0.703125,-0.1640625 -0.023437,0 -0.1757813,0 -0.2695313,0.0234375 z m 0,0"
       style="fill:#000000;fill-opacity:1;fill-rule:nonzero;stroke:none"
       aria-label="z"
       transform="matrix(1.3333333,0,0,1.3333333,55.878667,19.097333)" />
    <path
       id="path6"
       d="M 2.0268125,1.7475078 V 1.4076641 H 1.2885313 v -6.2929688 h 0.7382812 v -0.3398437 h -1.078125 v 6.9726562 z m 0,0"
       style="fill:#000000;fill-opacity:1;fill-rule:nonzero;stroke:none"
       aria-label="["
       transform="matrix(1.3333333,0,0,1.3333333,62.641333,12.197333)" />
    <path
       id="path7"
       d="m 1.9690781,-4.6274922 c 0,-0.011719 0.023437,-0.1054687 0.023437,-0.1171875 0,-0.035156 -0.023437,-0.09375 -0.1054687,-0.09375 -0.140625,0 -0.7265625,0.058594 -0.90234377,0.070312 -0.046875,0.011719 -0.140625,0.011719 -0.140625,0.1640625 0,0.09375 0.09375,0.09375 0.17578127,0.09375 0.328125,0 0.328125,0.046875 0.328125,0.1054688 0,0.046875 -0.011719,0.09375 -0.023437,0.1523437 l -0.86718752,3.44531251 c -0.0234375,0.0703125 -0.0234375,0.140625 -0.0234375,0.2109375 0,0.45703125 0.3984375,0.66796875 0.72656252,0.66796875 0.1757812,0 0.375,-0.05859375 0.5625,-0.375 0.140625,-0.2578125 0.2460937,-0.66796875 0.2460937,-0.69140625 0,-0.09375 -0.09375,-0.09375 -0.1171875,-0.09375 -0.09375,0 -0.1054687,0.046875 -0.140625,0.16406252 -0.082031,0.3515625 -0.2226562,0.796875 -0.515625,0.796875 -0.1875,0 -0.23437497,-0.17578125 -0.23437497,-0.33984375 0,-0.0703125 0.0117188,-0.2109375 0.0351563,-0.28125 z m 0,0"
       style="fill:#000000;fill-opacity:1;fill-rule:nonzero;stroke:none"
       aria-label="l"
       transform="matrix(1.3333333,0,0,1.3333333,65.648,12.197333)" />
    <path
       id="path8"
       d="M 1.3016562,-5.2251484 H 0.22353125 v 0.3398437 H 0.9618125 V 1.4076641 H 0.22353125 V 1.7475078 H 1.3016562 Z m 0,0"
       style="fill:#000000;fill-opacity:1;fill-rule:nonzero;stroke:none"
       aria-label="]"
       transform="matrix(1.3333333,0,0,1.3333333,69.061333,12.197333)" />
    <path
       id="path9"
       d="m 3.0595391,-4.3587891 c 0,-0.1171875 -0.09375,-0.2578125 -0.28125,-0.2578125 -0.1992188,0 -0.3867188,0.1875 -0.3867188,0.375 0,0.1171875 0.082031,0.2695313 0.28125,0.2695313 0.1875,0 0.3867188,-0.1875 0.3867188,-0.3867188 z M 1.5829766,0.34042969 C 1.4657891,0.82089844 1.0907891,1.2310547 0.68063281,1.2310547 c -0.0820313,0 -0.17578125,-0.011719 -0.24609375,-0.046875 0.17578125,-0.082031 0.234375,-0.24609376 0.234375,-0.35156251 0,-0.1640625 -0.12890625,-0.2578125 -0.26953125,-0.2578125 -0.22265625,0 -0.3984374975,0.1875 -0.3984374975,0.41015625 0,0.26953126 0.2695312475,0.43359376 0.6914062475,0.43359376 0.42187504,0 1.23046874,-0.2460938 1.45312504,-1.10156251 L 2.7665703,-2.1791016 c 0.023437,-0.070312 0.035156,-0.140625 0.035156,-0.234375 0,-0.3867187 -0.328125,-0.65625 -0.7382813,-0.65625 -0.7851562,0 -1.23046874,0.9609375 -1.23046874,1.0664063 0,0.082031 0.10546875,0.082031 0.12890625,0.082031 0.0820313,0 0.0820313,-0.011719 0.12890629,-0.1171875 0.1757812,-0.4101562 0.5390625,-0.84375 0.9492187,-0.84375 0.1757813,0 0.234375,0.1171875 0.234375,0.3398438 0,0.082031 -0.011719,0.1757812 -0.023437,0.2109375 z m 3.1699218,-0.45703125 c 0,0.38671875 -0.070312,0.83203125 -0.5507812,1.27734376 -0.023437,0.035156 -0.046875,0.058594 -0.046875,0.09375 0,0.046875 0.058594,0.09375 0.09375,0.09375 0.1054687,0 0.6914062,-0.56250001 0.6914062,-1.39453126 0,-0.421875 -0.1640625,-0.75 -0.4804687,-0.75 -0.234375,0 -0.3984375,0.17578125 -0.3984375,0.38671875 0,0.234375 0.1523437,0.4101562475 0.3984375,0.4101562475 0.1640625,0 0.28125,-0.1171874975 0.2929687,-0.1171874975 z M 7.9023125,-4.3587891 c 0,-0.1054687 -0.082031,-0.2578125 -0.28125,-0.2578125 -0.1875,0 -0.3867187,0.1757813 -0.3867187,0.375 0,0.1171875 0.082031,0.2695313 0.2695312,0.2695313 0.2109375,0 0.3984375,-0.1992188 0.3984375,-0.3867188 z M 6.472625,-0.81972656 c -0.023437,0.09375 -0.058594,0.17578125 -0.058594,0.29296875 0,0.328125 0.28125,0.59765625 0.6679687,0.59765625 0.6914063,0 0.9960938,-0.9609375 0.9960938,-1.06640625 0,-0.09375 -0.082031,-0.09375 -0.1054688,-0.09375 -0.1054687,0 -0.1054687,0.046875 -0.140625,0.11718748 -0.1523437,0.5625 -0.4570312,0.84375 -0.7382812,0.84375 -0.140625,0 -0.1757813,-0.0820313 -0.1757813,-0.24609375 0,-0.15234375 0.058594,-0.29296875 0.1171875,-0.4453125 C 7.1054375,-1.0072266 7.17575,-1.1947266 7.2577813,-1.3705078 7.316375,-1.5345703 7.5741875,-2.1791016 7.597625,-2.2611328 7.6210625,-2.3314453 7.6445,-2.4134766 7.6445,-2.4837891 c 0,-0.328125 -0.28125,-0.5859375 -0.6679687,-0.5859375 -0.6914063,0 -1.0078125,0.9492188 -1.0078125,1.0664063 0,0.082031 0.09375,0.082031 0.1171875,0.082031 0.09375,0 0.1054687,-0.035156 0.1289062,-0.1054687 0.1757813,-0.5976563 0.4804688,-0.8554688 0.7382813,-0.8554688 0.1171875,0 0.1757812,0.058594 0.1757812,0.2460938 0,0.1640625 -0.035156,0.2695312 -0.2109375,0.703125 z m 0,0"
       style="fill:#000000;fill-opacity:1;fill-rule:nonzero;stroke:none"
       aria-label="j,i"
       transform="matrix(1.3333333,0,0,1.3333333,62.057333,22.8)" />
    <path
       id="path10"
       d="m 15.50543,-0.59775 h -31.01086 c -4.6967,0 -8.50403,-3.80734 -8.50403,-8.50403 v 0 c 0,-4.6967 3.80733,-8.50404 8.50403,-8.50404 h 31.01086 c 4.6967,0 8.50403,3.80734 8.50403,8.50404 v 0 c 0,4.69669 -3.80733,8.50403 -8.50403,8.50403 z"
       style="fill:#ccffcc;fill-opacity:1;fill-rule:nonzero;stroke:#808080;stroke-width:1.19553;stroke-linecap:butt;stroke-linejoin:miter;stroke-miterlimit:10;stroke-dasharray:none;stroke-opacity:1"
       transform="matrix(1.3333333,0,0,-1.3333333,49.3,14.916)" />
    <path
       id="path11"
       d="m 3.4923203,-0.56223438 c 0.1054688,0.41015625 0.4570313,0.66796875 0.8789063,0.66796875 0.3515625,0 0.5742187,-0.22265625 0.7382812,-0.5390625 0.1757813,-0.36328125 0.3046875,-0.97265627 0.3046875,-0.99609377 0,-0.09375 -0.09375,-0.09375 -0.1289062,-0.09375 -0.09375,0 -0.1054688,0.035156 -0.140625,0.1757813 -0.1289063,0.56249997 -0.328125,1.24218747 -0.7382813,1.24218747 -0.2109375,0 -0.3164062,-0.12890625 -0.3164062,-0.45703125 0,-0.22265625 0.1289062,-0.69140622 0.1992187,-1.04296872 l 0.28125,-1.078125 c 0.035156,-0.140625 0.1289063,-0.5273438 0.1757813,-0.6679688 0.046875,-0.234375 0.140625,-0.609375 0.140625,-0.6679687 0,-0.1875 -0.140625,-0.2695313 -0.28125,-0.2695313 -0.058594,0 -0.3164063,0 -0.3867188,0.3398438 -0.1992187,0.7265625 -0.6328125,2.4726562 -0.75,2.99999997 -0.011719,0.046875 -0.4101562,0.84375 -1.1367187,0.84375 -0.515625,0 -0.6210938,-0.45703125 -0.6210938,-0.8203125 0,-0.56249997 0.28125,-1.34765627 0.5390625,-2.02734377 0.1171875,-0.3046875 0.1757813,-0.4453125 0.1757813,-0.6328125 0,-0.4453125 -0.328125,-0.8203125 -0.8203125,-0.8203125 -0.94921879,0 -1.31250004,1.453125 -1.31250004,1.5351563 0,0.1054687 0.09375,0.1054687 0.1171875,0.1054687 0.09375,0 0.10546875,-0.023437 0.15234375,-0.1875 0.2578125,-0.8671875 0.63281249,-1.2304687 1.00781249,-1.2304687 0.09375,0 0.2578125,0.011719 0.2578125,0.328125 0,0.234375 -0.1171875,0.5273437 -0.1757812,0.6796875 -0.3632813,0.984375 -0.5742188,1.6054687 -0.5742188,2.0859375 0,0.94921872 0.6796875,1.19531247 1.21875,1.19531247 0.65625,0 1.0195313,-0.4453125 1.1953125,-0.66796875 z m 0,0"
       style="fill:#000000;fill-opacity:1;fill-rule:nonzero;stroke:none"
       aria-label="u"
       transform="matrix(1.3333333,0,0,1.3333333,21.714667,29.929333)" />
    <path
       id="path12"
       d="m 2.3332656,-4.4302813 c 0,-0.1875 -0.011719,-0.1992187 -0.2109375,-0.1992187 -0.4453125,0.4335937 -1.078125,0.4453125 -1.35937497,0.4453125 v 0.2460937 c 0.1640625,0 0.62109377,0 1.00781247,-0.1875 v 3.5507813 c 0,0.234375 0,0.328125 -0.6914062,0.328125 H 0.80982813 v 0.24609375 c 0.12890625,-0.01171875 0.98437497,-0.0234375 1.24218747,-0.0234375 0.2109375,0 1.0898438,0.01171875 1.2421875,0.0234375 V -0.2466875 H 3.0363906 c -0.703125,0 -0.703125,-0.09375 -0.703125,-0.328125 z m 0,0"
       style="fill:#000000;fill-opacity:1;fill-rule:nonzero;stroke:none"
       aria-label="1"
       transform="matrix(1.3333333,0,0,1.3333333,29.318667,31.922667)" />
    <path
       id="path13"
       d="m 6.8443125,-3.2575469 c 0.1523437,0 0.3398437,0 0.3398437,-0.1992187 0,-0.1992188 -0.1875,-0.1992188 -0.328125,-0.1992188 H 0.8911875 c -0.140625,0 -0.328125,0 -0.328125,0.1992188 0,0.1992187 0.1875,0.1992187 0.33984375,0.1992187 z m 0.011719,1.9335938 c 0.140625,0 0.328125,0 0.328125,-0.1992188 0,-0.1992187 -0.1875,-0.1992187 -0.3398437,-0.1992187 H 0.90290625 c -0.15234375,0 -0.33984375,0 -0.33984375,0.1992187 0,0.1992188 0.1875,0.1992188 0.328125,0.1992188 z m 0,0"
       style="fill:#000000;fill-opacity:1;fill-rule:nonzero;stroke:none"
       aria-label="="
       transform="matrix(1.3333333,0,0,1.3333333,38.968,29.929333)" />
    <path
       id="path14"
       d="m 6.5617109,-2.2966094 c 0.1757813,0 0.3515625,0 0.3515625,-0.1992187 0,-0.1992188 -0.1757812,-0.1992188 -0.3515625,-0.1992188 h -5.390625 c -0.1640625,0 -0.33984371,0 -0.33984371,0.1992188 0,0.1992187 0.17578121,0.1992187 0.33984371,0.1992187 z m 0,0"
       style="fill:#000000;fill-opacity:1;fill-rule:nonzero;stroke:none"
       aria-label="−"
       transform="matrix(1.3333333,0,0,1.3333333,52.989333,29.929333)" />
    <path
       id="path15"
       d="m 3.4914219,-0.56223438 c 0.1054687,0.41015625 0.4570312,0.66796875 0.8789062,0.66796875 0.3515625,0 0.5742188,-0.22265625 0.7382813,-0.5390625 0.1757812,-0.36328125 0.3046875,-0.97265627 0.3046875,-0.99609377 0,-0.09375 -0.09375,-0.09375 -0.1289063,-0.09375 -0.09375,0 -0.1054687,0.035156 -0.140625,0.1757813 -0.1289062,0.56249997 -0.328125,1.24218747 -0.7382812,1.24218747 -0.2109375,0 -0.3164063,-0.12890625 -0.3164063,-0.45703125 0,-0.22265625 0.1289063,-0.69140622 0.1992188,-1.04296872 l 0.28125,-1.078125 c 0.035156,-0.140625 0.1289062,-0.5273438 0.1757812,-0.6679688 0.046875,-0.234375 0.140625,-0.609375 0.140625,-0.6679687 0,-0.1875 -0.140625,-0.2695313 -0.28125,-0.2695313 -0.058594,0 -0.3164062,0 -0.3867187,0.3398438 -0.1992188,0.7265625 -0.6328125,2.4726562 -0.75,2.99999997 -0.011719,0.046875 -0.4101563,0.84375 -1.1367188,0.84375 -0.515625,0 -0.6210937,-0.45703125 -0.6210937,-0.8203125 0,-0.56249997 0.28125,-1.34765627 0.5390625,-2.02734377 0.1171875,-0.3046875 0.1757812,-0.4453125 0.1757812,-0.6328125 0,-0.4453125 -0.328125,-0.8203125 -0.8203125,-0.8203125 -0.94921872,0 -1.31249997,1.453125 -1.31249997,1.5351563 0,0.1054687 0.09375,0.1054687 0.1171875,0.1054687 0.09375,0 0.10546875,-0.023437 0.15234375,-0.1875 0.2578125,-0.8671875 0.63281252,-1.2304687 1.00781252,-1.2304687 0.09375,0 0.2578125,0.011719 0.2578125,0.328125 0,0.234375 -0.1171875,0.5273437 -0.1757813,0.6796875 -0.3632812,0.984375 -0.5742187,1.6054687 -0.5742187,2.0859375 0,0.94921872 0.6796875,1.19531247 1.21875,1.19531247 0.65625,0 1.0195312,-0.4453125 1.1953125,-0.66796875 z m 0,0"
       style="fill:#000000;fill-opacity:1;fill-rule:nonzero;stroke:none"
       aria-label="u"
       transform="matrix(1.3333333,0,0,1.3333333,63.321333,29.929333)" />
    <path
       id="path16"
       d="m 3.5979922,-2.2271563 c 0,-0.7617187 -0.09375,-1.3125 -0.4101563,-1.8046875 C 2.9651797,-4.34825 2.5433047,-4.6295 1.9808047,-4.6295 c -1.61718751,0 -1.61718751,1.8984375 -1.61718751,2.4023437 0,0.5039063 0,2.36718755 1.61718751,2.36718755 1.6171875,0 1.6171875,-1.86328125 1.6171875,-2.36718755 z m -1.6171875,2.1679688 c -0.3164063,0 -0.75,-0.1875 -0.890625,-0.76171875 -0.09375,-0.41015625 -0.09375,-0.98437505 -0.09375,-1.50000005 0,-0.5039062 0,-1.03125 0.1054687,-1.4179687 0.1523438,-0.5507813 0.5976563,-0.6914063 0.8789063,-0.6914063 0.375,0 0.7382812,0.2226563 0.8671875,0.6328125 0.1054687,0.375 0.1171875,0.8789063 0.1171875,1.4765625 0,0.515625 0,1.0429688 -0.09375,1.47656255 -0.140625,0.6328125 -0.609375,0.78515625 -0.890625,0.78515625 z m 0,0"
       style="fill:#000000;fill-opacity:1;fill-rule:nonzero;stroke:none"
       aria-label="0"
       transform="matrix(1.3333333,0,0,1.3333333,70.925333,31.922667)" />
    <path
       id="path17"
       d="m 23.11589,-0.59775 h -46.23178 c -4.6967,0 -8.50403,-3.80734 -8.50403,-8.50403 v 0 c 0,-4.6967 3.80733,-8.50404 8.50403,-8.50404 h 46.23178 c 4.6967,0 8.50403,3.80734 8.50403,8.50404 v 0 c 0,4.69669 -3.80733,8.50403 -8.50403,8.50403 z"
       style="fill:#ccffcc;fill-opacity:1;fill-rule:nonzero;stroke:#808080;stroke-width:1.19553;stroke-linecap:butt;stroke-linejoin:miter;stroke-miterlimit:10;stroke-dasharray:none;stroke-opacity:1"
       transform="matrix(1.3333333,0,0,-1.3333333,49.3,14.916)" />
    <path
       id="path18"
       d="m 3.4909922,-0.56317969 c 0.1054687,0.41015625 0.4570312,0.66796875 0.8789062,0.66796875 0.3515625,0 0.5742188,-0.22265625 0.7382813,-0.5390625 0.1757812,-0.36328125 0.3046875,-0.97265626 0.3046875,-0.99609376 0,-0.09375 -0.09375,-0.09375 -0.1289063,-0.09375 -0.09375,0 -0.1054687,0.035156 -0.140625,0.1757813 -0.1289062,0.56249996 -0.328125,1.24218746 -0.7382812,1.24218746 -0.2109375,0 -0.3164063,-0.12890625 -0.3164063,-0.45703125 0,-0.22265625 0.1289063,-0.69140621 0.1992188,-1.04296871 l 0.28125,-1.078125 c 0.035156,-0.140625 0.1289062,-0.5273438 0.1757812,-0.6679688 0.046875,-0.234375 0.140625,-0.609375 0.140625,-0.6679687 0,-0.1875 -0.140625,-0.2695313 -0.28125,-0.2695313 -0.058594,0 -0.3164062,0 -0.3867187,0.3398438 -0.1992188,0.7265625 -0.6328125,2.4726562 -0.75,2.99999996 -0.011719,0.046875 -0.4101563,0.84375 -1.1367188,0.84375 -0.515625,0 -0.6210937,-0.45703125 -0.6210937,-0.8203125 0,-0.56249996 0.28125,-1.34765626 0.5390625,-2.02734376 0.1171875,-0.3046875 0.1757812,-0.4453125 0.1757812,-0.6328125 0,-0.4453125 -0.328125,-0.8203125 -0.8203125,-0.8203125 -0.94921871,0 -1.31249996,1.453125 -1.31249996,1.5351563 0,0.1054687 0.09375,0.1054687 0.1171875,0.1054687 0.09375,0 0.10546875,-0.023437 0.15234375,-0.1875 0.2578125,-0.8671875 0.63281251,-1.2304687 1.00781251,-1.2304687 0.09375,0 0.2578125,0.011719 0.2578125,0.328125 0,0.234375 -0.1171875,0.5273437 -0.1757813,0.6796875 -0.3632812,0.984375 -0.5742187,1.6054687 -0.5742187,2.0859375 0,0.94921871 0.6796875,1.19531246 1.21875,1.19531246 0.65625,0 1.0195312,-0.4453125 1.1953125,-0.66796875 z m 0,0"
       style="fill:#000000;fill-opacity:1;fill-rule:nonzero;stroke:none"
       aria-label="u"
       transform="matrix(1.3333333,0,0,1.3333333,11.568,30.372)" />
    <path
       id="path19"
       d="m 3.5155313,-1.2642344 h -0.234375 c -0.023437,0.1523438 -0.082031,0.56250002 -0.1757813,0.63281252 -0.058594,0.0351563 -0.5976562,0.0351563 -0.6914062,0.0351563 H 1.1249063 c 0.7382812,-0.64453132 0.984375,-0.84374992 1.3945312,-1.17187492 0.515625,-0.4101564 0.9960938,-0.8437501 0.9960938,-1.5000001 0,-0.8437499 -0.7382813,-1.3593749 -1.6289063,-1.3593749 -0.8671875,0 -1.453125,0.609375 -1.453125,1.2421874 0,0.3632812 0.3046875,0.3984375 0.375,0.3984375 0.1640625,0 0.375,-0.1171875 0.375,-0.375 0,-0.1289063 -0.058594,-0.3632813 -0.421875,-0.3632813 0.22265625,-0.5039061 0.6914063,-0.65625 1.0195313,-0.65625 0.703125,0 1.0664062,0.5507813 1.0664062,1.1132813 0,0.609375 -0.4335937,1.0898437 -0.65625,1.3359375 l -1.6875,1.66406252 C 0.4335,-0.20954688 0.4335,-0.19782813 0.4335,0.00139062 h 2.8828125 z m 0,0"
       style="fill:#000000;fill-opacity:1;fill-rule:nonzero;stroke:none"
       aria-label="2"
       transform="matrix(1.3333333,0,0,1.3333333,19.172,32.365333)" />
    <path
       id="path20"
       d="m 6.8429844,-3.2584922 c 0.1523437,0 0.3398437,0 0.3398437,-0.1992187 0,-0.1992188 -0.1875,-0.1992188 -0.328125,-0.1992188 H 0.88985938 c -0.140625,0 -0.328125,0 -0.328125,0.1992188 0,0.1992187 0.1875,0.1992187 0.33984375,0.1992187 z m 0.011719,1.9335938 c 0.140625,0 0.328125,0 0.328125,-0.1992188 0,-0.1992187 -0.1875,-0.1992187 -0.3398437,-0.1992187 H 0.90157813 c -0.15234375,0 -0.33984375,0 -0.33984375,0.1992187 0,0.1992188 0.1875,0.1992188 0.328125,0.1992188 z m 4.7666016,-1.1835938 c 0.05859,-1.4882812 0.902343,-1.734375 1.242187,-1.734375 1.019531,0 1.125,1.3476563 1.125,1.734375 z m -0.01172,0.2109375 h 2.789062 c 0.210938,0 0.246094,0 0.246094,-0.2109375 0,-0.984375 -0.539062,-1.9570312 -1.78125,-1.9570312 -1.160156,0 -2.074219,1.03125 -2.074219,2.2734375 0,1.33593746 1.042969,2.29687496 2.191407,2.29687496 1.21875,0 1.664062,-1.1015625 1.664062,-1.28906246 0,-0.1054688 -0.08203,-0.1171875 -0.128906,-0.1171875 -0.09375,0 -0.117188,0.058594 -0.128906,0.140625 -0.351563,1.01953121 -1.253907,1.01953121 -1.347657,1.01953121 -0.503906,0 -0.902343,-0.29296875 -1.125,-0.66796875 C 11.609586,-1.2897422 11.609586,-1.9459922 11.609585,-2.2975547 Z m 6.18457,-0.046875 c 0.292969,-0.375 0.679688,-0.8671875 0.914063,-1.125 0.316406,-0.3515625 0.714843,-0.5039062 1.183593,-0.515625 v -0.3046875 c -0.257812,0.011719 -0.550781,0.023437 -0.808593,0.023437 -0.304688,0 -0.832032,-0.023437 -0.960938,-0.023437 v 0.3046875 c 0.210938,0.023437 0.292969,0.1523438 0.292969,0.3046875 0,0.1640625 -0.105469,0.2929688 -0.152344,0.3515625 l -0.621094,0.7734375 -0.773437,-0.9960937 c -0.09375,-0.1054688 -0.09375,-0.1289063 -0.09375,-0.1875 0,-0.1523438 0.152344,-0.234375 0.351562,-0.2460938 v -0.3046875 c -0.257812,0 -0.914062,0.023437 -1.078125,0.023437 -0.210937,0 -0.679687,-0.011719 -0.949218,-0.023437 v 0.3046875 c 0.703125,0 0.714844,0.011719 1.183593,0.609375 l 0.984375,1.2773438 -0.9375,1.19531246 c -0.480468,0.57421875 -1.066406,0.59765625 -1.277343,0.59765625 V -6.796875e-4 C 15.309781,-0.02411719 15.626188,-0.03583594 15.884,-0.03583594 c 0.28125,0 0.703125,0.0234375 0.949219,0.0351562525 V -0.30536719 c -0.222657,-0.0351563 -0.292969,-0.1640625 -0.292969,-0.31640625 0,-0.2109375 0.292969,-0.53906246 0.890625,-1.26562496 l 0.761719,0.99609371 c 0.08203,0.1171875 0.210937,0.26953125 0.210937,0.328125 0,0.09375 -0.09375,0.24609375 -0.363281,0.2578125 V -6.796875e-4 C 18.344937,-0.01239844 18.895719,-0.03583594 19.118375,-0.03583594 c 0.269531,0 0.65625,0.01171875 0.960937,0.0351562525 V -0.30536719 c -0.539062,0 -0.726562,-0.0234375 -0.949218,-0.31640625 z m 4.110352,-1.40625 v -0.65625 l -1.429688,0.1171875 v 0.3046875 c 0.703125,0 0.773438,0.058594 0.773438,0.4921875 v 4.6640625 c 0,0.4570313 -0.105469,0.4570313 -0.773438,0.4570313 v 0.3046875 c 0.339844,-0.011719 0.855469,-0.035156 1.113282,-0.035156 0.269531,0 0.773437,0.023437 1.125,0.035156 V 1.6282266 c -0.667969,0 -0.773438,0 -0.773438,-0.4570313 v -1.75781249 c 0.04687,0.15234375 0.46875,0.69140625 1.21875,0.69140625 1.183594,0 2.226563,-0.97265625 2.226563,-2.26171876 0,-1.265625 -0.972657,-2.25 -2.085938,-2.25 -0.773437,0 -1.195312,0.4453125 -1.394531,0.65625 z m 0.03516,2.6132813 v -2.2148438 c 0.28125,-0.515625 0.773438,-0.796875 1.277344,-0.796875 0.726562,0 1.335937,0.8671875 1.335937,1.9921875 0,1.20703126 -0.691406,2.05078126 -1.429687,2.05078126 -0.398438,0 -0.773438,-0.19921875 -1.042969,-0.609375 -0.140625,-0.2109375 -0.140625,-0.22265625 -0.140625,-0.42187496 z m 7.083984,3.5273437 c 0,-0.035156 0,-0.046875 -0.164062,-0.2226562 -1.242188,-1.25390629 -1.570313,-3.12890629 -1.570313,-4.6640625 0,-1.7226563 0.386719,-3.4570313 1.605469,-4.7109375 0.128906,-0.1171875 0.128906,-0.1289063 0.128906,-0.1640625 0,-0.070312 -0.03516,-0.1054688 -0.09375,-0.1054688 -0.105468,0 -0.996093,0.6796875 -1.582031,1.9453125 -0.515625,1.1015625 -0.632812,2.203125 -0.632812,3.0351563 0,0.7851562 0.117187,1.99218746 0.65625,3.11718746 0.597656,1.21875004 1.453125,1.87500004 1.558593,1.87500004 0.05859,0 0.09375,-0.035156 0.09375,-0.1054688 z m 0,0"
       style="fill:#000000;fill-opacity:1;fill-rule:nonzero;stroke:none"
       aria-label="=exp("
       transform="matrix(1.3333333,0,0,1.3333333,28.821333,30.372)" />
    <path
       id="path21"
       d="m 3.4907734,-0.56317969 c 0.1054688,0.41015625 0.4570313,0.66796875 0.8789063,0.66796875 0.3515625,0 0.5742187,-0.22265625 0.7382812,-0.5390625 0.1757813,-0.36328125 0.3046875,-0.97265626 0.3046875,-0.99609376 0,-0.09375 -0.09375,-0.09375 -0.1289062,-0.09375 -0.09375,0 -0.1054688,0.035156 -0.140625,0.1757813 -0.1289063,0.56249996 -0.328125,1.24218746 -0.7382813,1.24218746 -0.2109375,0 -0.3164062,-0.12890625 -0.3164062,-0.45703125 0,-0.22265625 0.1289062,-0.69140621 0.1992187,-1.04296871 l 0.28125,-1.078125 c 0.035156,-0.140625 0.1289063,-0.5273438 0.1757813,-0.6679688 0.046875,-0.234375 0.140625,-0.609375 0.140625,-0.6679687 0,-0.1875 -0.140625,-0.2695313 -0.28125,-0.2695313 -0.058594,0 -0.3164063,0 -0.3867188,0.3398438 -0.1992187,0.7265625 -0.6328125,2.4726562 -0.75,2.99999996 -0.011719,0.046875 -0.4101562,0.84375 -1.1367187,0.84375 -0.515625,0 -0.6210938,-0.45703125 -0.6210938,-0.8203125 0,-0.56249996 0.28125,-1.34765626 0.5390625,-2.02734376 0.1171875,-0.3046875 0.1757813,-0.4453125 0.1757813,-0.6328125 0,-0.4453125 -0.328125,-0.8203125 -0.8203125,-0.8203125 -0.94921876,0 -1.31250001,1.453125 -1.31250001,1.5351563 0,0.1054687 0.09375,0.1054687 0.1171875,0.1054687 0.09375,0 0.10546875,-0.023437 0.15234375,-0.1875 0.2578125,-0.8671875 0.63281246,-1.2304687 1.00781246,-1.2304687 0.09375,0 0.2578125,0.011719 0.2578125,0.328125 0,0.234375 -0.1171875,0.5273437 -0.1757812,0.6796875 -0.3632813,0.984375 -0.5742188,1.6054687 -0.5742188,2.0859375 0,0.94921871 0.6796875,1.19531246 1.21875,1.19531246 0.65625,0 1.0195313,-0.4453125 1.1953125,-0.66796875 z m 0,0"
       style="fill:#000000;fill-opacity:1;fill-rule:nonzero;stroke:none"
       aria-label="u"
       transform="matrix(1.3333333,0,0,1.3333333,68.302667,30.372)" />
    <path
       id="path22"
       d="m 2.3317188,-4.4282969 c 0,-0.1875 -0.011719,-0.1992187 -0.2109375,-0.1992187 -0.4453125,0.4335937 -1.078125,0.4453125 -1.35937505,0.4453125 v 0.2460937 c 0.1640625,0 0.62109375,0 1.00781255,-0.1875 v 3.55078127 c 0,0.234375 0,0.328125 -0.6914063,0.328125 H 0.80828125 v 0.24609375 c 0.12890625,-0.01171875 0.98437505,-0.0234375 1.24218755,-0.0234375 0.2109375,0 1.0898437,0.01171875 1.2421875,0.0234375 V -0.24470313 H 3.0348438 c -0.703125,0 -0.703125,-0.09375 -0.703125,-0.328125 z m 0,0"
       style="fill:#000000;fill-opacity:1;fill-rule:nonzero;stroke:none"
       aria-label="1"
       transform="matrix(1.3333333,0,0,1.3333333,75.906667,32.365333)" />
    <path
       id="path23"
       d="m 2.8842031,-2.4967734 c 0,-0.7734375 -0.1171875,-1.9804688 -0.65625,-3.1054688 -0.5976562,-1.21875 -1.46484372,-1.875 -1.55859372,-1.875 -0.0585938,0 -0.10546875,0.046875 -0.10546875,0.1054688 0,0.035156 0,0.046875 0.19921875,0.234375 0.97265622,0.984375 1.53515622,2.5664062 1.53515622,4.640625 0,1.71093746 -0.3632812,3.45703121 -1.59374997,4.7226562 -0.140625,0.1171875 -0.140625,0.1289063 -0.140625,0.1640625 0,0.058594 0.046875,0.1054688 0.10546875,0.1054688 0.09375,0 0.99609372,-0.6796875 1.58203122,-1.94531254 0.5039063,-1.1015625 0.6328125,-2.20312496 0.6328125,-3.04687496 z m 0,0"
       style="fill:#000000;fill-opacity:1;fill-rule:nonzero;stroke:none"
       aria-label=")"
       transform="matrix(1.3333333,0,0,1.3333333,81.865333,30.372)" />
    <path
       id="path24"
       d="m 20.21002,-0.59775 h -40.42004 c -4.6967,0 -8.50403,-3.80734 -8.50403,-8.50403 v 0 c 0,-4.6967 3.80733,-8.50404 8.50403,-8.50404 h 40.42004 c 4.6967,0 8.50403,3.80734 8.50403,8.50404 v 0 c 0,4.69669 -3.80733,8.50403 -8.50403,8.50403 z"
       style="fill:#ccffcc;fill-opacity:1;fill-rule:nonzero;stroke:#808080;stroke-width:1.19553;stroke-linecap:butt;stroke-linejoin:miter;stroke-miterlimit:10;stroke-dasharray:none;stroke-opacity:1"
       transform="matrix(1.3333333,0,0,-1.3333333,49.3,14.916)" />
    <path
       id="path25"
       d="m 3.4912422,-0.56254688 c 0.1054687,0.41015625 0.4570312,0.66796875 0.8789062,0.66796875 0.3515625,0 0.5742188,-0.22265625 0.7382813,-0.5390625 0.1757812,-0.36328125 0.3046875,-0.97265627 0.3046875,-0.99609377 0,-0.09375 -0.09375,-0.09375 -0.1289063,-0.09375 -0.09375,0 -0.1054687,0.035156 -0.140625,0.1757813 -0.1289062,0.56249997 -0.328125,1.24218747 -0.7382812,1.24218747 -0.2109375,0 -0.3164063,-0.12890625 -0.3164063,-0.45703125 0,-0.22265625 0.1289063,-0.69140622 0.1992188,-1.04296872 l 0.28125,-1.078125 c 0.035156,-0.140625 0.1289062,-0.5273438 0.1757812,-0.6679688 0.046875,-0.234375 0.140625,-0.609375 0.140625,-0.6679687 0,-0.1875 -0.140625,-0.2695313 -0.28125,-0.2695313 -0.058594,0 -0.3164062,0 -0.3867187,0.3398438 -0.1992188,0.7265625 -0.6328125,2.4726562 -0.75,2.99999997 -0.011719,0.046875 -0.4101563,0.84375 -1.1367188,0.84375 -0.515625,0 -0.6210937,-0.45703125 -0.6210937,-0.8203125 0,-0.56249997 0.28125,-1.34765627 0.5390625,-2.02734377 0.1171875,-0.3046875 0.1757812,-0.4453125 0.1757812,-0.6328125 0,-0.4453125 -0.328125,-0.8203125 -0.8203125,-0.8203125 -0.94921871,0 -1.31249996,1.453125 -1.31249996,1.5351563 0,0.1054687 0.09375,0.1054687 0.1171875,0.1054687 0.09375,0 0.10546875,-0.023437 0.15234375,-0.1875 0.2578125,-0.8671875 0.63281251,-1.2304687 1.00781251,-1.2304687 0.09375,0 0.2578125,0.011719 0.2578125,0.328125 0,0.234375 -0.1171875,0.5273437 -0.1757813,0.6796875 -0.3632812,0.984375 -0.5742187,1.6054687 -0.5742187,2.0859375 0,0.94921872 0.6796875,1.19531247 1.21875,1.19531247 0.65625,0 1.0195312,-0.4453125 1.1953125,-0.66796875 z m 0,0"
       style="fill:#000000;fill-opacity:1;fill-rule:nonzero;stroke:none"
       aria-label="u"
       transform="matrix(1.3333333,0,0,1.3333333,15.442667,30.336)" />
    <path
       id="path26"
       d="m 1.8985938,-2.3319375 c 0.5507812,0 0.9375,0.375 0.9375,1.125 0,0.8671875 -0.5039063,1.125 -0.9023438,1.125 -0.28125,0 -0.890625,-0.08203125 -1.18359375,-0.4921875 0.32812505,-0.0117188 0.39843755,-0.24609375 0.39843755,-0.38671875 0,-0.22265625 -0.16406255,-0.38671875 -0.3867188,-0.38671875 -0.1875,0 -0.38671875,0.1171875 -0.38671875,0.41015625 0,0.65625 0.72656255,1.078125 1.57031255,1.078125 0.9726562,0 1.640625,-0.64453125 1.640625,-1.34765625 0,-0.5390625 -0.4453125,-1.0898438 -1.21875,-1.2421875 0.7382812,-0.2695313 0.9960937,-0.796875 0.9960937,-1.21875 0,-0.5507813 -0.6328125,-0.9609375 -1.40625,-0.9609375 -0.7734375,0 -1.359375,0.375 -1.359375,0.9375 0,0.234375 0.15234375,0.3632812 0.36328125,0.3632812 0.21093755,0 0.35156255,-0.1640625 0.35156255,-0.3515625 0,-0.1992187 -0.140625,-0.3515625 -0.35156255,-0.3632812 C 1.1954688,-4.3475625 1.6759375,-4.4295938 1.93375,-4.4295938 c 0.3164063,0 0.7617188,0.1523438 0.7617188,0.7617188 0,0.2929687 -0.1054688,0.609375 -0.28125,0.8320312 -0.234375,0.2578125 -0.421875,0.28125 -0.7734375,0.2929688 -0.1757813,0.023437 -0.1875,0.023437 -0.2226563,0.023437 -0.011719,0 -0.070312,0.011719 -0.070312,0.09375 0,0.09375 0.058594,0.09375 0.1757813,0.09375 z m 0,0"
       style="fill:#000000;fill-opacity:1;fill-rule:nonzero;stroke:none"
       aria-label="3"
       transform="matrix(1.3333333,0,0,1.3333333,23.046667,32.328)" />
    <path
       id="path27"
       d="m 6.8432344,-3.2578594 c 0.1523437,0 0.3398437,0 0.3398437,-0.1992187 0,-0.1992188 -0.1875,-0.1992188 -0.328125,-0.1992188 H 0.89010938 c -0.140625,0 -0.328125,0 -0.328125,0.1992188 0,0.1992187 0.1875,0.1992187 0.33984375,0.1992187 z m 0.011719,1.9335938 c 0.140625,0 0.328125,0 0.328125,-0.1992188 0,-0.1992187 -0.1875,-0.1992187 -0.3398437,-0.1992187 H 0.90182813 c -0.15234375,0 -0.33984375,0 -0.33984375,0.1992187 0,0.1992188 0.1875,0.1992188 0.328125,0.1992188 z m 6.5830076,-5.0507813 c 0,-0.234375 0,-0.2578125 -0.234375,-0.2578125 -0.609375,0.6328125 -1.488281,0.6328125 -1.804688,0.6328125 v 0.3164063 c 0.199219,0 0.785157,0 1.300782,-0.2578125 v 5.15624997 c 0,0.3515625 -0.03516,0.48046875 -0.925782,0.48046875 H 11.457492 V -4.6875e-5 c 0.351563,-0.035156255 1.207031,-0.035156255 1.605469,-0.035156255 0.398437,0 1.265625,0 1.617187,0.035156255 V -0.30473438 h -0.316406 c -0.902344,0 -0.925781,-0.1171875 -0.925781,-0.48046875 z m 8.34082,4.078125 h 2.777344 c 0.140625,0 0.328125,0 0.328125,-0.1992187 0,-0.1992188 -0.1875,-0.1992188 -0.328125,-0.1992188 h -2.777344 v -2.7890625 c 0,-0.1289062 0,-0.328125 -0.199218,-0.328125 -0.199219,0 -0.199219,0.1992188 -0.199219,0.328125 v 2.7890625 h -2.789063 c -0.140625,0 -0.328125,0 -0.328125,0.1992188 0,0.1992187 0.1875,0.1992187 0.328125,0.1992187 h 2.789063 v 2.80078127 c 0,0.12890625 0,0.328125 0.199219,0.328125 0.199218,0 0.199218,-0.19921875 0.199218,-0.328125 z m 0,0"
       style="fill:#000000;fill-opacity:1;fill-rule:nonzero;stroke:none"
       aria-label="=1+"
       transform="matrix(1.3333333,0,0,1.3333333,32.696,30.336)" />
    <path
       id="path28"
       d="m 3.4925,-0.56254688 c 0.1054687,0.41015625 0.4570312,0.66796875 0.8789062,0.66796875 0.3515625,0 0.5742188,-0.22265625 0.7382813,-0.5390625 0.1757812,-0.36328125 0.3046875,-0.97265627 0.3046875,-0.99609377 0,-0.09375 -0.09375,-0.09375 -0.1289063,-0.09375 -0.09375,0 -0.1054687,0.035156 -0.140625,0.1757813 -0.1289062,0.56249997 -0.328125,1.24218747 -0.7382812,1.24218747 -0.2109375,0 -0.3164063,-0.12890625 -0.3164063,-0.45703125 0,-0.22265625 0.1289063,-0.69140622 0.1992188,-1.04296872 l 0.28125,-1.078125 c 0.035156,-0.140625 0.1289062,-0.5273438 0.1757812,-0.6679688 0.046875,-0.234375 0.140625,-0.609375 0.140625,-0.6679687 0,-0.1875 -0.140625,-0.2695313 -0.28125,-0.2695313 -0.058594,0 -0.3164062,0 -0.3867187,0.3398438 -0.1992188,0.7265625 -0.6328125,2.4726562 -0.75,2.99999997 -0.011719,0.046875 -0.4101563,0.84375 -1.1367188,0.84375 -0.515625,0 -0.6210937,-0.45703125 -0.6210937,-0.8203125 0,-0.56249997 0.28125,-1.34765627 0.5390625,-2.02734377 0.1171875,-0.3046875 0.1757812,-0.4453125 0.1757812,-0.6328125 0,-0.4453125 -0.328125,-0.8203125 -0.8203125,-0.8203125 -0.9492187,0 -1.31249995,1.453125 -1.31249995,1.5351563 0,0.1054687 0.09375,0.1054687 0.1171875,0.1054687 0.09375,0 0.10546875,-0.023437 0.15234375,-0.1875 0.2578125,-0.8671875 0.6328125,-1.2304687 1.0078125,-1.2304687 0.09375,0 0.2578125,0.011719 0.2578125,0.328125 0,0.234375 -0.1171875,0.5273437 -0.1757813,0.6796875 -0.3632812,0.984375 -0.5742187,1.6054687 -0.5742187,2.0859375 0,0.94921872 0.6796875,1.19531247 1.21875,1.19531247 0.65625,0 1.0195312,-0.4453125 1.1953125,-0.66796875 z m 0,0"
       style="fill:#000000;fill-opacity:1;fill-rule:nonzero;stroke:none"
       aria-label="u"
       transform="matrix(1.3333333,0,0,1.3333333,69.593333,30.336)" />
    <path
       id="path29"
       d="m 3.5160391,-1.2655313 h -0.234375 c -0.023437,0.1523438 -0.082031,0.56250005 -0.1757813,0.63281255 -0.058594,0.0351563 -0.5976562,0.0351563 -0.6914062,0.0351563 H 1.1254141 c 0.7382812,-0.64453125 0.984375,-0.84374995 1.3945312,-1.17187495 0.515625,-0.4101564 0.9960938,-0.84375 0.9960938,-1.5 0,-0.84375 -0.7382813,-1.359375 -1.6289063,-1.359375 -0.8671875,0 -1.45312499,0.609375 -1.45312499,1.2421875 0,0.3632811 0.3046875,0.3984374 0.375,0.3984374 0.1640625,0 0.37499999,-0.1171874 0.37499999,-0.3749999 0,-0.1289064 -0.058594,-0.3632814 -0.42187499,-0.3632814 0.22265625,-0.5039061 0.69140629,-0.65625 1.01953129,-0.65625 0.703125,0 1.0664062,0.5507813 1.0664062,1.1132813 0,0.609375 -0.4335937,1.0898437 -0.65625,1.3359375 L 0.50432031,-0.2694375 C 0.43400781,-0.21084375 0.43400781,-0.199125 0.43400781,9.375e-5 H 3.3168203 Z m 0,0"
       style="fill:#000000;fill-opacity:1;fill-rule:nonzero;stroke:none"
       aria-label="2"
       transform="matrix(1.3333333,0,0,1.3333333,77.198667,32.328)" />
    <path
       id="path30"
       d="m 27.87352,-0.59775 h -55.74704 c -4.6967,0 -8.50403,-3.80734 -8.50403,-8.50403 v -4.17167 c 0,-4.69669 3.80733,-8.50403 8.50403,-8.50403 h 55.74704 c 4.6967,0 8.50403,3.80734 8.50403,8.50403 v 4.17167 c 0,4.69669 -3.80733,8.50403 -8.50403,8.50403 z"
       style="fill:#ccffcc;fill-opacity:1;fill-rule:nonzero;stroke:#808080;stroke-width:1.19553;stroke-linecap:butt;stroke-linejoin:miter;stroke-miterlimit:10;stroke-dasharray:none;stroke-opacity:1"
       transform="matrix(1.3333333,0,0,-1.3333333,49.3,14.916)" />
    <path
       id="path31"
       d="M 3.4911797,-0.56178125 C 3.5966484,-0.151625 3.9482109,0.1061875 4.3700859,0.1061875 c 0.3515625,0 0.5742188,-0.22265625 0.7382813,-0.5390625 0.1757812,-0.36328125 0.3046875,-0.9726563 0.3046875,-0.9960938 0,-0.09375 -0.09375,-0.09375 -0.1289063,-0.09375 -0.09375,0 -0.1054687,0.035156 -0.140625,0.1757813 -0.1289062,0.5625 -0.328125,1.2421875 -0.7382812,1.2421875 -0.2109375,0 -0.3164063,-0.12890625 -0.3164063,-0.45703125 0,-0.22265625 0.1289063,-0.69140625 0.1992188,-1.04296875 l 0.28125,-1.078125 c 0.035156,-0.140625 0.1289062,-0.5273438 0.1757812,-0.6679688 0.046875,-0.234375 0.140625,-0.609375 0.140625,-0.6679687 0,-0.1875 -0.140625,-0.2695313 -0.28125,-0.2695313 -0.058594,0 -0.3164062,0 -0.3867187,0.3398438 -0.1992188,0.7265625 -0.6328125,2.4726562 -0.75,3 -0.011719,0.046875 -0.4101563,0.84375 -1.1367188,0.84375 -0.515625,0 -0.6210937,-0.45703125 -0.6210937,-0.8203125 0,-0.5625 0.28125,-1.3476563 0.5390625,-2.0273438 0.1171875,-0.3046875 0.1757812,-0.4453125 0.1757812,-0.6328125 0,-0.4453125 -0.328125,-0.8203125 -0.8203125,-0.8203125 -0.94921871,0 -1.31249996,1.453125 -1.31249996,1.5351563 0,0.1054687 0.09375,0.1054687 0.1171875,0.1054687 0.09375,0 0.10546875,-0.023437 0.15234375,-0.1875 0.2578125,-0.8671875 0.63281251,-1.2304687 1.00781251,-1.2304687 0.09375,0 0.2578125,0.011719 0.2578125,0.328125 0,0.234375 -0.1171875,0.5273437 -0.1757813,0.6796875 -0.3632812,0.984375 -0.5742187,1.6054687 -0.5742187,2.0859375 0,0.94921875 0.6796875,1.1953125 1.21875,1.1953125 0.65625,0 1.0195312,-0.4453125 1.1953125,-0.66796875 z m 0,0"
       style="fill:#000000;fill-opacity:1;fill-rule:nonzero;stroke:none"
       aria-label="u"
       transform="matrix(1.3333333,0,0,1.3333333,5.224,34.014667)" />
    <path
       id="path32"
       d="M 3.6915,-1.1475781 V -1.3936719 H 2.9180625 v -3.1054687 c 0,-0.1523438 0,-0.1992188 -0.1523438,-0.1992188 -0.09375,0 -0.1171875,0 -0.1875,0.09375 L 0.269625,-1.3936719 v 0.2460938 h 2.0507812 v 0.57421872 c 0,0.234375 0,0.328125 -0.5625,0.328125 h -0.1875 V 8.59375e-4 C 1.9219687,-0.01085938 2.3672812,-0.02257813 2.613375,-0.02257813 c 0.2578125,0 0.703125,0.01171875 1.0546875,0.023437505 V -0.24523438 h -0.1875 c -0.5625,0 -0.5625,-0.09375 -0.5625,-0.328125 V -1.1475781 Z M 2.3672812,-3.9483594 v 2.5546875 H 0.5274375 Z m 0,0"
       style="fill:#000000;fill-opacity:1;fill-rule:nonzero;stroke:none"
       aria-label="4"
       transform="matrix(1.3333333,0,0,1.3333333,12.828,36.006667)" />
    <path
       id="path33"
       d="m 6.8431719,-3.2570938 c 0.1523437,0 0.3398437,0 0.3398437,-0.1992187 0,-0.1992188 -0.1875,-0.1992188 -0.328125,-0.1992188 H 0.89004687 c -0.140625,0 -0.328125,0 -0.328125,0.1992188 0,0.1992187 0.1875,0.1992187 0.33984375,0.1992187 z M 6.8548906,-1.3235 c 0.140625,0 0.328125,0 0.328125,-0.1992188 0,-0.1992187 -0.1875,-0.1992187 -0.3398437,-0.1992187 H 0.90176562 c -0.15234375,0 -0.33984375,0 -0.33984375,0.1992187 0,0.1992188 0.1875,0.1992188 0.328125,0.1992188 z m 6.5830074,-5.0507813 c 0,-0.234375 0,-0.2578125 -0.234375,-0.2578125 -0.609375,0.6328125 -1.488281,0.6328125 -1.804687,0.6328125 v 0.3164063 c 0.199219,0 0.785156,0 1.300781,-0.2578125 v 5.15625 c 0,0.3515625 -0.03516,0.48046875 -0.925781,0.48046875 H 11.45743 v 0.3046875 c 0.351562,-0.03515625 1.207031,-0.03515625 1.605468,-0.03515625 0.398438,0 1.265625,0 1.617188,0.03515625 v -0.3046875 H 14.36368 c -0.902344,0 -0.925782,-0.1171875 -0.925782,-0.48046875 z m 0,0"
       style="fill:#000000;fill-opacity:1;fill-rule:nonzero;stroke:none"
       aria-label="=1"
       transform="matrix(1.3333333,0,0,1.3333333,22.477333,34.014667)" />
    <path
       id="path34"
       d="M 3.4916563,-0.56178125 C 3.597125,-0.151625 3.9486875,0.1061875 4.3705625,0.1061875 c 0.3515625,0 0.5742188,-0.22265625 0.7382813,-0.5390625 0.1757812,-0.36328125 0.3046875,-0.9726563 0.3046875,-0.9960938 0,-0.09375 -0.09375,-0.09375 -0.1289063,-0.09375 -0.09375,0 -0.1054687,0.035156 -0.140625,0.1757813 -0.1289062,0.5625 -0.328125,1.2421875 -0.7382812,1.2421875 -0.2109375,0 -0.3164063,-0.12890625 -0.3164063,-0.45703125 0,-0.22265625 0.1289063,-0.69140625 0.1992188,-1.04296875 l 0.28125,-1.078125 c 0.035156,-0.140625 0.1289062,-0.5273438 0.1757812,-0.6679688 0.046875,-0.234375 0.140625,-0.609375 0.140625,-0.6679687 0,-0.1875 -0.140625,-0.2695313 -0.28125,-0.2695313 -0.058594,0 -0.3164062,0 -0.3867187,0.3398438 -0.1992188,0.7265625 -0.6328125,2.4726562 -0.75,3 C 3.4565,-0.901625 3.0580625,-0.10475 2.3315,-0.10475 c -0.515625,0 -0.6210937,-0.45703125 -0.6210937,-0.8203125 0,-0.5625 0.28125,-1.3476563 0.5390625,-2.0273438 0.1171875,-0.3046875 0.1757812,-0.4453125 0.1757812,-0.6328125 0,-0.4453125 -0.328125,-0.8203125 -0.8203125,-0.8203125 -0.94921875,0 -1.3125,1.453125 -1.3125,1.5351563 0,0.1054687 0.09375,0.1054687 0.1171875,0.1054687 0.09375,0 0.10546875,-0.023437 0.15234375,-0.1875 0.2578125,-0.8671875 0.63281255,-1.2304687 1.00781255,-1.2304687 0.09375,0 0.2578125,0.011719 0.2578125,0.328125 0,0.234375 -0.1171875,0.5273437 -0.1757813,0.6796875 -0.3632812,0.984375 -0.5742187,1.6054687 -0.5742187,2.0859375 0,0.94921875 0.6796875,1.1953125 1.21875,1.1953125 0.65625,0 1.0195312,-0.4453125 1.1953125,-0.66796875 z m 0,0"
       style="fill:#000000;fill-opacity:1;fill-rule:nonzero;stroke:none"
       aria-label="u"
       transform="matrix(1.3333333,0,0,1.3333333,43.141333,34.014667)" />
    <path
       id="path35"
       d="m 1.8990078,-2.3311719 c 0.5507813,0 0.9375,0.375 0.9375,1.125 0,0.86718752 -0.5039062,1.12500002 -0.9023437,1.12500002 -0.28125,0 -0.890625,-0.08203125 -1.18359379,-0.4921875 0.32812499,-0.0117188 0.39843749,-0.24609375 0.39843749,-0.38671875 0,-0.22265627 -0.16406249,-0.38671877 -0.38671874,-0.38671877 -0.1875,0 -0.38671875,0.1171875 -0.38671875,0.41015627 0,0.65625 0.72656249,1.078125 1.57031249,1.078125 0.9726563,0 1.640625,-0.64453125 1.640625,-1.34765627 0,-0.5390625 -0.4453125,-1.0898437 -1.21875,-1.2421875 0.7382813,-0.2695312 0.9960938,-0.796875 0.9960938,-1.21875 0,-0.5507812 -0.6328125,-0.9609375 -1.40625,-0.9609375 -0.7734375,0 -1.35937504,0.375 -1.35937504,0.9375 0,0.234375 0.15234375,0.3632813 0.36328125,0.3632813 0.21093749,0 0.35156249,-0.1640625 0.35156249,-0.3515625 0,-0.1992188 -0.140625,-0.3515625 -0.35156249,-0.3632813 0.23437499,-0.3046875 0.71484379,-0.3867187 0.97265629,-0.3867187 0.3164062,0 0.7617187,0.1523437 0.7617187,0.7617187 0,0.2929688 -0.1054687,0.609375 -0.28125,0.8320313 -0.234375,0.2578125 -0.421875,0.28125 -0.7734375,0.2929687 -0.1757812,0.023437 -0.1875,0.023437 -0.2226562,0.023437 -0.011719,0 -0.070312,0.011719 -0.070312,0.09375 0,0.09375 0.058594,0.09375 0.1757812,0.09375 z m 0,0"
       style="fill:#000000;fill-opacity:1;fill-rule:nonzero;stroke:none"
       aria-label="3"
       transform="matrix(1.3333333,0,0,1.3333333,50.745333,36.006667)" />
    <path
       id="path36"
       d="m 6.8446484,-3.2570938 c 0.1523438,0 0.3398438,0 0.3398438,-0.1992187 0,-0.1992188 -0.1875,-0.1992188 -0.328125,-0.1992188 H 0.89152344 c -0.140625,0 -0.328125,0 -0.328125,0.1992188 0,0.1992187 0.1875,0.1992187 0.33984375,0.1992187 z M 6.8563672,-1.3235 c 0.140625,0 0.328125,0 0.328125,-0.1992188 0,-0.1992187 -0.1875,-0.1992187 -0.3398438,-0.1992187 H 0.90324219 c -0.15234375,0 -0.33984375,0 -0.33984375,0.1992187 0,0.1992188 0.1875,0.1992188 0.328125,0.1992188 z m 0,0"
       style="fill:#000000;fill-opacity:1;fill-rule:nonzero;stroke:none"
       aria-label="="
       transform="matrix(1.3333333,0,0,1.3333333,60.393333,34.014667)" />
    <path
       id="path37"
       d="m 3.7133906,-3.761 c -0.1757812,-0.375 -0.46875,-0.6445313 -0.9140625,-0.6445313 -1.171875,0 -2.40234372,1.4648438 -2.40234372,2.9179688 0,0.9375 0.55078125,1.59375 1.32421872,1.59375 0.1992188,0 0.703125,-0.03515625 1.3007813,-0.73828125 0.070312,0.41015625 0.421875,0.73828125 0.9023437,0.73828125 0.3515625,0 0.5742188,-0.22265625 0.7382813,-0.5390625 0.1640625,-0.36328125 0.2929687,-0.9726563 0.2929687,-0.9960938 0,-0.09375 -0.082031,-0.09375 -0.1171875,-0.09375 -0.09375,0 -0.1054687,0.035156 -0.140625,0.1757813 -0.1640625,0.64453125 -0.3515625,1.2421875 -0.75,1.2421875 -0.2695312,0 -0.3046875,-0.2578125 -0.3046875,-0.45703125 0,-0.22265625 0.023437,-0.3046875 0.1289063,-0.73828125 0.1171875,-0.421875 0.1289062,-0.5273438 0.2226562,-0.9023438 l 0.3515625,-1.3945312 c 0.070312,-0.28125 0.070312,-0.2929688 0.070312,-0.3398438 0,-0.1640625 -0.1171875,-0.2695312 -0.28125,-0.2695312 -0.2460937,0 -0.3867187,0.2226562 -0.4218745,0.4453125 z m -0.6445312,2.578125 c -0.046875,0.1757812 -0.046875,0.19921875 -0.1992188,0.36328125 -0.4453125,0.55078125 -0.84375,0.71484375 -1.125,0.71484375 -0.5039062,0 -0.6445312,-0.55078125 -0.6445312,-0.9375 0,-0.5039063 0.328125,-1.7226563 0.5507812,-2.1796875 0.3046875,-0.5976563 0.7617188,-0.9609375 1.1601563,-0.9609375 0.6445312,0 0.7851562,0.8203125 0.7851562,0.8789062 0,0.058594 -0.023437,0.1171875 -0.035156,0.1640625 z m 0,0"
       style="fill:#000000;fill-opacity:1;fill-rule:nonzero;stroke:none"
       aria-label="a"
       transform="matrix(1.3333333,0,0,1.3333333,74.416,34.014667)" />
    <path
       id="path38"
       d="M 2.0274688,1.7450547 V 1.4052109 H 1.2891875 V -4.8877578 H 2.0274688 V -5.2276016 H 0.94934375 v 6.9726563 z m 0,0"
       style="fill:#000000;fill-opacity:1;fill-rule:nonzero;stroke:none"
       aria-label="["
       transform="matrix(1.3333333,0,0,1.3333333,81.437333,27.114667)" />
    <path
       id="path39"
       d="m 1.9697344,-4.6299453 c 0,-0.011719 0.023437,-0.1054688 0.023437,-0.1171875 0,-0.035156 -0.023437,-0.09375 -0.1054688,-0.09375 -0.140625,0 -0.7265625,0.058594 -0.90234372,0.070312 -0.046875,0.011719 -0.140625,0.011719 -0.140625,0.1640625 0,0.09375 0.09375,0.09375 0.17578122,0.09375 0.328125,0 0.328125,0.046875 0.328125,0.1054687 0,0.046875 -0.011719,0.09375 -0.023437,0.1523438 l -0.86718747,3.44531249 c -0.0234375,0.0703125 -0.0234375,0.140625 -0.0234375,0.2109375 0,0.45703125 0.3984375,0.66796875 0.72656247,0.66796875 0.1757813,0 0.375,-0.05859375 0.5625,-0.375 0.140625,-0.2578125 0.2460938,-0.66796875 0.2460938,-0.69140625 0,-0.09375 -0.09375,-0.09375 -0.1171875,-0.09375 -0.09375,0 -0.1054688,0.046875 -0.140625,0.16406248 -0.082031,0.3515625 -0.2226563,0.796875 -0.515625,0.796875 -0.1875,0 -0.23437502,-0.17578125 -0.23437502,-0.33984375 0,-0.0703125 0.0117188,-0.2109375 0.0351563,-0.28125 z m 0,0"
       style="fill:#000000;fill-opacity:1;fill-rule:nonzero;stroke:none"
       aria-label="l"
       transform="matrix(1.3333333,0,0,1.3333333,84.444,27.114667)" />
    <path
       id="path40"
       d="M 1.2993828,-5.2276016 H 0.22125781 v 0.3398438 H 0.95953906 V 1.4052109 H 0.22125781 V 1.7450547 H 1.2993828 Z m 0,0"
       style="fill:#000000;fill-opacity:1;fill-rule:nonzero;stroke:none"
       aria-label="]"
       transform="matrix(1.3333333,0,0,1.3333333,87.857333,27.114667)" />
    <path
       id="path41"
       d="m 3.0587188,-4.3583125 c 0,-0.1171875 -0.09375,-0.2578125 -0.28125,-0.2578125 -0.1992188,0 -0.3867188,0.1875 -0.3867188,0.375 0,0.1171875 0.082031,0.2695312 0.28125,0.2695312 0.1875,0 0.3867188,-0.1875 0.3867188,-0.3867187 z M 1.5821563,0.34090625 C 1.4649688,0.821375 1.0899688,1.2315312 0.6798125,1.2315312 c -0.0820313,0 -0.17578125,-0.011719 -0.24609375,-0.046875 0.17578125,-0.082031 0.234375,-0.2460937 0.234375,-0.35156245 0,-0.1640625 -0.12890625,-0.2578125 -0.26953125,-0.2578125 -0.22265625,0 -0.3984375,0.1875 -0.3984375,0.41015625 0,0.2695312 0.26953125,0.4335937 0.69140625,0.4335937 0.42187505,0 1.23046875,-0.2460937 1.45312505,-1.10156245 L 2.76575,-2.178625 C 2.789187,-2.248937 2.800906,-2.31925 2.800906,-2.413 c 0,-0.3867188 -0.328125,-0.65625 -0.7382813,-0.65625 -0.7851562,0 -1.23046875,0.9609375 -1.23046875,1.0664062 0,0.082031 0.10546875,0.082031 0.12890625,0.082031 0.0820313,0 0.0820313,-0.011719 0.1289063,-0.1171875 0.1757812,-0.4101563 0.5390625,-0.84375 0.9492187,-0.84375 0.1757813,0 0.234375,0.1171875 0.234375,0.3398437 0,0.082031 -0.011719,0.1757813 -0.023437,0.2109375 z M 4.7520781,-0.116125 c 0,0.38671875 -0.070312,0.83203125 -0.5507812,1.2773437 -0.023437,0.035156 -0.046875,0.058594 -0.046875,0.09375 0,0.046875 0.058594,0.09375 0.09375,0.09375 0.1054687,0 0.6914062,-0.56249995 0.6914062,-1.3945312 0,-0.421875 -0.1640625,-0.75 -0.4804687,-0.75 -0.234375,0 -0.3984375,0.17578125 -0.3984375,0.38671875 0,0.234375 0.1523437,0.41015625 0.3984375,0.41015625 0.1640625,0 0.28125,-0.1171875 0.2929687,-0.1171875 z m 3.1523438,-4.2421875 c 0,-0.1054688 -0.082031,-0.2578125 -0.28125,-0.2578125 -0.1875,0 -0.3867188,0.1757812 -0.3867188,0.375 0,0.1171875 0.082031,0.2695312 0.2695313,0.2695312 0.2109375,0 0.3984375,-0.1992187 0.3984375,-0.3867187 z M 6.4747344,-0.81925 c -0.023437,0.09375 -0.058594,0.17578125 -0.058594,0.29296875 0,0.328125 0.28125,0.59765625 0.6679688,0.59765625 0.6914062,0 0.9960937,-0.9609375 0.9960937,-1.06640625 0,-0.0937499 -0.082031,-0.0937499 -0.1054687,-0.0937499 -0.1054688,0 -0.1054688,0.046875 -0.140625,0.1171875 -0.1523438,0.5625 -0.4570313,0.84375 -0.7382813,0.84375 -0.140625,0 -0.1757812,-0.0820313 -0.1757812,-0.24609375 0,-0.15234375 0.058594,-0.29296875 0.1171875,-0.4453125 C 7.1075462,-1.00675 7.1778592,-1.19425 7.2598904,-1.3700312 c 0.058594,-0.1640625 0.3164063,-0.8085938 0.3398438,-0.8906251 0.023437,-0.070312 0.046875,-0.1523437 0.046875,-0.2226562 0,-0.328125 -0.28125,-0.5859375 -0.6679688,-0.5859375 -0.6914062,0 -1.0078125,0.9492187 -1.0078125,1.0664062 0,0.082031 0.09375,0.082031 0.1171875,0.082031 0.09375,0 0.1054688,-0.035156 0.1289063,-0.1054688 0.1757812,-0.5976562 0.4804687,-0.8554687 0.7382812,-0.8554687 0.1171875,0 0.1757813,0.058594 0.1757813,0.2460937 0,0.1640625 -0.035156,0.2695313 -0.2109375,0.703125 z m 0,0"
       style="fill:#000000;fill-opacity:1;fill-rule:nonzero;stroke:none"
       aria-label="j,i"
       transform="matrix(1.3333333,0,0,1.3333333,81.437333,37.717333)" />
    <path
       id="path42"
       d="M 0,-11.18762 V -0.45827"
       style="fill:none;stroke:#000000;stroke-width:0.3985;stroke-linecap:butt;stroke-linejoin:miter;stroke-miterlimit:10;stroke-dasharray:none;stroke-opacity:1"
       transform="matrix(1.3333333,0,0,-1.3333333,49.3,14.916)" />
    <path
       id="path43"
       d="M -1.19551,1.59401 C -1.09587,0.99626 0,0.09961 0.29886,0 0,-0.09961 -1.09587,-0.99626 -1.19551,-1.59401"
       style="fill:none;stroke:#000000;stroke-width:0.31879;stroke-linecap:round;stroke-linejoin:round;stroke-miterlimit:10;stroke-dasharray:none;stroke-opacity:1"
       transform="matrix(0,-1.3333333,-1.3333333,0,49.3,15.527027)" />
    <path
       id="path44"
       d="m 0,-18.20357 v 17.7453"
       style="fill:none;stroke:#000000;stroke-width:0.3985;stroke-linecap:butt;stroke-linejoin:miter;stroke-miterlimit:10;stroke-dasharray:none;stroke-opacity:1"
       transform="matrix(1.3333333,0,0,-1.3333333,49.3,14.916)" />
    <path
       id="path45"
       d="M -1.19551,1.59401 C -1.09587,0.99626 0,0.09961 0.29886,0 0,-0.09961 -1.09587,-0.99626 -1.19551,-1.59401"
       style="fill:none;stroke:#000000;stroke-width:0.31879;stroke-linecap:round;stroke-linejoin:round;stroke-miterlimit:10;stroke-dasharray:none;stroke-opacity:1"
       transform="matrix(0,-1.3333333,-1.3333333,0,49.3,15.527027)" />
    <path
       id="path46"
       d="m 0,-18.20357 v 17.7453"
       style="fill:none;stroke:#000000;stroke-width:0.3985;stroke-linecap:butt;stroke-linejoin:miter;stroke-miterlimit:10;stroke-dasharray:none;stroke-opacity:1"
       transform="matrix(1.3333333,0,0,-1.3333333,49.3,14.916)" />
    <path
       id="path47"
       d="M -1.19551,1.59401 C -1.09587,0.99626 0,0.09961 0.29886,0 0,-0.09961 -1.09587,-0.99626 -1.19551,-1.59401"
       style="fill:none;stroke:#000000;stroke-width:0.31879;stroke-linecap:round;stroke-linejoin:round;stroke-miterlimit:10;stroke-dasharray:none;stroke-opacity:1"
       transform="matrix(0,-1.3333333,-1.3333333,0,49.3,15.527027)" />
    <path
       id="path48"
       d="m 0,-18.20357 v 17.7453"
       style="fill:none;stroke:#000000;stroke-width:0.3985;stroke-linecap:butt;stroke-linejoin:miter;stroke-miterlimit:10;stroke-dasharray:none;stroke-opacity:1"
       transform="matrix(1.3333333,0,0,-1.3333333,49.3,14.916)" />
    <path
       id="path49"
       d="M -1.19551,1.59401 C -1.09587,0.99626 0,0.09961 0.29886,0 0,-0.09961 -1.09587,-0.99626 -1.19551,-1.59401"
       style="fill:none;stroke:#000000;stroke-width:0.31879;stroke-linecap:round;stroke-linejoin:round;stroke-miterlimit:10;stroke-dasharray:none;stroke-opacity:1"
       transform="matrix(0,-1.3333333,-1.3333333,0,49.3,15.527027)" />
  </g>
</svg>
