<?xml version="1.0" encoding="utf-8" standalone="no"?>
<!DOCTYPE svg PUBLIC "-//W3C//DTD SVG 1.1//EN"
  "http://www.w3.org/Graphics/SVG/1.1/DTD/svg11.dtd">
<!-- Created with matplotlib (https://matplotlib.org/) -->
<svg height="280.963594pt" version="1.1" viewBox="0 0 283.789062 280.963594" width="283.789062pt" xmlns="http://www.w3.org/2000/svg" xmlns:xlink="http://www.w3.org/1999/xlink">
 <metadata>
  <rdf:RDF xmlns:cc="http://creativecommons.org/ns#" xmlns:dc="http://purl.org/dc/elements/1.1/" xmlns:rdf="http://www.w3.org/1999/02/22-rdf-syntax-ns#">
   <cc:Work>
    <dc:type rdf:resource="http://purl.org/dc/dcmitype/StillImage"/>
    <dc:date>2022-06-08T21:13:34.811143</dc:date>
    <dc:format>image/svg+xml</dc:format>
    <dc:creator>
     <cc:Agent>
      <dc:title>Matplotlib v3.3.2, https://matplotlib.org/</dc:title>
     </cc:Agent>
    </dc:creator>
   </cc:Work>
  </rdf:RDF>
 </metadata>
 <defs>
  <style type="text/css">*{stroke-linecap:butt;stroke-linejoin:round;}</style>
 </defs>
 <g id="figure_1">
  <g id="patch_1">
   <path d="M 0 280.963594 
L 283.789062 280.963594 
L 283.789062 0 
L 0 0 
z
" style="fill:#ffffff;"/>
  </g>
  <g id="axes_1">
   <g id="patch_2">
    <path d="M 53.389062 239.229375 
L 276.589063 239.229375 
L 276.589063 21.789375 
L 53.389062 21.789375 
z
" style="fill:#eaeaf2;"/>
   </g>
   <g id="matplotlib.axis_1">
    <g id="xtick_1">
     <g id="line2d_1">
      <path clip-path="url(#pd34a6e5a8d)" d="M 92.702913 239.229375 
L 92.702913 21.789375 
" style="fill:none;stroke:#ffffff;stroke-linecap:round;"/>
     </g>
     <g id="text_1">
      <!-- 0.0 -->
      <g style="fill:#262626;" transform="translate(85.057913 256.602969)scale(0.11 -0.11)">
       <defs>
        <path d="M 4.15625 35.296875 
Q 4.15625 48 6.765625 55.734375 
Q 9.375 63.484375 14.515625 67.671875 
Q 19.671875 71.875 27.484375 71.875 
Q 33.25 71.875 37.59375 69.546875 
Q 41.9375 67.234375 44.765625 62.859375 
Q 47.609375 58.5 49.21875 52.21875 
Q 50.828125 45.953125 50.828125 35.296875 
Q 50.828125 22.703125 48.234375 14.96875 
Q 45.65625 7.234375 40.5 3 
Q 35.359375 -1.21875 27.484375 -1.21875 
Q 17.140625 -1.21875 11.234375 6.203125 
Q 4.15625 15.140625 4.15625 35.296875 
z
M 13.1875 35.296875 
Q 13.1875 17.671875 17.3125 11.828125 
Q 21.4375 6 27.484375 6 
Q 33.546875 6 37.671875 11.859375 
Q 41.796875 17.71875 41.796875 35.296875 
Q 41.796875 52.984375 37.671875 58.78125 
Q 33.546875 64.59375 27.390625 64.59375 
Q 21.34375 64.59375 17.71875 59.46875 
Q 13.1875 52.9375 13.1875 35.296875 
z
" id="ArialMT-48"/>
        <path d="M 9.078125 0 
L 9.078125 10.015625 
L 19.09375 10.015625 
L 19.09375 0 
z
" id="ArialMT-46"/>
       </defs>
       <use xlink:href="#ArialMT-48"/>
       <use x="55.615234" xlink:href="#ArialMT-46"/>
       <use x="83.398438" xlink:href="#ArialMT-48"/>
      </g>
     </g>
    </g>
    <g id="xtick_2">
     <g id="line2d_2">
      <path clip-path="url(#pd34a6e5a8d)" d="M 163.245145 239.229375 
L 163.245145 21.789375 
" style="fill:none;stroke:#ffffff;stroke-linecap:round;"/>
     </g>
     <g id="text_2">
      <!-- 0.5 -->
      <g style="fill:#262626;" transform="translate(155.600145 256.602969)scale(0.11 -0.11)">
       <defs>
        <path d="M 4.15625 18.75 
L 13.375 19.53125 
Q 14.40625 12.796875 18.140625 9.390625 
Q 21.875 6 27.15625 6 
Q 33.5 6 37.890625 10.78125 
Q 42.28125 15.578125 42.28125 23.484375 
Q 42.28125 31 38.0625 35.34375 
Q 33.84375 39.703125 27 39.703125 
Q 22.75 39.703125 19.328125 37.765625 
Q 15.921875 35.84375 13.96875 32.765625 
L 5.71875 33.84375 
L 12.640625 70.609375 
L 48.25 70.609375 
L 48.25 62.203125 
L 19.671875 62.203125 
L 15.828125 42.96875 
Q 22.265625 47.46875 29.34375 47.46875 
Q 38.71875 47.46875 45.15625 40.96875 
Q 51.609375 34.46875 51.609375 24.265625 
Q 51.609375 14.546875 45.953125 7.46875 
Q 39.0625 -1.21875 27.15625 -1.21875 
Q 17.390625 -1.21875 11.203125 4.25 
Q 5.03125 9.71875 4.15625 18.75 
z
" id="ArialMT-53"/>
       </defs>
       <use xlink:href="#ArialMT-48"/>
       <use x="55.615234" xlink:href="#ArialMT-46"/>
       <use x="83.398438" xlink:href="#ArialMT-53"/>
      </g>
     </g>
    </g>
    <g id="xtick_3">
     <g id="line2d_3">
      <path clip-path="url(#pd34a6e5a8d)" d="M 233.787377 239.229375 
L 233.787377 21.789375 
" style="fill:none;stroke:#ffffff;stroke-linecap:round;"/>
     </g>
     <g id="text_3">
      <!-- 1.0 -->
      <g style="fill:#262626;" transform="translate(226.142377 256.602969)scale(0.11 -0.11)">
       <defs>
        <path d="M 37.25 0 
L 28.46875 0 
L 28.46875 56 
Q 25.296875 52.984375 20.140625 49.953125 
Q 14.984375 46.921875 10.890625 45.40625 
L 10.890625 53.90625 
Q 18.265625 57.375 23.78125 62.296875 
Q 29.296875 67.234375 31.59375 71.875 
L 37.25 71.875 
z
" id="ArialMT-49"/>
       </defs>
       <use xlink:href="#ArialMT-49"/>
       <use x="55.615234" xlink:href="#ArialMT-46"/>
       <use x="83.398438" xlink:href="#ArialMT-48"/>
      </g>
     </g>
    </g>
    <g id="text_4">
     <!-- $x_1$ -->
     <g style="fill:#262626;" transform="translate(158.569063 271.378594)scale(0.12 -0.12)">
      <defs>
       <path d="M 60.015625 54.6875 
L 34.90625 27.875 
L 50.296875 0 
L 39.984375 0 
L 28.421875 21.6875 
L 8.296875 0 
L -2.59375 0 
L 24.3125 28.8125 
L 10.015625 54.6875 
L 20.3125 54.6875 
L 30.8125 34.90625 
L 49.125 54.6875 
z
" id="DejaVuSans-Oblique-120"/>
       <path d="M 12.40625 8.296875 
L 28.515625 8.296875 
L 28.515625 63.921875 
L 10.984375 60.40625 
L 10.984375 69.390625 
L 28.421875 72.90625 
L 38.28125 72.90625 
L 38.28125 8.296875 
L 54.390625 8.296875 
L 54.390625 0 
L 12.40625 0 
z
" id="DejaVuSans-49"/>
      </defs>
      <use transform="translate(0 0.3125)" xlink:href="#DejaVuSans-Oblique-120"/>
      <use transform="translate(59.179688 -16.09375)scale(0.7)" xlink:href="#DejaVuSans-49"/>
     </g>
    </g>
   </g>
   <g id="matplotlib.axis_2">
    <g id="ytick_1">
     <g id="line2d_4">
      <path clip-path="url(#pd34a6e5a8d)" d="M 53.389062 229.991239 
L 276.589063 229.991239 
" style="fill:none;stroke:#ffffff;stroke-linecap:round;"/>
     </g>
     <g id="text_5">
      <!-- −0.2 -->
      <g style="fill:#262626;" transform="translate(22.174375 233.928036)scale(0.11 -0.11)">
       <defs>
        <path d="M 52.828125 31.203125 
L 5.5625 31.203125 
L 5.5625 39.40625 
L 52.828125 39.40625 
z
" id="ArialMT-8722"/>
        <path d="M 50.34375 8.453125 
L 50.34375 0 
L 3.03125 0 
Q 2.9375 3.171875 4.046875 6.109375 
Q 5.859375 10.9375 9.828125 15.625 
Q 13.8125 20.3125 21.34375 26.46875 
Q 33.015625 36.03125 37.109375 41.625 
Q 41.21875 47.21875 41.21875 52.203125 
Q 41.21875 57.421875 37.46875 61 
Q 33.734375 64.59375 27.734375 64.59375 
Q 21.390625 64.59375 17.578125 60.78125 
Q 13.765625 56.984375 13.71875 50.25 
L 4.6875 51.171875 
Q 5.609375 61.28125 11.65625 66.578125 
Q 17.71875 71.875 27.9375 71.875 
Q 38.234375 71.875 44.234375 66.15625 
Q 50.25 60.453125 50.25 52 
Q 50.25 47.703125 48.484375 43.546875 
Q 46.734375 39.40625 42.65625 34.8125 
Q 38.578125 30.21875 29.109375 22.21875 
Q 21.1875 15.578125 18.9375 13.203125 
Q 16.703125 10.84375 15.234375 8.453125 
z
" id="ArialMT-50"/>
       </defs>
       <use xlink:href="#ArialMT-8722"/>
       <use x="58.398438" xlink:href="#ArialMT-48"/>
       <use x="114.013672" xlink:href="#ArialMT-46"/>
       <use x="141.796875" xlink:href="#ArialMT-50"/>
      </g>
     </g>
    </g>
    <g id="ytick_2">
     <g id="line2d_5">
      <path clip-path="url(#pd34a6e5a8d)" d="M 53.389062 203.046137 
L 276.589063 203.046137 
" style="fill:none;stroke:#ffffff;stroke-linecap:round;"/>
     </g>
     <g id="text_6">
      <!-- 0.0 -->
      <g style="fill:#262626;" transform="translate(28.599062 206.982934)scale(0.11 -0.11)">
       <use xlink:href="#ArialMT-48"/>
       <use x="55.615234" xlink:href="#ArialMT-46"/>
       <use x="83.398438" xlink:href="#ArialMT-48"/>
      </g>
     </g>
    </g>
    <g id="ytick_3">
     <g id="line2d_6">
      <path clip-path="url(#pd34a6e5a8d)" d="M 53.389062 176.101034 
L 276.589063 176.101034 
" style="fill:none;stroke:#ffffff;stroke-linecap:round;"/>
     </g>
     <g id="text_7">
      <!-- 0.2 -->
      <g style="fill:#262626;" transform="translate(28.599062 180.037831)scale(0.11 -0.11)">
       <use xlink:href="#ArialMT-48"/>
       <use x="55.615234" xlink:href="#ArialMT-46"/>
       <use x="83.398438" xlink:href="#ArialMT-50"/>
      </g>
     </g>
    </g>
    <g id="ytick_4">
     <g id="line2d_7">
      <path clip-path="url(#pd34a6e5a8d)" d="M 53.389062 149.155932 
L 276.589063 149.155932 
" style="fill:none;stroke:#ffffff;stroke-linecap:round;"/>
     </g>
     <g id="text_8">
      <!-- 0.4 -->
      <g style="fill:#262626;" transform="translate(28.599062 153.092729)scale(0.11 -0.11)">
       <defs>
        <path d="M 32.328125 0 
L 32.328125 17.140625 
L 1.265625 17.140625 
L 1.265625 25.203125 
L 33.9375 71.578125 
L 41.109375 71.578125 
L 41.109375 25.203125 
L 50.78125 25.203125 
L 50.78125 17.140625 
L 41.109375 17.140625 
L 41.109375 0 
z
M 32.328125 25.203125 
L 32.328125 57.46875 
L 9.90625 25.203125 
z
" id="ArialMT-52"/>
       </defs>
       <use xlink:href="#ArialMT-48"/>
       <use x="55.615234" xlink:href="#ArialMT-46"/>
       <use x="83.398438" xlink:href="#ArialMT-52"/>
      </g>
     </g>
    </g>
    <g id="ytick_5">
     <g id="line2d_8">
      <path clip-path="url(#pd34a6e5a8d)" d="M 53.389062 122.21083 
L 276.589063 122.21083 
" style="fill:none;stroke:#ffffff;stroke-linecap:round;"/>
     </g>
     <g id="text_9">
      <!-- 0.6 -->
      <g style="fill:#262626;" transform="translate(28.599062 126.147627)scale(0.11 -0.11)">
       <defs>
        <path d="M 49.75 54.046875 
L 41.015625 53.375 
Q 39.84375 58.546875 37.703125 60.890625 
Q 34.125 64.65625 28.90625 64.65625 
Q 24.703125 64.65625 21.53125 62.3125 
Q 17.390625 59.28125 14.984375 53.46875 
Q 12.59375 47.65625 12.5 36.921875 
Q 15.671875 41.75 20.265625 44.09375 
Q 24.859375 46.4375 29.890625 46.4375 
Q 38.671875 46.4375 44.84375 39.96875 
Q 51.03125 33.5 51.03125 23.25 
Q 51.03125 16.5 48.125 10.71875 
Q 45.21875 4.9375 40.140625 1.859375 
Q 35.0625 -1.21875 28.609375 -1.21875 
Q 17.625 -1.21875 10.6875 6.859375 
Q 3.765625 14.9375 3.765625 33.5 
Q 3.765625 54.25 11.421875 63.671875 
Q 18.109375 71.875 29.4375 71.875 
Q 37.890625 71.875 43.28125 67.140625 
Q 48.6875 62.40625 49.75 54.046875 
z
M 13.875 23.1875 
Q 13.875 18.65625 15.796875 14.5 
Q 17.71875 10.359375 21.1875 8.171875 
Q 24.65625 6 28.46875 6 
Q 34.03125 6 38.03125 10.484375 
Q 42.046875 14.984375 42.046875 22.703125 
Q 42.046875 30.125 38.078125 34.390625 
Q 34.125 38.671875 28.125 38.671875 
Q 22.171875 38.671875 18.015625 34.390625 
Q 13.875 30.125 13.875 23.1875 
z
" id="ArialMT-54"/>
       </defs>
       <use xlink:href="#ArialMT-48"/>
       <use x="55.615234" xlink:href="#ArialMT-46"/>
       <use x="83.398438" xlink:href="#ArialMT-54"/>
      </g>
     </g>
    </g>
    <g id="ytick_6">
     <g id="line2d_9">
      <path clip-path="url(#pd34a6e5a8d)" d="M 53.389062 95.265727 
L 276.589063 95.265727 
" style="fill:none;stroke:#ffffff;stroke-linecap:round;"/>
     </g>
     <g id="text_10">
      <!-- 0.8 -->
      <g style="fill:#262626;" transform="translate(28.599062 99.202524)scale(0.11 -0.11)">
       <defs>
        <path d="M 17.671875 38.8125 
Q 12.203125 40.828125 9.5625 44.53125 
Q 6.9375 48.25 6.9375 53.421875 
Q 6.9375 61.234375 12.546875 66.546875 
Q 18.171875 71.875 27.484375 71.875 
Q 36.859375 71.875 42.578125 66.421875 
Q 48.296875 60.984375 48.296875 53.171875 
Q 48.296875 48.1875 45.671875 44.5 
Q 43.0625 40.828125 37.75 38.8125 
Q 44.34375 36.671875 47.78125 31.875 
Q 51.21875 27.09375 51.21875 20.453125 
Q 51.21875 11.28125 44.71875 5.03125 
Q 38.234375 -1.21875 27.640625 -1.21875 
Q 17.046875 -1.21875 10.546875 5.046875 
Q 4.046875 11.328125 4.046875 20.703125 
Q 4.046875 27.6875 7.59375 32.390625 
Q 11.140625 37.109375 17.671875 38.8125 
z
M 15.921875 53.71875 
Q 15.921875 48.640625 19.1875 45.40625 
Q 22.46875 42.1875 27.6875 42.1875 
Q 32.765625 42.1875 36.015625 45.375 
Q 39.265625 48.578125 39.265625 53.21875 
Q 39.265625 58.0625 35.90625 61.359375 
Q 32.5625 64.65625 27.59375 64.65625 
Q 22.5625 64.65625 19.234375 61.421875 
Q 15.921875 58.203125 15.921875 53.71875 
z
M 13.09375 20.65625 
Q 13.09375 16.890625 14.875 13.375 
Q 16.65625 9.859375 20.171875 7.921875 
Q 23.6875 6 27.734375 6 
Q 34.03125 6 38.125 10.046875 
Q 42.234375 14.109375 42.234375 20.359375 
Q 42.234375 26.703125 38.015625 30.859375 
Q 33.796875 35.015625 27.4375 35.015625 
Q 21.234375 35.015625 17.15625 30.90625 
Q 13.09375 26.8125 13.09375 20.65625 
z
" id="ArialMT-56"/>
       </defs>
       <use xlink:href="#ArialMT-48"/>
       <use x="55.615234" xlink:href="#ArialMT-46"/>
       <use x="83.398438" xlink:href="#ArialMT-56"/>
      </g>
     </g>
    </g>
    <g id="ytick_7">
     <g id="line2d_10">
      <path clip-path="url(#pd34a6e5a8d)" d="M 53.389062 68.320625 
L 276.589063 68.320625 
" style="fill:none;stroke:#ffffff;stroke-linecap:round;"/>
     </g>
     <g id="text_11">
      <!-- 1.0 -->
      <g style="fill:#262626;" transform="translate(28.599062 72.257422)scale(0.11 -0.11)">
       <use xlink:href="#ArialMT-49"/>
       <use x="55.615234" xlink:href="#ArialMT-46"/>
       <use x="83.398438" xlink:href="#ArialMT-48"/>
      </g>
     </g>
    </g>
    <g id="ytick_8">
     <g id="line2d_11">
      <path clip-path="url(#pd34a6e5a8d)" d="M 53.389062 41.375523 
L 276.589063 41.375523 
" style="fill:none;stroke:#ffffff;stroke-linecap:round;"/>
     </g>
     <g id="text_12">
      <!-- 1.2 -->
      <g style="fill:#262626;" transform="translate(28.599062 45.31232)scale(0.11 -0.11)">
       <use xlink:href="#ArialMT-49"/>
       <use x="55.615234" xlink:href="#ArialMT-46"/>
       <use x="83.398438" xlink:href="#ArialMT-50"/>
      </g>
     </g>
    </g>
    <g id="text_13">
     <!-- $x_2$ -->
     <g style="fill:#262626;" transform="translate(15.789375 136.929375)rotate(-90)scale(0.12 -0.12)">
      <defs>
       <path d="M 19.1875 8.296875 
L 53.609375 8.296875 
L 53.609375 0 
L 7.328125 0 
L 7.328125 8.296875 
Q 12.9375 14.109375 22.625 23.890625 
Q 32.328125 33.6875 34.8125 36.53125 
Q 39.546875 41.84375 41.421875 45.53125 
Q 43.3125 49.21875 43.3125 52.78125 
Q 43.3125 58.59375 39.234375 62.25 
Q 35.15625 65.921875 28.609375 65.921875 
Q 23.96875 65.921875 18.8125 64.3125 
Q 13.671875 62.703125 7.8125 59.421875 
L 7.8125 69.390625 
Q 13.765625 71.78125 18.9375 73 
Q 24.125 74.21875 28.421875 74.21875 
Q 39.75 74.21875 46.484375 68.546875 
Q 53.21875 62.890625 53.21875 53.421875 
Q 53.21875 48.921875 51.53125 44.890625 
Q 49.859375 40.875 45.40625 35.40625 
Q 44.1875 33.984375 37.640625 27.21875 
Q 31.109375 20.453125 19.1875 8.296875 
z
" id="DejaVuSans-50"/>
      </defs>
      <use transform="translate(0 0.3125)" xlink:href="#DejaVuSans-Oblique-120"/>
      <use transform="translate(59.179688 -16.09375)scale(0.7)" xlink:href="#DejaVuSans-50"/>
     </g>
    </g>
   </g>
   <g id="PathCollection_1">
    <defs>
     <path d="M 0 3 
C 0.795609 3 1.55874 2.683901 2.12132 2.12132 
C 2.683901 1.55874 3 0.795609 3 0 
C 3 -0.795609 2.683901 -1.55874 2.12132 -2.12132 
C 1.55874 -2.683901 0.795609 -3 0 -3 
C -0.795609 -3 -1.55874 -2.683901 -2.12132 -2.12132 
C -2.683901 -1.55874 -3 -0.795609 -3 0 
C -3 0.795609 -2.683901 1.55874 -2.12132 2.12132 
C -1.55874 2.683901 -0.795609 3 0 3 
z
" id="mc2b0d7391d" style="stroke:#333333;"/>
    </defs>
    <g clip-path="url(#pd34a6e5a8d)">
     <use style="fill:#4c72b0;stroke:#333333;" x="96.83771" xlink:href="#mc2b0d7391d" y="212.670272"/>
     <use style="fill:#4c72b0;stroke:#333333;" x="75.895471" xlink:href="#mc2b0d7391d" y="194.200685"/>
     <use style="fill:#4c72b0;stroke:#333333;" x="109.048897" xlink:href="#mc2b0d7391d" y="214.102822"/>
     <use style="fill:#4c72b0;stroke:#333333;" x="106.294654" xlink:href="#mc2b0d7391d" y="197.484924"/>
     <use style="fill:#4c72b0;stroke:#333333;" x="230.325332" xlink:href="#mc2b0d7391d" y="78.475371"/>
     <use style="fill:#4c72b0;stroke:#333333;" x="237.691053" xlink:href="#mc2b0d7391d" y="57.17635"/>
     <use style="fill:#4c72b0;stroke:#333333;" x="233.970817" xlink:href="#mc2b0d7391d" y="48.737809"/>
     <use style="fill:#4c72b0;stroke:#333333;" x="230.053485" xlink:href="#mc2b0d7391d" y="31.673011"/>
     <use style="fill:#4c72b0;stroke:#333333;" x="242.614575" xlink:href="#mc2b0d7391d" y="79.868726"/>
     <use style="fill:#4c72b0;stroke:#333333;" x="77.594283" xlink:href="#mc2b0d7391d" y="196.546003"/>
     <use style="fill:#4c72b0;stroke:#333333;" x="230.634667" xlink:href="#mc2b0d7391d" y="58.701217"/>
     <use style="fill:#4c72b0;stroke:#333333;" x="86.403281" xlink:href="#mc2b0d7391d" y="191.50826"/>
     <use style="fill:#4c72b0;stroke:#333333;" x="95.723443" xlink:href="#mc2b0d7391d" y="219.829416"/>
     <use style="fill:#4c72b0;stroke:#333333;" x="236.230696" xlink:href="#mc2b0d7391d" y="63.129411"/>
     <use style="fill:#4c72b0;stroke:#333333;" x="221.31752" xlink:href="#mc2b0d7391d" y="66.249555"/>
     <use style="fill:#4c72b0;stroke:#333333;" x="238.835205" xlink:href="#mc2b0d7391d" y="60.765429"/>
     <use style="fill:#4c72b0;stroke:#333333;" x="100.757291" xlink:href="#mc2b0d7391d" y="187.747171"/>
     <use style="fill:#4c72b0;stroke:#333333;" x="106.162396" xlink:href="#mc2b0d7391d" y="194.270235"/>
     <use style="fill:#4c72b0;stroke:#333333;" x="88.254954" xlink:href="#mc2b0d7391d" y="192.820886"/>
     <use style="fill:#4c72b0;stroke:#333333;" x="266.443608" xlink:href="#mc2b0d7391d" y="93.47745"/>
     <use style="fill:#4c72b0;stroke:#333333;" x="243.469446" xlink:href="#mc2b0d7391d" y="90.04802"/>
     <use style="fill:#4c72b0;stroke:#333333;" x="223.695557" xlink:href="#mc2b0d7391d" y="59.164708"/>
     <use style="fill:#4c72b0;stroke:#333333;" x="64.131297" xlink:href="#mc2b0d7391d" y="200.534121"/>
     <use style="fill:#4c72b0;stroke:#333333;" x="222.606142" xlink:href="#mc2b0d7391d" y="69.866419"/>
     <use style="fill:#4c72b0;stroke:#333333;" x="240.911963" xlink:href="#mc2b0d7391d" y="56.656695"/>
     <use style="fill:#4c72b0;stroke:#333333;" x="216.853061" xlink:href="#mc2b0d7391d" y="72.827211"/>
     <use style="fill:#4c72b0;stroke:#333333;" x="227.086637" xlink:href="#mc2b0d7391d" y="77.12264"/>
     <use style="fill:#4c72b0;stroke:#333333;" x="258.695188" xlink:href="#mc2b0d7391d" y="62.864493"/>
     <use style="fill:#4c72b0;stroke:#333333;" x="212.351426" xlink:href="#mc2b0d7391d" y="74.844494"/>
     <use style="fill:#4c72b0;stroke:#333333;" x="251.661524" xlink:href="#mc2b0d7391d" y="77.854735"/>
     <use style="fill:#4c72b0;stroke:#333333;" x="240.048985" xlink:href="#mc2b0d7391d" y="57.88433"/>
     <use style="fill:#4c72b0;stroke:#333333;" x="230.224033" xlink:href="#mc2b0d7391d" y="85.13145"/>
     <use style="fill:#4c72b0;stroke:#333333;" x="235.388926" xlink:href="#mc2b0d7391d" y="59.400043"/>
     <use style="fill:#4c72b0;stroke:#333333;" x="122.796701" xlink:href="#mc2b0d7391d" y="229.345739"/>
     <use style="fill:#4c72b0;stroke:#333333;" x="90.561461" xlink:href="#mc2b0d7391d" y="195.120003"/>
     <use style="fill:#4c72b0;stroke:#333333;" x="96.667272" xlink:href="#mc2b0d7391d" y="211.435488"/>
     <use style="fill:#4c72b0;stroke:#333333;" x="89.766631" xlink:href="#mc2b0d7391d" y="209.688117"/>
     <use style="fill:#4c72b0;stroke:#333333;" x="238.824306" xlink:href="#mc2b0d7391d" y="77.655882"/>
     <use style="fill:#4c72b0;stroke:#333333;" x="104.171135" xlink:href="#mc2b0d7391d" y="194.56343"/>
     <use style="fill:#4c72b0;stroke:#333333;" x="103.246065" xlink:href="#mc2b0d7391d" y="194.822892"/>
     <use style="fill:#4c72b0;stroke:#333333;" x="92.408024" xlink:href="#mc2b0d7391d" y="201.465438"/>
     <use style="fill:#4c72b0;stroke:#333333;" x="104.348256" xlink:href="#mc2b0d7391d" y="192.086086"/>
     <use style="fill:#4c72b0;stroke:#333333;" x="252.205655" xlink:href="#mc2b0d7391d" y="68.037655"/>
     <use style="fill:#4c72b0;stroke:#333333;" x="250.126526" xlink:href="#mc2b0d7391d" y="57.654906"/>
     <use style="fill:#4c72b0;stroke:#333333;" x="101.508274" xlink:href="#mc2b0d7391d" y="194.580719"/>
     <use style="fill:#4c72b0;stroke:#333333;" x="92.53013" xlink:href="#mc2b0d7391d" y="215.134442"/>
     <use style="fill:#4c72b0;stroke:#333333;" x="93.772398" xlink:href="#mc2b0d7391d" y="212.169233"/>
     <use style="fill:#4c72b0;stroke:#333333;" x="81.05643" xlink:href="#mc2b0d7391d" y="207.376024"/>
     <use style="fill:#4c72b0;stroke:#333333;" x="96.159011" xlink:href="#mc2b0d7391d" y="209.875955"/>
     <use style="fill:#4c72b0;stroke:#333333;" x="86.057294" xlink:href="#mc2b0d7391d" y="199.919832"/>
     <use style="fill:#4c72b0;stroke:#333333;" x="223.651249" xlink:href="#mc2b0d7391d" y="71.196304"/>
     <use style="fill:#4c72b0;stroke:#333333;" x="97.089336" xlink:href="#mc2b0d7391d" y="183.169325"/>
     <use style="fill:#4c72b0;stroke:#333333;" x="92.434624" xlink:href="#mc2b0d7391d" y="216.552765"/>
     <use style="fill:#4c72b0;stroke:#333333;" x="238.340436" xlink:href="#mc2b0d7391d" y="79.465535"/>
     <use style="fill:#4c72b0;stroke:#333333;" x="91.168476" xlink:href="#mc2b0d7391d" y="197.634055"/>
     <use style="fill:#4c72b0;stroke:#333333;" x="102.439773" xlink:href="#mc2b0d7391d" y="208.4516"/>
     <use style="fill:#4c72b0;stroke:#333333;" x="95.86451" xlink:href="#mc2b0d7391d" y="202.876485"/>
     <use style="fill:#4c72b0;stroke:#333333;" x="113.176295" xlink:href="#mc2b0d7391d" y="190.122312"/>
     <use style="fill:#4c72b0;stroke:#333333;" x="264.165431" xlink:href="#mc2b0d7391d" y="78.658758"/>
     <use style="fill:#4c72b0;stroke:#333333;" x="246.094473" xlink:href="#mc2b0d7391d" y="65.850547"/>
     <use style="fill:#4c72b0;stroke:#333333;" x="80.855742" xlink:href="#mc2b0d7391d" y="211.121485"/>
     <use style="fill:#4c72b0;stroke:#333333;" x="203.822506" xlink:href="#mc2b0d7391d" y="75.40389"/>
     <use style="fill:#4c72b0;stroke:#333333;" x="223.077197" xlink:href="#mc2b0d7391d" y="66.294444"/>
     <use style="fill:#4c72b0;stroke:#333333;" x="238.609028" xlink:href="#mc2b0d7391d" y="43.04382"/>
     <use style="fill:#4c72b0;stroke:#333333;" x="247.196376" xlink:href="#mc2b0d7391d" y="76.092991"/>
     <use style="fill:#4c72b0;stroke:#333333;" x="91.086934" xlink:href="#mc2b0d7391d" y="186.369594"/>
     <use style="fill:#4c72b0;stroke:#333333;" x="70.208016" xlink:href="#mc2b0d7391d" y="211.121248"/>
     <use style="fill:#4c72b0;stroke:#333333;" x="77.640447" xlink:href="#mc2b0d7391d" y="204.964352"/>
     <use style="fill:#4c72b0;stroke:#333333;" x="97.391347" xlink:href="#mc2b0d7391d" y="213.13016"/>
     <use style="fill:#4c72b0;stroke:#333333;" x="250.425425" xlink:href="#mc2b0d7391d" y="67.410973"/>
     <use style="fill:#4c72b0;stroke:#333333;" x="121.776864" xlink:href="#mc2b0d7391d" y="179.397217"/>
     <use style="fill:#4c72b0;stroke:#333333;" x="230.274876" xlink:href="#mc2b0d7391d" y="55.231082"/>
     <use style="fill:#4c72b0;stroke:#333333;" x="242.892636" xlink:href="#mc2b0d7391d" y="49.881672"/>
     <use style="fill:#4c72b0;stroke:#333333;" x="229.986463" xlink:href="#mc2b0d7391d" y="58.653501"/>
     <use style="fill:#4c72b0;stroke:#333333;" x="68.670833" xlink:href="#mc2b0d7391d" y="203.794506"/>
     <use style="fill:#4c72b0;stroke:#333333;" x="63.534517" xlink:href="#mc2b0d7391d" y="204.246811"/>
     <use style="fill:#4c72b0;stroke:#333333;" x="238.959511" xlink:href="#mc2b0d7391d" y="80.983207"/>
     <use style="fill:#4c72b0;stroke:#333333;" x="78.79585" xlink:href="#mc2b0d7391d" y="196.255344"/>
     <use style="fill:#4c72b0;stroke:#333333;" x="225.976249" xlink:href="#mc2b0d7391d" y="84.459099"/>
     <use style="fill:#4c72b0;stroke:#333333;" x="261.506598" xlink:href="#mc2b0d7391d" y="67.845538"/>
     <use style="fill:#4c72b0;stroke:#333333;" x="85.218366" xlink:href="#mc2b0d7391d" y="210.803877"/>
     <use style="fill:#4c72b0;stroke:#333333;" x="256.995317" xlink:href="#mc2b0d7391d" y="71.675775"/>
     <use style="fill:#4c72b0;stroke:#333333;" x="241.9217" xlink:href="#mc2b0d7391d" y="64.127284"/>
     <use style="fill:#4c72b0;stroke:#333333;" x="136.141139" xlink:href="#mc2b0d7391d" y="187.962607"/>
     <use style="fill:#4c72b0;stroke:#333333;" x="231.98266" xlink:href="#mc2b0d7391d" y="81.194194"/>
     <use style="fill:#4c72b0;stroke:#333333;" x="70.038451" xlink:href="#mc2b0d7391d" y="200.304963"/>
     <use style="fill:#4c72b0;stroke:#333333;" x="224.665241" xlink:href="#mc2b0d7391d" y="82.891832"/>
     <use style="fill:#4c72b0;stroke:#333333;" x="116.505861" xlink:href="#mc2b0d7391d" y="191.1682"/>
     <use style="fill:#4c72b0;stroke:#333333;" x="233.674895" xlink:href="#mc2b0d7391d" y="48.382004"/>
     <use style="fill:#4c72b0;stroke:#333333;" x="78.068981" xlink:href="#mc2b0d7391d" y="205.610484"/>
     <use style="fill:#4c72b0;stroke:#333333;" x="234.471944" xlink:href="#mc2b0d7391d" y="79.515643"/>
     <use style="fill:#4c72b0;stroke:#333333;" x="96.518639" xlink:href="#mc2b0d7391d" y="203.722972"/>
     <use style="fill:#4c72b0;stroke:#333333;" x="99.770076" xlink:href="#mc2b0d7391d" y="216.216299"/>
     <use style="fill:#4c72b0;stroke:#333333;" x="235.188802" xlink:href="#mc2b0d7391d" y="58.197527"/>
     <use style="fill:#4c72b0;stroke:#333333;" x="69.150198" xlink:href="#mc2b0d7391d" y="195.725689"/>
     <use style="fill:#4c72b0;stroke:#333333;" x="224.438787" xlink:href="#mc2b0d7391d" y="60.633203"/>
     <use style="fill:#4c72b0;stroke:#333333;" x="223.018979" xlink:href="#mc2b0d7391d" y="92.636994"/>
     <use style="fill:#4c72b0;stroke:#333333;" x="232.85509" xlink:href="#mc2b0d7391d" y="84.636103"/>
     <use style="fill:#4c72b0;stroke:#333333;" x="106.900141" xlink:href="#mc2b0d7391d" y="210.818342"/>
     <use style="fill:#4c72b0;stroke:#333333;" x="104.493231" xlink:href="#mc2b0d7391d" y="218.26617"/>
     <use style="fill:#4c72b0;stroke:#333333;" x="100.177627" xlink:href="#mc2b0d7391d" y="183.62453"/>
     <use style="fill:#4c72b0;stroke:#333333;" x="198.916316" xlink:href="#mc2b0d7391d" y="79.056834"/>
     <use style="fill:#4c72b0;stroke:#333333;" x="239.023674" xlink:href="#mc2b0d7391d" y="76.457846"/>
    </g>
   </g>
   <g id="PathCollection_2">
    <defs>
     <path d="M 0 3 
C 0.795609 3 1.55874 2.683901 2.12132 2.12132 
C 2.683901 1.55874 3 0.795609 3 0 
C 3 -0.795609 2.683901 -1.55874 2.12132 -2.12132 
C 1.55874 -2.683901 0.795609 -3 0 -3 
C -0.795609 -3 -1.55874 -2.683901 -2.12132 -2.12132 
C -2.683901 -1.55874 -3 -0.795609 -3 0 
C -3 0.795609 -2.683901 1.55874 -2.12132 2.12132 
C -1.55874 2.683901 -0.795609 3 0 3 
z
" id="m4852ad09f9" style="stroke:#333333;"/>
    </defs>
    <g clip-path="url(#pd34a6e5a8d)">
     <use style="fill:#dd8452;stroke:#333333;" x="83.108821" xlink:href="#m4852ad09f9" y="65.191568"/>
     <use style="fill:#dd8452;stroke:#333333;" x="119.026093" xlink:href="#m4852ad09f9" y="61.936885"/>
     <use style="fill:#dd8452;stroke:#333333;" x="78.951669" xlink:href="#m4852ad09f9" y="57.716594"/>
     <use style="fill:#dd8452;stroke:#333333;" x="245.385368" xlink:href="#m4852ad09f9" y="177.491497"/>
     <use style="fill:#dd8452;stroke:#333333;" x="221.237707" xlink:href="#m4852ad09f9" y="214.037182"/>
     <use style="fill:#dd8452;stroke:#333333;" x="232.699594" xlink:href="#m4852ad09f9" y="198.449949"/>
     <use style="fill:#dd8452;stroke:#333333;" x="240.464017" xlink:href="#m4852ad09f9" y="204.027328"/>
     <use style="fill:#dd8452;stroke:#333333;" x="221.840434" xlink:href="#m4852ad09f9" y="223.454994"/>
     <use style="fill:#dd8452;stroke:#333333;" x="234.608612" xlink:href="#m4852ad09f9" y="218.444863"/>
     <use style="fill:#dd8452;stroke:#333333;" x="107.983084" xlink:href="#m4852ad09f9" y="54.123227"/>
     <use style="fill:#dd8452;stroke:#333333;" x="73.266138" xlink:href="#m4852ad09f9" y="80.955518"/>
     <use style="fill:#dd8452;stroke:#333333;" x="99.969261" xlink:href="#m4852ad09f9" y="61.398616"/>
     <use style="fill:#dd8452;stroke:#333333;" x="241.053895" xlink:href="#m4852ad09f9" y="151.140013"/>
     <use style="fill:#dd8452;stroke:#333333;" x="81.79955" xlink:href="#m4852ad09f9" y="71.511178"/>
     <use style="fill:#dd8452;stroke:#333333;" x="226.939651" xlink:href="#m4852ad09f9" y="201.943083"/>
     <use style="fill:#dd8452;stroke:#333333;" x="86.044687" xlink:href="#m4852ad09f9" y="53.649682"/>
     <use style="fill:#dd8452;stroke:#333333;" x="93.609804" xlink:href="#m4852ad09f9" y="82.840599"/>
     <use style="fill:#dd8452;stroke:#333333;" x="82.398574" xlink:href="#m4852ad09f9" y="65.40437"/>
     <use style="fill:#dd8452;stroke:#333333;" x="93.345861" xlink:href="#m4852ad09f9" y="77.099344"/>
     <use style="fill:#dd8452;stroke:#333333;" x="122.950633" xlink:href="#m4852ad09f9" y="59.780116"/>
     <use style="fill:#dd8452;stroke:#333333;" x="224.450602" xlink:href="#m4852ad09f9" y="191.561685"/>
     <use style="fill:#dd8452;stroke:#333333;" x="215.998266" xlink:href="#m4852ad09f9" y="190.680194"/>
     <use style="fill:#dd8452;stroke:#333333;" x="122.64324" xlink:href="#m4852ad09f9" y="54.410678"/>
     <use style="fill:#dd8452;stroke:#333333;" x="220.709831" xlink:href="#m4852ad09f9" y="203.848095"/>
     <use style="fill:#dd8452;stroke:#333333;" x="188.058133" xlink:href="#m4852ad09f9" y="216.847252"/>
     <use style="fill:#dd8452;stroke:#333333;" x="115.733701" xlink:href="#m4852ad09f9" y="87.588277"/>
     <use style="fill:#dd8452;stroke:#333333;" x="86.494569" xlink:href="#m4852ad09f9" y="66.559218"/>
     <use style="fill:#dd8452;stroke:#333333;" x="254.12151" xlink:href="#m4852ad09f9" y="222.390864"/>
     <use style="fill:#dd8452;stroke:#333333;" x="250.197803" xlink:href="#m4852ad09f9" y="202.908271"/>
     <use style="fill:#dd8452;stroke:#333333;" x="219.939817" xlink:href="#m4852ad09f9" y="196.820424"/>
     <use style="fill:#dd8452;stroke:#333333;" x="95.511336" xlink:href="#m4852ad09f9" y="76.407079"/>
     <use style="fill:#dd8452;stroke:#333333;" x="234.772172" xlink:href="#m4852ad09f9" y="208.237294"/>
     <use style="fill:#dd8452;stroke:#333333;" x="256.163605" xlink:href="#m4852ad09f9" y="219.722669"/>
     <use style="fill:#dd8452;stroke:#333333;" x="225.472356" xlink:href="#m4852ad09f9" y="191.599829"/>
     <use style="fill:#dd8452;stroke:#333333;" x="246.479333" xlink:href="#m4852ad09f9" y="198.906028"/>
     <use style="fill:#dd8452;stroke:#333333;" x="81.007081" xlink:href="#m4852ad09f9" y="75.867694"/>
     <use style="fill:#dd8452;stroke:#333333;" x="110.72878" xlink:href="#m4852ad09f9" y="76.2906"/>
     <use style="fill:#dd8452;stroke:#333333;" x="100.421607" xlink:href="#m4852ad09f9" y="71.044676"/>
     <use style="fill:#dd8452;stroke:#333333;" x="89.631769" xlink:href="#m4852ad09f9" y="53.517295"/>
     <use style="fill:#dd8452;stroke:#333333;" x="243.408681" xlink:href="#m4852ad09f9" y="207.226222"/>
     <use style="fill:#dd8452;stroke:#333333;" x="238.360853" xlink:href="#m4852ad09f9" y="204.799496"/>
     <use style="fill:#dd8452;stroke:#333333;" x="94.071375" xlink:href="#m4852ad09f9" y="60.30234"/>
     <use style="fill:#dd8452;stroke:#333333;" x="222.24355" xlink:href="#m4852ad09f9" y="174.856343"/>
     <use style="fill:#dd8452;stroke:#333333;" x="78.50957" xlink:href="#m4852ad09f9" y="84.67884"/>
     <use style="fill:#dd8452;stroke:#333333;" x="247.544806" xlink:href="#m4852ad09f9" y="205.027375"/>
     <use style="fill:#dd8452;stroke:#333333;" x="239.613198" xlink:href="#m4852ad09f9" y="210.640945"/>
     <use style="fill:#dd8452;stroke:#333333;" x="81.102661" xlink:href="#m4852ad09f9" y="65.037531"/>
     <use style="fill:#dd8452;stroke:#333333;" x="72.272692" xlink:href="#m4852ad09f9" y="87.28275"/>
     <use style="fill:#dd8452;stroke:#333333;" x="104.803158" xlink:href="#m4852ad09f9" y="70.475403"/>
     <use style="fill:#dd8452;stroke:#333333;" x="233.526185" xlink:href="#m4852ad09f9" y="206.935105"/>
     <use style="fill:#dd8452;stroke:#333333;" x="241.114542" xlink:href="#m4852ad09f9" y="182.396233"/>
     <use style="fill:#dd8452;stroke:#333333;" x="235.165441" xlink:href="#m4852ad09f9" y="213.460551"/>
     <use style="fill:#dd8452;stroke:#333333;" x="234.133184" xlink:href="#m4852ad09f9" y="196.336829"/>
     <use style="fill:#dd8452;stroke:#333333;" x="123.597631" xlink:href="#m4852ad09f9" y="79.210461"/>
     <use style="fill:#dd8452;stroke:#333333;" x="80.027677" xlink:href="#m4852ad09f9" y="61.693214"/>
     <use style="fill:#dd8452;stroke:#333333;" x="215.160936" xlink:href="#m4852ad09f9" y="178.371714"/>
     <use style="fill:#dd8452;stroke:#333333;" x="250.427444" xlink:href="#m4852ad09f9" y="209.36713"/>
     <use style="fill:#dd8452;stroke:#333333;" x="68.533247" xlink:href="#m4852ad09f9" y="50.080518"/>
     <use style="fill:#dd8452;stroke:#333333;" x="233.861362" xlink:href="#m4852ad09f9" y="202.413188"/>
     <use style="fill:#dd8452;stroke:#333333;" x="227.437649" xlink:href="#m4852ad09f9" y="194.654759"/>
     <use style="fill:#dd8452;stroke:#333333;" x="94.400097" xlink:href="#m4852ad09f9" y="61.389815"/>
     <use style="fill:#dd8452;stroke:#333333;" x="243.827161" xlink:href="#m4852ad09f9" y="218.197935"/>
     <use style="fill:#dd8452;stroke:#333333;" x="71.058945" xlink:href="#m4852ad09f9" y="51.107059"/>
     <use style="fill:#dd8452;stroke:#333333;" x="114.587258" xlink:href="#m4852ad09f9" y="66.762191"/>
     <use style="fill:#dd8452;stroke:#333333;" x="79.089343" xlink:href="#m4852ad09f9" y="59.077757"/>
     <use style="fill:#dd8452;stroke:#333333;" x="107.635638" xlink:href="#m4852ad09f9" y="92.015331"/>
     <use style="fill:#dd8452;stroke:#333333;" x="76.008974" xlink:href="#m4852ad09f9" y="95.794286"/>
     <use style="fill:#dd8452;stroke:#333333;" x="254.983294" xlink:href="#m4852ad09f9" y="202.047891"/>
     <use style="fill:#dd8452;stroke:#333333;" x="256.764617" xlink:href="#m4852ad09f9" y="221.639624"/>
     <use style="fill:#dd8452;stroke:#333333;" x="98.12148" xlink:href="#m4852ad09f9" y="68.761109"/>
     <use style="fill:#dd8452;stroke:#333333;" x="74.298874" xlink:href="#m4852ad09f9" y="59.298428"/>
     <use style="fill:#dd8452;stroke:#333333;" x="226.53751" xlink:href="#m4852ad09f9" y="217.316445"/>
     <use style="fill:#dd8452;stroke:#333333;" x="91.818608" xlink:href="#m4852ad09f9" y="55.452429"/>
     <use style="fill:#dd8452;stroke:#333333;" x="85.221802" xlink:href="#m4852ad09f9" y="79.002646"/>
     <use style="fill:#dd8452;stroke:#333333;" x="232.277346" xlink:href="#m4852ad09f9" y="216.993492"/>
     <use style="fill:#dd8452;stroke:#333333;" x="223.915334" xlink:href="#m4852ad09f9" y="200.163282"/>
     <use style="fill:#dd8452;stroke:#333333;" x="232.202605" xlink:href="#m4852ad09f9" y="206.023161"/>
     <use style="fill:#dd8452;stroke:#333333;" x="101.367851" xlink:href="#m4852ad09f9" y="58.115056"/>
     <use style="fill:#dd8452;stroke:#333333;" x="88.822361" xlink:href="#m4852ad09f9" y="99.333377"/>
     <use style="fill:#dd8452;stroke:#333333;" x="212.410383" xlink:href="#m4852ad09f9" y="184.630853"/>
     <use style="fill:#dd8452;stroke:#333333;" x="223.116443" xlink:href="#m4852ad09f9" y="222.207523"/>
     <use style="fill:#dd8452;stroke:#333333;" x="93.79446" xlink:href="#m4852ad09f9" y="79.92432"/>
     <use style="fill:#dd8452;stroke:#333333;" x="114.191828" xlink:href="#m4852ad09f9" y="61.060124"/>
     <use style="fill:#dd8452;stroke:#333333;" x="80.3493" xlink:href="#m4852ad09f9" y="86.950465"/>
     <use style="fill:#dd8452;stroke:#333333;" x="246.854303" xlink:href="#m4852ad09f9" y="177.321424"/>
     <use style="fill:#dd8452;stroke:#333333;" x="214.055762" xlink:href="#m4852ad09f9" y="195.461505"/>
     <use style="fill:#dd8452;stroke:#333333;" x="83.523357" xlink:href="#m4852ad09f9" y="74.883449"/>
     <use style="fill:#dd8452;stroke:#333333;" x="225.42962" xlink:href="#m4852ad09f9" y="214.686297"/>
     <use style="fill:#dd8452;stroke:#333333;" x="230.416194" xlink:href="#m4852ad09f9" y="215.273334"/>
     <use style="fill:#dd8452;stroke:#333333;" x="84.565565" xlink:href="#m4852ad09f9" y="58.14358"/>
     <use style="fill:#dd8452;stroke:#333333;" x="69.740819" xlink:href="#m4852ad09f9" y="67.672791"/>
     <use style="fill:#dd8452;stroke:#333333;" x="237.451658" xlink:href="#m4852ad09f9" y="215.229589"/>
     <use style="fill:#dd8452;stroke:#333333;" x="242.796922" xlink:href="#m4852ad09f9" y="225.43105"/>
     <use style="fill:#dd8452;stroke:#333333;" x="224.590978" xlink:href="#m4852ad09f9" y="202.407556"/>
     <use style="fill:#dd8452;stroke:#333333;" x="80.563817" xlink:href="#m4852ad09f9" y="73.501568"/>
     <use style="fill:#dd8452;stroke:#333333;" x="100.844504" xlink:href="#m4852ad09f9" y="71.056167"/>
     <use style="fill:#dd8452;stroke:#333333;" x="235.009028" xlink:href="#m4852ad09f9" y="205.143506"/>
    </g>
   </g>
   <g id="patch_3">
    <path d="M 53.389062 239.229375 
L 53.389062 21.789375 
" style="fill:none;stroke:#ffffff;stroke-linecap:square;stroke-linejoin:miter;stroke-width:1.25;"/>
   </g>
   <g id="patch_4">
    <path d="M 276.589063 239.229375 
L 276.589063 21.789375 
" style="fill:none;stroke:#ffffff;stroke-linecap:square;stroke-linejoin:miter;stroke-width:1.25;"/>
   </g>
   <g id="patch_5">
    <path d="M 53.389062 239.229375 
L 276.589063 239.229375 
" style="fill:none;stroke:#ffffff;stroke-linecap:square;stroke-linejoin:miter;stroke-width:1.25;"/>
   </g>
   <g id="patch_6">
    <path d="M 53.389062 21.789375 
L 276.589063 21.789375 
" style="fill:none;stroke:#ffffff;stroke-linecap:square;stroke-linejoin:miter;stroke-width:1.25;"/>
   </g>
   <g id="text_14">
    <!-- Dataset samples -->
    <g style="fill:#262626;" transform="translate(120.305 15.789375)scale(0.12 -0.12)">
     <defs>
      <path d="M 7.71875 0 
L 7.71875 71.578125 
L 32.375 71.578125 
Q 40.71875 71.578125 45.125 70.5625 
Q 51.265625 69.140625 55.609375 65.4375 
Q 61.28125 60.640625 64.078125 53.1875 
Q 66.890625 45.75 66.890625 36.1875 
Q 66.890625 28.03125 64.984375 21.734375 
Q 63.09375 15.4375 60.109375 11.296875 
Q 57.125 7.171875 53.578125 4.796875 
Q 50.046875 2.4375 45.046875 1.21875 
Q 40.046875 0 33.546875 0 
z
M 17.1875 8.453125 
L 32.46875 8.453125 
Q 39.546875 8.453125 43.578125 9.765625 
Q 47.609375 11.078125 50 13.484375 
Q 53.375 16.84375 55.25 22.53125 
Q 57.125 28.21875 57.125 36.328125 
Q 57.125 47.5625 53.4375 53.59375 
Q 49.75 59.625 44.484375 61.671875 
Q 40.671875 63.140625 32.234375 63.140625 
L 17.1875 63.140625 
z
" id="ArialMT-68"/>
      <path d="M 40.4375 6.390625 
Q 35.546875 2.25 31.03125 0.53125 
Q 26.515625 -1.171875 21.34375 -1.171875 
Q 12.796875 -1.171875 8.203125 3 
Q 3.609375 7.171875 3.609375 13.671875 
Q 3.609375 17.484375 5.34375 20.625 
Q 7.078125 23.78125 9.890625 25.6875 
Q 12.703125 27.59375 16.21875 28.5625 
Q 18.796875 29.25 24.03125 29.890625 
Q 34.671875 31.15625 39.703125 32.90625 
Q 39.75 34.71875 39.75 35.203125 
Q 39.75 40.578125 37.25 42.78125 
Q 33.890625 45.75 27.25 45.75 
Q 21.046875 45.75 18.09375 43.578125 
Q 15.140625 41.40625 13.71875 35.890625 
L 5.125 37.0625 
Q 6.296875 42.578125 8.984375 45.96875 
Q 11.671875 49.359375 16.75 51.1875 
Q 21.828125 53.03125 28.515625 53.03125 
Q 35.15625 53.03125 39.296875 51.46875 
Q 43.453125 49.90625 45.40625 47.53125 
Q 47.359375 45.171875 48.140625 41.546875 
Q 48.578125 39.3125 48.578125 33.453125 
L 48.578125 21.734375 
Q 48.578125 9.46875 49.140625 6.21875 
Q 49.703125 2.984375 51.375 0 
L 42.1875 0 
Q 40.828125 2.734375 40.4375 6.390625 
z
M 39.703125 26.03125 
Q 34.90625 24.078125 25.34375 22.703125 
Q 19.921875 21.921875 17.671875 20.9375 
Q 15.4375 19.96875 14.203125 18.09375 
Q 12.984375 16.21875 12.984375 13.921875 
Q 12.984375 10.40625 15.640625 8.0625 
Q 18.3125 5.71875 23.4375 5.71875 
Q 28.515625 5.71875 32.46875 7.9375 
Q 36.421875 10.15625 38.28125 14.015625 
Q 39.703125 17 39.703125 22.796875 
z
" id="ArialMT-97"/>
      <path d="M 25.78125 7.859375 
L 27.046875 0.09375 
Q 23.34375 -0.6875 20.40625 -0.6875 
Q 15.625 -0.6875 12.984375 0.828125 
Q 10.359375 2.34375 9.28125 4.8125 
Q 8.203125 7.28125 8.203125 15.1875 
L 8.203125 45.015625 
L 1.765625 45.015625 
L 1.765625 51.859375 
L 8.203125 51.859375 
L 8.203125 64.703125 
L 16.9375 69.96875 
L 16.9375 51.859375 
L 25.78125 51.859375 
L 25.78125 45.015625 
L 16.9375 45.015625 
L 16.9375 14.703125 
Q 16.9375 10.9375 17.40625 9.859375 
Q 17.875 8.796875 18.921875 8.15625 
Q 19.96875 7.515625 21.921875 7.515625 
Q 23.390625 7.515625 25.78125 7.859375 
z
" id="ArialMT-116"/>
      <path d="M 3.078125 15.484375 
L 11.765625 16.84375 
Q 12.5 11.625 15.84375 8.84375 
Q 19.1875 6.0625 25.203125 6.0625 
Q 31.25 6.0625 34.171875 8.515625 
Q 37.109375 10.984375 37.109375 14.3125 
Q 37.109375 17.28125 34.515625 19 
Q 32.71875 20.171875 25.53125 21.96875 
Q 15.875 24.421875 12.140625 26.203125 
Q 8.40625 27.984375 6.46875 31.125 
Q 4.546875 34.28125 4.546875 38.09375 
Q 4.546875 41.546875 6.125 44.5 
Q 7.71875 47.46875 10.453125 49.421875 
Q 12.5 50.921875 16.03125 51.96875 
Q 19.578125 53.03125 23.640625 53.03125 
Q 29.734375 53.03125 34.34375 51.265625 
Q 38.96875 49.515625 41.15625 46.5 
Q 43.359375 43.5 44.1875 38.484375 
L 35.59375 37.3125 
Q 35.015625 41.3125 32.203125 43.546875 
Q 29.390625 45.796875 24.265625 45.796875 
Q 18.21875 45.796875 15.625 43.796875 
Q 13.03125 41.796875 13.03125 39.109375 
Q 13.03125 37.40625 14.109375 36.03125 
Q 15.1875 34.625 17.484375 33.6875 
Q 18.796875 33.203125 25.25 31.453125 
Q 34.578125 28.953125 38.25 27.359375 
Q 41.9375 25.78125 44.03125 22.75 
Q 46.140625 19.734375 46.140625 15.234375 
Q 46.140625 10.84375 43.578125 6.953125 
Q 41.015625 3.078125 36.171875 0.953125 
Q 31.34375 -1.171875 25.25 -1.171875 
Q 15.140625 -1.171875 9.84375 3.03125 
Q 4.546875 7.234375 3.078125 15.484375 
z
" id="ArialMT-115"/>
      <path d="M 42.09375 16.703125 
L 51.171875 15.578125 
Q 49.03125 7.625 43.21875 3.21875 
Q 37.40625 -1.171875 28.375 -1.171875 
Q 17 -1.171875 10.328125 5.828125 
Q 3.65625 12.84375 3.65625 25.484375 
Q 3.65625 38.578125 10.390625 45.796875 
Q 17.140625 53.03125 27.875 53.03125 
Q 38.28125 53.03125 44.875 45.953125 
Q 51.46875 38.875 51.46875 26.03125 
Q 51.46875 25.25 51.421875 23.6875 
L 12.75 23.6875 
Q 13.234375 15.140625 17.578125 10.59375 
Q 21.921875 6.0625 28.421875 6.0625 
Q 33.25 6.0625 36.671875 8.59375 
Q 40.09375 11.140625 42.09375 16.703125 
z
M 13.234375 30.90625 
L 42.1875 30.90625 
Q 41.609375 37.453125 38.875 40.71875 
Q 34.671875 45.796875 27.984375 45.796875 
Q 21.921875 45.796875 17.796875 41.75 
Q 13.671875 37.703125 13.234375 30.90625 
z
" id="ArialMT-101"/>
      <path id="ArialMT-32"/>
      <path d="M 6.59375 0 
L 6.59375 51.859375 
L 14.453125 51.859375 
L 14.453125 44.578125 
Q 16.890625 48.390625 20.9375 50.703125 
Q 25 53.03125 30.171875 53.03125 
Q 35.9375 53.03125 39.625 50.640625 
Q 43.3125 48.25 44.828125 43.953125 
Q 50.984375 53.03125 60.84375 53.03125 
Q 68.5625 53.03125 72.703125 48.75 
Q 76.859375 44.484375 76.859375 35.59375 
L 76.859375 0 
L 68.109375 0 
L 68.109375 32.671875 
Q 68.109375 37.9375 67.25 40.25 
Q 66.40625 42.578125 64.15625 43.984375 
Q 61.921875 45.40625 58.890625 45.40625 
Q 53.421875 45.40625 49.796875 41.765625 
Q 46.1875 38.140625 46.1875 30.125 
L 46.1875 0 
L 37.40625 0 
L 37.40625 33.6875 
Q 37.40625 39.546875 35.25 42.46875 
Q 33.109375 45.40625 28.21875 45.40625 
Q 24.515625 45.40625 21.359375 43.453125 
Q 18.21875 41.5 16.796875 37.734375 
Q 15.375 33.984375 15.375 26.90625 
L 15.375 0 
z
" id="ArialMT-109"/>
      <path d="M 6.59375 -19.875 
L 6.59375 51.859375 
L 14.59375 51.859375 
L 14.59375 45.125 
Q 17.4375 49.078125 21 51.046875 
Q 24.5625 53.03125 29.640625 53.03125 
Q 36.28125 53.03125 41.359375 49.609375 
Q 46.4375 46.1875 49.015625 39.953125 
Q 51.609375 33.734375 51.609375 26.3125 
Q 51.609375 18.359375 48.75 11.984375 
Q 45.90625 5.609375 40.453125 2.21875 
Q 35.015625 -1.171875 29 -1.171875 
Q 24.609375 -1.171875 21.109375 0.6875 
Q 17.625 2.546875 15.375 5.375 
L 15.375 -19.875 
z
M 14.546875 25.640625 
Q 14.546875 15.625 18.59375 10.84375 
Q 22.65625 6.0625 28.421875 6.0625 
Q 34.28125 6.0625 38.453125 11.015625 
Q 42.625 15.96875 42.625 26.375 
Q 42.625 36.28125 38.546875 41.203125 
Q 34.46875 46.140625 28.8125 46.140625 
Q 23.1875 46.140625 18.859375 40.890625 
Q 14.546875 35.640625 14.546875 25.640625 
z
" id="ArialMT-112"/>
      <path d="M 6.390625 0 
L 6.390625 71.578125 
L 15.1875 71.578125 
L 15.1875 0 
z
" id="ArialMT-108"/>
     </defs>
     <use xlink:href="#ArialMT-68"/>
     <use x="72.216797" xlink:href="#ArialMT-97"/>
     <use x="127.832031" xlink:href="#ArialMT-116"/>
     <use x="155.615234" xlink:href="#ArialMT-97"/>
     <use x="211.230469" xlink:href="#ArialMT-115"/>
     <use x="261.230469" xlink:href="#ArialMT-101"/>
     <use x="316.845703" xlink:href="#ArialMT-116"/>
     <use x="344.628906" xlink:href="#ArialMT-32"/>
     <use x="372.412109" xlink:href="#ArialMT-115"/>
     <use x="422.412109" xlink:href="#ArialMT-97"/>
     <use x="478.027344" xlink:href="#ArialMT-109"/>
     <use x="561.328125" xlink:href="#ArialMT-112"/>
     <use x="616.943359" xlink:href="#ArialMT-108"/>
     <use x="639.160156" xlink:href="#ArialMT-101"/>
     <use x="694.775391" xlink:href="#ArialMT-115"/>
    </g>
   </g>
   <g id="legend_1">
    <g id="patch_7">
     <path d="M 197.010937 147.719219 
L 268.889063 147.719219 
Q 271.089063 147.719219 271.089063 145.519219 
L 271.089063 115.499531 
Q 271.089063 113.299531 268.889063 113.299531 
L 197.010937 113.299531 
Q 194.810937 113.299531 194.810937 115.499531 
L 194.810937 145.519219 
Q 194.810937 147.719219 197.010937 147.719219 
z
" style="fill:#eaeaf2;opacity:0.8;stroke:#cccccc;stroke-linejoin:miter;"/>
    </g>
    <g id="PathCollection_3">
     <g>
      <use style="fill:#4c72b0;stroke:#333333;" x="210.210938" xlink:href="#mc2b0d7391d" y="122.685625"/>
     </g>
    </g>
    <g id="text_15">
     <!-- Class 0 -->
     <g style="fill:#262626;" transform="translate(230.010938 125.573125)scale(0.11 -0.11)">
      <defs>
       <path d="M 58.796875 25.09375 
L 68.265625 22.703125 
Q 65.28125 11.03125 57.546875 4.90625 
Q 49.8125 -1.21875 38.625 -1.21875 
Q 27.046875 -1.21875 19.796875 3.484375 
Q 12.546875 8.203125 8.765625 17.140625 
Q 4.984375 26.078125 4.984375 36.328125 
Q 4.984375 47.515625 9.25 55.828125 
Q 13.53125 64.15625 21.40625 68.46875 
Q 29.296875 72.796875 38.765625 72.796875 
Q 49.515625 72.796875 56.828125 67.328125 
Q 64.15625 61.859375 67.046875 51.953125 
L 57.71875 49.75 
Q 55.21875 57.5625 50.484375 61.125 
Q 45.75 64.703125 38.578125 64.703125 
Q 30.328125 64.703125 24.78125 60.734375 
Q 19.234375 56.78125 16.984375 50.109375 
Q 14.75 43.453125 14.75 36.375 
Q 14.75 27.25 17.40625 20.4375 
Q 20.0625 13.625 25.671875 10.25 
Q 31.296875 6.890625 37.84375 6.890625 
Q 45.796875 6.890625 51.3125 11.46875 
Q 56.84375 16.0625 58.796875 25.09375 
z
" id="ArialMT-67"/>
      </defs>
      <use xlink:href="#ArialMT-67"/>
      <use x="72.216797" xlink:href="#ArialMT-108"/>
      <use x="94.433594" xlink:href="#ArialMT-97"/>
      <use x="150.048828" xlink:href="#ArialMT-115"/>
      <use x="200.048828" xlink:href="#ArialMT-115"/>
      <use x="250.048828" xlink:href="#ArialMT-32"/>
      <use x="277.832031" xlink:href="#ArialMT-48"/>
     </g>
    </g>
    <g id="PathCollection_4">
     <g>
      <use style="fill:#dd8452;stroke:#333333;" x="210.210938" xlink:href="#m4852ad09f9" y="138.245469"/>
     </g>
    </g>
    <g id="text_16">
     <!-- Class 1 -->
     <g style="fill:#262626;" transform="translate(230.010938 141.132969)scale(0.11 -0.11)">
      <use xlink:href="#ArialMT-67"/>
      <use x="72.216797" xlink:href="#ArialMT-108"/>
      <use x="94.433594" xlink:href="#ArialMT-97"/>
      <use x="150.048828" xlink:href="#ArialMT-115"/>
      <use x="200.048828" xlink:href="#ArialMT-115"/>
      <use x="250.048828" xlink:href="#ArialMT-32"/>
      <use x="277.832031" xlink:href="#ArialMT-49"/>
     </g>
    </g>
   </g>
  </g>
 </g>
 <defs>
  <clipPath id="pd34a6e5a8d">
   <rect height="217.44" width="223.2" x="53.389062" y="21.789375"/>
  </clipPath>
 </defs>
</svg>
