<?xml version="1.0" encoding="utf-8" standalone="no"?>
<!DOCTYPE svg PUBLIC "-//W3C//DTD SVG 1.1//EN"
  "http://www.w3.org/Graphics/SVG/1.1/DTD/svg11.dtd">
<!-- Created with matplotlib (https://matplotlib.org/) -->
<svg height="252.275446pt" version="1.1" viewBox="0 0 380.48 252.275446" width="380.48pt" xmlns="http://www.w3.org/2000/svg" xmlns:xlink="http://www.w3.org/1999/xlink">
 <metadata>
  <rdf:RDF xmlns:cc="http://creativecommons.org/ns#" xmlns:dc="http://purl.org/dc/elements/1.1/" xmlns:rdf="http://www.w3.org/1999/02/22-rdf-syntax-ns#">
   <cc:Work>
    <dc:type rdf:resource="http://purl.org/dc/dcmitype/StillImage"/>
    <dc:date>2022-08-30T12:48:04.831867</dc:date>
    <dc:format>image/svg+xml</dc:format>
    <dc:creator>
     <cc:Agent>
      <dc:title>Matplotlib v3.3.2, https://matplotlib.org/</dc:title>
     </cc:Agent>
    </dc:creator>
   </cc:Work>
  </rdf:RDF>
 </metadata>
 <defs>
  <style type="text/css">*{stroke-linecap:butt;stroke-linejoin:round;}</style>
 </defs>
 <g id="figure_1">
  <g id="patch_1">
   <path d="M 0 252.275446 
L 380.48 252.275446 
L 380.48 0 
L 0 0 
z
" style="fill:#ffffff;"/>
  </g>
  <g id="axes_1">
   <g id="patch_2">
    <path d="M 38.48 225.515602 
L 373.28 225.515602 
L 373.28 8.075602 
L 38.48 8.075602 
z
" style="fill:#eaeaf2;"/>
   </g>
   <g id="matplotlib.axis_1">
    <g id="xtick_1">
     <g id="line2d_1">
      <path clip-path="url(#pdb5f222355)" d="M 54.292642 225.515602 
L 54.292642 8.075602 
" style="fill:none;stroke:#ffffff;stroke-linecap:round;"/>
     </g>
     <g id="text_1">
      <!-- 0 -->
      <g style="fill:#262626;" transform="translate(51.234126 242.889196)scale(0.11 -0.11)">
       <defs>
        <path d="M 4.15625 35.296875 
Q 4.15625 48 6.765625 55.734375 
Q 9.375 63.484375 14.515625 67.671875 
Q 19.671875 71.875 27.484375 71.875 
Q 33.25 71.875 37.59375 69.546875 
Q 41.9375 67.234375 44.765625 62.859375 
Q 47.609375 58.5 49.21875 52.21875 
Q 50.828125 45.953125 50.828125 35.296875 
Q 50.828125 22.703125 48.234375 14.96875 
Q 45.65625 7.234375 40.5 3 
Q 35.359375 -1.21875 27.484375 -1.21875 
Q 17.140625 -1.21875 11.234375 6.203125 
Q 4.15625 15.140625 4.15625 35.296875 
z
M 13.1875 35.296875 
Q 13.1875 17.671875 17.3125 11.828125 
Q 21.4375 6 27.484375 6 
Q 33.546875 6 37.671875 11.859375 
Q 41.796875 17.71875 41.796875 35.296875 
Q 41.796875 52.984375 37.671875 58.78125 
Q 33.546875 64.59375 27.390625 64.59375 
Q 21.34375 64.59375 17.71875 59.46875 
Q 13.1875 52.9375 13.1875 35.296875 
z
" id="ArialMT-48"/>
       </defs>
       <use xlink:href="#ArialMT-48"/>
      </g>
     </g>
    </g>
    <g id="xtick_2">
     <g id="line2d_2">
      <path clip-path="url(#pdb5f222355)" d="M 130.383551 225.515602 
L 130.383551 8.075602 
" style="fill:none;stroke:#ffffff;stroke-linecap:round;"/>
     </g>
     <g id="text_2">
      <!-- 64 -->
      <g style="fill:#262626;" transform="translate(124.26652 242.889196)scale(0.11 -0.11)">
       <defs>
        <path d="M 49.75 54.046875 
L 41.015625 53.375 
Q 39.84375 58.546875 37.703125 60.890625 
Q 34.125 64.65625 28.90625 64.65625 
Q 24.703125 64.65625 21.53125 62.3125 
Q 17.390625 59.28125 14.984375 53.46875 
Q 12.59375 47.65625 12.5 36.921875 
Q 15.671875 41.75 20.265625 44.09375 
Q 24.859375 46.4375 29.890625 46.4375 
Q 38.671875 46.4375 44.84375 39.96875 
Q 51.03125 33.5 51.03125 23.25 
Q 51.03125 16.5 48.125 10.71875 
Q 45.21875 4.9375 40.140625 1.859375 
Q 35.0625 -1.21875 28.609375 -1.21875 
Q 17.625 -1.21875 10.6875 6.859375 
Q 3.765625 14.9375 3.765625 33.5 
Q 3.765625 54.25 11.421875 63.671875 
Q 18.109375 71.875 29.4375 71.875 
Q 37.890625 71.875 43.28125 67.140625 
Q 48.6875 62.40625 49.75 54.046875 
z
M 13.875 23.1875 
Q 13.875 18.65625 15.796875 14.5 
Q 17.71875 10.359375 21.1875 8.171875 
Q 24.65625 6 28.46875 6 
Q 34.03125 6 38.03125 10.484375 
Q 42.046875 14.984375 42.046875 22.703125 
Q 42.046875 30.125 38.078125 34.390625 
Q 34.125 38.671875 28.125 38.671875 
Q 22.171875 38.671875 18.015625 34.390625 
Q 13.875 30.125 13.875 23.1875 
z
" id="ArialMT-54"/>
        <path d="M 32.328125 0 
L 32.328125 17.140625 
L 1.265625 17.140625 
L 1.265625 25.203125 
L 33.9375 71.578125 
L 41.109375 71.578125 
L 41.109375 25.203125 
L 50.78125 25.203125 
L 50.78125 17.140625 
L 41.109375 17.140625 
L 41.109375 0 
z
M 32.328125 25.203125 
L 32.328125 57.46875 
L 9.90625 25.203125 
z
" id="ArialMT-52"/>
       </defs>
       <use xlink:href="#ArialMT-54"/>
       <use x="55.615234" xlink:href="#ArialMT-52"/>
      </g>
     </g>
    </g>
    <g id="xtick_3">
     <g id="line2d_3">
      <path clip-path="url(#pdb5f222355)" d="M 206.47446 225.515602 
L 206.47446 8.075602 
" style="fill:none;stroke:#ffffff;stroke-linecap:round;"/>
     </g>
     <g id="text_3">
      <!-- 128 -->
      <g style="fill:#262626;" transform="translate(197.298913 242.889196)scale(0.11 -0.11)">
       <defs>
        <path d="M 37.25 0 
L 28.46875 0 
L 28.46875 56 
Q 25.296875 52.984375 20.140625 49.953125 
Q 14.984375 46.921875 10.890625 45.40625 
L 10.890625 53.90625 
Q 18.265625 57.375 23.78125 62.296875 
Q 29.296875 67.234375 31.59375 71.875 
L 37.25 71.875 
z
" id="ArialMT-49"/>
        <path d="M 50.34375 8.453125 
L 50.34375 0 
L 3.03125 0 
Q 2.9375 3.171875 4.046875 6.109375 
Q 5.859375 10.9375 9.828125 15.625 
Q 13.8125 20.3125 21.34375 26.46875 
Q 33.015625 36.03125 37.109375 41.625 
Q 41.21875 47.21875 41.21875 52.203125 
Q 41.21875 57.421875 37.46875 61 
Q 33.734375 64.59375 27.734375 64.59375 
Q 21.390625 64.59375 17.578125 60.78125 
Q 13.765625 56.984375 13.71875 50.25 
L 4.6875 51.171875 
Q 5.609375 61.28125 11.65625 66.578125 
Q 17.71875 71.875 27.9375 71.875 
Q 38.234375 71.875 44.234375 66.15625 
Q 50.25 60.453125 50.25 52 
Q 50.25 47.703125 48.484375 43.546875 
Q 46.734375 39.40625 42.65625 34.8125 
Q 38.578125 30.21875 29.109375 22.21875 
Q 21.1875 15.578125 18.9375 13.203125 
Q 16.703125 10.84375 15.234375 8.453125 
z
" id="ArialMT-50"/>
        <path d="M 17.671875 38.8125 
Q 12.203125 40.828125 9.5625 44.53125 
Q 6.9375 48.25 6.9375 53.421875 
Q 6.9375 61.234375 12.546875 66.546875 
Q 18.171875 71.875 27.484375 71.875 
Q 36.859375 71.875 42.578125 66.421875 
Q 48.296875 60.984375 48.296875 53.171875 
Q 48.296875 48.1875 45.671875 44.5 
Q 43.0625 40.828125 37.75 38.8125 
Q 44.34375 36.671875 47.78125 31.875 
Q 51.21875 27.09375 51.21875 20.453125 
Q 51.21875 11.28125 44.71875 5.03125 
Q 38.234375 -1.21875 27.640625 -1.21875 
Q 17.046875 -1.21875 10.546875 5.046875 
Q 4.046875 11.328125 4.046875 20.703125 
Q 4.046875 27.6875 7.59375 32.390625 
Q 11.140625 37.109375 17.671875 38.8125 
z
M 15.921875 53.71875 
Q 15.921875 48.640625 19.1875 45.40625 
Q 22.46875 42.1875 27.6875 42.1875 
Q 32.765625 42.1875 36.015625 45.375 
Q 39.265625 48.578125 39.265625 53.21875 
Q 39.265625 58.0625 35.90625 61.359375 
Q 32.5625 64.65625 27.59375 64.65625 
Q 22.5625 64.65625 19.234375 61.421875 
Q 15.921875 58.203125 15.921875 53.71875 
z
M 13.09375 20.65625 
Q 13.09375 16.890625 14.875 13.375 
Q 16.65625 9.859375 20.171875 7.921875 
Q 23.6875 6 27.734375 6 
Q 34.03125 6 38.125 10.046875 
Q 42.234375 14.109375 42.234375 20.359375 
Q 42.234375 26.703125 38.015625 30.859375 
Q 33.796875 35.015625 27.4375 35.015625 
Q 21.234375 35.015625 17.15625 30.90625 
Q 13.09375 26.8125 13.09375 20.65625 
z
" id="ArialMT-56"/>
       </defs>
       <use xlink:href="#ArialMT-49"/>
       <use x="55.615234" xlink:href="#ArialMT-50"/>
       <use x="111.230469" xlink:href="#ArialMT-56"/>
      </g>
     </g>
    </g>
    <g id="xtick_4">
     <g id="line2d_4">
      <path clip-path="url(#pdb5f222355)" d="M 282.565369 225.515602 
L 282.565369 8.075602 
" style="fill:none;stroke:#ffffff;stroke-linecap:round;"/>
     </g>
     <g id="text_4">
      <!-- 192 -->
      <g style="fill:#262626;" transform="translate(273.389822 242.889196)scale(0.11 -0.11)">
       <defs>
        <path d="M 5.46875 16.546875 
L 13.921875 17.328125 
Q 14.984375 11.375 18.015625 8.6875 
Q 21.046875 6 25.78125 6 
Q 29.828125 6 32.875 7.859375 
Q 35.9375 9.71875 37.890625 12.8125 
Q 39.84375 15.921875 41.15625 21.1875 
Q 42.484375 26.46875 42.484375 31.9375 
Q 42.484375 32.515625 42.4375 33.6875 
Q 39.796875 29.5 35.234375 26.875 
Q 30.671875 24.265625 25.34375 24.265625 
Q 16.453125 24.265625 10.296875 30.703125 
Q 4.15625 37.15625 4.15625 47.703125 
Q 4.15625 58.59375 10.578125 65.234375 
Q 17 71.875 26.65625 71.875 
Q 33.640625 71.875 39.421875 68.109375 
Q 45.21875 64.359375 48.21875 57.390625 
Q 51.21875 50.4375 51.21875 37.25 
Q 51.21875 23.53125 48.234375 15.40625 
Q 45.265625 7.28125 39.375 3.03125 
Q 33.5 -1.21875 25.59375 -1.21875 
Q 17.1875 -1.21875 11.859375 3.4375 
Q 6.546875 8.109375 5.46875 16.546875 
z
M 41.453125 48.140625 
Q 41.453125 55.71875 37.421875 60.15625 
Q 33.40625 64.59375 27.734375 64.59375 
Q 21.875 64.59375 17.53125 59.8125 
Q 13.1875 55.03125 13.1875 47.40625 
Q 13.1875 40.578125 17.3125 36.296875 
Q 21.4375 32.03125 27.484375 32.03125 
Q 33.59375 32.03125 37.515625 36.296875 
Q 41.453125 40.578125 41.453125 48.140625 
z
" id="ArialMT-57"/>
       </defs>
       <use xlink:href="#ArialMT-49"/>
       <use x="55.615234" xlink:href="#ArialMT-57"/>
       <use x="111.230469" xlink:href="#ArialMT-50"/>
      </g>
     </g>
    </g>
    <g id="xtick_5">
     <g id="line2d_5">
      <path clip-path="url(#pdb5f222355)" d="M 358.656278 225.515602 
L 358.656278 8.075602 
" style="fill:none;stroke:#ffffff;stroke-linecap:round;"/>
     </g>
     <g id="text_5">
      <!-- 256 -->
      <g style="fill:#262626;" transform="translate(349.480732 242.889196)scale(0.11 -0.11)">
       <defs>
        <path d="M 4.15625 18.75 
L 13.375 19.53125 
Q 14.40625 12.796875 18.140625 9.390625 
Q 21.875 6 27.15625 6 
Q 33.5 6 37.890625 10.78125 
Q 42.28125 15.578125 42.28125 23.484375 
Q 42.28125 31 38.0625 35.34375 
Q 33.84375 39.703125 27 39.703125 
Q 22.75 39.703125 19.328125 37.765625 
Q 15.921875 35.84375 13.96875 32.765625 
L 5.71875 33.84375 
L 12.640625 70.609375 
L 48.25 70.609375 
L 48.25 62.203125 
L 19.671875 62.203125 
L 15.828125 42.96875 
Q 22.265625 47.46875 29.34375 47.46875 
Q 38.71875 47.46875 45.15625 40.96875 
Q 51.609375 34.46875 51.609375 24.265625 
Q 51.609375 14.546875 45.953125 7.46875 
Q 39.0625 -1.21875 27.15625 -1.21875 
Q 17.390625 -1.21875 11.203125 4.25 
Q 5.03125 9.71875 4.15625 18.75 
z
" id="ArialMT-53"/>
       </defs>
       <use xlink:href="#ArialMT-50"/>
       <use x="55.615234" xlink:href="#ArialMT-53"/>
       <use x="111.230469" xlink:href="#ArialMT-54"/>
      </g>
     </g>
    </g>
   </g>
   <g id="matplotlib.axis_2">
    <g id="ytick_1">
     <g id="line2d_6">
      <path clip-path="url(#pdb5f222355)" d="M 38.48 181.277419 
L 373.28 181.277419 
" style="fill:none;stroke:#ffffff;stroke-linecap:round;"/>
     </g>
     <g id="text_6">
      <!-- $\mathdefault{10^{-3}}$ -->
      <g style="fill:#262626;" transform="translate(7.2 186.949294)scale(0.11 -0.11)">
       <defs>
        <path d="M 52.828125 31.203125 
L 5.5625 31.203125 
L 5.5625 39.40625 
L 52.828125 39.40625 
z
" id="ArialMT-8722"/>
        <path d="M 4.203125 18.890625 
L 12.984375 20.0625 
Q 14.5 12.59375 18.140625 9.296875 
Q 21.78125 6 27 6 
Q 33.203125 6 37.46875 10.296875 
Q 41.75 14.59375 41.75 20.953125 
Q 41.75 27 37.796875 30.921875 
Q 33.84375 34.859375 27.734375 34.859375 
Q 25.25 34.859375 21.53125 33.890625 
L 22.515625 41.609375 
Q 23.390625 41.5 23.921875 41.5 
Q 29.546875 41.5 34.03125 44.421875 
Q 38.53125 47.359375 38.53125 53.46875 
Q 38.53125 58.296875 35.25 61.46875 
Q 31.984375 64.65625 26.8125 64.65625 
Q 21.6875 64.65625 18.265625 61.421875 
Q 14.84375 58.203125 13.875 51.765625 
L 5.078125 53.328125 
Q 6.6875 62.15625 12.390625 67.015625 
Q 18.109375 71.875 26.609375 71.875 
Q 32.46875 71.875 37.390625 69.359375 
Q 42.328125 66.84375 44.9375 62.5 
Q 47.5625 58.15625 47.5625 53.265625 
Q 47.5625 48.640625 45.0625 44.828125 
Q 42.578125 41.015625 37.703125 38.765625 
Q 44.046875 37.3125 47.5625 32.6875 
Q 51.078125 28.078125 51.078125 21.140625 
Q 51.078125 11.765625 44.234375 5.25 
Q 37.40625 -1.265625 26.953125 -1.265625 
Q 17.53125 -1.265625 11.296875 4.34375 
Q 5.078125 9.96875 4.203125 18.890625 
z
" id="ArialMT-51"/>
       </defs>
       <use transform="translate(0 0.99375)" xlink:href="#ArialMT-49"/>
       <use transform="translate(55.615234 0.99375)" xlink:href="#ArialMT-48"/>
       <use transform="translate(112.972813 70.6875)scale(0.7)" xlink:href="#ArialMT-8722"/>
       <use transform="translate(153.851719 70.6875)scale(0.7)" xlink:href="#ArialMT-51"/>
      </g>
     </g>
    </g>
    <g id="ytick_2">
     <g id="line2d_7">
      <path clip-path="url(#pdb5f222355)" d="M 38.48 125.142238 
L 373.28 125.142238 
" style="fill:none;stroke:#ffffff;stroke-linecap:round;"/>
     </g>
     <g id="text_7">
      <!-- $\mathdefault{10^{-2}}$ -->
      <g style="fill:#262626;" transform="translate(7.2 130.814113)scale(0.11 -0.11)">
       <use transform="translate(0 0.99375)" xlink:href="#ArialMT-49"/>
       <use transform="translate(55.615234 0.99375)" xlink:href="#ArialMT-48"/>
       <use transform="translate(112.972813 70.6875)scale(0.7)" xlink:href="#ArialMT-8722"/>
       <use transform="translate(153.851719 70.6875)scale(0.7)" xlink:href="#ArialMT-50"/>
      </g>
     </g>
    </g>
    <g id="ytick_3">
     <g id="line2d_8">
      <path clip-path="url(#pdb5f222355)" d="M 38.48 69.007056 
L 373.28 69.007056 
" style="fill:none;stroke:#ffffff;stroke-linecap:round;"/>
     </g>
     <g id="text_8">
      <!-- $\mathdefault{10^{-1}}$ -->
      <g style="fill:#262626;" transform="translate(7.2 74.678931)scale(0.11 -0.11)">
       <use transform="translate(0 0.99375)" xlink:href="#ArialMT-49"/>
       <use transform="translate(55.615234 0.99375)" xlink:href="#ArialMT-48"/>
       <use transform="translate(112.972813 70.6875)scale(0.7)" xlink:href="#ArialMT-8722"/>
       <use transform="translate(153.851719 70.6875)scale(0.7)" xlink:href="#ArialMT-49"/>
      </g>
     </g>
    </g>
    <g id="ytick_4">
     <g id="line2d_9">
      <path clip-path="url(#pdb5f222355)" d="M 38.48 12.871875 
L 373.28 12.871875 
" style="fill:none;stroke:#ffffff;stroke-linecap:round;"/>
     </g>
     <g id="text_9">
      <!-- $\mathdefault{10^{0}}$ -->
      <g style="fill:#262626;" transform="translate(11.71 18.54375)scale(0.11 -0.11)">
       <use transform="translate(0 0.99375)" xlink:href="#ArialMT-49"/>
       <use transform="translate(55.615234 0.99375)" xlink:href="#ArialMT-48"/>
       <use transform="translate(112.972813 70.6875)scale(0.7)" xlink:href="#ArialMT-48"/>
      </g>
     </g>
    </g>
    <g id="ytick_5"/>
    <g id="ytick_6"/>
    <g id="ytick_7"/>
    <g id="ytick_8"/>
    <g id="ytick_9"/>
    <g id="ytick_10"/>
    <g id="ytick_11"/>
    <g id="ytick_12"/>
    <g id="ytick_13"/>
    <g id="ytick_14"/>
    <g id="ytick_15"/>
    <g id="ytick_16"/>
    <g id="ytick_17"/>
    <g id="ytick_18"/>
    <g id="ytick_19"/>
    <g id="ytick_20"/>
    <g id="ytick_21"/>
    <g id="ytick_22"/>
    <g id="ytick_23"/>
    <g id="ytick_24"/>
    <g id="ytick_25"/>
    <g id="ytick_26"/>
    <g id="ytick_27"/>
    <g id="ytick_28"/>
    <g id="ytick_29"/>
    <g id="ytick_30"/>
    <g id="ytick_31"/>
    <g id="ytick_32"/>
    <g id="ytick_33"/>
    <g id="ytick_34"/>
    <g id="ytick_35"/>
    <g id="ytick_36"/>
   </g>
   <g id="patch_3">
    <path clip-path="url(#pdb5f222355)" d="M 53.698182 56148.053323 
L 54.887102 56148.053323 
L 54.887102 17.959239 
L 53.698182 17.959239 
z
" style="fill:#4c72b0;fill-opacity:0.5;stroke:#4c72b0;stroke-linejoin:miter;stroke-width:0.5;"/>
   </g>
   <g id="patch_4">
    <path clip-path="url(#pdb5f222355)" d="M 54.887102 56148.053323 
L 56.076023 56148.053323 
L 56.076023 199.740437 
L 54.887102 199.740437 
z
" style="fill:#4c72b0;fill-opacity:0.5;stroke:#4c72b0;stroke-linejoin:miter;stroke-width:0.5;"/>
   </g>
   <g id="patch_5">
    <path clip-path="url(#pdb5f222355)" d="M 56.076023 56148.053323 
L 57.264943 56148.053323 
L 57.264943 190.776733 
L 56.076023 190.776733 
z
" style="fill:#4c72b0;fill-opacity:0.5;stroke:#4c72b0;stroke-linejoin:miter;stroke-width:0.5;"/>
   </g>
   <g id="patch_6">
    <path clip-path="url(#pdb5f222355)" d="M 57.264943 56148.053323 
L 58.453864 56148.053323 
L 58.453864 188.756188 
L 57.264943 188.756188 
z
" style="fill:#4c72b0;fill-opacity:0.5;stroke:#4c72b0;stroke-linejoin:miter;stroke-width:0.5;"/>
   </g>
   <g id="patch_7">
    <path clip-path="url(#pdb5f222355)" d="M 58.453864 56148.053323 
L 59.642784 56148.053323 
L 59.642784 185.999217 
L 58.453864 185.999217 
z
" style="fill:#4c72b0;fill-opacity:0.5;stroke:#4c72b0;stroke-linejoin:miter;stroke-width:0.5;"/>
   </g>
   <g id="patch_8">
    <path clip-path="url(#pdb5f222355)" d="M 59.642784 56148.053323 
L 60.831705 56148.053323 
L 60.831705 188.021674 
L 59.642784 188.021674 
z
" style="fill:#4c72b0;fill-opacity:0.5;stroke:#4c72b0;stroke-linejoin:miter;stroke-width:0.5;"/>
   </g>
   <g id="patch_9">
    <path clip-path="url(#pdb5f222355)" d="M 60.831705 56148.053323 
L 62.020625 56148.053323 
L 62.020625 186.89018 
L 60.831705 186.89018 
z
" style="fill:#4c72b0;fill-opacity:0.5;stroke:#4c72b0;stroke-linejoin:miter;stroke-width:0.5;"/>
   </g>
   <g id="patch_10">
    <path clip-path="url(#pdb5f222355)" d="M 62.020625 56148.053323 
L 63.209545 56148.053323 
L 63.209545 187.899439 
L 62.020625 187.899439 
z
" style="fill:#4c72b0;fill-opacity:0.5;stroke:#4c72b0;stroke-linejoin:miter;stroke-width:0.5;"/>
   </g>
   <g id="patch_11">
    <path clip-path="url(#pdb5f222355)" d="M 63.209545 56148.053323 
L 64.398466 56148.053323 
L 64.398466 194.122206 
L 63.209545 194.122206 
z
" style="fill:#4c72b0;fill-opacity:0.5;stroke:#4c72b0;stroke-linejoin:miter;stroke-width:0.5;"/>
   </g>
   <g id="patch_12">
    <path clip-path="url(#pdb5f222355)" d="M 64.398466 56148.053323 
L 65.587386 56148.053323 
L 65.587386 187.804416 
L 64.398466 187.804416 
z
" style="fill:#4c72b0;fill-opacity:0.5;stroke:#4c72b0;stroke-linejoin:miter;stroke-width:0.5;"/>
   </g>
   <g id="patch_13">
    <path clip-path="url(#pdb5f222355)" d="M 65.587386 56148.053323 
L 66.776307 56148.053323 
L 66.776307 186.608778 
L 65.587386 186.608778 
z
" style="fill:#4c72b0;fill-opacity:0.5;stroke:#4c72b0;stroke-linejoin:miter;stroke-width:0.5;"/>
   </g>
   <g id="patch_14">
    <path clip-path="url(#pdb5f222355)" d="M 66.776307 56148.053323 
L 67.965227 56148.053323 
L 67.965227 189.674265 
L 66.776307 189.674265 
z
" style="fill:#4c72b0;fill-opacity:0.5;stroke:#4c72b0;stroke-linejoin:miter;stroke-width:0.5;"/>
   </g>
   <g id="patch_15">
    <path clip-path="url(#pdb5f222355)" d="M 67.965227 56148.053323 
L 69.154148 56148.053323 
L 69.154148 195.028528 
L 67.965227 195.028528 
z
" style="fill:#4c72b0;fill-opacity:0.5;stroke:#4c72b0;stroke-linejoin:miter;stroke-width:0.5;"/>
   </g>
   <g id="patch_16">
    <path clip-path="url(#pdb5f222355)" d="M 69.154148 56148.053323 
L 70.343068 56148.053323 
L 70.343068 188.602551 
L 69.154148 188.602551 
z
" style="fill:#4c72b0;fill-opacity:0.5;stroke:#4c72b0;stroke-linejoin:miter;stroke-width:0.5;"/>
   </g>
   <g id="patch_17">
    <path clip-path="url(#pdb5f222355)" d="M 70.343068 56148.053323 
L 71.531989 56148.053323 
L 71.531989 197.793905 
L 70.343068 197.793905 
z
" style="fill:#4c72b0;fill-opacity:0.5;stroke:#4c72b0;stroke-linejoin:miter;stroke-width:0.5;"/>
   </g>
   <g id="patch_18">
    <path clip-path="url(#pdb5f222355)" d="M 71.531989 56148.053323 
L 72.720909 56148.053323 
L 72.720909 194.693062 
L 71.531989 194.693062 
z
" style="fill:#4c72b0;fill-opacity:0.5;stroke:#4c72b0;stroke-linejoin:miter;stroke-width:0.5;"/>
   </g>
   <g id="patch_19">
    <path clip-path="url(#pdb5f222355)" d="M 72.720909 56148.053323 
L 73.90983 56148.053323 
L 73.90983 193.417041 
L 72.720909 193.417041 
z
" style="fill:#4c72b0;fill-opacity:0.5;stroke:#4c72b0;stroke-linejoin:miter;stroke-width:0.5;"/>
   </g>
   <g id="patch_20">
    <path clip-path="url(#pdb5f222355)" d="M 73.90983 56148.053323 
L 75.09875 56148.053323 
L 75.09875 196.500802 
L 73.90983 196.500802 
z
" style="fill:#4c72b0;fill-opacity:0.5;stroke:#4c72b0;stroke-linejoin:miter;stroke-width:0.5;"/>
   </g>
   <g id="patch_21">
    <path clip-path="url(#pdb5f222355)" d="M 75.09875 56148.053323 
L 76.28767 56148.053323 
L 76.28767 197.818091 
L 75.09875 197.818091 
z
" style="fill:#4c72b0;fill-opacity:0.5;stroke:#4c72b0;stroke-linejoin:miter;stroke-width:0.5;"/>
   </g>
   <g id="patch_22">
    <path clip-path="url(#pdb5f222355)" d="M 76.28767 56148.053323 
L 77.476591 56148.053323 
L 77.476591 192.222035 
L 76.28767 192.222035 
z
" style="fill:#4c72b0;fill-opacity:0.5;stroke:#4c72b0;stroke-linejoin:miter;stroke-width:0.5;"/>
   </g>
   <g id="patch_23">
    <path clip-path="url(#pdb5f222355)" d="M 77.476591 56148.053323 
L 78.665511 56148.053323 
L 78.665511 194.067375 
L 77.476591 194.067375 
z
" style="fill:#4c72b0;fill-opacity:0.5;stroke:#4c72b0;stroke-linejoin:miter;stroke-width:0.5;"/>
   </g>
   <g id="patch_24">
    <path clip-path="url(#pdb5f222355)" d="M 78.665511 56148.053323 
L 79.854432 56148.053323 
L 79.854432 189.592992 
L 78.665511 189.592992 
z
" style="fill:#4c72b0;fill-opacity:0.5;stroke:#4c72b0;stroke-linejoin:miter;stroke-width:0.5;"/>
   </g>
   <g id="patch_25">
    <path clip-path="url(#pdb5f222355)" d="M 79.854432 56148.053323 
L 81.043352 56148.053323 
L 81.043352 198.120893 
L 79.854432 198.120893 
z
" style="fill:#4c72b0;fill-opacity:0.5;stroke:#4c72b0;stroke-linejoin:miter;stroke-width:0.5;"/>
   </g>
   <g id="patch_26">
    <path clip-path="url(#pdb5f222355)" d="M 81.043352 56148.053323 
L 82.232273 56148.053323 
L 82.232273 201.244319 
L 81.043352 201.244319 
z
" style="fill:#4c72b0;fill-opacity:0.5;stroke:#4c72b0;stroke-linejoin:miter;stroke-width:0.5;"/>
   </g>
   <g id="patch_27">
    <path clip-path="url(#pdb5f222355)" d="M 82.232273 56148.053323 
L 83.421193 56148.053323 
L 83.421193 198.175491 
L 82.232273 198.175491 
z
" style="fill:#4c72b0;fill-opacity:0.5;stroke:#4c72b0;stroke-linejoin:miter;stroke-width:0.5;"/>
   </g>
   <g id="patch_28">
    <path clip-path="url(#pdb5f222355)" d="M 83.421193 56148.053323 
L 84.610114 56148.053323 
L 84.610114 194.071109 
L 83.421193 194.071109 
z
" style="fill:#4c72b0;fill-opacity:0.5;stroke:#4c72b0;stroke-linejoin:miter;stroke-width:0.5;"/>
   </g>
   <g id="patch_29">
    <path clip-path="url(#pdb5f222355)" d="M 84.610114 56148.053323 
L 85.799034 56148.053323 
L 85.799034 199.561657 
L 84.610114 199.561657 
z
" style="fill:#4c72b0;fill-opacity:0.5;stroke:#4c72b0;stroke-linejoin:miter;stroke-width:0.5;"/>
   </g>
   <g id="patch_30">
    <path clip-path="url(#pdb5f222355)" d="M 85.799034 56148.053323 
L 86.987955 56148.053323 
L 86.987955 199.84132 
L 85.799034 199.84132 
z
" style="fill:#4c72b0;fill-opacity:0.5;stroke:#4c72b0;stroke-linejoin:miter;stroke-width:0.5;"/>
   </g>
   <g id="patch_31">
    <path clip-path="url(#pdb5f222355)" d="M 86.987955 56148.053323 
L 88.176875 56148.053323 
L 88.176875 199.015091 
L 86.987955 199.015091 
z
" style="fill:#4c72b0;fill-opacity:0.5;stroke:#4c72b0;stroke-linejoin:miter;stroke-width:0.5;"/>
   </g>
   <g id="patch_32">
    <path clip-path="url(#pdb5f222355)" d="M 88.176875 56148.053323 
L 89.365795 56148.053323 
L 89.365795 182.967477 
L 88.176875 182.967477 
z
" style="fill:#4c72b0;fill-opacity:0.5;stroke:#4c72b0;stroke-linejoin:miter;stroke-width:0.5;"/>
   </g>
   <g id="patch_33">
    <path clip-path="url(#pdb5f222355)" d="M 89.365795 56148.053323 
L 90.554716 56148.053323 
L 90.554716 202.358223 
L 89.365795 202.358223 
z
" style="fill:#4c72b0;fill-opacity:0.5;stroke:#4c72b0;stroke-linejoin:miter;stroke-width:0.5;"/>
   </g>
   <g id="patch_34">
    <path clip-path="url(#pdb5f222355)" d="M 90.554716 56148.053323 
L 91.743636 56148.053323 
L 91.743636 195.954591 
L 90.554716 195.954591 
z
" style="fill:#4c72b0;fill-opacity:0.5;stroke:#4c72b0;stroke-linejoin:miter;stroke-width:0.5;"/>
   </g>
   <g id="patch_35">
    <path clip-path="url(#pdb5f222355)" d="M 91.743636 56148.053323 
L 92.932557 56148.053323 
L 92.932557 193.166317 
L 91.743636 193.166317 
z
" style="fill:#4c72b0;fill-opacity:0.5;stroke:#4c72b0;stroke-linejoin:miter;stroke-width:0.5;"/>
   </g>
   <g id="patch_36">
    <path clip-path="url(#pdb5f222355)" d="M 92.932557 56148.053323 
L 94.121477 56148.053323 
L 94.121477 212.46986 
L 92.932557 212.46986 
z
" style="fill:#4c72b0;fill-opacity:0.5;stroke:#4c72b0;stroke-linejoin:miter;stroke-width:0.5;"/>
   </g>
   <g id="patch_37">
    <path clip-path="url(#pdb5f222355)" d="M 94.121477 56148.053323 
L 95.310398 56148.053323 
L 95.310398 205.016969 
L 94.121477 205.016969 
z
" style="fill:#4c72b0;fill-opacity:0.5;stroke:#4c72b0;stroke-linejoin:miter;stroke-width:0.5;"/>
   </g>
   <g id="patch_38">
    <path clip-path="url(#pdb5f222355)" d="M 95.310398 56148.053323 
L 96.499318 56148.053323 
L 96.499318 201.283118 
L 95.310398 201.283118 
z
" style="fill:#4c72b0;fill-opacity:0.5;stroke:#4c72b0;stroke-linejoin:miter;stroke-width:0.5;"/>
   </g>
   <g id="patch_39">
    <path clip-path="url(#pdb5f222355)" d="M 96.499318 56148.053323 
L 97.688239 56148.053323 
L 97.688239 200.068199 
L 96.499318 200.068199 
z
" style="fill:#4c72b0;fill-opacity:0.5;stroke:#4c72b0;stroke-linejoin:miter;stroke-width:0.5;"/>
   </g>
   <g id="patch_40">
    <path clip-path="url(#pdb5f222355)" d="M 97.688239 56148.053323 
L 98.877159 56148.053323 
L 98.877159 194.825846 
L 97.688239 194.825846 
z
" style="fill:#4c72b0;fill-opacity:0.5;stroke:#4c72b0;stroke-linejoin:miter;stroke-width:0.5;"/>
   </g>
   <g id="patch_41">
    <path clip-path="url(#pdb5f222355)" d="M 98.877159 56148.053323 
L 100.06608 56148.053323 
L 100.06608 196.749484 
L 98.877159 196.749484 
z
" style="fill:#4c72b0;fill-opacity:0.5;stroke:#4c72b0;stroke-linejoin:miter;stroke-width:0.5;"/>
   </g>
   <g id="patch_42">
    <path clip-path="url(#pdb5f222355)" d="M 100.06608 56148.053323 
L 101.255 56148.053323 
L 101.255 209.396597 
L 100.06608 209.396597 
z
" style="fill:#4c72b0;fill-opacity:0.5;stroke:#4c72b0;stroke-linejoin:miter;stroke-width:0.5;"/>
   </g>
   <g id="patch_43">
    <path clip-path="url(#pdb5f222355)" d="M 101.255 56148.053323 
L 102.44392 56148.053323 
L 102.44392 202.998935 
L 101.255 202.998935 
z
" style="fill:#4c72b0;fill-opacity:0.5;stroke:#4c72b0;stroke-linejoin:miter;stroke-width:0.5;"/>
   </g>
   <g id="patch_44">
    <path clip-path="url(#pdb5f222355)" d="M 102.44392 56148.053323 
L 103.632841 56148.053323 
L 103.632841 196.130456 
L 102.44392 196.130456 
z
" style="fill:#4c72b0;fill-opacity:0.5;stroke:#4c72b0;stroke-linejoin:miter;stroke-width:0.5;"/>
   </g>
   <g id="patch_45">
    <path clip-path="url(#pdb5f222355)" d="M 103.632841 56148.053323 
L 104.821761 56148.053323 
L 104.821761 200.759342 
L 103.632841 200.759342 
z
" style="fill:#4c72b0;fill-opacity:0.5;stroke:#4c72b0;stroke-linejoin:miter;stroke-width:0.5;"/>
   </g>
   <g id="patch_46">
    <path clip-path="url(#pdb5f222355)" d="M 104.821761 56148.053323 
L 106.010682 56148.053323 
L 106.010682 202.195546 
L 104.821761 202.195546 
z
" style="fill:#4c72b0;fill-opacity:0.5;stroke:#4c72b0;stroke-linejoin:miter;stroke-width:0.5;"/>
   </g>
   <g id="patch_47">
    <path clip-path="url(#pdb5f222355)" d="M 106.010682 56148.053323 
L 107.199602 56148.053323 
L 107.199602 204.988579 
L 106.010682 204.988579 
z
" style="fill:#4c72b0;fill-opacity:0.5;stroke:#4c72b0;stroke-linejoin:miter;stroke-width:0.5;"/>
   </g>
   <g id="patch_48">
    <path clip-path="url(#pdb5f222355)" d="M 107.199602 56148.053323 
L 108.388523 56148.053323 
L 108.388523 203.764329 
L 107.199602 203.764329 
z
" style="fill:#4c72b0;fill-opacity:0.5;stroke:#4c72b0;stroke-linejoin:miter;stroke-width:0.5;"/>
   </g>
   <g id="patch_49">
    <path clip-path="url(#pdb5f222355)" d="M 108.388523 56148.053323 
L 109.577443 56148.053323 
L 109.577443 207.58789 
L 108.388523 207.58789 
z
" style="fill:#4c72b0;fill-opacity:0.5;stroke:#4c72b0;stroke-linejoin:miter;stroke-width:0.5;"/>
   </g>
   <g id="patch_50">
    <path clip-path="url(#pdb5f222355)" d="M 109.577443 56148.053323 
L 110.766364 56148.053323 
L 110.766364 200.34293 
L 109.577443 200.34293 
z
" style="fill:#4c72b0;fill-opacity:0.5;stroke:#4c72b0;stroke-linejoin:miter;stroke-width:0.5;"/>
   </g>
   <g id="patch_51">
    <path clip-path="url(#pdb5f222355)" d="M 110.766364 56148.053323 
L 111.955284 56148.053323 
L 111.955284 203.978404 
L 110.766364 203.978404 
z
" style="fill:#4c72b0;fill-opacity:0.5;stroke:#4c72b0;stroke-linejoin:miter;stroke-width:0.5;"/>
   </g>
   <g id="patch_52">
    <path clip-path="url(#pdb5f222355)" d="M 111.955284 56148.053323 
L 113.144205 56148.053323 
L 113.144205 204.149352 
L 111.955284 204.149352 
z
" style="fill:#4c72b0;fill-opacity:0.5;stroke:#4c72b0;stroke-linejoin:miter;stroke-width:0.5;"/>
   </g>
   <g id="patch_53">
    <path clip-path="url(#pdb5f222355)" d="M 113.144205 56148.053323 
L 114.333125 56148.053323 
L 114.333125 200.286787 
L 113.144205 200.286787 
z
" style="fill:#4c72b0;fill-opacity:0.5;stroke:#4c72b0;stroke-linejoin:miter;stroke-width:0.5;"/>
   </g>
   <g id="patch_54">
    <path clip-path="url(#pdb5f222355)" d="M 114.333125 56148.053323 
L 115.522045 56148.053323 
L 115.522045 197.694518 
L 114.333125 197.694518 
z
" style="fill:#4c72b0;fill-opacity:0.5;stroke:#4c72b0;stroke-linejoin:miter;stroke-width:0.5;"/>
   </g>
   <g id="patch_55">
    <path clip-path="url(#pdb5f222355)" d="M 115.522045 56148.053323 
L 116.710966 56148.053323 
L 116.710966 209.54367 
L 115.522045 209.54367 
z
" style="fill:#4c72b0;fill-opacity:0.5;stroke:#4c72b0;stroke-linejoin:miter;stroke-width:0.5;"/>
   </g>
   <g id="patch_56">
    <path clip-path="url(#pdb5f222355)" d="M 116.710966 56148.053323 
L 117.899886 56148.053323 
L 117.899886 205.160452 
L 116.710966 205.160452 
z
" style="fill:#4c72b0;fill-opacity:0.5;stroke:#4c72b0;stroke-linejoin:miter;stroke-width:0.5;"/>
   </g>
   <g id="patch_57">
    <path clip-path="url(#pdb5f222355)" d="M 117.899886 56148.053323 
L 119.088807 56148.053323 
L 119.088807 207.265784 
L 117.899886 207.265784 
z
" style="fill:#4c72b0;fill-opacity:0.5;stroke:#4c72b0;stroke-linejoin:miter;stroke-width:0.5;"/>
   </g>
   <g id="patch_58">
    <path clip-path="url(#pdb5f222355)" d="M 119.088807 56148.053323 
L 120.277727 56148.053323 
L 120.277727 207.123981 
L 119.088807 207.123981 
z
" style="fill:#4c72b0;fill-opacity:0.5;stroke:#4c72b0;stroke-linejoin:miter;stroke-width:0.5;"/>
   </g>
   <g id="patch_59">
    <path clip-path="url(#pdb5f222355)" d="M 120.277727 56148.053323 
L 121.466648 56148.053323 
L 121.466648 195.561924 
L 120.277727 195.561924 
z
" style="fill:#4c72b0;fill-opacity:0.5;stroke:#4c72b0;stroke-linejoin:miter;stroke-width:0.5;"/>
   </g>
   <g id="patch_60">
    <path clip-path="url(#pdb5f222355)" d="M 121.466648 56148.053323 
L 122.655568 56148.053323 
L 122.655568 186.725788 
L 121.466648 186.725788 
z
" style="fill:#4c72b0;fill-opacity:0.5;stroke:#4c72b0;stroke-linejoin:miter;stroke-width:0.5;"/>
   </g>
   <g id="patch_61">
    <path clip-path="url(#pdb5f222355)" d="M 122.655568 56148.053323 
L 123.844489 56148.053323 
L 123.844489 212.505466 
L 122.655568 212.505466 
z
" style="fill:#4c72b0;fill-opacity:0.5;stroke:#4c72b0;stroke-linejoin:miter;stroke-width:0.5;"/>
   </g>
   <g id="patch_62">
    <path clip-path="url(#pdb5f222355)" d="M 123.844489 56148.053323 
L 125.033409 56148.053323 
L 125.033409 205.455094 
L 123.844489 205.455094 
z
" style="fill:#4c72b0;fill-opacity:0.5;stroke:#4c72b0;stroke-linejoin:miter;stroke-width:0.5;"/>
   </g>
   <g id="patch_63">
    <path clip-path="url(#pdb5f222355)" d="M 125.033409 56148.053323 
L 126.22233 56148.053323 
L 126.22233 205.912297 
L 125.033409 205.912297 
z
" style="fill:#4c72b0;fill-opacity:0.5;stroke:#4c72b0;stroke-linejoin:miter;stroke-width:0.5;"/>
   </g>
   <g id="patch_64">
    <path clip-path="url(#pdb5f222355)" d="M 126.22233 56148.053323 
L 127.41125 56148.053323 
L 127.41125 210.275155 
L 126.22233 210.275155 
z
" style="fill:#4c72b0;fill-opacity:0.5;stroke:#4c72b0;stroke-linejoin:miter;stroke-width:0.5;"/>
   </g>
   <g id="patch_65">
    <path clip-path="url(#pdb5f222355)" d="M 127.41125 56148.053323 
L 128.60017 56148.053323 
L 128.60017 202.488211 
L 127.41125 202.488211 
z
" style="fill:#4c72b0;fill-opacity:0.5;stroke:#4c72b0;stroke-linejoin:miter;stroke-width:0.5;"/>
   </g>
   <g id="patch_66">
    <path clip-path="url(#pdb5f222355)" d="M 128.60017 56148.053323 
L 129.789091 56148.053323 
L 129.789091 199.774308 
L 128.60017 199.774308 
z
" style="fill:#4c72b0;fill-opacity:0.5;stroke:#4c72b0;stroke-linejoin:miter;stroke-width:0.5;"/>
   </g>
   <g id="patch_67">
    <path clip-path="url(#pdb5f222355)" d="M 129.789091 56148.053323 
L 130.978011 56148.053323 
L 130.978011 177.727978 
L 129.789091 177.727978 
z
" style="fill:#4c72b0;fill-opacity:0.5;stroke:#4c72b0;stroke-linejoin:miter;stroke-width:0.5;"/>
   </g>
   <g id="patch_68">
    <path clip-path="url(#pdb5f222355)" d="M 130.978011 56148.053323 
L 132.166932 56148.053323 
L 132.166932 209.045851 
L 130.978011 209.045851 
z
" style="fill:#4c72b0;fill-opacity:0.5;stroke:#4c72b0;stroke-linejoin:miter;stroke-width:0.5;"/>
   </g>
   <g id="patch_69">
    <path clip-path="url(#pdb5f222355)" d="M 132.166932 56148.053323 
L 133.355852 56148.053323 
L 133.355852 206.841808 
L 132.166932 206.841808 
z
" style="fill:#4c72b0;fill-opacity:0.5;stroke:#4c72b0;stroke-linejoin:miter;stroke-width:0.5;"/>
   </g>
   <g id="patch_70">
    <path clip-path="url(#pdb5f222355)" d="M 133.355852 56148.053323 
L 134.544773 56148.053323 
L 134.544773 208.536268 
L 133.355852 208.536268 
z
" style="fill:#4c72b0;fill-opacity:0.5;stroke:#4c72b0;stroke-linejoin:miter;stroke-width:0.5;"/>
   </g>
   <g id="patch_71">
    <path clip-path="url(#pdb5f222355)" d="M 134.544773 56148.053323 
L 135.733693 56148.053323 
L 135.733693 208.531651 
L 134.544773 208.531651 
z
" style="fill:#4c72b0;fill-opacity:0.5;stroke:#4c72b0;stroke-linejoin:miter;stroke-width:0.5;"/>
   </g>
   <g id="patch_72">
    <path clip-path="url(#pdb5f222355)" d="M 135.733693 56148.053323 
L 136.922614 56148.053323 
L 136.922614 208.267686 
L 135.733693 208.267686 
z
" style="fill:#4c72b0;fill-opacity:0.5;stroke:#4c72b0;stroke-linejoin:miter;stroke-width:0.5;"/>
   </g>
   <g id="patch_73">
    <path clip-path="url(#pdb5f222355)" d="M 136.922614 56148.053323 
L 138.111534 56148.053323 
L 138.111534 203.777393 
L 136.922614 203.777393 
z
" style="fill:#4c72b0;fill-opacity:0.5;stroke:#4c72b0;stroke-linejoin:miter;stroke-width:0.5;"/>
   </g>
   <g id="patch_74">
    <path clip-path="url(#pdb5f222355)" d="M 138.111534 56148.053323 
L 139.300455 56148.053323 
L 139.300455 205.045011 
L 138.111534 205.045011 
z
" style="fill:#4c72b0;fill-opacity:0.5;stroke:#4c72b0;stroke-linejoin:miter;stroke-width:0.5;"/>
   </g>
   <g id="patch_75">
    <path clip-path="url(#pdb5f222355)" d="M 139.300455 56148.053323 
L 140.489375 56148.053323 
L 140.489375 207.270424 
L 139.300455 207.270424 
z
" style="fill:#4c72b0;fill-opacity:0.5;stroke:#4c72b0;stroke-linejoin:miter;stroke-width:0.5;"/>
   </g>
   <g id="patch_76">
    <path clip-path="url(#pdb5f222355)" d="M 140.489375 56148.053323 
L 141.678295 56148.053323 
L 141.678295 203.250477 
L 140.489375 203.250477 
z
" style="fill:#4c72b0;fill-opacity:0.5;stroke:#4c72b0;stroke-linejoin:miter;stroke-width:0.5;"/>
   </g>
   <g id="patch_77">
    <path clip-path="url(#pdb5f222355)" d="M 141.678295 56148.053323 
L 142.867216 56148.053323 
L 142.867216 213.440978 
L 141.678295 213.440978 
z
" style="fill:#4c72b0;fill-opacity:0.5;stroke:#4c72b0;stroke-linejoin:miter;stroke-width:0.5;"/>
   </g>
   <g id="patch_78">
    <path clip-path="url(#pdb5f222355)" d="M 142.867216 56148.053323 
L 144.056136 56148.053323 
L 144.056136 209.41519 
L 142.867216 209.41519 
z
" style="fill:#4c72b0;fill-opacity:0.5;stroke:#4c72b0;stroke-linejoin:miter;stroke-width:0.5;"/>
   </g>
   <g id="patch_79">
    <path clip-path="url(#pdb5f222355)" d="M 144.056136 56148.053323 
L 145.245057 56148.053323 
L 145.245057 202.31638 
L 144.056136 202.31638 
z
" style="fill:#4c72b0;fill-opacity:0.5;stroke:#4c72b0;stroke-linejoin:miter;stroke-width:0.5;"/>
   </g>
   <g id="patch_80">
    <path clip-path="url(#pdb5f222355)" d="M 145.245057 56148.053323 
L 146.433977 56148.053323 
L 146.433977 213.039905 
L 145.245057 213.039905 
z
" style="fill:#4c72b0;fill-opacity:0.5;stroke:#4c72b0;stroke-linejoin:miter;stroke-width:0.5;"/>
   </g>
   <g id="patch_81">
    <path clip-path="url(#pdb5f222355)" d="M 146.433977 56148.053323 
L 147.622898 56148.053323 
L 147.622898 205.894363 
L 146.433977 205.894363 
z
" style="fill:#4c72b0;fill-opacity:0.5;stroke:#4c72b0;stroke-linejoin:miter;stroke-width:0.5;"/>
   </g>
   <g id="patch_82">
    <path clip-path="url(#pdb5f222355)" d="M 147.622898 56148.053323 
L 148.811818 56148.053323 
L 148.811818 206.667765 
L 147.622898 206.667765 
z
" style="fill:#4c72b0;fill-opacity:0.5;stroke:#4c72b0;stroke-linejoin:miter;stroke-width:0.5;"/>
   </g>
   <g id="patch_83">
    <path clip-path="url(#pdb5f222355)" d="M 148.811818 56148.053323 
L 150.000739 56148.053323 
L 150.000739 209.171202 
L 148.811818 209.171202 
z
" style="fill:#4c72b0;fill-opacity:0.5;stroke:#4c72b0;stroke-linejoin:miter;stroke-width:0.5;"/>
   </g>
   <g id="patch_84">
    <path clip-path="url(#pdb5f222355)" d="M 150.000739 56148.053323 
L 151.189659 56148.053323 
L 151.189659 209.642501 
L 150.000739 209.642501 
z
" style="fill:#4c72b0;fill-opacity:0.5;stroke:#4c72b0;stroke-linejoin:miter;stroke-width:0.5;"/>
   </g>
   <g id="patch_85">
    <path clip-path="url(#pdb5f222355)" d="M 151.189659 56148.053323 
L 152.37858 56148.053323 
L 152.37858 202.738854 
L 151.189659 202.738854 
z
" style="fill:#4c72b0;fill-opacity:0.5;stroke:#4c72b0;stroke-linejoin:miter;stroke-width:0.5;"/>
   </g>
   <g id="patch_86">
    <path clip-path="url(#pdb5f222355)" d="M 152.37858 56148.053323 
L 153.5675 56148.053323 
L 153.5675 210.239068 
L 152.37858 210.239068 
z
" style="fill:#4c72b0;fill-opacity:0.5;stroke:#4c72b0;stroke-linejoin:miter;stroke-width:0.5;"/>
   </g>
   <g id="patch_87">
    <path clip-path="url(#pdb5f222355)" d="M 153.5675 56148.053323 
L 154.75642 56148.053323 
L 154.75642 193.870368 
L 153.5675 193.870368 
z
" style="fill:#4c72b0;fill-opacity:0.5;stroke:#4c72b0;stroke-linejoin:miter;stroke-width:0.5;"/>
   </g>
   <g id="patch_88">
    <path clip-path="url(#pdb5f222355)" d="M 154.75642 56148.053323 
L 155.945341 56148.053323 
L 155.945341 198.334621 
L 154.75642 198.334621 
z
" style="fill:#4c72b0;fill-opacity:0.5;stroke:#4c72b0;stroke-linejoin:miter;stroke-width:0.5;"/>
   </g>
   <g id="patch_89">
    <path clip-path="url(#pdb5f222355)" d="M 155.945341 56148.053323 
L 157.134261 56148.053323 
L 157.134261 188.035638 
L 155.945341 188.035638 
z
" style="fill:#4c72b0;fill-opacity:0.5;stroke:#4c72b0;stroke-linejoin:miter;stroke-width:0.5;"/>
   </g>
   <g id="patch_90">
    <path clip-path="url(#pdb5f222355)" d="M 157.134261 56148.053323 
L 158.323182 56148.053323 
L 158.323182 215.614468 
L 157.134261 215.614468 
z
" style="fill:#4c72b0;fill-opacity:0.5;stroke:#4c72b0;stroke-linejoin:miter;stroke-width:0.5;"/>
   </g>
   <g id="patch_91">
    <path clip-path="url(#pdb5f222355)" d="M 158.323182 56148.053323 
L 159.512102 56148.053323 
L 159.512102 210.224481 
L 158.323182 210.224481 
z
" style="fill:#4c72b0;fill-opacity:0.5;stroke:#4c72b0;stroke-linejoin:miter;stroke-width:0.5;"/>
   </g>
   <g id="patch_92">
    <path clip-path="url(#pdb5f222355)" d="M 159.512102 56148.053323 
L 160.701023 56148.053323 
L 160.701023 205.494538 
L 159.512102 205.494538 
z
" style="fill:#4c72b0;fill-opacity:0.5;stroke:#4c72b0;stroke-linejoin:miter;stroke-width:0.5;"/>
   </g>
   <g id="patch_93">
    <path clip-path="url(#pdb5f222355)" d="M 160.701023 56148.053323 
L 161.889943 56148.053323 
L 161.889943 215.631966 
L 160.701023 215.631966 
z
" style="fill:#4c72b0;fill-opacity:0.5;stroke:#4c72b0;stroke-linejoin:miter;stroke-width:0.5;"/>
   </g>
   <g id="patch_94">
    <path clip-path="url(#pdb5f222355)" d="M 161.889943 56148.053323 
L 163.078864 56148.053323 
L 163.078864 207.34639 
L 161.889943 207.34639 
z
" style="fill:#4c72b0;fill-opacity:0.5;stroke:#4c72b0;stroke-linejoin:miter;stroke-width:0.5;"/>
   </g>
   <g id="patch_95">
    <path clip-path="url(#pdb5f222355)" d="M 163.078864 56148.053323 
L 164.267784 56148.053323 
L 164.267784 206.7966 
L 163.078864 206.7966 
z
" style="fill:#4c72b0;fill-opacity:0.5;stroke:#4c72b0;stroke-linejoin:miter;stroke-width:0.5;"/>
   </g>
   <g id="patch_96">
    <path clip-path="url(#pdb5f222355)" d="M 164.267784 56148.053323 
L 165.456705 56148.053323 
L 165.456705 207.756079 
L 164.267784 207.756079 
z
" style="fill:#4c72b0;fill-opacity:0.5;stroke:#4c72b0;stroke-linejoin:miter;stroke-width:0.5;"/>
   </g>
   <g id="patch_97">
    <path clip-path="url(#pdb5f222355)" d="M 165.456705 56148.053323 
L 166.645625 56148.053323 
L 166.645625 201.853466 
L 165.456705 201.853466 
z
" style="fill:#4c72b0;fill-opacity:0.5;stroke:#4c72b0;stroke-linejoin:miter;stroke-width:0.5;"/>
   </g>
   <g id="patch_98">
    <path clip-path="url(#pdb5f222355)" d="M 166.645625 56148.053323 
L 167.834545 56148.053323 
L 167.834545 208.728088 
L 166.645625 208.728088 
z
" style="fill:#4c72b0;fill-opacity:0.5;stroke:#4c72b0;stroke-linejoin:miter;stroke-width:0.5;"/>
   </g>
   <g id="patch_99">
    <path clip-path="url(#pdb5f222355)" d="M 167.834545 56148.053323 
L 169.023466 56148.053323 
L 169.023466 204.933283 
L 167.834545 204.933283 
z
" style="fill:#4c72b0;fill-opacity:0.5;stroke:#4c72b0;stroke-linejoin:miter;stroke-width:0.5;"/>
   </g>
   <g id="patch_100">
    <path clip-path="url(#pdb5f222355)" d="M 169.023466 56148.053323 
L 170.212386 56148.053323 
L 170.212386 212.201722 
L 169.023466 212.201722 
z
" style="fill:#4c72b0;fill-opacity:0.5;stroke:#4c72b0;stroke-linejoin:miter;stroke-width:0.5;"/>
   </g>
   <g id="patch_101">
    <path clip-path="url(#pdb5f222355)" d="M 170.212386 56148.053323 
L 171.401307 56148.053323 
L 171.401307 208.228956 
L 170.212386 208.228956 
z
" style="fill:#4c72b0;fill-opacity:0.5;stroke:#4c72b0;stroke-linejoin:miter;stroke-width:0.5;"/>
   </g>
   <g id="patch_102">
    <path clip-path="url(#pdb5f222355)" d="M 171.401307 56148.053323 
L 172.590227 56148.053323 
L 172.590227 206.99355 
L 171.401307 206.99355 
z
" style="fill:#4c72b0;fill-opacity:0.5;stroke:#4c72b0;stroke-linejoin:miter;stroke-width:0.5;"/>
   </g>
   <g id="patch_103">
    <path clip-path="url(#pdb5f222355)" d="M 172.590227 56148.053323 
L 173.779148 56148.053323 
L 173.779148 207.146987 
L 172.590227 207.146987 
z
" style="fill:#4c72b0;fill-opacity:0.5;stroke:#4c72b0;stroke-linejoin:miter;stroke-width:0.5;"/>
   </g>
   <g id="patch_104">
    <path clip-path="url(#pdb5f222355)" d="M 173.779148 56148.053323 
L 174.968068 56148.053323 
L 174.968068 213.160227 
L 173.779148 213.160227 
z
" style="fill:#4c72b0;fill-opacity:0.5;stroke:#4c72b0;stroke-linejoin:miter;stroke-width:0.5;"/>
   </g>
   <g id="patch_105">
    <path clip-path="url(#pdb5f222355)" d="M 174.968068 56148.053323 
L 176.156989 56148.053323 
L 176.156989 202.881401 
L 174.968068 202.881401 
z
" style="fill:#4c72b0;fill-opacity:0.5;stroke:#4c72b0;stroke-linejoin:miter;stroke-width:0.5;"/>
   </g>
   <g id="patch_106">
    <path clip-path="url(#pdb5f222355)" d="M 176.156989 56148.053323 
L 177.345909 56148.053323 
L 177.345909 210.671169 
L 176.156989 210.671169 
z
" style="fill:#4c72b0;fill-opacity:0.5;stroke:#4c72b0;stroke-linejoin:miter;stroke-width:0.5;"/>
   </g>
   <g id="patch_107">
    <path clip-path="url(#pdb5f222355)" d="M 177.345909 56148.053323 
L 178.53483 56148.053323 
L 178.53483 209.266537 
L 177.345909 209.266537 
z
" style="fill:#4c72b0;fill-opacity:0.5;stroke:#4c72b0;stroke-linejoin:miter;stroke-width:0.5;"/>
   </g>
   <g id="patch_108">
    <path clip-path="url(#pdb5f222355)" d="M 178.53483 56148.053323 
L 179.72375 56148.053323 
L 179.72375 211.218797 
L 178.53483 211.218797 
z
" style="fill:#4c72b0;fill-opacity:0.5;stroke:#4c72b0;stroke-linejoin:miter;stroke-width:0.5;"/>
   </g>
   <g id="patch_109">
    <path clip-path="url(#pdb5f222355)" d="M 179.72375 56148.053323 
L 180.91267 56148.053323 
L 180.91267 205.909492 
L 179.72375 205.909492 
z
" style="fill:#4c72b0;fill-opacity:0.5;stroke:#4c72b0;stroke-linejoin:miter;stroke-width:0.5;"/>
   </g>
   <g id="patch_110">
    <path clip-path="url(#pdb5f222355)" d="M 180.91267 56148.053323 
L 182.101591 56148.053323 
L 182.101591 211.12077 
L 180.91267 211.12077 
z
" style="fill:#4c72b0;fill-opacity:0.5;stroke:#4c72b0;stroke-linejoin:miter;stroke-width:0.5;"/>
   </g>
   <g id="patch_111">
    <path clip-path="url(#pdb5f222355)" d="M 182.101591 56148.053323 
L 183.290511 56148.053323 
L 183.290511 199.24975 
L 182.101591 199.24975 
z
" style="fill:#4c72b0;fill-opacity:0.5;stroke:#4c72b0;stroke-linejoin:miter;stroke-width:0.5;"/>
   </g>
   <g id="patch_112">
    <path clip-path="url(#pdb5f222355)" d="M 183.290511 56148.053323 
L 184.479432 56148.053323 
L 184.479432 202.744036 
L 183.290511 202.744036 
z
" style="fill:#4c72b0;fill-opacity:0.5;stroke:#4c72b0;stroke-linejoin:miter;stroke-width:0.5;"/>
   </g>
   <g id="patch_113">
    <path clip-path="url(#pdb5f222355)" d="M 184.479432 56148.053323 
L 185.668352 56148.053323 
L 185.668352 208.59516 
L 184.479432 208.59516 
z
" style="fill:#4c72b0;fill-opacity:0.5;stroke:#4c72b0;stroke-linejoin:miter;stroke-width:0.5;"/>
   </g>
   <g id="patch_114">
    <path clip-path="url(#pdb5f222355)" d="M 185.668352 56148.053323 
L 186.857273 56148.053323 
L 186.857273 208.569864 
L 185.668352 208.569864 
z
" style="fill:#4c72b0;fill-opacity:0.5;stroke:#4c72b0;stroke-linejoin:miter;stroke-width:0.5;"/>
   </g>
   <g id="patch_115">
    <path clip-path="url(#pdb5f222355)" d="M 186.857273 56148.053323 
L 188.046193 56148.053323 
L 188.046193 204.106024 
L 186.857273 204.106024 
z
" style="fill:#4c72b0;fill-opacity:0.5;stroke:#4c72b0;stroke-linejoin:miter;stroke-width:0.5;"/>
   </g>
   <g id="patch_116">
    <path clip-path="url(#pdb5f222355)" d="M 188.046193 56148.053323 
L 189.235114 56148.053323 
L 189.235114 200.973504 
L 188.046193 200.973504 
z
" style="fill:#4c72b0;fill-opacity:0.5;stroke:#4c72b0;stroke-linejoin:miter;stroke-width:0.5;"/>
   </g>
   <g id="patch_117">
    <path clip-path="url(#pdb5f222355)" d="M 189.235114 56148.053323 
L 190.424034 56148.053323 
L 190.424034 192.783445 
L 189.235114 192.783445 
z
" style="fill:#4c72b0;fill-opacity:0.5;stroke:#4c72b0;stroke-linejoin:miter;stroke-width:0.5;"/>
   </g>
   <g id="patch_118">
    <path clip-path="url(#pdb5f222355)" d="M 190.424034 56148.053323 
L 191.612955 56148.053323 
L 191.612955 210.392183 
L 190.424034 210.392183 
z
" style="fill:#4c72b0;fill-opacity:0.5;stroke:#4c72b0;stroke-linejoin:miter;stroke-width:0.5;"/>
   </g>
   <g id="patch_119">
    <path clip-path="url(#pdb5f222355)" d="M 191.612955 56148.053323 
L 192.801875 56148.053323 
L 192.801875 202.469648 
L 191.612955 202.469648 
z
" style="fill:#4c72b0;fill-opacity:0.5;stroke:#4c72b0;stroke-linejoin:miter;stroke-width:0.5;"/>
   </g>
   <g id="patch_120">
    <path clip-path="url(#pdb5f222355)" d="M 192.801875 56148.053323 
L 193.990795 56148.053323 
L 193.990795 210.906694 
L 192.801875 210.906694 
z
" style="fill:#4c72b0;fill-opacity:0.5;stroke:#4c72b0;stroke-linejoin:miter;stroke-width:0.5;"/>
   </g>
   <g id="patch_121">
    <path clip-path="url(#pdb5f222355)" d="M 193.990795 56148.053323 
L 195.179716 56148.053323 
L 195.179716 208.819516 
L 193.990795 208.819516 
z
" style="fill:#4c72b0;fill-opacity:0.5;stroke:#4c72b0;stroke-linejoin:miter;stroke-width:0.5;"/>
   </g>
   <g id="patch_122">
    <path clip-path="url(#pdb5f222355)" d="M 195.179716 56148.053323 
L 196.368636 56148.053323 
L 196.368636 208.992916 
L 195.179716 208.992916 
z
" style="fill:#4c72b0;fill-opacity:0.5;stroke:#4c72b0;stroke-linejoin:miter;stroke-width:0.5;"/>
   </g>
   <g id="patch_123">
    <path clip-path="url(#pdb5f222355)" d="M 196.368636 56148.053323 
L 197.557557 56148.053323 
L 197.557557 207.563509 
L 196.368636 207.563509 
z
" style="fill:#4c72b0;fill-opacity:0.5;stroke:#4c72b0;stroke-linejoin:miter;stroke-width:0.5;"/>
   </g>
   <g id="patch_124">
    <path clip-path="url(#pdb5f222355)" d="M 197.557557 56148.053323 
L 198.746477 56148.053323 
L 198.746477 208.352341 
L 197.557557 208.352341 
z
" style="fill:#4c72b0;fill-opacity:0.5;stroke:#4c72b0;stroke-linejoin:miter;stroke-width:0.5;"/>
   </g>
   <g id="patch_125">
    <path clip-path="url(#pdb5f222355)" d="M 198.746477 56148.053323 
L 199.935398 56148.053323 
L 199.935398 210.925197 
L 198.746477 210.925197 
z
" style="fill:#4c72b0;fill-opacity:0.5;stroke:#4c72b0;stroke-linejoin:miter;stroke-width:0.5;"/>
   </g>
   <g id="patch_126">
    <path clip-path="url(#pdb5f222355)" d="M 199.935398 56148.053323 
L 201.124318 56148.053323 
L 201.124318 206.232359 
L 199.935398 206.232359 
z
" style="fill:#4c72b0;fill-opacity:0.5;stroke:#4c72b0;stroke-linejoin:miter;stroke-width:0.5;"/>
   </g>
   <g id="patch_127">
    <path clip-path="url(#pdb5f222355)" d="M 201.124318 56148.053323 
L 202.313239 56148.053323 
L 202.313239 214.349145 
L 201.124318 214.349145 
z
" style="fill:#4c72b0;fill-opacity:0.5;stroke:#4c72b0;stroke-linejoin:miter;stroke-width:0.5;"/>
   </g>
   <g id="patch_128">
    <path clip-path="url(#pdb5f222355)" d="M 202.313239 56148.053323 
L 203.502159 56148.053323 
L 203.502159 209.591004 
L 202.313239 209.591004 
z
" style="fill:#4c72b0;fill-opacity:0.5;stroke:#4c72b0;stroke-linejoin:miter;stroke-width:0.5;"/>
   </g>
   <g id="patch_129">
    <path clip-path="url(#pdb5f222355)" d="M 203.502159 56148.053323 
L 204.69108 56148.053323 
L 204.69108 203.245387 
L 203.502159 203.245387 
z
" style="fill:#4c72b0;fill-opacity:0.5;stroke:#4c72b0;stroke-linejoin:miter;stroke-width:0.5;"/>
   </g>
   <g id="patch_130">
    <path clip-path="url(#pdb5f222355)" d="M 204.69108 56148.053323 
L 205.88 56148.053323 
L 205.88 206.097678 
L 204.69108 206.097678 
z
" style="fill:#4c72b0;fill-opacity:0.5;stroke:#4c72b0;stroke-linejoin:miter;stroke-width:0.5;"/>
   </g>
   <g id="patch_131">
    <path clip-path="url(#pdb5f222355)" d="M 205.88 56148.053323 
L 207.06892 56148.053323 
L 207.06892 165.480363 
L 205.88 165.480363 
z
" style="fill:#4c72b0;fill-opacity:0.5;stroke:#4c72b0;stroke-linejoin:miter;stroke-width:0.5;"/>
   </g>
   <g id="patch_132">
    <path clip-path="url(#pdb5f222355)" d="M 207.06892 56148.053323 
L 208.257841 56148.053323 
L 208.257841 210.289922 
L 207.06892 210.289922 
z
" style="fill:#4c72b0;fill-opacity:0.5;stroke:#4c72b0;stroke-linejoin:miter;stroke-width:0.5;"/>
   </g>
   <g id="patch_133">
    <path clip-path="url(#pdb5f222355)" d="M 208.257841 56148.053323 
L 209.446761 56148.053323 
L 209.446761 206.281116 
L 208.257841 206.281116 
z
" style="fill:#4c72b0;fill-opacity:0.5;stroke:#4c72b0;stroke-linejoin:miter;stroke-width:0.5;"/>
   </g>
   <g id="patch_134">
    <path clip-path="url(#pdb5f222355)" d="M 209.446761 56148.053323 
L 210.635682 56148.053323 
L 210.635682 203.839538 
L 209.446761 203.839538 
z
" style="fill:#4c72b0;fill-opacity:0.5;stroke:#4c72b0;stroke-linejoin:miter;stroke-width:0.5;"/>
   </g>
   <g id="patch_135">
    <path clip-path="url(#pdb5f222355)" d="M 210.635682 56148.053323 
L 211.824602 56148.053323 
L 211.824602 205.391835 
L 210.635682 205.391835 
z
" style="fill:#4c72b0;fill-opacity:0.5;stroke:#4c72b0;stroke-linejoin:miter;stroke-width:0.5;"/>
   </g>
   <g id="patch_136">
    <path clip-path="url(#pdb5f222355)" d="M 211.824602 56148.053323 
L 213.013523 56148.053323 
L 213.013523 212.193366 
L 211.824602 212.193366 
z
" style="fill:#4c72b0;fill-opacity:0.5;stroke:#4c72b0;stroke-linejoin:miter;stroke-width:0.5;"/>
   </g>
   <g id="patch_137">
    <path clip-path="url(#pdb5f222355)" d="M 213.013523 56148.053323 
L 214.202443 56148.053323 
L 214.202443 209.323767 
L 213.013523 209.323767 
z
" style="fill:#4c72b0;fill-opacity:0.5;stroke:#4c72b0;stroke-linejoin:miter;stroke-width:0.5;"/>
   </g>
   <g id="patch_138">
    <path clip-path="url(#pdb5f222355)" d="M 214.202443 56148.053323 
L 215.391364 56148.053323 
L 215.391364 210.669075 
L 214.202443 210.669075 
z
" style="fill:#4c72b0;fill-opacity:0.5;stroke:#4c72b0;stroke-linejoin:miter;stroke-width:0.5;"/>
   </g>
   <g id="patch_139">
    <path clip-path="url(#pdb5f222355)" d="M 215.391364 56148.053323 
L 216.580284 56148.053323 
L 216.580284 210.558247 
L 215.391364 210.558247 
z
" style="fill:#4c72b0;fill-opacity:0.5;stroke:#4c72b0;stroke-linejoin:miter;stroke-width:0.5;"/>
   </g>
   <g id="patch_140">
    <path clip-path="url(#pdb5f222355)" d="M 216.580284 56148.053323 
L 217.769205 56148.053323 
L 217.769205 208.913134 
L 216.580284 208.913134 
z
" style="fill:#4c72b0;fill-opacity:0.5;stroke:#4c72b0;stroke-linejoin:miter;stroke-width:0.5;"/>
   </g>
   <g id="patch_141">
    <path clip-path="url(#pdb5f222355)" d="M 217.769205 56148.053323 
L 218.958125 56148.053323 
L 218.958125 208.557732 
L 217.769205 208.557732 
z
" style="fill:#4c72b0;fill-opacity:0.5;stroke:#4c72b0;stroke-linejoin:miter;stroke-width:0.5;"/>
   </g>
   <g id="patch_142">
    <path clip-path="url(#pdb5f222355)" d="M 218.958125 56148.053323 
L 220.147045 56148.053323 
L 220.147045 204.547281 
L 218.958125 204.547281 
z
" style="fill:#4c72b0;fill-opacity:0.5;stroke:#4c72b0;stroke-linejoin:miter;stroke-width:0.5;"/>
   </g>
   <g id="patch_143">
    <path clip-path="url(#pdb5f222355)" d="M 220.147045 56148.053323 
L 221.335966 56148.053323 
L 221.335966 207.224757 
L 220.147045 207.224757 
z
" style="fill:#4c72b0;fill-opacity:0.5;stroke:#4c72b0;stroke-linejoin:miter;stroke-width:0.5;"/>
   </g>
   <g id="patch_144">
    <path clip-path="url(#pdb5f222355)" d="M 221.335966 56148.053323 
L 222.524886 56148.053323 
L 222.524886 191.719337 
L 221.335966 191.719337 
z
" style="fill:#4c72b0;fill-opacity:0.5;stroke:#4c72b0;stroke-linejoin:miter;stroke-width:0.5;"/>
   </g>
   <g id="patch_145">
    <path clip-path="url(#pdb5f222355)" d="M 222.524886 56148.053323 
L 223.713807 56148.053323 
L 223.713807 205.954001 
L 222.524886 205.954001 
z
" style="fill:#4c72b0;fill-opacity:0.5;stroke:#4c72b0;stroke-linejoin:miter;stroke-width:0.5;"/>
   </g>
   <g id="patch_146">
    <path clip-path="url(#pdb5f222355)" d="M 223.713807 56148.053323 
L 224.902727 56148.053323 
L 224.902727 208.89338 
L 223.713807 208.89338 
z
" style="fill:#4c72b0;fill-opacity:0.5;stroke:#4c72b0;stroke-linejoin:miter;stroke-width:0.5;"/>
   </g>
   <g id="patch_147">
    <path clip-path="url(#pdb5f222355)" d="M 224.902727 56148.053323 
L 226.091648 56148.053323 
L 226.091648 205.138853 
L 224.902727 205.138853 
z
" style="fill:#4c72b0;fill-opacity:0.5;stroke:#4c72b0;stroke-linejoin:miter;stroke-width:0.5;"/>
   </g>
   <g id="patch_148">
    <path clip-path="url(#pdb5f222355)" d="M 226.091648 56148.053323 
L 227.280568 56148.053323 
L 227.280568 206.786763 
L 226.091648 206.786763 
z
" style="fill:#4c72b0;fill-opacity:0.5;stroke:#4c72b0;stroke-linejoin:miter;stroke-width:0.5;"/>
   </g>
   <g id="patch_149">
    <path clip-path="url(#pdb5f222355)" d="M 227.280568 56148.053323 
L 228.469489 56148.053323 
L 228.469489 209.95357 
L 227.280568 209.95357 
z
" style="fill:#4c72b0;fill-opacity:0.5;stroke:#4c72b0;stroke-linejoin:miter;stroke-width:0.5;"/>
   </g>
   <g id="patch_150">
    <path clip-path="url(#pdb5f222355)" d="M 228.469489 56148.053323 
L 229.658409 56148.053323 
L 229.658409 210.567797 
L 228.469489 210.567797 
z
" style="fill:#4c72b0;fill-opacity:0.5;stroke:#4c72b0;stroke-linejoin:miter;stroke-width:0.5;"/>
   </g>
   <g id="patch_151">
    <path clip-path="url(#pdb5f222355)" d="M 229.658409 56148.053323 
L 230.84733 56148.053323 
L 230.84733 207.431591 
L 229.658409 207.431591 
z
" style="fill:#4c72b0;fill-opacity:0.5;stroke:#4c72b0;stroke-linejoin:miter;stroke-width:0.5;"/>
   </g>
   <g id="patch_152">
    <path clip-path="url(#pdb5f222355)" d="M 230.84733 56148.053323 
L 232.03625 56148.053323 
L 232.03625 208.232117 
L 230.84733 208.232117 
z
" style="fill:#4c72b0;fill-opacity:0.5;stroke:#4c72b0;stroke-linejoin:miter;stroke-width:0.5;"/>
   </g>
   <g id="patch_153">
    <path clip-path="url(#pdb5f222355)" d="M 232.03625 56148.053323 
L 233.22517 56148.053323 
L 233.22517 208.515166 
L 232.03625 208.515166 
z
" style="fill:#4c72b0;fill-opacity:0.5;stroke:#4c72b0;stroke-linejoin:miter;stroke-width:0.5;"/>
   </g>
   <g id="patch_154">
    <path clip-path="url(#pdb5f222355)" d="M 233.22517 56148.053323 
L 234.414091 56148.053323 
L 234.414091 199.496802 
L 233.22517 199.496802 
z
" style="fill:#4c72b0;fill-opacity:0.5;stroke:#4c72b0;stroke-linejoin:miter;stroke-width:0.5;"/>
   </g>
   <g id="patch_155">
    <path clip-path="url(#pdb5f222355)" d="M 234.414091 56148.053323 
L 235.603011 56148.053323 
L 235.603011 206.618402 
L 234.414091 206.618402 
z
" style="fill:#4c72b0;fill-opacity:0.5;stroke:#4c72b0;stroke-linejoin:miter;stroke-width:0.5;"/>
   </g>
   <g id="patch_156">
    <path clip-path="url(#pdb5f222355)" d="M 235.603011 56148.053323 
L 236.791932 56148.053323 
L 236.791932 209.179821 
L 235.603011 209.179821 
z
" style="fill:#4c72b0;fill-opacity:0.5;stroke:#4c72b0;stroke-linejoin:miter;stroke-width:0.5;"/>
   </g>
   <g id="patch_157">
    <path clip-path="url(#pdb5f222355)" d="M 236.791932 56148.053323 
L 237.980852 56148.053323 
L 237.980852 205.982162 
L 236.791932 205.982162 
z
" style="fill:#4c72b0;fill-opacity:0.5;stroke:#4c72b0;stroke-linejoin:miter;stroke-width:0.5;"/>
   </g>
   <g id="patch_158">
    <path clip-path="url(#pdb5f222355)" d="M 237.980852 56148.053323 
L 239.169773 56148.053323 
L 239.169773 207.049092 
L 237.980852 207.049092 
z
" style="fill:#4c72b0;fill-opacity:0.5;stroke:#4c72b0;stroke-linejoin:miter;stroke-width:0.5;"/>
   </g>
   <g id="patch_159">
    <path clip-path="url(#pdb5f222355)" d="M 239.169773 56148.053323 
L 240.358693 56148.053323 
L 240.358693 206.359261 
L 239.169773 206.359261 
z
" style="fill:#4c72b0;fill-opacity:0.5;stroke:#4c72b0;stroke-linejoin:miter;stroke-width:0.5;"/>
   </g>
   <g id="patch_160">
    <path clip-path="url(#pdb5f222355)" d="M 240.358693 56148.053323 
L 241.547614 56148.053323 
L 241.547614 212.515481 
L 240.358693 212.515481 
z
" style="fill:#4c72b0;fill-opacity:0.5;stroke:#4c72b0;stroke-linejoin:miter;stroke-width:0.5;"/>
   </g>
   <g id="patch_161">
    <path clip-path="url(#pdb5f222355)" d="M 241.547614 56148.053323 
L 242.736534 56148.053323 
L 242.736534 207.258758 
L 241.547614 207.258758 
z
" style="fill:#4c72b0;fill-opacity:0.5;stroke:#4c72b0;stroke-linejoin:miter;stroke-width:0.5;"/>
   </g>
   <g id="patch_162">
    <path clip-path="url(#pdb5f222355)" d="M 242.736534 56148.053323 
L 243.925455 56148.053323 
L 243.925455 208.450051 
L 242.736534 208.450051 
z
" style="fill:#4c72b0;fill-opacity:0.5;stroke:#4c72b0;stroke-linejoin:miter;stroke-width:0.5;"/>
   </g>
   <g id="patch_163">
    <path clip-path="url(#pdb5f222355)" d="M 243.925455 56148.053323 
L 245.114375 56148.053323 
L 245.114375 206.736879 
L 243.925455 206.736879 
z
" style="fill:#4c72b0;fill-opacity:0.5;stroke:#4c72b0;stroke-linejoin:miter;stroke-width:0.5;"/>
   </g>
   <g id="patch_164">
    <path clip-path="url(#pdb5f222355)" d="M 245.114375 56148.053323 
L 246.303295 56148.053323 
L 246.303295 208.320854 
L 245.114375 208.320854 
z
" style="fill:#4c72b0;fill-opacity:0.5;stroke:#4c72b0;stroke-linejoin:miter;stroke-width:0.5;"/>
   </g>
   <g id="patch_165">
    <path clip-path="url(#pdb5f222355)" d="M 246.303295 56148.053323 
L 247.492216 56148.053323 
L 247.492216 207.033787 
L 246.303295 207.033787 
z
" style="fill:#4c72b0;fill-opacity:0.5;stroke:#4c72b0;stroke-linejoin:miter;stroke-width:0.5;"/>
   </g>
   <g id="patch_166">
    <path clip-path="url(#pdb5f222355)" d="M 247.492216 56148.053323 
L 248.681136 56148.053323 
L 248.681136 205.854744 
L 247.492216 205.854744 
z
" style="fill:#4c72b0;fill-opacity:0.5;stroke:#4c72b0;stroke-linejoin:miter;stroke-width:0.5;"/>
   </g>
   <g id="patch_167">
    <path clip-path="url(#pdb5f222355)" d="M 248.681136 56148.053323 
L 249.870057 56148.053323 
L 249.870057 210.410285 
L 248.681136 210.410285 
z
" style="fill:#4c72b0;fill-opacity:0.5;stroke:#4c72b0;stroke-linejoin:miter;stroke-width:0.5;"/>
   </g>
   <g id="patch_168">
    <path clip-path="url(#pdb5f222355)" d="M 249.870057 56148.053323 
L 251.058977 56148.053323 
L 251.058977 211.285299 
L 249.870057 211.285299 
z
" style="fill:#4c72b0;fill-opacity:0.5;stroke:#4c72b0;stroke-linejoin:miter;stroke-width:0.5;"/>
   </g>
   <g id="patch_169">
    <path clip-path="url(#pdb5f222355)" d="M 251.058977 56148.053323 
L 252.247898 56148.053323 
L 252.247898 211.1338 
L 251.058977 211.1338 
z
" style="fill:#4c72b0;fill-opacity:0.5;stroke:#4c72b0;stroke-linejoin:miter;stroke-width:0.5;"/>
   </g>
   <g id="patch_170">
    <path clip-path="url(#pdb5f222355)" d="M 252.247898 56148.053323 
L 253.436818 56148.053323 
L 253.436818 210.793563 
L 252.247898 210.793563 
z
" style="fill:#4c72b0;fill-opacity:0.5;stroke:#4c72b0;stroke-linejoin:miter;stroke-width:0.5;"/>
   </g>
   <g id="patch_171">
    <path clip-path="url(#pdb5f222355)" d="M 253.436818 56148.053323 
L 254.625739 56148.053323 
L 254.625739 195.165234 
L 253.436818 195.165234 
z
" style="fill:#4c72b0;fill-opacity:0.5;stroke:#4c72b0;stroke-linejoin:miter;stroke-width:0.5;"/>
   </g>
   <g id="patch_172">
    <path clip-path="url(#pdb5f222355)" d="M 254.625739 56148.053323 
L 255.814659 56148.053323 
L 255.814659 198.392242 
L 254.625739 198.392242 
z
" style="fill:#4c72b0;fill-opacity:0.5;stroke:#4c72b0;stroke-linejoin:miter;stroke-width:0.5;"/>
   </g>
   <g id="patch_173">
    <path clip-path="url(#pdb5f222355)" d="M 255.814659 56148.053323 
L 257.00358 56148.053323 
L 257.00358 186.013637 
L 255.814659 186.013637 
z
" style="fill:#4c72b0;fill-opacity:0.5;stroke:#4c72b0;stroke-linejoin:miter;stroke-width:0.5;"/>
   </g>
   <g id="patch_174">
    <path clip-path="url(#pdb5f222355)" d="M 257.00358 56148.053323 
L 258.1925 56148.053323 
L 258.1925 208.430943 
L 257.00358 208.430943 
z
" style="fill:#4c72b0;fill-opacity:0.5;stroke:#4c72b0;stroke-linejoin:miter;stroke-width:0.5;"/>
   </g>
   <g id="patch_175">
    <path clip-path="url(#pdb5f222355)" d="M 258.1925 56148.053323 
L 259.38142 56148.053323 
L 259.38142 206.026659 
L 258.1925 206.026659 
z
" style="fill:#4c72b0;fill-opacity:0.5;stroke:#4c72b0;stroke-linejoin:miter;stroke-width:0.5;"/>
   </g>
   <g id="patch_176">
    <path clip-path="url(#pdb5f222355)" d="M 259.38142 56148.053323 
L 260.570341 56148.053323 
L 260.570341 203.403079 
L 259.38142 203.403079 
z
" style="fill:#4c72b0;fill-opacity:0.5;stroke:#4c72b0;stroke-linejoin:miter;stroke-width:0.5;"/>
   </g>
   <g id="patch_177">
    <path clip-path="url(#pdb5f222355)" d="M 260.570341 56148.053323 
L 261.759261 56148.053323 
L 261.759261 208.10027 
L 260.570341 208.10027 
z
" style="fill:#4c72b0;fill-opacity:0.5;stroke:#4c72b0;stroke-linejoin:miter;stroke-width:0.5;"/>
   </g>
   <g id="patch_178">
    <path clip-path="url(#pdb5f222355)" d="M 261.759261 56148.053323 
L 262.948182 56148.053323 
L 262.948182 208.490885 
L 261.759261 208.490885 
z
" style="fill:#4c72b0;fill-opacity:0.5;stroke:#4c72b0;stroke-linejoin:miter;stroke-width:0.5;"/>
   </g>
   <g id="patch_179">
    <path clip-path="url(#pdb5f222355)" d="M 262.948182 56148.053323 
L 264.137102 56148.053323 
L 264.137102 207.924392 
L 262.948182 207.924392 
z
" style="fill:#4c72b0;fill-opacity:0.5;stroke:#4c72b0;stroke-linejoin:miter;stroke-width:0.5;"/>
   </g>
   <g id="patch_180">
    <path clip-path="url(#pdb5f222355)" d="M 264.137102 56148.053323 
L 265.326023 56148.053323 
L 265.326023 207.39116 
L 264.137102 207.39116 
z
" style="fill:#4c72b0;fill-opacity:0.5;stroke:#4c72b0;stroke-linejoin:miter;stroke-width:0.5;"/>
   </g>
   <g id="patch_181">
    <path clip-path="url(#pdb5f222355)" d="M 265.326023 56148.053323 
L 266.514943 56148.053323 
L 266.514943 206.529434 
L 265.326023 206.529434 
z
" style="fill:#4c72b0;fill-opacity:0.5;stroke:#4c72b0;stroke-linejoin:miter;stroke-width:0.5;"/>
   </g>
   <g id="patch_182">
    <path clip-path="url(#pdb5f222355)" d="M 266.514943 56148.053323 
L 267.703864 56148.053323 
L 267.703864 202.74432 
L 266.514943 202.74432 
z
" style="fill:#4c72b0;fill-opacity:0.5;stroke:#4c72b0;stroke-linejoin:miter;stroke-width:0.5;"/>
   </g>
   <g id="patch_183">
    <path clip-path="url(#pdb5f222355)" d="M 267.703864 56148.053323 
L 268.892784 56148.053323 
L 268.892784 206.207431 
L 267.703864 206.207431 
z
" style="fill:#4c72b0;fill-opacity:0.5;stroke:#4c72b0;stroke-linejoin:miter;stroke-width:0.5;"/>
   </g>
   <g id="patch_184">
    <path clip-path="url(#pdb5f222355)" d="M 268.892784 56148.053323 
L 270.081705 56148.053323 
L 270.081705 205.451194 
L 268.892784 205.451194 
z
" style="fill:#4c72b0;fill-opacity:0.5;stroke:#4c72b0;stroke-linejoin:miter;stroke-width:0.5;"/>
   </g>
   <g id="patch_185">
    <path clip-path="url(#pdb5f222355)" d="M 270.081705 56148.053323 
L 271.270625 56148.053323 
L 271.270625 207.828849 
L 270.081705 207.828849 
z
" style="fill:#4c72b0;fill-opacity:0.5;stroke:#4c72b0;stroke-linejoin:miter;stroke-width:0.5;"/>
   </g>
   <g id="patch_186">
    <path clip-path="url(#pdb5f222355)" d="M 271.270625 56148.053323 
L 272.459545 56148.053323 
L 272.459545 204.263024 
L 271.270625 204.263024 
z
" style="fill:#4c72b0;fill-opacity:0.5;stroke:#4c72b0;stroke-linejoin:miter;stroke-width:0.5;"/>
   </g>
   <g id="patch_187">
    <path clip-path="url(#pdb5f222355)" d="M 272.459545 56148.053323 
L 273.648466 56148.053323 
L 273.648466 205.144297 
L 272.459545 205.144297 
z
" style="fill:#4c72b0;fill-opacity:0.5;stroke:#4c72b0;stroke-linejoin:miter;stroke-width:0.5;"/>
   </g>
   <g id="patch_188">
    <path clip-path="url(#pdb5f222355)" d="M 273.648466 56148.053323 
L 274.837386 56148.053323 
L 274.837386 207.711498 
L 273.648466 207.711498 
z
" style="fill:#4c72b0;fill-opacity:0.5;stroke:#4c72b0;stroke-linejoin:miter;stroke-width:0.5;"/>
   </g>
   <g id="patch_189">
    <path clip-path="url(#pdb5f222355)" d="M 274.837386 56148.053323 
L 276.026307 56148.053323 
L 276.026307 207.423832 
L 274.837386 207.423832 
z
" style="fill:#4c72b0;fill-opacity:0.5;stroke:#4c72b0;stroke-linejoin:miter;stroke-width:0.5;"/>
   </g>
   <g id="patch_190">
    <path clip-path="url(#pdb5f222355)" d="M 276.026307 56148.053323 
L 277.215227 56148.053323 
L 277.215227 208.891896 
L 276.026307 208.891896 
z
" style="fill:#4c72b0;fill-opacity:0.5;stroke:#4c72b0;stroke-linejoin:miter;stroke-width:0.5;"/>
   </g>
   <g id="patch_191">
    <path clip-path="url(#pdb5f222355)" d="M 277.215227 56148.053323 
L 278.404148 56148.053323 
L 278.404148 203.64251 
L 277.215227 203.64251 
z
" style="fill:#4c72b0;fill-opacity:0.5;stroke:#4c72b0;stroke-linejoin:miter;stroke-width:0.5;"/>
   </g>
   <g id="patch_192">
    <path clip-path="url(#pdb5f222355)" d="M 278.404148 56148.053323 
L 279.593068 56148.053323 
L 279.593068 204.408125 
L 278.404148 204.408125 
z
" style="fill:#4c72b0;fill-opacity:0.5;stroke:#4c72b0;stroke-linejoin:miter;stroke-width:0.5;"/>
   </g>
   <g id="patch_193">
    <path clip-path="url(#pdb5f222355)" d="M 279.593068 56148.053323 
L 280.781989 56148.053323 
L 280.781989 200.437932 
L 279.593068 200.437932 
z
" style="fill:#4c72b0;fill-opacity:0.5;stroke:#4c72b0;stroke-linejoin:miter;stroke-width:0.5;"/>
   </g>
   <g id="patch_194">
    <path clip-path="url(#pdb5f222355)" d="M 280.781989 56148.053323 
L 281.970909 56148.053323 
L 281.970909 172.230936 
L 280.781989 172.230936 
z
" style="fill:#4c72b0;fill-opacity:0.5;stroke:#4c72b0;stroke-linejoin:miter;stroke-width:0.5;"/>
   </g>
   <g id="patch_195">
    <path clip-path="url(#pdb5f222355)" d="M 281.970909 56148.053323 
L 283.15983 56148.053323 
L 283.15983 203.276587 
L 281.970909 203.276587 
z
" style="fill:#4c72b0;fill-opacity:0.5;stroke:#4c72b0;stroke-linejoin:miter;stroke-width:0.5;"/>
   </g>
   <g id="patch_196">
    <path clip-path="url(#pdb5f222355)" d="M 283.15983 56148.053323 
L 284.34875 56148.053323 
L 284.34875 205.105389 
L 283.15983 205.105389 
z
" style="fill:#4c72b0;fill-opacity:0.5;stroke:#4c72b0;stroke-linejoin:miter;stroke-width:0.5;"/>
   </g>
   <g id="patch_197">
    <path clip-path="url(#pdb5f222355)" d="M 284.34875 56148.053323 
L 285.53767 56148.053323 
L 285.53767 205.185115 
L 284.34875 205.185115 
z
" style="fill:#4c72b0;fill-opacity:0.5;stroke:#4c72b0;stroke-linejoin:miter;stroke-width:0.5;"/>
   </g>
   <g id="patch_198">
    <path clip-path="url(#pdb5f222355)" d="M 285.53767 56148.053323 
L 286.726591 56148.053323 
L 286.726591 202.951733 
L 285.53767 202.951733 
z
" style="fill:#4c72b0;fill-opacity:0.5;stroke:#4c72b0;stroke-linejoin:miter;stroke-width:0.5;"/>
   </g>
   <g id="patch_199">
    <path clip-path="url(#pdb5f222355)" d="M 286.726591 56148.053323 
L 287.915511 56148.053323 
L 287.915511 200.16195 
L 286.726591 200.16195 
z
" style="fill:#4c72b0;fill-opacity:0.5;stroke:#4c72b0;stroke-linejoin:miter;stroke-width:0.5;"/>
   </g>
   <g id="patch_200">
    <path clip-path="url(#pdb5f222355)" d="M 287.915511 56148.053323 
L 289.104432 56148.053323 
L 289.104432 197.826424 
L 287.915511 197.826424 
z
" style="fill:#4c72b0;fill-opacity:0.5;stroke:#4c72b0;stroke-linejoin:miter;stroke-width:0.5;"/>
   </g>
   <g id="patch_201">
    <path clip-path="url(#pdb5f222355)" d="M 289.104432 56148.053323 
L 290.293352 56148.053323 
L 290.293352 190.400606 
L 289.104432 190.400606 
z
" style="fill:#4c72b0;fill-opacity:0.5;stroke:#4c72b0;stroke-linejoin:miter;stroke-width:0.5;"/>
   </g>
   <g id="patch_202">
    <path clip-path="url(#pdb5f222355)" d="M 290.293352 56148.053323 
L 291.482273 56148.053323 
L 291.482273 205.763255 
L 290.293352 205.763255 
z
" style="fill:#4c72b0;fill-opacity:0.5;stroke:#4c72b0;stroke-linejoin:miter;stroke-width:0.5;"/>
   </g>
   <g id="patch_203">
    <path clip-path="url(#pdb5f222355)" d="M 291.482273 56148.053323 
L 292.671193 56148.053323 
L 292.671193 206.276356 
L 291.482273 206.276356 
z
" style="fill:#4c72b0;fill-opacity:0.5;stroke:#4c72b0;stroke-linejoin:miter;stroke-width:0.5;"/>
   </g>
   <g id="patch_204">
    <path clip-path="url(#pdb5f222355)" d="M 292.671193 56148.053323 
L 293.860114 56148.053323 
L 293.860114 207.214627 
L 292.671193 207.214627 
z
" style="fill:#4c72b0;fill-opacity:0.5;stroke:#4c72b0;stroke-linejoin:miter;stroke-width:0.5;"/>
   </g>
   <g id="patch_205">
    <path clip-path="url(#pdb5f222355)" d="M 293.860114 56148.053323 
L 295.049034 56148.053323 
L 295.049034 203.734173 
L 293.860114 203.734173 
z
" style="fill:#4c72b0;fill-opacity:0.5;stroke:#4c72b0;stroke-linejoin:miter;stroke-width:0.5;"/>
   </g>
   <g id="patch_206">
    <path clip-path="url(#pdb5f222355)" d="M 295.049034 56148.053323 
L 296.237955 56148.053323 
L 296.237955 196.140983 
L 295.049034 196.140983 
z
" style="fill:#4c72b0;fill-opacity:0.5;stroke:#4c72b0;stroke-linejoin:miter;stroke-width:0.5;"/>
   </g>
   <g id="patch_207">
    <path clip-path="url(#pdb5f222355)" d="M 296.237955 56148.053323 
L 297.426875 56148.053323 
L 297.426875 205.614071 
L 296.237955 205.614071 
z
" style="fill:#4c72b0;fill-opacity:0.5;stroke:#4c72b0;stroke-linejoin:miter;stroke-width:0.5;"/>
   </g>
   <g id="patch_208">
    <path clip-path="url(#pdb5f222355)" d="M 297.426875 56148.053323 
L 298.615795 56148.053323 
L 298.615795 203.050397 
L 297.426875 203.050397 
z
" style="fill:#4c72b0;fill-opacity:0.5;stroke:#4c72b0;stroke-linejoin:miter;stroke-width:0.5;"/>
   </g>
   <g id="patch_209">
    <path clip-path="url(#pdb5f222355)" d="M 298.615795 56148.053323 
L 299.804716 56148.053323 
L 299.804716 202.13778 
L 298.615795 202.13778 
z
" style="fill:#4c72b0;fill-opacity:0.5;stroke:#4c72b0;stroke-linejoin:miter;stroke-width:0.5;"/>
   </g>
   <g id="patch_210">
    <path clip-path="url(#pdb5f222355)" d="M 299.804716 56148.053323 
L 300.993636 56148.053323 
L 300.993636 205.877228 
L 299.804716 205.877228 
z
" style="fill:#4c72b0;fill-opacity:0.5;stroke:#4c72b0;stroke-linejoin:miter;stroke-width:0.5;"/>
   </g>
   <g id="patch_211">
    <path clip-path="url(#pdb5f222355)" d="M 300.993636 56148.053323 
L 302.182557 56148.053323 
L 302.182557 207.287155 
L 300.993636 207.287155 
z
" style="fill:#4c72b0;fill-opacity:0.5;stroke:#4c72b0;stroke-linejoin:miter;stroke-width:0.5;"/>
   </g>
   <g id="patch_212">
    <path clip-path="url(#pdb5f222355)" d="M 302.182557 56148.053323 
L 303.371477 56148.053323 
L 303.371477 206.484299 
L 302.182557 206.484299 
z
" style="fill:#4c72b0;fill-opacity:0.5;stroke:#4c72b0;stroke-linejoin:miter;stroke-width:0.5;"/>
   </g>
   <g id="patch_213">
    <path clip-path="url(#pdb5f222355)" d="M 303.371477 56148.053323 
L 304.560398 56148.053323 
L 304.560398 201.313902 
L 303.371477 201.313902 
z
" style="fill:#4c72b0;fill-opacity:0.5;stroke:#4c72b0;stroke-linejoin:miter;stroke-width:0.5;"/>
   </g>
   <g id="patch_214">
    <path clip-path="url(#pdb5f222355)" d="M 304.560398 56148.053323 
L 305.749318 56148.053323 
L 305.749318 199.725863 
L 304.560398 199.725863 
z
" style="fill:#4c72b0;fill-opacity:0.5;stroke:#4c72b0;stroke-linejoin:miter;stroke-width:0.5;"/>
   </g>
   <g id="patch_215">
    <path clip-path="url(#pdb5f222355)" d="M 305.749318 56148.053323 
L 306.938239 56148.053323 
L 306.938239 200.265589 
L 305.749318 200.265589 
z
" style="fill:#4c72b0;fill-opacity:0.5;stroke:#4c72b0;stroke-linejoin:miter;stroke-width:0.5;"/>
   </g>
   <g id="patch_216">
    <path clip-path="url(#pdb5f222355)" d="M 306.938239 56148.053323 
L 308.127159 56148.053323 
L 308.127159 199.052295 
L 306.938239 199.052295 
z
" style="fill:#4c72b0;fill-opacity:0.5;stroke:#4c72b0;stroke-linejoin:miter;stroke-width:0.5;"/>
   </g>
   <g id="patch_217">
    <path clip-path="url(#pdb5f222355)" d="M 308.127159 56148.053323 
L 309.31608 56148.053323 
L 309.31608 199.007259 
L 308.127159 199.007259 
z
" style="fill:#4c72b0;fill-opacity:0.5;stroke:#4c72b0;stroke-linejoin:miter;stroke-width:0.5;"/>
   </g>
   <g id="patch_218">
    <path clip-path="url(#pdb5f222355)" d="M 309.31608 56148.053323 
L 310.505 56148.053323 
L 310.505 195.1726 
L 309.31608 195.1726 
z
" style="fill:#4c72b0;fill-opacity:0.5;stroke:#4c72b0;stroke-linejoin:miter;stroke-width:0.5;"/>
   </g>
   <g id="patch_219">
    <path clip-path="url(#pdb5f222355)" d="M 310.505 56148.053323 
L 311.69392 56148.053323 
L 311.69392 199.959675 
L 310.505 199.959675 
z
" style="fill:#4c72b0;fill-opacity:0.5;stroke:#4c72b0;stroke-linejoin:miter;stroke-width:0.5;"/>
   </g>
   <g id="patch_220">
    <path clip-path="url(#pdb5f222355)" d="M 311.69392 56148.053323 
L 312.882841 56148.053323 
L 312.882841 196.640748 
L 311.69392 196.640748 
z
" style="fill:#4c72b0;fill-opacity:0.5;stroke:#4c72b0;stroke-linejoin:miter;stroke-width:0.5;"/>
   </g>
   <g id="patch_221">
    <path clip-path="url(#pdb5f222355)" d="M 312.882841 56148.053323 
L 314.071761 56148.053323 
L 314.071761 203.195451 
L 312.882841 203.195451 
z
" style="fill:#4c72b0;fill-opacity:0.5;stroke:#4c72b0;stroke-linejoin:miter;stroke-width:0.5;"/>
   </g>
   <g id="patch_222">
    <path clip-path="url(#pdb5f222355)" d="M 314.071761 56148.053323 
L 315.260682 56148.053323 
L 315.260682 203.696357 
L 314.071761 203.696357 
z
" style="fill:#4c72b0;fill-opacity:0.5;stroke:#4c72b0;stroke-linejoin:miter;stroke-width:0.5;"/>
   </g>
   <g id="patch_223">
    <path clip-path="url(#pdb5f222355)" d="M 315.260682 56148.053323 
L 316.449602 56148.053323 
L 316.449602 202.480578 
L 315.260682 202.480578 
z
" style="fill:#4c72b0;fill-opacity:0.5;stroke:#4c72b0;stroke-linejoin:miter;stroke-width:0.5;"/>
   </g>
   <g id="patch_224">
    <path clip-path="url(#pdb5f222355)" d="M 316.449602 56148.053323 
L 317.638523 56148.053323 
L 317.638523 197.350448 
L 316.449602 197.350448 
z
" style="fill:#4c72b0;fill-opacity:0.5;stroke:#4c72b0;stroke-linejoin:miter;stroke-width:0.5;"/>
   </g>
   <g id="patch_225">
    <path clip-path="url(#pdb5f222355)" d="M 317.638523 56148.053323 
L 318.827443 56148.053323 
L 318.827443 197.500511 
L 317.638523 197.500511 
z
" style="fill:#4c72b0;fill-opacity:0.5;stroke:#4c72b0;stroke-linejoin:miter;stroke-width:0.5;"/>
   </g>
   <g id="patch_226">
    <path clip-path="url(#pdb5f222355)" d="M 318.827443 56148.053323 
L 320.016364 56148.053323 
L 320.016364 197.152257 
L 318.827443 197.152257 
z
" style="fill:#4c72b0;fill-opacity:0.5;stroke:#4c72b0;stroke-linejoin:miter;stroke-width:0.5;"/>
   </g>
   <g id="patch_227">
    <path clip-path="url(#pdb5f222355)" d="M 320.016364 56148.053323 
L 321.205284 56148.053323 
L 321.205284 199.420334 
L 320.016364 199.420334 
z
" style="fill:#4c72b0;fill-opacity:0.5;stroke:#4c72b0;stroke-linejoin:miter;stroke-width:0.5;"/>
   </g>
   <g id="patch_228">
    <path clip-path="url(#pdb5f222355)" d="M 321.205284 56148.053323 
L 322.394205 56148.053323 
L 322.394205 195.19505 
L 321.205284 195.19505 
z
" style="fill:#4c72b0;fill-opacity:0.5;stroke:#4c72b0;stroke-linejoin:miter;stroke-width:0.5;"/>
   </g>
   <g id="patch_229">
    <path clip-path="url(#pdb5f222355)" d="M 322.394205 56148.053323 
L 323.583125 56148.053323 
L 323.583125 182.908849 
L 322.394205 182.908849 
z
" style="fill:#4c72b0;fill-opacity:0.5;stroke:#4c72b0;stroke-linejoin:miter;stroke-width:0.5;"/>
   </g>
   <g id="patch_230">
    <path clip-path="url(#pdb5f222355)" d="M 323.583125 56148.053323 
L 324.772045 56148.053323 
L 324.772045 196.347517 
L 323.583125 196.347517 
z
" style="fill:#4c72b0;fill-opacity:0.5;stroke:#4c72b0;stroke-linejoin:miter;stroke-width:0.5;"/>
   </g>
   <g id="patch_231">
    <path clip-path="url(#pdb5f222355)" d="M 324.772045 56148.053323 
L 325.960966 56148.053323 
L 325.960966 193.577502 
L 324.772045 193.577502 
z
" style="fill:#4c72b0;fill-opacity:0.5;stroke:#4c72b0;stroke-linejoin:miter;stroke-width:0.5;"/>
   </g>
   <g id="patch_232">
    <path clip-path="url(#pdb5f222355)" d="M 325.960966 56148.053323 
L 327.149886 56148.053323 
L 327.149886 199.018187 
L 325.960966 199.018187 
z
" style="fill:#4c72b0;fill-opacity:0.5;stroke:#4c72b0;stroke-linejoin:miter;stroke-width:0.5;"/>
   </g>
   <g id="patch_233">
    <path clip-path="url(#pdb5f222355)" d="M 327.149886 56148.053323 
L 328.338807 56148.053323 
L 328.338807 198.310023 
L 327.149886 198.310023 
z
" style="fill:#4c72b0;fill-opacity:0.5;stroke:#4c72b0;stroke-linejoin:miter;stroke-width:0.5;"/>
   </g>
   <g id="patch_234">
    <path clip-path="url(#pdb5f222355)" d="M 328.338807 56148.053323 
L 329.527727 56148.053323 
L 329.527727 191.246819 
L 328.338807 191.246819 
z
" style="fill:#4c72b0;fill-opacity:0.5;stroke:#4c72b0;stroke-linejoin:miter;stroke-width:0.5;"/>
   </g>
   <g id="patch_235">
    <path clip-path="url(#pdb5f222355)" d="M 329.527727 56148.053323 
L 330.716648 56148.053323 
L 330.716648 194.556515 
L 329.527727 194.556515 
z
" style="fill:#4c72b0;fill-opacity:0.5;stroke:#4c72b0;stroke-linejoin:miter;stroke-width:0.5;"/>
   </g>
   <g id="patch_236">
    <path clip-path="url(#pdb5f222355)" d="M 330.716648 56148.053323 
L 331.905568 56148.053323 
L 331.905568 189.192795 
L 330.716648 189.192795 
z
" style="fill:#4c72b0;fill-opacity:0.5;stroke:#4c72b0;stroke-linejoin:miter;stroke-width:0.5;"/>
   </g>
   <g id="patch_237">
    <path clip-path="url(#pdb5f222355)" d="M 331.905568 56148.053323 
L 333.094489 56148.053323 
L 333.094489 191.628242 
L 331.905568 191.628242 
z
" style="fill:#4c72b0;fill-opacity:0.5;stroke:#4c72b0;stroke-linejoin:miter;stroke-width:0.5;"/>
   </g>
   <g id="patch_238">
    <path clip-path="url(#pdb5f222355)" d="M 333.094489 56148.053323 
L 334.283409 56148.053323 
L 334.283409 195.427431 
L 333.094489 195.427431 
z
" style="fill:#4c72b0;fill-opacity:0.5;stroke:#4c72b0;stroke-linejoin:miter;stroke-width:0.5;"/>
   </g>
   <g id="patch_239">
    <path clip-path="url(#pdb5f222355)" d="M 334.283409 56148.053323 
L 335.47233 56148.053323 
L 335.47233 193.759234 
L 334.283409 193.759234 
z
" style="fill:#4c72b0;fill-opacity:0.5;stroke:#4c72b0;stroke-linejoin:miter;stroke-width:0.5;"/>
   </g>
   <g id="patch_240">
    <path clip-path="url(#pdb5f222355)" d="M 335.47233 56148.053323 
L 336.66125 56148.053323 
L 336.66125 193.654012 
L 335.47233 193.654012 
z
" style="fill:#4c72b0;fill-opacity:0.5;stroke:#4c72b0;stroke-linejoin:miter;stroke-width:0.5;"/>
   </g>
   <g id="patch_241">
    <path clip-path="url(#pdb5f222355)" d="M 336.66125 56148.053323 
L 337.85017 56148.053323 
L 337.85017 197.511614 
L 336.66125 197.511614 
z
" style="fill:#4c72b0;fill-opacity:0.5;stroke:#4c72b0;stroke-linejoin:miter;stroke-width:0.5;"/>
   </g>
   <g id="patch_242">
    <path clip-path="url(#pdb5f222355)" d="M 337.85017 56148.053323 
L 339.039091 56148.053323 
L 339.039091 197.364455 
L 337.85017 197.364455 
z
" style="fill:#4c72b0;fill-opacity:0.5;stroke:#4c72b0;stroke-linejoin:miter;stroke-width:0.5;"/>
   </g>
   <g id="patch_243">
    <path clip-path="url(#pdb5f222355)" d="M 339.039091 56148.053323 
L 340.228011 56148.053323 
L 340.228011 191.258134 
L 339.039091 191.258134 
z
" style="fill:#4c72b0;fill-opacity:0.5;stroke:#4c72b0;stroke-linejoin:miter;stroke-width:0.5;"/>
   </g>
   <g id="patch_244">
    <path clip-path="url(#pdb5f222355)" d="M 340.228011 56148.053323 
L 341.416932 56148.053323 
L 341.416932 188.527105 
L 340.228011 188.527105 
z
" style="fill:#4c72b0;fill-opacity:0.5;stroke:#4c72b0;stroke-linejoin:miter;stroke-width:0.5;"/>
   </g>
   <g id="patch_245">
    <path clip-path="url(#pdb5f222355)" d="M 341.416932 56148.053323 
L 342.605852 56148.053323 
L 342.605852 193.208533 
L 341.416932 193.208533 
z
" style="fill:#4c72b0;fill-opacity:0.5;stroke:#4c72b0;stroke-linejoin:miter;stroke-width:0.5;"/>
   </g>
   <g id="patch_246">
    <path clip-path="url(#pdb5f222355)" d="M 342.605852 56148.053323 
L 343.794773 56148.053323 
L 343.794773 189.542138 
L 342.605852 189.542138 
z
" style="fill:#4c72b0;fill-opacity:0.5;stroke:#4c72b0;stroke-linejoin:miter;stroke-width:0.5;"/>
   </g>
   <g id="patch_247">
    <path clip-path="url(#pdb5f222355)" d="M 343.794773 56148.053323 
L 344.983693 56148.053323 
L 344.983693 189.350457 
L 343.794773 189.350457 
z
" style="fill:#4c72b0;fill-opacity:0.5;stroke:#4c72b0;stroke-linejoin:miter;stroke-width:0.5;"/>
   </g>
   <g id="patch_248">
    <path clip-path="url(#pdb5f222355)" d="M 344.983693 56148.053323 
L 346.172614 56148.053323 
L 346.172614 190.820728 
L 344.983693 190.820728 
z
" style="fill:#4c72b0;fill-opacity:0.5;stroke:#4c72b0;stroke-linejoin:miter;stroke-width:0.5;"/>
   </g>
   <g id="patch_249">
    <path clip-path="url(#pdb5f222355)" d="M 346.172614 56148.053323 
L 347.361534 56148.053323 
L 347.361534 191.408484 
L 346.172614 191.408484 
z
" style="fill:#4c72b0;fill-opacity:0.5;stroke:#4c72b0;stroke-linejoin:miter;stroke-width:0.5;"/>
   </g>
   <g id="patch_250">
    <path clip-path="url(#pdb5f222355)" d="M 347.361534 56148.053323 
L 348.550455 56148.053323 
L 348.550455 187.873931 
L 347.361534 187.873931 
z
" style="fill:#4c72b0;fill-opacity:0.5;stroke:#4c72b0;stroke-linejoin:miter;stroke-width:0.5;"/>
   </g>
   <g id="patch_251">
    <path clip-path="url(#pdb5f222355)" d="M 348.550455 56148.053323 
L 349.739375 56148.053323 
L 349.739375 190.240887 
L 348.550455 190.240887 
z
" style="fill:#4c72b0;fill-opacity:0.5;stroke:#4c72b0;stroke-linejoin:miter;stroke-width:0.5;"/>
   </g>
   <g id="patch_252">
    <path clip-path="url(#pdb5f222355)" d="M 349.739375 56148.053323 
L 350.928295 56148.053323 
L 350.928295 188.291464 
L 349.739375 188.291464 
z
" style="fill:#4c72b0;fill-opacity:0.5;stroke:#4c72b0;stroke-linejoin:miter;stroke-width:0.5;"/>
   </g>
   <g id="patch_253">
    <path clip-path="url(#pdb5f222355)" d="M 350.928295 56148.053323 
L 352.117216 56148.053323 
L 352.117216 182.381397 
L 350.928295 182.381397 
z
" style="fill:#4c72b0;fill-opacity:0.5;stroke:#4c72b0;stroke-linejoin:miter;stroke-width:0.5;"/>
   </g>
   <g id="patch_254">
    <path clip-path="url(#pdb5f222355)" d="M 352.117216 56148.053323 
L 353.306136 56148.053323 
L 353.306136 152.413079 
L 352.117216 152.413079 
z
" style="fill:#4c72b0;fill-opacity:0.5;stroke:#4c72b0;stroke-linejoin:miter;stroke-width:0.5;"/>
   </g>
   <g id="patch_255">
    <path clip-path="url(#pdb5f222355)" d="M 353.306136 56148.053323 
L 354.495057 56148.053323 
L 354.495057 113.467157 
L 353.306136 113.467157 
z
" style="fill:#4c72b0;fill-opacity:0.5;stroke:#4c72b0;stroke-linejoin:miter;stroke-width:0.5;"/>
   </g>
   <g id="patch_256">
    <path clip-path="url(#pdb5f222355)" d="M 354.495057 56148.053323 
L 355.683977 56148.053323 
L 355.683977 100.984708 
L 354.495057 100.984708 
z
" style="fill:#4c72b0;fill-opacity:0.5;stroke:#4c72b0;stroke-linejoin:miter;stroke-width:0.5;"/>
   </g>
   <g id="patch_257">
    <path clip-path="url(#pdb5f222355)" d="M 355.683977 56148.053323 
L 356.872898 56148.053323 
L 356.872898 110.166163 
L 355.683977 110.166163 
z
" style="fill:#4c72b0;fill-opacity:0.5;stroke:#4c72b0;stroke-linejoin:miter;stroke-width:0.5;"/>
   </g>
   <g id="patch_258">
    <path clip-path="url(#pdb5f222355)" d="M 356.872898 56148.053323 
L 358.061818 56148.053323 
L 358.061818 127.029138 
L 356.872898 127.029138 
z
" style="fill:#4c72b0;fill-opacity:0.5;stroke:#4c72b0;stroke-linejoin:miter;stroke-width:0.5;"/>
   </g>
   <g id="patch_259">
    <path d="M 38.48 225.515602 
L 38.48 8.075602 
" style="fill:none;stroke:#ffffff;stroke-linecap:square;stroke-linejoin:miter;stroke-width:1.25;"/>
   </g>
   <g id="patch_260">
    <path d="M 373.28 225.515602 
L 373.28 8.075602 
" style="fill:none;stroke:#ffffff;stroke-linecap:square;stroke-linejoin:miter;stroke-width:1.25;"/>
   </g>
   <g id="patch_261">
    <path d="M 38.48 225.515602 
L 373.28 225.515602 
" style="fill:none;stroke:#ffffff;stroke-linecap:square;stroke-linejoin:miter;stroke-width:1.25;"/>
   </g>
   <g id="patch_262">
    <path d="M 38.48 8.075602 
L 373.28 8.075602 
" style="fill:none;stroke:#ffffff;stroke-linecap:square;stroke-linejoin:miter;stroke-width:1.25;"/>
   </g>
  </g>
 </g>
 <defs>
  <clipPath id="pdb5f222355">
   <rect height="217.44" width="334.8" x="38.48" y="8.075602"/>
  </clipPath>
 </defs>
</svg>
