<?xml version="1.0" encoding="UTF-8" standalone="no"?>
<!-- Created with Inkscape (http://www.inkscape.org/) -->

<svg
   version="1.1"
   id="svg1"
   width="632.36133"
   height="13.284"
   viewBox="0 0 632.36133 13.284"
   xmlns="http://www.w3.org/2000/svg"
   xmlns:svg="http://www.w3.org/2000/svg">
  <defs
     id="defs1" />
  <g
     id="g1">
    <path
       id="path1"
       d="M 2.5429688,2.4947969 V 2.0963594 H 1.5703125 V -7.0794219 H 2.5429688 V -7.4778594 H 1.171875 v 9.9726563 z m 5.5576171,-2.49609378 v -0.3046875 c -0.515625,0 -0.7734375,0 -0.7851562,-0.3046875 V -2.5091094 c 0,-0.8554687 0,-1.171875 -0.3046875,-1.5234375 -0.140625,-0.1757812 -0.46875,-0.375 -1.0429688,-0.375 -0.84375,0 -1.2773437,0.5976563 -1.4414062,0.9609375 v -3.46875 l -1.4414063,0.1054688 v 0.3164062 c 0.703125,0 0.7851563,0.070312 0.7851563,0.5507813 v 5.17968747 c 0,0.45703125 -0.1171875,0.45703125 -0.7851563,0.45703125 v 0.3046875 l 1.125,-0.03515625 1.1132813,0.03515625 v -0.3046875 c -0.65625,0 -0.7734375,0 -0.7734375,-0.45703125 V -2.5911406 c 0,-1.03125 0.7148437,-1.59375 1.3476562,-1.59375 0.6210938,0 0.7382813,0.5390625 0.7382813,1.1015625 v 2.32031247 c 0,0.45703125 -0.1171875,0.45703125 -0.7734375,0.45703125 v 0.3046875 l 1.125,-0.03515625 z M 12.445313,-1.1848906 c 0,-0.1054688 -0.08203,-0.1171875 -0.128907,-0.1171875 -0.09375,0 -0.117187,0.058594 -0.128906,0.140625 -0.351562,1.01953122 -1.253906,1.01953122 -1.347656,1.01953122 -0.503906,0 -0.902344,-0.29296875 -1.1250002,-0.66796875 C 9.4101563,-1.2903594 9.4101563,-1.9466094 9.4101563,-2.2981719 h 2.7890627 c 0.210937,0 0.246094,0 0.246094,-0.2109375 0,-0.984375 -0.539063,-1.9570312 -1.78125,-1.9570312 -1.1601567,0 -2.0742192,1.03125 -2.0742192,2.2734375 0,1.33593747 1.0429687,2.29687497 2.1914062,2.29687497 1.21875,0 1.664063,-1.1015625 1.664063,-1.28906247 z m -0.65625,-1.3242188 H 9.421875 c 0.058594,-1.4882812 0.902344,-1.734375 1.242188,-1.734375 1.019531,0 1.125,1.3476563 1.125,1.734375 z m 3.404296,2.50781252 v -0.3046875 c -0.65625,0 -0.703125,-0.0585938 -0.703125,-0.4453125 V -4.4075469 l -1.394531,0.1171875 v 0.3046875 c 0.65625,0 0.738281,0.058594 0.738281,0.5507813 v 2.67187497 c 0,0.45703125 -0.105468,0.45703125 -0.773437,0.45703125 v 0.3046875 l 1.101562,-0.03515625 c 0.339844,0 0.691407,0.0234375 1.03125,0.03515625 z M 14.642578,-6.0130156 c 0,-0.2695313 -0.222656,-0.5273438 -0.527344,-0.5273438 -0.339843,0 -0.539062,0.2695313 -0.539062,0.5273438 0,0.2695312 0.234375,0.5273437 0.527344,0.5273437 0.339843,0 0.539062,-0.28125 0.539062,-0.5273437 z m 5.686524,1.9921875 c 0,-0.1757813 -0.117188,-0.4921875 -0.503907,-0.4921875 -0.199218,0 -0.632812,0.058594 -1.054687,0.46875 -0.421875,-0.328125 -0.84375,-0.3632813 -1.054688,-0.3632813 -0.925781,0 -1.617187,0.6914063 -1.617187,1.453125 0,0.4453125 0.222656,0.8203125 0.46875,1.03125 -0.128906,0.1523438 -0.304688,0.4804688 -0.304688,0.8203125 0,0.31640627 0.128907,0.69140627 0.433594,0.89062502 -0.597656,0.17578125 -0.914062,0.59765625 -0.914062,0.99609375 0,0.71484373 0.984375,1.26562503 2.203125,1.26562503 1.171875,0 2.203125,-0.5039063 2.203125,-1.28906253 0,-0.33984375 -0.140625,-0.85546875 -0.644532,-1.125 -0.527343,-0.28125 -1.101562,-0.28125 -1.710937,-0.28125 -0.246094,0 -0.679688,0 -0.75,-0.0117188 -0.316406,-0.046875 -0.527344,-0.35156247 -0.527344,-0.66796867 0,-0.035156 0,-0.2695313 0.175781,-0.46875 0.386719,0.28125 0.796875,0.3046875 0.984375,0.3046875 0.925782,0 1.605469,-0.6796875 1.605469,-1.4531251 0,-0.3632813 -0.152344,-0.7382813 -0.398437,-0.9609375 0.351562,-0.3398437 0.714843,-0.3867187 0.890625,-0.3867187 0,0 0.07031,0 0.105468,0 -0.117187,0.046875 -0.164062,0.1523438 -0.164062,0.2695313 0,0.1757811 0.128906,0.2929686 0.292969,0.2929686 0.09375,0 0.28125,-0.070312 0.28125,-0.2929686 z m -1.746094,1.0664062 c 0,0.2695313 -0.01172,0.5976563 -0.164063,0.84375 -0.08203,0.1171875 -0.304687,0.3984375 -0.703125,0.3984375 -0.867187,0 -0.867187,-0.9960937 -0.867187,-1.2304687 0,-0.2695313 0.01172,-0.5859375 0.152344,-0.8320313 0.08203,-0.1171875 0.316406,-0.3984375 0.714843,-0.3984375 0.867188,0 0.867188,0.9960938 0.867188,1.21875 z m 1.089844,3.73828127 c 0,0.53906253 -0.703125,1.04296873 -1.675782,1.04296873 -1.007812,0 -1.699218,-0.515625 -1.699218,-1.04296873 0,-0.45703125 0.375,-0.8203125 0.820312,-0.85546875 h 0.585938 c 0.855468,0 1.96875,0 1.96875,0.85546875 z m 6.143554,-0.78515625 v -0.3046875 c -0.515625,0 -0.773437,0 -0.785156,-0.3046875 V -2.5091094 c 0,-0.8554687 0,-1.171875 -0.304688,-1.5234375 -0.140625,-0.1757812 -0.46875,-0.375 -1.042968,-0.375 -0.84375,0 -1.277344,0.5976563 -1.441407,0.9609375 v -3.46875 l -1.441406,0.1054688 v 0.3164062 c 0.703125,0 0.785156,0.070312 0.785156,0.5507813 v 5.17968747 c 0,0.45703125 -0.117187,0.45703125 -0.785156,0.45703125 v 0.3046875 l 1.125,-0.03515625 1.113281,0.03515625 v -0.3046875 c -0.65625,0 -0.773437,0 -0.773437,-0.45703125 V -2.5911406 c 0,-1.03125 0.714844,-1.59375 1.347656,-1.59375 0.621094,0 0.738281,0.5390625 0.738281,1.1015625 v 2.32031247 c 0,0.45703125 -0.117187,0.45703125 -0.773437,0.45703125 v 0.3046875 l 1.125,-0.03515625 z m 3.231446,-1.23046872 v -0.5742188 h -0.246094 v 0.5507813 c 0,0.73828122 -0.304688,1.11328122 -0.667969,1.11328122 -0.667969,0 -0.667969,-0.90234372 -0.667969,-1.07812502 v -2.765625 h 1.429688 V -4.2903594 H 27.46582 v -1.8398437 h -0.246093 c -0.01172,0.8203125 -0.316407,1.8867187 -1.289063,1.921875 v 0.2226562 h 0.84375 v 2.7539063 c 0,1.21874997 0.925781,1.33593747 1.289063,1.33593747 0.703125,0 0.984375,-0.703125 0.984375,-1.33593747 z m 7.754882,-2.2265625 c 0,-0.1992188 -0.1875,-0.1992188 -0.328125,-0.1992188 h -5.964843 c -0.140625,0 -0.328125,0 -0.328125,0.1992188 0,0.1992187 0.1875,0.1992187 0.339843,0.1992187 h 5.941407 c 0.152343,0 0.339843,0 0.339843,-0.1992187 z m 0,1.9335937 c 0,-0.1992187 -0.1875,-0.1992187 -0.339843,-0.1992187 h -5.941407 c -0.152343,0 -0.339843,0 -0.339843,0.1992187 0,0.1992188 0.1875,0.1992188 0.328125,0.1992188 h 5.964843 c 0.140625,0 0.328125,0 0.328125,-0.1992188 z m 5.044922,-0.2109375 h -0.257812 c -0.04687,0.3046875 -0.117188,0.73828127 -0.210938,0.89062502 -0.07031,0.0820313 -0.726562,0.0820313 -0.949219,0.0820313 h -1.792968 l 1.054687,-1.03124992 c 1.558594,-1.3710939 2.15625,-1.9101564 2.15625,-2.9062501 0,-1.1367187 -0.902344,-1.9335937 -2.121094,-1.9335937 -1.125,0 -1.851562,0.9140625 -1.851562,1.8046875 0,0.5507812 0.492187,0.5507812 0.527344,0.5507812 0.164062,0 0.515625,-0.1171875 0.515625,-0.5273437 0,-0.2578125 -0.1875,-0.515625 -0.527344,-0.515625 -0.08203,0 -0.105469,0 -0.128906,0.011719 0.222656,-0.6445313 0.761718,-1.0195313 1.335937,-1.0195313 0.914063,0 1.335938,0.8085938 1.335938,1.6289063 0,0.7968749 -0.492188,1.5820312 -1.042969,2.2031249 l -1.910156,2.13281252 C 37.875,-0.25910938 37.875,-0.23567188 37.875,-0.00129688 h 3.691406 z m 2.085938,4.2304688 v -9.9726563 h -1.359375 v 0.3984375 h 0.960937 v 9.1757813 h -0.960937 v 0.3984375 z m 7.048828,0 V 2.0963594 h -0.972656 v -9.1757813 h 0.972656 v -0.3984375 h -1.371094 v 9.9726563 z m 4.362305,-3.6796875 c 0,-0.1054688 -0.105469,-0.1054688 -0.128907,-0.1054688 -0.09375,0 -0.117187,0.046875 -0.128906,0.1054688 -0.292969,0.92578122 -0.9375,1.04296872 -1.3125,1.04296872 -0.527344,0 -1.40625,-0.421875 -1.40625,-2.02734372 0,-1.6289063 0.820313,-2.0507813 1.347656,-2.0507813 0.09375,0 0.714844,0.011719 1.066407,0.375 -0.410157,0.023437 -0.46875,0.328125 -0.46875,0.4570313 0,0.2578125 0.1875,0.4570312 0.457031,0.4570312 0.257812,0 0.457031,-0.1640625 0.457031,-0.46875 0,-0.6796875 -0.75,-1.0664062 -1.523437,-1.0664062 -1.242188,0 -2.15625,1.078125 -2.15625,2.3085937 0,1.27734377 0.984375,2.26171877 2.144531,2.26171877 1.335937,0 1.652344,-1.19531247 1.652344,-1.28906247 z m 4.974609,-0.9492188 c 0,-1.2773437 -0.996094,-2.3320312 -2.191406,-2.3320312 -1.253907,0 -2.214844,1.0898437 -2.214844,2.3320312 0,1.28906252 1.03125,2.23828127 2.203125,2.23828127 1.207031,0 2.203125,-0.97265625 2.203125,-2.23828127 z m -0.820313,-0.082031 c 0,0.3632812 0,0.9023437 -0.222656,1.33593747 -0.222656,0.4453125 -0.65625,0.73828125 -1.148437,0.73828125 -0.433594,0 -0.867188,-0.2109375 -1.136719,-0.66796875 -0.257813,-0.43359377 -0.257813,-1.04296877 -0.257813,-1.40624997 0,-0.3867188 0,-0.9257813 0.246094,-1.359375 0.269531,-0.4570313 0.738281,-0.6679688 1.136719,-0.6679688 0.433594,0 0.867187,0.2226563 1.125,0.6445313 0.257812,0.4335937 0.257812,1.0078125 0.257812,1.3828125 z m 6.445313,2.21484372 v -0.3046875 c -0.703125,0 -0.785156,-0.0703125 -0.785156,-0.5625 V -4.4075469 l -1.453125,0.1171875 v 0.3046875 c 0.691406,0 0.773437,0.070312 0.773437,0.5625 v 1.7695313 c 0,0.86718747 -0.480469,1.54687497 -1.207031,1.54687497 -0.832031,0 -0.878906,-0.46875 -0.878906,-0.99609377 v -3.3046875 l -1.464844,0.1171875 v 0.3046875 c 0.785156,0 0.785156,0.035156 0.785156,0.9140625 v 1.5 c 0,0.77343752 0,1.67578127 1.511719,1.67578127 0.550781,0 0.996094,-0.26953125 1.277344,-0.890625 v 0.890625 z m 5.540039,0 v -0.3046875 c -0.515625,0 -0.773438,0 -0.785156,-0.3046875 V -2.5091094 c 0,-0.8554687 0,-1.171875 -0.304688,-1.5234375 -0.140625,-0.1757812 -0.46875,-0.375 -1.042969,-0.375 -0.726562,0 -1.195312,0.4335938 -1.476562,1.0546875 v -1.0546875 l -1.40625,0.1171875 v 0.3046875 c 0.703125,0 0.785156,0.070312 0.785156,0.5625 v 2.66015627 c 0,0.45703125 -0.117187,0.45703125 -0.785156,0.45703125 v 0.3046875 l 1.125,-0.03515625 1.113281,0.03515625 v -0.3046875 c -0.65625,0 -0.773437,0 -0.773437,-0.45703125 V -2.5911406 c 0,-1.03125 0.714843,-1.59375 1.347656,-1.59375 0.621094,0 0.738281,0.5390625 0.738281,1.1015625 v 2.32031247 c 0,0.45703125 -0.117187,0.45703125 -0.773437,0.45703125 v 0.3046875 l 1.125,-0.03515625 z M 74.71582,-1.2317656 v -0.5742188 h -0.246093 v 0.5507813 c 0,0.73828122 -0.304688,1.11328122 -0.667969,1.11328122 -0.667969,0 -0.667969,-0.90234372 -0.667969,-1.07812502 v -2.765625 h 1.429688 v -0.3046875 h -1.429688 v -1.8398437 h -0.246094 c -0.01172,0.8203125 -0.316406,1.8867187 -1.289062,1.921875 v 0.2226562 h 0.84375 v 2.7539063 c 0,1.21874997 0.925781,1.33593747 1.289062,1.33593747 0.703125,0 0.984375,-0.703125 0.984375,-1.33593747 z m 7.754883,-2.2265625 c 0,-0.1992188 -0.1875,-0.1992188 -0.328125,-0.1992188 h -5.964844 c -0.140625,0 -0.328125,0 -0.328125,0.1992188 0,0.1992187 0.1875,0.1992187 0.339844,0.1992187 h 5.941406 c 0.152344,0 0.339844,0 0.339844,-0.1992187 z m 0,1.9335937 c 0,-0.1992187 -0.1875,-0.1992187 -0.339844,-0.1992187 h -5.941406 c -0.152344,0 -0.339844,0 -0.339844,0.1992187 0,0.1992188 0.1875,0.1992188 0.328125,0.1992188 h 5.964844 c 0.140625,0 0.328125,0 0.328125,-0.1992188 z m 5.255859,-0.1171875 v -0.3164062 h -0.996093 v -4.5234375 c 0,-0.1992188 0,-0.2578125 -0.152344,-0.2578125 -0.09375,0 -0.117188,0 -0.199219,0.1171875 l -3.058594,4.6640625 v 0.3164062 h 2.648438 v 0.86718752 c 0,0.3515625 -0.02344,0.46875 -0.761719,0.46875 h -0.210937 v 0.3046875 c 0.410156,-0.03515625 0.9375,-0.03515625 1.347656,-0.03515625 0.421875,0 0.949219,0 1.359375,0.03515625 v -0.3046875 h -0.210938 c -0.738281,0 -0.761718,-0.1171875 -0.761718,-0.46875 V -1.6419219 Z m -1.699218,-0.3164062 h -2.425782 l 2.425782,-3.7148438 z m 4.019531,1.94531247 c 0,-0.6328125 -0.246094,-1.04296877 -0.644531,-1.04296877 -0.351563,0 -0.527344,0.26953127 -0.527344,0.52734377 0,0.2578125 0.175781,0.52734375 0.527344,0.52734375 0.152343,0 0.292968,-0.05859375 0.398437,-0.1640625 0.02344,0.796875 -0.257812,1.39453128 -0.691406,1.86328128 -0.05859,0.058594 -0.07031,0.070312 -0.07031,0.1171875 0,0.070312 0.04687,0.1054687 0.09375,0.1054687 0.117188,0 0.914063,-0.7851562 0.914063,-1.93359373 z m 9.251953,-2.14453127 c 0,-1.265625 -0.972656,-2.25 -2.109375,-2.25 -0.785156,0 -1.207031,0.46875 -1.371094,0.65625 v -3.1640625 l -1.429687,0.1054688 v 0.3164062 c 0.691406,0 0.773437,0.070312 0.773437,0.5507813 v 5.94140622 h 0.246094 l 0.363281,-0.62109375 c 0.152344,0.234375 0.5625,0.7265625 1.300782,0.7265625 1.183593,0 2.226562,-0.97265625 2.226562,-2.26171877 z m -0.832031,0 c 0,0.3632813 -0.01172,0.9609375 -0.304688,1.40625002 -0.210937,0.31640625 -0.585937,0.64453125 -1.125,0.64453125 -0.445312,0 -0.808593,-0.24609375 -1.042968,-0.609375 -0.140625,-0.2109375 -0.140625,-0.24609375 -0.140625,-0.42187497 v -2.0507813 c 0,-0.1875 0,-0.1992187 0.105468,-0.3632812 0.386719,-0.5507813 0.9375,-0.6328125 1.171875,-0.6328125 0.457032,0 0.808594,0.2578125 1.054688,0.6328125 0.257812,0.4101562 0.28125,0.984375 0.28125,1.3945312 z m 3.641603,2.15625002 v -0.3046875 c -0.65625,0 -0.70313,-0.0585938 -0.70313,-0.4453125 V -4.4075469 l -1.39453,0.1171875 v 0.3046875 c 0.65625,0 0.73828,0.058594 0.73828,0.5507813 v 2.67187497 c 0,0.45703125 -0.10547,0.45703125 -0.773434,0.45703125 v 0.3046875 l 1.101564,-0.03515625 c 0.33984,0 0.6914,0.0234375 1.03125,0.03515625 z m -0.55078,-6.01171872 c 0,-0.2695313 -0.22266,-0.5273438 -0.52735,-0.5273438 -0.33984,0 -0.53906,0.2695313 -0.53906,0.5273438 0,0.2695312 0.23438,0.5273437 0.52734,0.5273437 0.33985,0 0.53907,-0.28125 0.53907,-0.5273437 z m 5.6748,5.12109372 V -1.4427031 h -0.25781 v 0.55078122 c 0,0.5859375 -0.24609,0.64453125 -0.35156,0.64453125 -0.32813,0 -0.375,-0.45703125 -0.375,-0.50390625 V -2.7434844 c 0,-0.4101562 0,-0.8085937 -0.35157,-1.171875 -0.38671,-0.3867187 -0.89062,-0.5507812 -1.37109,-0.5507812 -0.80859,0 -1.5,0.46875 -1.5,1.125 0,0.3046875 0.19922,0.46875 0.45703,0.46875 0.28125,0 0.45703,-0.1992188 0.45703,-0.4570313 0,-0.1171875 -0.0469,-0.4453125 -0.5039,-0.4570312 0.26953,-0.3515625 0.75,-0.4570313 1.07812,-0.4570313 0.48047,0 1.05469,0.3867188 1.05469,1.2773438 v 0.3632812 c -0.51563,0.035156 -1.20703,0.058594 -1.83984,0.3632813 -0.75,0.3398437 -0.9961,0.8554687 -0.9961,1.28906247 0,0.80859375 0.97266,1.0546875 1.59375,1.0546875 0.65625,0 1.11328,-0.3984375 1.3125,-0.8671875 0.0352,0.3984375 0.30469,0.8203125 0.77344,0.8203125 0.21094,0 0.82031,-0.140625 0.82031,-0.94921875 z m -1.66406,-0.50390622 c 0,0.94921872 -0.72656,1.28906247 -1.17188,1.28906247 -0.48046,0 -0.89062,-0.3515625 -0.89062,-0.85546875 0,-0.53906252 0.41016,-1.37109372 2.0625,-1.42968752 z m 5.41406,0.1171875 c 0,-0.5273438 -0.29297,-0.8203125 -0.42187,-0.9492188 -0.32813,-0.3164062 -0.71485,-0.3984375 -1.13672,-0.46875 -0.55078,-0.1171875 -1.21875,-0.2460937 -1.21875,-0.8203125 0,-0.3515625 0.25781,-0.7617187 1.11328,-0.7617187 1.10156,0 1.14844,0.9023437 1.17187,1.2070312 0,0.09375 0.11719,0.09375 0.11719,0.09375 0.12891,0 0.12891,-0.046875 0.12891,-0.2460937 v -0.9960938 c 0,-0.1757812 0,-0.2460937 -0.11719,-0.2460937 -0.0469,0 -0.0703,0 -0.19922,0.1171875 -0.0234,0.046875 -0.1289,0.1289062 -0.16406,0.1640625 -0.375,-0.28125 -0.78516,-0.28125 -0.9375,-0.28125 -1.21875,0 -1.59375,0.6679687 -1.59375,1.2304687 0,0.3398438 0.16406,0.6210938 0.43359,0.84375 0.31641,0.2578125 0.59766,0.3164063 1.3125,0.4570313 0.22266,0.035156 1.03125,0.1992187 1.03125,0.9140625 0,0.51562497 -0.35156,0.91406247 -1.125,0.91406247 -0.83203,0 -1.19531,-0.57421875 -1.38281,-1.41796877 -0.0352,-0.1289062 -0.0352,-0.1757812 -0.14062,-0.1757812 -0.12891,0 -0.12891,0.070312 -0.12891,0.2578125 v 1.31249997 c 0,0.1640625 0,0.234375 0.10547,0.234375 0.0586,0 0.0703,0 0.25781,-0.19921875 0.0117,-0.01171875 0.0117,-0.03515625 0.19922,-0.22265625 0.43359,0.421875 0.87891,0.421875 1.08984,0.421875 1.14844,0 1.60547,-0.66796875 1.60547,-1.38281247 z m 7.52344,-2.1796875 c 0,-0.1992188 -0.1875,-0.1992188 -0.32813,-0.1992188 h -5.96484 c -0.14062,0 -0.32812,0 -0.32812,0.1992188 0,0.1992187 0.1875,0.1992187 0.33984,0.1992187 h 5.94141 c 0.15234,0 0.33984,0 0.33984,-0.1992187 z m 0,1.9335937 c 0,-0.1992187 -0.1875,-0.1992187 -0.33984,-0.1992187 h -5.94141 c -0.15234,0 -0.33984,0 -0.33984,0.1992187 0,0.1992188 0.1875,0.1992188 0.32812,0.1992188 h 5.96484 c 0.14063,0 0.32813,0 0.32813,-0.1992188 z m 4.11914,-4.8046875 c 0,-0.3632812 -0.36328,-0.6914062 -0.89062,-0.6914062 -0.70313,0 -1.54688,0.5273437 -1.54688,1.5820312 v 1.1484375 h -0.78516 v 0.3046875 h 0.78516 v 3.22265627 c 0,0.45703125 -0.10547,0.45703125 -0.77344,0.45703125 v 0.3046875 l 1.13672,-0.03515625 c 0.39844,0 0.86719,0 1.26563,0.03515625 v -0.3046875 h -0.21094 c -0.73828,0 -0.76172,-0.1171875 -0.76172,-0.46875 V -3.9856719 h 1.13672 v -0.3046875 h -1.16016 v -1.1601562 c 0,-0.8789063 0.48047,-1.359375 0.91407,-1.359375 0.0352,0 0.17578,0 0.32812,0.070312 -0.11719,0.046875 -0.29297,0.1757812 -0.29297,0.421875 0,0.234375 0.15235,0.4335937 0.42188,0.4335937 0.29297,0 0.43359,-0.1992187 0.43359,-0.445312 z m 4.3125,5.43750002 V -1.4427031 h -0.25781 v 0.55078122 c 0,0.5859375 -0.2461,0.64453125 -0.35156,0.64453125 -0.32813,0 -0.375,-0.45703125 -0.375,-0.50390625 V -2.7434844 c 0,-0.4101562 0,-0.8085937 -0.35157,-1.171875 -0.38672,-0.3867187 -0.89062,-0.5507812 -1.37109,-0.5507812 -0.80859,0 -1.5,0.46875 -1.5,1.125 0,0.3046875 0.19922,0.46875 0.45703,0.46875 0.28125,0 0.45703,-0.1992188 0.45703,-0.4570313 0,-0.1171875 -0.0469,-0.4453125 -0.5039,-0.4570312 0.26953,-0.3515625 0.75,-0.4570313 1.07812,-0.4570313 0.48047,0 1.05469,0.3867188 1.05469,1.2773438 v 0.3632812 c -0.51563,0.035156 -1.20703,0.058594 -1.83985,0.3632813 -0.75,0.3398437 -0.99609,0.8554687 -0.99609,1.28906247 0,0.80859375 0.97266,1.0546875 1.59375,1.0546875 0.65625,0 1.11328,-0.3984375 1.3125,-0.8671875 0.0352,0.3984375 0.30469,0.8203125 0.77344,0.8203125 0.21094,0 0.82031,-0.140625 0.82031,-0.94921875 z m -1.66406,-0.50390622 c 0,0.94921872 -0.72656,1.28906247 -1.17188,1.28906247 -0.48047,0 -0.89062,-0.3515625 -0.89062,-0.85546875 0,-0.53906252 0.41015,-1.37109372 2.0625,-1.42968752 z m 4.37402,1.39453122 v -0.3046875 c -0.66797,0 -0.78516,0 -0.78516,-0.45703125 V -6.9153594 l -1.42968,0.1054688 v 0.3164062 c 0.70312,0 0.77343,0.070312 0.77343,0.5507813 v 5.17968747 c 0,0.45703125 -0.10546,0.45703125 -0.77343,0.45703125 v 0.3046875 l 1.10156,-0.03515625 z m 3.81152,-1.27734372 c 0,-0.5273438 -0.29296,-0.8203125 -0.42187,-0.9492188 -0.32813,-0.3164062 -0.71484,-0.3984375 -1.13672,-0.46875 -0.55078,-0.1171875 -1.21875,-0.2460937 -1.21875,-0.8203125 0,-0.3515625 0.25781,-0.7617187 1.11328,-0.7617187 1.10156,0 1.14844,0.9023437 1.17188,1.2070312 0,0.09375 0.11718,0.09375 0.11718,0.09375 0.12891,0 0.12891,-0.046875 0.12891,-0.2460937 v -0.9960938 c 0,-0.1757812 0,-0.2460937 -0.11719,-0.2460937 -0.0469,0 -0.0703,0 -0.19922,0.1171875 -0.0234,0.046875 -0.1289,0.1289062 -0.16406,0.1640625 -0.375,-0.28125 -0.78515,-0.28125 -0.9375,-0.28125 -1.21875,0 -1.59375,0.6679687 -1.59375,1.2304687 0,0.3398438 0.16406,0.6210938 0.4336,0.84375 0.3164,0.2578125 0.59765,0.3164063 1.3125,0.4570313 0.22265,0.035156 1.03125,0.1992187 1.03125,0.9140625 0,0.51562497 -0.35157,0.91406247 -1.125,0.91406247 -0.83204,0 -1.19532,-0.57421875 -1.38282,-1.41796877 -0.0351,-0.1289062 -0.0351,-0.1757812 -0.14062,-0.1757812 -0.12891,0 -0.12891,0.070312 -0.12891,0.2578125 v 1.31249997 c 0,0.1640625 0,0.234375 0.10547,0.234375 0.0586,0 0.0703,0 0.25781,-0.19921875 0.0117,-0.01171875 0.0117,-0.03515625 0.19922,-0.22265625 0.4336,0.421875 0.87891,0.421875 1.08985,0.421875 1.14843,0 1.60546,-0.66796875 1.60546,-1.38281247 z m 4.47657,0.09375 c 0,-0.1054688 -0.082,-0.1171875 -0.12891,-0.1171875 -0.0937,0 -0.11719,0.058594 -0.12891,0.140625 -0.35156,1.01953122 -1.2539,1.01953122 -1.34765,1.01953122 -0.50391,0 -0.90235,-0.29296875 -1.125,-0.66796875 -0.30469,-0.48046877 -0.30469,-1.13671877 -0.30469,-1.48828127 h 2.78906 c 0.21094,0 0.2461,0 0.2461,-0.2109375 0,-0.984375 -0.53907,-1.9570312 -1.78125,-1.9570312 -1.16016,0 -2.07422,1.03125 -2.07422,2.2734375 0,1.33593747 1.04297,2.29687497 2.1914,2.29687497 1.21875,0 1.66407,-1.1015625 1.66407,-1.28906247 z m -0.65625,-1.3242188 h -2.36719 c 0.0586,-1.4882812 0.90234,-1.734375 1.24219,-1.734375 1.01953,0 1.125,1.3476563 1.125,1.734375 z m 2.52539,5.0039063 v -9.9726563 h -1.35938 v 0.3984375 h 0.96094 v 9.1757813 h -0.96094 v 0.3984375 z m 3.72949,0 V 2.0963594 h -0.97266 v -9.1757813 h 0.97266 v -0.3984375 h -1.37109 v 9.9726563 z m 4.3623,-3.6796875 c 0,-0.1054688 -0.10546,-0.1054688 -0.1289,-0.1054688 -0.0937,0 -0.11719,0.046875 -0.12891,0.1054688 -0.29297,0.92578122 -0.9375,1.04296872 -1.3125,1.04296872 -0.52734,0 -1.40625,-0.421875 -1.40625,-2.02734372 0,-1.6289063 0.82031,-2.0507813 1.34766,-2.0507813 0.0937,0 0.71484,0.011719 1.0664,0.375 -0.41015,0.023437 -0.46875,0.328125 -0.46875,0.4570313 0,0.2578125 0.1875,0.4570312 0.45704,0.4570312 0.25781,0 0.45703,-0.1640625 0.45703,-0.46875 0,-0.6796875 -0.75,-1.0664062 -1.52344,-1.0664062 -1.24219,0 -2.15625,1.078125 -2.15625,2.3085937 0,1.27734377 0.98437,2.26171877 2.14453,2.26171877 1.33594,0 1.65234,-1.19531247 1.65234,-1.28906247 z m 4.97461,-0.9492188 c 0,-1.2773437 -0.99609,-2.3320312 -2.1914,-2.3320312 -1.25391,0 -2.21485,1.0898437 -2.21485,2.3320312 0,1.28906252 1.03125,2.23828127 2.20313,2.23828127 1.20703,0 2.20312,-0.97265625 2.20312,-2.23828127 z m -0.82031,-0.082031 c 0,0.3632812 0,0.9023437 -0.22266,1.33593747 -0.22265,0.4453125 -0.65625,0.73828125 -1.14843,0.73828125 -0.4336,0 -0.86719,-0.2109375 -1.13672,-0.66796875 -0.25781,-0.43359377 -0.25781,-1.04296877 -0.25781,-1.40624997 0,-0.3867188 0,-0.9257813 0.24609,-1.359375 0.26953,-0.4570313 0.73828,-0.6679688 1.13672,-0.6679688 0.43359,0 0.86719,0.2226563 1.125,0.6445313 0.25781,0.4335937 0.25781,1.0078125 0.25781,1.3828125 z m 6.44824,2.21484372 v -0.3046875 c -0.70312,0 -0.78515,-0.0703125 -0.78515,-0.5625 V -4.4075469 l -1.45313,0.1171875 v 0.3046875 c 0.69141,0 0.77344,0.070312 0.77344,0.5625 v 1.7695313 c 0,0.86718747 -0.48047,1.54687497 -1.20703,1.54687497 -0.83203,0 -0.87891,-0.46875 -0.87891,-0.99609377 v -3.3046875 l -1.46484,0.1171875 v 0.3046875 c 0.78515,0 0.78515,0.035156 0.78515,0.9140625 v 1.5 c 0,0.77343752 0,1.67578127 1.51172,1.67578127 0.55078,0 0.9961,-0.26953125 1.27735,-0.890625 v 0.890625 z m 5.53711,0 v -0.3046875 c -0.51562,0 -0.77343,0 -0.78515,-0.3046875 V -2.5091094 c 0,-0.8554687 0,-1.171875 -0.30469,-1.5234375 -0.14063,-0.1757812 -0.46875,-0.375 -1.04297,-0.375 -0.72656,0 -1.19531,0.4335938 -1.47656,1.0546875 v -1.0546875 l -1.40625,0.1171875 v 0.3046875 c 0.70312,0 0.78515,0.070312 0.78515,0.5625 v 2.66015627 c 0,0.45703125 -0.11718,0.45703125 -0.78515,0.45703125 v 0.3046875 l 1.125,-0.03515625 1.11328,0.03515625 v -0.3046875 c -0.65625,0 -0.77344,0 -0.77344,-0.45703125 V -2.5911406 c 0,-1.03125 0.71485,-1.59375 1.34766,-1.59375 0.62109,0 0.73828,0.5390625 0.73828,1.1015625 v 2.32031247 c 0,0.45703125 -0.11719,0.45703125 -0.77344,0.45703125 v 0.3046875 l 1.125,-0.03515625 z m 3.23438,-1.23046872 v -0.5742188 h -0.2461 v 0.5507813 c 0,0.73828122 -0.30468,1.11328122 -0.66796,1.11328122 -0.66797,0 -0.66797,-0.90234372 -0.66797,-1.07812502 v -2.765625 h 1.42968 v -0.3046875 h -1.42968 v -1.8398437 h -0.2461 c -0.0117,0.8203125 -0.3164,1.8867187 -1.28906,1.921875 v 0.2226562 h 0.84375 v 2.7539063 c 0,1.21874997 0.92578,1.33593747 1.28906,1.33593747 0.70313,0 0.98438,-0.703125 0.98438,-1.33593747 z m 7.75488,-2.2265625 c 0,-0.1992188 -0.1875,-0.1992188 -0.32812,-0.1992188 h -5.96485 c -0.14062,0 -0.32812,0 -0.32812,0.1992188 0,0.1992187 0.1875,0.1992187 0.33984,0.1992187 h 5.94141 c 0.15234,0 0.33984,0 0.33984,-0.1992187 z m 0,1.9335937 c 0,-0.1992187 -0.1875,-0.1992187 -0.33984,-0.1992187 h -5.94141 c -0.15234,0 -0.33984,0 -0.33984,0.1992187 0,0.1992188 0.1875,0.1992188 0.32812,0.1992188 h 5.96485 c 0.14062,0 0.32812,0 0.32812,-0.1992188 z m 5.25293,-0.1171875 v -0.3164062 h -0.99609 v -4.5234375 c 0,-0.1992188 0,-0.2578125 -0.15235,-0.2578125 -0.0937,0 -0.11718,0 -0.19922,0.1171875 l -3.05859,4.6640625 v 0.3164062 h 2.64844 v 0.86718752 c 0,0.3515625 -0.0234,0.46875 -0.76172,0.46875 h -0.21094 v 0.3046875 c 0.41016,-0.03515625 0.9375,-0.03515625 1.34766,-0.03515625 0.42187,0 0.94922,0 1.35937,0.03515625 v -0.3046875 h -0.21093 c -0.73829,0 -0.76172,-0.1171875 -0.76172,-0.46875 V -1.6419219 Z m -1.69922,-0.3164062 h -2.42578 l 2.42578,-3.7148438 z m 4.02246,1.94531247 c 0,-0.6328125 -0.24609,-1.04296877 -0.64453,-1.04296877 -0.35156,0 -0.52734,0.26953127 -0.52734,0.52734377 0,0.2578125 0.17578,0.52734375 0.52734,0.52734375 0.15234,0 0.29297,-0.05859375 0.39844,-0.1640625 0.0234,0.796875 -0.25781,1.39453128 -0.69141,1.86328128 -0.0586,0.058594 -0.0703,0.070312 -0.0703,0.1171875 0,0.070312 0.0469,0.1054687 0.0937,0.1054687 0.11719,0 0.91406,-0.7851562 0.91406,-1.93359373 z m 9.24903,-2.14453127 c 0,-1.265625 -0.97266,-2.25 -2.10938,-2.25 -0.78516,0 -1.20703,0.46875 -1.37109,0.65625 v -3.1640625 l -1.42969,0.1054688 v 0.3164062 c 0.69141,0 0.77344,0.070312 0.77344,0.5507813 v 5.94140622 h 0.24609 l 0.36328,-0.62109375 c 0.15235,0.234375 0.5625,0.7265625 1.30078,0.7265625 1.1836,0 2.22657,-0.97265625 2.22657,-2.26171877 z m -0.83204,0 c 0,0.3632813 -0.0117,0.9609375 -0.30468,1.40625002 -0.21094,0.31640625 -0.58594,0.64453125 -1.125,0.64453125 -0.44532,0 -0.8086,-0.24609375 -1.04297,-0.609375 -0.14063,-0.2109375 -0.14063,-0.24609375 -0.14063,-0.42187497 v -2.0507813 c 0,-0.1875 0,-0.1992187 0.10547,-0.3632812 0.38672,-0.5507813 0.9375,-0.6328125 1.17188,-0.6328125 0.45703,0 0.80859,0.2578125 1.05468,0.6328125 0.25782,0.4101562 0.28125,0.984375 0.28125,1.3945312 z m 3.64161,2.15625002 v -0.3046875 c -0.65625,0 -0.70313,-0.0585938 -0.70313,-0.4453125 V -4.4075469 l -1.39453,0.1171875 v 0.3046875 c 0.65625,0 0.73828,0.058594 0.73828,0.5507813 v 2.67187497 c 0,0.45703125 -0.10547,0.45703125 -0.77344,0.45703125 v 0.3046875 l 1.10157,-0.03515625 c 0.33984,0 0.6914,0.0234375 1.03125,0.03515645 z m -0.55079,-6.01171872 c 0,-0.2695313 -0.22265,-0.5273438 -0.52734,-0.5273438 -0.33984,0 -0.53906,0.2695313 -0.53906,0.5273438 0,0.2695312 0.23437,0.5273437 0.52734,0.5273437 0.33985,0 0.53906,-0.28125 0.53906,-0.5273437 z m 5.67481,5.12109372 V -1.4427031 h -0.25781 v 0.55078122 c 0,0.5859375 -0.2461,0.64453125 -0.35157,0.64453125 -0.32812,0 -0.375,-0.45703125 -0.375,-0.50390625 V -2.7434844 c 0,-0.4101562 0,-0.8085937 -0.35156,-1.171875 -0.38672,-0.3867187 -0.89062,-0.5507812 -1.37109,-0.5507812 -0.8086,0 -1.5,0.46875 -1.5,1.125 0,0.3046875 0.19922,0.46875 0.45703,0.46875 0.28125,0 0.45703,-0.1992188 0.45703,-0.4570313 0,-0.1171875 -0.0469,-0.4453125 -0.50391,-0.4570312 0.26954,-0.3515625 0.75,-0.4570313 1.07813,-0.4570313 0.48047,0 1.05469,0.3867188 1.05469,1.2773438 v 0.3632812 c -0.51563,0.035156 -1.20703,0.058594 -1.83985,0.3632813 -0.75,0.3398437 -0.99609,0.8554687 -0.99609,1.28906247 0,0.80859375 0.97266,1.0546875 1.59375,1.0546875 0.65625,0 1.11328,-0.3984375 1.3125,-0.8671875 0.0352,0.3984375 0.30469,0.8203125 0.77344,0.8203125 0.21093,0 0.82031,-0.140625 0.82031,-0.94921855 z m -1.66406,-0.50390622 c 0,0.94921872 -0.72657,1.28906247 -1.17188,1.28906247 -0.48047,0 -0.89062,-0.3515625 -0.89062,-0.85546875 0,-0.53906252 0.41015,-1.37109372 2.0625,-1.42968752 z m 5.41699,0.1171875 c 0,-0.5273438 -0.29297,-0.8203125 -0.42188,-0.9492188 -0.32812,-0.3164062 -0.71484,-0.3984375 -1.13671,-0.46875 -0.55079,-0.1171875 -1.21875,-0.2460937 -1.21875,-0.8203125 0,-0.3515625 0.25781,-0.7617187 1.11328,-0.7617187 1.10156,0 1.14843,0.9023437 1.17187,1.2070312 0,0.09375 0.11719,0.09375 0.11719,0.09375 0.12891,0 0.12891,-0.046875 0.12891,-0.2460937 v -0.9960938 c 0,-0.1757812 0,-0.2460937 -0.11719,-0.2460937 -0.0469,0 -0.0703,0 -0.19922,0.1171875 -0.0234,0.046875 -0.12891,0.1289062 -0.16406,0.1640625 -0.375,-0.28125 -0.78516,-0.28125 -0.9375,-0.28125 -1.21875,0 -1.59375,0.6679687 -1.59375,1.2304687 0,0.3398438 0.16406,0.6210938 0.43359,0.84375 0.31641,0.2578125 0.59766,0.3164063 1.3125,0.4570313 0.22266,0.035156 1.03125,0.1992187 1.03125,0.9140625 0,0.51562497 -0.35156,0.91406247 -1.125,0.91406247 -0.83203,0 -1.19531,-0.57421875 -1.38281,-1.41796877 -0.0352,-0.1289062 -0.0352,-0.1757812 -0.14063,-0.1757812 -0.1289,0 -0.1289,0.070312 -0.1289,0.2578125 v 1.31249997 c 0,0.1640625 0,0.234375 0.10547,0.234375 0.0586,0 0.0703,0 0.25781,-0.19921875 0.0117,-0.01171875 0.0117,-0.03515625 0.19922,-0.22265625 0.43359,0.421875 0.8789,0.421875 1.08984,0.421875 1.14844,0 1.60547,-0.66796875 1.60547,-1.38281247 z m 7.52051,-2.1796875 c 0,-0.1992188 -0.1875,-0.1992188 -0.32813,-0.1992188 h -5.96484 c -0.14063,0 -0.32813,0 -0.32813,0.1992188 0,0.1992187 0.1875,0.1992187 0.33985,0.1992187 h 5.9414 c 0.15235,0 0.33985,0 0.33985,-0.1992187 z m 0,1.9335937 c 0,-0.1992187 -0.1875,-0.1992187 -0.33985,-0.1992187 h -5.9414 c -0.15235,0 -0.33985,0 -0.33985,0.1992187 0,0.1992188 0.1875,0.1992188 0.32813,0.1992188 h 5.96484 c 0.14063,0 0.32813,0 0.32813,-0.1992188 z m 4.11914,-4.8046875 c 0,-0.3632812 -0.36328,-0.6914062 -0.89063,-0.6914062 -0.70312,0 -1.54687,0.5273437 -1.54687,1.5820312 v 1.1484375 h -0.78516 v 0.3046875 h 0.78516 v 3.22265627 c 0,0.45703125 -0.10547,0.45703125 -0.77344,0.45703125 v 0.3046875 l 1.13672,-0.03515625 c 0.39844,0 0.86719,0 1.26562,0.03515625 v -0.3046875 h -0.21093 c -0.73828,0 -0.76172,-0.1171875 -0.76172,-0.46875 V -3.9856719 h 1.13672 v -0.3046875 h -1.16016 v -1.1601562 c 0,-0.8789063 0.48047,-1.359375 0.91406,-1.359375 0.0352,0 0.17578,0 0.32813,0.070312 -0.11719,0.046875 -0.29297,0.1757812 -0.29297,0.421875 0,0.234375 0.15234,0.4335937 0.42187,0.4335937 0.29297,0 0.4336,-0.1992187 0.4336,-0.4453118 z m 4.31543,5.43750002 V -1.4427031 h -0.25782 v 0.55078122 c 0,0.5859375 -0.24609,0.64453125 -0.35156,0.64453125 -0.32812,0 -0.375,-0.45703125 -0.375,-0.50390625 V -2.7434844 c 0,-0.4101562 0,-0.8085937 -0.35156,-1.171875 -0.38672,-0.3867187 -0.89063,-0.5507812 -1.37109,-0.5507812 -0.8086,0 -1.5,0.46875 -1.5,1.125 0,0.3046875 0.19921,0.46875 0.45703,0.46875 0.28125,0 0.45703,-0.1992188 0.45703,-0.4570313 0,-0.1171875 -0.0469,-0.4453125 -0.50391,-0.4570312 0.26953,-0.3515625 0.75,-0.4570313 1.07813,-0.4570313 0.48047,0 1.05468,0.3867188 1.05468,1.2773438 v 0.3632812 c -0.51562,0.035156 -1.20703,0.058594 -1.83984,0.3632813 -0.75,0.3398437 -0.99609,0.8554687 -0.99609,1.28906247 0,0.80859375 0.97265,1.0546875 1.59375,1.0546875 0.65625,0 1.11328,-0.3984375 1.3125,-0.8671875 0.0352,0.3984375 0.30468,0.8203125 0.77343,0.8203125 0.21094,0 0.82032,-0.140625 0.82032,-0.94921855 z m -1.66407,-0.50390622 c 0,0.94921872 -0.72656,1.28906247 -1.17187,1.28906247 -0.48047,0 -0.89063,-0.3515625 -0.89063,-0.85546875 0,-0.53906252 0.41016,-1.37109372 2.0625,-1.42968752 z m 4.3711,1.39453122 v -0.3046875 c -0.66797,0 -0.78516,0 -0.78516,-0.45703125 V -6.9153594 l -1.42969,0.1054688 v 0.3164062 c 0.70313,0 0.77344,0.070312 0.77344,0.5507813 v 5.17968747 c 0,0.45703125 -0.10547,0.45703125 -0.77344,0.45703125 v 0.3046875 l 1.10157,-0.03515625 z m 3.81152,-1.27734372 c 0,-0.5273438 -0.29297,-0.8203125 -0.42187,-0.9492188 -0.32813,-0.3164062 -0.71485,-0.3984375 -1.13672,-0.46875 -0.55078,-0.1171875 -1.21875,-0.2460937 -1.21875,-0.8203125 0,-0.3515625 0.25781,-0.7617187 1.11328,-0.7617187 1.10156,0 1.14844,0.9023437 1.17187,1.2070312 0,0.09375 0.11719,0.09375 0.11719,0.09375 0.12891,0 0.12891,-0.046875 0.12891,-0.2460937 v -0.9960938 c 0,-0.1757812 0,-0.2460937 -0.11719,-0.2460937 -0.0469,0 -0.0703,0 -0.19922,0.1171875 -0.0234,0.046875 -0.1289,0.1289062 -0.16406,0.1640625 -0.375,-0.28125 -0.78516,-0.28125 -0.9375,-0.28125 -1.21875,0 -1.59375,0.6679687 -1.59375,1.2304687 0,0.3398438 0.16406,0.6210938 0.43359,0.84375 0.31641,0.2578125 0.59766,0.3164063 1.3125,0.4570313 0.22266,0.035156 1.03125,0.1992187 1.03125,0.9140625 0,0.51562497 -0.35156,0.91406247 -1.125,0.91406247 -0.83203,0 -1.19531,-0.57421875 -1.38281,-1.41796877 -0.0352,-0.1289062 -0.0352,-0.1757812 -0.14062,-0.1757812 -0.12891,0 -0.12891,0.070312 -0.12891,0.2578125 v 1.31249997 c 0,0.1640625 0,0.234375 0.10547,0.234375 0.0586,0 0.0703,0 0.25781,-0.19921875 0.0117,-0.01171875 0.0117,-0.03515625 0.19922,-0.22265625 0.43359,0.421875 0.87891,0.421875 1.08984,0.421875 1.14844,0 1.60547,-0.66796875 1.60547,-1.38281247 z m 4.47656,0.09375 c 0,-0.1054688 -0.082,-0.1171875 -0.1289,-0.1171875 -0.0937,0 -0.11719,0.058594 -0.12891,0.140625 -0.35156,1.01953122 -1.2539,1.01953122 -1.34765,1.01953122 -0.50391,0 -0.90235,-0.29296875 -1.125,-0.66796875 -0.30469,-0.48046877 -0.30469,-1.13671877 -0.30469,-1.48828127 h 2.78906 c 0.21094,0 0.24609,0 0.24609,-0.2109375 0,-0.984375 -0.53906,-1.9570312 -1.78125,-1.9570312 -1.16015,0 -2.07421,1.03125 -2.07421,2.2734375 0,1.33593747 1.04296,2.29687497 2.1914,2.29687497 1.21875,0 1.66406,-1.1015625 1.66406,-1.28906247 z m -0.65625,-1.3242188 h -2.36718 c 0.0586,-1.4882812 0.90234,-1.734375 1.24218,-1.734375 1.01954,0 1.125,1.3476563 1.125,1.734375 z m 2.5254,5.0039063 v -9.9726563 h -1.35938 v 0.3984375 h 0.96094 v 9.1757813 h -0.96094 v 0.3984375 z m 7.04882,0 V 2.0963594 h -0.97265 v -9.1757813 h 0.97265 v -0.3984375 h -1.37109 v 9.9726563 z m 4.36231,-3.6796875 c 0,-0.1054688 -0.10547,-0.1054688 -0.12891,-0.1054688 -0.0937,0 -0.11719,0.046875 -0.1289,0.1054688 -0.29297,0.92578122 -0.9375,1.04296872 -1.3125,1.04296872 -0.52735,0 -1.40625,-0.421875 -1.40625,-2.02734372 0,-1.6289063 0.82031,-2.0507813 1.34765,-2.0507813 0.0937,0 0.71485,0.011719 1.06641,0.375 -0.41016,0.023437 -0.46875,0.328125 -0.46875,0.4570313 0,0.2578125 0.1875,0.4570312 0.45703,0.4570312 0.25781,0 0.45703,-0.1640625 0.45703,-0.46875 0,-0.6796875 -0.75,-1.0664062 -1.52344,-1.0664062 -1.24218,0 -2.15625,1.078125 -2.15625,2.3085937 0,1.27734377 0.98438,2.26171877 2.14453,2.26171877 1.33594,0 1.65235,-1.19531247 1.65235,-1.28906247 z m 4.97461,-0.9492188 c 0,-1.2773437 -0.9961,-2.3320312 -2.19141,-2.3320312 -1.25391,0 -2.21484,1.0898437 -2.21484,2.3320312 0,1.28906252 1.03125,2.23828127 2.20312,2.23828127 1.20703,0 2.20313,-0.97265625 2.20313,-2.23828127 z m -0.82032,-0.082031 c 0,0.3632812 0,0.9023437 -0.22265,1.33593747 -0.22266,0.4453125 -0.65625,0.73828125 -1.14844,0.73828125 -0.43359,0 -0.86719,-0.2109375 -1.13672,-0.66796875 -0.25781,-0.43359377 -0.25781,-1.04296877 -0.25781,-1.40624997 0,-0.3867188 0,-0.9257813 0.24609,-1.359375 0.26953,-0.4570313 0.73828,-0.6679688 1.13672,-0.6679688 0.4336,0 0.86719,0.2226563 1.125,0.6445313 0.25781,0.4335937 0.25781,1.0078125 0.25781,1.3828125 z m 6.44532,2.21484372 v -0.3046875 c -0.70313,0 -0.78516,-0.0703125 -0.78516,-0.5625 V -4.4075469 l -1.45312,0.1171875 v 0.3046875 c 0.6914,0 0.77343,0.070312 0.77343,0.5625 v 1.7695313 c 0,0.86718747 -0.48047,1.54687497 -1.20703,1.54687497 -0.83203,0 -0.8789,-0.46875 -0.8789,-0.99609377 v -3.3046875 l -1.46485,0.1171875 v 0.3046875 c 0.78516,0 0.78516,0.035156 0.78516,0.9140625 v 1.5 c 0,0.77343752 0,1.67578127 1.51172,1.67578127 0.55078,0 0.99609,-0.26953125 1.27734,-0.890625 v 0.890625 z m 5.54004,0 v -0.3046875 c -0.51563,0 -0.77344,0 -0.78516,-0.3046875 V -2.5091094 c 0,-0.8554687 0,-1.171875 -0.30469,-1.5234375 -0.14062,-0.1757812 -0.46875,-0.375 -1.04297,-0.375 -0.72656,0 -1.19531,0.4335938 -1.47656,1.0546875 v -1.0546875 l -1.40625,0.1171875 v 0.3046875 c 0.70313,0 0.78516,0.070312 0.78516,0.5625 v 2.66015627 c 0,0.45703125 -0.11719,0.45703125 -0.78516,0.45703125 v 0.3046875 l 1.125,-0.03515625 1.11328,0.03515625 v -0.3046875 c -0.65625,0 -0.77343,0 -0.77343,-0.45703125 V -2.5911406 c 0,-1.03125 0.71484,-1.59375 1.34765,-1.59375 0.6211,0 0.73828,0.5390625 0.73828,1.1015625 v 2.32031247 c 0,0.45703125 -0.11718,0.45703125 -0.77343,0.45703125 v 0.3046875 l 1.125,-0.03515625 z M 263.1416,-1.2317652 V -1.805984 h -0.24609 v 0.5507813 c 0,0.73828122 -0.30469,1.11328122 -0.66797,1.11328122 -0.66797,0 -0.66797,-0.90234372 -0.66797,-1.07812502 v -2.765625 h 1.42969 V -4.290359 h -1.42969 v -1.8398437 h -0.24609 c -0.0117,0.8203125 -0.31641,1.8867187 -1.28907,1.921875 v 0.2226562 h 0.84375 v 2.7539063 c 0,1.21874997 0.92579,1.33593747 1.28907,1.33593747 0.70312,0 0.98437,-0.703125 0.98437,-1.33593747 z m 7.75195,-2.2265625 c 0,-0.1992188 -0.1875,-0.1992188 -0.32812,-0.1992188 h -5.96484 c -0.14063,0 -0.32813,0 -0.32813,0.1992188 0,0.1992187 0.1875,0.1992187 0.33984,0.1992187 h 5.94141 c 0.15234,0 0.33984,0 0.33984,-0.1992187 z m 0,1.9335937 c 0,-0.1992187 -0.1875,-0.1992187 -0.33984,-0.1992187 h -5.94141 c -0.15234,0 -0.33984,0 -0.33984,0.1992187 0,0.1992188 0.1875,0.1992188 0.32813,0.1992188 h 5.96484 c 0.14062,0 0.32812,0 0.32812,-0.1992188 z m 5.25586,-0.1171875 v -0.3164062 h -0.99609 v -4.5234375 c 0,-0.1992188 0,-0.2578125 -0.15234,-0.2578125 -0.0937,0 -0.11719,0 -0.19922,0.1171875 l -3.0586,4.6640625 v 0.3164062 h 2.64844 v 0.86718752 c 0,0.3515625 -0.0234,0.46875 -0.76172,0.46875 h -0.21093 v 0.3046875 c 0.41015,-0.03515625 0.9375,-0.03515625 1.34765,-0.03515625 0.42188,0 0.94922,0 1.35938,0.03515625 v -0.3046875 h -0.21094 c -0.73828,0 -0.76172,-0.1171875 -0.76172,-0.46875 V -1.6419219 Z m -1.69921,-0.3164062 h -2.42579 l 2.42579,-3.7148438 z m 4.01953,1.94531247 c 0,-0.6328125 -0.2461,-1.04296877 -0.64453,-1.04296877 -0.35157,0 -0.52735,0.26953127 -0.52735,0.52734377 0,0.2578125 0.17578,0.52734375 0.52735,0.52734375 0.15234,0 0.29296,-0.05859375 0.39843,-0.1640625 0.0234,0.796875 -0.25781,1.39453128 -0.6914,1.86328128 -0.0586,0.058594 -0.0703,0.070312 -0.0703,0.1171875 0,0.070312 0.0469,0.1054687 0.0937,0.1054687 0.11719,0 0.91407,-0.7851562 0.91407,-1.93359373 z m 9.25195,-2.14453127 c 0,-1.265625 -0.97266,-2.25 -2.10938,-2.25 -0.78515,0 -1.20703,0.46875 -1.37109,0.65625 V -6.915359 l -1.42969,0.1054688 v 0.3164062 c 0.69141,0 0.77344,0.070312 0.77344,0.5507813 v 5.94140622 h 0.24609 l 0.36329,-0.62109375 c 0.15234,0.234375 0.5625,0.7265625 1.30078,0.7265625 1.18359,0 2.22656,-0.97265625 2.22656,-2.26171877 z m -0.83203,0 c 0,0.3632813 -0.0117,0.9609375 -0.30469,1.40625002 -0.21094,0.31640625 -0.58594,0.64453125 -1.125,0.64453125 -0.44531,0 -0.80859,-0.24609375 -1.04297,-0.609375 -0.14062,-0.2109375 -0.14062,-0.24609375 -0.14062,-0.42187497 v -2.0507813 c 0,-0.1875 0,-0.1992187 0.10547,-0.3632812 0.38671,-0.5507813 0.9375,-0.6328125 1.17187,-0.6328125 0.45703,0 0.80859,0.2578125 1.05469,0.6328125 0.25781,0.4101562 0.28125,0.984375 0.28125,1.3945312 z m 3.6416,2.15625002 v -0.3046875 c -0.65625,0 -0.70313,-0.0585938 -0.70313,-0.4453125 V -4.4075469 l -1.39453,0.1171875 v 0.3046875 c 0.65625,0 0.73828,0.058594 0.73828,0.5507813 v 2.67187497 c 0,0.45703125 -0.10546,0.45703125 -0.77343,0.45703125 v 0.3046875 L 289.5,-0.03645313 c 0.33984,0 0.69141,0.0234375 1.03125,0.03515665 z m -0.55078,-6.01171872 c 0,-0.2695313 -0.22266,-0.5273438 -0.52735,-0.5273438 -0.33984,0 -0.53906,0.2695313 -0.53906,0.5273438 0,0.2695312 0.23438,0.5273437 0.52735,0.5273437 0.33984,0 0.53906,-0.28125 0.53906,-0.5273437 z m 5.6748,5.12109372 V -1.4427031 h -0.25781 v 0.55078122 c 0,0.5859375 -0.24609,0.64453125 -0.35156,0.64453125 -0.32813,0 -0.375,-0.45703125 -0.375,-0.50390625 V -2.7434844 c 0,-0.4101562 0,-0.8085937 -0.35156,-1.171875 -0.38672,-0.3867187 -0.89063,-0.5507812 -1.3711,-0.5507812 -0.80859,0 -1.5,0.46875 -1.5,1.125 0,0.3046875 0.19922,0.46875 0.45703,0.46875 0.28125,0 0.45703,-0.1992188 0.45703,-0.4570313 0,-0.1171875 -0.0469,-0.4453125 -0.5039,-0.4570312 0.26953,-0.3515625 0.75,-0.4570313 1.07812,-0.4570313 0.48047,0 1.05469,0.3867188 1.05469,1.2773438 v 0.3632812 c -0.51562,0.035156 -1.20703,0.058594 -1.83984,0.3632813 -0.75,0.3398437 -0.9961,0.8554687 -0.9961,1.28906247 0,0.80859375 0.97266,1.0546875 1.59375,1.0546875 0.65625,0 1.11328,-0.3984375 1.3125,-0.8671875 0.0352,0.3984375 0.30469,0.8203125 0.77344,0.8203125 0.21094,0 0.82031,-0.140625 0.82031,-0.94921835 z m -1.66406,-0.50390622 c 0,0.94921872 -0.72656,1.28906247 -1.17187,1.28906247 -0.48047,0 -0.89063,-0.3515625 -0.89063,-0.85546875 0,-0.53906252 0.41016,-1.37109372 2.0625,-1.42968752 z m 5.41406,0.1171875 c 0,-0.5273438 -0.29297,-0.8203125 -0.42187,-0.9492188 -0.32813,-0.3164062 -0.71485,-0.3984375 -1.13672,-0.46875 -0.55078,-0.1171875 -1.21875,-0.2460937 -1.21875,-0.8203125 0,-0.3515625 0.25781,-0.7617187 1.11328,-0.7617187 1.10156,0 1.14844,0.9023437 1.17188,1.2070312 0,0.09375 0.11718,0.09375 0.11718,0.09375 0.12891,0 0.12891,-0.046875 0.12891,-0.2460937 v -0.9960938 c 0,-0.1757812 0,-0.2460937 -0.11719,-0.2460937 -0.0469,0 -0.0703,0 -0.19922,0.1171875 -0.0234,0.046875 -0.1289,0.1289062 -0.16406,0.1640625 -0.375,-0.28125 -0.78516,-0.28125 -0.9375,-0.28125 -1.21875,0 -1.59375,0.6679687 -1.59375,1.2304687 0,0.3398438 0.16406,0.6210938 0.43359,0.84375 0.31641,0.2578125 0.59766,0.3164063 1.3125,0.4570313 0.22266,0.035156 1.03125,0.1992187 1.03125,0.9140625 0,0.51562497 -0.35156,0.91406247 -1.125,0.91406247 -0.83203,0 -1.19531,-0.57421875 -1.38281,-1.41796877 -0.0351,-0.1289062 -0.0351,-0.1757812 -0.14062,-0.1757812 -0.12891,0 -0.12891,0.070312 -0.12891,0.2578125 v 1.31249997 c 0,0.1640625 0,0.234375 0.10547,0.234375 0.0586,0 0.0703,0 0.25781,-0.19921875 0.0117,-0.01171875 0.0117,-0.03515625 0.19922,-0.22265625 0.43359,0.421875 0.87891,0.421875 1.08984,0.421875 1.14844,0 1.60547,-0.66796875 1.60547,-1.38281247 z m 7.52344,-2.1796875 c 0,-0.1992188 -0.1875,-0.1992188 -0.32812,-0.1992188 h -5.96485 c -0.14062,0 -0.32812,0 -0.32812,0.1992188 0,0.1992187 0.1875,0.1992187 0.33984,0.1992187 h 5.94141 c 0.15234,0 0.33984,0 0.33984,-0.1992187 z m 0,1.9335937 c 0,-0.1992187 -0.1875,-0.1992187 -0.33984,-0.1992187 h -5.94141 c -0.15234,0 -0.33984,0 -0.33984,0.1992187 0,0.1992188 0.1875,0.1992188 0.32812,0.1992188 h 5.96485 c 0.14062,0 0.32812,0 0.32812,-0.1992188 z m 4.11914,-4.8046875 c 0,-0.3632812 -0.36328,-0.6914062 -0.89062,-0.6914062 -0.70313,0 -1.54688,0.5273437 -1.54688,1.5820312 v 1.1484375 h -0.78515 v 0.3046875 h 0.78515 v 3.22265627 c 0,0.45703125 -0.10547,0.45703125 -0.77344,0.45703125 v 0.3046875 l 1.13672,-0.03515625 c 0.39844,0 0.86719,0 1.26563,0.03515625 v -0.3046875 h -0.21094 c -0.73828,0 -0.76172,-0.1171875 -0.76172,-0.46875 V -3.9856719 h 1.13672 v -0.3046875 h -1.16016 v -1.1601562 c 0,-0.8789063 0.48047,-1.359375 0.91407,-1.359375 0.0351,0 0.17578,0 0.32812,0.070312 -0.11719,0.046875 -0.29297,0.1757812 -0.29297,0.421875 0,0.234375 0.15235,0.4335937 0.42188,0.4335937 0.29297,0 0.43359,-0.1992187 0.43359,-0.4453116 z m 4.31543,5.43750002 V -1.4427031 h -0.25781 v 0.55078122 c 0,0.5859375 -0.2461,0.64453125 -0.35156,0.64453125 -0.32813,0 -0.375,-0.45703125 -0.375,-0.50390625 V -2.7434844 c 0,-0.4101562 0,-0.8085937 -0.35157,-1.171875 -0.38672,-0.3867187 -0.89062,-0.5507812 -1.37109,-0.5507812 -0.80859,0 -1.5,0.46875 -1.5,1.125 0,0.3046875 0.19922,0.46875 0.45703,0.46875 0.28125,0 0.45703,-0.1992188 0.45703,-0.4570313 0,-0.1171875 -0.0469,-0.4453125 -0.5039,-0.4570312 0.26953,-0.3515625 0.75,-0.4570313 1.07812,-0.4570313 0.48047,0 1.05469,0.3867188 1.05469,1.2773438 v 0.3632812 c -0.51563,0.035156 -1.20703,0.058594 -1.83985,0.3632813 -0.75,0.3398437 -0.99609,0.8554687 -0.99609,1.28906247 0,0.80859375 0.97266,1.0546875 1.59375,1.0546875 0.65625,0 1.11328,-0.3984375 1.3125,-0.8671875 0.0352,0.3984375 0.30469,0.8203125 0.77344,0.8203125 0.21094,0 0.82031,-0.140625 0.82031,-0.94921835 z m -1.66406,-0.50390622 c 0,0.94921872 -0.72656,1.28906247 -1.17188,1.28906247 -0.48047,0 -0.89062,-0.3515625 -0.89062,-0.85546875 0,-0.53906252 0.41015,-1.37109372 2.0625,-1.42968752 z m 4.37109,1.39453122 v -0.3046875 c -0.66797,0 -0.78515,0 -0.78515,-0.45703125 V -6.9153594 l -1.42969,0.1054688 v 0.3164062 c 0.70312,0 0.77344,0.070312 0.77344,0.5507813 v 5.17968747 c 0,0.45703125 -0.10547,0.45703125 -0.77344,0.45703125 v 0.3046875 l 1.10156,-0.03515625 z m 3.81153,-1.27734372 c 0,-0.5273438 -0.29297,-0.8203125 -0.42188,-0.9492188 -0.32812,-0.3164062 -0.71484,-0.3984375 -1.13672,-0.46875 -0.55078,-0.1171875 -1.21875,-0.2460937 -1.21875,-0.8203125 0,-0.3515625 0.25781,-0.7617187 1.11328,-0.7617187 1.10157,0 1.14844,0.9023437 1.17188,1.2070312 0,0.09375 0.11719,0.09375 0.11719,0.09375 0.1289,0 0.1289,-0.046875 0.1289,-0.2460937 v -0.9960938 c 0,-0.1757812 0,-0.2460937 -0.11719,-0.2460937 -0.0469,0 -0.0703,0 -0.19921,0.1171875 -0.0234,0.046875 -0.12891,0.1289062 -0.16407,0.1640625 -0.375,-0.28125 -0.78515,-0.28125 -0.9375,-0.28125 -1.21875,0 -1.59375,0.6679687 -1.59375,1.2304687 0,0.3398438 0.16407,0.6210938 0.4336,0.84375 0.3164,0.2578125 0.59765,0.3164063 1.3125,0.4570313 0.22265,0.035156 1.03125,0.1992187 1.03125,0.9140625 0,0.51562497 -0.35157,0.91406247 -1.125,0.91406247 -0.83203,0 -1.19532,-0.57421875 -1.38282,-1.41796877 -0.0351,-0.1289062 -0.0351,-0.1757812 -0.14062,-0.1757812 -0.12891,0 -0.12891,0.070312 -0.12891,0.2578125 v 1.31249997 c 0,0.1640625 0,0.234375 0.10547,0.234375 0.0586,0 0.0703,0 0.25781,-0.19921875 0.0117,-0.01171875 0.0117,-0.03515625 0.19922,-0.22265625 0.4336,0.421875 0.87891,0.421875 1.08985,0.421875 1.14843,0 1.60547,-0.66796875 1.60547,-1.38281247 z m 4.47656,0.09375 c 0,-0.1054688 -0.082,-0.1171875 -0.12891,-0.1171875 -0.0937,0 -0.11719,0.058594 -0.1289,0.140625 -0.35157,1.01953122 -1.25391,1.01953122 -1.34766,1.01953122 -0.50391,0 -0.90234,-0.29296875 -1.125,-0.66796875 -0.30469,-0.48046877 -0.30469,-1.13671877 -0.30469,-1.48828127 h 2.78906 c 0.21094,0 0.2461,0 0.2461,-0.2109375 0,-0.984375 -0.53906,-1.9570312 -1.78125,-1.9570312 -1.16016,0 -2.07422,1.03125 -2.07422,2.2734375 0,1.33593747 1.04297,2.29687497 2.19141,2.29687497 1.21875,0 1.66406,-1.1015625 1.66406,-1.28906247 z m -0.65625,-1.3242188 h -2.36719 c 0.0586,-1.4882812 0.90234,-1.734375 1.24219,-1.734375 1.01953,0 1.125,1.3476563 1.125,1.734375 z m 2.52539,5.0039063 V -7.477859 h -1.35938 v 0.3984375 h 0.96094 v 9.1757813 h -0.96094 v 0.3984375 z m 7.04883,0 V 2.0963594 h -0.97266 v -9.1757813 h 0.97266 v -0.3984375 h -1.3711 v 9.9726563 z m 4.3623,-3.6796875 c 0,-0.1054688 -0.10547,-0.1054688 -0.1289,-0.1054688 -0.0937,0 -0.11719,0.046875 -0.12891,0.1054688 -0.29297,0.92578122 -0.9375,1.04296872 -1.3125,1.04296872 -0.52734,0 -1.40625,-0.421875 -1.40625,-2.02734372 0,-1.6289063 0.82031,-2.0507813 1.34766,-2.0507813 0.0937,0 0.71484,0.011719 1.0664,0.375 -0.41015,0.023437 -0.46875,0.328125 -0.46875,0.4570313 0,0.2578125 0.1875,0.4570312 0.45703,0.4570312 0.25782,0 0.45703,-0.1640625 0.45703,-0.46875 0,-0.6796875 -0.75,-1.0664062 -1.52343,-1.0664062 -1.24219,0 -2.15625,1.078125 -2.15625,2.3085937 0,1.27734377 0.98437,2.26171877 2.14453,2.26171877 1.33594,0 1.65234,-1.19531247 1.65234,-1.28906247 z m 4.97461,-0.9492188 c 0,-1.2773437 -0.99609,-2.3320312 -2.19141,-2.3320312 -1.2539,0 -2.21484,1.0898437 -2.21484,2.3320312 0,1.28906252 1.03125,2.23828127 2.20313,2.23828127 1.20703,0 2.20312,-0.97265625 2.20312,-2.23828127 z m -0.82031,-0.082031 c 0,0.3632812 0,0.9023437 -0.22266,1.33593747 -0.22265,0.4453125 -0.65625,0.73828125 -1.14844,0.73828125 -0.43359,0 -0.86718,-0.2109375 -1.13671,-0.66796875 -0.25782,-0.43359377 -0.25782,-1.04296877 -0.25782,-1.40624997 0,-0.3867188 0,-0.9257813 0.2461,-1.359375 0.26953,-0.4570313 0.73828,-0.6679688 1.13672,-0.6679688 0.43359,0 0.86718,0.2226563 1.125,0.6445313 0.25781,0.4335937 0.25781,1.0078125 0.25781,1.3828125 z m 6.44531,2.21484372 v -0.3046875 c -0.70312,0 -0.78516,-0.0703125 -0.78516,-0.5625 V -4.4075469 L 348,-4.2903594 v 0.3046875 c 0.69141,0 0.77344,0.070312 0.77344,0.5625 v 1.7695313 c 0,0.86718747 -0.48047,1.54687497 -1.20703,1.54687497 -0.83204,0 -0.87891,-0.46875 -0.87891,-0.99609377 v -3.3046875 l -1.46484,0.1171875 v 0.3046875 c 0.78515,0 0.78515,0.035156 0.78515,0.9140625 v 1.5 c 0,0.77343752 0,1.67578127 1.51172,1.67578127 0.55078,0 0.99609,-0.26953125 1.27734,-0.890625 v 0.890625 z m 5.54004,0 v -0.3046875 c -0.51562,0 -0.77344,0 -0.78516,-0.3046875 V -2.5091094 c 0,-0.8554687 0,-1.171875 -0.30468,-1.5234375 -0.14063,-0.1757812 -0.46875,-0.375 -1.04297,-0.375 -0.72656,0 -1.19531,0.4335938 -1.47656,1.0546875 v -1.0546875 l -1.40625,0.1171875 v 0.3046875 c 0.70312,0 0.78515,0.070312 0.78515,0.5625 v 2.66015627 c 0,0.45703125 -0.11719,0.45703125 -0.78515,0.45703125 v 0.3046875 l 1.125,-0.03515625 1.11328,0.03515625 v -0.3046875 c -0.65625,0 -0.77344,0 -0.77344,-0.45703125 V -2.5911406 c 0,-1.03125 0.71484,-1.59375 1.34766,-1.59375 0.62109,0 0.73828,0.5390625 0.73828,1.1015625 v 2.32031247 c 0,0.45703125 -0.11719,0.45703125 -0.77344,0.45703125 v 0.3046875 l 1.125,-0.03515625 z m 3.23145,-1.23046872 v -0.5742188 h -0.2461 v 0.5507813 c 0,0.73828122 -0.30469,1.11328122 -0.66797,1.11328122 -0.66797,0 -0.66797,-0.90234372 -0.66797,-1.07812502 v -2.765625 h 1.42969 v -0.3046875 h -1.42969 v -1.8398437 h -0.24609 c -0.0117,0.8203125 -0.31641,1.8867187 -1.28906,1.921875 v 0.2226562 h 0.84375 v 2.7539063 c 0,1.21874997 0.92578,1.33593747 1.28906,1.33593747 0.70313,0 0.98438,-0.703125 0.98438,-1.33593747 z m 7.75488,-2.2265625 c 0,-0.1992188 -0.1875,-0.1992188 -0.32813,-0.1992188 h -5.96484 c -0.14063,0 -0.32813,0 -0.32813,0.1992188 0,0.1992187 0.1875,0.1992187 0.33985,0.1992187 h 5.9414 c 0.15235,0 0.33985,0 0.33985,-0.1992187 z m 0,1.9335937 c 0,-0.1992187 -0.1875,-0.1992187 -0.33985,-0.1992187 h -5.9414 c -0.15235,0 -0.33985,0 -0.33985,0.1992187 0,0.1992188 0.1875,0.1992188 0.32813,0.1992188 h 5.96484 c 0.14063,0 0.32813,0 0.32813,-0.1992188 z m 5.25586,-0.1171875 v -0.3164062 h -0.9961 V -6.481765 c 0,-0.1992188 0,-0.2578125 -0.15234,-0.2578125 -0.0937,0 -0.11719,0 -0.19922,0.1171875 l -3.05859,4.6640625 v 0.3164062 h 2.64844 v 0.86718752 c 0,0.3515625 -0.0234,0.46875 -0.76172,0.46875 h -0.21094 v 0.3046875 c 0.41016,-0.03515625 0.9375,-0.03515625 1.34766,-0.03515625 0.42187,0 0.94921,0 1.35937,0.03515625 v -0.3046875 h -0.21094 c -0.73828,0 -0.76172,-0.1171875 -0.76172,-0.46875 V -1.6419219 Z m -1.69922,-0.3164062 h -2.42578 l 2.42578,-3.7148438 z m 4.01953,1.94531247 c 0,-0.6328125 -0.24609,-1.04296877 -0.64453,-1.04296877 -0.35156,0 -0.52734,0.26953127 -0.52734,0.52734377 0,0.2578125 0.17578,0.52734375 0.52734,0.52734375 0.15234,0 0.29297,-0.05859375 0.39844,-0.1640625 0.0234,0.796875 -0.25782,1.39453128 -0.69141,1.86328128 -0.0586,0.058594 -0.0703,0.070312 -0.0703,0.1171875 0,0.070312 0.0469,0.1054687 0.0937,0.1054687 0.11719,0 0.91406,-0.7851562 0.91406,-1.93359373 z m 9.25195,-2.14453127 c 0,-1.265625 -0.97265,-2.25 -2.10937,-2.25 -0.78516,0 -1.20703,0.46875 -1.3711,0.65625 v -3.1640625 l -1.42968,0.1054688 v 0.3164062 c 0.6914,0 0.77343,0.070312 0.77343,0.5507813 v 5.94140622 h 0.2461 l 0.36328,-0.62109375 c 0.15234,0.234375 0.5625,0.7265625 1.30078,0.7265625 1.18359,0 2.22656,-0.97265625 2.22656,-2.26171877 z m -0.83203,0 c 0,0.3632813 -0.0117,0.9609375 -0.30469,1.40625002 -0.21093,0.31640625 -0.58593,0.64453125 -1.125,0.64453125 -0.44531,0 -0.80859,-0.24609375 -1.04296,-0.609375 -0.14063,-0.2109375 -0.14063,-0.24609375 -0.14063,-0.42187497 v -2.0507813 c 0,-0.1875 0,-0.1992187 0.10547,-0.3632812 0.38672,-0.5507813 0.9375,-0.6328125 1.17187,-0.6328125 0.45704,0 0.8086,0.2578125 1.05469,0.6328125 0.25781,0.4101562 0.28125,0.984375 0.28125,1.3945312 z m 3.6416,2.15625002 v -0.3046875 c -0.65625,0 -0.70312,-0.0585938 -0.70312,-0.4453125 V -4.4075469 l -1.39453,0.1171875 v 0.3046875 c 0.65625,0 0.73828,0.058594 0.73828,0.5507813 v 2.67187497 c 0,0.45703125 -0.10547,0.45703125 -0.77344,0.45703125 v 0.3046875 l 1.10156,-0.03515625 c 0.33985,0 0.69141,0.0234375 1.03125,0.03515685 z M 385.85156,-6.013015 c 0,-0.2695313 -0.22265,-0.5273438 -0.52734,-0.5273438 -0.33985,0 -0.53906,0.2695313 -0.53906,0.5273438 0,0.2695312 0.23437,0.5273437 0.52734,0.5273437 0.33984,0 0.53906,-0.28125 0.53906,-0.5273437 z m 5.67481,5.12109372 V -1.4427031 h -0.25782 v 0.55078122 c 0,0.5859375 -0.24609,0.64453125 -0.35156,0.64453125 -0.32812,0 -0.375,-0.45703125 -0.375,-0.50390625 V -2.7434844 c 0,-0.4101562 0,-0.8085937 -0.35156,-1.171875 -0.38672,-0.3867187 -0.89063,-0.5507812 -1.37109,-0.5507812 -0.8086,0 -1.5,0.46875 -1.5,1.125 0,0.3046875 0.19921,0.46875 0.45703,0.46875 0.28125,0 0.45703,-0.1992188 0.45703,-0.4570313 0,-0.1171875 -0.0469,-0.4453125 -0.50391,-0.4570312 0.26953,-0.3515625 0.75,-0.4570313 1.07813,-0.4570313 0.48047,0 1.05468,0.3867188 1.05468,1.2773438 v 0.3632812 c -0.51562,0.035156 -1.20703,0.058594 -1.83984,0.3632813 -0.75,0.3398437 -0.99609,0.8554687 -0.99609,1.28906247 0,0.80859375 0.97265,1.0546875 1.59375,1.0546875 0.65625,0 1.11328,-0.3984375 1.3125,-0.8671875 0.0351,0.3984375 0.30468,0.8203125 0.77343,0.8203125 0.21094,0 0.82032,-0.140625 0.82032,-0.94921815 z M 389.8623,-1.3958281 c 0,0.94921872 -0.72656,1.28906247 -1.17187,1.28906247 -0.48047,0 -0.89063,-0.3515625 -0.89063,-0.85546875 0,-0.53906252 0.41016,-1.37109372 2.0625,-1.42968752 z m 5.41407,0.1171875 c 0,-0.5273438 -0.29297,-0.8203125 -0.42188,-0.9492188 -0.32812,-0.3164062 -0.71484,-0.3984375 -1.13672,-0.46875 -0.55078,-0.1171875 -1.21875,-0.2460937 -1.21875,-0.8203125 0,-0.3515625 0.25782,-0.7617187 1.11328,-0.7617187 1.10157,0 1.14844,0.9023437 1.17188,1.2070312 0,0.09375 0.11719,0.09375 0.11719,0.09375 0.1289,0 0.1289,-0.046875 0.1289,-0.2460937 v -0.9960938 c 0,-0.1757812 0,-0.2460937 -0.11718,-0.2460937 -0.0469,0 -0.0703,0 -0.19922,0.1171875 -0.0234,0.046875 -0.12891,0.1289062 -0.16407,0.1640625 -0.375,-0.28125 -0.78515,-0.28125 -0.9375,-0.28125 -1.21875,0 -1.59375,0.6679687 -1.59375,1.2304687 0,0.3398438 0.16407,0.6210938 0.4336,0.84375 0.3164,0.2578125 0.59765,0.3164063 1.3125,0.4570313 0.22265,0.035156 1.03125,0.1992187 1.03125,0.9140625 0,0.51562497 -0.35156,0.91406247 -1.125,0.91406247 -0.83203,0 -1.19531,-0.57421875 -1.38281,-1.41796877 -0.0352,-0.1289062 -0.0352,-0.1757812 -0.14063,-0.1757812 -0.12891,0 -0.12891,0.070312 -0.12891,0.2578125 v 1.31249997 c 0,0.1640625 0,0.234375 0.10547,0.234375 0.0586,0 0.0703,0 0.25782,-0.19921875 0.0117,-0.01171875 0.0117,-0.03515625 0.19921,-0.22265625 0.4336,0.421875 0.87891,0.421875 1.08985,0.421875 1.14844,0 1.60547,-0.66796875 1.60547,-1.38281247 z m 7.52343,-2.1796875 c 0,-0.1992188 -0.1875,-0.1992188 -0.32812,-0.1992188 h -5.96484 c -0.14063,0 -0.32813,0 -0.32813,0.1992188 0,0.1992187 0.1875,0.1992187 0.33984,0.1992187 h 5.94141 c 0.15234,0 0.33984,0 0.33984,-0.1992187 z m 0,1.9335937 c 0,-0.1992187 -0.1875,-0.1992187 -0.33984,-0.1992187 h -5.94141 c -0.15234,0 -0.33984,0 -0.33984,0.1992187 0,0.1992188 0.1875,0.1992188 0.32813,0.1992188 h 5.96484 c 0.14062,0 0.32812,0 0.32812,-0.1992188 z m 4.11915,-4.8046875 c 0,-0.3632812 -0.36329,-0.6914062 -0.89063,-0.6914062 -0.70312,0 -1.54687,0.5273437 -1.54687,1.5820312 v 1.1484375 h -0.78516 v 0.3046875 h 0.78516 v 3.22265627 c 0,0.45703125 -0.10547,0.45703125 -0.77344,0.45703125 v 0.3046875 l 1.13672,-0.03515625 c 0.39843,0 0.86718,0 1.26562,0.03515625 v -0.3046875 h -0.21094 c -0.73828,0 -0.76171,-0.1171875 -0.76171,-0.46875 V -3.9856719 h 1.13671 v -0.3046875 h -1.16015 v -1.1601562 c 0,-0.8789063 0.48047,-1.359375 0.91406,-1.359375 0.0352,0 0.17578,0 0.32813,0.070312 -0.11719,0.046875 -0.29297,0.1757812 -0.29297,0.421875 0,0.234375 0.15234,0.4335937 0.42187,0.4335937 0.29297,0 0.4336,-0.1992187 0.4336,-0.445312 z m 4.3125,5.43750002 V -1.4427031 h -0.25782 v 0.55078122 c 0,0.5859375 -0.24609,0.64453125 -0.35156,0.64453125 -0.32812,0 -0.375,-0.45703125 -0.375,-0.50390625 V -2.7434844 c 0,-0.4101562 0,-0.8085937 -0.35156,-1.171875 -0.38672,-0.3867187 -0.89063,-0.5507812 -1.3711,-0.5507812 -0.80859,0 -1.5,0.46875 -1.5,1.125 0,0.3046875 0.19922,0.46875 0.45704,0.46875 0.28125,0 0.45703,-0.1992188 0.45703,-0.4570313 0,-0.1171875 -0.0469,-0.4453125 -0.50391,-0.4570312 0.26953,-0.3515625 0.75,-0.4570313 1.07813,-0.4570313 0.48046,0 1.05468,0.3867188 1.05468,1.2773438 v 0.3632812 c -0.51562,0.035156 -1.20703,0.058594 -1.83984,0.3632813 -0.75,0.3398437 -0.99609,0.8554687 -0.99609,1.28906247 0,0.80859375 0.97265,1.0546875 1.59375,1.0546875 0.65625,0 1.11328,-0.3984375 1.3125,-0.8671875 0.0351,0.3984375 0.30468,0.8203125 0.77343,0.8203125 0.21094,0 0.82032,-0.140625 0.82032,-0.94921875 z m -1.66407,-0.50390622 c 0,0.94921872 -0.72656,1.28906247 -1.17187,1.28906247 -0.48047,0 -0.89063,-0.3515625 -0.89063,-0.85546875 0,-0.53906252 0.41016,-1.37109372 2.0625,-1.42968752 z m 4.37403,1.39453122 v -0.3046875 c -0.66797,0 -0.78516,0 -0.78516,-0.45703125 V -6.9153594 l -1.42969,0.1054688 v 0.3164062 c 0.70313,0 0.77344,0.070312 0.77344,0.5507813 v 5.17968747 c 0,0.45703125 -0.10547,0.45703125 -0.77344,0.45703125 v 0.3046875 l 1.10156,-0.03515625 z m 3.81152,-1.27734372 c 0,-0.5273438 -0.29297,-0.8203125 -0.42188,-0.9492188 -0.32812,-0.3164062 -0.71484,-0.3984375 -1.13671,-0.46875 -0.55079,-0.1171875 -1.21875,-0.2460937 -1.21875,-0.8203125 0,-0.3515625 0.25781,-0.7617187 1.11328,-0.7617187 1.10156,0 1.14843,0.9023437 1.17187,1.2070312 0,0.09375 0.11719,0.09375 0.11719,0.09375 0.12891,0 0.12891,-0.046875 0.12891,-0.2460937 v -0.9960938 c 0,-0.1757812 0,-0.2460937 -0.11719,-0.2460937 -0.0469,0 -0.0703,0 -0.19922,0.1171875 -0.0234,0.046875 -0.12891,0.1289062 -0.16406,0.1640625 -0.375,-0.28125 -0.78516,-0.28125 -0.9375,-0.28125 -1.21875,0 -1.59375,0.6679687 -1.59375,1.2304687 0,0.3398438 0.16406,0.6210938 0.43359,0.84375 0.31641,0.2578125 0.59766,0.3164063 1.3125,0.4570313 0.22266,0.035156 1.03125,0.1992187 1.03125,0.9140625 0,0.51562497 -0.35156,0.91406247 -1.125,0.91406247 -0.83203,0 -1.19531,-0.57421875 -1.38281,-1.41796877 -0.0352,-0.1289062 -0.0352,-0.1757812 -0.14063,-0.1757812 -0.1289,0 -0.1289,0.070312 -0.1289,0.2578125 v 1.31249997 c 0,0.1640625 0,0.234375 0.10547,0.234375 0.0586,0 0.0703,0 0.25781,-0.19921875 0.0117,-0.01171875 0.0117,-0.03515625 0.19922,-0.22265625 0.43359,0.421875 0.8789,0.421875 1.08984,0.421875 1.14844,0 1.60547,-0.66796875 1.60547,-1.38281247 z m 4.47656,0.09375 c 0,-0.1054688 -0.082,-0.1171875 -0.1289,-0.1171875 -0.0937,0 -0.11719,0.058594 -0.12891,0.140625 -0.35156,1.01953122 -1.25391,1.01953122 -1.34766,1.01953122 -0.5039,0 -0.90234,-0.29296875 -1.125,-0.66796875 -0.30468,-0.48046877 -0.30468,-1.13671877 -0.30468,-1.48828127 h 2.78906 c 0.21094,0 0.24609,0 0.24609,-0.2109375 0,-0.984375 -0.53906,-1.9570312 -1.78125,-1.9570312 -1.16015,0 -2.07422,1.03125 -2.07422,2.2734375 0,1.33593747 1.04297,2.29687497 2.19141,2.29687497 1.21875,0 1.66406,-1.1015625 1.66406,-1.28906247 z m -0.65625,-1.3242188 h -2.36719 c 0.0586,-1.4882812 0.90235,-1.734375 1.24219,-1.734375 1.01953,0 1.125,1.3476563 1.125,1.734375 z m 2.52539,5.0039063 v -9.9726563 h -1.35937 v 0.3984375 h 0.96094 v 9.1757813 h -0.96094 v 0.3984375 z m 7.0459,0 V 2.0963594 h -0.97266 v -9.1757813 h 0.97266 v -0.3984375 h -1.37109 v 9.9726563 z m 4.36524,-3.6796875 c 0,-0.1054688 -0.10547,-0.1054688 -0.12891,-0.1054688 -0.0937,0 -0.11719,0.046875 -0.12891,0.1054688 -0.29297,0.92578122 -0.9375,1.04296872 -1.3125,1.04296872 -0.52734,0 -1.40625,-0.421875 -1.40625,-2.02734372 0,-1.6289063 0.82032,-2.0507813 1.34766,-2.0507813 0.0937,0 0.71484,0.011719 1.06641,0.375 -0.41016,0.023437 -0.46875,0.328125 -0.46875,0.4570313 0,0.2578125 0.1875,0.4570312 0.45703,0.4570312 0.25781,0 0.45703,-0.1640625 0.45703,-0.46875 0,-0.6796875 -0.75,-1.0664062 -1.52344,-1.0664062 -1.24219,0 -2.15625,1.078125 -2.15625,2.3085937 0,1.27734377 0.98438,2.26171877 2.14453,2.26171877 1.33594,0 1.65235,-1.19531247 1.65235,-1.28906247 z m 4.9746,-0.9492188 c 0,-1.2773437 -0.99609,-2.3320312 -2.1914,-2.3320312 -1.25391,0 -2.21485,1.0898437 -2.21485,2.3320312 0,1.28906252 1.03125,2.23828127 2.20313,2.23828127 1.20703,0 2.20312,-0.97265625 2.20312,-2.23828127 z m -0.82031,-0.082031 c 0,0.3632812 0,0.9023437 -0.22265,1.33593747 -0.22266,0.4453125 -0.65625,0.73828125 -1.14844,0.73828125 -0.4336,0 -0.86719,-0.2109375 -1.13672,-0.66796875 -0.25781,-0.43359377 -0.25781,-1.04296877 -0.25781,-1.40624997 0,-0.3867188 0,-0.9257813 0.24609,-1.359375 0.26953,-0.4570313 0.73828,-0.6679688 1.13672,-0.6679688 0.43359,0 0.86719,0.2226563 1.125,0.6445313 0.25781,0.4335937 0.25781,1.0078125 0.25781,1.3828125 z m 6.44531,2.21484372 v -0.3046875 c -0.70312,0 -0.78515,-0.0703125 -0.78515,-0.5625 V -4.4075469 l -1.45313,0.1171875 v 0.3046875 c 0.69141,0 0.77344,0.070312 0.77344,0.5625 v 1.7695313 c 0,0.86718747 -0.48047,1.54687497 -1.20703,1.54687497 -0.83203,0 -0.87891,-0.46875 -0.87891,-0.99609377 v -3.3046875 l -1.46484,0.1171875 v 0.3046875 c 0.78516,0 0.78516,0.035156 0.78516,0.9140625 v 1.5 c 0,0.77343752 0,1.67578127 1.51171,1.67578127 0.55079,0 0.9961,-0.26953125 1.27735,-0.890625 v 0.890625 z m 5.54004,0 v -0.3046875 c -0.51562,0 -0.77343,0 -0.78515,-0.3046875 V -2.5091094 c 0,-0.8554687 0,-1.171875 -0.30469,-1.5234375 -0.14062,-0.1757812 -0.46875,-0.375 -1.04297,-0.375 -0.72656,0 -1.19531,0.4335938 -1.47656,1.0546875 v -1.0546875 l -1.40625,0.1171875 v 0.3046875 c 0.70312,0 0.78516,0.070312 0.78516,0.5625 v 2.66015627 c 0,0.45703125 -0.11719,0.45703125 -0.78516,0.45703125 v 0.3046875 l 1.125,-0.03515625 1.11328,0.03515625 v -0.3046875 c -0.65625,0 -0.77344,0 -0.77344,-0.45703125 V -2.5911406 c 0,-1.03125 0.71485,-1.59375 1.34766,-1.59375 0.62109,0 0.73828,0.5390625 0.73828,1.1015625 v 2.32031247 c 0,0.45703125 -0.11719,0.45703125 -0.77344,0.45703125 v 0.3046875 l 1.125,-0.03515625 z m 3.23145,-1.23046872 v -0.5742188 h -0.24609 v 0.5507813 c 0,0.73828122 -0.30469,1.11328122 -0.66797,1.11328122 -0.66797,0 -0.66797,-0.90234372 -0.66797,-1.07812502 v -2.765625 h 1.42969 v -0.3046875 h -1.42969 v -1.8398437 h -0.2461 c -0.0117,0.8203125 -0.3164,1.8867187 -1.28906,1.921875 v 0.2226562 h 0.84375 v 2.7539063 c 0,1.21874997 0.92578,1.33593747 1.28906,1.33593747 0.70313,0 0.98438,-0.703125 0.98438,-1.33593747 z m 7.75488,-2.2265625 c 0,-0.1992188 -0.1875,-0.1992188 -0.32812,-0.1992188 h -5.96485 c -0.14062,0 -0.32812,0 -0.32812,0.1992188 0,0.1992187 0.1875,0.1992187 0.33984,0.1992187 h 5.94141 c 0.15234,0 0.33984,0 0.33984,-0.1992187 z m 0,1.9335937 c 0,-0.1992187 -0.1875,-0.1992187 -0.33984,-0.1992187 h -5.94141 c -0.15234,0 -0.33984,0 -0.33984,0.1992187 0,0.1992188 0.1875,0.1992188 0.32812,0.1992188 h 5.96485 c 0.14062,0 0.32812,0 0.32812,-0.1992188 z m 4.74024,1.52343752 v -0.3046875 h -0.31641 c -0.90234,0 -0.92578,-0.1171875 -0.92578,-0.48046875 V -6.3762969 c 0,-0.234375 0,-0.2578125 -0.23438,-0.2578125 -0.60937,0.6328125 -1.48828,0.6328125 -1.80468,0.6328125 v 0.3164063 c 0.19922,0 0.78515,0 1.30078,-0.2578125 v 5.15624997 c 0,0.3515625 -0.0352,0.48046875 -0.92578,0.48046875 h -0.31641 v 0.3046875 c 0.35156,-0.03515625 1.20703,-0.03515625 1.60547,-0.03515625 0.39844,0 1.26562,0 1.61719,0.03515645 z m 2.39062,2.49609378 v -9.9726563 h -1.35937 v 0.3984375 h 0.96093 v 9.1757813 h -0.96093 v 0.3984375 z m 0,0"
       style="fill:#000000;fill-opacity:1;fill-rule:nonzero;stroke:none"
       aria-label="[height=2][count=4,bias=false][count=4,bias=false][count=4,bias=false][count=4,bias=false][count=1]"
       transform="matrix(1.3333333,0,0,1.3333333,0,9.9626667)" />
  </g>
</svg>
