<?xml version="1.0" encoding="UTF-8" standalone="no"?>
<!-- Created with Inkscape (http://www.inkscape.org/) -->

<svg
   version="1.1"
   id="svg1"
   width="303.95599"
   height="24.270666"
   viewBox="0 0 303.95599 24.270666"
   xmlns="http://www.w3.org/2000/svg"
   xmlns:svg="http://www.w3.org/2000/svg">
  <defs
     id="defs1" />
  <g
     id="g1">
    <path
       id="path1"
       d="M -113.38728,-8.50403 H 113.38729 V 8.50403 h -226.77457 z"
       style="fill:#ccffcc;fill-opacity:1;fill-rule:nonzero;stroke:#808080;stroke-width:1.19553;stroke-linecap:butt;stroke-linejoin:miter;stroke-miterlimit:10;stroke-dasharray:none;stroke-opacity:1"
       transform="matrix(1.3333333,0,0,-1.3333333,151.97867,12.134667)" />
    <path
       id="path2"
       d="m 6.8194609,-4.5000547 -0.1875,-2.2382812 H 0.54992969 l -0.1875,2.2382812 h 0.24609375 c 0.140625,-1.6054687 0.29296875,-1.9335937 1.79296876,-1.9335937 0.1757812,0 0.4335937,0 0.5390625,0.023437 0.2109375,0.035156 0.2109375,0.140625 0.2109375,0.375 v 5.24999996 c 0,0.33984375 0,0.48046875 -1.0546875,0.48046875 H 1.6983672 V -5.46875e-5 C 2.1085234,-0.03521094 3.1280547,-0.03521094 3.5850859,-0.03521094 c 0.4570313,0 1.4882813,0 1.8984375,0.0351562525 V -0.30474219 H 5.0850859 c -1.0546875,0 -1.0546875,-0.140625 -1.0546875,-0.48046875 V -6.0352109 c 0,-0.1992188 0,-0.3398438 0.1875,-0.375 0.1054688,-0.023437 0.375,-0.023437 0.5625,-0.023437 1.5,0 1.6523438,0.328125 1.7929688,1.9335937 z m 3.1669922,0.703125 c 0,-0.3164062 -0.3046875,-0.609375 -0.7265625,-0.609375 -0.7382812,0 -1.0898437,0.6679688 -1.2304687,1.1015625 v -1.1015625 l -1.3828125,0.1171875 v 0.3046875 c 0.6914062,0 0.7734375,0.070312 0.7734375,0.5625 v 2.66015626 c 0,0.45703125 -0.1054688,0.45703125 -0.7734375,0.45703125 V -5.46875e-5 L 7.7833281,-0.03521094 c 0.3984375,0 0.8671875,0 1.265625,0.0351562525 V -0.30474219 H 8.8380156 c -0.7382812,0 -0.7617187,-0.1171875 -0.7617187,-0.46875 V -2.3086484 c 0,-0.984375 0.421875,-1.875 1.1835937,-1.875 0.058594,0 0.082031,0 0.1054688,0.011719 -0.035156,0.011719 -0.234375,0.1289063 -0.234375,0.3867188 0,0.28125 0.2109375,0.4335937 0.4335937,0.4335937 0.1757813,0 0.421875,-0.1289062 0.421875,-0.4453128 z m 5.1005859,2.90625001 V -1.4414609 h -0.257812 v 0.55078121 c 0,0.5859375 -0.246094,0.64453125 -0.351563,0.64453125 -0.328125,0 -0.375,-0.45703125 -0.375,-0.50390625 V -2.7422422 c 0,-0.4101562 0,-0.8085937 -0.351562,-1.171875 -0.386719,-0.3867187 -0.890625,-0.5507812 -1.371094,-0.5507812 -0.808594,0 -1.5,0.46875 -1.5,1.125 0,0.3046875 0.199219,0.46875 0.457031,0.46875 0.28125,0 0.457031,-0.1992188 0.457031,-0.4570313 0,-0.1171875 -0.04687,-0.4453125 -0.503906,-0.4570312 0.269531,-0.3515625 0.75,-0.4570313 1.078125,-0.4570313 0.480469,0 1.054688,0.3867188 1.054688,1.2773438 v 0.3632812 c -0.515625,0.035156 -1.207032,0.058594 -1.839844,0.3632813 -0.75,0.3398437 -0.996094,0.8554687 -0.996094,1.28906246 0,0.80859375 0.972656,1.0546875 1.59375,1.0546875 0.65625,0 1.113281,-0.3984375 1.3125,-0.8671875 0.03516,0.3984375 0.304688,0.8203125 0.773438,0.8203125 0.210937,0 0.820312,-0.140625 0.820312,-0.94921875 z M 13.422977,-1.3945859 c 0,0.94921871 -0.726563,1.28906246 -1.171875,1.28906246 -0.480469,0 -0.890625,-0.3515625 -0.890625,-0.85546875 0,-0.53906251 0.410156,-1.37109371 2.0625,-1.42968751 z M 17.714969,-5.46875e-5 V -0.30474219 c -0.65625,0 -0.703125,-0.0585938 -0.703125,-0.4453125 V -4.4063047 l -1.394532,0.1171875 v 0.3046875 c 0.65625,0 0.738282,0.058594 0.738282,0.5507813 v 2.67187496 c 0,0.45703125 -0.105469,0.45703125 -0.773438,0.45703125 V -5.46875e-5 L 16.683719,-0.03521094 c 0.339843,0 0.691406,0.0234375 1.03125,0.0351562525 z M 17.164187,-6.0117734 c 0,-0.2695313 -0.222656,-0.5273438 -0.527343,-0.5273438 -0.339844,0 -0.539063,0.2695313 -0.539063,0.5273438 0,0.2695312 0.234375,0.5273437 0.527344,0.5273437 0.339844,0 0.539062,-0.28125 0.539062,-0.5273437 z m 6.19043,6.0117187125 V -0.30474219 c -0.515625,0 -0.773437,0 -0.785156,-0.3046875 V -2.5078672 c 0,-0.8554687 0,-1.171875 -0.304688,-1.5234375 -0.140625,-0.1757812 -0.46875,-0.375 -1.042968,-0.375 -0.726563,0 -1.195313,0.4335938 -1.476563,1.0546875 v -1.0546875 l -1.40625,0.1171875 v 0.3046875 c 0.703125,0 0.785156,0.070312 0.785156,0.5625 v 2.66015626 c 0,0.45703125 -0.117187,0.45703125 -0.785156,0.45703125 V -5.46875e-5 l 1.125,-0.0351562525 1.113281,0.0351562525 V -0.30474219 c -0.65625,0 -0.773437,0 -0.773437,-0.45703125 V -2.5898984 c 0,-1.03125 0.714844,-1.59375 1.347656,-1.59375 0.621094,0 0.738281,0.5390625 0.738281,1.1015625 v 2.32031246 c 0,0.45703125 -0.117187,0.45703125 -0.773437,0.45703125 V -5.46875e-5 l 1.125,-0.0351562525 z m 0,0"
       style="fill:#000000;fill-opacity:1;fill-rule:nonzero;stroke:none"
       aria-label="Train"
       transform="matrix(1.3333333,0,0,1.3333333,136.27067,16.558667)" />
    <path
       id="path3"
       d="M 0.59775,-8.50403 H 28.94454 V 8.50403 H 0.59775 Z"
       style="fill:#fffccc;fill-opacity:1;fill-rule:nonzero;stroke:#808080;stroke-width:1.19553;stroke-linecap:butt;stroke-linejoin:miter;stroke-miterlimit:10;stroke-dasharray:none;stroke-opacity:1"
       transform="matrix(1.3333333,0,0,-1.3333333,151.97867,12.134667)" />
    <path
       id="path4"
       d="m 7.0443672,-3.3523203 c 0,-1.8867188 -1.3476563,-3.4570313 -3.046875,-3.4570313 H 0.35296094 v 0.3164063 h 0.234375 c 0.77343746,0 0.78515626,0.1054687 0.78515626,0.46875 v 5.24999999 c 0,0.3515625 -0.011719,0.46875 -0.78515626,0.46875 h -0.234375 V -7.578125e-4 H 3.9974922 c 1.6757812,0 3.046875,-1.4765624875 3.046875,-3.3515624875 z m -0.9960938,0 c 0,1.1132812 -0.1875,1.7109375 -0.5507812,2.1914062 -0.1992188,0.26953129 -0.7617188,0.85546879 -1.7695313,0.85546879 H 2.7201484 c -0.46875,0 -0.4921875,-0.0703125 -0.4921875,-0.3984375 V -6.0945078 c 0,-0.328125 0.023437,-0.3984375 0.4921875,-0.3984375 h 0.9960938 c 0.6210937,0 1.3007812,0.2109375 1.8164062,0.9257812 0.421875,0.5859375 0.515625,1.4414063 0.515625,2.2148438 z m 5.7011716,2.1679687 c 0,-0.1054687 -0.08203,-0.1171875 -0.128906,-0.1171875 -0.09375,0 -0.117187,0.058594 -0.128906,0.140625 -0.351563,1.01953129 -1.253906,1.01953129 -1.347656,1.01953129 -0.5039067,0 -0.9023442,-0.29296875 -1.1250004,-0.66796875 C 8.7142891,-1.2898203 8.7142891,-1.9460703 8.7142891,-2.2976328 h 2.7890629 c 0.210937,0 0.246093,0 0.246093,-0.2109375 0,-0.984375 -0.539062,-1.9570313 -1.7812497,-1.9570313 -1.1601562,0 -2.0742187,1.03125 -2.0742187,2.2734375 0,1.33593754 1.0429687,2.29687504 2.1914064,2.29687504 1.21875,0 1.664062,-1.1015625 1.664062,-1.28906254 z m -0.65625,-1.3242187 H 8.7260078 c 0.058594,-1.4882813 0.9023438,-1.734375 1.2421875,-1.734375 1.0195317,0 1.1249997,1.3476562 1.1249997,1.734375 z m 6.00293,-1.4765625 v -0.3046875 c -0.234375,0.011719 -0.515625,0.023437 -0.75,0.023437 l -0.867187,-0.023437 v 0.3046875 c 0.375,0.011719 0.480468,0.234375 0.480468,0.4335937 0,0.082031 -0.02344,0.1289063 -0.05859,0.234375 L 14.881281,-0.77419531 13.768,-3.5515391 c -0.05859,-0.140625 -0.05859,-0.1757812 -0.05859,-0.1757812 0,-0.2578125 0.386719,-0.2578125 0.5625,-0.2578125 v -0.3046875 l -1.078125,0.023437 c -0.269531,0 -0.667968,-0.011719 -0.972656,-0.023437 v 0.3046875 c 0.632813,0 0.667969,0.058594 0.796875,0.3632812 l 1.441406,3.53906254 c 0.05859,0.140625 0.07031,0.1875 0.199219,0.1875 0.128906,0 0.175781,-0.08203125 0.210938,-0.1875 l 1.312499,-3.23437504 c 0.08203,-0.234375 0.257813,-0.65625 0.914063,-0.6679687 z m 0,0"
       style="fill:#000000;fill-opacity:1;fill-rule:nonzero;stroke:none"
       aria-label="Dev"
       transform="matrix(1.3333333,0,0,1.3333333,160.14267,16.598667)" />
    <path
       id="path5"
       d="M 0.59775,-8.50403 H 28.94454 V 8.50403 H 0.59775 Z"
       style="fill:#ccccff;fill-opacity:1;fill-rule:nonzero;stroke:#808080;stroke-width:1.19553;stroke-linecap:butt;stroke-linejoin:miter;stroke-miterlimit:10;stroke-dasharray:none;stroke-opacity:1"
       transform="matrix(1.3333333,0,0,-1.3333333,151.97867,12.134667)" />
    <path
       id="path6"
       d="m 6.8193203,-4.5000547 -0.1875,-2.2382812 H 0.54978906 l -0.1875,2.2382812 h 0.24609375 c 0.140625,-1.6054687 0.29296875,-1.9335937 1.79296879,-1.9335937 0.1757812,0 0.4335937,0 0.5390625,0.023437 0.2109375,0.035156 0.2109375,0.140625 0.2109375,0.375 v 5.24999996 c 0,0.33984375 0,0.48046875 -1.0546875,0.48046875 H 1.6982266 V -5.46875e-5 C 2.1083828,-0.03521094 3.1279141,-0.03521094 3.5849453,-0.03521094 c 0.4570313,0 1.4882813,0 1.8984375,0.0351562525 V -0.30474219 H 5.0849453 c -1.0546875,0 -1.0546875,-0.140625 -1.0546875,-0.48046875 V -6.0352109 c 0,-0.1992188 0,-0.3398438 0.1875,-0.375 0.1054688,-0.023437 0.375,-0.023437 0.5625,-0.023437 1.5,0 1.6523438,0.328125 1.7929688,1.9335937 z m 3.6826167,3.3164063 c 0,-0.1054688 -0.08203,-0.1171875 -0.128906,-0.1171875 -0.09375,0 -0.117187,0.058594 -0.128906,0.140625 -0.3515625,1.01953121 -1.2539063,1.01953121 -1.3476563,1.01953121 -0.5039062,0 -0.9023437,-0.29296875 -1.125,-0.66796875 C 7.4667812,-1.2891172 7.4667812,-1.9453672 7.4667812,-2.2969297 h 2.7890628 c 0.210937,0 0.246093,0 0.246093,-0.2109375 0,-0.984375 -0.539062,-1.9570312 -1.7812495,-1.9570312 -1.1601563,0 -2.0742188,1.03125 -2.0742188,2.2734375 0,1.33593746 1.0429688,2.29687496 2.1914063,2.29687496 1.21875,0 1.664062,-1.1015625 1.664062,-1.28906246 z M 9.8456875,-2.5078672 H 7.4785 c 0.058594,-1.4882812 0.9023437,-1.734375 1.2421875,-1.734375 1.0195312,0 1.125,1.3476563 1.125,1.734375 z m 4.5292965,1.2304688 c 0,-0.5273438 -0.292968,-0.8203125 -0.421875,-0.9492188 -0.328125,-0.3164062 -0.714843,-0.3984375 -1.136718,-0.46875 -0.550782,-0.1171875 -1.21875,-0.2460937 -1.21875,-0.8203125 0,-0.3515625 0.257812,-0.7617187 1.113281,-0.7617187 1.101562,0 1.148437,0.9023437 1.171875,1.2070312 0,0.09375 0.117187,0.09375 0.117187,0.09375 0.128907,0 0.128907,-0.046875 0.128907,-0.2460937 v -0.9960938 c 0,-0.1757812 0,-0.2460937 -0.117188,-0.2460937 -0.04687,0 -0.07031,0 -0.199219,0.1171875 -0.02344,0.046875 -0.128906,0.1289062 -0.164062,0.1640625 -0.375,-0.28125 -0.785156,-0.28125 -0.9375,-0.28125 -1.21875,0 -1.59375,0.6679687 -1.59375,1.2304687 0,0.3398438 0.164062,0.6210938 0.433594,0.84375 0.316406,0.2578125 0.597656,0.3164063 1.3125,0.4570313 0.222656,0.035156 1.03125,0.1992187 1.03125,0.9140625 0,0.51562496 -0.351563,0.91406246 -1.125,0.91406246 -0.832032,0 -1.195313,-0.57421875 -1.382813,-1.41796876 -0.03516,-0.1289062 -0.03516,-0.1757812 -0.140625,-0.1757812 -0.128906,0 -0.128906,0.070312 -0.128906,0.2578125 v 1.31249996 c 0,0.1640625 0,0.234375 0.105469,0.234375 0.05859,0 0.07031,0 0.257812,-0.19921875 0.01172,-0.01171875 0.01172,-0.03515625 0.199219,-0.22265625 0.433594,0.421875 0.878906,0.421875 1.089844,0.421875 1.148437,0 1.605468,-0.66796875 1.605468,-1.38281246 z m 3.644532,0.046875 v -0.5742188 h -0.246094 v 0.5507813 c 0,0.73828121 -0.304688,1.11328121 -0.667969,1.11328121 -0.667969,0 -0.667969,-0.90234371 -0.667969,-1.07812501 v -2.765625 h 1.429688 v -0.3046875 h -1.429688 v -1.8398437 h -0.246093 c -0.01172,0.8203125 -0.316407,1.8867187 -1.289063,1.921875 v 0.2226562 h 0.84375 v 2.7539063 c 0,1.21874996 0.925781,1.33593746 1.289063,1.33593746 0.703125,0 0.984375,-0.703125 0.984375,-1.33593746 z m 0,0"
       style="fill:#000000;fill-opacity:1;fill-rule:nonzero;stroke:none"
       aria-label="Test"
       transform="matrix(1.3333333,0,0,1.3333333,159.27867,16.558667)" />
  </g>
</svg>
