<?xml version="1.0" encoding="UTF-8" standalone="no"?>
<!-- Created with Inkscape (http://www.inkscape.org/) -->

<svg
   version="1.1"
   id="svg1"
   width="279.67599"
   height="245.524"
   viewBox="0 0 279.67599 245.524"
   xmlns="http://www.w3.org/2000/svg"
   xmlns:svg="http://www.w3.org/2000/svg">
  <defs
     id="defs1">
    <clipPath
       clipPathUnits="userSpaceOnUse"
       id="clipPath25">
      <path
         d="M 0,0 H 194.26303 V 161.39777 H 0 Z"
         id="path25" />
    </clipPath>
  </defs>
  <g
     id="g1">
    <path
       id="path1"
       d="M 0,0 V 161.39777 M 32.37717,0 V 161.39777 M 64.75433,0 V 161.39777 M 97.13152,0 V 161.39777 M 129.50868,0 V 161.39777 M 161.88586,0 V 161.39777 M 194.26303,0 v 161.39777"
       style="fill:none;stroke:#bfbfbf;stroke-width:0.3985;stroke-linecap:butt;stroke-linejoin:miter;stroke-miterlimit:10;stroke-dasharray:none;stroke-opacity:1"
       transform="matrix(1.3333333,0,0,-1.3333333,12.914667,223.90133)" />
    <path
       id="path2"
       d="M 0,80.69807 H 194.26303 M 0,121.04791 H 194.26303 M 0,161.39777 h 194.26303"
       style="fill:none;stroke:#bfbfbf;stroke-width:0.3985;stroke-linecap:butt;stroke-linejoin:miter;stroke-miterlimit:10;stroke-dasharray:none;stroke-opacity:1"
       transform="matrix(1.3333333,0,0,-1.3333333,12.914667,223.90133)" />
    <path
       id="path3"
       d="m 0,-2.12589 v 4.25178 m 32.37717,-4.25178 v 4.25178 m 32.37716,-4.25178 v 4.25178 m 32.37719,-4.25178 v 4.25178 m 32.37716,-4.25178 v 4.25178 m 32.37718,-4.25178 v 4.25178 m 32.37717,-4.25178 v 4.25178"
       style="fill:none;stroke:#808080;stroke-width:0.19925;stroke-linecap:butt;stroke-linejoin:miter;stroke-miterlimit:10;stroke-dasharray:none;stroke-opacity:1"
       transform="matrix(1.3333333,0,0,-1.3333333,12.914667,223.90133)" />
    <path
       id="path4"
       d="m 95.00558,80.69807 h 4.25185 m -4.25185,40.34984 h 4.25185 m -4.25185,40.34986 h 4.25185"
       style="fill:none;stroke:#808080;stroke-width:0.19925;stroke-linecap:butt;stroke-linejoin:miter;stroke-miterlimit:10;stroke-dasharray:none;stroke-opacity:1"
       transform="matrix(1.3333333,0,0,-1.3333333,12.914667,223.90133)" />
    <path
       id="path5"
       d="M 0,0 H 192.27051"
       style="fill:none;stroke:#000000;stroke-width:0.3985;stroke-linecap:butt;stroke-linejoin:miter;stroke-miterlimit:10;stroke-dasharray:none;stroke-opacity:1"
       transform="matrix(1.3333333,0,0,-1.3333333,12.914667,223.90133)" />
    <path
       id="path6"
       d="M 1.99252,0 -1.19551,1.59401 0,0 -1.19551,-1.59401"
       style="fill:#000000;fill-opacity:1;fill-rule:nonzero;stroke:none"
       transform="matrix(1.3333333,0,0,-1.3333333,269.27535,223.90133)" />
    <path
       id="path7"
       d="M 97.13152,0 V 159.40524"
       style="fill:none;stroke:#000000;stroke-width:0.3985;stroke-linecap:butt;stroke-linejoin:miter;stroke-miterlimit:10;stroke-dasharray:none;stroke-opacity:1"
       transform="matrix(1.3333333,0,0,-1.3333333,12.914667,223.90133)" />
    <path
       id="path8"
       d="M 1.99252,0 -1.19551,1.59401 0,0 -1.19551,-1.59401"
       style="fill:#000000;fill-opacity:1;fill-rule:nonzero;stroke:none"
       transform="matrix(0,-1.3333333,-1.3333333,0,142.42336,11.361013)" />
    <path
       id="path9"
       d="m 6.5637656,-2.2976641 c 0.1757813,0 0.3515625,0 0.3515625,-0.1992187 0,-0.1992188 -0.1757812,-0.1992188 -0.3515625,-0.1992188 h -5.390625 c -0.1640625,0 -0.33984373,0 -0.33984373,0.1992188 0,0.1992187 0.17578123,0.1992187 0.33984373,0.1992187 z m 0,0"
       style="fill:#000000;fill-opacity:1;fill-rule:nonzero;stroke:none"
       aria-label="−"
       transform="matrix(1.3333333,0,0,1.3333333,4.428,239.98933)" />
    <path
       id="path10"
       d="m 1.3118594,-3.2703203 v -0.234375 c 0,-2.5195313 1.2421875,-2.8828125 1.7460937,-2.8828125 0.234375,0 0.65625,0.058594 0.8789063,0.3984375 -0.1523438,0 -0.5507813,0 -0.5507813,0.4453125 0,0.3164062 0.234375,0.4570312 0.4570313,0.4570312 0.1640625,0 0.4570312,-0.082031 0.4570312,-0.46875 0,-0.5976562 -0.4335937,-1.078125 -1.265625,-1.078125 -1.2773437,0 -2.61328123,1.2890625 -2.61328123,3.4804688 0,2.66015624 1.14843753,3.37499999 2.07421873,3.37499999 1.1132813,0 2.0507813,-0.9375 2.0507813,-2.24999999 0,-1.265625 -0.8789063,-2.2265625 -1.9921875,-2.2265625 -0.6679688,0 -1.0429688,0.5039062 -1.2421875,0.984375 z m 1.1835937,3.21093749 c -0.6210937,0 -0.9257812,-0.59765625 -0.984375,-0.75 C 1.3352969,-1.2781328 1.3352969,-2.0750078 1.3352969,-2.2507891 c 0,-0.7734375 0.3164062,-1.7695312 1.21875,-1.7695312 0.1523437,0 0.609375,0 0.9257812,0.609375 0.1757813,0.375 0.1757813,0.8789062 0.1757813,1.3710937 0,0.4804688 0,0.9726563 -0.1640625,1.33593754 -0.3046875,0.59765625 -0.7617188,0.64453125 -0.9960938,0.64453125 z m 0,0"
       style="fill:#000000;fill-opacity:1;fill-rule:nonzero;stroke:none"
       aria-label="6"
       transform="matrix(1.3333333,0,0,1.3333333,14.758667,239.98933)" />
    <path
       id="path11"
       d="m 6.5637422,-2.2976641 c 0.1757812,0 0.3515625,0 0.3515625,-0.1992187 0,-0.1992188 -0.1757813,-0.1992188 -0.3515625,-0.1992188 h -5.390625 c -0.1640625,0 -0.33984376,0 -0.33984376,0.1992188 0,0.1992187 0.17578126,0.1992187 0.33984376,0.1992187 z m 0,0"
       style="fill:#000000;fill-opacity:1;fill-rule:nonzero;stroke:none"
       aria-label="−"
       transform="matrix(1.3333333,0,0,1.3333333,47.596,239.98933)" />
    <path
       id="path12"
       d="m 2.9309531,-1.6414141 v 0.86718754 c 0,0.3515625 -0.023437,0.46875 -0.7617187,0.46875 H 1.9582969 V -7.890625e-4 C 2.3684531,-0.03594531 2.8957969,-0.03594531 3.3059531,-0.03594531 c 0.421875,0 0.9492188,0 1.359375,0.0351562475 V -0.30547656 H 4.4543906 c -0.7382812,0 -0.7617187,-0.1171875 -0.7617187,-0.46875 V -1.6414141 H 4.6887656 V -1.9578203 H 3.6926719 v -4.5234375 c 0,-0.1992188 0,-0.2578125 -0.1523438,-0.2578125 -0.09375,0 -0.1171875,0 -0.1992187,0.1171875 l -3.05859377,4.6640625 v 0.3164062 z m 0.058594,-0.3164062 H 0.56376563 L 2.9895469,-5.6726641 Z m 0,0"
       style="fill:#000000;fill-opacity:1;fill-rule:nonzero;stroke:none"
       aria-label="4"
       transform="matrix(1.3333333,0,0,1.3333333,57.928,239.98933)" />
    <path
       id="path13"
       d="m 6.5627188,-2.2976641 c 0.1757812,0 0.3515625,0 0.3515625,-0.1992187 0,-0.1992188 -0.1757813,-0.1992188 -0.3515625,-0.1992188 h -5.390625 c -0.1640625,0 -0.3398438,0 -0.3398438,0.1992188 0,0.1992187 0.1757813,0.1992187 0.3398438,0.1992187 z m 0,0"
       style="fill:#000000;fill-opacity:1;fill-rule:nonzero;stroke:none"
       aria-label="−"
       transform="matrix(1.3333333,0,0,1.3333333,90.765333,239.98933)" />
    <path
       id="path14"
       d="M 1.2658672,-0.76250781 2.3205547,-1.7937578 c 1.5585937,-1.3710938 2.15625,-1.9101563 2.15625,-2.90625 0,-1.1367188 -0.9023438,-1.9335938 -2.1210938,-1.9335938 -1.125,0 -1.85156246,0.9140625 -1.85156246,1.8046875 0,0.5507813 0.4921875,0.5507813 0.52734376,0.5507813 0.1640625,0 0.515625,-0.1171875 0.515625,-0.5273438 0,-0.2578125 -0.1875,-0.515625 -0.5273438,-0.515625 -0.0820312,0 -0.10546871,0 -0.12890621,0.011719 0.22265621,-0.6445313 0.76171871,-1.0195313 1.33593751,-1.0195313 0.9140625,0 1.3359375,0.8085938 1.3359375,1.6289063 0,0.796875 -0.4921875,1.5820312 -1.0429688,2.203125 L 0.60961719,-0.36407031 C 0.50414844,-0.25860156 0.50414844,-0.23516406 0.50414844,-7.890625e-4 H 4.1955547 L 4.4768047,-1.7351641 H 4.2189922 c -0.046875,0.3046875 -0.1171875,0.73828129 -0.2109375,0.89062504 -0.070312,0.0820313 -0.7265625,0.0820313 -0.9492188,0.0820313 z m 0,0"
       style="fill:#000000;fill-opacity:1;fill-rule:nonzero;stroke:none"
       aria-label="2"
       transform="matrix(1.3333333,0,0,1.3333333,101.09733,239.98933)" />
    <path
       id="path15"
       d="m 4.5832031,-3.1882891 c 0,-0.796875 -0.046875,-1.59375 -0.3984375,-2.3320312 -0.4570312,-0.9609375 -1.2773437,-1.1132813 -1.6875,-1.1132813 -0.5976562,0 -1.3359375,0.2578125 -1.73437497,1.1835938 -0.328125,0.6914062 -0.375,1.4648437 -0.375,2.2617187 0,0.75 0.046875,1.640625 0.4453125,2.40234379 0.43359377,0.80859375 1.16015627,1.0078125 1.65234377,1.0078125 0.5390625,0 1.2890625,-0.2109375 1.734375,-1.16015625 C 4.5363281,-1.6296953 4.5832031,-2.4031328 4.5832031,-3.1882891 Z M 2.4855469,-7.890625e-4 c -0.3867188,0 -0.984375,-0.2460937475 -1.1601563,-1.2070312375 -0.1054687,-0.5976563 -0.1054687,-1.5117188 -0.1054687,-2.0976563 0,-0.6445312 0,-1.3007812 0.082031,-1.8398437 0.1875,-1.1835938 0.9257813,-1.265625 1.1835938,-1.265625 0.328125,0 0.984375,0.1757812 1.171875,1.1601562 0.09375,0.5625 0.09375,1.3125 0.09375,1.9453125 0,0.75 0,1.4179688 -0.1054688,2.0625 -0.1523437,0.93750004 -0.7148437,1.2421875375 -1.160156,1.2421875375 z m 0,0"
       style="fill:#000000;fill-opacity:1;fill-rule:nonzero;stroke:none"
       aria-label="0"
       transform="matrix(1.3333333,0,0,1.3333333,139.1,239.98933)" />
    <path
       id="path16"
       d="M 1.2657734,-0.76250781 2.3204609,-1.7937578 c 1.5585938,-1.3710938 2.15625,-1.9101563 2.15625,-2.90625 0,-1.1367188 -0.9023437,-1.9335938 -2.1210937,-1.9335938 -1.125,0 -1.85156251,0.9140625 -1.85156251,1.8046875 0,0.5507813 0.4921875,0.5507813 0.52734371,0.5507813 0.1640625,0 0.515625,-0.1171875 0.515625,-0.5273438 0,-0.2578125 -0.1875,-0.515625 -0.5273437,-0.515625 -0.0820313,0 -0.10546876,0 -0.12890626,0.011719 0.22265626,-0.6445313 0.76171876,-1.0195313 1.33593746,-1.0195313 0.9140625,0 1.3359375,0.8085938 1.3359375,1.6289063 0,0.796875 -0.4921875,1.5820312 -1.0429687,2.203125 L 0.60952344,-0.36407031 C 0.50405469,-0.25860156 0.50405469,-0.23516406 0.50405469,-7.890625e-4 H 4.1954609 L 4.4767109,-1.7351641 H 4.2188984 c -0.046875,0.3046875 -0.1171875,0.73828129 -0.2109375,0.89062504 -0.070312,0.0820313 -0.7265625,0.0820313 -0.9492187,0.0820313 z m 0,0"
       style="fill:#000000;fill-opacity:1;fill-rule:nonzero;stroke:none"
       aria-label="2"
       transform="matrix(1.3333333,0,0,1.3333333,182.26933,239.98933)" />
    <path
       id="path17"
       d="m 2.9288125,-1.6414141 v 0.86718754 c 0,0.3515625 -0.023437,0.46875 -0.7617188,0.46875 H 1.9561562 V -7.890625e-4 C 2.3663125,-0.03594531 2.8936562,-0.03594531 3.3038125,-0.03594531 c 0.421875,0 0.9492187,0 1.359375,0.0351562475 V -0.30547656 H 4.45225 c -0.7382813,0 -0.7617188,-0.1171875 -0.7617188,-0.46875 V -1.6414141 H 4.686625 V -1.9578203 H 3.6905312 v -4.5234375 c 0,-0.1992188 0,-0.2578125 -0.1523437,-0.2578125 -0.09375,0 -0.1171875,0 -0.1992188,0.1171875 L 0.280375,-1.9578203 v 0.3164062 z m 0.058594,-0.3164062 H 0.561625 l 2.4257812,-3.7148438 z m 0,0"
       style="fill:#000000;fill-opacity:1;fill-rule:nonzero;stroke:none"
       aria-label="4"
       transform="matrix(1.3333333,0,0,1.3333333,225.43867,239.98933)" />
    <path
       id="path18"
       d="m 1.3116016,-3.2703203 v -0.234375 c 0,-2.5195313 1.2421875,-2.8828125 1.7460937,-2.8828125 0.234375,0 0.65625,0.058594 0.8789063,0.3984375 -0.1523438,0 -0.5507813,0 -0.5507813,0.4453125 0,0.3164062 0.234375,0.4570312 0.4570313,0.4570312 0.1640625,0 0.4570312,-0.082031 0.4570312,-0.46875 0,-0.5976562 -0.4335937,-1.078125 -1.265625,-1.078125 -1.2773437,0 -2.61328124,1.2890625 -2.61328124,3.4804688 0,2.66015624 1.14843754,3.37499999 2.07421874,3.37499999 1.1132813,0 2.0507813,-0.9375 2.0507813,-2.24999999 0,-1.265625 -0.8789063,-2.2265625 -1.9921875,-2.2265625 -0.6679688,0 -1.0429688,0.5039062 -1.2421875,0.984375 z m 1.1835937,3.21093749 c -0.6210937,0 -0.9257812,-0.59765625 -0.984375,-0.75 C 1.3350391,-1.2781328 1.3350391,-2.0750078 1.3350391,-2.2507891 c 0,-0.7734375 0.3164062,-1.7695312 1.21875,-1.7695312 0.1523437,0 0.609375,0 0.9257812,0.609375 0.1757813,0.375 0.1757813,0.8789062 0.1757813,1.3710937 0,0.4804688 0,0.9726563 -0.1640625,1.33593754 -0.3046875,0.59765625 -0.7617188,0.64453125 -0.9960938,0.64453125 z m 0,0"
       style="fill:#000000;fill-opacity:1;fill-rule:nonzero;stroke:none"
       aria-label="6"
       transform="matrix(1.3333333,0,0,1.3333333,268.60667,239.98933)" />
    <path
       id="path19"
       d="m 4.5834609,-3.1870469 c 0,-0.796875 -0.046875,-1.59375 -0.3984375,-2.3320312 -0.4570312,-0.9609375 -1.2773437,-1.1132813 -1.6875,-1.1132813 -0.5976562,0 -1.3359375,0.2578125 -1.73437496,1.1835938 -0.328125,0.6914062 -0.375,1.4648437 -0.375,2.2617187 0,0.75 0.046875,1.640625 0.4453125,2.40234378 0.43359376,0.80859375 1.16015626,1.0078125 1.65234376,1.0078125 0.5390625,0 1.2890625,-0.2109375 1.734375,-1.16015625 C 4.5365859,-1.6284531 4.5834609,-2.4018906 4.5834609,-3.1870469 Z M 2.4858047,4.53125e-4 c -0.3867188,0 -0.984375,-0.246093745 -1.1601563,-1.207031225 -0.1054687,-0.5976563 -0.1054687,-1.5117188 -0.1054687,-2.0976563 0,-0.6445312 0,-1.3007812 0.082031,-1.8398437 0.1875,-1.1835938 0.9257813,-1.265625 1.1835938,-1.265625 0.328125,0 0.984375,0.1757812 1.171875,1.1601562 0.09375,0.5625 0.09375,1.3125 0.09375,1.9453125 0,0.75 0,1.4179688 -0.1054688,2.0625 C 3.4936172,-0.30423437 2.9311172,4.53125e-4 2.4858047,4.53125e-4 Z m 0,0"
       style="fill:#000000;fill-opacity:1;fill-rule:nonzero;stroke:none"
       aria-label="0"
       transform="matrix(1.3333333,0,0,1.3333333,128.252,120.58533)" />
    <path
       id="path20"
       d="m 4.5834375,-3.1886328 c 0,-0.796875 -0.046875,-1.59375 -0.3984375,-2.3320313 -0.4570312,-0.9609375 -1.2773437,-1.1132812 -1.6875,-1.1132812 -0.5976562,0 -1.3359375,0.2578125 -1.734375,1.1835937 -0.328125,0.6914063 -0.375,1.4648438 -0.375,2.2617188 0,0.75 0.046875,1.640625 0.4453125,2.40234374 0.4335938,0.80859375 1.1601563,1.0078125 1.6523438,1.0078125 0.5390625,0 1.2890625,-0.2109375 1.734375,-1.16015625 C 4.5365625,-1.6300391 4.5834375,-2.4034766 4.5834375,-3.1886328 Z m -2.0976562,3.18749999 c -0.3867188,0 -0.984375,-0.24609375 -1.1601563,-1.20703129 -0.1054687,-0.5976562 -0.1054687,-1.5117187 -0.1054687,-2.0976562 0,-0.6445313 0,-1.3007813 0.082031,-1.8398438 0.1875,-1.1835937 0.9257813,-1.265625 1.1835938,-1.265625 0.328125,0 0.984375,0.1757813 1.171875,1.1601563 0.09375,0.5625 0.09375,1.3125 0.09375,1.9453125 0,0.75 0,1.4179687 -0.1054688,2.0625 -0.1523437,0.93749999 -0.7148437,1.24218749 -1.160156,1.24218749 z m 0,0"
       style="fill:#000000;fill-opacity:1;fill-rule:nonzero;stroke:none"
       aria-label="0"
       transform="matrix(1.3333333,0,0,1.3333333,117.92,66.786667)" />
    <path
       id="path21"
       d="m 1.9110313,-0.52847656 c 0,-0.29296875 -0.234375,-0.52734374 -0.5273438,-0.52734374 -0.28125,0 -0.52734375,0.23437499 -0.52734375,0.52734374 0,0.29296875 0.24609375,0.52734375 0.52734375,0.52734375 0.2929688,0 0.5273438,-0.234375 0.5273438,-0.52734375 z m 0,0"
       style="fill:#000000;fill-opacity:1;fill-rule:nonzero;stroke:none"
       aria-label="."
       transform="matrix(1.3333333,0,0,1.3333333,124.56133,66.786667)" />
    <path
       id="path22"
       d="m 4.4779922,-2.0050391 c 0,-1.1835937 -0.8203125,-2.1796875 -1.8984375,-2.1796875 -0.4804688,0 -0.9023438,0.1640625 -1.265625,0.5039063 v -1.9335938 c 0.1992187,0.058594 0.5273437,0.1289063 0.84375,0.1289063 1.2304687,0 1.9335937,-0.9140625 1.9335937,-1.0429688 0,-0.058594 -0.035156,-0.1054687 -0.1054687,-0.1054687 -0.011719,0 -0.035156,0 -0.082031,0.023437 -0.1992187,0.09375 -0.6796875,0.2929687 -1.3476562,0.2929687 -0.3984375,0 -0.8554688,-0.070312 -1.3242188,-0.28125 -0.082031,-0.023437 -0.1054687,-0.023437 -0.1289062,-0.023437 -0.09375,0 -0.09375,0.082031 -0.09375,0.234375 v 2.953125 c 0,0.1757813 0,0.2578125 0.140625,0.2578125 0.070312,0 0.082031,-0.035156 0.1289062,-0.09375 0.1054688,-0.1523437 0.4804688,-0.6914062 1.2773438,-0.6914062 0.5273437,0 0.7734375,0.4570312 0.8554687,0.6328125 0.1523438,0.375 0.1757813,0.7617187 0.1757813,1.2539062 0,0.3515625 0,0.9492188 -0.234375,1.37109379 -0.2460938,0.38671875 -0.609375,0.64453125 -1.0664063,0.64453125 -0.7265625,0 -1.30078121,-0.52734375 -1.46484371,-1.11328124 0.0234375,0.011719 0.0585938,0.011719 0.1640625,0.011719 0.32812501,0 0.50390621,-0.2460937 0.50390621,-0.4804687 0,-0.2460938 -0.1757812,-0.4921875 -0.50390621,-0.4921875 -0.140625,0 -0.48046875,0.070312 -0.48046875,0.5273437 0,0.85546879 0.67968746,1.82812504 1.79296876,1.82812504 1.1601562,0 2.1796875,-0.9609375 2.1796872,-2.22656284 z m 0,0"
       style="fill:#000000;fill-opacity:1;fill-rule:nonzero;stroke:none"
       aria-label="5"
       transform="matrix(1.3333333,0,0,1.3333333,128.252,66.786667)" />
    <path
       id="path23"
       d="m 2.9311172,-6.3747891 c 0,-0.234375 0,-0.2578125 -0.234375,-0.2578125 -0.609375,0.6328125 -1.4882813,0.6328125 -1.80468751,0.6328125 v 0.3164063 c 0.19921871,0 0.78515621,0 1.30078121,-0.2578125 v 5.15624999 c 0,0.3515625 -0.035156,0.48046875 -0.9257812,0.48046875 H 0.95064844 V 2.109375e-4 C 1.3022109,-0.03494531 2.1576797,-0.03494531 2.5561172,-0.03494531 c 0.3984375,0 1.265625,0 1.6171875,0.0351562475 V -0.30447656 H 3.8568984 c -0.9023437,0 -0.9257812,-0.1171875 -0.9257812,-0.48046875 z m 0,0"
       style="fill:#000000;fill-opacity:1;fill-rule:nonzero;stroke:none"
       aria-label="1"
       transform="matrix(1.3333333,0,0,1.3333333,128.252,12.988)" />
    <path
       id="path24"
       d="M 0,0 H 1.96204 L 3.92409,8e-4 H 5.88615 L 7.8482,0.00241 h 1.96207 1.96204 l 1.96207,8.1e-4 1.96205,0.00241 1.96207,8.1e-4 1.96204,0.00323 1.96207,0.00323 1.96204,0.00402 1.96206,0.00485 1.96206,0.00647 1.96206,0.00726 1.96205,0.01128 1.96205,0.01293 1.96206,0.01613 1.96205,0.02259 1.96206,0.02665 1.96206,0.03468 1.96206,0.04279 1.96205,0.05648 1.96205,0.07183 1.96206,0.09118 1.96206,0.11541 1.96206,0.14768 1.96206,0.18721 1.96205,0.23809 1.96205,0.30261 1.96206,0.38333 1.96206,0.48741 1.96205,0.61332 1.96205,0.77957 1.96206,0.97888 1.96205,1.2339 1.96206,1.53813 1.96205,1.92066 1.96207,2.38064 1.96205,2.92697 1.96205,3.56531 1.96206,4.29889 1.96207,5.12005 1.96204,6.00327 1.96207,6.90952 1.96205,7.7959 1.96207,8.58129 1.96205,9.21607 1.96204,9.62804 1.96206,9.75198 1.96205,9.62893 1.96207,9.2214 1.96205,8.5883 1.96207,7.80519 1.96205,6.91871 1.96207,6.00931 1.96205,5.13129 1.96205,4.30855 1.96205,3.57338 1.96207,2.93184 1.96205,2.38385 1.96207,1.92308 1.96203,1.54458 1.96207,1.2323 1.96205,0.98293 1.96205,0.78197 1.96207,0.61654 1.96205,0.48824 1.96205,0.38252 1.96205,0.30342 1.96207,0.23888 1.96205,0.18803 1.96207,0.14769 1.96205,0.1162 1.96205,0.0904 1.96205,0.0735 1.96207,0.0549 1.96205,0.0436 1.96207,0.0339 1.96205,0.0282 1.96205,0.0226 1.96205,0.0161 1.96205,0.0129 1.96207,0.0105 1.96205,0.008 1.96207,0.006 1.96203,0.005 1.96207,0.005 1.96205,0.002 1.96207,0.003 1.96205,7.9e-4 1.96205,0.002 1.96205,8.1e-4 h 1.96207 l 1.96205,0.002 h 1.96207 l 1.96205,8e-4 h 1.96203 1.96207"
       style="fill:none;stroke:#0000ff;stroke-width:0.3985;stroke-linecap:butt;stroke-linejoin:miter;stroke-miterlimit:10;stroke-dasharray:none;stroke-opacity:1"
       transform="matrix(1.3333333,0,0,-1.3333333,12.914667,223.90133)"
       clip-path="url(#clipPath25)" />
    <path
       id="path26"
       d="m 133.32582,128.1211 h 60.73795 v 16.93665 h -60.73795 z"
       style="fill:#ffffff;fill-opacity:1;fill-rule:nonzero;stroke:#000000;stroke-width:0.3985;stroke-linecap:butt;stroke-linejoin:miter;stroke-miterlimit:10;stroke-dasharray:none;stroke-opacity:1"
       transform="matrix(1.3333333,0,0,-1.3333333,12.914667,223.90133)" />
    <path
       id="path27"
       d="m 0,0 h 8.50412 8.50414"
       style="fill:none;stroke:#0000ff;stroke-width:0.3985;stroke-linecap:butt;stroke-linejoin:miter;stroke-miterlimit:10;stroke-dasharray:none;stroke-opacity:1"
       transform="matrix(1.3333333,0,0,-1.3333333,194.93067,41.785333)" />
    <path
       id="path28"
       d="M 1.7230938,-3.9842266 H 3.1527813 V -4.2889141 H 1.7230938 V -6.1287578 H 1.477 c -0.011719,0.8203125 -0.3164062,1.8867187 -1.2890625,1.921875 v 0.2226562 h 0.84375 v 2.7539063 c 0,1.21874999 0.9257813,1.33593749 1.2890625,1.33593749 0.703125,0 0.984375,-0.703125 0.984375,-1.33593749 V -1.8045391 H 3.0590313 v 0.5507813 c 0,0.73828124 -0.3046875,1.11328124 -0.6679688,1.11328124 -0.6679687,0 -0.6679687,-0.90234374 -0.6679687,-1.07812504 z m 5.4667968,3.22265629 c 0.035156,0.3984375 0.3046875,0.8203125 0.7734375,0.8203125 0.2109375,0 0.8203125,-0.140625 0.8203125,-0.94921875 V -1.4412578 H 8.5375469 v 0.55078124 c 0,0.5859375 -0.2460938,0.64453125 -0.3632813,0.64453125 -0.328125,0 -0.3632812,-0.45703125 -0.3632812,-0.50390625 V -2.7420391 c 0,-0.4101562 0,-0.8085937 -0.3632813,-1.171875 -0.3867187,-0.3867187 -0.8789062,-0.5507812 -1.359375,-0.5507812 -0.8203125,0 -1.5117187,0.46875 -1.5117187,1.125 0,0.3046875 0.1992187,0.46875 0.4570312,0.46875 0.28125,0 0.46875,-0.1992188 0.46875,-0.4570313 0,-0.1171875 -0.058594,-0.4453125 -0.515625,-0.4570312 0.2695313,-0.3515625 0.7617188,-0.4570313 1.078125,-0.4570313 0.4921875,0 1.0546875,0.3867188 1.0546875,1.2773438 v 0.3632812 c -0.5039062,0.035156 -1.2070312,0.058594 -1.828125,0.3632813 -0.75,0.3398437 -0.9960937,0.8554687 -0.9960937,1.28906249 0,0.80859375 0.9609375,1.0546875 1.59375,1.0546875 0.65625,0 1.1132812,-0.3984375 1.3007812,-0.8671875 z M 7.1195781,-2.3904766 v 0.9960938 c 0,0.94921874 -0.7148437,1.28906249 -1.1601562,1.28906249 -0.4921875,0 -0.9023438,-0.3515625 -0.9023438,-0.85546875 0,-0.53906254 0.421875,-1.37109374 2.0625,-1.42968754 z m 2.8388672,-1.03125 v 2.66015629 c 0,0.45703125 -0.1171875,0.45703125 -0.7851562,0.45703125 V 1.484375e-4 C 9.5248516,-0.01157031 10.028758,-0.03500781 10.298289,-0.03500781 c 0.257813,0 0.785156,0.0234375 1.113281,0.0351562475 V -0.30453906 c -0.65625,0 -0.773437,0 -0.773437,-0.45703125 V -2.5896953 c 0,-1.03125 0.714844,-1.59375 1.347656,-1.59375 0.621094,0 0.738281,0.5390625 0.738281,1.1015625 v 2.32031249 c 0,0.45703125 -0.117187,0.45703125 -0.773437,0.45703125 V 1.484375e-4 c 0.339844,-0.0117187475 0.855469,-0.0351562475 1.125,-0.0351562475 0.257812,0 0.773437,0.0234375 1.113281,0.0351562475 V -0.30453906 c -0.515625,0 -0.773437,0 -0.785156,-0.3046875 V -2.5076641 c 0,-0.8554687 0,-1.171875 -0.304688,-1.5234375 -0.140625,-0.1757812 -0.46875,-0.375 -1.042968,-0.375 -0.726563,0 -1.195313,0.4335938 -1.476563,1.0546875 v -1.0546875 l -1.4062499,0.1171875 v 0.3046875 c 0.703125,0 0.7851562,0.070312 0.7851562,0.5625 z m 5.5341797,2.66015629 c 0,0.45703125 -0.117187,0.45703125 -0.785156,0.45703125 V 1.484375e-4 c 0.351562,-0.0117187475 0.855469,-0.0351562475 1.125,-0.0351562475 0.257812,0 0.785156,0.0234375 1.113281,0.0351562475 V -0.30453906 c -0.65625,0 -0.773437,0 -0.773437,-0.45703125 V -2.5896953 c 0,-1.03125 0.714843,-1.59375 1.347656,-1.59375 0.621094,0 0.738281,0.5390625 0.738281,1.1015625 v 2.32031249 c 0,0.45703125 -0.117187,0.45703125 -0.773437,0.45703125 V 1.484375e-4 c 0.339843,-0.0117187475 0.855468,-0.0351562475 1.125,-0.0351562475 0.257812,0 0.773437,0.0234375 1.113281,0.0351562475 V -0.30453906 c -0.515625,0 -0.773438,0 -0.785156,-0.3046875 V -2.5076641 c 0,-0.8554687 0,-1.171875 -0.304688,-1.5234375 -0.140625,-0.1757812 -0.46875,-0.375 -1.042969,-0.375 -0.84375,0 -1.277343,0.5976563 -1.441406,0.984375 v -3.4921875 l -1.441406,0.1054688 v 0.3164062 c 0.703125,0 0.785156,0.070312 0.785156,0.5507813 z m 7.725586,3.15234371 c 0,-0.035156 0,-0.046875 -0.164063,-0.2226562 -1.242187,-1.25390626 -1.570312,-3.12890626 -1.570312,-4.6640625 0,-1.7226563 0.386719,-3.4570313 1.605469,-4.7109375 0.128906,-0.1171875 0.128906,-0.1289063 0.128906,-0.1640625 0,-0.070312 -0.03516,-0.1054688 -0.09375,-0.1054688 -0.105469,0 -0.996094,0.6796875 -1.582031,1.9453125 -0.515625,1.1015625 -0.632813,2.203125 -0.632813,3.0351563 0,0.7851562 0.117188,1.99218749 0.65625,3.11718749 0.597656,1.21875001 1.453125,1.87500001 1.558594,1.87500001 0.05859,0 0.09375,-0.035156 0.09375,-0.1054688 z m 0,0"
       style="fill:#000000;fill-opacity:1;fill-rule:nonzero;stroke:none"
       aria-label="tanh("
       transform="matrix(1.3333333,0,0,1.3333333,220.53067,45.769333)" />
    <path
       id="path29"
       d="m 3.3274141,-3.0115703 c 0.058594,-0.2578125 0.2929687,-1.171875 0.984375,-1.171875 0.046875,0 0.2929687,0 0.5039062,0.1289062 -0.28125,0.046875 -0.4804687,0.3046875 -0.4804687,0.5390625 0,0.1640625 0.1054687,0.3515625 0.375,0.3515625 0.2226562,0 0.5390625,-0.1875 0.5390625,-0.5859375 0,-0.515625 -0.5859375,-0.65625 -0.9257813,-0.65625 -0.5742187,0 -0.9257812,0.5273438 -1.0429687,0.7617188 -0.2578125,-0.65625 -0.7851563,-0.7617188 -1.078125,-0.7617188 -1.0429688,0 -1.60546879,1.2890625 -1.60546879,1.5351563 0,0.1054687 0.10546875,0.1054687 0.1171875,0.1054687 0.0820313,0 0.1171875,-0.023437 0.12890625,-0.1171875 0.33984374,-1.0546875 0.99609374,-1.3007812 1.33593754,-1.3007812 0.1875,0 0.5390625,0.09375 0.5390625,0.6679687 0,0.3046875 -0.1640625,0.9726563 -0.5390625,2.3671875 -0.1523438,0.62109379 -0.5039063,1.04296879 -0.9492188,1.04296879 -0.058594,0 -0.28124999,0 -0.49218749,-0.12890625 0.24609375,-0.0585937 0.46874999,-0.26953125 0.46874999,-0.5390625 0,-0.26953124 -0.22265624,-0.35156254 -0.37499999,-0.35156254 -0.29296875,0 -0.5390625,0.25781254 -0.5390625,0.57421879 0,0.45703125 0.4921875,0.65625 0.93749999,0.65625 0.65625,0 1.0078125,-0.69140625 1.0429688,-0.75 0.1171875,0.36328125 0.4804687,0.75 1.078125,0.75 1.0195312,0 1.59375,-1.27734379 1.59375,-1.53515629 0,-0.09375 -0.09375,-0.09375 -0.1289063,-0.09375 -0.082031,0 -0.1054687,0.035156 -0.1289062,0.1054688 -0.328125,1.06640624 -0.9960938,1.31249999 -1.3242188,1.31249999 -0.3867187,0 -0.5390625,-0.328125 -0.5390625,-0.65625 0,-0.22265625 0.058594,-0.44531249 0.1640625,-0.87890629 z m 0,0"
       style="fill:#000000;fill-opacity:1;fill-rule:nonzero;stroke:none"
       aria-label="x"
       transform="matrix(1.3333333,0,0,1.3333333,252.26267,45.769333)" />
    <path
       id="path30"
       d="m 2.8834141,-2.4959453 c 0,-0.7734375 -0.1171875,-1.9804688 -0.65625,-3.1054688 -0.5976563,-1.21875 -1.46484379,-1.875 -1.55859379,-1.875 -0.0585938,0 -0.10546875,0.046875 -0.10546875,0.1054688 0,0.035156 0,0.046875 0.19921875,0.234375 0.97265629,0.984375 1.53515629,2.5664062 1.53515629,4.640625 0,1.71093749 -0.3632813,3.45703124 -1.59375004,4.7226562 -0.140625,0.1171875 -0.140625,0.1289063 -0.140625,0.1640625 0,0.058594 0.046875,0.1054688 0.10546875,0.1054688 0.09375,0 0.99609379,-0.6796875 1.58203129,-1.94531251 0.5039062,-1.1015625 0.6328125,-2.20312499 0.6328125,-3.04687499 z m 0,0"
       style="fill:#000000;fill-opacity:1;fill-rule:nonzero;stroke:none"
       aria-label=")"
       transform="matrix(1.3333333,0,0,1.3333333,259.85467,45.769333)" />
  </g>
</svg>
