<?xml version="1.0" encoding="utf-8" standalone="no"?>
<!DOCTYPE svg PUBLIC "-//W3C//DTD SVG 1.1//EN"
  "http://www.w3.org/Graphics/SVG/1.1/DTD/svg11.dtd">
<!-- Created with matplotlib (https://matplotlib.org/) -->
<svg height="208.15625pt" version="1.1" viewBox="0 0 856.557813 208.15625" width="856.557813pt" xmlns="http://www.w3.org/2000/svg" xmlns:xlink="http://www.w3.org/1999/xlink">
 <metadata>
  <rdf:RDF xmlns:cc="http://creativecommons.org/ns#" xmlns:dc="http://purl.org/dc/elements/1.1/" xmlns:rdf="http://www.w3.org/1999/02/22-rdf-syntax-ns#">
   <cc:Work>
    <dc:type rdf:resource="http://purl.org/dc/dcmitype/StillImage"/>
    <dc:date>2022-04-12T11:42:26.528730</dc:date>
    <dc:format>image/svg+xml</dc:format>
    <dc:creator>
     <cc:Agent>
      <dc:title>Matplotlib v3.3.2, https://matplotlib.org/</dc:title>
     </cc:Agent>
    </dc:creator>
   </cc:Work>
  </rdf:RDF>
 </metadata>
 <defs>
  <style type="text/css">*{stroke-linecap:butt;stroke-linejoin:round;}</style>
 </defs>
 <g id="figure_1">
  <g id="patch_1">
   <path d="M 0 208.15625 
L 856.557813 208.15625 
L 856.557813 0 
L 0 0 
z
" style="fill:none;"/>
  </g>
  <g id="axes_1">
   <g id="patch_2">
    <path d="M 61.707813 170.6 
L 210.995312 170.6 
L 210.995312 7.2 
L 61.707813 7.2 
z
" style="fill:#ffffff;"/>
   </g>
   <g id="matplotlib.axis_1">
    <g id="xtick_1">
     <g id="line2d_1">
      <defs>
       <path d="M 0 0 
L 0 3.5 
" id="me753b450d4" style="stroke:#000000;stroke-width:0.8;"/>
      </defs>
      <g>
       <use style="stroke:#000000;stroke-width:0.8;" x="68.493608" xlink:href="#me753b450d4" y="170.6"/>
      </g>
     </g>
     <g id="text_1">
      <!-- 0 -->
      <g transform="translate(65.312358 185.198437)scale(0.1 -0.1)">
       <defs>
        <path d="M 31.78125 66.40625 
Q 24.171875 66.40625 20.328125 58.90625 
Q 16.5 51.421875 16.5 36.375 
Q 16.5 21.390625 20.328125 13.890625 
Q 24.171875 6.390625 31.78125 6.390625 
Q 39.453125 6.390625 43.28125 13.890625 
Q 47.125 21.390625 47.125 36.375 
Q 47.125 51.421875 43.28125 58.90625 
Q 39.453125 66.40625 31.78125 66.40625 
z
M 31.78125 74.21875 
Q 44.046875 74.21875 50.515625 64.515625 
Q 56.984375 54.828125 56.984375 36.375 
Q 56.984375 17.96875 50.515625 8.265625 
Q 44.046875 -1.421875 31.78125 -1.421875 
Q 19.53125 -1.421875 13.0625 8.265625 
Q 6.59375 17.96875 6.59375 36.375 
Q 6.59375 54.828125 13.0625 64.515625 
Q 19.53125 74.21875 31.78125 74.21875 
z
" id="DejaVuSans-48"/>
       </defs>
       <use xlink:href="#DejaVuSans-48"/>
      </g>
     </g>
    </g>
    <g id="xtick_2">
     <g id="line2d_2">
      <g>
       <use style="stroke:#000000;stroke-width:0.8;" x="107.717859" xlink:href="#me753b450d4" y="170.6"/>
      </g>
     </g>
     <g id="text_2">
      <!-- 200 -->
      <g transform="translate(98.174109 185.198437)scale(0.1 -0.1)">
       <defs>
        <path d="M 19.1875 8.296875 
L 53.609375 8.296875 
L 53.609375 0 
L 7.328125 0 
L 7.328125 8.296875 
Q 12.9375 14.109375 22.625 23.890625 
Q 32.328125 33.6875 34.8125 36.53125 
Q 39.546875 41.84375 41.421875 45.53125 
Q 43.3125 49.21875 43.3125 52.78125 
Q 43.3125 58.59375 39.234375 62.25 
Q 35.15625 65.921875 28.609375 65.921875 
Q 23.96875 65.921875 18.8125 64.3125 
Q 13.671875 62.703125 7.8125 59.421875 
L 7.8125 69.390625 
Q 13.765625 71.78125 18.9375 73 
Q 24.125 74.21875 28.421875 74.21875 
Q 39.75 74.21875 46.484375 68.546875 
Q 53.21875 62.890625 53.21875 53.421875 
Q 53.21875 48.921875 51.53125 44.890625 
Q 49.859375 40.875 45.40625 35.40625 
Q 44.1875 33.984375 37.640625 27.21875 
Q 31.109375 20.453125 19.1875 8.296875 
z
" id="DejaVuSans-50"/>
       </defs>
       <use xlink:href="#DejaVuSans-50"/>
       <use x="63.623047" xlink:href="#DejaVuSans-48"/>
       <use x="127.246094" xlink:href="#DejaVuSans-48"/>
      </g>
     </g>
    </g>
    <g id="xtick_3">
     <g id="line2d_3">
      <g>
       <use style="stroke:#000000;stroke-width:0.8;" x="146.94211" xlink:href="#me753b450d4" y="170.6"/>
      </g>
     </g>
     <g id="text_3">
      <!-- 400 -->
      <g transform="translate(137.39836 185.198437)scale(0.1 -0.1)">
       <defs>
        <path d="M 37.796875 64.3125 
L 12.890625 25.390625 
L 37.796875 25.390625 
z
M 35.203125 72.90625 
L 47.609375 72.90625 
L 47.609375 25.390625 
L 58.015625 25.390625 
L 58.015625 17.1875 
L 47.609375 17.1875 
L 47.609375 0 
L 37.796875 0 
L 37.796875 17.1875 
L 4.890625 17.1875 
L 4.890625 26.703125 
z
" id="DejaVuSans-52"/>
       </defs>
       <use xlink:href="#DejaVuSans-52"/>
       <use x="63.623047" xlink:href="#DejaVuSans-48"/>
       <use x="127.246094" xlink:href="#DejaVuSans-48"/>
      </g>
     </g>
    </g>
    <g id="xtick_4">
     <g id="line2d_4">
      <g>
       <use style="stroke:#000000;stroke-width:0.8;" x="186.166362" xlink:href="#me753b450d4" y="170.6"/>
      </g>
     </g>
     <g id="text_4">
      <!-- 600 -->
      <g transform="translate(176.622612 185.198437)scale(0.1 -0.1)">
       <defs>
        <path d="M 33.015625 40.375 
Q 26.375 40.375 22.484375 35.828125 
Q 18.609375 31.296875 18.609375 23.390625 
Q 18.609375 15.53125 22.484375 10.953125 
Q 26.375 6.390625 33.015625 6.390625 
Q 39.65625 6.390625 43.53125 10.953125 
Q 47.40625 15.53125 47.40625 23.390625 
Q 47.40625 31.296875 43.53125 35.828125 
Q 39.65625 40.375 33.015625 40.375 
z
M 52.59375 71.296875 
L 52.59375 62.3125 
Q 48.875 64.0625 45.09375 64.984375 
Q 41.3125 65.921875 37.59375 65.921875 
Q 27.828125 65.921875 22.671875 59.328125 
Q 17.53125 52.734375 16.796875 39.40625 
Q 19.671875 43.65625 24.015625 45.921875 
Q 28.375 48.1875 33.59375 48.1875 
Q 44.578125 48.1875 50.953125 41.515625 
Q 57.328125 34.859375 57.328125 23.390625 
Q 57.328125 12.15625 50.6875 5.359375 
Q 44.046875 -1.421875 33.015625 -1.421875 
Q 20.359375 -1.421875 13.671875 8.265625 
Q 6.984375 17.96875 6.984375 36.375 
Q 6.984375 53.65625 15.1875 63.9375 
Q 23.390625 74.21875 37.203125 74.21875 
Q 40.921875 74.21875 44.703125 73.484375 
Q 48.484375 72.75 52.59375 71.296875 
z
" id="DejaVuSans-54"/>
       </defs>
       <use xlink:href="#DejaVuSans-54"/>
       <use x="63.623047" xlink:href="#DejaVuSans-48"/>
       <use x="127.246094" xlink:href="#DejaVuSans-48"/>
      </g>
     </g>
    </g>
    <g id="text_5">
     <!-- steps -->
     <g transform="translate(122.93125 198.876562)scale(0.1 -0.1)">
      <defs>
       <path d="M 44.28125 53.078125 
L 44.28125 44.578125 
Q 40.484375 46.53125 36.375 47.5 
Q 32.28125 48.484375 27.875 48.484375 
Q 21.1875 48.484375 17.84375 46.4375 
Q 14.5 44.390625 14.5 40.28125 
Q 14.5 37.15625 16.890625 35.375 
Q 19.28125 33.59375 26.515625 31.984375 
L 29.59375 31.296875 
Q 39.15625 29.25 43.1875 25.515625 
Q 47.21875 21.78125 47.21875 15.09375 
Q 47.21875 7.46875 41.1875 3.015625 
Q 35.15625 -1.421875 24.609375 -1.421875 
Q 20.21875 -1.421875 15.453125 -0.5625 
Q 10.6875 0.296875 5.421875 2 
L 5.421875 11.28125 
Q 10.40625 8.6875 15.234375 7.390625 
Q 20.0625 6.109375 24.8125 6.109375 
Q 31.15625 6.109375 34.5625 8.28125 
Q 37.984375 10.453125 37.984375 14.40625 
Q 37.984375 18.0625 35.515625 20.015625 
Q 33.0625 21.96875 24.703125 23.78125 
L 21.578125 24.515625 
Q 13.234375 26.265625 9.515625 29.90625 
Q 5.8125 33.546875 5.8125 39.890625 
Q 5.8125 47.609375 11.28125 51.796875 
Q 16.75 56 26.8125 56 
Q 31.78125 56 36.171875 55.265625 
Q 40.578125 54.546875 44.28125 53.078125 
z
" id="DejaVuSans-115"/>
       <path d="M 18.3125 70.21875 
L 18.3125 54.6875 
L 36.8125 54.6875 
L 36.8125 47.703125 
L 18.3125 47.703125 
L 18.3125 18.015625 
Q 18.3125 11.328125 20.140625 9.421875 
Q 21.96875 7.515625 27.59375 7.515625 
L 36.8125 7.515625 
L 36.8125 0 
L 27.59375 0 
Q 17.1875 0 13.234375 3.875 
Q 9.28125 7.765625 9.28125 18.015625 
L 9.28125 47.703125 
L 2.6875 47.703125 
L 2.6875 54.6875 
L 9.28125 54.6875 
L 9.28125 70.21875 
z
" id="DejaVuSans-116"/>
       <path d="M 56.203125 29.59375 
L 56.203125 25.203125 
L 14.890625 25.203125 
Q 15.484375 15.921875 20.484375 11.0625 
Q 25.484375 6.203125 34.421875 6.203125 
Q 39.59375 6.203125 44.453125 7.46875 
Q 49.3125 8.734375 54.109375 11.28125 
L 54.109375 2.78125 
Q 49.265625 0.734375 44.1875 -0.34375 
Q 39.109375 -1.421875 33.890625 -1.421875 
Q 20.796875 -1.421875 13.15625 6.1875 
Q 5.515625 13.8125 5.515625 26.8125 
Q 5.515625 40.234375 12.765625 48.109375 
Q 20.015625 56 32.328125 56 
Q 43.359375 56 49.78125 48.890625 
Q 56.203125 41.796875 56.203125 29.59375 
z
M 47.21875 32.234375 
Q 47.125 39.59375 43.09375 43.984375 
Q 39.0625 48.390625 32.421875 48.390625 
Q 24.90625 48.390625 20.390625 44.140625 
Q 15.875 39.890625 15.1875 32.171875 
z
" id="DejaVuSans-101"/>
       <path d="M 18.109375 8.203125 
L 18.109375 -20.796875 
L 9.078125 -20.796875 
L 9.078125 54.6875 
L 18.109375 54.6875 
L 18.109375 46.390625 
Q 20.953125 51.265625 25.265625 53.625 
Q 29.59375 56 35.59375 56 
Q 45.5625 56 51.78125 48.09375 
Q 58.015625 40.1875 58.015625 27.296875 
Q 58.015625 14.40625 51.78125 6.484375 
Q 45.5625 -1.421875 35.59375 -1.421875 
Q 29.59375 -1.421875 25.265625 0.953125 
Q 20.953125 3.328125 18.109375 8.203125 
z
M 48.6875 27.296875 
Q 48.6875 37.203125 44.609375 42.84375 
Q 40.53125 48.484375 33.40625 48.484375 
Q 26.265625 48.484375 22.1875 42.84375 
Q 18.109375 37.203125 18.109375 27.296875 
Q 18.109375 17.390625 22.1875 11.75 
Q 26.265625 6.109375 33.40625 6.109375 
Q 40.53125 6.109375 44.609375 11.75 
Q 48.6875 17.390625 48.6875 27.296875 
z
" id="DejaVuSans-112"/>
      </defs>
      <use xlink:href="#DejaVuSans-115"/>
      <use x="52.099609" xlink:href="#DejaVuSans-116"/>
      <use x="91.308594" xlink:href="#DejaVuSans-101"/>
      <use x="152.832031" xlink:href="#DejaVuSans-112"/>
      <use x="216.308594" xlink:href="#DejaVuSans-115"/>
     </g>
    </g>
   </g>
   <g id="matplotlib.axis_2">
    <g id="ytick_1">
     <g id="line2d_5">
      <defs>
       <path d="M 0 0 
L -3.5 0 
" id="mcf2e2e5dd3" style="stroke:#000000;stroke-width:0.8;"/>
      </defs>
      <g>
       <use style="stroke:#000000;stroke-width:0.8;" x="61.707813" xlink:href="#mcf2e2e5dd3" y="154.503529"/>
      </g>
     </g>
     <g id="text_6">
      <!-- −2750 -->
      <g transform="translate(20.878125 158.302748)scale(0.1 -0.1)">
       <defs>
        <path d="M 10.59375 35.5 
L 73.1875 35.5 
L 73.1875 27.203125 
L 10.59375 27.203125 
z
" id="DejaVuSans-8722"/>
        <path d="M 8.203125 72.90625 
L 55.078125 72.90625 
L 55.078125 68.703125 
L 28.609375 0 
L 18.3125 0 
L 43.21875 64.59375 
L 8.203125 64.59375 
z
" id="DejaVuSans-55"/>
        <path d="M 10.796875 72.90625 
L 49.515625 72.90625 
L 49.515625 64.59375 
L 19.828125 64.59375 
L 19.828125 46.734375 
Q 21.96875 47.46875 24.109375 47.828125 
Q 26.265625 48.1875 28.421875 48.1875 
Q 40.625 48.1875 47.75 41.5 
Q 54.890625 34.8125 54.890625 23.390625 
Q 54.890625 11.625 47.5625 5.09375 
Q 40.234375 -1.421875 26.90625 -1.421875 
Q 22.3125 -1.421875 17.546875 -0.640625 
Q 12.796875 0.140625 7.71875 1.703125 
L 7.71875 11.625 
Q 12.109375 9.234375 16.796875 8.0625 
Q 21.484375 6.890625 26.703125 6.890625 
Q 35.15625 6.890625 40.078125 11.328125 
Q 45.015625 15.765625 45.015625 23.390625 
Q 45.015625 31 40.078125 35.4375 
Q 35.15625 39.890625 26.703125 39.890625 
Q 22.75 39.890625 18.8125 39.015625 
Q 14.890625 38.140625 10.796875 36.28125 
z
" id="DejaVuSans-53"/>
       </defs>
       <use xlink:href="#DejaVuSans-8722"/>
       <use x="83.789062" xlink:href="#DejaVuSans-50"/>
       <use x="147.412109" xlink:href="#DejaVuSans-55"/>
       <use x="211.035156" xlink:href="#DejaVuSans-53"/>
       <use x="274.658203" xlink:href="#DejaVuSans-48"/>
      </g>
     </g>
    </g>
    <g id="ytick_2">
     <g id="line2d_6">
      <g>
       <use style="stroke:#000000;stroke-width:0.8;" x="61.707813" xlink:href="#mcf2e2e5dd3" y="131.082352"/>
      </g>
     </g>
     <g id="text_7">
      <!-- −2500 -->
      <g transform="translate(20.878125 134.881571)scale(0.1 -0.1)">
       <use xlink:href="#DejaVuSans-8722"/>
       <use x="83.789062" xlink:href="#DejaVuSans-50"/>
       <use x="147.412109" xlink:href="#DejaVuSans-53"/>
       <use x="211.035156" xlink:href="#DejaVuSans-48"/>
       <use x="274.658203" xlink:href="#DejaVuSans-48"/>
      </g>
     </g>
    </g>
    <g id="ytick_3">
     <g id="line2d_7">
      <g>
       <use style="stroke:#000000;stroke-width:0.8;" x="61.707813" xlink:href="#mcf2e2e5dd3" y="107.661175"/>
      </g>
     </g>
     <g id="text_8">
      <!-- −2250 -->
      <g transform="translate(20.878125 111.460394)scale(0.1 -0.1)">
       <use xlink:href="#DejaVuSans-8722"/>
       <use x="83.789062" xlink:href="#DejaVuSans-50"/>
       <use x="147.412109" xlink:href="#DejaVuSans-50"/>
       <use x="211.035156" xlink:href="#DejaVuSans-53"/>
       <use x="274.658203" xlink:href="#DejaVuSans-48"/>
      </g>
     </g>
    </g>
    <g id="ytick_4">
     <g id="line2d_8">
      <g>
       <use style="stroke:#000000;stroke-width:0.8;" x="61.707813" xlink:href="#mcf2e2e5dd3" y="84.239998"/>
      </g>
     </g>
     <g id="text_9">
      <!-- −2000 -->
      <g transform="translate(20.878125 88.039216)scale(0.1 -0.1)">
       <use xlink:href="#DejaVuSans-8722"/>
       <use x="83.789062" xlink:href="#DejaVuSans-50"/>
       <use x="147.412109" xlink:href="#DejaVuSans-48"/>
       <use x="211.035156" xlink:href="#DejaVuSans-48"/>
       <use x="274.658203" xlink:href="#DejaVuSans-48"/>
      </g>
     </g>
    </g>
    <g id="ytick_5">
     <g id="line2d_9">
      <g>
       <use style="stroke:#000000;stroke-width:0.8;" x="61.707813" xlink:href="#mcf2e2e5dd3" y="60.81882"/>
      </g>
     </g>
     <g id="text_10">
      <!-- −1750 -->
      <g transform="translate(20.878125 64.618039)scale(0.1 -0.1)">
       <defs>
        <path d="M 12.40625 8.296875 
L 28.515625 8.296875 
L 28.515625 63.921875 
L 10.984375 60.40625 
L 10.984375 69.390625 
L 28.421875 72.90625 
L 38.28125 72.90625 
L 38.28125 8.296875 
L 54.390625 8.296875 
L 54.390625 0 
L 12.40625 0 
z
" id="DejaVuSans-49"/>
       </defs>
       <use xlink:href="#DejaVuSans-8722"/>
       <use x="83.789062" xlink:href="#DejaVuSans-49"/>
       <use x="147.412109" xlink:href="#DejaVuSans-55"/>
       <use x="211.035156" xlink:href="#DejaVuSans-53"/>
       <use x="274.658203" xlink:href="#DejaVuSans-48"/>
      </g>
     </g>
    </g>
    <g id="ytick_6">
     <g id="line2d_10">
      <g>
       <use style="stroke:#000000;stroke-width:0.8;" x="61.707813" xlink:href="#mcf2e2e5dd3" y="37.397643"/>
      </g>
     </g>
     <g id="text_11">
      <!-- −1500 -->
      <g transform="translate(20.878125 41.196862)scale(0.1 -0.1)">
       <use xlink:href="#DejaVuSans-8722"/>
       <use x="83.789062" xlink:href="#DejaVuSans-49"/>
       <use x="147.412109" xlink:href="#DejaVuSans-53"/>
       <use x="211.035156" xlink:href="#DejaVuSans-48"/>
       <use x="274.658203" xlink:href="#DejaVuSans-48"/>
      </g>
     </g>
    </g>
    <g id="ytick_7">
     <g id="line2d_11">
      <g>
       <use style="stroke:#000000;stroke-width:0.8;" x="61.707813" xlink:href="#mcf2e2e5dd3" y="13.976466"/>
      </g>
     </g>
     <g id="text_12">
      <!-- −1250 -->
      <g transform="translate(20.878125 17.775685)scale(0.1 -0.1)">
       <use xlink:href="#DejaVuSans-8722"/>
       <use x="83.789062" xlink:href="#DejaVuSans-49"/>
       <use x="147.412109" xlink:href="#DejaVuSans-50"/>
       <use x="211.035156" xlink:href="#DejaVuSans-53"/>
       <use x="274.658203" xlink:href="#DejaVuSans-48"/>
      </g>
     </g>
    </g>
    <g id="text_13">
     <!-- training ELBO -->
     <g transform="translate(14.798438 123.082812)rotate(-90)scale(0.1 -0.1)">
      <defs>
       <path d="M 41.109375 46.296875 
Q 39.59375 47.171875 37.8125 47.578125 
Q 36.03125 48 33.890625 48 
Q 26.265625 48 22.1875 43.046875 
Q 18.109375 38.09375 18.109375 28.8125 
L 18.109375 0 
L 9.078125 0 
L 9.078125 54.6875 
L 18.109375 54.6875 
L 18.109375 46.1875 
Q 20.953125 51.171875 25.484375 53.578125 
Q 30.03125 56 36.53125 56 
Q 37.453125 56 38.578125 55.875 
Q 39.703125 55.765625 41.0625 55.515625 
z
" id="DejaVuSans-114"/>
       <path d="M 34.28125 27.484375 
Q 23.390625 27.484375 19.1875 25 
Q 14.984375 22.515625 14.984375 16.5 
Q 14.984375 11.71875 18.140625 8.90625 
Q 21.296875 6.109375 26.703125 6.109375 
Q 34.1875 6.109375 38.703125 11.40625 
Q 43.21875 16.703125 43.21875 25.484375 
L 43.21875 27.484375 
z
M 52.203125 31.203125 
L 52.203125 0 
L 43.21875 0 
L 43.21875 8.296875 
Q 40.140625 3.328125 35.546875 0.953125 
Q 30.953125 -1.421875 24.3125 -1.421875 
Q 15.921875 -1.421875 10.953125 3.296875 
Q 6 8.015625 6 15.921875 
Q 6 25.140625 12.171875 29.828125 
Q 18.359375 34.515625 30.609375 34.515625 
L 43.21875 34.515625 
L 43.21875 35.40625 
Q 43.21875 41.609375 39.140625 45 
Q 35.0625 48.390625 27.6875 48.390625 
Q 23 48.390625 18.546875 47.265625 
Q 14.109375 46.140625 10.015625 43.890625 
L 10.015625 52.203125 
Q 14.9375 54.109375 19.578125 55.046875 
Q 24.21875 56 28.609375 56 
Q 40.484375 56 46.34375 49.84375 
Q 52.203125 43.703125 52.203125 31.203125 
z
" id="DejaVuSans-97"/>
       <path d="M 9.421875 54.6875 
L 18.40625 54.6875 
L 18.40625 0 
L 9.421875 0 
z
M 9.421875 75.984375 
L 18.40625 75.984375 
L 18.40625 64.59375 
L 9.421875 64.59375 
z
" id="DejaVuSans-105"/>
       <path d="M 54.890625 33.015625 
L 54.890625 0 
L 45.90625 0 
L 45.90625 32.71875 
Q 45.90625 40.484375 42.875 44.328125 
Q 39.84375 48.1875 33.796875 48.1875 
Q 26.515625 48.1875 22.3125 43.546875 
Q 18.109375 38.921875 18.109375 30.90625 
L 18.109375 0 
L 9.078125 0 
L 9.078125 54.6875 
L 18.109375 54.6875 
L 18.109375 46.1875 
Q 21.34375 51.125 25.703125 53.5625 
Q 30.078125 56 35.796875 56 
Q 45.21875 56 50.046875 50.171875 
Q 54.890625 44.34375 54.890625 33.015625 
z
" id="DejaVuSans-110"/>
       <path d="M 45.40625 27.984375 
Q 45.40625 37.75 41.375 43.109375 
Q 37.359375 48.484375 30.078125 48.484375 
Q 22.859375 48.484375 18.828125 43.109375 
Q 14.796875 37.75 14.796875 27.984375 
Q 14.796875 18.265625 18.828125 12.890625 
Q 22.859375 7.515625 30.078125 7.515625 
Q 37.359375 7.515625 41.375 12.890625 
Q 45.40625 18.265625 45.40625 27.984375 
z
M 54.390625 6.78125 
Q 54.390625 -7.171875 48.1875 -13.984375 
Q 42 -20.796875 29.203125 -20.796875 
Q 24.46875 -20.796875 20.265625 -20.09375 
Q 16.0625 -19.390625 12.109375 -17.921875 
L 12.109375 -9.1875 
Q 16.0625 -11.328125 19.921875 -12.34375 
Q 23.78125 -13.375 27.78125 -13.375 
Q 36.625 -13.375 41.015625 -8.765625 
Q 45.40625 -4.15625 45.40625 5.171875 
L 45.40625 9.625 
Q 42.625 4.78125 38.28125 2.390625 
Q 33.9375 0 27.875 0 
Q 17.828125 0 11.671875 7.65625 
Q 5.515625 15.328125 5.515625 27.984375 
Q 5.515625 40.671875 11.671875 48.328125 
Q 17.828125 56 27.875 56 
Q 33.9375 56 38.28125 53.609375 
Q 42.625 51.21875 45.40625 46.390625 
L 45.40625 54.6875 
L 54.390625 54.6875 
z
" id="DejaVuSans-103"/>
       <path id="DejaVuSans-32"/>
       <path d="M 9.8125 72.90625 
L 55.90625 72.90625 
L 55.90625 64.59375 
L 19.671875 64.59375 
L 19.671875 43.015625 
L 54.390625 43.015625 
L 54.390625 34.71875 
L 19.671875 34.71875 
L 19.671875 8.296875 
L 56.78125 8.296875 
L 56.78125 0 
L 9.8125 0 
z
" id="DejaVuSans-69"/>
       <path d="M 9.8125 72.90625 
L 19.671875 72.90625 
L 19.671875 8.296875 
L 55.171875 8.296875 
L 55.171875 0 
L 9.8125 0 
z
" id="DejaVuSans-76"/>
       <path d="M 19.671875 34.8125 
L 19.671875 8.109375 
L 35.5 8.109375 
Q 43.453125 8.109375 47.28125 11.40625 
Q 51.125 14.703125 51.125 21.484375 
Q 51.125 28.328125 47.28125 31.5625 
Q 43.453125 34.8125 35.5 34.8125 
z
M 19.671875 64.796875 
L 19.671875 42.828125 
L 34.28125 42.828125 
Q 41.5 42.828125 45.03125 45.53125 
Q 48.578125 48.25 48.578125 53.8125 
Q 48.578125 59.328125 45.03125 62.0625 
Q 41.5 64.796875 34.28125 64.796875 
z
M 9.8125 72.90625 
L 35.015625 72.90625 
Q 46.296875 72.90625 52.390625 68.21875 
Q 58.5 63.53125 58.5 54.890625 
Q 58.5 48.1875 55.375 44.234375 
Q 52.25 40.28125 46.1875 39.3125 
Q 53.46875 37.75 57.5 32.78125 
Q 61.53125 27.828125 61.53125 20.40625 
Q 61.53125 10.640625 54.890625 5.3125 
Q 48.25 0 35.984375 0 
L 9.8125 0 
z
" id="DejaVuSans-66"/>
       <path d="M 39.40625 66.21875 
Q 28.65625 66.21875 22.328125 58.203125 
Q 16.015625 50.203125 16.015625 36.375 
Q 16.015625 22.609375 22.328125 14.59375 
Q 28.65625 6.59375 39.40625 6.59375 
Q 50.140625 6.59375 56.421875 14.59375 
Q 62.703125 22.609375 62.703125 36.375 
Q 62.703125 50.203125 56.421875 58.203125 
Q 50.140625 66.21875 39.40625 66.21875 
z
M 39.40625 74.21875 
Q 54.734375 74.21875 63.90625 63.9375 
Q 73.09375 53.65625 73.09375 36.375 
Q 73.09375 19.140625 63.90625 8.859375 
Q 54.734375 -1.421875 39.40625 -1.421875 
Q 24.03125 -1.421875 14.8125 8.828125 
Q 5.609375 19.09375 5.609375 36.375 
Q 5.609375 53.65625 14.8125 63.9375 
Q 24.03125 74.21875 39.40625 74.21875 
z
" id="DejaVuSans-79"/>
      </defs>
      <use xlink:href="#DejaVuSans-116"/>
      <use x="39.208984" xlink:href="#DejaVuSans-114"/>
      <use x="80.322266" xlink:href="#DejaVuSans-97"/>
      <use x="141.601562" xlink:href="#DejaVuSans-105"/>
      <use x="169.384766" xlink:href="#DejaVuSans-110"/>
      <use x="232.763672" xlink:href="#DejaVuSans-105"/>
      <use x="260.546875" xlink:href="#DejaVuSans-110"/>
      <use x="323.925781" xlink:href="#DejaVuSans-103"/>
      <use x="387.402344" xlink:href="#DejaVuSans-32"/>
      <use x="419.189453" xlink:href="#DejaVuSans-69"/>
      <use x="482.373047" xlink:href="#DejaVuSans-76"/>
      <use x="538.085938" xlink:href="#DejaVuSans-66"/>
      <use x="604.939453" xlink:href="#DejaVuSans-79"/>
     </g>
    </g>
   </g>
   <g id="line2d_12">
    <path clip-path="url(#p3285d207b0)" d="M 68.493608 163.172727 
L 68.88585 98.829378 
L 69.081972 97.353318 
L 69.278093 87.622768 
L 69.474214 93.491134 
L 69.670335 83.620274 
L 69.866457 85.365289 
L 70.062578 88.74201 
L 70.258699 85.263988 
L 70.454821 85.560824 
L 70.650942 84.247591 
L 71.043184 78.264704 
L 71.239306 81.709779 
L 71.631548 75.364973 
L 72.023791 76.977123 
L 72.219912 74.462605 
L 72.612154 78.226096 
L 72.808276 70.620091 
L 73.004397 73.029465 
L 73.200518 71.679145 
L 73.396639 72.300126 
L 73.592761 74.772902 
L 73.788882 75.194025 
L 73.985003 69.186745 
L 74.181124 83.119841 
L 74.377246 71.077673 
L 74.769488 67.185813 
L 75.161731 63.62529 
L 75.357852 66.965336 
L 75.553973 67.955715 
L 75.750094 64.037997 
L 75.946216 63.701112 
L 76.142337 64.622006 
L 76.338458 59.322187 
L 76.534579 63.016134 
L 76.926822 66.172778 
L 77.319064 58.926039 
L 77.515186 59.778682 
L 77.711307 62.020837 
L 77.907428 56.370764 
L 78.103549 62.248427 
L 78.299671 58.690592 
L 78.495792 60.19554 
L 78.691913 58.534512 
L 78.888035 61.787048 
L 79.084156 54.695063 
L 79.280277 59.094276 
L 79.476398 57.999725 
L 79.67252 62.074278 
L 79.868641 56.128478 
L 80.064762 56.552621 
L 80.260883 63.576355 
L 80.457005 57.588608 
L 80.653126 55.823488 
L 80.849247 61.908317 
L 81.24149 53.650099 
L 81.437611 54.336621 
L 81.633732 53.833134 
L 81.829853 58.844912 
L 82.025975 53.505078 
L 82.418217 56.510353 
L 82.614338 61.948755 
L 82.81046 54.496086 
L 83.006581 59.732172 
L 83.202702 55.700516 
L 83.398823 64.942572 
L 83.594945 59.01125 
L 83.791066 59.651604 
L 84.37943 49.477573 
L 84.771672 58.770954 
L 84.967793 57.579402 
L 85.163915 51.982484 
L 85.360036 51.70183 
L 85.556157 46.171424 
L 85.752278 56.745766 
L 85.9484 55.621034 
L 86.144521 57.929073 
L 86.536763 56.517764 
L 86.732885 61.72113 
L 86.929006 50.854619 
L 87.125127 56.980789 
L 87.321249 55.676248 
L 87.51737 59.13858 
L 87.713491 50.908506 
L 88.105734 55.805476 
L 88.301855 55.456812 
L 88.497976 55.559806 
L 88.694097 55.368754 
L 88.890219 55.643449 
L 89.478582 49.263969 
L 89.674704 58.005077 
L 89.870825 55.652827 
L 90.066946 50.966098 
L 90.263067 57.548341 
L 90.459189 51.670381 
L 90.65531 55.035482 
L 90.851431 53.940531 
L 91.047552 58.359208 
L 91.439795 48.337769 
L 91.635916 54.08808 
L 91.832037 54.741482 
L 92.028159 60.295618 
L 92.22428 55.923326 
L 92.420401 57.458087 
L 92.616522 52.343648 
L 92.812644 50.744443 
L 93.008765 51.990706 
L 93.204886 56.722905 
L 93.401007 57.534549 
L 93.597129 60.06685 
L 93.79325 51.246238 
L 93.989371 60.56949 
L 94.185492 52.664362 
L 94.381614 53.937088 
L 94.773856 51.098826 
L 95.166099 56.834636 
L 95.36222 55.143714 
L 95.558341 55.852021 
L 95.754463 58.390532 
L 95.950584 48.140862 
L 96.146705 56.092877 
L 96.342826 53.399179 
L 96.538948 53.619656 
L 96.735069 57.016699 
L 96.93119 51.727927 
L 97.127311 50.10911 
L 97.323433 57.685277 
L 97.519554 53.15472 
L 97.715675 51.504191 
L 97.911796 46.805443 
L 98.107918 46.094322 
L 98.304039 54.879208 
L 98.50016 50.170865 
L 98.696281 49.139384 
L 99.088524 58.486332 
L 99.284645 56.010572 
L 99.480766 59.869165 
L 99.873009 48.946342 
L 100.265251 56.426389 
L 100.461373 50.798399 
L 100.657494 50.044141 
L 100.853615 53.265022 
L 101.049736 51.284617 
L 101.245858 60.950931 
L 101.441979 54.800927 
L 101.6381 61.273772 
L 101.834221 48.752591 
L 102.030343 57.986779 
L 102.226464 50.302495 
L 102.422585 50.972503 
L 102.618706 52.120552 
L 102.814828 47.834099 
L 103.010949 61.824582 
L 103.20707 48.169303 
L 103.403192 54.481231 
L 103.599313 46.631934 
L 103.795434 52.866507 
L 103.991555 49.180668 
L 104.187677 48.008317 
L 104.383798 49.954093 
L 104.579919 50.106628 
L 104.77604 50.593144 
L 104.972162 54.962966 
L 105.168283 48.449728 
L 105.364404 57.712015 
L 105.952768 43.016736 
L 106.148889 56.974522 
L 106.541132 49.244562 
L 106.737253 46.878257 
L 106.933374 56.190965 
L 107.325617 52.981875 
L 107.521738 53.15591 
L 107.717859 51.539746 
L 108.110102 55.5948 
L 108.502344 43.930939 
L 108.698465 57.188332 
L 108.894587 47.976239 
L 109.090708 55.582975 
L 109.286829 52.133978 
L 109.48295 46.299372 
L 109.679072 53.053454 
L 109.875193 53.116867 
L 110.267435 47.567455 
L 110.463557 53.713718 
L 110.659678 53.06099 
L 110.855799 49.816311 
L 111.05192 40.350198 
L 111.248042 49.614932 
L 111.444163 44.655418 
L 111.640284 48.81844 
L 111.836406 43.335278 
L 112.032527 46.271021 
L 112.228648 52.973344 
L 112.424769 44.324159 
L 112.620891 46.791937 
L 112.817012 54.326145 
L 113.209254 43.52761 
L 113.405376 47.909669 
L 113.601497 56.674656 
L 113.797618 44.85826 
L 113.993739 43.600207 
L 114.189861 44.821196 
L 114.385982 61.168754 
L 114.582103 47.400361 
L 114.974346 53.662713 
L 115.170467 48.401216 
L 115.366588 48.223236 
L 115.562709 46.198288 
L 115.758831 48.037937 
L 115.954952 48.382496 
L 116.151073 53.178691 
L 116.347194 48.349651 
L 116.543316 49.643568 
L 116.739437 44.868152 
L 116.935558 52.422729 
L 117.131679 50.956023 
L 117.327801 53.670055 
L 117.523922 46.366879 
L 117.720043 49.798882 
L 117.916164 40.282291 
L 118.112286 45.625247 
L 118.504528 50.083413 
L 118.896771 44.047737 
L 119.092892 52.6645 
L 119.289013 48.339164 
L 119.485134 47.046139 
L 119.681256 40.133667 
L 120.073498 50.566109 
L 120.26962 45.304143 
L 120.465741 52.928674 
L 120.661862 42.75239 
L 120.857983 43.853265 
L 121.054105 47.710555 
L 121.250226 45.799053 
L 121.446347 42.657962 
L 121.642468 50.59702 
L 121.83859 45.545354 
L 122.034711 48.190323 
L 122.230832 42.283875 
L 122.426953 43.223855 
L 123.015317 51.47034 
L 123.211438 44.993481 
L 123.40756 51.132986 
L 123.603681 50.15044 
L 123.799802 50.976162 
L 123.995923 43.225056 
L 124.192045 47.695402 
L 124.388166 46.889647 
L 124.584287 40.082376 
L 124.780408 37.424449 
L 124.97653 50.528632 
L 125.368772 42.315244 
L 125.564893 45.431953 
L 125.761015 46.089302 
L 125.957136 48.037811 
L 126.349378 42.474984 
L 126.5455 46.255285 
L 126.741621 41.507122 
L 126.937742 41.474392 
L 127.133863 47.125163 
L 127.329985 43.043519 
L 127.526106 41.312777 
L 127.722227 48.056772 
L 128.11447 43.952028 
L 128.310591 45.792912 
L 128.702834 41.556274 
L 128.898955 42.636576 
L 129.095076 48.610738 
L 129.291197 41.693668 
L 129.487319 43.192978 
L 129.68344 50.016592 
L 130.075682 41.132486 
L 130.271804 45.94356 
L 130.467925 36.707954 
L 130.664046 47.026903 
L 130.860167 48.834291 
L 131.056289 46.045272 
L 131.448531 47.745435 
L 131.644652 40.050091 
L 131.840774 47.907931 
L 132.036895 44.92929 
L 132.233016 43.818648 
L 132.429137 53.38191 
L 132.82138 41.13586 
L 133.017501 53.680599 
L 133.213622 42.329677 
L 133.409744 45.393093 
L 133.605865 41.188649 
L 133.801986 41.462155 
L 133.998107 49.218202 
L 134.39035 44.043997 
L 134.586471 43.99736 
L 134.782592 35.966344 
L 134.978714 48.139375 
L 135.174835 38.122053 
L 135.567077 45.962715 
L 135.763199 46.263588 
L 135.95932 40.215435 
L 136.155441 45.270681 
L 136.351562 38.964232 
L 136.743805 45.036366 
L 136.939926 44.520094 
L 137.136048 44.362939 
L 137.332169 48.739028 
L 137.52829 49.647422 
L 137.724411 39.434462 
L 137.920533 41.9806 
L 138.116654 40.857207 
L 138.312775 50.083596 
L 138.705018 40.589442 
L 138.901139 44.472771 
L 139.09726 42.712569 
L 139.293381 47.497603 
L 139.489503 46.386686 
L 139.685624 41.991579 
L 139.881745 42.022525 
L 140.077866 40.653816 
L 140.470109 44.500664 
L 140.66623 38.822104 
L 141.058473 41.66597 
L 141.254594 45.209589 
L 141.450715 40.979299 
L 141.646836 41.309517 
L 141.842958 38.436878 
L 142.431321 47.008011 
L 143.019685 39.216352 
L 143.215806 43.372136 
L 143.411928 44.152503 
L 143.608049 38.346452 
L 143.80417 38.911671 
L 144.000291 41.988125 
L 144.196413 54.713727 
L 144.392534 39.717049 
L 144.784777 43.701519 
L 144.980898 36.801158 
L 145.177019 44.512237 
L 145.37314 43.367733 
L 145.569262 39.81469 
L 145.765383 41.540161 
L 145.961504 46.941556 
L 146.353747 34.661082 
L 146.549868 36.03392 
L 146.745989 40.866253 
L 146.94211 37.375857 
L 147.138232 40.808158 
L 147.530474 36.142552 
L 147.726595 45.152226 
L 147.922717 41.717947 
L 148.118838 44.960293 
L 148.314959 38.50044 
L 148.51108 43.649108 
L 148.707202 41.955281 
L 148.903323 42.658842 
L 149.295565 35.736569 
L 149.687808 43.945143 
L 149.883929 38.711299 
L 150.08005 37.503702 
L 150.276172 39.240025 
L 150.472293 43.015707 
L 150.668414 41.614759 
L 150.864535 28.456609 
L 151.256778 40.762127 
L 151.452899 40.024497 
L 151.64902 35.587522 
L 151.845142 39.767608 
L 152.041263 37.933403 
L 152.237384 31.588242 
L 152.433505 39.544295 
L 152.825748 32.658629 
L 153.217991 40.268087 
L 153.414112 35.980639 
L 153.610233 34.890205 
L 153.806354 35.376492 
L 154.002476 37.068557 
L 154.198597 31.189384 
L 154.394718 36.083633 
L 154.590839 34.008297 
L 154.786961 38.772883 
L 154.983082 31.8229 
L 155.179203 35.999051 
L 155.375324 35.894342 
L 155.571446 32.797417 
L 155.767567 31.620755 
L 155.963688 34.392596 
L 156.159809 29.404297 
L 156.355931 32.512063 
L 156.552052 31.772718 
L 156.748173 36.749329 
L 156.944294 33.661348 
L 157.140416 27.667757 
L 157.336537 39.644612 
L 157.532658 29.048291 
L 157.728779 34.509782 
L 157.924901 33.549491 
L 158.121022 31.068081 
L 158.317143 39.022716 
L 158.513264 29.896005 
L 158.905507 40.655989 
L 159.297749 30.387323 
L 159.493871 42.763311 
L 159.689992 32.360558 
L 159.886113 32.956265 
L 160.082234 38.149351 
L 160.278356 36.331591 
L 160.670598 25.746168 
L 160.866719 37.461663 
L 161.062841 32.322372 
L 161.258962 31.209398 
L 161.455083 35.892581 
L 161.651205 26.403825 
L 161.847326 34.951777 
L 162.043447 27.480456 
L 162.43569 32.693692 
L 162.631811 21.394026 
L 162.827932 24.436126 
L 163.024053 24.130598 
L 163.220175 31.636434 
L 163.416296 34.389955 
L 163.612417 22.978523 
L 163.808538 33.468798 
L 164.00466 26.35497 
L 164.396902 29.739662 
L 164.593023 28.825973 
L 164.789145 30.896643 
L 164.985266 34.545269 
L 165.181387 29.407522 
L 165.377508 29.010826 
L 165.57363 27.598785 
L 165.769751 27.530672 
L 165.965872 21.816705 
L 166.161993 25.035459 
L 166.554236 22.225169 
L 166.750357 31.141879 
L 166.946478 22.84846 
L 167.1426 25.876277 
L 167.338721 31.807392 
L 167.534842 23.457194 
L 167.927085 26.391337 
L 168.123206 22.685084 
L 168.515448 27.650488 
L 168.71157 24.800664 
L 168.907691 24.759459 
L 169.103812 25.715874 
L 169.299933 27.982101 
L 169.888297 23.625453 
L 170.084419 29.807832 
L 170.28054 31.290857 
L 170.476661 23.151186 
L 170.868904 28.267249 
L 171.065025 21.614206 
L 171.261146 25.89215 
L 171.457267 23.070333 
L 171.84951 26.145666 
L 172.045631 22.439516 
L 172.241752 30.130251 
L 172.437874 25.615396 
L 172.633995 25.374048 
L 172.830116 30.706094 
L 173.026237 24.094712 
L 173.222359 22.61983 
L 173.41848 31.56131 
L 173.614601 28.013779 
L 173.810722 21.451115 
L 174.006844 23.191739 
L 174.202965 20.314856 
L 174.399086 21.310702 
L 174.595207 20.950419 
L 174.791329 26.266717 
L 174.98745 20.177474 
L 175.183571 26.481682 
L 175.379692 22.457265 
L 175.575814 25.828199 
L 175.771935 21.956935 
L 176.164177 22.965989 
L 176.55642 25.413891 
L 176.752541 23.649366 
L 176.948662 27.888714 
L 177.144784 21.989905 
L 177.340905 19.65824 
L 177.537026 22.301745 
L 177.733147 26.841314 
L 177.929269 26.290882 
L 178.12539 30.032781 
L 178.321511 23.822052 
L 178.517633 22.717517 
L 178.713754 30.74851 
L 178.909875 24.984191 
L 179.105996 26.331091 
L 179.302118 24.769946 
L 179.498239 22.103626 
L 179.69436 22.08582 
L 179.890481 19.249982 
L 180.086603 28.566453 
L 180.282724 20.759939 
L 180.478845 23.53847 
L 180.871088 25.529053 
L 181.067209 38.47966 
L 181.655573 15.070239 
L 181.851694 27.850094 
L 182.047815 21.101033 
L 182.243936 20.091383 
L 182.440058 21.971939 
L 182.636179 26.59403 
L 182.8323 26.029361 
L 183.224543 18.719952 
L 183.420664 23.489101 
L 183.616785 24.875524 
L 184.009028 28.071463 
L 184.205149 20.271205 
L 184.40127 24.901976 
L 184.597391 21.757809 
L 184.793513 23.457079 
L 184.989634 18.815752 
L 185.185755 21.828393 
L 185.577998 17.025931 
L 185.97024 30.020693 
L 186.166362 19.901623 
L 186.362483 24.825251 
L 186.558604 24.127785 
L 186.754725 22.991698 
L 186.950847 25.442299 
L 187.146968 16.693643 
L 187.343089 19.546601 
L 187.53921 19.909297 
L 187.735332 21.366305 
L 187.931453 19.466502 
L 188.323695 26.885937 
L 188.519817 23.618786 
L 188.715938 25.576261 
L 188.912059 23.528475 
L 189.10818 20.197716 
L 189.304302 23.155109 
L 189.500423 17.231461 
L 189.696544 23.879736 
L 189.892665 26.163815 
L 190.088787 14.627273 
L 190.284908 24.041351 
L 190.481029 20.131707 
L 190.67715 23.094875 
L 190.873272 15.820541 
L 191.461635 29.30908 
L 191.657757 25.105905 
L 191.853878 28.164965 
L 192.049999 21.390195 
L 192.24612 25.983891 
L 192.638363 18.973559 
L 192.834484 31.135154 
L 193.030605 18.697526 
L 193.226727 25.756872 
L 193.422848 24.12376 
L 193.618969 20.074835 
L 193.81509 20.400684 
L 194.011212 19.328285 
L 194.207333 36.701481 
L 194.403454 25.275537 
L 194.599576 27.447463 
L 194.991818 21.599522 
L 195.187939 26.677994 
L 195.384061 21.705946 
L 195.776303 17.382257 
L 195.972424 26.650056 
L 196.168546 23.880902 
L 196.364667 28.494234 
L 196.560788 30.299174 
L 196.756909 23.253494 
L 196.953031 25.151592 
L 197.149152 19.293188 
L 197.345273 21.61161 
L 197.541394 20.101378 
L 197.737516 24.532487 
L 197.933637 18.300692 
L 198.129758 17.154736 
L 198.522001 27.601736 
L 198.718122 26.381056 
L 199.110364 27.580099 
L 199.306486 22.611584 
L 199.502607 21.553194 
L 199.894849 25.327915 
L 200.090971 18.438898 
L 200.287092 18.581678 
L 200.483213 22.456773 
L 200.679334 22.878846 
L 200.875456 20.762912 
L 201.071577 21.177128 
L 201.267698 19.377861 
L 201.463819 19.475639 
L 201.659941 20.299509 
L 201.856062 23.164726 
L 202.052183 22.03199 
L 202.248304 16.092995 
L 202.640547 23.433155 
L 202.836668 24.386356 
L 203.228911 17.563851 
L 203.425032 27.450996 
L 203.621153 20.813288 
L 204.013396 22.660485 
L 204.209517 26.883685 
L 204.209517 26.883685 
" style="fill:none;stroke:#1f77b4;stroke-linecap:square;stroke-width:2;"/>
   </g>
   <g id="patch_3">
    <path d="M 61.707813 170.6 
L 61.707813 7.2 
" style="fill:none;stroke:#000000;stroke-linecap:square;stroke-linejoin:miter;stroke-width:0.8;"/>
   </g>
   <g id="patch_4">
    <path d="M 210.995312 170.6 
L 210.995312 7.2 
" style="fill:none;stroke:#000000;stroke-linecap:square;stroke-linejoin:miter;stroke-width:0.8;"/>
   </g>
   <g id="patch_5">
    <path d="M 61.707813 170.6 
L 210.995312 170.6 
" style="fill:none;stroke:#000000;stroke-linecap:square;stroke-linejoin:miter;stroke-width:0.8;"/>
   </g>
   <g id="patch_6">
    <path d="M 61.707813 7.2 
L 210.995312 7.2 
" style="fill:none;stroke:#000000;stroke-linecap:square;stroke-linejoin:miter;stroke-width:0.8;"/>
   </g>
  </g>
  <g id="axes_2">
   <g id="patch_7">
    <path d="M 274.495313 170.6 
L 423.782812 170.6 
L 423.782812 7.2 
L 274.495313 7.2 
z
" style="fill:#ffffff;"/>
   </g>
   <g id="matplotlib.axis_3">
    <g id="xtick_5">
     <g id="line2d_13">
      <g>
       <use style="stroke:#000000;stroke-width:0.8;" x="281.281108" xlink:href="#me753b450d4" y="170.6"/>
      </g>
     </g>
     <g id="text_14">
      <!-- 0 -->
      <g transform="translate(278.099858 185.198437)scale(0.1 -0.1)">
       <use xlink:href="#DejaVuSans-48"/>
      </g>
     </g>
    </g>
    <g id="xtick_6">
     <g id="line2d_14">
      <g>
       <use style="stroke:#000000;stroke-width:0.8;" x="320.505359" xlink:href="#me753b450d4" y="170.6"/>
      </g>
     </g>
     <g id="text_15">
      <!-- 200 -->
      <g transform="translate(310.961609 185.198437)scale(0.1 -0.1)">
       <use xlink:href="#DejaVuSans-50"/>
       <use x="63.623047" xlink:href="#DejaVuSans-48"/>
       <use x="127.246094" xlink:href="#DejaVuSans-48"/>
      </g>
     </g>
    </g>
    <g id="xtick_7">
     <g id="line2d_15">
      <g>
       <use style="stroke:#000000;stroke-width:0.8;" x="359.72961" xlink:href="#me753b450d4" y="170.6"/>
      </g>
     </g>
     <g id="text_16">
      <!-- 400 -->
      <g transform="translate(350.18586 185.198437)scale(0.1 -0.1)">
       <use xlink:href="#DejaVuSans-52"/>
       <use x="63.623047" xlink:href="#DejaVuSans-48"/>
       <use x="127.246094" xlink:href="#DejaVuSans-48"/>
      </g>
     </g>
    </g>
    <g id="xtick_8">
     <g id="line2d_16">
      <g>
       <use style="stroke:#000000;stroke-width:0.8;" x="398.953862" xlink:href="#me753b450d4" y="170.6"/>
      </g>
     </g>
     <g id="text_17">
      <!-- 600 -->
      <g transform="translate(389.410112 185.198437)scale(0.1 -0.1)">
       <use xlink:href="#DejaVuSans-54"/>
       <use x="63.623047" xlink:href="#DejaVuSans-48"/>
       <use x="127.246094" xlink:href="#DejaVuSans-48"/>
      </g>
     </g>
    </g>
    <g id="text_18">
     <!-- steps -->
     <g transform="translate(335.71875 198.876562)scale(0.1 -0.1)">
      <use xlink:href="#DejaVuSans-115"/>
      <use x="52.099609" xlink:href="#DejaVuSans-116"/>
      <use x="91.308594" xlink:href="#DejaVuSans-101"/>
      <use x="152.832031" xlink:href="#DejaVuSans-112"/>
      <use x="216.308594" xlink:href="#DejaVuSans-115"/>
     </g>
    </g>
   </g>
   <g id="matplotlib.axis_4">
    <g id="ytick_8">
     <g id="line2d_17">
      <g>
       <use style="stroke:#000000;stroke-width:0.8;" x="274.495313" xlink:href="#mcf2e2e5dd3" y="163.384679"/>
      </g>
     </g>
     <g id="text_19">
      <!-- 1250 -->
      <g transform="translate(242.045313 167.183898)scale(0.1 -0.1)">
       <use xlink:href="#DejaVuSans-49"/>
       <use x="63.623047" xlink:href="#DejaVuSans-50"/>
       <use x="127.246094" xlink:href="#DejaVuSans-53"/>
       <use x="190.869141" xlink:href="#DejaVuSans-48"/>
      </g>
     </g>
    </g>
    <g id="ytick_9">
     <g id="line2d_18">
      <g>
       <use style="stroke:#000000;stroke-width:0.8;" x="274.495313" xlink:href="#mcf2e2e5dd3" y="140.03208"/>
      </g>
     </g>
     <g id="text_20">
      <!-- 1500 -->
      <g transform="translate(242.045313 143.831298)scale(0.1 -0.1)">
       <use xlink:href="#DejaVuSans-49"/>
       <use x="63.623047" xlink:href="#DejaVuSans-53"/>
       <use x="127.246094" xlink:href="#DejaVuSans-48"/>
       <use x="190.869141" xlink:href="#DejaVuSans-48"/>
      </g>
     </g>
    </g>
    <g id="ytick_10">
     <g id="line2d_19">
      <g>
       <use style="stroke:#000000;stroke-width:0.8;" x="274.495313" xlink:href="#mcf2e2e5dd3" y="116.67948"/>
      </g>
     </g>
     <g id="text_21">
      <!-- 1750 -->
      <g transform="translate(242.045313 120.478698)scale(0.1 -0.1)">
       <use xlink:href="#DejaVuSans-49"/>
       <use x="63.623047" xlink:href="#DejaVuSans-55"/>
       <use x="127.246094" xlink:href="#DejaVuSans-53"/>
       <use x="190.869141" xlink:href="#DejaVuSans-48"/>
      </g>
     </g>
    </g>
    <g id="ytick_11">
     <g id="line2d_20">
      <g>
       <use style="stroke:#000000;stroke-width:0.8;" x="274.495313" xlink:href="#mcf2e2e5dd3" y="93.32688"/>
      </g>
     </g>
     <g id="text_22">
      <!-- 2000 -->
      <g transform="translate(242.045313 97.126099)scale(0.1 -0.1)">
       <use xlink:href="#DejaVuSans-50"/>
       <use x="63.623047" xlink:href="#DejaVuSans-48"/>
       <use x="127.246094" xlink:href="#DejaVuSans-48"/>
       <use x="190.869141" xlink:href="#DejaVuSans-48"/>
      </g>
     </g>
    </g>
    <g id="ytick_12">
     <g id="line2d_21">
      <g>
       <use style="stroke:#000000;stroke-width:0.8;" x="274.495313" xlink:href="#mcf2e2e5dd3" y="69.97428"/>
      </g>
     </g>
     <g id="text_23">
      <!-- 2250 -->
      <g transform="translate(242.045313 73.773499)scale(0.1 -0.1)">
       <use xlink:href="#DejaVuSans-50"/>
       <use x="63.623047" xlink:href="#DejaVuSans-50"/>
       <use x="127.246094" xlink:href="#DejaVuSans-53"/>
       <use x="190.869141" xlink:href="#DejaVuSans-48"/>
      </g>
     </g>
    </g>
    <g id="ytick_13">
     <g id="line2d_22">
      <g>
       <use style="stroke:#000000;stroke-width:0.8;" x="274.495313" xlink:href="#mcf2e2e5dd3" y="46.62168"/>
      </g>
     </g>
     <g id="text_24">
      <!-- 2500 -->
      <g transform="translate(242.045313 50.420899)scale(0.1 -0.1)">
       <use xlink:href="#DejaVuSans-50"/>
       <use x="63.623047" xlink:href="#DejaVuSans-53"/>
       <use x="127.246094" xlink:href="#DejaVuSans-48"/>
       <use x="190.869141" xlink:href="#DejaVuSans-48"/>
      </g>
     </g>
    </g>
    <g id="ytick_14">
     <g id="line2d_23">
      <g>
       <use style="stroke:#000000;stroke-width:0.8;" x="274.495313" xlink:href="#mcf2e2e5dd3" y="23.26908"/>
      </g>
     </g>
     <g id="text_25">
      <!-- 2750 -->
      <g transform="translate(242.045313 27.068299)scale(0.1 -0.1)">
       <use xlink:href="#DejaVuSans-50"/>
       <use x="63.623047" xlink:href="#DejaVuSans-55"/>
       <use x="127.246094" xlink:href="#DejaVuSans-53"/>
       <use x="190.869141" xlink:href="#DejaVuSans-48"/>
      </g>
     </g>
    </g>
    <g id="text_26">
     <!-- training D -->
     <g transform="translate(235.965625 113.708594)rotate(-90)scale(0.1 -0.1)">
      <defs>
       <path d="M 19.671875 64.796875 
L 19.671875 8.109375 
L 31.59375 8.109375 
Q 46.6875 8.109375 53.6875 14.9375 
Q 60.6875 21.78125 60.6875 36.53125 
Q 60.6875 51.171875 53.6875 57.984375 
Q 46.6875 64.796875 31.59375 64.796875 
z
M 9.8125 72.90625 
L 30.078125 72.90625 
Q 51.265625 72.90625 61.171875 64.09375 
Q 71.09375 55.28125 71.09375 36.53125 
Q 71.09375 17.671875 61.125 8.828125 
Q 51.171875 0 30.078125 0 
L 9.8125 0 
z
" id="DejaVuSans-68"/>
      </defs>
      <use xlink:href="#DejaVuSans-116"/>
      <use x="39.208984" xlink:href="#DejaVuSans-114"/>
      <use x="80.322266" xlink:href="#DejaVuSans-97"/>
      <use x="141.601562" xlink:href="#DejaVuSans-105"/>
      <use x="169.384766" xlink:href="#DejaVuSans-110"/>
      <use x="232.763672" xlink:href="#DejaVuSans-105"/>
      <use x="260.546875" xlink:href="#DejaVuSans-110"/>
      <use x="323.925781" xlink:href="#DejaVuSans-103"/>
      <use x="387.402344" xlink:href="#DejaVuSans-32"/>
      <use x="419.189453" xlink:href="#DejaVuSans-68"/>
     </g>
    </g>
   </g>
   <g id="line2d_24">
    <path clip-path="url(#pac86af3d01)" d="M 281.281108 14.627273 
L 281.67335 78.891644 
L 281.869472 80.355651 
L 282.065593 89.974345 
L 282.261714 84.218955 
L 282.457835 94.027789 
L 282.653957 92.263265 
L 282.850078 88.877012 
L 283.046199 92.371829 
L 283.242321 92.091222 
L 283.438442 93.377143 
L 283.830684 99.357826 
L 284.026806 95.890136 
L 284.419048 102.268793 
L 284.811291 100.662994 
L 285.007412 103.163011 
L 285.399654 99.454862 
L 285.595776 107.016749 
L 285.791897 104.62728 
L 285.988018 105.947888 
L 286.184139 105.34665 
L 286.380261 102.843156 
L 286.576382 102.471338 
L 286.772503 108.418726 
L 286.968624 94.526836 
L 287.164746 106.587508 
L 287.556988 110.428292 
L 287.949231 114.031662 
L 288.145352 110.716813 
L 288.341473 109.733085 
L 288.537594 113.664235 
L 288.733716 113.933702 
L 288.929837 113.055425 
L 289.125958 118.386808 
L 289.322079 114.732172 
L 289.714322 111.54615 
L 290.106564 118.790359 
L 290.302686 117.952995 
L 290.498807 115.762947 
L 290.694928 121.423011 
L 290.891049 115.513286 
L 291.087171 119.033018 
L 291.283292 117.507357 
L 291.479413 119.172735 
L 291.675535 115.905218 
L 291.871656 123.021695 
L 292.067777 118.647187 
L 292.263898 119.744372 
L 292.46002 115.674543 
L 292.656141 121.642694 
L 292.852262 121.139667 
L 293.048383 114.112222 
L 293.244505 120.08929 
L 293.440626 121.854544 
L 293.636747 115.776619 
L 294.02899 124.046244 
L 294.225111 123.354401 
L 294.421232 123.884521 
L 294.617353 118.906894 
L 294.813475 124.251994 
L 295.205717 121.277775 
L 295.401838 115.832583 
L 295.59796 123.257695 
L 295.794081 118.031342 
L 295.990202 122.078012 
L 296.186323 112.8654 
L 296.382445 118.790062 
L 296.578566 118.16473 
L 297.16693 128.256394 
L 297.559172 119.081685 
L 297.755293 120.265244 
L 297.951415 125.834497 
L 298.147536 126.085013 
L 298.343657 131.581221 
L 298.539778 121.075367 
L 298.7359 122.206497 
L 298.932021 119.929197 
L 299.324263 121.296613 
L 299.520385 116.099986 
L 299.716506 126.943221 
L 299.912627 120.85443 
L 300.108749 122.130681 
L 300.30487 118.711452 
L 300.500991 126.881077 
L 300.893234 121.973918 
L 301.089355 122.269212 
L 301.285476 122.170169 
L 301.481597 122.388689 
L 301.677719 122.157671 
L 302.266082 128.54154 
L 302.462204 119.813586 
L 302.658325 122.157705 
L 302.854446 126.793322 
L 303.050567 120.244423 
L 303.246689 126.096005 
L 303.44281 122.731269 
L 303.638931 123.852764 
L 303.835052 119.430719 
L 304.227295 129.42521 
L 304.423416 123.729525 
L 304.619537 123.093668 
L 304.815659 117.549341 
L 305.01178 121.892035 
L 305.207901 120.340422 
L 305.404022 125.443364 
L 305.600144 127.067875 
L 305.796265 125.8142 
L 305.992386 121.098001 
L 306.188507 120.291425 
L 306.384629 117.78216 
L 306.58075 126.59373 
L 306.776871 117.285325 
L 306.972992 125.152619 
L 307.169114 123.894703 
L 307.561356 126.673902 
L 307.953599 120.971979 
L 308.14972 122.615031 
L 308.345841 121.949436 
L 308.541963 119.443753 
L 308.738084 129.670595 
L 308.934205 121.738145 
L 309.130326 124.445884 
L 309.326448 124.206999 
L 309.522569 120.782958 
L 309.71869 126.072128 
L 309.914811 127.668235 
L 310.110933 120.145288 
L 310.307054 124.67071 
L 310.503175 126.310466 
L 310.699296 131.028193 
L 310.895418 131.689979 
L 311.091539 122.916334 
L 311.28766 127.616227 
L 311.483781 128.601917 
L 311.876024 119.32098 
L 312.072145 121.745363 
L 312.268266 117.932675 
L 312.660509 128.79957 
L 313.052751 121.399658 
L 313.248873 126.993849 
L 313.444994 127.737141 
L 313.641115 124.505269 
L 313.837236 126.469384 
L 314.033358 116.834476 
L 314.229479 122.923552 
L 314.4256 116.440617 
L 314.621721 128.955923 
L 314.817843 119.745318 
L 315.013964 127.443751 
L 315.210085 126.772945 
L 315.406206 125.649797 
L 315.602328 129.945364 
L 315.798449 115.96393 
L 315.99457 129.594631 
L 316.190692 123.326225 
L 316.386813 131.126461 
L 316.582934 124.897063 
L 316.779055 128.570822 
L 316.975177 129.714655 
L 317.171298 127.827039 
L 317.367419 127.64779 
L 317.56354 127.201012 
L 317.759662 122.786663 
L 317.955783 129.332051 
L 318.151904 120.065196 
L 318.740268 134.710709 
L 318.936389 120.750289 
L 319.328632 128.484743 
L 319.524753 130.84924 
L 319.720874 121.576365 
L 320.113117 124.71762 
L 320.309238 124.599979 
L 320.505359 126.202027 
L 320.897602 122.163361 
L 321.289844 133.823219 
L 321.485965 120.606924 
L 321.682087 129.772352 
L 321.878208 122.227946 
L 322.074329 125.680812 
L 322.27045 131.508073 
L 322.466572 124.739433 
L 322.662693 124.708555 
L 323.054935 130.239586 
L 323.251057 124.081935 
L 323.447178 124.757358 
L 323.643299 127.992081 
L 323.83942 137.434719 
L 324.035542 128.194524 
L 324.231663 133.113279 
L 324.427784 128.945741 
L 324.623906 134.448573 
L 324.820027 131.533945 
L 325.016148 124.838203 
L 325.212269 133.450843 
L 325.408391 130.980712 
L 325.604512 123.475679 
L 325.996754 134.229962 
L 326.192876 129.862501 
L 326.388997 121.158481 
L 326.585118 132.941738 
L 326.781239 134.192881 
L 326.977361 132.962924 
L 327.173482 116.693277 
L 327.369603 130.432109 
L 327.761846 124.1501 
L 327.957967 129.370192 
L 328.154088 129.562612 
L 328.350209 131.578552 
L 328.546331 129.737392 
L 328.742452 129.390968 
L 328.938573 124.623389 
L 329.134694 129.43732 
L 329.330816 128.106826 
L 329.526937 132.920244 
L 329.723058 125.380216 
L 329.919179 126.871453 
L 330.115301 124.182894 
L 330.311422 131.438494 
L 330.507543 128.048501 
L 330.703664 137.532382 
L 330.899786 132.199061 
L 331.292028 127.726742 
L 331.684271 133.786331 
L 331.880392 125.161878 
L 332.076513 129.473945 
L 332.272634 130.770185 
L 332.468756 137.617822 
L 332.860998 127.206861 
L 333.05712 132.482417 
L 333.253241 124.891339 
L 333.449362 135.036972 
L 333.645483 133.925021 
L 333.841605 130.087909 
L 334.037726 131.976744 
L 334.233847 135.101637 
L 334.429968 127.190157 
L 334.62609 132.248754 
L 334.822211 129.586386 
L 335.018332 135.474081 
L 335.214453 134.574915 
L 335.802817 126.317239 
L 335.998938 132.779683 
L 336.19506 126.681371 
L 336.391181 127.63454 
L 336.587302 126.824736 
L 336.783423 134.545769 
L 336.979545 130.135914 
L 337.175666 130.911327 
L 337.371787 137.670308 
L 337.567908 140.353315 
L 337.76403 127.275197 
L 338.156272 135.461105 
L 338.352393 132.339895 
L 338.548515 131.712967 
L 338.744636 129.763572 
L 339.136878 135.267648 
L 339.333 131.527628 
L 339.529121 136.254876 
L 339.725242 136.30734 
L 339.921363 130.688862 
L 340.117485 134.762967 
L 340.313606 136.48643 
L 340.509727 129.779821 
L 340.90197 133.848396 
L 341.098091 132.031317 
L 341.490334 136.213565 
L 341.686455 135.144704 
L 341.882576 129.171593 
L 342.078697 136.088774 
L 342.274819 134.576602 
L 342.47094 127.819536 
L 342.863182 136.674049 
L 343.059304 131.862204 
L 343.255425 141.076219 
L 343.451546 130.782854 
L 343.647667 128.955342 
L 343.843789 131.7399 
L 344.236031 130.033541 
L 344.432152 137.702088 
L 344.628274 129.89151 
L 344.824395 132.862444 
L 345.020516 133.932775 
L 345.216637 124.437275 
L 345.60888 136.632612 
L 345.805001 124.129073 
L 346.001122 135.454537 
L 346.197244 132.360557 
L 346.393365 136.623717 
L 346.589486 136.33563 
L 346.785607 128.604847 
L 347.17785 133.755646 
L 347.373971 133.797243 
L 347.570092 141.797231 
L 347.766214 129.671005 
L 347.962335 139.696112 
L 348.354577 131.83575 
L 348.550699 131.532645 
L 348.74682 137.559452 
L 348.942941 132.517103 
L 349.139063 138.825989 
L 349.531305 132.777905 
L 349.727426 133.291 
L 349.923548 133.451835 
L 350.119669 129.085035 
L 350.31579 128.164489 
L 350.511911 138.381457 
L 350.708033 135.821884 
L 350.904154 136.934439 
L 351.100275 127.711211 
L 351.492518 137.200531 
L 351.688639 133.310351 
L 351.88476 135.067121 
L 352.080881 130.310294 
L 352.277003 131.430615 
L 352.473124 135.796 
L 352.669245 135.771325 
L 352.865366 137.147874 
L 353.257609 133.319325 
L 353.45373 138.98119 
L 353.845973 136.139607 
L 354.042094 132.573569 
L 354.238215 136.833458 
L 354.434336 136.51415 
L 354.630458 139.357728 
L 355.218821 130.793447 
L 355.807185 138.528243 
L 356.003306 134.396988 
L 356.199428 133.578643 
L 356.395549 139.394136 
L 356.59167 138.812226 
L 356.787791 135.724677 
L 356.983913 123.004021 
L 357.180034 138.018192 
L 357.572277 134.040769 
L 357.768398 140.958943 
L 357.964519 133.279119 
L 358.16064 134.41473 
L 358.356762 137.945671 
L 358.552883 136.262231 
L 358.749004 130.869879 
L 359.141247 143.089138 
L 359.337368 141.729636 
L 359.533489 136.899 
L 359.72961 140.397853 
L 359.925732 136.981373 
L 360.317974 141.643113 
L 360.514095 132.704791 
L 360.710217 136.109025 
L 360.906338 132.859091 
L 361.102459 139.321308 
L 361.29858 134.220954 
L 361.494702 135.852854 
L 361.690823 135.171911 
L 362.083065 142.05363 
L 362.475308 133.910232 
L 362.671429 139.121191 
L 362.86755 140.326747 
L 363.063672 138.562348 
L 363.259793 134.80283 
L 363.455914 136.171785 
L 363.652035 149.333051 
L 364.044278 137.043175 
L 364.240399 137.766034 
L 364.43652 142.20809 
L 364.632642 138.030791 
L 364.828763 139.855259 
L 365.024884 146.156755 
L 365.221005 138.237749 
L 365.613248 145.127758 
L 366.005491 137.540489 
L 366.201612 141.84706 
L 366.397733 142.902693 
L 366.593854 142.397579 
L 366.789976 140.721095 
L 366.986097 146.601709 
L 367.182218 141.730719 
L 367.378339 143.813057 
L 367.574461 139.075923 
L 367.770582 145.995647 
L 367.966703 141.804756 
L 368.162824 141.911508 
L 368.358946 144.996993 
L 368.555067 146.193004 
L 368.751188 143.428378 
L 368.947309 148.370634 
L 369.143431 145.261409 
L 369.339552 146.01998 
L 369.535673 141.05639 
L 369.731794 144.132012 
L 369.927916 150.098065 
L 370.124037 138.153837 
L 370.320158 148.720284 
L 370.516279 143.27052 
L 370.712401 144.225399 
L 370.908522 146.697274 
L 371.104643 138.751849 
L 371.300764 147.870457 
L 371.693007 137.121249 
L 372.085249 147.368422 
L 372.281371 135.042525 
L 372.477492 145.430806 
L 372.673613 144.859751 
L 372.869734 139.654664 
L 373.065856 141.470203 
L 373.458098 152.011439 
L 373.654219 140.317031 
L 373.850341 145.458161 
L 374.046462 146.604423 
L 374.242583 141.91348 
L 374.438705 151.380234 
L 374.634826 142.82324 
L 374.830947 150.295342 
L 375.22319 145.093528 
L 375.419311 156.332023 
L 375.615432 153.34069 
L 375.811553 153.627911 
L 376.007675 146.186676 
L 376.203796 143.41783 
L 376.399917 154.808255 
L 376.596038 144.339905 
L 376.79216 151.439346 
L 377.184402 148.086879 
L 377.380523 148.993321 
L 377.576645 146.907824 
L 377.772766 143.284476 
L 377.968887 148.416244 
L 378.165008 148.803683 
L 378.36113 150.220085 
L 378.557251 150.270154 
L 378.753372 155.998211 
L 378.949493 152.77724 
L 379.341736 155.580304 
L 379.537857 146.685051 
L 379.733978 154.944881 
L 379.9301 151.938325 
L 380.126221 146.043527 
L 380.322342 154.343232 
L 380.714585 151.393758 
L 380.910706 155.097061 
L 381.302948 150.155466 
L 381.49907 153.024426 
L 381.695191 153.048782 
L 381.891312 152.081998 
L 382.087433 149.833763 
L 382.675797 154.16916 
L 382.871919 147.995635 
L 383.06804 146.536919 
L 383.264161 154.65644 
L 383.656404 149.524752 
L 383.852525 156.18103 
L 384.048646 151.911073 
L 384.244767 154.724331 
L 384.63701 151.659622 
L 384.833131 155.346197 
L 385.029252 147.702451 
L 385.225374 152.2033 
L 385.421495 152.415662 
L 385.617616 147.125113 
L 385.813737 153.72188 
L 386.009859 155.170186 
L 386.20598 146.289733 
L 386.402101 149.820331 
L 386.598222 156.37354 
L 386.794344 154.645197 
L 386.990465 157.505891 
L 387.186586 156.529836 
L 387.382707 156.876636 
L 387.578829 151.546873 
L 387.77495 157.653258 
L 387.971071 151.364328 
L 388.167192 155.364863 
L 388.363314 152.000629 
L 388.559435 155.860775 
L 388.951677 154.828346 
L 389.34392 152.417943 
L 389.540041 154.175545 
L 389.736162 149.95828 
L 389.932284 155.839543 
L 390.128405 158.157791 
L 390.324526 155.50507 
L 390.520647 150.985601 
L 390.716769 151.552711 
L 390.91289 147.806717 
L 391.109011 153.994106 
L 391.305133 155.103583 
L 391.501254 147.076971 
L 391.697375 152.839704 
L 391.893496 151.503406 
L 392.089618 153.052397 
L 392.285739 155.731025 
L 392.48186 155.733465 
L 392.677981 158.571398 
L 392.874103 149.26216 
L 393.070224 157.045851 
L 393.266345 154.302571 
L 393.658588 152.298192 
L 393.854709 139.405733 
L 394.443073 162.73685 
L 394.639194 149.979124 
L 394.835315 156.746281 
L 395.031436 157.737854 
L 395.227558 155.838939 
L 395.423679 151.239047 
L 395.6198 151.789658 
L 396.012043 159.117539 
L 396.208164 154.341727 
L 396.404285 152.959066 
L 396.796528 149.784914 
L 396.992649 157.553189 
L 397.18877 152.924402 
L 397.384891 156.104963 
L 397.581013 154.385639 
L 397.777134 159.000525 
L 397.973255 155.992715 
L 398.365498 160.787615 
L 398.75774 147.844915 
L 398.953862 157.914105 
L 399.149983 153.022283 
L 399.542225 154.84805 
L 399.738347 152.413017 
L 399.934468 161.127813 
L 400.130589 158.275454 
L 400.32671 157.898221 
L 400.522832 156.452264 
L 400.718953 158.347861 
L 401.111195 150.913137 
L 401.307317 154.191281 
L 401.503438 152.249081 
L 401.699559 154.321077 
L 401.89568 157.621718 
L 402.091802 154.672039 
L 402.287923 160.586062 
L 402.484044 153.974517 
L 402.680165 151.678733 
L 402.876287 163.172727 
L 403.072408 153.774845 
L 403.268529 157.713019 
L 403.46465 154.759816 
L 403.660772 161.992201 
L 404.249135 148.56384 
L 404.445257 152.744172 
L 404.641378 149.697308 
L 404.837499 156.462435 
L 405.03362 151.859145 
L 405.425863 158.892406 
L 405.621984 146.74171 
L 405.818105 159.139136 
L 406.014227 152.104804 
L 406.210348 153.709257 
L 406.406469 157.751047 
L 406.60259 157.427942 
L 406.798712 158.486255 
L 406.994833 141.176927 
L 407.190954 152.563144 
L 407.387076 150.4054 
L 407.779318 156.249023 
L 407.975439 151.179548 
L 408.171561 156.130573 
L 408.563803 160.465582 
L 408.759924 151.198226 
L 408.956046 153.966991 
L 409.152167 149.388034 
L 409.348288 147.601321 
L 409.544409 154.604832 
L 409.740531 152.713602 
L 409.936652 158.545127 
L 410.132773 156.267633 
L 410.328894 157.734981 
L 410.525016 153.333027 
L 410.721137 159.540417 
L 410.917258 160.693509 
L 411.309501 150.275661 
L 411.505622 151.485846 
L 411.897864 150.302252 
L 412.093986 155.236994 
L 412.290107 156.305581 
L 412.682349 152.551947 
L 412.878471 159.413426 
L 413.074592 159.272022 
L 413.270713 155.407577 
L 413.466834 154.974277 
L 413.662956 157.075783 
L 413.859077 156.675596 
L 414.055198 158.467384 
L 414.251319 158.362958 
L 414.447441 157.563155 
L 414.643562 154.695186 
L 414.839683 155.821915 
L 415.035804 161.759063 
L 415.428047 154.445411 
L 415.624168 153.469676 
L 416.016411 160.298807 
L 416.212532 150.437852 
L 416.408653 157.02861 
L 416.800896 155.192353 
L 416.997017 150.954335 
L 416.997017 150.954335 
" style="fill:none;stroke:#1f77b4;stroke-linecap:square;stroke-width:2;"/>
   </g>
   <g id="patch_8">
    <path d="M 274.495313 170.6 
L 274.495313 7.2 
" style="fill:none;stroke:#000000;stroke-linecap:square;stroke-linejoin:miter;stroke-width:0.8;"/>
   </g>
   <g id="patch_9">
    <path d="M 423.782812 170.6 
L 423.782812 7.2 
" style="fill:none;stroke:#000000;stroke-linecap:square;stroke-linejoin:miter;stroke-width:0.8;"/>
   </g>
   <g id="patch_10">
    <path d="M 274.495313 170.6 
L 423.782812 170.6 
" style="fill:none;stroke:#000000;stroke-linecap:square;stroke-linejoin:miter;stroke-width:0.8;"/>
   </g>
   <g id="patch_11">
    <path d="M 274.495313 7.2 
L 423.782812 7.2 
" style="fill:none;stroke:#000000;stroke-linecap:square;stroke-linejoin:miter;stroke-width:0.8;"/>
   </g>
  </g>
  <g id="axes_3">
   <g id="patch_12">
    <path d="M 487.282813 170.6 
L 636.570312 170.6 
L 636.570312 7.2 
L 487.282813 7.2 
z
" style="fill:#ffffff;"/>
   </g>
   <g id="matplotlib.axis_5">
    <g id="xtick_9">
     <g id="line2d_25">
      <g>
       <use style="stroke:#000000;stroke-width:0.8;" x="494.068608" xlink:href="#me753b450d4" y="170.6"/>
      </g>
     </g>
     <g id="text_27">
      <!-- 0 -->
      <g transform="translate(490.887358 185.198437)scale(0.1 -0.1)">
       <use xlink:href="#DejaVuSans-48"/>
      </g>
     </g>
    </g>
    <g id="xtick_10">
     <g id="line2d_26">
      <g>
       <use style="stroke:#000000;stroke-width:0.8;" x="533.292859" xlink:href="#me753b450d4" y="170.6"/>
      </g>
     </g>
     <g id="text_28">
      <!-- 200 -->
      <g transform="translate(523.749109 185.198437)scale(0.1 -0.1)">
       <use xlink:href="#DejaVuSans-50"/>
       <use x="63.623047" xlink:href="#DejaVuSans-48"/>
       <use x="127.246094" xlink:href="#DejaVuSans-48"/>
      </g>
     </g>
    </g>
    <g id="xtick_11">
     <g id="line2d_27">
      <g>
       <use style="stroke:#000000;stroke-width:0.8;" x="572.51711" xlink:href="#me753b450d4" y="170.6"/>
      </g>
     </g>
     <g id="text_29">
      <!-- 400 -->
      <g transform="translate(562.97336 185.198437)scale(0.1 -0.1)">
       <use xlink:href="#DejaVuSans-52"/>
       <use x="63.623047" xlink:href="#DejaVuSans-48"/>
       <use x="127.246094" xlink:href="#DejaVuSans-48"/>
      </g>
     </g>
    </g>
    <g id="xtick_12">
     <g id="line2d_28">
      <g>
       <use style="stroke:#000000;stroke-width:0.8;" x="611.741362" xlink:href="#me753b450d4" y="170.6"/>
      </g>
     </g>
     <g id="text_30">
      <!-- 600 -->
      <g transform="translate(602.197612 185.198437)scale(0.1 -0.1)">
       <use xlink:href="#DejaVuSans-54"/>
       <use x="63.623047" xlink:href="#DejaVuSans-48"/>
       <use x="127.246094" xlink:href="#DejaVuSans-48"/>
      </g>
     </g>
    </g>
    <g id="text_31">
     <!-- steps -->
     <g transform="translate(548.50625 198.876562)scale(0.1 -0.1)">
      <use xlink:href="#DejaVuSans-115"/>
      <use x="52.099609" xlink:href="#DejaVuSans-116"/>
      <use x="91.308594" xlink:href="#DejaVuSans-101"/>
      <use x="152.832031" xlink:href="#DejaVuSans-112"/>
      <use x="216.308594" xlink:href="#DejaVuSans-115"/>
     </g>
    </g>
   </g>
   <g id="matplotlib.axis_6">
    <g id="ytick_15">
     <g id="line2d_29">
      <g>
       <use style="stroke:#000000;stroke-width:0.8;" x="487.282813" xlink:href="#mcf2e2e5dd3" y="163.77406"/>
      </g>
     </g>
     <g id="text_32">
      <!-- 0 -->
      <g transform="translate(473.920313 167.573279)scale(0.1 -0.1)">
       <use xlink:href="#DejaVuSans-48"/>
      </g>
     </g>
    </g>
    <g id="ytick_16">
     <g id="line2d_30">
      <g>
       <use style="stroke:#000000;stroke-width:0.8;" x="487.282813" xlink:href="#mcf2e2e5dd3" y="135.670801"/>
      </g>
     </g>
     <g id="text_33">
      <!-- 1 -->
      <g transform="translate(473.920313 139.47002)scale(0.1 -0.1)">
       <use xlink:href="#DejaVuSans-49"/>
      </g>
     </g>
    </g>
    <g id="ytick_17">
     <g id="line2d_31">
      <g>
       <use style="stroke:#000000;stroke-width:0.8;" x="487.282813" xlink:href="#mcf2e2e5dd3" y="107.567542"/>
      </g>
     </g>
     <g id="text_34">
      <!-- 2 -->
      <g transform="translate(473.920313 111.366761)scale(0.1 -0.1)">
       <use xlink:href="#DejaVuSans-50"/>
      </g>
     </g>
    </g>
    <g id="ytick_18">
     <g id="line2d_32">
      <g>
       <use style="stroke:#000000;stroke-width:0.8;" x="487.282813" xlink:href="#mcf2e2e5dd3" y="79.464283"/>
      </g>
     </g>
     <g id="text_35">
      <!-- 3 -->
      <g transform="translate(473.920313 83.263502)scale(0.1 -0.1)">
       <defs>
        <path d="M 40.578125 39.3125 
Q 47.65625 37.796875 51.625 33 
Q 55.609375 28.21875 55.609375 21.1875 
Q 55.609375 10.40625 48.1875 4.484375 
Q 40.765625 -1.421875 27.09375 -1.421875 
Q 22.515625 -1.421875 17.65625 -0.515625 
Q 12.796875 0.390625 7.625 2.203125 
L 7.625 11.71875 
Q 11.71875 9.328125 16.59375 8.109375 
Q 21.484375 6.890625 26.8125 6.890625 
Q 36.078125 6.890625 40.9375 10.546875 
Q 45.796875 14.203125 45.796875 21.1875 
Q 45.796875 27.640625 41.28125 31.265625 
Q 36.765625 34.90625 28.71875 34.90625 
L 20.21875 34.90625 
L 20.21875 43.015625 
L 29.109375 43.015625 
Q 36.375 43.015625 40.234375 45.921875 
Q 44.09375 48.828125 44.09375 54.296875 
Q 44.09375 59.90625 40.109375 62.90625 
Q 36.140625 65.921875 28.71875 65.921875 
Q 24.65625 65.921875 20.015625 65.03125 
Q 15.375 64.15625 9.8125 62.3125 
L 9.8125 71.09375 
Q 15.4375 72.65625 20.34375 73.4375 
Q 25.25 74.21875 29.59375 74.21875 
Q 40.828125 74.21875 47.359375 69.109375 
Q 53.90625 64.015625 53.90625 55.328125 
Q 53.90625 49.265625 50.4375 45.09375 
Q 46.96875 40.921875 40.578125 39.3125 
z
" id="DejaVuSans-51"/>
       </defs>
       <use xlink:href="#DejaVuSans-51"/>
      </g>
     </g>
    </g>
    <g id="ytick_19">
     <g id="line2d_33">
      <g>
       <use style="stroke:#000000;stroke-width:0.8;" x="487.282813" xlink:href="#mcf2e2e5dd3" y="51.361024"/>
      </g>
     </g>
     <g id="text_36">
      <!-- 4 -->
      <g transform="translate(473.920313 55.160243)scale(0.1 -0.1)">
       <use xlink:href="#DejaVuSans-52"/>
      </g>
     </g>
    </g>
    <g id="ytick_20">
     <g id="line2d_34">
      <g>
       <use style="stroke:#000000;stroke-width:0.8;" x="487.282813" xlink:href="#mcf2e2e5dd3" y="23.257765"/>
      </g>
     </g>
     <g id="text_37">
      <!-- 5 -->
      <g transform="translate(473.920313 27.056984)scale(0.1 -0.1)">
       <use xlink:href="#DejaVuSans-53"/>
      </g>
     </g>
    </g>
    <g id="text_38">
     <!-- training R -->
     <g transform="translate(467.840625 113.332812)rotate(-90)scale(0.1 -0.1)">
      <defs>
       <path d="M 44.390625 34.1875 
Q 47.5625 33.109375 50.5625 29.59375 
Q 53.5625 26.078125 56.59375 19.921875 
L 66.609375 0 
L 56 0 
L 46.6875 18.703125 
Q 43.0625 26.03125 39.671875 28.421875 
Q 36.28125 30.8125 30.421875 30.8125 
L 19.671875 30.8125 
L 19.671875 0 
L 9.8125 0 
L 9.8125 72.90625 
L 32.078125 72.90625 
Q 44.578125 72.90625 50.734375 67.671875 
Q 56.890625 62.453125 56.890625 51.90625 
Q 56.890625 45.015625 53.6875 40.46875 
Q 50.484375 35.9375 44.390625 34.1875 
z
M 19.671875 64.796875 
L 19.671875 38.921875 
L 32.078125 38.921875 
Q 39.203125 38.921875 42.84375 42.21875 
Q 46.484375 45.515625 46.484375 51.90625 
Q 46.484375 58.296875 42.84375 61.546875 
Q 39.203125 64.796875 32.078125 64.796875 
z
" id="DejaVuSans-82"/>
      </defs>
      <use xlink:href="#DejaVuSans-116"/>
      <use x="39.208984" xlink:href="#DejaVuSans-114"/>
      <use x="80.322266" xlink:href="#DejaVuSans-97"/>
      <use x="141.601562" xlink:href="#DejaVuSans-105"/>
      <use x="169.384766" xlink:href="#DejaVuSans-110"/>
      <use x="232.763672" xlink:href="#DejaVuSans-105"/>
      <use x="260.546875" xlink:href="#DejaVuSans-110"/>
      <use x="323.925781" xlink:href="#DejaVuSans-103"/>
      <use x="387.402344" xlink:href="#DejaVuSans-32"/>
      <use x="419.189453" xlink:href="#DejaVuSans-82"/>
     </g>
    </g>
   </g>
   <g id="line2d_35">
    <path clip-path="url(#pe90b8eb890)" d="M 494.068608 163.172727 
L 494.264729 158.328639 
L 494.46085 130.242106 
L 494.656972 132.566815 
L 494.853093 157.661633 
L 495.049214 128.844596 
L 495.441457 146.211421 
L 495.637578 152.051193 
L 496.029821 139.312422 
L 496.225942 146.3724 
L 496.422063 145.273563 
L 496.618184 141.763945 
L 496.814306 151.603516 
L 497.010427 151.227648 
L 497.206548 135.832708 
L 497.402669 130.78159 
L 497.794912 137.488737 
L 497.991033 141.640831 
L 498.187154 124.155846 
L 498.383276 130.727763 
L 498.579397 126.859078 
L 498.775518 134.61336 
L 498.971639 129.219714 
L 499.167761 140.639364 
L 499.363882 126.174434 
L 499.560003 138.899163 
L 499.756124 138.779654 
L 499.952246 122.601843 
L 500.148367 131.853598 
L 500.344488 134.543797 
L 500.540609 123.230204 
L 500.932852 113.874129 
L 501.128973 112.749309 
L 501.325094 105.258216 
L 501.521216 125.242788 
L 502.109579 90.491433 
L 502.501822 102.115275 
L 502.697943 113.153507 
L 502.894064 96.490796 
L 503.090186 92.644714 
L 503.482428 70.958095 
L 503.874671 94.113221 
L 504.070792 101.670292 
L 504.266913 98.898295 
L 504.463035 106.268159 
L 504.659156 92.654731 
L 505.051398 87.337503 
L 505.24752 89.50521 
L 505.443641 77.544509 
L 505.639762 101.657957 
L 505.835883 108.955464 
L 506.228126 105.302653 
L 506.620368 110.298292 
L 506.81649 97.876352 
L 507.012611 100.08205 
L 507.600975 79.479493 
L 507.797096 92.762687 
L 507.993217 72.779603 
L 508.189338 79.617178 
L 508.581581 83.023784 
L 508.777702 74.955826 
L 508.973823 74.243995 
L 509.366066 67.065801 
L 509.562187 67.300528 
L 509.95443 82.880062 
L 510.346672 55.363914 
L 510.542793 56.716726 
L 510.738915 60.111131 
L 511.131157 74.351375 
L 511.327278 63.060332 
L 511.5234 60.144271 
L 511.719521 52.930391 
L 511.915642 64.17299 
L 512.111763 64.890416 
L 512.307885 67.444203 
L 512.504006 64.877357 
L 512.700127 59.026131 
L 512.896249 66.392096 
L 513.09237 56.469282 
L 513.288491 67.409435 
L 513.484612 64.655837 
L 513.876855 90.539481 
L 514.072976 89.443004 
L 514.66134 68.055971 
L 514.857461 61.983011 
L 515.053582 61.171707 
L 515.249704 64.91179 
L 515.445825 65.287049 
L 515.641946 76.54051 
L 515.838067 72.299831 
L 516.23031 77.917952 
L 516.426431 68.962507 
L 516.622552 73.875711 
L 516.818674 66.064958 
L 517.014795 73.145367 
L 517.210916 61.779911 
L 517.407037 57.079395 
L 517.603159 59.016041 
L 517.995401 70.492435 
L 518.191522 69.449742 
L 518.387644 60.430523 
L 518.583765 63.751123 
L 518.976007 62.302202 
L 519.36825 52.548237 
L 519.760492 60.710289 
L 519.956614 57.380702 
L 520.152735 60.902052 
L 520.348856 72.646078 
L 520.544978 75.17628 
L 520.741099 67.505605 
L 520.93722 80.420247 
L 521.329463 60.553795 
L 521.525584 58.387308 
L 521.721705 59.509963 
L 521.917826 52.908119 
L 522.113948 58.643937 
L 522.310069 69.761294 
L 522.50619 64.981138 
L 522.702311 70.387682 
L 522.898433 61.05281 
L 523.094554 58.602523 
L 523.290675 60.394207 
L 523.486796 50.543556 
L 523.682918 64.755792 
L 523.879039 69.114832 
L 524.07516 67.5086 
L 524.271281 80.378357 
L 524.467403 71.672666 
L 524.663524 68.752303 
L 524.859645 82.026117 
L 525.055766 71.615734 
L 525.251888 85.700168 
L 525.448009 78.820086 
L 525.64413 76.29722 
L 525.840251 61.302163 
L 526.428615 75.289865 
L 526.624736 78.447399 
L 526.820858 77.513117 
L 527.2131 99.163581 
L 527.409221 89.897615 
L 527.605343 90.942259 
L 527.801464 79.914459 
L 527.997585 80.745602 
L 528.389828 67.747286 
L 528.585949 77.349736 
L 528.78207 72.717758 
L 528.978192 65.180996 
L 529.370434 76.95585 
L 529.566555 77.345408 
L 529.762677 84.89409 
L 529.958798 69.109257 
L 530.154919 77.285453 
L 530.35104 65.759396 
L 530.547162 83.000487 
L 530.743283 67.594163 
L 530.939404 77.125623 
L 531.135525 73.94323 
L 531.331647 79.406251 
L 531.527768 79.151819 
L 531.723889 92.242124 
L 531.92001 83.174844 
L 532.116132 84.074981 
L 532.312253 82.534713 
L 532.704495 76.550587 
L 532.900617 96.336635 
L 533.096738 79.52472 
L 533.48898 86.169942 
L 534.077344 71.91883 
L 534.273465 71.235543 
L 534.469587 77.154877 
L 534.665708 65.111091 
L 535.05795 57.972691 
L 535.254072 68.304225 
L 535.450193 58.570408 
L 535.646314 66.840817 
L 535.842435 59.212059 
L 536.038557 68.050229 
L 536.234678 60.651319 
L 536.430799 60.792743 
L 536.62692 59.516462 
L 536.823042 60.292556 
L 537.215284 73.210615 
L 537.411406 62.46236 
L 537.607527 58.697708 
L 538.195891 68.874652 
L 538.392012 66.732218 
L 538.588133 71.577622 
L 538.980376 70.010064 
L 539.176497 59.387541 
L 539.372618 58.946478 
L 539.568739 59.918161 
L 539.764861 63.691042 
L 539.960982 54.651098 
L 540.157103 51.416309 
L 540.353224 55.196854 
L 540.745467 70.667234 
L 540.941588 66.169664 
L 541.137709 67.094707 
L 541.333831 69.167095 
L 541.529952 70.028437 
L 541.726073 65.6487 
L 541.922194 65.941096 
L 542.118316 78.084094 
L 542.314437 62.44447 
L 542.510558 64.720482 
L 542.902801 50.775066 
L 543.098922 58.655643 
L 543.295043 49.042211 
L 543.687286 52.30271 
L 543.883407 51.362873 
L 544.079528 60.493646 
L 544.275649 57.514146 
L 544.471771 47.98002 
L 544.667892 57.88225 
L 544.864013 58.068908 
L 545.060134 55.96551 
L 545.256256 69.376541 
L 545.452377 73.026242 
L 545.648498 72.103089 
L 545.84462 63.383188 
L 546.040741 60.034573 
L 546.236862 60.29011 
L 546.432983 64.589088 
L 546.629105 61.923519 
L 546.825226 67.05421 
L 547.021347 69.158967 
L 547.217468 67.85876 
L 547.41359 61.31939 
L 547.609711 68.889138 
L 547.805832 69.324841 
L 548.001953 57.872641 
L 548.198075 54.263678 
L 548.394196 55.120256 
L 548.590317 68.505161 
L 548.786438 67.137053 
L 548.98256 60.153015 
L 549.178681 68.12355 
L 549.374802 64.063312 
L 549.570923 66.286016 
L 549.767045 52.020605 
L 550.159287 68.973843 
L 550.355408 59.086984 
L 550.55153 62.786348 
L 550.747651 58.238078 
L 551.139893 67.922024 
L 551.336015 59.350415 
L 551.532136 61.325219 
L 551.924378 74.10773 
L 552.1205 65.317596 
L 552.316621 67.427084 
L 552.708863 56.723895 
L 552.904985 55.394494 
L 553.101106 56.063108 
L 553.297227 50.755447 
L 553.493348 59.384131 
L 553.68947 58.020357 
L 553.885591 52.480664 
L 554.081712 63.390424 
L 554.277834 65.11481 
L 554.473955 62.62286 
L 554.670076 67.565553 
L 554.866197 61.435439 
L 555.062319 66.629877 
L 555.25844 52.62046 
L 555.454561 56.632295 
L 555.650682 53.696695 
L 555.846804 58.164133 
L 556.042925 56.526878 
L 556.239046 57.922197 
L 556.435167 65.565106 
L 556.631289 64.448367 
L 556.82741 60.944037 
L 557.023531 67.816883 
L 557.219652 69.098014 
L 557.415774 61.802236 
L 557.611895 61.496781 
L 557.808016 72.6464 
L 558.004137 60.680914 
L 558.200259 59.920828 
L 558.39638 65.148861 
L 558.592501 63.805289 
L 558.788622 61.470355 
L 558.984744 73.358947 
L 559.180865 51.990079 
L 559.376986 56.620716 
L 559.573107 55.853749 
L 559.769229 62.405421 
L 559.96535 58.335045 
L 560.357592 62.073446 
L 560.553714 58.716087 
L 560.749835 47.548772 
L 561.142077 60.381717 
L 561.730441 62.982105 
L 561.926563 56.696665 
L 562.122684 65.428815 
L 562.318805 54.808838 
L 562.514926 55.308301 
L 562.711048 54.06506 
L 562.907169 55.124283 
L 563.10329 59.584189 
L 563.299411 49.377281 
L 563.495533 55.66356 
L 563.691654 57.933454 
L 563.887775 65.109021 
L 564.083896 60.15215 
L 564.280018 58.199296 
L 564.476139 63.683283 
L 564.67226 63.161239 
L 565.064503 55.085314 
L 565.260624 60.159521 
L 565.456745 58.296954 
L 565.652866 54.729861 
L 565.848988 44.837922 
L 566.045109 52.619508 
L 566.437351 52.577216 
L 566.633473 54.450617 
L 566.829594 64.317563 
L 567.025715 51.693589 
L 567.221836 48.695978 
L 567.417958 54.90951 
L 567.614079 55.044482 
L 568.202443 62.13935 
L 568.398564 57.611717 
L 568.594685 70.64196 
L 568.790806 66.925134 
L 568.986928 79.035481 
L 569.183049 71.080115 
L 569.575291 82.653845 
L 569.771413 92.372305 
L 569.967534 73.894908 
L 570.163655 87.362629 
L 570.555898 63.853438 
L 570.752019 61.242389 
L 570.94814 62.911357 
L 571.144262 66.433531 
L 571.340383 55.304127 
L 571.536504 57.341237 
L 571.928747 64.941164 
L 572.124868 62.133293 
L 572.320989 65.885349 
L 572.51711 60.261835 
L 572.713232 58.527472 
L 572.909353 46.250153 
L 573.105474 55.579785 
L 573.301595 42.045998 
L 573.693838 53.204006 
L 574.08608 36.797046 
L 574.282202 53.941392 
L 574.478323 47.756376 
L 574.674444 47.791887 
L 574.870565 53.855574 
L 575.262808 41.478158 
L 575.458929 43.752601 
L 575.65505 43.30459 
L 575.851172 53.282882 
L 576.047293 51.743345 
L 576.243414 60.134421 
L 576.439535 47.602737 
L 576.635657 47.634148 
L 577.027899 57.537651 
L 577.22402 52.097599 
L 577.616263 56.254067 
L 577.812384 63.802529 
L 578.008505 59.664278 
L 578.204627 49.26493 
L 578.596869 53.983771 
L 578.792991 52.319655 
L 578.989112 42.792925 
L 579.381354 58.39181 
L 579.577476 55.195574 
L 579.969718 46.896347 
L 580.361961 38.90039 
L 580.558082 41.883957 
L 580.754203 49.995656 
L 580.950324 49.285406 
L 581.146446 49.997465 
L 581.342567 43.145926 
L 581.538688 43.41879 
L 581.734809 52.877887 
L 581.930931 56.049144 
L 582.127052 49.61986 
L 582.323173 50.082372 
L 582.519294 51.077653 
L 582.715416 54.084993 
L 582.911537 54.821763 
L 583.107658 54.471388 
L 583.499901 56.540721 
L 583.696022 57.219995 
L 583.892143 61.455547 
L 584.088264 55.856067 
L 584.284386 73.05167 
L 584.480507 62.093232 
L 584.676628 68.214306 
L 585.068871 55.340355 
L 585.461113 43.639285 
L 585.657234 51.827126 
L 585.853356 50.89527 
L 586.049477 52.204918 
L 586.441719 58.83938 
L 586.637841 53.757507 
L 586.833962 42.763471 
L 587.030083 49.223455 
L 587.226205 47.483591 
L 587.422326 57.735378 
L 587.618447 50.923787 
L 587.814568 52.910692 
L 588.01069 52.071106 
L 588.206811 60.522612 
L 588.402932 47.926886 
L 588.599053 53.172139 
L 588.795175 40.343174 
L 588.991296 47.383649 
L 589.187417 43.646977 
L 589.383538 46.291092 
L 589.57966 44.351531 
L 589.775781 43.927909 
L 589.971902 37.637497 
L 590.168023 39.016775 
L 590.364145 45.302979 
L 590.756387 38.184231 
L 590.952508 40.620541 
L 591.14863 38.064362 
L 591.344751 43.434295 
L 591.540872 34.161468 
L 591.736993 37.66206 
L 591.933115 46.84391 
L 592.129236 37.358749 
L 592.325357 38.760259 
L 592.521478 41.562247 
L 592.913721 32.131466 
L 593.109842 39.963104 
L 593.305963 37.284188 
L 593.502085 47.162833 
L 593.894327 42.970457 
L 594.090448 41.997206 
L 594.28657 33.730502 
L 594.678812 42.72091 
L 594.874933 39.311965 
L 595.071055 44.303316 
L 595.267176 40.214715 
L 595.463297 41.859836 
L 595.659419 44.643398 
L 595.85554 38.639278 
L 596.051661 37.530224 
L 596.247782 40.940241 
L 596.443904 46.738849 
L 596.640025 39.902895 
L 596.836146 41.26967 
L 597.032267 41.358517 
L 597.228389 38.86859 
L 597.620631 43.492414 
L 597.816752 36.130202 
L 598.012874 36.36655 
L 598.208995 44.87732 
L 598.405116 37.09166 
L 598.601237 35.661915 
L 598.797359 42.360874 
L 598.99348 31.874549 
L 599.189601 33.846391 
L 599.581844 28.748492 
L 599.777965 31.085262 
L 599.974086 26.00205 
L 600.170207 29.74498 
L 600.366329 38.480158 
L 600.56245 27.956257 
L 600.758571 28.912905 
L 600.954692 32.550439 
L 601.150814 33.505009 
L 601.346935 33.441034 
L 601.739177 41.370818 
L 601.935299 30.389043 
L 602.13142 32.239395 
L 602.327541 32.766189 
L 602.523662 29.86052 
L 602.719784 29.940737 
L 602.915905 31.92401 
L 603.112026 37.020637 
L 603.308147 34.978816 
L 603.504269 29.47379 
L 603.70039 33.999655 
L 603.896511 35.550395 
L 604.092633 33.092764 
L 604.288754 38.846385 
L 604.680996 32.244434 
L 604.877118 34.523755 
L 605.073239 28.473001 
L 605.26936 33.083491 
L 605.465481 29.956322 
L 605.661603 35.988101 
L 605.857724 35.975866 
L 606.053845 27.817051 
L 606.249966 34.09559 
L 606.446088 33.718174 
L 606.642209 27.629254 
L 606.83833 30.130839 
L 607.034451 26.220682 
L 607.426694 35.171879 
L 607.622815 23.783072 
L 607.818936 28.331932 
L 608.015058 35.513328 
L 608.211179 32.903801 
L 608.4073 36.638597 
L 608.603421 34.345553 
L 608.799543 24.640581 
L 608.995664 30.841249 
L 609.191785 30.936099 
L 609.584028 27.198208 
L 609.97627 33.429523 
L 610.172391 19.715805 
L 610.564634 31.106087 
L 610.760755 32.314399 
L 610.956876 24.654571 
L 611.152998 30.352781 
L 611.349119 24.078409 
L 611.54524 26.135199 
L 611.741362 32.230511 
L 612.133604 23.756967 
L 612.329725 27.727896 
L 612.525847 25.201627 
L 612.918089 30.011894 
L 613.11421 34.708363 
L 613.310332 32.663406 
L 613.506453 32.256789 
L 613.898695 43.390421 
L 614.487059 25.249159 
L 614.68318 31.378241 
L 614.879302 31.661907 
L 615.075423 29.337224 
L 615.271544 24.144582 
L 615.663787 32.312228 
L 615.859908 35.734815 
L 616.056029 23.706125 
L 616.25215 23.316996 
L 616.448272 29.533276 
L 616.644393 28.572152 
L 616.840514 24.047467 
L 617.036635 23.312493 
L 617.232757 26.477559 
L 617.428878 25.504121 
L 617.624999 22.43834 
L 617.82112 29.374103 
L 618.213363 16.299195 
L 618.409484 23.728772 
L 618.605605 24.87382 
L 618.801727 23.564319 
L 618.997848 30.743732 
L 619.193969 29.323689 
L 619.39009 28.785692 
L 619.586212 32.078574 
L 619.782333 28.166353 
L 619.978454 30.057564 
L 620.174576 27.704338 
L 620.370697 22.698769 
L 620.762939 25.619688 
L 621.155182 29.725736 
L 621.351303 20.343922 
L 621.547424 28.378807 
L 621.743546 26.057408 
L 622.135788 15.88498 
L 622.331909 22.363913 
L 622.528031 21.975883 
L 622.724152 24.903904 
L 622.920273 14.627273 
L 623.116394 26.196078 
L 623.312516 21.331257 
L 623.508637 23.182882 
L 623.704758 20.026165 
L 623.900879 20.718042 
L 624.097001 20.45843 
L 624.293122 22.537733 
L 624.489243 21.390273 
L 624.685364 18.948911 
L 624.881486 24.736208 
L 625.077607 20.734645 
L 625.273728 21.894661 
L 625.469849 17.713221 
L 625.665971 19.93102 
L 625.862092 19.644674 
L 626.058213 19.850616 
L 626.450456 26.079117 
L 626.646577 22.219347 
L 626.842698 22.889354 
L 627.038819 24.974258 
L 627.234941 18.46244 
L 627.431062 21.806686 
L 627.627183 22.619116 
L 627.823304 17.94051 
L 628.019426 21.472688 
L 628.215547 16.435225 
L 628.411668 24.059193 
L 628.60779 21.164472 
L 628.803911 16.055102 
L 629.000032 16.878747 
L 629.196153 25.15916 
L 629.588396 23.496646 
L 629.784517 31.675079 
L 629.784517 31.675079 
" style="fill:none;stroke:#1f77b4;stroke-linecap:square;stroke-width:2;"/>
   </g>
   <g id="patch_13">
    <path d="M 487.282813 170.6 
L 487.282813 7.2 
" style="fill:none;stroke:#000000;stroke-linecap:square;stroke-linejoin:miter;stroke-width:0.8;"/>
   </g>
   <g id="patch_14">
    <path d="M 636.570312 170.6 
L 636.570312 7.2 
" style="fill:none;stroke:#000000;stroke-linecap:square;stroke-linejoin:miter;stroke-width:0.8;"/>
   </g>
   <g id="patch_15">
    <path d="M 487.282813 170.6 
L 636.570312 170.6 
" style="fill:none;stroke:#000000;stroke-linecap:square;stroke-linejoin:miter;stroke-width:0.8;"/>
   </g>
   <g id="patch_16">
    <path d="M 487.282813 7.2 
L 636.570312 7.2 
" style="fill:none;stroke:#000000;stroke-linecap:square;stroke-linejoin:miter;stroke-width:0.8;"/>
   </g>
  </g>
  <g id="axes_4">
   <g id="patch_17">
    <path d="M 700.070313 170.6 
L 849.357813 170.6 
L 849.357813 7.2 
L 700.070313 7.2 
z
" style="fill:#ffffff;"/>
   </g>
   <g id="matplotlib.axis_7">
    <g id="xtick_13">
     <g id="line2d_36">
      <g>
       <use style="stroke:#000000;stroke-width:0.8;" x="706.856108" xlink:href="#me753b450d4" y="170.6"/>
      </g>
     </g>
     <g id="text_39">
      <!-- 0 -->
      <g transform="translate(703.674858 185.198437)scale(0.1 -0.1)">
       <use xlink:href="#DejaVuSans-48"/>
      </g>
     </g>
    </g>
    <g id="xtick_14">
     <g id="line2d_37">
      <g>
       <use style="stroke:#000000;stroke-width:0.8;" x="746.080359" xlink:href="#me753b450d4" y="170.6"/>
      </g>
     </g>
     <g id="text_40">
      <!-- 200 -->
      <g transform="translate(736.536609 185.198437)scale(0.1 -0.1)">
       <use xlink:href="#DejaVuSans-50"/>
       <use x="63.623047" xlink:href="#DejaVuSans-48"/>
       <use x="127.246094" xlink:href="#DejaVuSans-48"/>
      </g>
     </g>
    </g>
    <g id="xtick_15">
     <g id="line2d_38">
      <g>
       <use style="stroke:#000000;stroke-width:0.8;" x="785.30461" xlink:href="#me753b450d4" y="170.6"/>
      </g>
     </g>
     <g id="text_41">
      <!-- 400 -->
      <g transform="translate(775.76086 185.198437)scale(0.1 -0.1)">
       <use xlink:href="#DejaVuSans-52"/>
       <use x="63.623047" xlink:href="#DejaVuSans-48"/>
       <use x="127.246094" xlink:href="#DejaVuSans-48"/>
      </g>
     </g>
    </g>
    <g id="xtick_16">
     <g id="line2d_39">
      <g>
       <use style="stroke:#000000;stroke-width:0.8;" x="824.528862" xlink:href="#me753b450d4" y="170.6"/>
      </g>
     </g>
     <g id="text_42">
      <!-- 600 -->
      <g transform="translate(814.985112 185.198437)scale(0.1 -0.1)">
       <use xlink:href="#DejaVuSans-54"/>
       <use x="63.623047" xlink:href="#DejaVuSans-48"/>
       <use x="127.246094" xlink:href="#DejaVuSans-48"/>
      </g>
     </g>
    </g>
    <g id="text_43">
     <!-- steps -->
     <g transform="translate(761.29375 198.876562)scale(0.1 -0.1)">
      <use xlink:href="#DejaVuSans-115"/>
      <use x="52.099609" xlink:href="#DejaVuSans-116"/>
      <use x="91.308594" xlink:href="#DejaVuSans-101"/>
      <use x="152.832031" xlink:href="#DejaVuSans-112"/>
      <use x="216.308594" xlink:href="#DejaVuSans-115"/>
     </g>
    </g>
   </g>
   <g id="matplotlib.axis_8">
    <g id="ytick_21">
     <g id="line2d_40">
      <g>
       <use style="stroke:#000000;stroke-width:0.8;" x="700.070313" xlink:href="#mcf2e2e5dd3" y="148.318182"/>
      </g>
     </g>
     <g id="text_44">
      <!-- −0.04 -->
      <g transform="translate(662.425 152.117401)scale(0.1 -0.1)">
       <defs>
        <path d="M 10.6875 12.40625 
L 21 12.40625 
L 21 0 
L 10.6875 0 
z
" id="DejaVuSans-46"/>
       </defs>
       <use xlink:href="#DejaVuSans-8722"/>
       <use x="83.789062" xlink:href="#DejaVuSans-48"/>
       <use x="147.412109" xlink:href="#DejaVuSans-46"/>
       <use x="179.199219" xlink:href="#DejaVuSans-48"/>
       <use x="242.822266" xlink:href="#DejaVuSans-52"/>
      </g>
     </g>
    </g>
    <g id="ytick_22">
     <g id="line2d_41">
      <g>
       <use style="stroke:#000000;stroke-width:0.8;" x="700.070313" xlink:href="#mcf2e2e5dd3" y="118.609091"/>
      </g>
     </g>
     <g id="text_45">
      <!-- −0.02 -->
      <g transform="translate(662.425 122.40831)scale(0.1 -0.1)">
       <use xlink:href="#DejaVuSans-8722"/>
       <use x="83.789062" xlink:href="#DejaVuSans-48"/>
       <use x="147.412109" xlink:href="#DejaVuSans-46"/>
       <use x="179.199219" xlink:href="#DejaVuSans-48"/>
       <use x="242.822266" xlink:href="#DejaVuSans-50"/>
      </g>
     </g>
    </g>
    <g id="ytick_23">
     <g id="line2d_42">
      <g>
       <use style="stroke:#000000;stroke-width:0.8;" x="700.070313" xlink:href="#mcf2e2e5dd3" y="88.9"/>
      </g>
     </g>
     <g id="text_46">
      <!-- 0.00 -->
      <g transform="translate(670.804688 92.699219)scale(0.1 -0.1)">
       <use xlink:href="#DejaVuSans-48"/>
       <use x="63.623047" xlink:href="#DejaVuSans-46"/>
       <use x="95.410156" xlink:href="#DejaVuSans-48"/>
       <use x="159.033203" xlink:href="#DejaVuSans-48"/>
      </g>
     </g>
    </g>
    <g id="ytick_24">
     <g id="line2d_43">
      <g>
       <use style="stroke:#000000;stroke-width:0.8;" x="700.070313" xlink:href="#mcf2e2e5dd3" y="59.190909"/>
      </g>
     </g>
     <g id="text_47">
      <!-- 0.02 -->
      <g transform="translate(670.804688 62.990128)scale(0.1 -0.1)">
       <use xlink:href="#DejaVuSans-48"/>
       <use x="63.623047" xlink:href="#DejaVuSans-46"/>
       <use x="95.410156" xlink:href="#DejaVuSans-48"/>
       <use x="159.033203" xlink:href="#DejaVuSans-50"/>
      </g>
     </g>
    </g>
    <g id="ytick_25">
     <g id="line2d_44">
      <g>
       <use style="stroke:#000000;stroke-width:0.8;" x="700.070313" xlink:href="#mcf2e2e5dd3" y="29.481818"/>
      </g>
     </g>
     <g id="text_48">
      <!-- 0.04 -->
      <g transform="translate(670.804688 33.281037)scale(0.1 -0.1)">
       <use xlink:href="#DejaVuSans-48"/>
       <use x="63.623047" xlink:href="#DejaVuSans-46"/>
       <use x="95.410156" xlink:href="#DejaVuSans-48"/>
       <use x="159.033203" xlink:href="#DejaVuSans-52"/>
      </g>
     </g>
    </g>
    <g id="text_49">
     <!-- cv loss -->
     <g transform="translate(656.345313 105.855469)rotate(-90)scale(0.1 -0.1)">
      <defs>
       <path d="M 48.78125 52.59375 
L 48.78125 44.1875 
Q 44.96875 46.296875 41.140625 47.34375 
Q 37.3125 48.390625 33.40625 48.390625 
Q 24.65625 48.390625 19.8125 42.84375 
Q 14.984375 37.3125 14.984375 27.296875 
Q 14.984375 17.28125 19.8125 11.734375 
Q 24.65625 6.203125 33.40625 6.203125 
Q 37.3125 6.203125 41.140625 7.25 
Q 44.96875 8.296875 48.78125 10.40625 
L 48.78125 2.09375 
Q 45.015625 0.34375 40.984375 -0.53125 
Q 36.96875 -1.421875 32.421875 -1.421875 
Q 20.0625 -1.421875 12.78125 6.34375 
Q 5.515625 14.109375 5.515625 27.296875 
Q 5.515625 40.671875 12.859375 48.328125 
Q 20.21875 56 33.015625 56 
Q 37.15625 56 41.109375 55.140625 
Q 45.0625 54.296875 48.78125 52.59375 
z
" id="DejaVuSans-99"/>
       <path d="M 2.984375 54.6875 
L 12.5 54.6875 
L 29.59375 8.796875 
L 46.6875 54.6875 
L 56.203125 54.6875 
L 35.6875 0 
L 23.484375 0 
z
" id="DejaVuSans-118"/>
       <path d="M 9.421875 75.984375 
L 18.40625 75.984375 
L 18.40625 0 
L 9.421875 0 
z
" id="DejaVuSans-108"/>
       <path d="M 30.609375 48.390625 
Q 23.390625 48.390625 19.1875 42.75 
Q 14.984375 37.109375 14.984375 27.296875 
Q 14.984375 17.484375 19.15625 11.84375 
Q 23.34375 6.203125 30.609375 6.203125 
Q 37.796875 6.203125 41.984375 11.859375 
Q 46.1875 17.53125 46.1875 27.296875 
Q 46.1875 37.015625 41.984375 42.703125 
Q 37.796875 48.390625 30.609375 48.390625 
z
M 30.609375 56 
Q 42.328125 56 49.015625 48.375 
Q 55.71875 40.765625 55.71875 27.296875 
Q 55.71875 13.875 49.015625 6.21875 
Q 42.328125 -1.421875 30.609375 -1.421875 
Q 18.84375 -1.421875 12.171875 6.21875 
Q 5.515625 13.875 5.515625 27.296875 
Q 5.515625 40.765625 12.171875 48.375 
Q 18.84375 56 30.609375 56 
z
" id="DejaVuSans-111"/>
      </defs>
      <use xlink:href="#DejaVuSans-99"/>
      <use x="54.980469" xlink:href="#DejaVuSans-118"/>
      <use x="114.160156" xlink:href="#DejaVuSans-32"/>
      <use x="145.947266" xlink:href="#DejaVuSans-108"/>
      <use x="173.730469" xlink:href="#DejaVuSans-111"/>
      <use x="234.912109" xlink:href="#DejaVuSans-115"/>
      <use x="287.011719" xlink:href="#DejaVuSans-115"/>
     </g>
    </g>
   </g>
   <g id="line2d_45">
    <path clip-path="url(#pe02761b51a)" d="M 706.856108 88.9 
L 842.572017 88.9 
L 842.572017 88.9 
" style="fill:none;stroke:#1f77b4;stroke-linecap:square;stroke-width:2;"/>
   </g>
   <g id="patch_18">
    <path d="M 700.070313 170.6 
L 700.070313 7.2 
" style="fill:none;stroke:#000000;stroke-linecap:square;stroke-linejoin:miter;stroke-width:0.8;"/>
   </g>
   <g id="patch_19">
    <path d="M 849.357813 170.6 
L 849.357813 7.2 
" style="fill:none;stroke:#000000;stroke-linecap:square;stroke-linejoin:miter;stroke-width:0.8;"/>
   </g>
   <g id="patch_20">
    <path d="M 700.070313 170.6 
L 849.357813 170.6 
" style="fill:none;stroke:#000000;stroke-linecap:square;stroke-linejoin:miter;stroke-width:0.8;"/>
   </g>
   <g id="patch_21">
    <path d="M 700.070313 7.2 
L 849.357813 7.2 
" style="fill:none;stroke:#000000;stroke-linecap:square;stroke-linejoin:miter;stroke-width:0.8;"/>
   </g>
  </g>
 </g>
 <defs>
  <clipPath id="p3285d207b0">
   <rect height="163.4" width="149.2875" x="61.707813" y="7.2"/>
  </clipPath>
  <clipPath id="pac86af3d01">
   <rect height="163.4" width="149.2875" x="274.495313" y="7.2"/>
  </clipPath>
  <clipPath id="pe90b8eb890">
   <rect height="163.4" width="149.2875" x="487.282813" y="7.2"/>
  </clipPath>
  <clipPath id="pe02761b51a">
   <rect height="163.4" width="149.2875" x="700.070313" y="7.2"/>
  </clipPath>
 </defs>
</svg>
