<?xml version="1.0" encoding="utf-8" standalone="no"?>
<!DOCTYPE svg PUBLIC "-//W3C//DTD SVG 1.1//EN"
  "http://www.w3.org/Graphics/SVG/1.1/DTD/svg11.dtd">
<!-- Created with matplotlib (https://matplotlib.org/) -->
<svg height="221.50625pt" version="1.1" viewBox="0 0 395.873437 221.50625" width="395.873437pt" xmlns="http://www.w3.org/2000/svg" xmlns:xlink="http://www.w3.org/1999/xlink">
 <metadata>
  <rdf:RDF xmlns:cc="http://creativecommons.org/ns#" xmlns:dc="http://purl.org/dc/elements/1.1/" xmlns:rdf="http://www.w3.org/1999/02/22-rdf-syntax-ns#">
   <cc:Work>
    <dc:type rdf:resource="http://purl.org/dc/dcmitype/StillImage"/>
    <dc:date>2022-09-25T13:15:11.621716</dc:date>
    <dc:format>image/svg+xml</dc:format>
    <dc:creator>
     <cc:Agent>
      <dc:title>Matplotlib v3.3.2, https://matplotlib.org/</dc:title>
     </cc:Agent>
    </dc:creator>
   </cc:Work>
  </rdf:RDF>
 </metadata>
 <defs>
  <style type="text/css">*{stroke-linecap:butt;stroke-linejoin:round;}</style>
 </defs>
 <g id="figure_1">
  <g id="patch_1">
   <path d="M 0 221.50625 
L 395.873437 221.50625 
L 395.873437 -0 
L 0 -0 
z
" style="fill:#ffffff;"/>
  </g>
  <g id="axes_1">
   <g id="patch_2">
    <path d="M 46.923438 185.015625 
L 381.723437 185.015625 
L 381.723437 21.935625 
L 46.923438 21.935625 
z
" style="fill:#ffffff;"/>
   </g>
   <g id="matplotlib.axis_1">
    <g id="xtick_1">
     <g id="text_1">
      <!-- -4.0 -->
      <g style="fill:#262626;" transform="translate(38.308594 199.173438)scale(0.1 -0.1)">
       <defs>
        <path d="M 3.171875 21.484375 
L 3.171875 30.328125 
L 30.171875 30.328125 
L 30.171875 21.484375 
z
" id="ArialMT-45"/>
        <path d="M 32.328125 0 
L 32.328125 17.140625 
L 1.265625 17.140625 
L 1.265625 25.203125 
L 33.9375 71.578125 
L 41.109375 71.578125 
L 41.109375 25.203125 
L 50.78125 25.203125 
L 50.78125 17.140625 
L 41.109375 17.140625 
L 41.109375 0 
z
M 32.328125 25.203125 
L 32.328125 57.46875 
L 9.90625 25.203125 
z
" id="ArialMT-52"/>
        <path d="M 9.078125 0 
L 9.078125 10.015625 
L 19.09375 10.015625 
L 19.09375 0 
z
" id="ArialMT-46"/>
        <path d="M 4.15625 35.296875 
Q 4.15625 48 6.765625 55.734375 
Q 9.375 63.484375 14.515625 67.671875 
Q 19.671875 71.875 27.484375 71.875 
Q 33.25 71.875 37.59375 69.546875 
Q 41.9375 67.234375 44.765625 62.859375 
Q 47.609375 58.5 49.21875 52.21875 
Q 50.828125 45.953125 50.828125 35.296875 
Q 50.828125 22.703125 48.234375 14.96875 
Q 45.65625 7.234375 40.5 3 
Q 35.359375 -1.21875 27.484375 -1.21875 
Q 17.140625 -1.21875 11.234375 6.203125 
Q 4.15625 15.140625 4.15625 35.296875 
z
M 13.1875 35.296875 
Q 13.1875 17.671875 17.3125 11.828125 
Q 21.4375 6 27.484375 6 
Q 33.546875 6 37.671875 11.859375 
Q 41.796875 17.71875 41.796875 35.296875 
Q 41.796875 52.984375 37.671875 58.78125 
Q 33.546875 64.59375 27.390625 64.59375 
Q 21.34375 64.59375 17.71875 59.46875 
Q 13.1875 52.9375 13.1875 35.296875 
z
" id="ArialMT-48"/>
       </defs>
       <use xlink:href="#ArialMT-45"/>
       <use x="33.300781" xlink:href="#ArialMT-52"/>
       <use x="88.916016" xlink:href="#ArialMT-46"/>
       <use x="116.699219" xlink:href="#ArialMT-48"/>
      </g>
     </g>
    </g>
    <g id="xtick_2">
     <g id="text_2">
      <!-- -1.9 -->
      <g style="fill:#262626;" transform="translate(124.627495 199.173438)scale(0.1 -0.1)">
       <defs>
        <path d="M 37.25 0 
L 28.46875 0 
L 28.46875 56 
Q 25.296875 52.984375 20.140625 49.953125 
Q 14.984375 46.921875 10.890625 45.40625 
L 10.890625 53.90625 
Q 18.265625 57.375 23.78125 62.296875 
Q 29.296875 67.234375 31.59375 71.875 
L 37.25 71.875 
z
" id="ArialMT-49"/>
        <path d="M 5.46875 16.546875 
L 13.921875 17.328125 
Q 14.984375 11.375 18.015625 8.6875 
Q 21.046875 6 25.78125 6 
Q 29.828125 6 32.875 7.859375 
Q 35.9375 9.71875 37.890625 12.8125 
Q 39.84375 15.921875 41.15625 21.1875 
Q 42.484375 26.46875 42.484375 31.9375 
Q 42.484375 32.515625 42.4375 33.6875 
Q 39.796875 29.5 35.234375 26.875 
Q 30.671875 24.265625 25.34375 24.265625 
Q 16.453125 24.265625 10.296875 30.703125 
Q 4.15625 37.15625 4.15625 47.703125 
Q 4.15625 58.59375 10.578125 65.234375 
Q 17 71.875 26.65625 71.875 
Q 33.640625 71.875 39.421875 68.109375 
Q 45.21875 64.359375 48.21875 57.390625 
Q 51.21875 50.4375 51.21875 37.25 
Q 51.21875 23.53125 48.234375 15.40625 
Q 45.265625 7.28125 39.375 3.03125 
Q 33.5 -1.21875 25.59375 -1.21875 
Q 17.1875 -1.21875 11.859375 3.4375 
Q 6.546875 8.109375 5.46875 16.546875 
z
M 41.453125 48.140625 
Q 41.453125 55.71875 37.421875 60.15625 
Q 33.40625 64.59375 27.734375 64.59375 
Q 21.875 64.59375 17.53125 59.8125 
Q 13.1875 55.03125 13.1875 47.40625 
Q 13.1875 40.578125 17.3125 36.296875 
Q 21.4375 32.03125 27.484375 32.03125 
Q 33.59375 32.03125 37.515625 36.296875 
Q 41.453125 40.578125 41.453125 48.140625 
z
" id="ArialMT-57"/>
       </defs>
       <use xlink:href="#ArialMT-45"/>
       <use x="33.300781" xlink:href="#ArialMT-49"/>
       <use x="88.916016" xlink:href="#ArialMT-46"/>
       <use x="116.699219" xlink:href="#ArialMT-57"/>
      </g>
     </g>
    </g>
    <g id="xtick_3">
     <g id="text_3">
      <!-- -1.1 -->
      <g style="fill:#262626;" transform="translate(160.244517 199.173438)scale(0.1 -0.1)">
       <use xlink:href="#ArialMT-45"/>
       <use x="33.300781" xlink:href="#ArialMT-49"/>
       <use x="88.916016" xlink:href="#ArialMT-46"/>
       <use x="116.699219" xlink:href="#ArialMT-49"/>
      </g>
     </g>
    </g>
    <g id="xtick_4">
     <g id="text_4">
      <!-- -0.5 -->
      <g style="fill:#262626;" transform="translate(184.547897 199.173438)scale(0.1 -0.1)">
       <defs>
        <path d="M 4.15625 18.75 
L 13.375 19.53125 
Q 14.40625 12.796875 18.140625 9.390625 
Q 21.875 6 27.15625 6 
Q 33.5 6 37.890625 10.78125 
Q 42.28125 15.578125 42.28125 23.484375 
Q 42.28125 31 38.0625 35.34375 
Q 33.84375 39.703125 27 39.703125 
Q 22.75 39.703125 19.328125 37.765625 
Q 15.921875 35.84375 13.96875 32.765625 
L 5.71875 33.84375 
L 12.640625 70.609375 
L 48.25 70.609375 
L 48.25 62.203125 
L 19.671875 62.203125 
L 15.828125 42.96875 
Q 22.265625 47.46875 29.34375 47.46875 
Q 38.71875 47.46875 45.15625 40.96875 
Q 51.609375 34.46875 51.609375 24.265625 
Q 51.609375 14.546875 45.953125 7.46875 
Q 39.0625 -1.21875 27.15625 -1.21875 
Q 17.390625 -1.21875 11.203125 4.25 
Q 5.03125 9.71875 4.15625 18.75 
z
" id="ArialMT-53"/>
       </defs>
       <use xlink:href="#ArialMT-45"/>
       <use x="33.300781" xlink:href="#ArialMT-48"/>
       <use x="88.916016" xlink:href="#ArialMT-46"/>
       <use x="116.699219" xlink:href="#ArialMT-53"/>
      </g>
     </g>
    </g>
    <g id="xtick_5">
     <g id="text_5">
      <!-- 0.0 -->
      <g style="fill:#262626;" transform="translate(208.001988 199.173438)scale(0.1 -0.1)">
       <use xlink:href="#ArialMT-48"/>
       <use x="55.615234" xlink:href="#ArialMT-46"/>
       <use x="83.398438" xlink:href="#ArialMT-48"/>
      </g>
     </g>
    </g>
    <g id="xtick_6">
     <g id="text_6">
      <!-- 0.5 -->
      <g style="fill:#262626;" transform="translate(229.372192 199.173438)scale(0.1 -0.1)">
       <use xlink:href="#ArialMT-48"/>
       <use x="55.615234" xlink:href="#ArialMT-46"/>
       <use x="83.398438" xlink:href="#ArialMT-53"/>
      </g>
     </g>
    </g>
    <g id="xtick_7">
     <g id="text_7">
      <!-- 1.1 -->
      <g style="fill:#262626;" transform="translate(253.675572 199.173438)scale(0.1 -0.1)">
       <use xlink:href="#ArialMT-49"/>
       <use x="55.615234" xlink:href="#ArialMT-46"/>
       <use x="83.398438" xlink:href="#ArialMT-49"/>
      </g>
     </g>
    </g>
    <g id="xtick_8">
     <g id="text_8">
      <!-- 1.9 -->
      <g style="fill:#262626;" transform="translate(289.292584 199.173438)scale(0.1 -0.1)">
       <use xlink:href="#ArialMT-49"/>
       <use x="55.615234" xlink:href="#ArialMT-46"/>
       <use x="83.398438" xlink:href="#ArialMT-57"/>
      </g>
     </g>
    </g>
    <g id="xtick_9">
     <g id="text_9">
      <!-- 4.0 -->
      <g style="fill:#262626;" transform="translate(374.773437 199.173438)scale(0.1 -0.1)">
       <use xlink:href="#ArialMT-52"/>
       <use x="55.615234" xlink:href="#ArialMT-46"/>
       <use x="83.398438" xlink:href="#ArialMT-48"/>
      </g>
     </g>
    </g>
    <g id="text_10">
     <!-- z -->
     <g style="fill:#262626;" transform="translate(211.823437 212.31875)scale(0.1 -0.1)">
      <defs>
       <path d="M 1.953125 0 
L 1.953125 7.125 
L 34.96875 45.015625 
Q 29.34375 44.734375 25.046875 44.734375 
L 3.90625 44.734375 
L 3.90625 51.859375 
L 46.296875 51.859375 
L 46.296875 46.046875 
L 18.21875 13.140625 
L 12.796875 7.125 
Q 18.703125 7.5625 23.875 7.5625 
L 47.859375 7.5625 
L 47.859375 0 
z
" id="ArialMT-122"/>
      </defs>
      <use xlink:href="#ArialMT-122"/>
     </g>
    </g>
   </g>
   <g id="matplotlib.axis_2">
    <g id="ytick_1">
     <g id="text_11">
      <!-- 0.00 -->
      <g style="fill:#262626;" transform="translate(20.4625 188.594531)scale(0.1 -0.1)">
       <use xlink:href="#ArialMT-48"/>
       <use x="55.615234" xlink:href="#ArialMT-46"/>
       <use x="83.398438" xlink:href="#ArialMT-48"/>
       <use x="139.013672" xlink:href="#ArialMT-48"/>
      </g>
     </g>
    </g>
    <g id="ytick_2">
     <g id="text_12">
      <!-- 0.05 -->
      <g style="fill:#262626;" transform="translate(20.4625 158.943918)scale(0.1 -0.1)">
       <use xlink:href="#ArialMT-48"/>
       <use x="55.615234" xlink:href="#ArialMT-46"/>
       <use x="83.398438" xlink:href="#ArialMT-48"/>
       <use x="139.013672" xlink:href="#ArialMT-53"/>
      </g>
     </g>
    </g>
    <g id="ytick_3">
     <g id="text_13">
      <!-- 0.10 -->
      <g style="fill:#262626;" transform="translate(20.4625 129.293306)scale(0.1 -0.1)">
       <use xlink:href="#ArialMT-48"/>
       <use x="55.615234" xlink:href="#ArialMT-46"/>
       <use x="83.398438" xlink:href="#ArialMT-49"/>
       <use x="139.013672" xlink:href="#ArialMT-48"/>
      </g>
     </g>
    </g>
    <g id="ytick_4">
     <g id="text_14">
      <!-- 0.15 -->
      <g style="fill:#262626;" transform="translate(20.4625 99.642693)scale(0.1 -0.1)">
       <use xlink:href="#ArialMT-48"/>
       <use x="55.615234" xlink:href="#ArialMT-46"/>
       <use x="83.398438" xlink:href="#ArialMT-49"/>
       <use x="139.013672" xlink:href="#ArialMT-53"/>
      </g>
     </g>
    </g>
    <g id="ytick_5">
     <g id="text_15">
      <!-- 0.20 -->
      <g style="fill:#262626;" transform="translate(20.4625 69.99208)scale(0.1 -0.1)">
       <defs>
        <path d="M 50.34375 8.453125 
L 50.34375 0 
L 3.03125 0 
Q 2.9375 3.171875 4.046875 6.109375 
Q 5.859375 10.9375 9.828125 15.625 
Q 13.8125 20.3125 21.34375 26.46875 
Q 33.015625 36.03125 37.109375 41.625 
Q 41.21875 47.21875 41.21875 52.203125 
Q 41.21875 57.421875 37.46875 61 
Q 33.734375 64.59375 27.734375 64.59375 
Q 21.390625 64.59375 17.578125 60.78125 
Q 13.765625 56.984375 13.71875 50.25 
L 4.6875 51.171875 
Q 5.609375 61.28125 11.65625 66.578125 
Q 17.71875 71.875 27.9375 71.875 
Q 38.234375 71.875 44.234375 66.15625 
Q 50.25 60.453125 50.25 52 
Q 50.25 47.703125 48.484375 43.546875 
Q 46.734375 39.40625 42.65625 34.8125 
Q 38.578125 30.21875 29.109375 22.21875 
Q 21.1875 15.578125 18.9375 13.203125 
Q 16.703125 10.84375 15.234375 8.453125 
z
" id="ArialMT-50"/>
       </defs>
       <use xlink:href="#ArialMT-48"/>
       <use x="55.615234" xlink:href="#ArialMT-46"/>
       <use x="83.398438" xlink:href="#ArialMT-50"/>
       <use x="139.013672" xlink:href="#ArialMT-48"/>
      </g>
     </g>
    </g>
    <g id="ytick_6">
     <g id="text_16">
      <!-- 0.25 -->
      <g style="fill:#262626;" transform="translate(20.4625 40.341467)scale(0.1 -0.1)">
       <use xlink:href="#ArialMT-48"/>
       <use x="55.615234" xlink:href="#ArialMT-46"/>
       <use x="83.398438" xlink:href="#ArialMT-50"/>
       <use x="139.013672" xlink:href="#ArialMT-53"/>
      </g>
     </g>
    </g>
    <g id="text_17">
     <!-- Probability -->
     <g style="fill:#262626;" transform="translate(14.357813 126.819375)rotate(-90)scale(0.1 -0.1)">
      <defs>
       <path d="M 7.71875 0 
L 7.71875 71.578125 
L 34.71875 71.578125 
Q 41.84375 71.578125 45.609375 70.90625 
Q 50.875 70.015625 54.4375 67.546875 
Q 58.015625 65.09375 60.1875 60.640625 
Q 62.359375 56.203125 62.359375 50.875 
Q 62.359375 41.75 56.546875 35.421875 
Q 50.734375 29.109375 35.546875 29.109375 
L 17.1875 29.109375 
L 17.1875 0 
z
M 17.1875 37.546875 
L 35.6875 37.546875 
Q 44.875 37.546875 48.734375 40.96875 
Q 52.59375 44.390625 52.59375 50.59375 
Q 52.59375 55.078125 50.3125 58.265625 
Q 48.046875 61.46875 44.34375 62.5 
Q 41.9375 63.140625 35.5 63.140625 
L 17.1875 63.140625 
z
" id="ArialMT-80"/>
       <path d="M 6.5 0 
L 6.5 51.859375 
L 14.40625 51.859375 
L 14.40625 44 
Q 17.4375 49.515625 20 51.265625 
Q 22.5625 53.03125 25.640625 53.03125 
Q 30.078125 53.03125 34.671875 50.203125 
L 31.640625 42.046875 
Q 28.421875 43.953125 25.203125 43.953125 
Q 22.3125 43.953125 20.015625 42.21875 
Q 17.71875 40.484375 16.75 37.40625 
Q 15.28125 32.71875 15.28125 27.15625 
L 15.28125 0 
z
" id="ArialMT-114"/>
       <path d="M 3.328125 25.921875 
Q 3.328125 40.328125 11.328125 47.265625 
Q 18.015625 53.03125 27.640625 53.03125 
Q 38.328125 53.03125 45.109375 46.015625 
Q 51.90625 39.015625 51.90625 26.65625 
Q 51.90625 16.65625 48.90625 10.90625 
Q 45.90625 5.171875 40.15625 2 
Q 34.421875 -1.171875 27.640625 -1.171875 
Q 16.75 -1.171875 10.03125 5.8125 
Q 3.328125 12.796875 3.328125 25.921875 
z
M 12.359375 25.921875 
Q 12.359375 15.96875 16.703125 11.015625 
Q 21.046875 6.0625 27.640625 6.0625 
Q 34.1875 6.0625 38.53125 11.03125 
Q 42.875 16.015625 42.875 26.21875 
Q 42.875 35.84375 38.5 40.796875 
Q 34.125 45.75 27.640625 45.75 
Q 21.046875 45.75 16.703125 40.8125 
Q 12.359375 35.890625 12.359375 25.921875 
z
" id="ArialMT-111"/>
       <path d="M 14.703125 0 
L 6.546875 0 
L 6.546875 71.578125 
L 15.328125 71.578125 
L 15.328125 46.046875 
Q 20.90625 53.03125 29.546875 53.03125 
Q 34.328125 53.03125 38.59375 51.09375 
Q 42.875 49.171875 45.625 45.671875 
Q 48.390625 42.1875 49.953125 37.25 
Q 51.515625 32.328125 51.515625 26.703125 
Q 51.515625 13.375 44.921875 6.09375 
Q 38.328125 -1.171875 29.109375 -1.171875 
Q 19.921875 -1.171875 14.703125 6.5 
z
M 14.59375 26.3125 
Q 14.59375 17 17.140625 12.84375 
Q 21.296875 6.0625 28.375 6.0625 
Q 34.125 6.0625 38.328125 11.0625 
Q 42.53125 16.0625 42.53125 25.984375 
Q 42.53125 36.140625 38.5 40.96875 
Q 34.46875 45.796875 28.765625 45.796875 
Q 23 45.796875 18.796875 40.796875 
Q 14.59375 35.796875 14.59375 26.3125 
z
" id="ArialMT-98"/>
       <path d="M 40.4375 6.390625 
Q 35.546875 2.25 31.03125 0.53125 
Q 26.515625 -1.171875 21.34375 -1.171875 
Q 12.796875 -1.171875 8.203125 3 
Q 3.609375 7.171875 3.609375 13.671875 
Q 3.609375 17.484375 5.34375 20.625 
Q 7.078125 23.78125 9.890625 25.6875 
Q 12.703125 27.59375 16.21875 28.5625 
Q 18.796875 29.25 24.03125 29.890625 
Q 34.671875 31.15625 39.703125 32.90625 
Q 39.75 34.71875 39.75 35.203125 
Q 39.75 40.578125 37.25 42.78125 
Q 33.890625 45.75 27.25 45.75 
Q 21.046875 45.75 18.09375 43.578125 
Q 15.140625 41.40625 13.71875 35.890625 
L 5.125 37.0625 
Q 6.296875 42.578125 8.984375 45.96875 
Q 11.671875 49.359375 16.75 51.1875 
Q 21.828125 53.03125 28.515625 53.03125 
Q 35.15625 53.03125 39.296875 51.46875 
Q 43.453125 49.90625 45.40625 47.53125 
Q 47.359375 45.171875 48.140625 41.546875 
Q 48.578125 39.3125 48.578125 33.453125 
L 48.578125 21.734375 
Q 48.578125 9.46875 49.140625 6.21875 
Q 49.703125 2.984375 51.375 0 
L 42.1875 0 
Q 40.828125 2.734375 40.4375 6.390625 
z
M 39.703125 26.03125 
Q 34.90625 24.078125 25.34375 22.703125 
Q 19.921875 21.921875 17.671875 20.9375 
Q 15.4375 19.96875 14.203125 18.09375 
Q 12.984375 16.21875 12.984375 13.921875 
Q 12.984375 10.40625 15.640625 8.0625 
Q 18.3125 5.71875 23.4375 5.71875 
Q 28.515625 5.71875 32.46875 7.9375 
Q 36.421875 10.15625 38.28125 14.015625 
Q 39.703125 17 39.703125 22.796875 
z
" id="ArialMT-97"/>
       <path d="M 6.640625 61.46875 
L 6.640625 71.578125 
L 15.4375 71.578125 
L 15.4375 61.46875 
z
M 6.640625 0 
L 6.640625 51.859375 
L 15.4375 51.859375 
L 15.4375 0 
z
" id="ArialMT-105"/>
       <path d="M 6.390625 0 
L 6.390625 71.578125 
L 15.1875 71.578125 
L 15.1875 0 
z
" id="ArialMT-108"/>
       <path d="M 25.78125 7.859375 
L 27.046875 0.09375 
Q 23.34375 -0.6875 20.40625 -0.6875 
Q 15.625 -0.6875 12.984375 0.828125 
Q 10.359375 2.34375 9.28125 4.8125 
Q 8.203125 7.28125 8.203125 15.1875 
L 8.203125 45.015625 
L 1.765625 45.015625 
L 1.765625 51.859375 
L 8.203125 51.859375 
L 8.203125 64.703125 
L 16.9375 69.96875 
L 16.9375 51.859375 
L 25.78125 51.859375 
L 25.78125 45.015625 
L 16.9375 45.015625 
L 16.9375 14.703125 
Q 16.9375 10.9375 17.40625 9.859375 
Q 17.875 8.796875 18.921875 8.15625 
Q 19.96875 7.515625 21.921875 7.515625 
Q 23.390625 7.515625 25.78125 7.859375 
z
" id="ArialMT-116"/>
       <path d="M 6.203125 -19.96875 
L 5.21875 -11.71875 
Q 8.109375 -12.5 10.25 -12.5 
Q 13.1875 -12.5 14.9375 -11.515625 
Q 16.703125 -10.546875 17.828125 -8.796875 
Q 18.65625 -7.46875 20.515625 -2.25 
Q 20.75 -1.515625 21.296875 -0.09375 
L 1.609375 51.859375 
L 11.078125 51.859375 
L 21.875 21.828125 
Q 23.96875 16.109375 25.640625 9.8125 
Q 27.15625 15.875 29.25 21.625 
L 40.328125 51.859375 
L 49.125 51.859375 
L 29.390625 -0.875 
Q 26.21875 -9.421875 24.46875 -12.640625 
Q 22.125 -17 19.09375 -19.015625 
Q 16.0625 -21.046875 11.859375 -21.046875 
Q 9.328125 -21.046875 6.203125 -19.96875 
z
" id="ArialMT-121"/>
      </defs>
      <use xlink:href="#ArialMT-80"/>
      <use x="66.699219" xlink:href="#ArialMT-114"/>
      <use x="100" xlink:href="#ArialMT-111"/>
      <use x="155.615234" xlink:href="#ArialMT-98"/>
      <use x="211.230469" xlink:href="#ArialMT-97"/>
      <use x="266.845703" xlink:href="#ArialMT-98"/>
      <use x="322.460938" xlink:href="#ArialMT-105"/>
      <use x="344.677734" xlink:href="#ArialMT-108"/>
      <use x="366.894531" xlink:href="#ArialMT-105"/>
      <use x="389.111328" xlink:href="#ArialMT-116"/>
      <use x="416.894531" xlink:href="#ArialMT-121"/>
     </g>
    </g>
   </g>
   <g id="PolyCollection_1">
    <defs>
     <path d="M 46.923438 -36.490625 
L 46.923438 -46.964933 
L 47.342461 -47.06637 
L 47.761485 -47.168765 
L 48.180509 -47.272109 
L 48.599533 -47.376408 
L 49.018556 -47.481682 
L 49.43758 -47.587925 
L 49.856604 -47.695158 
L 50.275628 -47.803385 
L 50.694652 -47.912612 
L 51.113675 -48.022851 
L 51.532699 -48.13411 
L 51.951723 -48.246391 
L 52.370747 -48.359715 
L 52.789771 -48.474075 
L 53.208794 -48.589496 
L 53.627818 -48.70597 
L 54.046842 -48.823525 
L 54.465866 -48.942152 
L 54.88489 -49.061871 
L 55.303913 -49.182681 
L 55.722937 -49.304604 
L 56.141961 -49.427641 
L 56.560985 -49.551799 
L 56.980009 -49.677098 
L 57.399032 -49.803528 
L 57.818056 -49.931119 
L 58.23708 -50.059869 
L 58.656104 -50.189786 
L 59.075127 -50.320887 
L 59.494151 -50.453179 
L 59.913175 -50.586667 
L 60.332199 -50.721365 
L 60.751223 -50.857279 
L 61.170246 -50.994423 
L 61.58927 -51.132807 
L 62.008294 -51.272434 
L 62.427318 -51.413321 
L 62.846342 -51.555472 
L 63.265365 -51.698903 
L 63.684389 -51.843622 
L 64.103413 -51.989634 
L 64.522437 -52.136953 
L 64.941461 -52.285591 
L 65.360484 -52.435557 
L 65.779508 -52.586854 
L 66.198532 -52.739502 
L 66.617556 -52.89351 
L 67.03658 -53.048885 
L 67.455603 -53.205636 
L 67.874627 -53.363781 
L 68.293651 -53.523317 
L 68.712675 -53.684272 
L 69.131698 -53.846639 
L 69.550722 -54.010441 
L 69.969746 -54.175686 
L 70.38877 -54.342381 
L 70.807794 -54.510542 
L 71.226817 -54.680174 
L 71.645841 -54.85129 
L 72.064865 -55.023893 
L 72.483889 -55.198011 
L 72.902913 -55.373646 
L 73.321936 -55.550804 
L 73.74096 -55.729506 
L 74.159984 -55.909752 
L 74.579008 -56.091567 
L 74.998032 -56.274941 
L 75.417055 -56.459909 
L 75.836079 -56.64646 
L 76.255103 -56.834628 
L 76.674127 -57.024398 
L 77.093151 -57.215804 
L 77.512174 -57.408841 
L 77.931198 -57.603531 
L 78.350222 -57.799884 
L 78.769246 -57.997907 
L 79.18827 -58.197605 
L 79.607293 -58.39901 
L 80.026317 -58.602119 
L 80.445341 -58.806935 
L 80.864365 -59.013481 
L 81.283388 -59.221763 
L 81.702412 -59.431806 
L 82.121436 -59.643604 
L 82.54046 -59.857179 
L 82.959484 -60.072533 
L 83.378507 -60.289678 
L 83.797531 -60.50864 
L 84.216555 -60.729419 
L 84.635579 -60.952021 
L 85.054603 -61.176475 
L 85.473626 -61.402775 
L 85.89265 -61.630933 
L 86.311674 -61.860967 
L 86.730698 -62.092896 
L 87.149722 -62.326709 
L 87.568745 -62.562438 
L 87.987769 -62.800091 
L 88.406793 -63.039668 
L 88.825817 -63.281183 
L 89.244841 -63.524652 
L 89.663864 -63.770099 
L 90.082888 -64.017497 
L 90.501912 -64.2669 
L 90.920936 -64.518298 
L 91.339959 -64.771702 
L 91.758983 -65.027126 
L 92.178007 -65.284564 
L 92.597031 -65.544063 
L 93.016055 -65.805608 
L 93.435078 -66.069211 
L 93.854102 -66.334887 
L 94.273126 -66.602646 
L 94.69215 -66.872502 
L 95.111174 -67.144456 
L 95.530197 -67.418534 
L 95.949221 -67.694738 
L 96.368245 -67.973062 
L 96.787269 -68.253548 
L 97.206293 -68.536183 
L 97.625316 -68.820979 
L 98.04434 -69.107947 
L 98.463364 -69.397119 
L 98.882388 -69.688474 
L 99.301412 -69.982025 
L 99.720435 -70.277801 
L 100.139459 -70.575799 
L 100.558483 -70.876032 
L 100.977507 -71.178512 
L 101.39653 -71.483239 
L 101.815554 -71.790217 
L 102.234578 -72.099486 
L 102.653602 -72.411013 
L 103.072626 -72.72482 
L 103.491649 -73.04093 
L 103.910673 -73.359365 
L 104.329697 -73.680086 
L 104.748721 -74.003138 
L 105.167745 -74.328509 
L 105.586768 -74.656231 
L 106.005792 -74.986273 
L 106.424816 -75.318687 
L 106.84384 -75.653452 
L 107.262864 -75.990571 
L 107.681887 -76.330063 
L 108.100911 -76.671941 
L 108.519935 -77.016205 
L 108.938959 -77.362855 
L 109.357983 -77.711904 
L 109.777006 -78.063352 
L 110.19603 -78.417204 
L 110.615054 -78.773481 
L 111.034078 -79.132175 
L 111.453102 -79.493295 
L 111.872125 -79.856854 
L 112.291149 -80.22282 
L 112.710173 -80.591244 
L 113.129197 -80.96211 
L 113.54822 -81.335415 
L 113.967244 -81.711164 
L 114.386268 -82.089387 
L 114.805292 -82.470044 
L 115.224316 -82.853176 
L 115.643339 -83.238769 
L 116.062363 -83.626796 
L 116.481387 -84.017328 
L 116.900411 -84.410317 
L 117.319435 -84.805767 
L 117.738458 -85.203691 
L 118.157482 -85.604071 
L 118.576506 -86.006944 
L 118.99553 -86.412264 
L 119.414554 -86.820059 
L 119.833577 -87.230341 
L 120.252601 -87.643093 
L 120.671625 -88.05831 
L 121.090649 -88.475984 
L 121.509673 -88.896114 
L 121.928696 -89.318714 
L 122.34772 -89.743775 
L 122.766744 -90.171311 
L 123.185768 -90.601272 
L 123.604791 -91.033689 
L 124.023815 -91.468541 
L 124.442839 -91.905854 
L 124.861863 -92.345584 
L 125.280887 -92.787749 
L 125.69991 -93.232339 
L 126.118934 -93.67935 
L 126.537958 -94.128778 
L 126.956982 -94.580601 
L 127.376006 -95.0348 
L 127.795029 -95.491395 
L 128.214053 -95.950384 
L 128.633077 -96.411719 
L 129.052101 -96.875418 
L 129.471125 -97.341495 
L 129.890148 -97.809877 
L 130.309172 -98.280601 
L 130.728196 -98.753632 
L 131.14722 -99.228999 
L 131.566244 -99.706607 
L 131.985267 -100.186513 
L 132.404291 -100.668689 
L 132.823315 -101.153123 
L 132.823315 -36.490625 
L 132.823315 -36.490625 
L 132.404291 -36.490625 
L 131.985267 -36.490625 
L 131.566244 -36.490625 
L 131.14722 -36.490625 
L 130.728196 -36.490625 
L 130.309172 -36.490625 
L 129.890148 -36.490625 
L 129.471125 -36.490625 
L 129.052101 -36.490625 
L 128.633077 -36.490625 
L 128.214053 -36.490625 
L 127.795029 -36.490625 
L 127.376006 -36.490625 
L 126.956982 -36.490625 
L 126.537958 -36.490625 
L 126.118934 -36.490625 
L 125.69991 -36.490625 
L 125.280887 -36.490625 
L 124.861863 -36.490625 
L 124.442839 -36.490625 
L 124.023815 -36.490625 
L 123.604791 -36.490625 
L 123.185768 -36.490625 
L 122.766744 -36.490625 
L 122.34772 -36.490625 
L 121.928696 -36.490625 
L 121.509673 -36.490625 
L 121.090649 -36.490625 
L 120.671625 -36.490625 
L 120.252601 -36.490625 
L 119.833577 -36.490625 
L 119.414554 -36.490625 
L 118.99553 -36.490625 
L 118.576506 -36.490625 
L 118.157482 -36.490625 
L 117.738458 -36.490625 
L 117.319435 -36.490625 
L 116.900411 -36.490625 
L 116.481387 -36.490625 
L 116.062363 -36.490625 
L 115.643339 -36.490625 
L 115.224316 -36.490625 
L 114.805292 -36.490625 
L 114.386268 -36.490625 
L 113.967244 -36.490625 
L 113.54822 -36.490625 
L 113.129197 -36.490625 
L 112.710173 -36.490625 
L 112.291149 -36.490625 
L 111.872125 -36.490625 
L 111.453102 -36.490625 
L 111.034078 -36.490625 
L 110.615054 -36.490625 
L 110.19603 -36.490625 
L 109.777006 -36.490625 
L 109.357983 -36.490625 
L 108.938959 -36.490625 
L 108.519935 -36.490625 
L 108.100911 -36.490625 
L 107.681887 -36.490625 
L 107.262864 -36.490625 
L 106.84384 -36.490625 
L 106.424816 -36.490625 
L 106.005792 -36.490625 
L 105.586768 -36.490625 
L 105.167745 -36.490625 
L 104.748721 -36.490625 
L 104.329697 -36.490625 
L 103.910673 -36.490625 
L 103.491649 -36.490625 
L 103.072626 -36.490625 
L 102.653602 -36.490625 
L 102.234578 -36.490625 
L 101.815554 -36.490625 
L 101.39653 -36.490625 
L 100.977507 -36.490625 
L 100.558483 -36.490625 
L 100.139459 -36.490625 
L 99.720435 -36.490625 
L 99.301412 -36.490625 
L 98.882388 -36.490625 
L 98.463364 -36.490625 
L 98.04434 -36.490625 
L 97.625316 -36.490625 
L 97.206293 -36.490625 
L 96.787269 -36.490625 
L 96.368245 -36.490625 
L 95.949221 -36.490625 
L 95.530197 -36.490625 
L 95.111174 -36.490625 
L 94.69215 -36.490625 
L 94.273126 -36.490625 
L 93.854102 -36.490625 
L 93.435078 -36.490625 
L 93.016055 -36.490625 
L 92.597031 -36.490625 
L 92.178007 -36.490625 
L 91.758983 -36.490625 
L 91.339959 -36.490625 
L 90.920936 -36.490625 
L 90.501912 -36.490625 
L 90.082888 -36.490625 
L 89.663864 -36.490625 
L 89.244841 -36.490625 
L 88.825817 -36.490625 
L 88.406793 -36.490625 
L 87.987769 -36.490625 
L 87.568745 -36.490625 
L 87.149722 -36.490625 
L 86.730698 -36.490625 
L 86.311674 -36.490625 
L 85.89265 -36.490625 
L 85.473626 -36.490625 
L 85.054603 -36.490625 
L 84.635579 -36.490625 
L 84.216555 -36.490625 
L 83.797531 -36.490625 
L 83.378507 -36.490625 
L 82.959484 -36.490625 
L 82.54046 -36.490625 
L 82.121436 -36.490625 
L 81.702412 -36.490625 
L 81.283388 -36.490625 
L 80.864365 -36.490625 
L 80.445341 -36.490625 
L 80.026317 -36.490625 
L 79.607293 -36.490625 
L 79.18827 -36.490625 
L 78.769246 -36.490625 
L 78.350222 -36.490625 
L 77.931198 -36.490625 
L 77.512174 -36.490625 
L 77.093151 -36.490625 
L 76.674127 -36.490625 
L 76.255103 -36.490625 
L 75.836079 -36.490625 
L 75.417055 -36.490625 
L 74.998032 -36.490625 
L 74.579008 -36.490625 
L 74.159984 -36.490625 
L 73.74096 -36.490625 
L 73.321936 -36.490625 
L 72.902913 -36.490625 
L 72.483889 -36.490625 
L 72.064865 -36.490625 
L 71.645841 -36.490625 
L 71.226817 -36.490625 
L 70.807794 -36.490625 
L 70.38877 -36.490625 
L 69.969746 -36.490625 
L 69.550722 -36.490625 
L 69.131698 -36.490625 
L 68.712675 -36.490625 
L 68.293651 -36.490625 
L 67.874627 -36.490625 
L 67.455603 -36.490625 
L 67.03658 -36.490625 
L 66.617556 -36.490625 
L 66.198532 -36.490625 
L 65.779508 -36.490625 
L 65.360484 -36.490625 
L 64.941461 -36.490625 
L 64.522437 -36.490625 
L 64.103413 -36.490625 
L 63.684389 -36.490625 
L 63.265365 -36.490625 
L 62.846342 -36.490625 
L 62.427318 -36.490625 
L 62.008294 -36.490625 
L 61.58927 -36.490625 
L 61.170246 -36.490625 
L 60.751223 -36.490625 
L 60.332199 -36.490625 
L 59.913175 -36.490625 
L 59.494151 -36.490625 
L 59.075127 -36.490625 
L 58.656104 -36.490625 
L 58.23708 -36.490625 
L 57.818056 -36.490625 
L 57.399032 -36.490625 
L 56.980009 -36.490625 
L 56.560985 -36.490625 
L 56.141961 -36.490625 
L 55.722937 -36.490625 
L 55.303913 -36.490625 
L 54.88489 -36.490625 
L 54.465866 -36.490625 
L 54.046842 -36.490625 
L 53.627818 -36.490625 
L 53.208794 -36.490625 
L 52.789771 -36.490625 
L 52.370747 -36.490625 
L 51.951723 -36.490625 
L 51.532699 -36.490625 
L 51.113675 -36.490625 
L 50.694652 -36.490625 
L 50.275628 -36.490625 
L 49.856604 -36.490625 
L 49.43758 -36.490625 
L 49.018556 -36.490625 
L 48.599533 -36.490625 
L 48.180509 -36.490625 
L 47.761485 -36.490625 
L 47.342461 -36.490625 
L 46.923438 -36.490625 
z
" id="m2ab91f1e2a" style="stroke:#1f77b4;stroke-opacity:0.5;"/>
    </defs>
    <g clip-path="url(#p9b24a802f5)">
     <use style="fill:#1f77b4;fill-opacity:0.5;stroke:#1f77b4;stroke-opacity:0.5;" x="0" xlink:href="#m2ab91f1e2a" y="221.50625"/>
    </g>
   </g>
   <g id="PolyCollection_2">
    <defs>
     <path d="M 133.242339 -36.490625 
L 133.242339 -101.639784 
L 133.661362 -102.128672 
L 134.080386 -102.619746 
L 134.49941 -103.11303 
L 134.918434 -103.608488 
L 135.337458 -104.106093 
L 135.756481 -104.605814 
L 136.175505 -105.107665 
L 136.594529 -105.611633 
L 137.013553 -106.117641 
L 137.432577 -106.625731 
L 137.8516 -107.135857 
L 138.270624 -107.648007 
L 138.689648 -108.162137 
L 139.108672 -108.678223 
L 139.527696 -109.196285 
L 139.946719 -109.716238 
L 140.365743 -110.238121 
L 140.784767 -110.761847 
L 141.203791 -111.287437 
L 141.622815 -111.814839 
L 142.041838 -112.344026 
L 142.460862 -112.874989 
L 142.879886 -113.407684 
L 143.29891 -113.942103 
L 143.717934 -114.478164 
L 144.136957 -115.015896 
L 144.555981 -115.555227 
L 144.975005 -116.096132 
L 145.394029 -116.638609 
L 145.813052 -117.182597 
L 146.232076 -117.728052 
L 146.6511 -118.274956 
L 147.070124 -118.823283 
L 147.489148 -119.372971 
L 147.908171 -119.924002 
L 148.327195 -120.476332 
L 148.746219 -121.029925 
L 149.165243 -121.584756 
L 149.584267 -122.140744 
L 150.00329 -122.69789 
L 150.422314 -123.256131 
L 150.841338 -123.815433 
L 151.260362 -124.375751 
L 151.679386 -124.937059 
L 152.098409 -125.499277 
L 152.517433 -126.062388 
L 152.936457 -126.62632 
L 153.355481 -127.191092 
L 153.774505 -127.756571 
L 154.193528 -128.322739 
L 154.612552 -128.889578 
L 155.031576 -129.457036 
L 155.4506 -130.025016 
L 155.869623 -130.593516 
L 156.288647 -131.162459 
L 156.707671 -131.731808 
L 157.126695 -132.301484 
L 157.545719 -132.871487 
L 157.964742 -133.441694 
L 158.383766 -134.012112 
L 158.80279 -134.582645 
L 159.221814 -135.153258 
L 159.640838 -135.723879 
L 160.059861 -136.294466 
L 160.478885 -136.864955 
L 160.897909 -137.435294 
L 161.316933 -138.005411 
L 161.735957 -138.575273 
L 162.15498 -139.144755 
L 162.574004 -139.713856 
L 162.993028 -140.282516 
L 163.412052 -140.850655 
L 163.831076 -141.418219 
L 164.250099 -141.985129 
L 164.669123 -142.551324 
L 165.088147 -143.116723 
L 165.507171 -143.6813 
L 165.926194 -144.244985 
L 166.345218 -144.807654 
L 166.764242 -145.369333 
L 167.183266 -145.929889 
L 167.60229 -146.489253 
L 168.021313 -147.047406 
L 168.440337 -147.604208 
L 168.440337 -36.490625 
L 168.440337 -36.490625 
L 168.021313 -36.490625 
L 167.60229 -36.490625 
L 167.183266 -36.490625 
L 166.764242 -36.490625 
L 166.345218 -36.490625 
L 165.926194 -36.490625 
L 165.507171 -36.490625 
L 165.088147 -36.490625 
L 164.669123 -36.490625 
L 164.250099 -36.490625 
L 163.831076 -36.490625 
L 163.412052 -36.490625 
L 162.993028 -36.490625 
L 162.574004 -36.490625 
L 162.15498 -36.490625 
L 161.735957 -36.490625 
L 161.316933 -36.490625 
L 160.897909 -36.490625 
L 160.478885 -36.490625 
L 160.059861 -36.490625 
L 159.640838 -36.490625 
L 159.221814 -36.490625 
L 158.80279 -36.490625 
L 158.383766 -36.490625 
L 157.964742 -36.490625 
L 157.545719 -36.490625 
L 157.126695 -36.490625 
L 156.707671 -36.490625 
L 156.288647 -36.490625 
L 155.869623 -36.490625 
L 155.4506 -36.490625 
L 155.031576 -36.490625 
L 154.612552 -36.490625 
L 154.193528 -36.490625 
L 153.774505 -36.490625 
L 153.355481 -36.490625 
L 152.936457 -36.490625 
L 152.517433 -36.490625 
L 152.098409 -36.490625 
L 151.679386 -36.490625 
L 151.260362 -36.490625 
L 150.841338 -36.490625 
L 150.422314 -36.490625 
L 150.00329 -36.490625 
L 149.584267 -36.490625 
L 149.165243 -36.490625 
L 148.746219 -36.490625 
L 148.327195 -36.490625 
L 147.908171 -36.490625 
L 147.489148 -36.490625 
L 147.070124 -36.490625 
L 146.6511 -36.490625 
L 146.232076 -36.490625 
L 145.813052 -36.490625 
L 145.394029 -36.490625 
L 144.975005 -36.490625 
L 144.555981 -36.490625 
L 144.136957 -36.490625 
L 143.717934 -36.490625 
L 143.29891 -36.490625 
L 142.879886 -36.490625 
L 142.460862 -36.490625 
L 142.041838 -36.490625 
L 141.622815 -36.490625 
L 141.203791 -36.490625 
L 140.784767 -36.490625 
L 140.365743 -36.490625 
L 139.946719 -36.490625 
L 139.527696 -36.490625 
L 139.108672 -36.490625 
L 138.689648 -36.490625 
L 138.270624 -36.490625 
L 137.8516 -36.490625 
L 137.432577 -36.490625 
L 137.013553 -36.490625 
L 136.594529 -36.490625 
L 136.175505 -36.490625 
L 135.756481 -36.490625 
L 135.337458 -36.490625 
L 134.918434 -36.490625 
L 134.49941 -36.490625 
L 134.080386 -36.490625 
L 133.661362 -36.490625 
L 133.242339 -36.490625 
z
" id="mff5d4f5f3d" style="stroke:#ff7f0e;stroke-opacity:0.5;"/>
    </defs>
    <g clip-path="url(#p9b24a802f5)">
     <use style="fill:#ff7f0e;fill-opacity:0.5;stroke:#ff7f0e;stroke-opacity:0.5;" x="0" xlink:href="#mff5d4f5f3d" y="221.50625"/>
    </g>
   </g>
   <g id="PolyCollection_3">
    <defs>
     <path d="M 168.859361 -36.490625 
L 168.859361 -148.159666 
L 169.278385 -148.713666 
L 169.697409 -149.266146 
L 170.116432 -149.817009 
L 170.535456 -150.366237 
L 170.95448 -150.913725 
L 171.373504 -151.459409 
L 171.792528 -152.00323 
L 172.211551 -152.545088 
L 172.630575 -153.084932 
L 173.049599 -153.622673 
L 173.468623 -154.15824 
L 173.887647 -154.691571 
L 174.30667 -155.222596 
L 174.725694 -155.751235 
L 175.144718 -156.277391 
L 175.563742 -156.801002 
L 175.982766 -157.322015 
L 176.401789 -157.840333 
L 176.820813 -158.355894 
L 177.239837 -158.868636 
L 177.658861 -159.378417 
L 178.077884 -159.885212 
L 178.496908 -160.388959 
L 178.915932 -160.889577 
L 179.334956 -161.38697 
L 179.75398 -161.881067 
L 180.173003 -162.371771 
L 180.592027 -162.859055 
L 181.011051 -163.342821 
L 181.430075 -163.822974 
L 181.849099 -164.299495 
L 182.268122 -164.772225 
L 182.687146 -165.241147 
L 183.10617 -165.70618 
L 183.525194 -166.167237 
L 183.944218 -166.624238 
L 184.363241 -167.077112 
L 184.782265 -167.525807 
L 185.201289 -167.970251 
L 185.620313 -168.410348 
L 186.039337 -168.846017 
L 186.45836 -169.277171 
L 186.877384 -169.703792 
L 187.296408 -170.1258 
L 187.715432 -170.543063 
L 188.134455 -170.955536 
L 188.553479 -171.363212 
L 188.972503 -171.765991 
L 189.391527 -172.163725 
L 189.810551 -172.556405 
L 190.229574 -172.944003 
L 190.648598 -173.326371 
L 191.067622 -173.703471 
L 191.486646 -174.075253 
L 191.90567 -174.441643 
L 192.324693 -174.802582 
L 192.743717 -175.157989 
L 192.743717 -36.490625 
L 192.743717 -36.490625 
L 192.324693 -36.490625 
L 191.90567 -36.490625 
L 191.486646 -36.490625 
L 191.067622 -36.490625 
L 190.648598 -36.490625 
L 190.229574 -36.490625 
L 189.810551 -36.490625 
L 189.391527 -36.490625 
L 188.972503 -36.490625 
L 188.553479 -36.490625 
L 188.134455 -36.490625 
L 187.715432 -36.490625 
L 187.296408 -36.490625 
L 186.877384 -36.490625 
L 186.45836 -36.490625 
L 186.039337 -36.490625 
L 185.620313 -36.490625 
L 185.201289 -36.490625 
L 184.782265 -36.490625 
L 184.363241 -36.490625 
L 183.944218 -36.490625 
L 183.525194 -36.490625 
L 183.10617 -36.490625 
L 182.687146 -36.490625 
L 182.268122 -36.490625 
L 181.849099 -36.490625 
L 181.430075 -36.490625 
L 181.011051 -36.490625 
L 180.592027 -36.490625 
L 180.173003 -36.490625 
L 179.75398 -36.490625 
L 179.334956 -36.490625 
L 178.915932 -36.490625 
L 178.496908 -36.490625 
L 178.077884 -36.490625 
L 177.658861 -36.490625 
L 177.239837 -36.490625 
L 176.820813 -36.490625 
L 176.401789 -36.490625 
L 175.982766 -36.490625 
L 175.563742 -36.490625 
L 175.144718 -36.490625 
L 174.725694 -36.490625 
L 174.30667 -36.490625 
L 173.887647 -36.490625 
L 173.468623 -36.490625 
L 173.049599 -36.490625 
L 172.630575 -36.490625 
L 172.211551 -36.490625 
L 171.792528 -36.490625 
L 171.373504 -36.490625 
L 170.95448 -36.490625 
L 170.535456 -36.490625 
L 170.116432 -36.490625 
L 169.697409 -36.490625 
L 169.278385 -36.490625 
L 168.859361 -36.490625 
z
" id="m6ccfc679b8" style="stroke:#2ca02c;stroke-opacity:0.5;"/>
    </defs>
    <g clip-path="url(#p9b24a802f5)">
     <use style="fill:#2ca02c;fill-opacity:0.5;stroke:#2ca02c;stroke-opacity:0.5;" x="0" xlink:href="#m6ccfc679b8" y="221.50625"/>
    </g>
   </g>
   <g id="PolyCollection_4">
    <defs>
     <path d="M 193.162741 -36.490625 
L 193.162741 -175.507802 
L 193.581765 -175.851987 
L 194.000789 -176.190427 
L 194.419812 -176.523124 
L 194.838836 -176.849971 
L 195.25786 -177.170915 
L 195.676884 -177.485904 
L 196.095908 -177.794892 
L 196.514931 -178.097801 
L 196.933955 -178.394569 
L 197.352979 -178.685177 
L 197.772003 -178.969511 
L 198.191026 -179.247589 
L 198.61005 -179.519296 
L 199.029074 -179.784641 
L 199.448098 -180.043517 
L 199.867122 -180.295889 
L 200.286145 -180.541749 
L 200.705169 -180.780991 
L 201.124193 -181.013622 
L 201.543217 -181.239564 
L 201.962241 -181.458782 
L 202.381264 -181.671231 
L 202.800288 -181.876867 
L 203.219312 -182.075663 
L 203.638336 -182.267558 
L 204.05736 -182.452552 
L 204.476383 -182.630565 
L 204.895407 -182.801596 
L 205.314431 -182.965594 
L 205.733455 -183.122549 
L 206.152479 -183.272391 
L 206.571502 -183.415119 
L 206.990526 -183.550717 
L 207.40955 -183.67913 
L 207.828574 -183.800332 
L 208.247598 -183.914315 
L 208.666621 -184.021052 
L 209.085645 -184.120516 
L 209.504669 -184.2127 
L 209.923693 -184.297566 
L 210.342716 -184.375133 
L 210.76174 -184.44534 
L 211.180764 -184.508203 
L 211.599788 -184.563688 
L 212.018812 -184.611803 
L 212.437835 -184.652549 
L 212.856859 -184.685871 
L 213.275883 -184.711807 
L 213.694907 -184.730346 
L 214.113931 -184.741462 
L 214.532954 -184.745174 
L 214.532954 -36.490625 
L 214.532954 -36.490625 
L 214.113931 -36.490625 
L 213.694907 -36.490625 
L 213.275883 -36.490625 
L 212.856859 -36.490625 
L 212.437835 -36.490625 
L 212.018812 -36.490625 
L 211.599788 -36.490625 
L 211.180764 -36.490625 
L 210.76174 -36.490625 
L 210.342716 -36.490625 
L 209.923693 -36.490625 
L 209.504669 -36.490625 
L 209.085645 -36.490625 
L 208.666621 -36.490625 
L 208.247598 -36.490625 
L 207.828574 -36.490625 
L 207.40955 -36.490625 
L 206.990526 -36.490625 
L 206.571502 -36.490625 
L 206.152479 -36.490625 
L 205.733455 -36.490625 
L 205.314431 -36.490625 
L 204.895407 -36.490625 
L 204.476383 -36.490625 
L 204.05736 -36.490625 
L 203.638336 -36.490625 
L 203.219312 -36.490625 
L 202.800288 -36.490625 
L 202.381264 -36.490625 
L 201.962241 -36.490625 
L 201.543217 -36.490625 
L 201.124193 -36.490625 
L 200.705169 -36.490625 
L 200.286145 -36.490625 
L 199.867122 -36.490625 
L 199.448098 -36.490625 
L 199.029074 -36.490625 
L 198.61005 -36.490625 
L 198.191026 -36.490625 
L 197.772003 -36.490625 
L 197.352979 -36.490625 
L 196.933955 -36.490625 
L 196.514931 -36.490625 
L 196.095908 -36.490625 
L 195.676884 -36.490625 
L 195.25786 -36.490625 
L 194.838836 -36.490625 
L 194.419812 -36.490625 
L 194.000789 -36.490625 
L 193.581765 -36.490625 
L 193.162741 -36.490625 
z
" id="mc4f251fe9f" style="stroke:#d62728;stroke-opacity:0.5;"/>
    </defs>
    <g clip-path="url(#p9b24a802f5)">
     <use style="fill:#d62728;fill-opacity:0.5;stroke:#d62728;stroke-opacity:0.5;" x="0" xlink:href="#mc4f251fe9f" y="221.50625"/>
    </g>
   </g>
   <g id="PolyCollection_5">
    <defs>
     <path d="M 214.951988 -36.490625 
L 214.951988 -184.74148 
L 215.371002 -184.730346 
L 215.790016 -184.711824 
L 216.20905 -184.685898 
L 216.628083 -184.652584 
L 217.047097 -184.61183 
L 217.466111 -184.563741 
L 217.885145 -184.508239 
L 218.304179 -184.445384 
L 218.723192 -184.375169 
L 219.142206 -184.297646 
L 219.56124 -184.21277 
L 219.980274 -184.120596 
L 220.399287 -184.021123 
L 220.818301 -183.914412 
L 221.237335 -183.80042 
L 221.656369 -183.679227 
L 222.075383 -183.550823 
L 222.494396 -183.415252 
L 222.91343 -183.272506 
L 223.332464 -183.122655 
L 223.751478 -182.965718 
L 224.170492 -182.801729 
L 224.589525 -182.630715 
L 225.008559 -182.452684 
L 225.427573 -182.267708 
L 225.846587 -182.075796 
L 226.265621 -181.877008 
L 226.684654 -181.671381 
L 227.103668 -181.458941 
L 227.522682 -181.239759 
L 227.941716 -181.01379 
L 228.36075 -180.781176 
L 228.779763 -180.541944 
L 229.198777 -180.296101 
L 229.617811 -180.043711 
L 230.036845 -179.784817 
L 230.455858 -179.519517 
L 230.874872 -179.247819 
L 231.293906 -178.969741 
L 231.71294 -178.685389 
L 232.131954 -178.394789 
L 232.550967 -178.098031 
L 232.970001 -177.795104 
L 233.389035 -177.486142 
L 233.808049 -177.171154 
L 234.227063 -176.850227 
L 234.646096 -176.52338 
L 235.06513 -176.190692 
L 235.484144 -175.852243 
L 235.903158 -175.508085 
L 235.903158 -36.490625 
L 235.903158 -36.490625 
L 235.484144 -36.490625 
L 235.06513 -36.490625 
L 234.646096 -36.490625 
L 234.227063 -36.490625 
L 233.808049 -36.490625 
L 233.389035 -36.490625 
L 232.970001 -36.490625 
L 232.550967 -36.490625 
L 232.131954 -36.490625 
L 231.71294 -36.490625 
L 231.293906 -36.490625 
L 230.874872 -36.490625 
L 230.455858 -36.490625 
L 230.036845 -36.490625 
L 229.617811 -36.490625 
L 229.198777 -36.490625 
L 228.779763 -36.490625 
L 228.36075 -36.490625 
L 227.941716 -36.490625 
L 227.522682 -36.490625 
L 227.103668 -36.490625 
L 226.684654 -36.490625 
L 226.265621 -36.490625 
L 225.846587 -36.490625 
L 225.427573 -36.490625 
L 225.008559 -36.490625 
L 224.589525 -36.490625 
L 224.170492 -36.490625 
L 223.751478 -36.490625 
L 223.332464 -36.490625 
L 222.91343 -36.490625 
L 222.494396 -36.490625 
L 222.075383 -36.490625 
L 221.656369 -36.490625 
L 221.237335 -36.490625 
L 220.818301 -36.490625 
L 220.399287 -36.490625 
L 219.980274 -36.490625 
L 219.56124 -36.490625 
L 219.142206 -36.490625 
L 218.723192 -36.490625 
L 218.304179 -36.490625 
L 217.885145 -36.490625 
L 217.466111 -36.490625 
L 217.047097 -36.490625 
L 216.628083 -36.490625 
L 216.20905 -36.490625 
L 215.790016 -36.490625 
L 215.371002 -36.490625 
L 214.951988 -36.490625 
z
" id="m907b61d913" style="stroke:#9467bd;stroke-opacity:0.5;"/>
    </defs>
    <g clip-path="url(#p9b24a802f5)">
     <use style="fill:#9467bd;fill-opacity:0.5;stroke:#9467bd;stroke-opacity:0.5;" x="0" xlink:href="#m907b61d913" y="221.50625"/>
    </g>
   </g>
   <g id="PolyCollection_6">
    <defs>
     <path d="M 236.322192 -36.490625 
L 236.322192 -175.158254 
L 236.741225 -174.802847 
L 237.160239 -174.441908 
L 237.579253 -174.075544 
L 237.998287 -173.703763 
L 238.417321 -173.326627 
L 238.836334 -172.94426 
L 239.255348 -172.556705 
L 239.674382 -172.164008 
L 240.093416 -171.766248 
L 240.51243 -171.363539 
L 240.931443 -170.95589 
L 241.350477 -170.543381 
L 241.769511 -170.1261 
L 242.188525 -169.704128 
L 242.607538 -169.277525 
L 243.026572 -168.846335 
L 243.445606 -168.410666 
L 243.86462 -167.970604 
L 244.283634 -167.526187 
L 244.702667 -167.077475 
L 245.121701 -166.624583 
L 245.540715 -166.16759 
L 245.959729 -165.706542 
L 246.378763 -165.241509 
L 246.797796 -164.77257 
L 247.21681 -164.29984 
L 247.635824 -163.823372 
L 248.054858 -163.343184 
L 248.473892 -162.859426 
L 248.892905 -162.372159 
L 249.311919 -161.881438 
L 249.730953 -161.387324 
L 250.149987 -160.889948 
L 250.569001 -160.389348 
L 250.988014 -159.885628 
L 251.407048 -159.378806 
L 251.826082 -158.868971 
L 252.245096 -158.356274 
L 252.664109 -157.84073 
L 253.083143 -157.322412 
L 253.502177 -156.801399 
L 253.921191 -156.277797 
L 254.340205 -155.751632 
L 254.759238 -155.222993 
L 255.178272 -154.69196 
L 255.597286 -154.158655 
L 256.0163 -153.623088 
L 256.435334 -153.085347 
L 256.854367 -152.545468 
L 257.273381 -152.003654 
L 257.692395 -151.459851 
L 258.111429 -150.914166 
L 258.530463 -150.366652 
L 258.949476 -149.817433 
L 259.36849 -149.26657 
L 259.787524 -148.714081 
L 260.206558 -148.160063 
L 260.206558 -36.490625 
L 260.206558 -36.490625 
L 259.787524 -36.490625 
L 259.36849 -36.490625 
L 258.949476 -36.490625 
L 258.530463 -36.490625 
L 258.111429 -36.490625 
L 257.692395 -36.490625 
L 257.273381 -36.490625 
L 256.854367 -36.490625 
L 256.435334 -36.490625 
L 256.0163 -36.490625 
L 255.597286 -36.490625 
L 255.178272 -36.490625 
L 254.759238 -36.490625 
L 254.340205 -36.490625 
L 253.921191 -36.490625 
L 253.502177 -36.490625 
L 253.083143 -36.490625 
L 252.664109 -36.490625 
L 252.245096 -36.490625 
L 251.826082 -36.490625 
L 251.407048 -36.490625 
L 250.988014 -36.490625 
L 250.569001 -36.490625 
L 250.149987 -36.490625 
L 249.730953 -36.490625 
L 249.311919 -36.490625 
L 248.892905 -36.490625 
L 248.473892 -36.490625 
L 248.054858 -36.490625 
L 247.635824 -36.490625 
L 247.21681 -36.490625 
L 246.797796 -36.490625 
L 246.378763 -36.490625 
L 245.959729 -36.490625 
L 245.540715 -36.490625 
L 245.121701 -36.490625 
L 244.702667 -36.490625 
L 244.283634 -36.490625 
L 243.86462 -36.490625 
L 243.445606 -36.490625 
L 243.026572 -36.490625 
L 242.607538 -36.490625 
L 242.188525 -36.490625 
L 241.769511 -36.490625 
L 241.350477 -36.490625 
L 240.931443 -36.490625 
L 240.51243 -36.490625 
L 240.093416 -36.490625 
L 239.674382 -36.490625 
L 239.255348 -36.490625 
L 238.836334 -36.490625 
L 238.417321 -36.490625 
L 237.998287 -36.490625 
L 237.579253 -36.490625 
L 237.160239 -36.490625 
L 236.741225 -36.490625 
L 236.322192 -36.490625 
z
" id="m5c08c2dcd8" style="stroke:#8c564b;stroke-opacity:0.5;"/>
    </defs>
    <g clip-path="url(#p9b24a802f5)">
     <use style="fill:#8c564b;fill-opacity:0.5;stroke:#8c564b;stroke-opacity:0.5;" x="0" xlink:href="#m5c08c2dcd8" y="221.50625"/>
    </g>
   </g>
   <g id="PolyCollection_7">
    <defs>
     <path d="M 260.625572 -36.490625 
L 260.625572 -147.604641 
L 261.044585 -147.047831 
L 261.463619 -146.489677 
L 261.882653 -145.930296 
L 262.301667 -145.369766 
L 262.720681 -144.808096 
L 263.139714 -144.2454 
L 263.558748 -143.681707 
L 263.977762 -143.117156 
L 264.396776 -142.551757 
L 264.815809 -141.985553 
L 265.234843 -141.418625 
L 265.653857 -140.851106 
L 266.072871 -140.282967 
L 266.491905 -139.714307 
L 266.910938 -139.145197 
L 267.329952 -138.575688 
L 267.748966 -138.005853 
L 268.168 -137.435727 
L 268.587034 -136.865388 
L 269.006047 -136.294908 
L 269.425061 -135.72433 
L 269.844095 -135.153682 
L 270.263129 -134.583069 
L 270.682143 -134.012545 
L 271.101156 -133.442153 
L 271.52019 -132.871911 
L 271.939224 -132.301917 
L 272.358238 -131.732241 
L 272.777252 -131.16291 
L 273.196285 -130.593941 
L 273.615319 -130.02544 
L 274.034333 -129.45746 
L 274.453347 -128.890029 
L 274.87238 -128.32318 
L 275.291414 -127.756986 
L 275.710428 -127.191507 
L 276.129442 -126.62678 
L 276.548476 -126.062812 
L 276.967509 -125.499684 
L 277.386523 -124.937483 
L 277.805537 -124.376193 
L 278.224571 -123.815875 
L 278.643605 -123.256547 
L 279.062618 -122.698314 
L 279.481632 -122.141177 
L 279.900666 -121.585171 
L 280.3197 -121.03034 
L 280.738714 -120.476756 
L 281.157727 -119.924444 
L 281.576761 -119.373386 
L 281.995795 -118.823681 
L 282.414809 -118.275372 
L 282.833823 -117.728476 
L 283.252856 -117.182995 
L 283.67189 -116.639006 
L 284.090904 -116.096556 
L 284.509918 -115.555643 
L 284.928951 -115.016294 
L 285.347985 -114.478571 
L 285.766999 -113.942509 
L 286.186013 -113.408109 
L 286.605047 -112.875405 
L 287.02408 -112.344433 
L 287.443094 -111.815255 
L 287.862108 -111.287853 
L 288.281142 -110.762254 
L 288.700176 -110.23851 
L 289.119189 -109.71664 
L 289.538203 -109.196678 
L 289.957237 -108.678617 
L 290.376271 -108.162517 
L 290.795285 -107.648396 
L 291.214298 -107.136264 
L 291.633332 -106.626129 
L 292.052366 -106.118026 
L 292.47138 -105.612013 
L 292.890394 -105.108059 
L 293.309427 -104.60619 
L 293.728461 -104.106442 
L 294.147475 -103.608859 
L 294.566489 -103.113424 
L 294.985522 -102.62014 
L 295.404556 -102.12903 
L 295.82357 -101.640159 
L 295.82357 -36.490625 
L 295.82357 -36.490625 
L 295.404556 -36.490625 
L 294.985522 -36.490625 
L 294.566489 -36.490625 
L 294.147475 -36.490625 
L 293.728461 -36.490625 
L 293.309427 -36.490625 
L 292.890394 -36.490625 
L 292.47138 -36.490625 
L 292.052366 -36.490625 
L 291.633332 -36.490625 
L 291.214298 -36.490625 
L 290.795285 -36.490625 
L 290.376271 -36.490625 
L 289.957237 -36.490625 
L 289.538203 -36.490625 
L 289.119189 -36.490625 
L 288.700176 -36.490625 
L 288.281142 -36.490625 
L 287.862108 -36.490625 
L 287.443094 -36.490625 
L 287.02408 -36.490625 
L 286.605047 -36.490625 
L 286.186013 -36.490625 
L 285.766999 -36.490625 
L 285.347985 -36.490625 
L 284.928951 -36.490625 
L 284.509918 -36.490625 
L 284.090904 -36.490625 
L 283.67189 -36.490625 
L 283.252856 -36.490625 
L 282.833823 -36.490625 
L 282.414809 -36.490625 
L 281.995795 -36.490625 
L 281.576761 -36.490625 
L 281.157727 -36.490625 
L 280.738714 -36.490625 
L 280.3197 -36.490625 
L 279.900666 -36.490625 
L 279.481632 -36.490625 
L 279.062618 -36.490625 
L 278.643605 -36.490625 
L 278.224571 -36.490625 
L 277.805537 -36.490625 
L 277.386523 -36.490625 
L 276.967509 -36.490625 
L 276.548476 -36.490625 
L 276.129442 -36.490625 
L 275.710428 -36.490625 
L 275.291414 -36.490625 
L 274.87238 -36.490625 
L 274.453347 -36.490625 
L 274.034333 -36.490625 
L 273.615319 -36.490625 
L 273.196285 -36.490625 
L 272.777252 -36.490625 
L 272.358238 -36.490625 
L 271.939224 -36.490625 
L 271.52019 -36.490625 
L 271.101156 -36.490625 
L 270.682143 -36.490625 
L 270.263129 -36.490625 
L 269.844095 -36.490625 
L 269.425061 -36.490625 
L 269.006047 -36.490625 
L 268.587034 -36.490625 
L 268.168 -36.490625 
L 267.748966 -36.490625 
L 267.329952 -36.490625 
L 266.910938 -36.490625 
L 266.491905 -36.490625 
L 266.072871 -36.490625 
L 265.653857 -36.490625 
L 265.234843 -36.490625 
L 264.815809 -36.490625 
L 264.396776 -36.490625 
L 263.977762 -36.490625 
L 263.558748 -36.490625 
L 263.139714 -36.490625 
L 262.720681 -36.490625 
L 262.301667 -36.490625 
L 261.882653 -36.490625 
L 261.463619 -36.490625 
L 261.044585 -36.490625 
L 260.625572 -36.490625 
z
" id="mfc60fdcbca" style="stroke:#e377c2;stroke-opacity:0.5;"/>
    </defs>
    <g clip-path="url(#p9b24a802f5)">
     <use style="fill:#e377c2;fill-opacity:0.5;stroke:#e377c2;stroke-opacity:0.5;" x="0" xlink:href="#mfc60fdcbca" y="221.50625"/>
    </g>
   </g>
   <g id="PolyCollection_8">
    <defs>
     <path d="M 296.242584 -36.490625 
L 296.242584 -101.153507 
L 296.661618 -100.669069 
L 297.080651 -100.186875 
L 297.499665 -99.706983 
L 297.918679 -99.229357 
L 298.337713 -98.754003 
L 298.756747 -98.280959 
L 299.17576 -97.810248 
L 299.594774 -97.341861 
L 300.013808 -96.875785 
L 300.432842 -96.412073 
L 300.851856 -95.950742 
L 301.270869 -95.491757 
L 301.689903 -95.035145 
L 302.108937 -94.580923 
L 302.527951 -94.129123 
L 302.946965 -93.679717 
L 303.365998 -93.232692 
L 303.785032 -92.788084 
L 304.204046 -92.345929 
L 304.62306 -91.906199 
L 305.042094 -91.468882 
L 305.461127 -91.034016 
L 305.880141 -90.601594 
L 306.299155 -90.171642 
L 306.718189 -89.744107 
L 307.137222 -89.319041 
L 307.556236 -88.896436 
L 307.97525 -88.476306 
L 308.394284 -88.058615 
L 308.813318 -87.643393 
L 309.232331 -87.230654 
L 309.651345 -86.820394 
L 310.070379 -86.412573 
L 310.489413 -86.007227 
L 310.908427 -85.604376 
L 311.32744 -85.203991 
L 311.746474 -84.806063 
L 312.165508 -84.4106 
L 312.584522 -84.01762 
L 313.003536 -83.627114 
L 313.422569 -83.239056 
L 313.841603 -82.853459 
L 314.260617 -82.470332 
L 314.679631 -82.089679 
L 315.098665 -81.711456 
L 315.517698 -81.335694 
L 315.936712 -80.962388 
L 316.355726 -80.591535 
L 316.77476 -80.223112 
L 317.193793 -79.85711 
L 317.612807 -79.493574 
L 318.031821 -79.132467 
L 318.450855 -78.77376 
L 318.869889 -78.417474 
L 319.288902 -78.063622 
L 319.707916 -77.712178 
L 320.12695 -77.36312 
L 320.545984 -77.016457 
L 320.964998 -76.672211 
L 321.384011 -76.330333 
L 321.803045 -75.990827 
L 322.222079 -75.653695 
L 322.641093 -75.318934 
L 323.060107 -74.986538 
L 323.47914 -74.656474 
L 323.898174 -74.328752 
L 324.317188 -74.003381 
L 324.736202 -73.680338 
L 325.155236 -73.359599 
L 325.574269 -73.041175 
L 325.993283 -72.725071 
L 326.412297 -72.411254 
L 326.831331 -72.099712 
L 327.250364 -71.790445 
L 327.669378 -71.483471 
L 328.088392 -71.178753 
L 328.507426 -70.876262 
L 328.92646 -70.576028 
L 329.345473 -70.278035 
L 329.764487 -69.982264 
L 330.183521 -69.688697 
L 330.602555 -69.397331 
L 331.021569 -69.108174 
L 331.440582 -68.821205 
L 331.859616 -68.536398 
L 332.27865 -68.253753 
L 332.697664 -67.97328 
L 333.116678 -67.694953 
L 333.535711 -67.418741 
L 333.954745 -67.144662 
L 334.373759 -66.872705 
L 334.792773 -66.602863 
L 335.211807 -66.335091 
L 335.63084 -66.069401 
L 336.049854 -65.805804 
L 336.468868 -65.544264 
L 336.887902 -65.284771 
L 337.306936 -65.027307 
L 337.725949 -64.77189 
L 338.144963 -64.518493 
L 338.563997 -64.267094 
L 338.983031 -64.017689 
L 339.402044 -63.77028 
L 339.821058 -63.524851 
L 340.240092 -63.28137 
L 340.659126 -63.039845 
L 341.07814 -62.80027 
L 341.497153 -62.562624 
L 341.916187 -62.326888 
L 342.335221 -62.093059 
L 342.754235 -61.86115 
L 343.173249 -61.631114 
L 343.592282 -61.402943 
L 344.011316 -61.17664 
L 344.43033 -60.952194 
L 344.849344 -60.729594 
L 345.268378 -60.508812 
L 345.687411 -60.289844 
L 346.106425 -60.072696 
L 346.525439 -59.857347 
L 346.944473 -59.643765 
L 347.363507 -59.431961 
L 347.78252 -59.221925 
L 348.201534 -59.013647 
L 348.620568 -58.80709 
L 349.039602 -58.602265 
L 349.458615 -58.399163 
L 349.877629 -58.197766 
L 350.296663 -57.998057 
L 350.715697 -57.800032 
L 351.134711 -57.603683 
L 351.553724 -57.408994 
L 351.972758 -57.21595 
L 352.391792 -57.024537 
L 352.810806 -56.834769 
L 353.22982 -56.646608 
L 353.648853 -56.460048 
L 354.067887 -56.275078 
L 354.486901 -56.091702 
L 354.905915 -55.909896 
L 355.324949 -55.729643 
L 355.743982 -55.550937 
L 356.162996 -55.373781 
L 356.58201 -55.198152 
L 357.001044 -55.02403 
L 357.420078 -54.851413 
L 357.839091 -54.6803 
L 358.258105 -54.51067 
L 358.677139 -54.342508 
L 359.096173 -54.175808 
L 359.515187 -54.010571 
L 359.9342 -53.846768 
L 360.353234 -53.684395 
L 360.772268 -53.52344 
L 361.191282 -53.363901 
L 361.610295 -53.205763 
L 362.029329 -53.049004 
L 362.448363 -52.893624 
L 362.867377 -52.739621 
L 363.286391 -52.586972 
L 363.705424 -52.435668 
L 364.124458 -52.2857 
L 364.543472 -52.137066 
L 364.962486 -51.989749 
L 365.38152 -51.84373 
L 365.800553 -51.699009 
L 366.219567 -51.555583 
L 366.638581 -51.41343 
L 367.057615 -51.272543 
L 367.476649 -51.132909 
L 367.895662 -50.994531 
L 368.314676 -50.85739 
L 368.73371 -50.721469 
L 369.152744 -50.586769 
L 369.571758 -50.453282 
L 369.990771 -50.320994 
L 370.409805 -50.189887 
L 370.828839 -50.059965 
L 371.247853 -49.931219 
L 371.666866 -49.80363 
L 372.0859 -49.677192 
L 372.504934 -49.551892 
L 372.923948 -49.427733 
L 373.342962 -49.304702 
L 373.761995 -49.182776 
L 374.181029 -49.061959 
L 374.600043 -48.942244 
L 375.019057 -48.823616 
L 375.438091 -48.706064 
L 375.857124 -48.58958 
L 376.276138 -48.474163 
L 376.695152 -48.359804 
L 377.114186 -48.246478 
L 377.53322 -48.134193 
L 377.952233 -48.022937 
L 378.371247 -47.9127 
L 378.790281 -47.803469 
L 379.209315 -47.695238 
L 379.628329 -47.588008 
L 380.047342 -47.481763 
L 380.466376 -47.376488 
L 380.88541 -47.272182 
L 381.304424 -47.168841 
L 381.723437 -47.066457 
L 381.723437 -36.490625 
L 381.723437 -36.490625 
L 381.304424 -36.490625 
L 380.88541 -36.490625 
L 380.466376 -36.490625 
L 380.047342 -36.490625 
L 379.628329 -36.490625 
L 379.209315 -36.490625 
L 378.790281 -36.490625 
L 378.371247 -36.490625 
L 377.952233 -36.490625 
L 377.53322 -36.490625 
L 377.114186 -36.490625 
L 376.695152 -36.490625 
L 376.276138 -36.490625 
L 375.857124 -36.490625 
L 375.438091 -36.490625 
L 375.019057 -36.490625 
L 374.600043 -36.490625 
L 374.181029 -36.490625 
L 373.761995 -36.490625 
L 373.342962 -36.490625 
L 372.923948 -36.490625 
L 372.504934 -36.490625 
L 372.0859 -36.490625 
L 371.666866 -36.490625 
L 371.247853 -36.490625 
L 370.828839 -36.490625 
L 370.409805 -36.490625 
L 369.990771 -36.490625 
L 369.571758 -36.490625 
L 369.152744 -36.490625 
L 368.73371 -36.490625 
L 368.314676 -36.490625 
L 367.895662 -36.490625 
L 367.476649 -36.490625 
L 367.057615 -36.490625 
L 366.638581 -36.490625 
L 366.219567 -36.490625 
L 365.800553 -36.490625 
L 365.38152 -36.490625 
L 364.962486 -36.490625 
L 364.543472 -36.490625 
L 364.124458 -36.490625 
L 363.705424 -36.490625 
L 363.286391 -36.490625 
L 362.867377 -36.490625 
L 362.448363 -36.490625 
L 362.029329 -36.490625 
L 361.610295 -36.490625 
L 361.191282 -36.490625 
L 360.772268 -36.490625 
L 360.353234 -36.490625 
L 359.9342 -36.490625 
L 359.515187 -36.490625 
L 359.096173 -36.490625 
L 358.677139 -36.490625 
L 358.258105 -36.490625 
L 357.839091 -36.490625 
L 357.420078 -36.490625 
L 357.001044 -36.490625 
L 356.58201 -36.490625 
L 356.162996 -36.490625 
L 355.743982 -36.490625 
L 355.324949 -36.490625 
L 354.905915 -36.490625 
L 354.486901 -36.490625 
L 354.067887 -36.490625 
L 353.648853 -36.490625 
L 353.22982 -36.490625 
L 352.810806 -36.490625 
L 352.391792 -36.490625 
L 351.972758 -36.490625 
L 351.553724 -36.490625 
L 351.134711 -36.490625 
L 350.715697 -36.490625 
L 350.296663 -36.490625 
L 349.877629 -36.490625 
L 349.458615 -36.490625 
L 349.039602 -36.490625 
L 348.620568 -36.490625 
L 348.201534 -36.490625 
L 347.78252 -36.490625 
L 347.363507 -36.490625 
L 346.944473 -36.490625 
L 346.525439 -36.490625 
L 346.106425 -36.490625 
L 345.687411 -36.490625 
L 345.268378 -36.490625 
L 344.849344 -36.490625 
L 344.43033 -36.490625 
L 344.011316 -36.490625 
L 343.592282 -36.490625 
L 343.173249 -36.490625 
L 342.754235 -36.490625 
L 342.335221 -36.490625 
L 341.916187 -36.490625 
L 341.497153 -36.490625 
L 341.07814 -36.490625 
L 340.659126 -36.490625 
L 340.240092 -36.490625 
L 339.821058 -36.490625 
L 339.402044 -36.490625 
L 338.983031 -36.490625 
L 338.563997 -36.490625 
L 338.144963 -36.490625 
L 337.725949 -36.490625 
L 337.306936 -36.490625 
L 336.887902 -36.490625 
L 336.468868 -36.490625 
L 336.049854 -36.490625 
L 335.63084 -36.490625 
L 335.211807 -36.490625 
L 334.792773 -36.490625 
L 334.373759 -36.490625 
L 333.954745 -36.490625 
L 333.535711 -36.490625 
L 333.116678 -36.490625 
L 332.697664 -36.490625 
L 332.27865 -36.490625 
L 331.859616 -36.490625 
L 331.440582 -36.490625 
L 331.021569 -36.490625 
L 330.602555 -36.490625 
L 330.183521 -36.490625 
L 329.764487 -36.490625 
L 329.345473 -36.490625 
L 328.92646 -36.490625 
L 328.507426 -36.490625 
L 328.088392 -36.490625 
L 327.669378 -36.490625 
L 327.250364 -36.490625 
L 326.831331 -36.490625 
L 326.412297 -36.490625 
L 325.993283 -36.490625 
L 325.574269 -36.490625 
L 325.155236 -36.490625 
L 324.736202 -36.490625 
L 324.317188 -36.490625 
L 323.898174 -36.490625 
L 323.47914 -36.490625 
L 323.060107 -36.490625 
L 322.641093 -36.490625 
L 322.222079 -36.490625 
L 321.803045 -36.490625 
L 321.384011 -36.490625 
L 320.964998 -36.490625 
L 320.545984 -36.490625 
L 320.12695 -36.490625 
L 319.707916 -36.490625 
L 319.288902 -36.490625 
L 318.869889 -36.490625 
L 318.450855 -36.490625 
L 318.031821 -36.490625 
L 317.612807 -36.490625 
L 317.193793 -36.490625 
L 316.77476 -36.490625 
L 316.355726 -36.490625 
L 315.936712 -36.490625 
L 315.517698 -36.490625 
L 315.098665 -36.490625 
L 314.679631 -36.490625 
L 314.260617 -36.490625 
L 313.841603 -36.490625 
L 313.422569 -36.490625 
L 313.003536 -36.490625 
L 312.584522 -36.490625 
L 312.165508 -36.490625 
L 311.746474 -36.490625 
L 311.32744 -36.490625 
L 310.908427 -36.490625 
L 310.489413 -36.490625 
L 310.070379 -36.490625 
L 309.651345 -36.490625 
L 309.232331 -36.490625 
L 308.813318 -36.490625 
L 308.394284 -36.490625 
L 307.97525 -36.490625 
L 307.556236 -36.490625 
L 307.137222 -36.490625 
L 306.718189 -36.490625 
L 306.299155 -36.490625 
L 305.880141 -36.490625 
L 305.461127 -36.490625 
L 305.042094 -36.490625 
L 304.62306 -36.490625 
L 304.204046 -36.490625 
L 303.785032 -36.490625 
L 303.365998 -36.490625 
L 302.946965 -36.490625 
L 302.527951 -36.490625 
L 302.108937 -36.490625 
L 301.689903 -36.490625 
L 301.270869 -36.490625 
L 300.851856 -36.490625 
L 300.432842 -36.490625 
L 300.013808 -36.490625 
L 299.594774 -36.490625 
L 299.17576 -36.490625 
L 298.756747 -36.490625 
L 298.337713 -36.490625 
L 297.918679 -36.490625 
L 297.499665 -36.490625 
L 297.080651 -36.490625 
L 296.661618 -36.490625 
L 296.242584 -36.490625 
z
" id="m1429c68e3c" style="stroke:#7f7f7f;stroke-opacity:0.5;"/>
    </defs>
    <g clip-path="url(#p9b24a802f5)">
     <use style="fill:#7f7f7f;fill-opacity:0.5;stroke:#7f7f7f;stroke-opacity:0.5;" x="0" xlink:href="#m1429c68e3c" y="221.50625"/>
    </g>
   </g>
   <g id="line2d_1">
    <path clip-path="url(#p9b24a802f5)" d="M 46.923438 185.015625 
L 46.923438 174.541317 
" style="fill:none;stroke:#1f77b4;stroke-linecap:round;stroke-width:2;"/>
   </g>
   <g id="line2d_2">
    <path clip-path="url(#p9b24a802f5)" d="M 132.823315 185.015625 
L 132.823315 120.353127 
" style="fill:none;stroke:#1f77b4;stroke-linecap:round;stroke-width:2;"/>
   </g>
   <g id="line2d_3">
    <path clip-path="url(#p9b24a802f5)" d="M 133.242339 185.015625 
L 133.242339 119.866466 
" style="fill:none;stroke:#ff7f0e;stroke-linecap:round;stroke-width:2;"/>
   </g>
   <g id="line2d_4">
    <path clip-path="url(#p9b24a802f5)" d="M 168.440337 185.015625 
L 168.440337 73.902042 
" style="fill:none;stroke:#ff7f0e;stroke-linecap:round;stroke-width:2;"/>
   </g>
   <g id="line2d_5">
    <path clip-path="url(#p9b24a802f5)" d="M 168.859361 185.015625 
L 168.859361 73.346584 
" style="fill:none;stroke:#2ca02c;stroke-linecap:round;stroke-width:2;"/>
   </g>
   <g id="line2d_6">
    <path clip-path="url(#p9b24a802f5)" d="M 192.743717 185.015625 
L 192.743717 46.348261 
" style="fill:none;stroke:#2ca02c;stroke-linecap:round;stroke-width:2;"/>
   </g>
   <g id="line2d_7">
    <path clip-path="url(#p9b24a802f5)" d="M 193.162741 185.015625 
L 193.162741 45.998448 
" style="fill:none;stroke:#d62728;stroke-linecap:round;stroke-width:2;"/>
   </g>
   <g id="line2d_8">
    <path clip-path="url(#p9b24a802f5)" d="M 214.532954 185.015625 
L 214.532954 36.761076 
" style="fill:none;stroke:#d62728;stroke-linecap:round;stroke-width:2;"/>
   </g>
   <g id="line2d_9">
    <path clip-path="url(#p9b24a802f5)" d="M 214.951988 185.015625 
L 214.951988 36.76477 
" style="fill:none;stroke:#9467bd;stroke-linecap:round;stroke-width:2;"/>
   </g>
   <g id="line2d_10">
    <path clip-path="url(#p9b24a802f5)" d="M 235.903158 185.015625 
L 235.903158 45.998165 
" style="fill:none;stroke:#9467bd;stroke-linecap:round;stroke-width:2;"/>
   </g>
   <g id="line2d_11">
    <path clip-path="url(#p9b24a802f5)" d="M 236.322192 185.015625 
L 236.322192 46.347996 
" style="fill:none;stroke:#8c564b;stroke-linecap:round;stroke-width:2;"/>
   </g>
   <g id="line2d_12">
    <path clip-path="url(#p9b24a802f5)" d="M 260.206558 185.015625 
L 260.206558 73.346187 
" style="fill:none;stroke:#8c564b;stroke-linecap:round;stroke-width:2;"/>
   </g>
   <g id="line2d_13">
    <path clip-path="url(#p9b24a802f5)" d="M 260.625572 185.015625 
L 260.625572 73.901609 
" style="fill:none;stroke:#e377c2;stroke-linecap:round;stroke-width:2;"/>
   </g>
   <g id="line2d_14">
    <path clip-path="url(#p9b24a802f5)" d="M 295.82357 185.015625 
L 295.82357 119.866091 
" style="fill:none;stroke:#e377c2;stroke-linecap:round;stroke-width:2;"/>
   </g>
   <g id="line2d_15">
    <path clip-path="url(#p9b24a802f5)" d="M 296.242584 185.015625 
L 296.242584 120.352743 
" style="fill:none;stroke:#7f7f7f;stroke-linecap:round;stroke-width:2;"/>
   </g>
   <g id="line2d_16">
    <path clip-path="url(#p9b24a802f5)" d="M 381.723437 185.015625 
L 381.723437 174.439793 
" style="fill:none;stroke:#7f7f7f;stroke-linecap:round;stroke-width:2;"/>
   </g>
   <g id="line2d_17">
    <path clip-path="url(#p9b24a802f5)" d="M 46.923438 174.541317 
L 53.208794 172.916754 
L 59.075127 171.185363 
L 64.941461 169.220659 
L 70.38877 167.163869 
L 75.836079 164.85979 
L 80.864365 162.492769 
L 85.89265 159.875317 
L 90.501912 157.23935 
L 95.111174 154.361794 
L 99.720435 151.228449 
L 104.329697 147.826164 
L 108.938959 144.143395 
L 113.54822 140.170835 
L 118.157482 135.902179 
L 122.766744 131.334939 
L 127.376006 126.47145 
L 132.404291 120.837561 
L 137.8516 114.370393 
L 143.717934 107.028086 
L 150.422314 98.250119 
L 160.059861 85.211784 
L 170.116432 71.689241 
L 175.563742 64.705248 
L 180.173003 59.134479 
L 184.363241 54.429138 
L 188.134455 50.550714 
L 191.486646 47.430997 
L 194.419812 44.983126 
L 197.352979 42.821073 
L 200.286145 40.964501 
L 202.800288 39.629383 
L 205.314431 38.540656 
L 207.828574 37.705918 
L 210.342716 37.131117 
L 212.856859 36.820379 
L 215.371002 36.775904 
L 217.885145 36.998011 
L 220.399287 37.485127 
L 222.91343 38.233744 
L 225.427573 39.238542 
L 227.941716 40.49246 
L 230.455858 41.986733 
L 233.389035 44.020108 
L 236.322192 46.347996 
L 239.255348 48.949545 
L 242.607538 52.228725 
L 246.378763 56.264741 
L 250.569001 61.116902 
L 255.178272 66.81429 
L 261.044585 74.458419 
L 269.844095 86.352568 
L 281.157727 101.581806 
L 287.862108 110.218397 
L 293.728461 117.399808 
L 298.756747 123.225291 
L 303.785032 128.718166 
L 308.813318 133.862857 
L 313.422569 138.267194 
L 318.031821 142.373783 
L 322.641093 146.187316 
L 327.250364 149.715805 
L 331.859616 152.969852 
L 336.468868 155.961986 
L 341.07814 158.70598 
L 346.106425 161.433554 
L 351.134711 163.902567 
L 356.162996 166.132469 
L 361.610295 168.300487 
L 367.057615 170.233707 
L 372.923948 172.078517 
L 379.209315 173.811012 
L 381.723437 174.439793 
L 381.723437 174.439793 
" style="fill:none;stroke:#000000;stroke-linecap:round;stroke-width:2;"/>
   </g>
   <g id="patch_3">
    <path d="M 46.923438 185.015625 
L 46.923438 21.935625 
" style="fill:none;stroke:#262626;stroke-linecap:square;stroke-linejoin:miter;stroke-width:0.8;"/>
   </g>
   <g id="patch_4">
    <path d="M 381.723437 185.015625 
L 381.723437 21.935625 
" style="fill:none;stroke:#262626;stroke-linecap:square;stroke-linejoin:miter;stroke-width:0.8;"/>
   </g>
   <g id="patch_5">
    <path d="M 46.923438 185.015625 
L 381.723437 185.015625 
" style="fill:none;stroke:#262626;stroke-linecap:square;stroke-linejoin:miter;stroke-width:0.8;"/>
   </g>
   <g id="patch_6">
    <path d="M 46.923438 21.935625 
L 381.723437 21.935625 
" style="fill:none;stroke:#262626;stroke-linecap:square;stroke-linejoin:miter;stroke-width:0.8;"/>
   </g>
   <g id="text_18">
    <!-- Dequantization distribution for 8 discrete values -->
    <g style="fill:#262626;" transform="translate(88.261562 15.935625)scale(0.12 -0.12)">
     <defs>
      <path d="M 7.71875 0 
L 7.71875 71.578125 
L 32.375 71.578125 
Q 40.71875 71.578125 45.125 70.5625 
Q 51.265625 69.140625 55.609375 65.4375 
Q 61.28125 60.640625 64.078125 53.1875 
Q 66.890625 45.75 66.890625 36.1875 
Q 66.890625 28.03125 64.984375 21.734375 
Q 63.09375 15.4375 60.109375 11.296875 
Q 57.125 7.171875 53.578125 4.796875 
Q 50.046875 2.4375 45.046875 1.21875 
Q 40.046875 0 33.546875 0 
z
M 17.1875 8.453125 
L 32.46875 8.453125 
Q 39.546875 8.453125 43.578125 9.765625 
Q 47.609375 11.078125 50 13.484375 
Q 53.375 16.84375 55.25 22.53125 
Q 57.125 28.21875 57.125 36.328125 
Q 57.125 47.5625 53.4375 53.59375 
Q 49.75 59.625 44.484375 61.671875 
Q 40.671875 63.140625 32.234375 63.140625 
L 17.1875 63.140625 
z
" id="ArialMT-68"/>
      <path d="M 42.09375 16.703125 
L 51.171875 15.578125 
Q 49.03125 7.625 43.21875 3.21875 
Q 37.40625 -1.171875 28.375 -1.171875 
Q 17 -1.171875 10.328125 5.828125 
Q 3.65625 12.84375 3.65625 25.484375 
Q 3.65625 38.578125 10.390625 45.796875 
Q 17.140625 53.03125 27.875 53.03125 
Q 38.28125 53.03125 44.875 45.953125 
Q 51.46875 38.875 51.46875 26.03125 
Q 51.46875 25.25 51.421875 23.6875 
L 12.75 23.6875 
Q 13.234375 15.140625 17.578125 10.59375 
Q 21.921875 6.0625 28.421875 6.0625 
Q 33.25 6.0625 36.671875 8.59375 
Q 40.09375 11.140625 42.09375 16.703125 
z
M 13.234375 30.90625 
L 42.1875 30.90625 
Q 41.609375 37.453125 38.875 40.71875 
Q 34.671875 45.796875 27.984375 45.796875 
Q 21.921875 45.796875 17.796875 41.75 
Q 13.671875 37.703125 13.234375 30.90625 
z
" id="ArialMT-101"/>
      <path d="M 39.65625 -19.875 
L 39.65625 5.515625 
Q 37.59375 2.640625 33.90625 0.734375 
Q 30.21875 -1.171875 26.078125 -1.171875 
Q 16.84375 -1.171875 10.171875 6.203125 
Q 3.515625 13.578125 3.515625 26.421875 
Q 3.515625 34.234375 6.21875 40.421875 
Q 8.9375 46.625 14.078125 49.828125 
Q 19.234375 53.03125 25.390625 53.03125 
Q 35.015625 53.03125 40.53125 44.921875 
L 40.53125 51.859375 
L 48.4375 51.859375 
L 48.4375 -19.875 
z
M 12.546875 26.078125 
Q 12.546875 16.0625 16.75 11.0625 
Q 20.953125 6.0625 26.8125 6.0625 
Q 32.421875 6.0625 36.46875 10.8125 
Q 40.53125 15.578125 40.53125 25.296875 
Q 40.53125 35.640625 36.25 40.859375 
Q 31.984375 46.09375 26.21875 46.09375 
Q 20.515625 46.09375 16.53125 41.234375 
Q 12.546875 36.375 12.546875 26.078125 
z
" id="ArialMT-113"/>
      <path d="M 40.578125 0 
L 40.578125 7.625 
Q 34.515625 -1.171875 24.125 -1.171875 
Q 19.53125 -1.171875 15.546875 0.578125 
Q 11.578125 2.34375 9.640625 5 
Q 7.71875 7.671875 6.9375 11.53125 
Q 6.390625 14.109375 6.390625 19.734375 
L 6.390625 51.859375 
L 15.1875 51.859375 
L 15.1875 23.09375 
Q 15.1875 16.21875 15.71875 13.8125 
Q 16.546875 10.359375 19.234375 8.375 
Q 21.921875 6.390625 25.875 6.390625 
Q 29.828125 6.390625 33.296875 8.421875 
Q 36.765625 10.453125 38.203125 13.9375 
Q 39.65625 17.4375 39.65625 24.078125 
L 39.65625 51.859375 
L 48.4375 51.859375 
L 48.4375 0 
z
" id="ArialMT-117"/>
      <path d="M 6.59375 0 
L 6.59375 51.859375 
L 14.5 51.859375 
L 14.5 44.484375 
Q 20.21875 53.03125 31 53.03125 
Q 35.6875 53.03125 39.625 51.34375 
Q 43.5625 49.65625 45.515625 46.921875 
Q 47.46875 44.1875 48.25 40.4375 
Q 48.734375 37.984375 48.734375 31.890625 
L 48.734375 0 
L 39.9375 0 
L 39.9375 31.546875 
Q 39.9375 36.921875 38.90625 39.578125 
Q 37.890625 42.234375 35.28125 43.8125 
Q 32.671875 45.40625 29.15625 45.40625 
Q 23.53125 45.40625 19.453125 41.84375 
Q 15.375 38.28125 15.375 28.328125 
L 15.375 0 
z
" id="ArialMT-110"/>
      <path id="ArialMT-32"/>
      <path d="M 40.234375 0 
L 40.234375 6.546875 
Q 35.296875 -1.171875 25.734375 -1.171875 
Q 19.53125 -1.171875 14.328125 2.25 
Q 9.125 5.671875 6.265625 11.796875 
Q 3.421875 17.921875 3.421875 25.875 
Q 3.421875 33.640625 6 39.96875 
Q 8.59375 46.296875 13.765625 49.65625 
Q 18.953125 53.03125 25.34375 53.03125 
Q 30.03125 53.03125 33.6875 51.046875 
Q 37.359375 49.078125 39.65625 45.90625 
L 39.65625 71.578125 
L 48.390625 71.578125 
L 48.390625 0 
z
M 12.453125 25.875 
Q 12.453125 15.921875 16.640625 10.984375 
Q 20.84375 6.0625 26.5625 6.0625 
Q 32.328125 6.0625 36.34375 10.765625 
Q 40.375 15.484375 40.375 25.140625 
Q 40.375 35.796875 36.265625 40.765625 
Q 32.171875 45.75 26.171875 45.75 
Q 20.3125 45.75 16.375 40.96875 
Q 12.453125 36.1875 12.453125 25.875 
z
" id="ArialMT-100"/>
      <path d="M 3.078125 15.484375 
L 11.765625 16.84375 
Q 12.5 11.625 15.84375 8.84375 
Q 19.1875 6.0625 25.203125 6.0625 
Q 31.25 6.0625 34.171875 8.515625 
Q 37.109375 10.984375 37.109375 14.3125 
Q 37.109375 17.28125 34.515625 19 
Q 32.71875 20.171875 25.53125 21.96875 
Q 15.875 24.421875 12.140625 26.203125 
Q 8.40625 27.984375 6.46875 31.125 
Q 4.546875 34.28125 4.546875 38.09375 
Q 4.546875 41.546875 6.125 44.5 
Q 7.71875 47.46875 10.453125 49.421875 
Q 12.5 50.921875 16.03125 51.96875 
Q 19.578125 53.03125 23.640625 53.03125 
Q 29.734375 53.03125 34.34375 51.265625 
Q 38.96875 49.515625 41.15625 46.5 
Q 43.359375 43.5 44.1875 38.484375 
L 35.59375 37.3125 
Q 35.015625 41.3125 32.203125 43.546875 
Q 29.390625 45.796875 24.265625 45.796875 
Q 18.21875 45.796875 15.625 43.796875 
Q 13.03125 41.796875 13.03125 39.109375 
Q 13.03125 37.40625 14.109375 36.03125 
Q 15.1875 34.625 17.484375 33.6875 
Q 18.796875 33.203125 25.25 31.453125 
Q 34.578125 28.953125 38.25 27.359375 
Q 41.9375 25.78125 44.03125 22.75 
Q 46.140625 19.734375 46.140625 15.234375 
Q 46.140625 10.84375 43.578125 6.953125 
Q 41.015625 3.078125 36.171875 0.953125 
Q 31.34375 -1.171875 25.25 -1.171875 
Q 15.140625 -1.171875 9.84375 3.03125 
Q 4.546875 7.234375 3.078125 15.484375 
z
" id="ArialMT-115"/>
      <path d="M 8.6875 0 
L 8.6875 45.015625 
L 0.921875 45.015625 
L 0.921875 51.859375 
L 8.6875 51.859375 
L 8.6875 57.375 
Q 8.6875 62.59375 9.625 65.140625 
Q 10.890625 68.5625 14.078125 70.671875 
Q 17.28125 72.796875 23.046875 72.796875 
Q 26.765625 72.796875 31.25 71.921875 
L 29.9375 64.265625 
Q 27.203125 64.75 24.75 64.75 
Q 20.75 64.75 19.09375 63.03125 
Q 17.4375 61.328125 17.4375 56.640625 
L 17.4375 51.859375 
L 27.546875 51.859375 
L 27.546875 45.015625 
L 17.4375 45.015625 
L 17.4375 0 
z
" id="ArialMT-102"/>
      <path d="M 17.671875 38.8125 
Q 12.203125 40.828125 9.5625 44.53125 
Q 6.9375 48.25 6.9375 53.421875 
Q 6.9375 61.234375 12.546875 66.546875 
Q 18.171875 71.875 27.484375 71.875 
Q 36.859375 71.875 42.578125 66.421875 
Q 48.296875 60.984375 48.296875 53.171875 
Q 48.296875 48.1875 45.671875 44.5 
Q 43.0625 40.828125 37.75 38.8125 
Q 44.34375 36.671875 47.78125 31.875 
Q 51.21875 27.09375 51.21875 20.453125 
Q 51.21875 11.28125 44.71875 5.03125 
Q 38.234375 -1.21875 27.640625 -1.21875 
Q 17.046875 -1.21875 10.546875 5.046875 
Q 4.046875 11.328125 4.046875 20.703125 
Q 4.046875 27.6875 7.59375 32.390625 
Q 11.140625 37.109375 17.671875 38.8125 
z
M 15.921875 53.71875 
Q 15.921875 48.640625 19.1875 45.40625 
Q 22.46875 42.1875 27.6875 42.1875 
Q 32.765625 42.1875 36.015625 45.375 
Q 39.265625 48.578125 39.265625 53.21875 
Q 39.265625 58.0625 35.90625 61.359375 
Q 32.5625 64.65625 27.59375 64.65625 
Q 22.5625 64.65625 19.234375 61.421875 
Q 15.921875 58.203125 15.921875 53.71875 
z
M 13.09375 20.65625 
Q 13.09375 16.890625 14.875 13.375 
Q 16.65625 9.859375 20.171875 7.921875 
Q 23.6875 6 27.734375 6 
Q 34.03125 6 38.125 10.046875 
Q 42.234375 14.109375 42.234375 20.359375 
Q 42.234375 26.703125 38.015625 30.859375 
Q 33.796875 35.015625 27.4375 35.015625 
Q 21.234375 35.015625 17.15625 30.90625 
Q 13.09375 26.8125 13.09375 20.65625 
z
" id="ArialMT-56"/>
      <path d="M 40.4375 19 
L 49.078125 17.875 
Q 47.65625 8.9375 41.8125 3.875 
Q 35.984375 -1.171875 27.484375 -1.171875 
Q 16.84375 -1.171875 10.375 5.78125 
Q 3.90625 12.75 3.90625 25.734375 
Q 3.90625 34.125 6.6875 40.421875 
Q 9.46875 46.734375 15.15625 49.875 
Q 20.84375 53.03125 27.546875 53.03125 
Q 35.984375 53.03125 41.359375 48.75 
Q 46.734375 44.484375 48.25 36.625 
L 39.703125 35.296875 
Q 38.484375 40.53125 35.375 43.15625 
Q 32.28125 45.796875 27.875 45.796875 
Q 21.234375 45.796875 17.078125 41.03125 
Q 12.9375 36.28125 12.9375 25.984375 
Q 12.9375 15.53125 16.9375 10.796875 
Q 20.953125 6.0625 27.390625 6.0625 
Q 32.5625 6.0625 36.03125 9.234375 
Q 39.5 12.40625 40.4375 19 
z
" id="ArialMT-99"/>
      <path d="M 21 0 
L 1.265625 51.859375 
L 10.546875 51.859375 
L 21.6875 20.796875 
Q 23.484375 15.765625 25 10.359375 
Q 26.171875 14.453125 28.265625 20.21875 
L 39.796875 51.859375 
L 48.828125 51.859375 
L 29.203125 0 
z
" id="ArialMT-118"/>
     </defs>
     <use xlink:href="#ArialMT-68"/>
     <use x="72.216797" xlink:href="#ArialMT-101"/>
     <use x="127.832031" xlink:href="#ArialMT-113"/>
     <use x="183.447266" xlink:href="#ArialMT-117"/>
     <use x="239.0625" xlink:href="#ArialMT-97"/>
     <use x="294.677734" xlink:href="#ArialMT-110"/>
     <use x="350.292969" xlink:href="#ArialMT-116"/>
     <use x="378.076172" xlink:href="#ArialMT-105"/>
     <use x="400.292969" xlink:href="#ArialMT-122"/>
     <use x="450.292969" xlink:href="#ArialMT-97"/>
     <use x="505.908203" xlink:href="#ArialMT-116"/>
     <use x="533.691406" xlink:href="#ArialMT-105"/>
     <use x="555.908203" xlink:href="#ArialMT-111"/>
     <use x="611.523438" xlink:href="#ArialMT-110"/>
     <use x="667.138672" xlink:href="#ArialMT-32"/>
     <use x="694.921875" xlink:href="#ArialMT-100"/>
     <use x="750.537109" xlink:href="#ArialMT-105"/>
     <use x="772.753906" xlink:href="#ArialMT-115"/>
     <use x="822.753906" xlink:href="#ArialMT-116"/>
     <use x="850.537109" xlink:href="#ArialMT-114"/>
     <use x="883.837891" xlink:href="#ArialMT-105"/>
     <use x="906.054688" xlink:href="#ArialMT-98"/>
     <use x="961.669922" xlink:href="#ArialMT-117"/>
     <use x="1017.285156" xlink:href="#ArialMT-116"/>
     <use x="1045.068359" xlink:href="#ArialMT-105"/>
     <use x="1067.285156" xlink:href="#ArialMT-111"/>
     <use x="1122.900391" xlink:href="#ArialMT-110"/>
     <use x="1178.515625" xlink:href="#ArialMT-32"/>
     <use x="1206.298828" xlink:href="#ArialMT-102"/>
     <use x="1234.082031" xlink:href="#ArialMT-111"/>
     <use x="1289.697266" xlink:href="#ArialMT-114"/>
     <use x="1322.998047" xlink:href="#ArialMT-32"/>
     <use x="1350.78125" xlink:href="#ArialMT-56"/>
     <use x="1406.396484" xlink:href="#ArialMT-32"/>
     <use x="1434.179688" xlink:href="#ArialMT-100"/>
     <use x="1489.794922" xlink:href="#ArialMT-105"/>
     <use x="1512.011719" xlink:href="#ArialMT-115"/>
     <use x="1562.011719" xlink:href="#ArialMT-99"/>
     <use x="1612.011719" xlink:href="#ArialMT-114"/>
     <use x="1645.3125" xlink:href="#ArialMT-101"/>
     <use x="1700.927734" xlink:href="#ArialMT-116"/>
     <use x="1728.710938" xlink:href="#ArialMT-101"/>
     <use x="1784.326172" xlink:href="#ArialMT-32"/>
     <use x="1812.109375" xlink:href="#ArialMT-118"/>
     <use x="1862.109375" xlink:href="#ArialMT-97"/>
     <use x="1917.724609" xlink:href="#ArialMT-108"/>
     <use x="1939.941406" xlink:href="#ArialMT-117"/>
     <use x="1995.556641" xlink:href="#ArialMT-101"/>
     <use x="2051.171875" xlink:href="#ArialMT-115"/>
    </g>
   </g>
   <g id="legend_1">
    <g id="patch_7">
     <path d="M 337.1625 143.098125 
L 374.723437 143.098125 
Q 376.723437 143.098125 376.723437 141.098125 
L 376.723437 28.935625 
Q 376.723437 26.935625 374.723437 26.935625 
L 337.1625 26.935625 
Q 335.1625 26.935625 335.1625 28.935625 
L 335.1625 141.098125 
Q 335.1625 143.098125 337.1625 143.098125 
z
" style="fill:#ffffff;opacity:0.8;stroke:#cccccc;stroke-linejoin:miter;"/>
    </g>
    <g id="patch_8">
     <path d="M 339.1625 38.093437 
L 359.1625 38.093437 
L 359.1625 31.093437 
L 339.1625 31.093437 
z
" style="fill:#1f77b4;fill-opacity:0.5;stroke:#1f77b4;stroke-linejoin:miter;stroke-opacity:0.5;"/>
    </g>
    <g id="text_19">
     <!-- 0 -->
     <g style="fill:#262626;" transform="translate(367.1625 38.093437)scale(0.1 -0.1)">
      <use xlink:href="#ArialMT-48"/>
     </g>
    </g>
    <g id="patch_9">
     <path d="M 339.1625 52.23875 
L 359.1625 52.23875 
L 359.1625 45.23875 
L 339.1625 45.23875 
z
" style="fill:#ff7f0e;fill-opacity:0.5;stroke:#ff7f0e;stroke-linejoin:miter;stroke-opacity:0.5;"/>
    </g>
    <g id="text_20">
     <!-- 1 -->
     <g style="fill:#262626;" transform="translate(367.1625 52.23875)scale(0.1 -0.1)">
      <use xlink:href="#ArialMT-49"/>
     </g>
    </g>
    <g id="patch_10">
     <path d="M 339.1625 66.384062 
L 359.1625 66.384062 
L 359.1625 59.384062 
L 339.1625 59.384062 
z
" style="fill:#2ca02c;fill-opacity:0.5;stroke:#2ca02c;stroke-linejoin:miter;stroke-opacity:0.5;"/>
    </g>
    <g id="text_21">
     <!-- 2 -->
     <g style="fill:#262626;" transform="translate(367.1625 66.384062)scale(0.1 -0.1)">
      <use xlink:href="#ArialMT-50"/>
     </g>
    </g>
    <g id="patch_11">
     <path d="M 339.1625 80.529375 
L 359.1625 80.529375 
L 359.1625 73.529375 
L 339.1625 73.529375 
z
" style="fill:#d62728;fill-opacity:0.5;stroke:#d62728;stroke-linejoin:miter;stroke-opacity:0.5;"/>
    </g>
    <g id="text_22">
     <!-- 3 -->
     <g style="fill:#262626;" transform="translate(367.1625 80.529375)scale(0.1 -0.1)">
      <defs>
       <path d="M 4.203125 18.890625 
L 12.984375 20.0625 
Q 14.5 12.59375 18.140625 9.296875 
Q 21.78125 6 27 6 
Q 33.203125 6 37.46875 10.296875 
Q 41.75 14.59375 41.75 20.953125 
Q 41.75 27 37.796875 30.921875 
Q 33.84375 34.859375 27.734375 34.859375 
Q 25.25 34.859375 21.53125 33.890625 
L 22.515625 41.609375 
Q 23.390625 41.5 23.921875 41.5 
Q 29.546875 41.5 34.03125 44.421875 
Q 38.53125 47.359375 38.53125 53.46875 
Q 38.53125 58.296875 35.25 61.46875 
Q 31.984375 64.65625 26.8125 64.65625 
Q 21.6875 64.65625 18.265625 61.421875 
Q 14.84375 58.203125 13.875 51.765625 
L 5.078125 53.328125 
Q 6.6875 62.15625 12.390625 67.015625 
Q 18.109375 71.875 26.609375 71.875 
Q 32.46875 71.875 37.390625 69.359375 
Q 42.328125 66.84375 44.9375 62.5 
Q 47.5625 58.15625 47.5625 53.265625 
Q 47.5625 48.640625 45.0625 44.828125 
Q 42.578125 41.015625 37.703125 38.765625 
Q 44.046875 37.3125 47.5625 32.6875 
Q 51.078125 28.078125 51.078125 21.140625 
Q 51.078125 11.765625 44.234375 5.25 
Q 37.40625 -1.265625 26.953125 -1.265625 
Q 17.53125 -1.265625 11.296875 4.34375 
Q 5.078125 9.96875 4.203125 18.890625 
z
" id="ArialMT-51"/>
      </defs>
      <use xlink:href="#ArialMT-51"/>
     </g>
    </g>
    <g id="patch_12">
     <path d="M 339.1625 94.674687 
L 359.1625 94.674687 
L 359.1625 87.674687 
L 339.1625 87.674687 
z
" style="fill:#9467bd;fill-opacity:0.5;stroke:#9467bd;stroke-linejoin:miter;stroke-opacity:0.5;"/>
    </g>
    <g id="text_23">
     <!-- 4 -->
     <g style="fill:#262626;" transform="translate(367.1625 94.674687)scale(0.1 -0.1)">
      <use xlink:href="#ArialMT-52"/>
     </g>
    </g>
    <g id="patch_13">
     <path d="M 339.1625 108.82 
L 359.1625 108.82 
L 359.1625 101.82 
L 339.1625 101.82 
z
" style="fill:#8c564b;fill-opacity:0.5;stroke:#8c564b;stroke-linejoin:miter;stroke-opacity:0.5;"/>
    </g>
    <g id="text_24">
     <!-- 5 -->
     <g style="fill:#262626;" transform="translate(367.1625 108.82)scale(0.1 -0.1)">
      <use xlink:href="#ArialMT-53"/>
     </g>
    </g>
    <g id="patch_14">
     <path d="M 339.1625 122.965312 
L 359.1625 122.965312 
L 359.1625 115.965312 
L 339.1625 115.965312 
z
" style="fill:#e377c2;fill-opacity:0.5;stroke:#e377c2;stroke-linejoin:miter;stroke-opacity:0.5;"/>
    </g>
    <g id="text_25">
     <!-- 6 -->
     <g style="fill:#262626;" transform="translate(367.1625 122.965312)scale(0.1 -0.1)">
      <defs>
       <path d="M 49.75 54.046875 
L 41.015625 53.375 
Q 39.84375 58.546875 37.703125 60.890625 
Q 34.125 64.65625 28.90625 64.65625 
Q 24.703125 64.65625 21.53125 62.3125 
Q 17.390625 59.28125 14.984375 53.46875 
Q 12.59375 47.65625 12.5 36.921875 
Q 15.671875 41.75 20.265625 44.09375 
Q 24.859375 46.4375 29.890625 46.4375 
Q 38.671875 46.4375 44.84375 39.96875 
Q 51.03125 33.5 51.03125 23.25 
Q 51.03125 16.5 48.125 10.71875 
Q 45.21875 4.9375 40.140625 1.859375 
Q 35.0625 -1.21875 28.609375 -1.21875 
Q 17.625 -1.21875 10.6875 6.859375 
Q 3.765625 14.9375 3.765625 33.5 
Q 3.765625 54.25 11.421875 63.671875 
Q 18.109375 71.875 29.4375 71.875 
Q 37.890625 71.875 43.28125 67.140625 
Q 48.6875 62.40625 49.75 54.046875 
z
M 13.875 23.1875 
Q 13.875 18.65625 15.796875 14.5 
Q 17.71875 10.359375 21.1875 8.171875 
Q 24.65625 6 28.46875 6 
Q 34.03125 6 38.03125 10.484375 
Q 42.046875 14.984375 42.046875 22.703125 
Q 42.046875 30.125 38.078125 34.390625 
Q 34.125 38.671875 28.125 38.671875 
Q 22.171875 38.671875 18.015625 34.390625 
Q 13.875 30.125 13.875 23.1875 
z
" id="ArialMT-54"/>
      </defs>
      <use xlink:href="#ArialMT-54"/>
     </g>
    </g>
    <g id="patch_15">
     <path d="M 339.1625 137.110625 
L 359.1625 137.110625 
L 359.1625 130.110625 
L 339.1625 130.110625 
z
" style="fill:#7f7f7f;fill-opacity:0.5;stroke:#7f7f7f;stroke-linejoin:miter;stroke-opacity:0.5;"/>
    </g>
    <g id="text_26">
     <!-- 7 -->
     <g style="fill:#262626;" transform="translate(367.1625 137.110625)scale(0.1 -0.1)">
      <defs>
       <path d="M 4.734375 62.203125 
L 4.734375 70.65625 
L 51.078125 70.65625 
L 51.078125 63.8125 
Q 44.234375 56.546875 37.515625 44.484375 
Q 30.8125 32.421875 27.15625 19.671875 
Q 24.515625 10.6875 23.78125 0 
L 14.75 0 
Q 14.890625 8.453125 18.0625 20.40625 
Q 21.234375 32.375 27.171875 43.484375 
Q 33.109375 54.59375 39.796875 62.203125 
z
" id="ArialMT-55"/>
      </defs>
      <use xlink:href="#ArialMT-55"/>
     </g>
    </g>
   </g>
  </g>
 </g>
 <defs>
  <clipPath id="p9b24a802f5">
   <rect height="163.08" width="334.8" x="46.923438" y="21.935625"/>
  </clipPath>
 </defs>
</svg>
