<?xml version="1.0" encoding="utf-8" standalone="no"?>
<!DOCTYPE svg PUBLIC "-//W3C//DTD SVG 1.1//EN"
  "http://www.w3.org/Graphics/SVG/1.1/DTD/svg11.dtd">
<!-- Created with matplotlib (https://matplotlib.org/) -->
<svg height="221.50625pt" version="1.1" viewBox="0 0 390.3125 221.50625" width="390.3125pt" xmlns="http://www.w3.org/2000/svg" xmlns:xlink="http://www.w3.org/1999/xlink">
 <metadata>
  <rdf:RDF xmlns:cc="http://creativecommons.org/ns#" xmlns:dc="http://purl.org/dc/elements/1.1/" xmlns:rdf="http://www.w3.org/1999/02/22-rdf-syntax-ns#">
   <cc:Work>
    <dc:type rdf:resource="http://purl.org/dc/dcmitype/StillImage"/>
    <dc:date>2022-09-25T13:15:11.995883</dc:date>
    <dc:format>image/svg+xml</dc:format>
    <dc:creator>
     <cc:Agent>
      <dc:title>Matplotlib v3.3.2, https://matplotlib.org/</dc:title>
     </cc:Agent>
    </dc:creator>
   </cc:Work>
  </rdf:RDF>
 </metadata>
 <defs>
  <style type="text/css">*{stroke-linecap:butt;stroke-linejoin:round;}</style>
 </defs>
 <g id="figure_1">
  <g id="patch_1">
   <path d="M 0 221.50625 
L 390.3125 221.50625 
L 390.3125 -0 
L 0 -0 
z
" style="fill:#ffffff;"/>
  </g>
  <g id="axes_1">
   <g id="patch_2">
    <path d="M 41.3625 185.015625 
L 376.1625 185.015625 
L 376.1625 21.935625 
L 41.3625 21.935625 
z
" style="fill:#ffffff;"/>
   </g>
   <g id="matplotlib.axis_1">
    <g id="xtick_1">
     <g id="text_1">
      <!-- -4.0 -->
      <g style="fill:#262626;" transform="translate(32.747656 199.173438)scale(0.1 -0.1)">
       <defs>
        <path d="M 3.171875 21.484375 
L 3.171875 30.328125 
L 30.171875 30.328125 
L 30.171875 21.484375 
z
" id="ArialMT-45"/>
        <path d="M 32.328125 0 
L 32.328125 17.140625 
L 1.265625 17.140625 
L 1.265625 25.203125 
L 33.9375 71.578125 
L 41.109375 71.578125 
L 41.109375 25.203125 
L 50.78125 25.203125 
L 50.78125 17.140625 
L 41.109375 17.140625 
L 41.109375 0 
z
M 32.328125 25.203125 
L 32.328125 57.46875 
L 9.90625 25.203125 
z
" id="ArialMT-52"/>
        <path d="M 9.078125 0 
L 9.078125 10.015625 
L 19.09375 10.015625 
L 19.09375 0 
z
" id="ArialMT-46"/>
        <path d="M 4.15625 35.296875 
Q 4.15625 48 6.765625 55.734375 
Q 9.375 63.484375 14.515625 67.671875 
Q 19.671875 71.875 27.484375 71.875 
Q 33.25 71.875 37.59375 69.546875 
Q 41.9375 67.234375 44.765625 62.859375 
Q 47.609375 58.5 49.21875 52.21875 
Q 50.828125 45.953125 50.828125 35.296875 
Q 50.828125 22.703125 48.234375 14.96875 
Q 45.65625 7.234375 40.5 3 
Q 35.359375 -1.21875 27.484375 -1.21875 
Q 17.140625 -1.21875 11.234375 6.203125 
Q 4.15625 15.140625 4.15625 35.296875 
z
M 13.1875 35.296875 
Q 13.1875 17.671875 17.3125 11.828125 
Q 21.4375 6 27.484375 6 
Q 33.546875 6 37.671875 11.859375 
Q 41.796875 17.71875 41.796875 35.296875 
Q 41.796875 52.984375 37.671875 58.78125 
Q 33.546875 64.59375 27.390625 64.59375 
Q 21.34375 64.59375 17.71875 59.46875 
Q 13.1875 52.9375 13.1875 35.296875 
z
" id="ArialMT-48"/>
       </defs>
       <use xlink:href="#ArialMT-45"/>
       <use x="33.300781" xlink:href="#ArialMT-52"/>
       <use x="88.916016" xlink:href="#ArialMT-46"/>
       <use x="116.699219" xlink:href="#ArialMT-48"/>
      </g>
     </g>
    </g>
    <g id="xtick_2">
     <g id="text_2">
      <!-- -1.9 -->
      <g style="fill:#262626;" transform="translate(119.066557 199.173438)scale(0.1 -0.1)">
       <defs>
        <path d="M 37.25 0 
L 28.46875 0 
L 28.46875 56 
Q 25.296875 52.984375 20.140625 49.953125 
Q 14.984375 46.921875 10.890625 45.40625 
L 10.890625 53.90625 
Q 18.265625 57.375 23.78125 62.296875 
Q 29.296875 67.234375 31.59375 71.875 
L 37.25 71.875 
z
" id="ArialMT-49"/>
        <path d="M 5.46875 16.546875 
L 13.921875 17.328125 
Q 14.984375 11.375 18.015625 8.6875 
Q 21.046875 6 25.78125 6 
Q 29.828125 6 32.875 7.859375 
Q 35.9375 9.71875 37.890625 12.8125 
Q 39.84375 15.921875 41.15625 21.1875 
Q 42.484375 26.46875 42.484375 31.9375 
Q 42.484375 32.515625 42.4375 33.6875 
Q 39.796875 29.5 35.234375 26.875 
Q 30.671875 24.265625 25.34375 24.265625 
Q 16.453125 24.265625 10.296875 30.703125 
Q 4.15625 37.15625 4.15625 47.703125 
Q 4.15625 58.59375 10.578125 65.234375 
Q 17 71.875 26.65625 71.875 
Q 33.640625 71.875 39.421875 68.109375 
Q 45.21875 64.359375 48.21875 57.390625 
Q 51.21875 50.4375 51.21875 37.25 
Q 51.21875 23.53125 48.234375 15.40625 
Q 45.265625 7.28125 39.375 3.03125 
Q 33.5 -1.21875 25.59375 -1.21875 
Q 17.1875 -1.21875 11.859375 3.4375 
Q 6.546875 8.109375 5.46875 16.546875 
z
M 41.453125 48.140625 
Q 41.453125 55.71875 37.421875 60.15625 
Q 33.40625 64.59375 27.734375 64.59375 
Q 21.875 64.59375 17.53125 59.8125 
Q 13.1875 55.03125 13.1875 47.40625 
Q 13.1875 40.578125 17.3125 36.296875 
Q 21.4375 32.03125 27.484375 32.03125 
Q 33.59375 32.03125 37.515625 36.296875 
Q 41.453125 40.578125 41.453125 48.140625 
z
" id="ArialMT-57"/>
       </defs>
       <use xlink:href="#ArialMT-45"/>
       <use x="33.300781" xlink:href="#ArialMT-49"/>
       <use x="88.916016" xlink:href="#ArialMT-46"/>
       <use x="116.699219" xlink:href="#ArialMT-57"/>
      </g>
     </g>
    </g>
    <g id="xtick_3">
     <g id="text_3">
      <!-- -1.1 -->
      <g style="fill:#262626;" transform="translate(154.68358 199.173438)scale(0.1 -0.1)">
       <use xlink:href="#ArialMT-45"/>
       <use x="33.300781" xlink:href="#ArialMT-49"/>
       <use x="88.916016" xlink:href="#ArialMT-46"/>
       <use x="116.699219" xlink:href="#ArialMT-49"/>
      </g>
     </g>
    </g>
    <g id="xtick_4">
     <g id="text_4">
      <!-- -0.5 -->
      <g style="fill:#262626;" transform="translate(178.98696 199.173438)scale(0.1 -0.1)">
       <defs>
        <path d="M 4.15625 18.75 
L 13.375 19.53125 
Q 14.40625 12.796875 18.140625 9.390625 
Q 21.875 6 27.15625 6 
Q 33.5 6 37.890625 10.78125 
Q 42.28125 15.578125 42.28125 23.484375 
Q 42.28125 31 38.0625 35.34375 
Q 33.84375 39.703125 27 39.703125 
Q 22.75 39.703125 19.328125 37.765625 
Q 15.921875 35.84375 13.96875 32.765625 
L 5.71875 33.84375 
L 12.640625 70.609375 
L 48.25 70.609375 
L 48.25 62.203125 
L 19.671875 62.203125 
L 15.828125 42.96875 
Q 22.265625 47.46875 29.34375 47.46875 
Q 38.71875 47.46875 45.15625 40.96875 
Q 51.609375 34.46875 51.609375 24.265625 
Q 51.609375 14.546875 45.953125 7.46875 
Q 39.0625 -1.21875 27.15625 -1.21875 
Q 17.390625 -1.21875 11.203125 4.25 
Q 5.03125 9.71875 4.15625 18.75 
z
" id="ArialMT-53"/>
       </defs>
       <use xlink:href="#ArialMT-45"/>
       <use x="33.300781" xlink:href="#ArialMT-48"/>
       <use x="88.916016" xlink:href="#ArialMT-46"/>
       <use x="116.699219" xlink:href="#ArialMT-53"/>
      </g>
     </g>
    </g>
    <g id="xtick_5">
     <g id="text_5">
      <!-- 0.0 -->
      <g style="fill:#262626;" transform="translate(202.441051 199.173438)scale(0.1 -0.1)">
       <use xlink:href="#ArialMT-48"/>
       <use x="55.615234" xlink:href="#ArialMT-46"/>
       <use x="83.398438" xlink:href="#ArialMT-48"/>
      </g>
     </g>
    </g>
    <g id="xtick_6">
     <g id="text_6">
      <!-- 0.5 -->
      <g style="fill:#262626;" transform="translate(223.811254 199.173438)scale(0.1 -0.1)">
       <use xlink:href="#ArialMT-48"/>
       <use x="55.615234" xlink:href="#ArialMT-46"/>
       <use x="83.398438" xlink:href="#ArialMT-53"/>
      </g>
     </g>
    </g>
    <g id="xtick_7">
     <g id="text_7">
      <!-- 1.1 -->
      <g style="fill:#262626;" transform="translate(248.114634 199.173438)scale(0.1 -0.1)">
       <use xlink:href="#ArialMT-49"/>
       <use x="55.615234" xlink:href="#ArialMT-46"/>
       <use x="83.398438" xlink:href="#ArialMT-49"/>
      </g>
     </g>
    </g>
    <g id="xtick_8">
     <g id="text_8">
      <!-- 1.9 -->
      <g style="fill:#262626;" transform="translate(283.731646 199.173438)scale(0.1 -0.1)">
       <use xlink:href="#ArialMT-49"/>
       <use x="55.615234" xlink:href="#ArialMT-46"/>
       <use x="83.398438" xlink:href="#ArialMT-57"/>
      </g>
     </g>
    </g>
    <g id="xtick_9">
     <g id="text_9">
      <!-- 4.0 -->
      <g style="fill:#262626;" transform="translate(369.2125 199.173438)scale(0.1 -0.1)">
       <use xlink:href="#ArialMT-52"/>
       <use x="55.615234" xlink:href="#ArialMT-46"/>
       <use x="83.398438" xlink:href="#ArialMT-48"/>
      </g>
     </g>
    </g>
    <g id="text_10">
     <!-- z -->
     <g style="fill:#262626;" transform="translate(206.2625 212.31875)scale(0.1 -0.1)">
      <defs>
       <path d="M 1.953125 0 
L 1.953125 7.125 
L 34.96875 45.015625 
Q 29.34375 44.734375 25.046875 44.734375 
L 3.90625 44.734375 
L 3.90625 51.859375 
L 46.296875 51.859375 
L 46.296875 46.046875 
L 18.21875 13.140625 
L 12.796875 7.125 
Q 18.703125 7.5625 23.875 7.5625 
L 47.859375 7.5625 
L 47.859375 0 
z
" id="ArialMT-122"/>
      </defs>
      <use xlink:href="#ArialMT-122"/>
     </g>
    </g>
   </g>
   <g id="matplotlib.axis_2">
    <g id="ytick_1">
     <g id="text_11">
      <!-- 0.0 -->
      <g style="fill:#262626;" transform="translate(20.4625 188.594531)scale(0.1 -0.1)">
       <use xlink:href="#ArialMT-48"/>
       <use x="55.615234" xlink:href="#ArialMT-46"/>
       <use x="83.398438" xlink:href="#ArialMT-48"/>
      </g>
     </g>
    </g>
    <g id="ytick_2">
     <g id="text_12">
      <!-- 0.2 -->
      <g style="fill:#262626;" transform="translate(20.4625 148.968785)scale(0.1 -0.1)">
       <defs>
        <path d="M 50.34375 8.453125 
L 50.34375 0 
L 3.03125 0 
Q 2.9375 3.171875 4.046875 6.109375 
Q 5.859375 10.9375 9.828125 15.625 
Q 13.8125 20.3125 21.34375 26.46875 
Q 33.015625 36.03125 37.109375 41.625 
Q 41.21875 47.21875 41.21875 52.203125 
Q 41.21875 57.421875 37.46875 61 
Q 33.734375 64.59375 27.734375 64.59375 
Q 21.390625 64.59375 17.578125 60.78125 
Q 13.765625 56.984375 13.71875 50.25 
L 4.6875 51.171875 
Q 5.609375 61.28125 11.65625 66.578125 
Q 17.71875 71.875 27.9375 71.875 
Q 38.234375 71.875 44.234375 66.15625 
Q 50.25 60.453125 50.25 52 
Q 50.25 47.703125 48.484375 43.546875 
Q 46.734375 39.40625 42.65625 34.8125 
Q 38.578125 30.21875 29.109375 22.21875 
Q 21.1875 15.578125 18.9375 13.203125 
Q 16.703125 10.84375 15.234375 8.453125 
z
" id="ArialMT-50"/>
       </defs>
       <use xlink:href="#ArialMT-48"/>
       <use x="55.615234" xlink:href="#ArialMT-46"/>
       <use x="83.398438" xlink:href="#ArialMT-50"/>
      </g>
     </g>
    </g>
    <g id="ytick_3">
     <g id="text_13">
      <!-- 0.4 -->
      <g style="fill:#262626;" transform="translate(20.4625 109.343039)scale(0.1 -0.1)">
       <use xlink:href="#ArialMT-48"/>
       <use x="55.615234" xlink:href="#ArialMT-46"/>
       <use x="83.398438" xlink:href="#ArialMT-52"/>
      </g>
     </g>
    </g>
    <g id="ytick_4">
     <g id="text_14">
      <!-- 0.6 -->
      <g style="fill:#262626;" transform="translate(20.4625 69.717293)scale(0.1 -0.1)">
       <defs>
        <path d="M 49.75 54.046875 
L 41.015625 53.375 
Q 39.84375 58.546875 37.703125 60.890625 
Q 34.125 64.65625 28.90625 64.65625 
Q 24.703125 64.65625 21.53125 62.3125 
Q 17.390625 59.28125 14.984375 53.46875 
Q 12.59375 47.65625 12.5 36.921875 
Q 15.671875 41.75 20.265625 44.09375 
Q 24.859375 46.4375 29.890625 46.4375 
Q 38.671875 46.4375 44.84375 39.96875 
Q 51.03125 33.5 51.03125 23.25 
Q 51.03125 16.5 48.125 10.71875 
Q 45.21875 4.9375 40.140625 1.859375 
Q 35.0625 -1.21875 28.609375 -1.21875 
Q 17.625 -1.21875 10.6875 6.859375 
Q 3.765625 14.9375 3.765625 33.5 
Q 3.765625 54.25 11.421875 63.671875 
Q 18.109375 71.875 29.4375 71.875 
Q 37.890625 71.875 43.28125 67.140625 
Q 48.6875 62.40625 49.75 54.046875 
z
M 13.875 23.1875 
Q 13.875 18.65625 15.796875 14.5 
Q 17.71875 10.359375 21.1875 8.171875 
Q 24.65625 6 28.46875 6 
Q 34.03125 6 38.03125 10.484375 
Q 42.046875 14.984375 42.046875 22.703125 
Q 42.046875 30.125 38.078125 34.390625 
Q 34.125 38.671875 28.125 38.671875 
Q 22.171875 38.671875 18.015625 34.390625 
Q 13.875 30.125 13.875 23.1875 
z
" id="ArialMT-54"/>
       </defs>
       <use xlink:href="#ArialMT-48"/>
       <use x="55.615234" xlink:href="#ArialMT-46"/>
       <use x="83.398438" xlink:href="#ArialMT-54"/>
      </g>
     </g>
    </g>
    <g id="ytick_5">
     <g id="text_15">
      <!-- 0.8 -->
      <g style="fill:#262626;" transform="translate(20.4625 30.091547)scale(0.1 -0.1)">
       <defs>
        <path d="M 17.671875 38.8125 
Q 12.203125 40.828125 9.5625 44.53125 
Q 6.9375 48.25 6.9375 53.421875 
Q 6.9375 61.234375 12.546875 66.546875 
Q 18.171875 71.875 27.484375 71.875 
Q 36.859375 71.875 42.578125 66.421875 
Q 48.296875 60.984375 48.296875 53.171875 
Q 48.296875 48.1875 45.671875 44.5 
Q 43.0625 40.828125 37.75 38.8125 
Q 44.34375 36.671875 47.78125 31.875 
Q 51.21875 27.09375 51.21875 20.453125 
Q 51.21875 11.28125 44.71875 5.03125 
Q 38.234375 -1.21875 27.640625 -1.21875 
Q 17.046875 -1.21875 10.546875 5.046875 
Q 4.046875 11.328125 4.046875 20.703125 
Q 4.046875 27.6875 7.59375 32.390625 
Q 11.140625 37.109375 17.671875 38.8125 
z
M 15.921875 53.71875 
Q 15.921875 48.640625 19.1875 45.40625 
Q 22.46875 42.1875 27.6875 42.1875 
Q 32.765625 42.1875 36.015625 45.375 
Q 39.265625 48.578125 39.265625 53.21875 
Q 39.265625 58.0625 35.90625 61.359375 
Q 32.5625 64.65625 27.59375 64.65625 
Q 22.5625 64.65625 19.234375 61.421875 
Q 15.921875 58.203125 15.921875 53.71875 
z
M 13.09375 20.65625 
Q 13.09375 16.890625 14.875 13.375 
Q 16.65625 9.859375 20.171875 7.921875 
Q 23.6875 6 27.734375 6 
Q 34.03125 6 38.125 10.046875 
Q 42.234375 14.109375 42.234375 20.359375 
Q 42.234375 26.703125 38.015625 30.859375 
Q 33.796875 35.015625 27.4375 35.015625 
Q 21.234375 35.015625 17.15625 30.90625 
Q 13.09375 26.8125 13.09375 20.65625 
z
" id="ArialMT-56"/>
       </defs>
       <use xlink:href="#ArialMT-48"/>
       <use x="55.615234" xlink:href="#ArialMT-46"/>
       <use x="83.398438" xlink:href="#ArialMT-56"/>
      </g>
     </g>
    </g>
    <g id="text_16">
     <!-- Probability -->
     <g style="fill:#262626;" transform="translate(14.357812 126.819375)rotate(-90)scale(0.1 -0.1)">
      <defs>
       <path d="M 7.71875 0 
L 7.71875 71.578125 
L 34.71875 71.578125 
Q 41.84375 71.578125 45.609375 70.90625 
Q 50.875 70.015625 54.4375 67.546875 
Q 58.015625 65.09375 60.1875 60.640625 
Q 62.359375 56.203125 62.359375 50.875 
Q 62.359375 41.75 56.546875 35.421875 
Q 50.734375 29.109375 35.546875 29.109375 
L 17.1875 29.109375 
L 17.1875 0 
z
M 17.1875 37.546875 
L 35.6875 37.546875 
Q 44.875 37.546875 48.734375 40.96875 
Q 52.59375 44.390625 52.59375 50.59375 
Q 52.59375 55.078125 50.3125 58.265625 
Q 48.046875 61.46875 44.34375 62.5 
Q 41.9375 63.140625 35.5 63.140625 
L 17.1875 63.140625 
z
" id="ArialMT-80"/>
       <path d="M 6.5 0 
L 6.5 51.859375 
L 14.40625 51.859375 
L 14.40625 44 
Q 17.4375 49.515625 20 51.265625 
Q 22.5625 53.03125 25.640625 53.03125 
Q 30.078125 53.03125 34.671875 50.203125 
L 31.640625 42.046875 
Q 28.421875 43.953125 25.203125 43.953125 
Q 22.3125 43.953125 20.015625 42.21875 
Q 17.71875 40.484375 16.75 37.40625 
Q 15.28125 32.71875 15.28125 27.15625 
L 15.28125 0 
z
" id="ArialMT-114"/>
       <path d="M 3.328125 25.921875 
Q 3.328125 40.328125 11.328125 47.265625 
Q 18.015625 53.03125 27.640625 53.03125 
Q 38.328125 53.03125 45.109375 46.015625 
Q 51.90625 39.015625 51.90625 26.65625 
Q 51.90625 16.65625 48.90625 10.90625 
Q 45.90625 5.171875 40.15625 2 
Q 34.421875 -1.171875 27.640625 -1.171875 
Q 16.75 -1.171875 10.03125 5.8125 
Q 3.328125 12.796875 3.328125 25.921875 
z
M 12.359375 25.921875 
Q 12.359375 15.96875 16.703125 11.015625 
Q 21.046875 6.0625 27.640625 6.0625 
Q 34.1875 6.0625 38.53125 11.03125 
Q 42.875 16.015625 42.875 26.21875 
Q 42.875 35.84375 38.5 40.796875 
Q 34.125 45.75 27.640625 45.75 
Q 21.046875 45.75 16.703125 40.8125 
Q 12.359375 35.890625 12.359375 25.921875 
z
" id="ArialMT-111"/>
       <path d="M 14.703125 0 
L 6.546875 0 
L 6.546875 71.578125 
L 15.328125 71.578125 
L 15.328125 46.046875 
Q 20.90625 53.03125 29.546875 53.03125 
Q 34.328125 53.03125 38.59375 51.09375 
Q 42.875 49.171875 45.625 45.671875 
Q 48.390625 42.1875 49.953125 37.25 
Q 51.515625 32.328125 51.515625 26.703125 
Q 51.515625 13.375 44.921875 6.09375 
Q 38.328125 -1.171875 29.109375 -1.171875 
Q 19.921875 -1.171875 14.703125 6.5 
z
M 14.59375 26.3125 
Q 14.59375 17 17.140625 12.84375 
Q 21.296875 6.0625 28.375 6.0625 
Q 34.125 6.0625 38.328125 11.0625 
Q 42.53125 16.0625 42.53125 25.984375 
Q 42.53125 36.140625 38.5 40.96875 
Q 34.46875 45.796875 28.765625 45.796875 
Q 23 45.796875 18.796875 40.796875 
Q 14.59375 35.796875 14.59375 26.3125 
z
" id="ArialMT-98"/>
       <path d="M 40.4375 6.390625 
Q 35.546875 2.25 31.03125 0.53125 
Q 26.515625 -1.171875 21.34375 -1.171875 
Q 12.796875 -1.171875 8.203125 3 
Q 3.609375 7.171875 3.609375 13.671875 
Q 3.609375 17.484375 5.34375 20.625 
Q 7.078125 23.78125 9.890625 25.6875 
Q 12.703125 27.59375 16.21875 28.5625 
Q 18.796875 29.25 24.03125 29.890625 
Q 34.671875 31.15625 39.703125 32.90625 
Q 39.75 34.71875 39.75 35.203125 
Q 39.75 40.578125 37.25 42.78125 
Q 33.890625 45.75 27.25 45.75 
Q 21.046875 45.75 18.09375 43.578125 
Q 15.140625 41.40625 13.71875 35.890625 
L 5.125 37.0625 
Q 6.296875 42.578125 8.984375 45.96875 
Q 11.671875 49.359375 16.75 51.1875 
Q 21.828125 53.03125 28.515625 53.03125 
Q 35.15625 53.03125 39.296875 51.46875 
Q 43.453125 49.90625 45.40625 47.53125 
Q 47.359375 45.171875 48.140625 41.546875 
Q 48.578125 39.3125 48.578125 33.453125 
L 48.578125 21.734375 
Q 48.578125 9.46875 49.140625 6.21875 
Q 49.703125 2.984375 51.375 0 
L 42.1875 0 
Q 40.828125 2.734375 40.4375 6.390625 
z
M 39.703125 26.03125 
Q 34.90625 24.078125 25.34375 22.703125 
Q 19.921875 21.921875 17.671875 20.9375 
Q 15.4375 19.96875 14.203125 18.09375 
Q 12.984375 16.21875 12.984375 13.921875 
Q 12.984375 10.40625 15.640625 8.0625 
Q 18.3125 5.71875 23.4375 5.71875 
Q 28.515625 5.71875 32.46875 7.9375 
Q 36.421875 10.15625 38.28125 14.015625 
Q 39.703125 17 39.703125 22.796875 
z
" id="ArialMT-97"/>
       <path d="M 6.640625 61.46875 
L 6.640625 71.578125 
L 15.4375 71.578125 
L 15.4375 61.46875 
z
M 6.640625 0 
L 6.640625 51.859375 
L 15.4375 51.859375 
L 15.4375 0 
z
" id="ArialMT-105"/>
       <path d="M 6.390625 0 
L 6.390625 71.578125 
L 15.1875 71.578125 
L 15.1875 0 
z
" id="ArialMT-108"/>
       <path d="M 25.78125 7.859375 
L 27.046875 0.09375 
Q 23.34375 -0.6875 20.40625 -0.6875 
Q 15.625 -0.6875 12.984375 0.828125 
Q 10.359375 2.34375 9.28125 4.8125 
Q 8.203125 7.28125 8.203125 15.1875 
L 8.203125 45.015625 
L 1.765625 45.015625 
L 1.765625 51.859375 
L 8.203125 51.859375 
L 8.203125 64.703125 
L 16.9375 69.96875 
L 16.9375 51.859375 
L 25.78125 51.859375 
L 25.78125 45.015625 
L 16.9375 45.015625 
L 16.9375 14.703125 
Q 16.9375 10.9375 17.40625 9.859375 
Q 17.875 8.796875 18.921875 8.15625 
Q 19.96875 7.515625 21.921875 7.515625 
Q 23.390625 7.515625 25.78125 7.859375 
z
" id="ArialMT-116"/>
       <path d="M 6.203125 -19.96875 
L 5.21875 -11.71875 
Q 8.109375 -12.5 10.25 -12.5 
Q 13.1875 -12.5 14.9375 -11.515625 
Q 16.703125 -10.546875 17.828125 -8.796875 
Q 18.65625 -7.46875 20.515625 -2.25 
Q 20.75 -1.515625 21.296875 -0.09375 
L 1.609375 51.859375 
L 11.078125 51.859375 
L 21.875 21.828125 
Q 23.96875 16.109375 25.640625 9.8125 
Q 27.15625 15.875 29.25 21.625 
L 40.328125 51.859375 
L 49.125 51.859375 
L 29.390625 -0.875 
Q 26.21875 -9.421875 24.46875 -12.640625 
Q 22.125 -17 19.09375 -19.015625 
Q 16.0625 -21.046875 11.859375 -21.046875 
Q 9.328125 -21.046875 6.203125 -19.96875 
z
" id="ArialMT-121"/>
      </defs>
      <use xlink:href="#ArialMT-80"/>
      <use x="66.699219" xlink:href="#ArialMT-114"/>
      <use x="100" xlink:href="#ArialMT-111"/>
      <use x="155.615234" xlink:href="#ArialMT-98"/>
      <use x="211.230469" xlink:href="#ArialMT-97"/>
      <use x="266.845703" xlink:href="#ArialMT-98"/>
      <use x="322.460938" xlink:href="#ArialMT-105"/>
      <use x="344.677734" xlink:href="#ArialMT-108"/>
      <use x="366.894531" xlink:href="#ArialMT-105"/>
      <use x="389.111328" xlink:href="#ArialMT-116"/>
      <use x="416.894531" xlink:href="#ArialMT-121"/>
     </g>
    </g>
   </g>
   <g id="PolyCollection_1">
    <defs>
     <path d="M 41.3625 -36.490625 
L 41.3625 -38.59034 
L 41.781524 -38.610675 
L 42.200548 -38.631201 
L 42.619571 -38.651918 
L 43.038595 -38.672826 
L 43.457619 -38.693929 
L 43.876643 -38.715227 
L 44.295667 -38.736723 
L 44.71469 -38.758419 
L 45.133714 -38.780315 
L 45.552738 -38.802414 
L 45.971762 -38.824717 
L 46.390786 -38.847226 
L 46.809809 -38.869943 
L 47.228833 -38.892868 
L 47.647857 -38.916006 
L 48.066881 -38.939354 
L 48.485904 -38.96292 
L 48.904928 -38.9867 
L 49.323952 -39.0107 
L 49.742976 -39.034917 
L 50.162 -39.059359 
L 50.581023 -39.084023 
L 51.000047 -39.108912 
L 51.419071 -39.13403 
L 51.838095 -39.159375 
L 52.257119 -39.184952 
L 52.676142 -39.210762 
L 53.095166 -39.236805 
L 53.51419 -39.263086 
L 53.933214 -39.289606 
L 54.352238 -39.316365 
L 54.771261 -39.343367 
L 55.190285 -39.370613 
L 55.609309 -39.398105 
L 56.028333 -39.425846 
L 56.447357 -39.453836 
L 56.86638 -39.482079 
L 57.285404 -39.510575 
L 57.704428 -39.539328 
L 58.123452 -39.568339 
L 58.542475 -39.597609 
L 58.961499 -39.627141 
L 59.380523 -39.656937 
L 59.799547 -39.687 
L 60.218571 -39.717329 
L 60.637594 -39.74793 
L 61.056618 -39.778803 
L 61.475642 -39.80995 
L 61.894666 -39.841373 
L 62.31369 -39.873075 
L 62.732713 -39.905056 
L 63.151737 -39.937322 
L 63.570761 -39.96987 
L 63.989785 -40.002707 
L 64.408809 -40.035832 
L 64.827832 -40.069248 
L 65.246856 -40.102958 
L 65.66588 -40.136964 
L 66.084904 -40.171266 
L 66.503928 -40.205867 
L 66.922951 -40.240771 
L 67.341975 -40.275979 
L 67.760999 -40.311493 
L 68.180023 -40.347316 
L 68.599046 -40.383449 
L 69.01807 -40.419896 
L 69.437094 -40.456656 
L 69.856118 -40.493735 
L 70.275142 -40.531132 
L 70.694165 -40.568853 
L 71.113189 -40.606894 
L 71.532213 -40.645265 
L 71.951237 -40.683961 
L 72.370261 -40.72299 
L 72.789284 -40.762351 
L 73.208308 -40.802047 
L 73.627332 -40.842079 
L 74.046356 -40.882454 
L 74.46538 -40.92317 
L 74.884403 -40.964228 
L 75.303427 -41.005633 
L 75.722451 -41.047386 
L 76.141475 -41.089492 
L 76.560499 -41.13195 
L 76.979522 -41.174763 
L 77.398546 -41.217934 
L 77.81757 -41.261464 
L 78.236594 -41.305358 
L 78.655618 -41.349616 
L 79.074641 -41.394239 
L 79.493665 -41.439234 
L 79.912689 -41.484599 
L 80.331713 -41.530336 
L 80.750736 -41.57645 
L 81.16976 -41.622943 
L 81.588784 -41.669814 
L 82.007808 -41.717069 
L 82.426832 -41.76471 
L 82.845855 -41.812736 
L 83.264879 -41.861151 
L 83.683903 -41.909957 
L 84.102927 -41.959161 
L 84.521951 -42.008755 
L 84.940974 -42.058751 
L 85.359998 -42.109147 
L 85.779022 -42.159945 
L 86.198046 -42.211148 
L 86.61707 -42.262755 
L 87.036093 -42.314775 
L 87.455117 -42.367206 
L 87.874141 -42.420048 
L 88.293165 -42.473307 
L 88.712189 -42.526983 
L 89.131212 -42.581079 
L 89.550236 -42.635596 
L 89.96926 -42.690538 
L 90.388284 -42.745907 
L 90.807307 -42.801701 
L 91.226331 -42.857928 
L 91.645355 -42.914586 
L 92.064379 -42.971677 
L 92.483403 -43.029204 
L 92.902426 -43.087172 
L 93.32145 -43.145578 
L 93.740474 -43.204424 
L 94.159498 -43.263717 
L 94.578522 -43.323454 
L 94.997545 -43.38364 
L 95.416569 -43.444277 
L 95.835593 -43.505363 
L 96.254617 -43.566901 
L 96.673641 -43.628898 
L 97.092664 -43.691348 
L 97.511688 -43.754254 
L 97.930712 -43.817623 
L 98.349736 -43.881457 
L 98.76876 -43.94575 
L 99.187783 -44.01051 
L 99.606807 -44.075735 
L 100.025831 -44.141432 
L 100.444855 -44.207593 
L 100.863878 -44.27423 
L 101.282902 -44.341338 
L 101.701926 -44.408918 
L 102.12095 -44.476973 
L 102.539974 -44.545508 
L 102.958997 -44.61452 
L 103.378021 -44.68401 
L 103.797045 -44.753982 
L 104.216069 -44.824434 
L 104.635093 -44.895369 
L 105.054116 -44.966789 
L 105.47314 -45.038694 
L 105.892164 -45.111086 
L 106.311188 -45.183966 
L 106.730212 -45.257329 
L 107.149235 -45.331184 
L 107.568259 -45.40553 
L 107.987283 -45.480363 
L 108.406307 -45.555687 
L 108.825331 -45.631507 
L 109.244354 -45.707815 
L 109.663378 -45.784619 
L 110.082402 -45.861916 
L 110.501426 -45.939702 
L 110.92045 -46.017989 
L 111.339473 -46.096769 
L 111.758497 -46.176041 
L 112.177521 -46.255811 
L 112.596545 -46.336073 
L 113.015568 -46.416834 
L 113.434592 -46.498086 
L 113.853616 -46.579833 
L 114.27264 -46.66208 
L 114.691664 -46.744822 
L 115.110687 -46.828057 
L 115.529711 -46.911786 
L 115.948735 -46.996007 
L 116.367759 -47.080722 
L 116.786783 -47.165931 
L 117.205806 -47.251637 
L 117.62483 -47.337828 
L 118.043854 -47.424512 
L 118.462878 -47.511684 
L 118.881902 -47.599349 
L 119.300925 -47.687499 
L 119.719949 -47.776137 
L 120.138973 -47.865261 
L 120.557997 -47.95487 
L 120.977021 -48.044964 
L 121.396044 -48.135538 
L 121.815068 -48.226588 
L 122.234092 -48.318119 
L 122.653116 -48.410129 
L 123.072139 -48.50261 
L 123.491163 -48.595565 
L 123.910187 -48.688996 
L 124.329211 -48.78289 
L 124.748235 -48.877253 
L 125.167258 -48.972078 
L 125.586282 -49.067371 
L 126.005306 -49.163114 
L 126.42433 -49.259318 
L 126.843354 -49.355977 
L 127.262377 -49.453088 
L 127.262377 -36.490625 
L 127.262377 -36.490625 
L 126.843354 -36.490625 
L 126.42433 -36.490625 
L 126.005306 -36.490625 
L 125.586282 -36.490625 
L 125.167258 -36.490625 
L 124.748235 -36.490625 
L 124.329211 -36.490625 
L 123.910187 -36.490625 
L 123.491163 -36.490625 
L 123.072139 -36.490625 
L 122.653116 -36.490625 
L 122.234092 -36.490625 
L 121.815068 -36.490625 
L 121.396044 -36.490625 
L 120.977021 -36.490625 
L 120.557997 -36.490625 
L 120.138973 -36.490625 
L 119.719949 -36.490625 
L 119.300925 -36.490625 
L 118.881902 -36.490625 
L 118.462878 -36.490625 
L 118.043854 -36.490625 
L 117.62483 -36.490625 
L 117.205806 -36.490625 
L 116.786783 -36.490625 
L 116.367759 -36.490625 
L 115.948735 -36.490625 
L 115.529711 -36.490625 
L 115.110687 -36.490625 
L 114.691664 -36.490625 
L 114.27264 -36.490625 
L 113.853616 -36.490625 
L 113.434592 -36.490625 
L 113.015568 -36.490625 
L 112.596545 -36.490625 
L 112.177521 -36.490625 
L 111.758497 -36.490625 
L 111.339473 -36.490625 
L 110.92045 -36.490625 
L 110.501426 -36.490625 
L 110.082402 -36.490625 
L 109.663378 -36.490625 
L 109.244354 -36.490625 
L 108.825331 -36.490625 
L 108.406307 -36.490625 
L 107.987283 -36.490625 
L 107.568259 -36.490625 
L 107.149235 -36.490625 
L 106.730212 -36.490625 
L 106.311188 -36.490625 
L 105.892164 -36.490625 
L 105.47314 -36.490625 
L 105.054116 -36.490625 
L 104.635093 -36.490625 
L 104.216069 -36.490625 
L 103.797045 -36.490625 
L 103.378021 -36.490625 
L 102.958997 -36.490625 
L 102.539974 -36.490625 
L 102.12095 -36.490625 
L 101.701926 -36.490625 
L 101.282902 -36.490625 
L 100.863878 -36.490625 
L 100.444855 -36.490625 
L 100.025831 -36.490625 
L 99.606807 -36.490625 
L 99.187783 -36.490625 
L 98.76876 -36.490625 
L 98.349736 -36.490625 
L 97.930712 -36.490625 
L 97.511688 -36.490625 
L 97.092664 -36.490625 
L 96.673641 -36.490625 
L 96.254617 -36.490625 
L 95.835593 -36.490625 
L 95.416569 -36.490625 
L 94.997545 -36.490625 
L 94.578522 -36.490625 
L 94.159498 -36.490625 
L 93.740474 -36.490625 
L 93.32145 -36.490625 
L 92.902426 -36.490625 
L 92.483403 -36.490625 
L 92.064379 -36.490625 
L 91.645355 -36.490625 
L 91.226331 -36.490625 
L 90.807307 -36.490625 
L 90.388284 -36.490625 
L 89.96926 -36.490625 
L 89.550236 -36.490625 
L 89.131212 -36.490625 
L 88.712189 -36.490625 
L 88.293165 -36.490625 
L 87.874141 -36.490625 
L 87.455117 -36.490625 
L 87.036093 -36.490625 
L 86.61707 -36.490625 
L 86.198046 -36.490625 
L 85.779022 -36.490625 
L 85.359998 -36.490625 
L 84.940974 -36.490625 
L 84.521951 -36.490625 
L 84.102927 -36.490625 
L 83.683903 -36.490625 
L 83.264879 -36.490625 
L 82.845855 -36.490625 
L 82.426832 -36.490625 
L 82.007808 -36.490625 
L 81.588784 -36.490625 
L 81.16976 -36.490625 
L 80.750736 -36.490625 
L 80.331713 -36.490625 
L 79.912689 -36.490625 
L 79.493665 -36.490625 
L 79.074641 -36.490625 
L 78.655618 -36.490625 
L 78.236594 -36.490625 
L 77.81757 -36.490625 
L 77.398546 -36.490625 
L 76.979522 -36.490625 
L 76.560499 -36.490625 
L 76.141475 -36.490625 
L 75.722451 -36.490625 
L 75.303427 -36.490625 
L 74.884403 -36.490625 
L 74.46538 -36.490625 
L 74.046356 -36.490625 
L 73.627332 -36.490625 
L 73.208308 -36.490625 
L 72.789284 -36.490625 
L 72.370261 -36.490625 
L 71.951237 -36.490625 
L 71.532213 -36.490625 
L 71.113189 -36.490625 
L 70.694165 -36.490625 
L 70.275142 -36.490625 
L 69.856118 -36.490625 
L 69.437094 -36.490625 
L 69.01807 -36.490625 
L 68.599046 -36.490625 
L 68.180023 -36.490625 
L 67.760999 -36.490625 
L 67.341975 -36.490625 
L 66.922951 -36.490625 
L 66.503928 -36.490625 
L 66.084904 -36.490625 
L 65.66588 -36.490625 
L 65.246856 -36.490625 
L 64.827832 -36.490625 
L 64.408809 -36.490625 
L 63.989785 -36.490625 
L 63.570761 -36.490625 
L 63.151737 -36.490625 
L 62.732713 -36.490625 
L 62.31369 -36.490625 
L 61.894666 -36.490625 
L 61.475642 -36.490625 
L 61.056618 -36.490625 
L 60.637594 -36.490625 
L 60.218571 -36.490625 
L 59.799547 -36.490625 
L 59.380523 -36.490625 
L 58.961499 -36.490625 
L 58.542475 -36.490625 
L 58.123452 -36.490625 
L 57.704428 -36.490625 
L 57.285404 -36.490625 
L 56.86638 -36.490625 
L 56.447357 -36.490625 
L 56.028333 -36.490625 
L 55.609309 -36.490625 
L 55.190285 -36.490625 
L 54.771261 -36.490625 
L 54.352238 -36.490625 
L 53.933214 -36.490625 
L 53.51419 -36.490625 
L 53.095166 -36.490625 
L 52.676142 -36.490625 
L 52.257119 -36.490625 
L 51.838095 -36.490625 
L 51.419071 -36.490625 
L 51.000047 -36.490625 
L 50.581023 -36.490625 
L 50.162 -36.490625 
L 49.742976 -36.490625 
L 49.323952 -36.490625 
L 48.904928 -36.490625 
L 48.485904 -36.490625 
L 48.066881 -36.490625 
L 47.647857 -36.490625 
L 47.228833 -36.490625 
L 46.809809 -36.490625 
L 46.390786 -36.490625 
L 45.971762 -36.490625 
L 45.552738 -36.490625 
L 45.133714 -36.490625 
L 44.71469 -36.490625 
L 44.295667 -36.490625 
L 43.876643 -36.490625 
L 43.457619 -36.490625 
L 43.038595 -36.490625 
L 42.619571 -36.490625 
L 42.200548 -36.490625 
L 41.781524 -36.490625 
L 41.3625 -36.490625 
z
" id="m8e54077da5" style="stroke:#1f77b4;stroke-opacity:0.5;"/>
    </defs>
    <g clip-path="url(#pd67a126957)">
     <use style="fill:#1f77b4;fill-opacity:0.5;stroke:#1f77b4;stroke-opacity:0.5;" x="0" xlink:href="#m8e54077da5" y="221.50625"/>
    </g>
   </g>
   <g id="PolyCollection_2">
    <defs>
     <path d="M 127.681401 -36.490625 
L 127.681401 -71.317347 
L 128.100425 -71.578689 
L 128.519449 -71.841203 
L 128.938473 -72.104898 
L 129.357496 -72.369753 
L 129.77652 -72.63576 
L 130.195544 -72.902894 
L 130.614568 -73.171168 
L 131.033592 -73.440573 
L 131.452615 -73.71107 
L 131.871639 -73.98268 
L 132.290663 -74.255377 
L 132.709687 -74.529157 
L 133.12871 -74.803994 
L 133.547734 -75.079879 
L 133.966758 -75.356818 
L 134.385782 -75.634767 
L 134.804806 -75.913752 
L 135.223829 -76.193717 
L 135.642853 -76.474683 
L 136.061877 -76.756615 
L 136.480901 -77.039503 
L 136.899925 -77.323339 
L 137.318948 -77.608102 
L 137.737972 -77.893786 
L 138.156996 -78.180346 
L 138.57602 -78.467802 
L 138.995044 -78.75611 
L 139.414067 -79.04526 
L 139.833091 -79.335252 
L 140.252115 -79.626052 
L 140.671139 -79.917635 
L 141.090163 -80.209994 
L 141.509186 -80.503112 
L 141.92821 -80.796959 
L 142.347234 -81.091521 
L 142.766258 -81.38678 
L 143.185282 -81.682714 
L 143.604305 -81.97931 
L 144.023329 -82.276523 
L 144.442353 -82.574356 
L 144.861377 -82.872776 
L 145.2804 -83.17176 
L 145.699424 -83.471291 
L 146.118448 -83.771347 
L 146.537472 -84.071893 
L 146.956496 -84.372914 
L 147.375519 -84.674373 
L 147.794543 -84.976283 
L 148.213567 -85.278571 
L 148.632591 -85.581228 
L 149.051615 -85.884242 
L 149.470638 -86.18759 
L 149.889662 -86.491209 
L 150.308686 -86.795112 
L 150.72771 -87.099251 
L 151.146734 -87.403609 
L 151.565757 -87.708144 
L 151.984781 -88.01285 
L 152.403805 -88.317662 
L 152.822829 -88.622592 
L 153.241853 -88.927582 
L 153.660876 -89.232612 
L 154.0799 -89.537649 
L 154.498924 -89.842668 
L 154.917948 -90.147634 
L 155.336971 -90.452517 
L 155.755995 -90.757282 
L 156.175019 -91.061917 
L 156.594043 -91.366339 
L 157.013067 -91.670567 
L 157.43209 -91.974552 
L 157.851114 -92.278261 
L 158.270138 -92.581667 
L 158.689162 -92.88472 
L 159.108186 -93.187389 
L 159.527209 -93.489633 
L 159.946233 -93.791439 
L 160.365257 -94.092768 
L 160.784281 -94.393553 
L 161.203305 -94.693807 
L 161.622328 -94.993464 
L 162.041352 -95.292484 
L 162.460376 -95.590854 
L 162.8794 -95.888504 
L 162.8794 -36.490625 
L 162.8794 -36.490625 
L 162.460376 -36.490625 
L 162.041352 -36.490625 
L 161.622328 -36.490625 
L 161.203305 -36.490625 
L 160.784281 -36.490625 
L 160.365257 -36.490625 
L 159.946233 -36.490625 
L 159.527209 -36.490625 
L 159.108186 -36.490625 
L 158.689162 -36.490625 
L 158.270138 -36.490625 
L 157.851114 -36.490625 
L 157.43209 -36.490625 
L 157.013067 -36.490625 
L 156.594043 -36.490625 
L 156.175019 -36.490625 
L 155.755995 -36.490625 
L 155.336971 -36.490625 
L 154.917948 -36.490625 
L 154.498924 -36.490625 
L 154.0799 -36.490625 
L 153.660876 -36.490625 
L 153.241853 -36.490625 
L 152.822829 -36.490625 
L 152.403805 -36.490625 
L 151.984781 -36.490625 
L 151.565757 -36.490625 
L 151.146734 -36.490625 
L 150.72771 -36.490625 
L 150.308686 -36.490625 
L 149.889662 -36.490625 
L 149.470638 -36.490625 
L 149.051615 -36.490625 
L 148.632591 -36.490625 
L 148.213567 -36.490625 
L 147.794543 -36.490625 
L 147.375519 -36.490625 
L 146.956496 -36.490625 
L 146.537472 -36.490625 
L 146.118448 -36.490625 
L 145.699424 -36.490625 
L 145.2804 -36.490625 
L 144.861377 -36.490625 
L 144.442353 -36.490625 
L 144.023329 -36.490625 
L 143.604305 -36.490625 
L 143.185282 -36.490625 
L 142.766258 -36.490625 
L 142.347234 -36.490625 
L 141.92821 -36.490625 
L 141.509186 -36.490625 
L 141.090163 -36.490625 
L 140.671139 -36.490625 
L 140.252115 -36.490625 
L 139.833091 -36.490625 
L 139.414067 -36.490625 
L 138.995044 -36.490625 
L 138.57602 -36.490625 
L 138.156996 -36.490625 
L 137.737972 -36.490625 
L 137.318948 -36.490625 
L 136.899925 -36.490625 
L 136.480901 -36.490625 
L 136.061877 -36.490625 
L 135.642853 -36.490625 
L 135.223829 -36.490625 
L 134.804806 -36.490625 
L 134.385782 -36.490625 
L 133.966758 -36.490625 
L 133.547734 -36.490625 
L 133.12871 -36.490625 
L 132.709687 -36.490625 
L 132.290663 -36.490625 
L 131.871639 -36.490625 
L 131.452615 -36.490625 
L 131.033592 -36.490625 
L 130.614568 -36.490625 
L 130.195544 -36.490625 
L 129.77652 -36.490625 
L 129.357496 -36.490625 
L 128.938473 -36.490625 
L 128.519449 -36.490625 
L 128.100425 -36.490625 
L 127.681401 -36.490625 
z
" id="m5a9eebb17b" style="stroke:#ff7f0e;stroke-opacity:0.5;"/>
    </defs>
    <g clip-path="url(#pd67a126957)">
     <use style="fill:#ff7f0e;fill-opacity:0.5;stroke:#ff7f0e;stroke-opacity:0.5;" x="0" xlink:href="#m5a9eebb17b" y="221.50625"/>
    </g>
   </g>
   <g id="PolyCollection_3">
    <defs>
     <path d="M 163.298424 -36.490625 
L 163.298424 -155.880242 
L 163.717447 -156.472542 
L 164.136471 -157.063224 
L 164.555495 -157.65217 
L 164.974519 -158.239369 
L 165.393542 -158.824713 
L 165.812566 -159.408121 
L 166.23159 -159.989544 
L 166.650614 -160.568866 
L 167.069638 -161.146026 
L 167.488661 -161.720955 
L 167.907685 -162.293545 
L 168.326709 -162.86375 
L 168.745733 -163.431486 
L 169.164757 -163.996672 
L 169.58378 -164.559213 
L 170.002804 -165.119025 
L 170.421828 -165.676062 
L 170.840852 -166.230206 
L 171.259876 -166.781421 
L 171.678899 -167.329613 
L 172.097923 -167.87464 
L 172.516947 -168.416467 
L 172.935971 -168.955046 
L 173.354995 -169.490272 
L 173.774018 -170.02206 
L 174.193042 -170.550318 
L 174.612066 -171.074939 
L 175.03109 -171.595922 
L 175.450114 -172.113126 
L 175.869137 -172.62648 
L 176.288161 -173.135949 
L 176.707185 -173.641356 
L 177.126209 -174.1427 
L 177.545232 -174.639887 
L 177.964256 -175.132823 
L 178.38328 -175.621413 
L 178.802304 -176.105598 
L 179.221328 -176.585319 
L 179.640351 -177.060494 
L 180.059375 -177.531015 
L 180.478399 -177.996801 
L 180.897423 -178.457769 
L 181.316447 -178.913883 
L 181.73547 -179.365073 
L 182.154494 -179.811185 
L 182.573518 -180.252171 
L 182.992542 -180.688032 
L 183.411566 -181.118662 
L 183.830589 -181.543894 
L 184.249613 -181.963718 
L 184.668637 -182.378122 
L 185.087661 -182.786927 
L 185.506685 -183.1901 
L 185.925708 -183.587581 
L 186.344732 -183.979298 
L 186.763756 -184.365194 
L 187.18278 -184.745173 
L 187.18278 -36.490625 
L 187.18278 -36.490625 
L 186.763756 -36.490625 
L 186.344732 -36.490625 
L 185.925708 -36.490625 
L 185.506685 -36.490625 
L 185.087661 -36.490625 
L 184.668637 -36.490625 
L 184.249613 -36.490625 
L 183.830589 -36.490625 
L 183.411566 -36.490625 
L 182.992542 -36.490625 
L 182.573518 -36.490625 
L 182.154494 -36.490625 
L 181.73547 -36.490625 
L 181.316447 -36.490625 
L 180.897423 -36.490625 
L 180.478399 -36.490625 
L 180.059375 -36.490625 
L 179.640351 -36.490625 
L 179.221328 -36.490625 
L 178.802304 -36.490625 
L 178.38328 -36.490625 
L 177.964256 -36.490625 
L 177.545232 -36.490625 
L 177.126209 -36.490625 
L 176.707185 -36.490625 
L 176.288161 -36.490625 
L 175.869137 -36.490625 
L 175.450114 -36.490625 
L 175.03109 -36.490625 
L 174.612066 -36.490625 
L 174.193042 -36.490625 
L 173.774018 -36.490625 
L 173.354995 -36.490625 
L 172.935971 -36.490625 
L 172.516947 -36.490625 
L 172.097923 -36.490625 
L 171.678899 -36.490625 
L 171.259876 -36.490625 
L 170.840852 -36.490625 
L 170.421828 -36.490625 
L 170.002804 -36.490625 
L 169.58378 -36.490625 
L 169.164757 -36.490625 
L 168.745733 -36.490625 
L 168.326709 -36.490625 
L 167.907685 -36.490625 
L 167.488661 -36.490625 
L 167.069638 -36.490625 
L 166.650614 -36.490625 
L 166.23159 -36.490625 
L 165.812566 -36.490625 
L 165.393542 -36.490625 
L 164.974519 -36.490625 
L 164.555495 -36.490625 
L 164.136471 -36.490625 
L 163.717447 -36.490625 
L 163.298424 -36.490625 
z
" id="m24589a2a88" style="stroke:#2ca02c;stroke-opacity:0.5;"/>
    </defs>
    <g clip-path="url(#pd67a126957)">
     <use style="fill:#2ca02c;fill-opacity:0.5;stroke:#2ca02c;stroke-opacity:0.5;" x="0" xlink:href="#m24589a2a88" y="221.50625"/>
    </g>
   </g>
   <g id="PolyCollection_4">
    <defs>
     <path d="M 187.601803 -36.490625 
L 187.601803 -110.804901 
L 188.020827 -110.988891 
L 188.439851 -111.169811 
L 188.858875 -111.34766 
L 189.277899 -111.52238 
L 189.696922 -111.693947 
L 190.115946 -111.862331 
L 190.53497 -112.027509 
L 190.953994 -112.189434 
L 191.373018 -112.348075 
L 191.792041 -112.503428 
L 192.211065 -112.655421 
L 192.630089 -112.804071 
L 193.049113 -112.949321 
L 193.468137 -113.091164 
L 193.88716 -113.229552 
L 194.306184 -113.364462 
L 194.725208 -113.495889 
L 195.144232 -113.623785 
L 195.563256 -113.748138 
L 195.982279 -113.868924 
L 196.401303 -113.986109 
L 196.820327 -114.09968 
L 197.239351 -114.209602 
L 197.658375 -114.315874 
L 198.077398 -114.418457 
L 198.496422 -114.517348 
L 198.915446 -114.612509 
L 199.33447 -114.703937 
L 199.753493 -114.791604 
L 200.172517 -114.87551 
L 200.591541 -114.955607 
L 201.010565 -115.031907 
L 201.429589 -115.104393 
L 201.848612 -115.173035 
L 202.267636 -115.237828 
L 202.68666 -115.298758 
L 203.105684 -115.355821 
L 203.524708 -115.408987 
L 203.943731 -115.458268 
L 204.362755 -115.503633 
L 204.781779 -115.545102 
L 205.200803 -115.582632 
L 205.619827 -115.616236 
L 206.03885 -115.645895 
L 206.457874 -115.671616 
L 206.876898 -115.693399 
L 207.295922 -115.711213 
L 207.714946 -115.725077 
L 208.133969 -115.734985 
L 208.552993 -115.740925 
L 208.972017 -115.742909 
L 208.972017 -36.490625 
L 208.972017 -36.490625 
L 208.552993 -36.490625 
L 208.133969 -36.490625 
L 207.714946 -36.490625 
L 207.295922 -36.490625 
L 206.876898 -36.490625 
L 206.457874 -36.490625 
L 206.03885 -36.490625 
L 205.619827 -36.490625 
L 205.200803 -36.490625 
L 204.781779 -36.490625 
L 204.362755 -36.490625 
L 203.943731 -36.490625 
L 203.524708 -36.490625 
L 203.105684 -36.490625 
L 202.68666 -36.490625 
L 202.267636 -36.490625 
L 201.848612 -36.490625 
L 201.429589 -36.490625 
L 201.010565 -36.490625 
L 200.591541 -36.490625 
L 200.172517 -36.490625 
L 199.753493 -36.490625 
L 199.33447 -36.490625 
L 198.915446 -36.490625 
L 198.496422 -36.490625 
L 198.077398 -36.490625 
L 197.658375 -36.490625 
L 197.239351 -36.490625 
L 196.820327 -36.490625 
L 196.401303 -36.490625 
L 195.982279 -36.490625 
L 195.563256 -36.490625 
L 195.144232 -36.490625 
L 194.725208 -36.490625 
L 194.306184 -36.490625 
L 193.88716 -36.490625 
L 193.468137 -36.490625 
L 193.049113 -36.490625 
L 192.630089 -36.490625 
L 192.211065 -36.490625 
L 191.792041 -36.490625 
L 191.373018 -36.490625 
L 190.953994 -36.490625 
L 190.53497 -36.490625 
L 190.115946 -36.490625 
L 189.696922 -36.490625 
L 189.277899 -36.490625 
L 188.858875 -36.490625 
L 188.439851 -36.490625 
L 188.020827 -36.490625 
L 187.601803 -36.490625 
z
" id="m14e589c756" style="stroke:#d62728;stroke-opacity:0.5;"/>
    </defs>
    <g clip-path="url(#pd67a126957)">
     <use style="fill:#d62728;fill-opacity:0.5;stroke:#d62728;stroke-opacity:0.5;" x="0" xlink:href="#m14e589c756" y="221.50625"/>
    </g>
   </g>
   <g id="PolyCollection_5">
    <defs>
     <path d="M 209.391051 -36.490625 
L 209.391051 -66.209493 
L 209.810064 -66.207261 
L 210.229078 -66.203547 
L 210.648112 -66.198351 
L 211.067146 -66.191672 
L 211.48616 -66.183503 
L 211.905173 -66.173864 
L 212.324207 -66.162737 
L 212.743241 -66.150136 
L 213.162255 -66.136062 
L 213.581269 -66.120521 
L 214.000302 -66.103507 
L 214.419336 -66.085028 
L 214.83835 -66.065088 
L 215.257364 -66.043695 
L 215.676398 -66.020844 
L 216.095431 -65.996549 
L 216.514445 -65.97081 
L 216.933459 -65.943634 
L 217.352493 -65.915017 
L 217.771527 -65.884977 
L 218.19054 -65.853516 
L 218.609554 -65.820645 
L 219.028588 -65.786362 
L 219.447622 -65.750674 
L 219.866635 -65.713593 
L 220.285649 -65.675121 
L 220.704683 -65.63527 
L 221.123717 -65.594049 
L 221.542731 -65.551465 
L 221.961744 -65.507525 
L 222.380778 -65.462227 
L 222.799812 -65.415598 
L 223.218826 -65.36764 
L 223.63784 -65.318356 
L 224.056873 -65.267762 
L 224.475907 -65.215862 
L 224.894921 -65.162682 
L 225.313935 -65.108214 
L 225.732969 -65.052471 
L 226.152002 -64.99547 
L 226.571016 -64.937214 
L 226.99003 -64.877724 
L 227.409064 -64.817 
L 227.828098 -64.755063 
L 228.247111 -64.691921 
L 228.666125 -64.627586 
L 229.085159 -64.562065 
L 229.504193 -64.495374 
L 229.923207 -64.427526 
L 230.34222 -64.358536 
L 230.34222 -36.490625 
L 230.34222 -36.490625 
L 229.923207 -36.490625 
L 229.504193 -36.490625 
L 229.085159 -36.490625 
L 228.666125 -36.490625 
L 228.247111 -36.490625 
L 227.828098 -36.490625 
L 227.409064 -36.490625 
L 226.99003 -36.490625 
L 226.571016 -36.490625 
L 226.152002 -36.490625 
L 225.732969 -36.490625 
L 225.313935 -36.490625 
L 224.894921 -36.490625 
L 224.475907 -36.490625 
L 224.056873 -36.490625 
L 223.63784 -36.490625 
L 223.218826 -36.490625 
L 222.799812 -36.490625 
L 222.380778 -36.490625 
L 221.961744 -36.490625 
L 221.542731 -36.490625 
L 221.123717 -36.490625 
L 220.704683 -36.490625 
L 220.285649 -36.490625 
L 219.866635 -36.490625 
L 219.447622 -36.490625 
L 219.028588 -36.490625 
L 218.609554 -36.490625 
L 218.19054 -36.490625 
L 217.771527 -36.490625 
L 217.352493 -36.490625 
L 216.933459 -36.490625 
L 216.514445 -36.490625 
L 216.095431 -36.490625 
L 215.676398 -36.490625 
L 215.257364 -36.490625 
L 214.83835 -36.490625 
L 214.419336 -36.490625 
L 214.000302 -36.490625 
L 213.581269 -36.490625 
L 213.162255 -36.490625 
L 212.743241 -36.490625 
L 212.324207 -36.490625 
L 211.905173 -36.490625 
L 211.48616 -36.490625 
L 211.067146 -36.490625 
L 210.648112 -36.490625 
L 210.229078 -36.490625 
L 209.810064 -36.490625 
L 209.391051 -36.490625 
z
" id="m94fef1d2ab" style="stroke:#9467bd;stroke-opacity:0.5;"/>
    </defs>
    <g clip-path="url(#pd67a126957)">
     <use style="fill:#9467bd;fill-opacity:0.5;stroke:#9467bd;stroke-opacity:0.5;" x="0" xlink:href="#m94fef1d2ab" y="221.50625"/>
    </g>
   </g>
   <g id="PolyCollection_6">
    <defs>
     <path d="M 230.761254 -36.490625 
L 230.761254 -45.756552 
L 231.180288 -45.732803 
L 231.599302 -45.708685 
L 232.018315 -45.684204 
L 232.437349 -45.659361 
L 232.856383 -45.634161 
L 233.275397 -45.608611 
L 233.694411 -45.582714 
L 234.113444 -45.556474 
L 234.532478 -45.529894 
L 234.951492 -45.502985 
L 235.370506 -45.475745 
L 235.78954 -45.448181 
L 236.208573 -45.420298 
L 236.627587 -45.392102 
L 237.046601 -45.363595 
L 237.465635 -45.334782 
L 237.884669 -45.305671 
L 238.303682 -45.276265 
L 238.722696 -45.246568 
L 239.14173 -45.216585 
L 239.560764 -45.186323 
L 239.979778 -45.155786 
L 240.398791 -45.124978 
L 240.817825 -45.093904 
L 241.236859 -45.062569 
L 241.655873 -45.030981 
L 242.074886 -44.999143 
L 242.49392 -44.967056 
L 242.912954 -44.93473 
L 243.331968 -44.902171 
L 243.750982 -44.86938 
L 244.170015 -44.836363 
L 244.589049 -44.803128 
L 245.008063 -44.769677 
L 245.427077 -44.736018 
L 245.846111 -44.702152 
L 246.265144 -44.668084 
L 246.684158 -44.633825 
L 247.103172 -44.599375 
L 247.522206 -44.564741 
L 247.94124 -44.529927 
L 248.360253 -44.494939 
L 248.779267 -44.45978 
L 249.198301 -44.424455 
L 249.617335 -44.388971 
L 250.036349 -44.353336 
L 250.455362 -44.317548 
L 250.874396 -44.281616 
L 251.29343 -44.24554 
L 251.712444 -44.209336 
L 252.131458 -44.172998 
L 252.550491 -44.136535 
L 252.969525 -44.09995 
L 253.388539 -44.06325 
L 253.807553 -44.02644 
L 254.226586 -43.989523 
L 254.64562 -43.952503 
L 254.64562 -36.490625 
L 254.64562 -36.490625 
L 254.226586 -36.490625 
L 253.807553 -36.490625 
L 253.388539 -36.490625 
L 252.969525 -36.490625 
L 252.550491 -36.490625 
L 252.131458 -36.490625 
L 251.712444 -36.490625 
L 251.29343 -36.490625 
L 250.874396 -36.490625 
L 250.455362 -36.490625 
L 250.036349 -36.490625 
L 249.617335 -36.490625 
L 249.198301 -36.490625 
L 248.779267 -36.490625 
L 248.360253 -36.490625 
L 247.94124 -36.490625 
L 247.522206 -36.490625 
L 247.103172 -36.490625 
L 246.684158 -36.490625 
L 246.265144 -36.490625 
L 245.846111 -36.490625 
L 245.427077 -36.490625 
L 245.008063 -36.490625 
L 244.589049 -36.490625 
L 244.170015 -36.490625 
L 243.750982 -36.490625 
L 243.331968 -36.490625 
L 242.912954 -36.490625 
L 242.49392 -36.490625 
L 242.074886 -36.490625 
L 241.655873 -36.490625 
L 241.236859 -36.490625 
L 240.817825 -36.490625 
L 240.398791 -36.490625 
L 239.979778 -36.490625 
L 239.560764 -36.490625 
L 239.14173 -36.490625 
L 238.722696 -36.490625 
L 238.303682 -36.490625 
L 237.884669 -36.490625 
L 237.465635 -36.490625 
L 237.046601 -36.490625 
L 236.627587 -36.490625 
L 236.208573 -36.490625 
L 235.78954 -36.490625 
L 235.370506 -36.490625 
L 234.951492 -36.490625 
L 234.532478 -36.490625 
L 234.113444 -36.490625 
L 233.694411 -36.490625 
L 233.275397 -36.490625 
L 232.856383 -36.490625 
L 232.437349 -36.490625 
L 232.018315 -36.490625 
L 231.599302 -36.490625 
L 231.180288 -36.490625 
L 230.761254 -36.490625 
z
" id="m28e2fe13a9" style="stroke:#8c564b;stroke-opacity:0.5;"/>
    </defs>
    <g clip-path="url(#pd67a126957)">
     <use style="fill:#8c564b;fill-opacity:0.5;stroke:#8c564b;stroke-opacity:0.5;" x="0" xlink:href="#m28e2fe13a9" y="221.50625"/>
    </g>
   </g>
   <g id="PolyCollection_7">
    <defs>
     <path d="M 255.064634 -36.490625 
L 255.064634 -40.203007 
L 255.483648 -40.184403 
L 255.902682 -40.165755 
L 256.321715 -40.147066 
L 256.740729 -40.128338 
L 257.159743 -40.109573 
L 257.578777 -40.090773 
L 257.997811 -40.07194 
L 258.416824 -40.053077 
L 258.835838 -40.034187 
L 259.254872 -40.01527 
L 259.673906 -39.996328 
L 260.09292 -39.977367 
L 260.511933 -39.958386 
L 260.930967 -39.939386 
L 261.350001 -39.920372 
L 261.769015 -39.901344 
L 262.188029 -39.882306 
L 262.607062 -39.863258 
L 263.026096 -39.844202 
L 263.44511 -39.825142 
L 263.864124 -39.806079 
L 264.283157 -39.787013 
L 264.702191 -39.767949 
L 265.121205 -39.748887 
L 265.540219 -39.72983 
L 265.959253 -39.710778 
L 266.378286 -39.691734 
L 266.7973 -39.672701 
L 267.216314 -39.653679 
L 267.635348 -39.63467 
L 268.054382 -39.615676 
L 268.473395 -39.596699 
L 268.892409 -39.577741 
L 269.311443 -39.558802 
L 269.730477 -39.539885 
L 270.149491 -39.520992 
L 270.568504 -39.502125 
L 270.987538 -39.483282 
L 271.406572 -39.464468 
L 271.825586 -39.445684 
L 272.2446 -39.426931 
L 272.663633 -39.408211 
L 273.082667 -39.389523 
L 273.501681 -39.370872 
L 273.920695 -39.352258 
L 274.339728 -39.333682 
L 274.758762 -39.315144 
L 275.177776 -39.296649 
L 275.59679 -39.278196 
L 276.015824 -39.259785 
L 276.434857 -39.241419 
L 276.853871 -39.223099 
L 277.272885 -39.204827 
L 277.691919 -39.186602 
L 278.110953 -39.168427 
L 278.529966 -39.150304 
L 278.94898 -39.132232 
L 279.368014 -39.114212 
L 279.787048 -39.096246 
L 280.206062 -39.078336 
L 280.625075 -39.060481 
L 281.044109 -39.042683 
L 281.463143 -39.024943 
L 281.882157 -39.007263 
L 282.301171 -38.989642 
L 282.720204 -38.972082 
L 283.139238 -38.954583 
L 283.558252 -38.937147 
L 283.977266 -38.919775 
L 284.396299 -38.902466 
L 284.815333 -38.885223 
L 285.234347 -38.868046 
L 285.653361 -38.850936 
L 286.072395 -38.833892 
L 286.491428 -38.816916 
L 286.910442 -38.800009 
L 287.329456 -38.783172 
L 287.74849 -38.766404 
L 288.167524 -38.749708 
L 288.586537 -38.733083 
L 289.005551 -38.71653 
L 289.424585 -38.700049 
L 289.843619 -38.683641 
L 290.262633 -38.667308 
L 290.262633 -36.490625 
L 290.262633 -36.490625 
L 289.843619 -36.490625 
L 289.424585 -36.490625 
L 289.005551 -36.490625 
L 288.586537 -36.490625 
L 288.167524 -36.490625 
L 287.74849 -36.490625 
L 287.329456 -36.490625 
L 286.910442 -36.490625 
L 286.491428 -36.490625 
L 286.072395 -36.490625 
L 285.653361 -36.490625 
L 285.234347 -36.490625 
L 284.815333 -36.490625 
L 284.396299 -36.490625 
L 283.977266 -36.490625 
L 283.558252 -36.490625 
L 283.139238 -36.490625 
L 282.720204 -36.490625 
L 282.301171 -36.490625 
L 281.882157 -36.490625 
L 281.463143 -36.490625 
L 281.044109 -36.490625 
L 280.625075 -36.490625 
L 280.206062 -36.490625 
L 279.787048 -36.490625 
L 279.368014 -36.490625 
L 278.94898 -36.490625 
L 278.529966 -36.490625 
L 278.110953 -36.490625 
L 277.691919 -36.490625 
L 277.272885 -36.490625 
L 276.853871 -36.490625 
L 276.434857 -36.490625 
L 276.015824 -36.490625 
L 275.59679 -36.490625 
L 275.177776 -36.490625 
L 274.758762 -36.490625 
L 274.339728 -36.490625 
L 273.920695 -36.490625 
L 273.501681 -36.490625 
L 273.082667 -36.490625 
L 272.663633 -36.490625 
L 272.2446 -36.490625 
L 271.825586 -36.490625 
L 271.406572 -36.490625 
L 270.987538 -36.490625 
L 270.568504 -36.490625 
L 270.149491 -36.490625 
L 269.730477 -36.490625 
L 269.311443 -36.490625 
L 268.892409 -36.490625 
L 268.473395 -36.490625 
L 268.054382 -36.490625 
L 267.635348 -36.490625 
L 267.216314 -36.490625 
L 266.7973 -36.490625 
L 266.378286 -36.490625 
L 265.959253 -36.490625 
L 265.540219 -36.490625 
L 265.121205 -36.490625 
L 264.702191 -36.490625 
L 264.283157 -36.490625 
L 263.864124 -36.490625 
L 263.44511 -36.490625 
L 263.026096 -36.490625 
L 262.607062 -36.490625 
L 262.188029 -36.490625 
L 261.769015 -36.490625 
L 261.350001 -36.490625 
L 260.930967 -36.490625 
L 260.511933 -36.490625 
L 260.09292 -36.490625 
L 259.673906 -36.490625 
L 259.254872 -36.490625 
L 258.835838 -36.490625 
L 258.416824 -36.490625 
L 257.997811 -36.490625 
L 257.578777 -36.490625 
L 257.159743 -36.490625 
L 256.740729 -36.490625 
L 256.321715 -36.490625 
L 255.902682 -36.490625 
L 255.483648 -36.490625 
L 255.064634 -36.490625 
z
" id="m7545ec92b5" style="stroke:#e377c2;stroke-opacity:0.5;"/>
    </defs>
    <g clip-path="url(#pd67a126957)">
     <use style="fill:#e377c2;fill-opacity:0.5;stroke:#e377c2;stroke-opacity:0.5;" x="0" xlink:href="#m7545ec92b5" y="221.50625"/>
    </g>
   </g>
   <g id="PolyCollection_8">
    <defs>
     <path d="M 290.681646 -36.490625 
L 290.681646 -38.651048 
L 291.10068 -38.634863 
L 291.519714 -38.618753 
L 291.938728 -38.602719 
L 292.357742 -38.586761 
L 292.776775 -38.57088 
L 293.195809 -38.555075 
L 293.614823 -38.539348 
L 294.033837 -38.523699 
L 294.452871 -38.508127 
L 294.871904 -38.492634 
L 295.290918 -38.477221 
L 295.709932 -38.461886 
L 296.128966 -38.44663 
L 296.547999 -38.431455 
L 296.967013 -38.41636 
L 297.386027 -38.401345 
L 297.805061 -38.386409 
L 298.224095 -38.371555 
L 298.643108 -38.356782 
L 299.062122 -38.34209 
L 299.481156 -38.32748 
L 299.90019 -38.31295 
L 300.319204 -38.298503 
L 300.738217 -38.284138 
L 301.157251 -38.269854 
L 301.576285 -38.255652 
L 301.995299 -38.241533 
L 302.414313 -38.227496 
L 302.833346 -38.213541 
L 303.25238 -38.199668 
L 303.671394 -38.185878 
L 304.090408 -38.172171 
L 304.509442 -38.158545 
L 304.928475 -38.145003 
L 305.347489 -38.131543 
L 305.766503 -38.118166 
L 306.185537 -38.104871 
L 306.60457 -38.091658 
L 307.023584 -38.078529 
L 307.442598 -38.065482 
L 307.861632 -38.052516 
L 308.280666 -38.039633 
L 308.699679 -38.026833 
L 309.118693 -38.014115 
L 309.537727 -38.001478 
L 309.956761 -37.988924 
L 310.375775 -37.976452 
L 310.794788 -37.964061 
L 311.213822 -37.951752 
L 311.632856 -37.939524 
L 312.05187 -37.927378 
L 312.470884 -37.915313 
L 312.889917 -37.903328 
L 313.308951 -37.891425 
L 313.727965 -37.879602 
L 314.146979 -37.86786 
L 314.566013 -37.856198 
L 314.985046 -37.844616 
L 315.40406 -37.833114 
L 315.823074 -37.821692 
L 316.242108 -37.810349 
L 316.661141 -37.799085 
L 317.080155 -37.787901 
L 317.499169 -37.776795 
L 317.918203 -37.765768 
L 318.337237 -37.754818 
L 318.75625 -37.743947 
L 319.175264 -37.733154 
L 319.594298 -37.722438 
L 320.013332 -37.7118 
L 320.432346 -37.701238 
L 320.851359 -37.690753 
L 321.270393 -37.680345 
L 321.689427 -37.670012 
L 322.108441 -37.659756 
L 322.527455 -37.649575 
L 322.946488 -37.639468 
L 323.365522 -37.629437 
L 323.784536 -37.619481 
L 324.20355 -37.6096 
L 324.622584 -37.599791 
L 325.041617 -37.590057 
L 325.460631 -37.580396 
L 325.879645 -37.570808 
L 326.298679 -37.561292 
L 326.717712 -37.551849 
L 327.136726 -37.542478 
L 327.55574 -37.533179 
L 327.974774 -37.523951 
L 328.393808 -37.514794 
L 328.812821 -37.505707 
L 329.231835 -37.496692 
L 329.650869 -37.487745 
L 330.069903 -37.478869 
L 330.488917 -37.470062 
L 330.90793 -37.461323 
L 331.326964 -37.452654 
L 331.745998 -37.444052 
L 332.165012 -37.435518 
L 332.584026 -37.427052 
L 333.003059 -37.418652 
L 333.422093 -37.41032 
L 333.841107 -37.402054 
L 334.260121 -37.393854 
L 334.679155 -37.385719 
L 335.098188 -37.377649 
L 335.517202 -37.369645 
L 335.936216 -37.361705 
L 336.35525 -37.353829 
L 336.774284 -37.346017 
L 337.193297 -37.338269 
L 337.612311 -37.330583 
L 338.031345 -37.32296 
L 338.450379 -37.315399 
L 338.869392 -37.3079 
L 339.288406 -37.300463 
L 339.70744 -37.293086 
L 340.126474 -37.28577 
L 340.545488 -37.278515 
L 340.964501 -37.27132 
L 341.383535 -37.264184 
L 341.802569 -37.257108 
L 342.221583 -37.25009 
L 342.640597 -37.243132 
L 343.05963 -37.236231 
L 343.478664 -37.229387 
L 343.897678 -37.222602 
L 344.316692 -37.215873 
L 344.735726 -37.2092 
L 345.154759 -37.202584 
L 345.573773 -37.196024 
L 345.992787 -37.189519 
L 346.411821 -37.18307 
L 346.830855 -37.176675 
L 347.249868 -37.170334 
L 347.668882 -37.164048 
L 348.087916 -37.157815 
L 348.50695 -37.151635 
L 348.925963 -37.145508 
L 349.344977 -37.139434 
L 349.764011 -37.133411 
L 350.183045 -37.127441 
L 350.602059 -37.121522 
L 351.021072 -37.115654 
L 351.440106 -37.109836 
L 351.85914 -37.104069 
L 352.278154 -37.098352 
L 352.697168 -37.092685 
L 353.116201 -37.087066 
L 353.535235 -37.081497 
L 353.954249 -37.075976 
L 354.373263 -37.070503 
L 354.792297 -37.065079 
L 355.21133 -37.059701 
L 355.630344 -37.054371 
L 356.049358 -37.049087 
L 356.468392 -37.04385 
L 356.887426 -37.038658 
L 357.306439 -37.033513 
L 357.725453 -37.028413 
L 358.144487 -37.023358 
L 358.563521 -37.018347 
L 358.982535 -37.013381 
L 359.401548 -37.008459 
L 359.820582 -37.003581 
L 360.239616 -36.998746 
L 360.65863 -36.993954 
L 361.077643 -36.989204 
L 361.496677 -36.984497 
L 361.915711 -36.979832 
L 362.334725 -36.975209 
L 362.753739 -36.970627 
L 363.172772 -36.966085 
L 363.591806 -36.961585 
L 364.01082 -36.957125 
L 364.429834 -36.952705 
L 364.848868 -36.948325 
L 365.267901 -36.943984 
L 365.686915 -36.939683 
L 366.105929 -36.93542 
L 366.524963 -36.931196 
L 366.943997 -36.927009 
L 367.36301 -36.922861 
L 367.782024 -36.91875 
L 368.201058 -36.914677 
L 368.620092 -36.91064 
L 369.039106 -36.906641 
L 369.458119 -36.902677 
L 369.877153 -36.89875 
L 370.296187 -36.894858 
L 370.715201 -36.891002 
L 371.134214 -36.887181 
L 371.553248 -36.883395 
L 371.972282 -36.879643 
L 372.391296 -36.875926 
L 372.81031 -36.872243 
L 373.229343 -36.868593 
L 373.648377 -36.864977 
L 374.067391 -36.861395 
L 374.486405 -36.857845 
L 374.905439 -36.854328 
L 375.324472 -36.850843 
L 375.743486 -36.84739 
L 376.1625 -36.843969 
L 376.1625 -36.490625 
L 376.1625 -36.490625 
L 375.743486 -36.490625 
L 375.324472 -36.490625 
L 374.905439 -36.490625 
L 374.486405 -36.490625 
L 374.067391 -36.490625 
L 373.648377 -36.490625 
L 373.229343 -36.490625 
L 372.81031 -36.490625 
L 372.391296 -36.490625 
L 371.972282 -36.490625 
L 371.553248 -36.490625 
L 371.134214 -36.490625 
L 370.715201 -36.490625 
L 370.296187 -36.490625 
L 369.877153 -36.490625 
L 369.458119 -36.490625 
L 369.039106 -36.490625 
L 368.620092 -36.490625 
L 368.201058 -36.490625 
L 367.782024 -36.490625 
L 367.36301 -36.490625 
L 366.943997 -36.490625 
L 366.524963 -36.490625 
L 366.105929 -36.490625 
L 365.686915 -36.490625 
L 365.267901 -36.490625 
L 364.848868 -36.490625 
L 364.429834 -36.490625 
L 364.01082 -36.490625 
L 363.591806 -36.490625 
L 363.172772 -36.490625 
L 362.753739 -36.490625 
L 362.334725 -36.490625 
L 361.915711 -36.490625 
L 361.496677 -36.490625 
L 361.077643 -36.490625 
L 360.65863 -36.490625 
L 360.239616 -36.490625 
L 359.820582 -36.490625 
L 359.401548 -36.490625 
L 358.982535 -36.490625 
L 358.563521 -36.490625 
L 358.144487 -36.490625 
L 357.725453 -36.490625 
L 357.306439 -36.490625 
L 356.887426 -36.490625 
L 356.468392 -36.490625 
L 356.049358 -36.490625 
L 355.630344 -36.490625 
L 355.21133 -36.490625 
L 354.792297 -36.490625 
L 354.373263 -36.490625 
L 353.954249 -36.490625 
L 353.535235 -36.490625 
L 353.116201 -36.490625 
L 352.697168 -36.490625 
L 352.278154 -36.490625 
L 351.85914 -36.490625 
L 351.440106 -36.490625 
L 351.021072 -36.490625 
L 350.602059 -36.490625 
L 350.183045 -36.490625 
L 349.764011 -36.490625 
L 349.344977 -36.490625 
L 348.925963 -36.490625 
L 348.50695 -36.490625 
L 348.087916 -36.490625 
L 347.668882 -36.490625 
L 347.249868 -36.490625 
L 346.830855 -36.490625 
L 346.411821 -36.490625 
L 345.992787 -36.490625 
L 345.573773 -36.490625 
L 345.154759 -36.490625 
L 344.735726 -36.490625 
L 344.316692 -36.490625 
L 343.897678 -36.490625 
L 343.478664 -36.490625 
L 343.05963 -36.490625 
L 342.640597 -36.490625 
L 342.221583 -36.490625 
L 341.802569 -36.490625 
L 341.383535 -36.490625 
L 340.964501 -36.490625 
L 340.545488 -36.490625 
L 340.126474 -36.490625 
L 339.70744 -36.490625 
L 339.288406 -36.490625 
L 338.869392 -36.490625 
L 338.450379 -36.490625 
L 338.031345 -36.490625 
L 337.612311 -36.490625 
L 337.193297 -36.490625 
L 336.774284 -36.490625 
L 336.35525 -36.490625 
L 335.936216 -36.490625 
L 335.517202 -36.490625 
L 335.098188 -36.490625 
L 334.679155 -36.490625 
L 334.260121 -36.490625 
L 333.841107 -36.490625 
L 333.422093 -36.490625 
L 333.003059 -36.490625 
L 332.584026 -36.490625 
L 332.165012 -36.490625 
L 331.745998 -36.490625 
L 331.326964 -36.490625 
L 330.90793 -36.490625 
L 330.488917 -36.490625 
L 330.069903 -36.490625 
L 329.650869 -36.490625 
L 329.231835 -36.490625 
L 328.812821 -36.490625 
L 328.393808 -36.490625 
L 327.974774 -36.490625 
L 327.55574 -36.490625 
L 327.136726 -36.490625 
L 326.717712 -36.490625 
L 326.298679 -36.490625 
L 325.879645 -36.490625 
L 325.460631 -36.490625 
L 325.041617 -36.490625 
L 324.622584 -36.490625 
L 324.20355 -36.490625 
L 323.784536 -36.490625 
L 323.365522 -36.490625 
L 322.946488 -36.490625 
L 322.527455 -36.490625 
L 322.108441 -36.490625 
L 321.689427 -36.490625 
L 321.270393 -36.490625 
L 320.851359 -36.490625 
L 320.432346 -36.490625 
L 320.013332 -36.490625 
L 319.594298 -36.490625 
L 319.175264 -36.490625 
L 318.75625 -36.490625 
L 318.337237 -36.490625 
L 317.918203 -36.490625 
L 317.499169 -36.490625 
L 317.080155 -36.490625 
L 316.661141 -36.490625 
L 316.242108 -36.490625 
L 315.823074 -36.490625 
L 315.40406 -36.490625 
L 314.985046 -36.490625 
L 314.566013 -36.490625 
L 314.146979 -36.490625 
L 313.727965 -36.490625 
L 313.308951 -36.490625 
L 312.889917 -36.490625 
L 312.470884 -36.490625 
L 312.05187 -36.490625 
L 311.632856 -36.490625 
L 311.213822 -36.490625 
L 310.794788 -36.490625 
L 310.375775 -36.490625 
L 309.956761 -36.490625 
L 309.537727 -36.490625 
L 309.118693 -36.490625 
L 308.699679 -36.490625 
L 308.280666 -36.490625 
L 307.861632 -36.490625 
L 307.442598 -36.490625 
L 307.023584 -36.490625 
L 306.60457 -36.490625 
L 306.185537 -36.490625 
L 305.766503 -36.490625 
L 305.347489 -36.490625 
L 304.928475 -36.490625 
L 304.509442 -36.490625 
L 304.090408 -36.490625 
L 303.671394 -36.490625 
L 303.25238 -36.490625 
L 302.833346 -36.490625 
L 302.414313 -36.490625 
L 301.995299 -36.490625 
L 301.576285 -36.490625 
L 301.157251 -36.490625 
L 300.738217 -36.490625 
L 300.319204 -36.490625 
L 299.90019 -36.490625 
L 299.481156 -36.490625 
L 299.062122 -36.490625 
L 298.643108 -36.490625 
L 298.224095 -36.490625 
L 297.805061 -36.490625 
L 297.386027 -36.490625 
L 296.967013 -36.490625 
L 296.547999 -36.490625 
L 296.128966 -36.490625 
L 295.709932 -36.490625 
L 295.290918 -36.490625 
L 294.871904 -36.490625 
L 294.452871 -36.490625 
L 294.033837 -36.490625 
L 293.614823 -36.490625 
L 293.195809 -36.490625 
L 292.776775 -36.490625 
L 292.357742 -36.490625 
L 291.938728 -36.490625 
L 291.519714 -36.490625 
L 291.10068 -36.490625 
L 290.681646 -36.490625 
z
" id="mabf9f79ab2" style="stroke:#7f7f7f;stroke-opacity:0.5;"/>
    </defs>
    <g clip-path="url(#pd67a126957)">
     <use style="fill:#7f7f7f;fill-opacity:0.5;stroke:#7f7f7f;stroke-opacity:0.5;" x="0" xlink:href="#mabf9f79ab2" y="221.50625"/>
    </g>
   </g>
   <g id="line2d_1">
    <path clip-path="url(#pd67a126957)" d="M 41.3625 185.015625 
L 41.3625 182.91591 
" style="fill:none;stroke:#1f77b4;stroke-linecap:round;stroke-width:2;"/>
   </g>
   <g id="line2d_2">
    <path clip-path="url(#pd67a126957)" d="M 127.262377 185.015625 
L 127.262377 172.053162 
" style="fill:none;stroke:#1f77b4;stroke-linecap:round;stroke-width:2;"/>
   </g>
   <g id="line2d_3">
    <path clip-path="url(#pd67a126957)" d="M 127.681401 185.015625 
L 127.681401 150.188903 
" style="fill:none;stroke:#ff7f0e;stroke-linecap:round;stroke-width:2;"/>
   </g>
   <g id="line2d_4">
    <path clip-path="url(#pd67a126957)" d="M 162.8794 185.015625 
L 162.8794 125.617746 
" style="fill:none;stroke:#ff7f0e;stroke-linecap:round;stroke-width:2;"/>
   </g>
   <g id="line2d_5">
    <path clip-path="url(#pd67a126957)" d="M 163.298424 185.015625 
L 163.298424 65.626008 
" style="fill:none;stroke:#2ca02c;stroke-linecap:round;stroke-width:2;"/>
   </g>
   <g id="line2d_6">
    <path clip-path="url(#pd67a126957)" d="M 187.18278 185.015625 
L 187.18278 36.761077 
" style="fill:none;stroke:#2ca02c;stroke-linecap:round;stroke-width:2;"/>
   </g>
   <g id="line2d_7">
    <path clip-path="url(#pd67a126957)" d="M 187.601803 185.015625 
L 187.601803 110.701349 
" style="fill:none;stroke:#d62728;stroke-linecap:round;stroke-width:2;"/>
   </g>
   <g id="line2d_8">
    <path clip-path="url(#pd67a126957)" d="M 208.972017 185.015625 
L 208.972017 105.763341 
" style="fill:none;stroke:#d62728;stroke-linecap:round;stroke-width:2;"/>
   </g>
   <g id="line2d_9">
    <path clip-path="url(#pd67a126957)" d="M 209.391051 185.015625 
L 209.391051 155.296757 
" style="fill:none;stroke:#9467bd;stroke-linecap:round;stroke-width:2;"/>
   </g>
   <g id="line2d_10">
    <path clip-path="url(#pd67a126957)" d="M 230.34222 185.015625 
L 230.34222 157.147714 
" style="fill:none;stroke:#9467bd;stroke-linecap:round;stroke-width:2;"/>
   </g>
   <g id="line2d_11">
    <path clip-path="url(#pd67a126957)" d="M 230.761254 185.015625 
L 230.761254 175.749698 
" style="fill:none;stroke:#8c564b;stroke-linecap:round;stroke-width:2;"/>
   </g>
   <g id="line2d_12">
    <path clip-path="url(#pd67a126957)" d="M 254.64562 185.015625 
L 254.64562 177.553747 
" style="fill:none;stroke:#8c564b;stroke-linecap:round;stroke-width:2;"/>
   </g>
   <g id="line2d_13">
    <path clip-path="url(#pd67a126957)" d="M 255.064634 185.015625 
L 255.064634 181.303243 
" style="fill:none;stroke:#e377c2;stroke-linecap:round;stroke-width:2;"/>
   </g>
   <g id="line2d_14">
    <path clip-path="url(#pd67a126957)" d="M 290.262633 185.015625 
L 290.262633 182.838942 
" style="fill:none;stroke:#e377c2;stroke-linecap:round;stroke-width:2;"/>
   </g>
   <g id="line2d_15">
    <path clip-path="url(#pd67a126957)" d="M 290.681646 185.015625 
L 290.681646 182.855202 
" style="fill:none;stroke:#7f7f7f;stroke-linecap:round;stroke-width:2;"/>
   </g>
   <g id="line2d_16">
    <path clip-path="url(#pd67a126957)" d="M 376.1625 185.015625 
L 376.1625 184.662281 
" style="fill:none;stroke:#7f7f7f;stroke-linecap:round;stroke-width:2;"/>
   </g>
   <g id="line2d_17">
    <path clip-path="url(#pd67a126957)" d="M 41.3625 182.91591 
L 55.190285 182.135637 
L 67.341975 181.230271 
L 78.236594 180.200892 
L 88.293165 179.032943 
L 97.930712 177.688627 
L 107.149235 176.175066 
L 115.948735 174.510243 
L 125.167258 172.534172 
L 127.262377 172.053162 
L 127.681401 150.188903 
L 133.966758 146.149432 
L 141.090163 141.296256 
L 149.889662 135.015041 
L 162.8794 125.617746 
L 163.298424 65.626008 
L 169.164757 57.509578 
L 173.774018 51.48419 
L 177.964256 46.373427 
L 181.73547 42.141177 
L 185.087661 38.719323 
L 187.18278 36.761077 
L 187.601803 110.701349 
L 191.373018 109.158175 
L 194.725208 108.010361 
L 198.077398 107.087793 
L 201.429589 106.401857 
L 204.781779 105.961148 
L 208.133969 105.771265 
L 208.972017 105.763341 
L 209.391051 155.296757 
L 214.419336 155.421222 
L 219.447622 155.755576 
L 224.894921 156.343568 
L 230.34222 157.147714 
L 230.761254 175.749698 
L 241.655873 176.475269 
L 254.64562 177.553747 
L 255.064634 181.303243 
L 300.738217 183.222112 
L 322.527455 183.856675 
L 346.411821 184.32318 
L 375.324472 184.655407 
L 376.1625 184.662281 
L 376.1625 184.662281 
" style="fill:none;stroke:#000000;stroke-linecap:round;stroke-width:2;"/>
   </g>
   <g id="patch_3">
    <path d="M 41.3625 185.015625 
L 41.3625 21.935625 
" style="fill:none;stroke:#262626;stroke-linecap:square;stroke-linejoin:miter;stroke-width:0.8;"/>
   </g>
   <g id="patch_4">
    <path d="M 376.1625 185.015625 
L 376.1625 21.935625 
" style="fill:none;stroke:#262626;stroke-linecap:square;stroke-linejoin:miter;stroke-width:0.8;"/>
   </g>
   <g id="patch_5">
    <path d="M 41.3625 185.015625 
L 376.1625 185.015625 
" style="fill:none;stroke:#262626;stroke-linecap:square;stroke-linejoin:miter;stroke-width:0.8;"/>
   </g>
   <g id="patch_6">
    <path d="M 41.3625 21.935625 
L 376.1625 21.935625 
" style="fill:none;stroke:#262626;stroke-linecap:square;stroke-linejoin:miter;stroke-width:0.8;"/>
   </g>
   <g id="text_17">
    <!-- Dequantization distribution for 8 discrete values -->
    <g style="fill:#262626;" transform="translate(82.700625 15.935625)scale(0.12 -0.12)">
     <defs>
      <path d="M 7.71875 0 
L 7.71875 71.578125 
L 32.375 71.578125 
Q 40.71875 71.578125 45.125 70.5625 
Q 51.265625 69.140625 55.609375 65.4375 
Q 61.28125 60.640625 64.078125 53.1875 
Q 66.890625 45.75 66.890625 36.1875 
Q 66.890625 28.03125 64.984375 21.734375 
Q 63.09375 15.4375 60.109375 11.296875 
Q 57.125 7.171875 53.578125 4.796875 
Q 50.046875 2.4375 45.046875 1.21875 
Q 40.046875 0 33.546875 0 
z
M 17.1875 8.453125 
L 32.46875 8.453125 
Q 39.546875 8.453125 43.578125 9.765625 
Q 47.609375 11.078125 50 13.484375 
Q 53.375 16.84375 55.25 22.53125 
Q 57.125 28.21875 57.125 36.328125 
Q 57.125 47.5625 53.4375 53.59375 
Q 49.75 59.625 44.484375 61.671875 
Q 40.671875 63.140625 32.234375 63.140625 
L 17.1875 63.140625 
z
" id="ArialMT-68"/>
      <path d="M 42.09375 16.703125 
L 51.171875 15.578125 
Q 49.03125 7.625 43.21875 3.21875 
Q 37.40625 -1.171875 28.375 -1.171875 
Q 17 -1.171875 10.328125 5.828125 
Q 3.65625 12.84375 3.65625 25.484375 
Q 3.65625 38.578125 10.390625 45.796875 
Q 17.140625 53.03125 27.875 53.03125 
Q 38.28125 53.03125 44.875 45.953125 
Q 51.46875 38.875 51.46875 26.03125 
Q 51.46875 25.25 51.421875 23.6875 
L 12.75 23.6875 
Q 13.234375 15.140625 17.578125 10.59375 
Q 21.921875 6.0625 28.421875 6.0625 
Q 33.25 6.0625 36.671875 8.59375 
Q 40.09375 11.140625 42.09375 16.703125 
z
M 13.234375 30.90625 
L 42.1875 30.90625 
Q 41.609375 37.453125 38.875 40.71875 
Q 34.671875 45.796875 27.984375 45.796875 
Q 21.921875 45.796875 17.796875 41.75 
Q 13.671875 37.703125 13.234375 30.90625 
z
" id="ArialMT-101"/>
      <path d="M 39.65625 -19.875 
L 39.65625 5.515625 
Q 37.59375 2.640625 33.90625 0.734375 
Q 30.21875 -1.171875 26.078125 -1.171875 
Q 16.84375 -1.171875 10.171875 6.203125 
Q 3.515625 13.578125 3.515625 26.421875 
Q 3.515625 34.234375 6.21875 40.421875 
Q 8.9375 46.625 14.078125 49.828125 
Q 19.234375 53.03125 25.390625 53.03125 
Q 35.015625 53.03125 40.53125 44.921875 
L 40.53125 51.859375 
L 48.4375 51.859375 
L 48.4375 -19.875 
z
M 12.546875 26.078125 
Q 12.546875 16.0625 16.75 11.0625 
Q 20.953125 6.0625 26.8125 6.0625 
Q 32.421875 6.0625 36.46875 10.8125 
Q 40.53125 15.578125 40.53125 25.296875 
Q 40.53125 35.640625 36.25 40.859375 
Q 31.984375 46.09375 26.21875 46.09375 
Q 20.515625 46.09375 16.53125 41.234375 
Q 12.546875 36.375 12.546875 26.078125 
z
" id="ArialMT-113"/>
      <path d="M 40.578125 0 
L 40.578125 7.625 
Q 34.515625 -1.171875 24.125 -1.171875 
Q 19.53125 -1.171875 15.546875 0.578125 
Q 11.578125 2.34375 9.640625 5 
Q 7.71875 7.671875 6.9375 11.53125 
Q 6.390625 14.109375 6.390625 19.734375 
L 6.390625 51.859375 
L 15.1875 51.859375 
L 15.1875 23.09375 
Q 15.1875 16.21875 15.71875 13.8125 
Q 16.546875 10.359375 19.234375 8.375 
Q 21.921875 6.390625 25.875 6.390625 
Q 29.828125 6.390625 33.296875 8.421875 
Q 36.765625 10.453125 38.203125 13.9375 
Q 39.65625 17.4375 39.65625 24.078125 
L 39.65625 51.859375 
L 48.4375 51.859375 
L 48.4375 0 
z
" id="ArialMT-117"/>
      <path d="M 6.59375 0 
L 6.59375 51.859375 
L 14.5 51.859375 
L 14.5 44.484375 
Q 20.21875 53.03125 31 53.03125 
Q 35.6875 53.03125 39.625 51.34375 
Q 43.5625 49.65625 45.515625 46.921875 
Q 47.46875 44.1875 48.25 40.4375 
Q 48.734375 37.984375 48.734375 31.890625 
L 48.734375 0 
L 39.9375 0 
L 39.9375 31.546875 
Q 39.9375 36.921875 38.90625 39.578125 
Q 37.890625 42.234375 35.28125 43.8125 
Q 32.671875 45.40625 29.15625 45.40625 
Q 23.53125 45.40625 19.453125 41.84375 
Q 15.375 38.28125 15.375 28.328125 
L 15.375 0 
z
" id="ArialMT-110"/>
      <path id="ArialMT-32"/>
      <path d="M 40.234375 0 
L 40.234375 6.546875 
Q 35.296875 -1.171875 25.734375 -1.171875 
Q 19.53125 -1.171875 14.328125 2.25 
Q 9.125 5.671875 6.265625 11.796875 
Q 3.421875 17.921875 3.421875 25.875 
Q 3.421875 33.640625 6 39.96875 
Q 8.59375 46.296875 13.765625 49.65625 
Q 18.953125 53.03125 25.34375 53.03125 
Q 30.03125 53.03125 33.6875 51.046875 
Q 37.359375 49.078125 39.65625 45.90625 
L 39.65625 71.578125 
L 48.390625 71.578125 
L 48.390625 0 
z
M 12.453125 25.875 
Q 12.453125 15.921875 16.640625 10.984375 
Q 20.84375 6.0625 26.5625 6.0625 
Q 32.328125 6.0625 36.34375 10.765625 
Q 40.375 15.484375 40.375 25.140625 
Q 40.375 35.796875 36.265625 40.765625 
Q 32.171875 45.75 26.171875 45.75 
Q 20.3125 45.75 16.375 40.96875 
Q 12.453125 36.1875 12.453125 25.875 
z
" id="ArialMT-100"/>
      <path d="M 3.078125 15.484375 
L 11.765625 16.84375 
Q 12.5 11.625 15.84375 8.84375 
Q 19.1875 6.0625 25.203125 6.0625 
Q 31.25 6.0625 34.171875 8.515625 
Q 37.109375 10.984375 37.109375 14.3125 
Q 37.109375 17.28125 34.515625 19 
Q 32.71875 20.171875 25.53125 21.96875 
Q 15.875 24.421875 12.140625 26.203125 
Q 8.40625 27.984375 6.46875 31.125 
Q 4.546875 34.28125 4.546875 38.09375 
Q 4.546875 41.546875 6.125 44.5 
Q 7.71875 47.46875 10.453125 49.421875 
Q 12.5 50.921875 16.03125 51.96875 
Q 19.578125 53.03125 23.640625 53.03125 
Q 29.734375 53.03125 34.34375 51.265625 
Q 38.96875 49.515625 41.15625 46.5 
Q 43.359375 43.5 44.1875 38.484375 
L 35.59375 37.3125 
Q 35.015625 41.3125 32.203125 43.546875 
Q 29.390625 45.796875 24.265625 45.796875 
Q 18.21875 45.796875 15.625 43.796875 
Q 13.03125 41.796875 13.03125 39.109375 
Q 13.03125 37.40625 14.109375 36.03125 
Q 15.1875 34.625 17.484375 33.6875 
Q 18.796875 33.203125 25.25 31.453125 
Q 34.578125 28.953125 38.25 27.359375 
Q 41.9375 25.78125 44.03125 22.75 
Q 46.140625 19.734375 46.140625 15.234375 
Q 46.140625 10.84375 43.578125 6.953125 
Q 41.015625 3.078125 36.171875 0.953125 
Q 31.34375 -1.171875 25.25 -1.171875 
Q 15.140625 -1.171875 9.84375 3.03125 
Q 4.546875 7.234375 3.078125 15.484375 
z
" id="ArialMT-115"/>
      <path d="M 8.6875 0 
L 8.6875 45.015625 
L 0.921875 45.015625 
L 0.921875 51.859375 
L 8.6875 51.859375 
L 8.6875 57.375 
Q 8.6875 62.59375 9.625 65.140625 
Q 10.890625 68.5625 14.078125 70.671875 
Q 17.28125 72.796875 23.046875 72.796875 
Q 26.765625 72.796875 31.25 71.921875 
L 29.9375 64.265625 
Q 27.203125 64.75 24.75 64.75 
Q 20.75 64.75 19.09375 63.03125 
Q 17.4375 61.328125 17.4375 56.640625 
L 17.4375 51.859375 
L 27.546875 51.859375 
L 27.546875 45.015625 
L 17.4375 45.015625 
L 17.4375 0 
z
" id="ArialMT-102"/>
      <path d="M 40.4375 19 
L 49.078125 17.875 
Q 47.65625 8.9375 41.8125 3.875 
Q 35.984375 -1.171875 27.484375 -1.171875 
Q 16.84375 -1.171875 10.375 5.78125 
Q 3.90625 12.75 3.90625 25.734375 
Q 3.90625 34.125 6.6875 40.421875 
Q 9.46875 46.734375 15.15625 49.875 
Q 20.84375 53.03125 27.546875 53.03125 
Q 35.984375 53.03125 41.359375 48.75 
Q 46.734375 44.484375 48.25 36.625 
L 39.703125 35.296875 
Q 38.484375 40.53125 35.375 43.15625 
Q 32.28125 45.796875 27.875 45.796875 
Q 21.234375 45.796875 17.078125 41.03125 
Q 12.9375 36.28125 12.9375 25.984375 
Q 12.9375 15.53125 16.9375 10.796875 
Q 20.953125 6.0625 27.390625 6.0625 
Q 32.5625 6.0625 36.03125 9.234375 
Q 39.5 12.40625 40.4375 19 
z
" id="ArialMT-99"/>
      <path d="M 21 0 
L 1.265625 51.859375 
L 10.546875 51.859375 
L 21.6875 20.796875 
Q 23.484375 15.765625 25 10.359375 
Q 26.171875 14.453125 28.265625 20.21875 
L 39.796875 51.859375 
L 48.828125 51.859375 
L 29.203125 0 
z
" id="ArialMT-118"/>
     </defs>
     <use xlink:href="#ArialMT-68"/>
     <use x="72.216797" xlink:href="#ArialMT-101"/>
     <use x="127.832031" xlink:href="#ArialMT-113"/>
     <use x="183.447266" xlink:href="#ArialMT-117"/>
     <use x="239.0625" xlink:href="#ArialMT-97"/>
     <use x="294.677734" xlink:href="#ArialMT-110"/>
     <use x="350.292969" xlink:href="#ArialMT-116"/>
     <use x="378.076172" xlink:href="#ArialMT-105"/>
     <use x="400.292969" xlink:href="#ArialMT-122"/>
     <use x="450.292969" xlink:href="#ArialMT-97"/>
     <use x="505.908203" xlink:href="#ArialMT-116"/>
     <use x="533.691406" xlink:href="#ArialMT-105"/>
     <use x="555.908203" xlink:href="#ArialMT-111"/>
     <use x="611.523438" xlink:href="#ArialMT-110"/>
     <use x="667.138672" xlink:href="#ArialMT-32"/>
     <use x="694.921875" xlink:href="#ArialMT-100"/>
     <use x="750.537109" xlink:href="#ArialMT-105"/>
     <use x="772.753906" xlink:href="#ArialMT-115"/>
     <use x="822.753906" xlink:href="#ArialMT-116"/>
     <use x="850.537109" xlink:href="#ArialMT-114"/>
     <use x="883.837891" xlink:href="#ArialMT-105"/>
     <use x="906.054688" xlink:href="#ArialMT-98"/>
     <use x="961.669922" xlink:href="#ArialMT-117"/>
     <use x="1017.285156" xlink:href="#ArialMT-116"/>
     <use x="1045.068359" xlink:href="#ArialMT-105"/>
     <use x="1067.285156" xlink:href="#ArialMT-111"/>
     <use x="1122.900391" xlink:href="#ArialMT-110"/>
     <use x="1178.515625" xlink:href="#ArialMT-32"/>
     <use x="1206.298828" xlink:href="#ArialMT-102"/>
     <use x="1234.082031" xlink:href="#ArialMT-111"/>
     <use x="1289.697266" xlink:href="#ArialMT-114"/>
     <use x="1322.998047" xlink:href="#ArialMT-32"/>
     <use x="1350.78125" xlink:href="#ArialMT-56"/>
     <use x="1406.396484" xlink:href="#ArialMT-32"/>
     <use x="1434.179688" xlink:href="#ArialMT-100"/>
     <use x="1489.794922" xlink:href="#ArialMT-105"/>
     <use x="1512.011719" xlink:href="#ArialMT-115"/>
     <use x="1562.011719" xlink:href="#ArialMT-99"/>
     <use x="1612.011719" xlink:href="#ArialMT-114"/>
     <use x="1645.3125" xlink:href="#ArialMT-101"/>
     <use x="1700.927734" xlink:href="#ArialMT-116"/>
     <use x="1728.710938" xlink:href="#ArialMT-101"/>
     <use x="1784.326172" xlink:href="#ArialMT-32"/>
     <use x="1812.109375" xlink:href="#ArialMT-118"/>
     <use x="1862.109375" xlink:href="#ArialMT-97"/>
     <use x="1917.724609" xlink:href="#ArialMT-108"/>
     <use x="1939.941406" xlink:href="#ArialMT-117"/>
     <use x="1995.556641" xlink:href="#ArialMT-101"/>
     <use x="2051.171875" xlink:href="#ArialMT-115"/>
    </g>
   </g>
   <g id="legend_1">
    <g id="patch_7">
     <path d="M 331.601562 143.098125 
L 369.1625 143.098125 
Q 371.1625 143.098125 371.1625 141.098125 
L 371.1625 28.935625 
Q 371.1625 26.935625 369.1625 26.935625 
L 331.601562 26.935625 
Q 329.601562 26.935625 329.601562 28.935625 
L 329.601562 141.098125 
Q 329.601562 143.098125 331.601562 143.098125 
z
" style="fill:#ffffff;opacity:0.8;stroke:#cccccc;stroke-linejoin:miter;"/>
    </g>
    <g id="patch_8">
     <path d="M 333.601562 38.093437 
L 353.601562 38.093437 
L 353.601562 31.093437 
L 333.601562 31.093437 
z
" style="fill:#1f77b4;fill-opacity:0.5;stroke:#1f77b4;stroke-linejoin:miter;stroke-opacity:0.5;"/>
    </g>
    <g id="text_18">
     <!-- 0 -->
     <g style="fill:#262626;" transform="translate(361.601562 38.093437)scale(0.1 -0.1)">
      <use xlink:href="#ArialMT-48"/>
     </g>
    </g>
    <g id="patch_9">
     <path d="M 333.601562 52.23875 
L 353.601562 52.23875 
L 353.601562 45.23875 
L 333.601562 45.23875 
z
" style="fill:#ff7f0e;fill-opacity:0.5;stroke:#ff7f0e;stroke-linejoin:miter;stroke-opacity:0.5;"/>
    </g>
    <g id="text_19">
     <!-- 1 -->
     <g style="fill:#262626;" transform="translate(361.601562 52.23875)scale(0.1 -0.1)">
      <use xlink:href="#ArialMT-49"/>
     </g>
    </g>
    <g id="patch_10">
     <path d="M 333.601562 66.384062 
L 353.601562 66.384062 
L 353.601562 59.384062 
L 333.601562 59.384062 
z
" style="fill:#2ca02c;fill-opacity:0.5;stroke:#2ca02c;stroke-linejoin:miter;stroke-opacity:0.5;"/>
    </g>
    <g id="text_20">
     <!-- 2 -->
     <g style="fill:#262626;" transform="translate(361.601562 66.384062)scale(0.1 -0.1)">
      <use xlink:href="#ArialMT-50"/>
     </g>
    </g>
    <g id="patch_11">
     <path d="M 333.601562 80.529375 
L 353.601562 80.529375 
L 353.601562 73.529375 
L 333.601562 73.529375 
z
" style="fill:#d62728;fill-opacity:0.5;stroke:#d62728;stroke-linejoin:miter;stroke-opacity:0.5;"/>
    </g>
    <g id="text_21">
     <!-- 3 -->
     <g style="fill:#262626;" transform="translate(361.601562 80.529375)scale(0.1 -0.1)">
      <defs>
       <path d="M 4.203125 18.890625 
L 12.984375 20.0625 
Q 14.5 12.59375 18.140625 9.296875 
Q 21.78125 6 27 6 
Q 33.203125 6 37.46875 10.296875 
Q 41.75 14.59375 41.75 20.953125 
Q 41.75 27 37.796875 30.921875 
Q 33.84375 34.859375 27.734375 34.859375 
Q 25.25 34.859375 21.53125 33.890625 
L 22.515625 41.609375 
Q 23.390625 41.5 23.921875 41.5 
Q 29.546875 41.5 34.03125 44.421875 
Q 38.53125 47.359375 38.53125 53.46875 
Q 38.53125 58.296875 35.25 61.46875 
Q 31.984375 64.65625 26.8125 64.65625 
Q 21.6875 64.65625 18.265625 61.421875 
Q 14.84375 58.203125 13.875 51.765625 
L 5.078125 53.328125 
Q 6.6875 62.15625 12.390625 67.015625 
Q 18.109375 71.875 26.609375 71.875 
Q 32.46875 71.875 37.390625 69.359375 
Q 42.328125 66.84375 44.9375 62.5 
Q 47.5625 58.15625 47.5625 53.265625 
Q 47.5625 48.640625 45.0625 44.828125 
Q 42.578125 41.015625 37.703125 38.765625 
Q 44.046875 37.3125 47.5625 32.6875 
Q 51.078125 28.078125 51.078125 21.140625 
Q 51.078125 11.765625 44.234375 5.25 
Q 37.40625 -1.265625 26.953125 -1.265625 
Q 17.53125 -1.265625 11.296875 4.34375 
Q 5.078125 9.96875 4.203125 18.890625 
z
" id="ArialMT-51"/>
      </defs>
      <use xlink:href="#ArialMT-51"/>
     </g>
    </g>
    <g id="patch_12">
     <path d="M 333.601562 94.674687 
L 353.601562 94.674687 
L 353.601562 87.674687 
L 333.601562 87.674687 
z
" style="fill:#9467bd;fill-opacity:0.5;stroke:#9467bd;stroke-linejoin:miter;stroke-opacity:0.5;"/>
    </g>
    <g id="text_22">
     <!-- 4 -->
     <g style="fill:#262626;" transform="translate(361.601562 94.674687)scale(0.1 -0.1)">
      <use xlink:href="#ArialMT-52"/>
     </g>
    </g>
    <g id="patch_13">
     <path d="M 333.601562 108.82 
L 353.601562 108.82 
L 353.601562 101.82 
L 333.601562 101.82 
z
" style="fill:#8c564b;fill-opacity:0.5;stroke:#8c564b;stroke-linejoin:miter;stroke-opacity:0.5;"/>
    </g>
    <g id="text_23">
     <!-- 5 -->
     <g style="fill:#262626;" transform="translate(361.601562 108.82)scale(0.1 -0.1)">
      <use xlink:href="#ArialMT-53"/>
     </g>
    </g>
    <g id="patch_14">
     <path d="M 333.601562 122.965312 
L 353.601562 122.965312 
L 353.601562 115.965312 
L 333.601562 115.965312 
z
" style="fill:#e377c2;fill-opacity:0.5;stroke:#e377c2;stroke-linejoin:miter;stroke-opacity:0.5;"/>
    </g>
    <g id="text_24">
     <!-- 6 -->
     <g style="fill:#262626;" transform="translate(361.601562 122.965312)scale(0.1 -0.1)">
      <use xlink:href="#ArialMT-54"/>
     </g>
    </g>
    <g id="patch_15">
     <path d="M 333.601562 137.110625 
L 353.601562 137.110625 
L 353.601562 130.110625 
L 333.601562 130.110625 
z
" style="fill:#7f7f7f;fill-opacity:0.5;stroke:#7f7f7f;stroke-linejoin:miter;stroke-opacity:0.5;"/>
    </g>
    <g id="text_25">
     <!-- 7 -->
     <g style="fill:#262626;" transform="translate(361.601562 137.110625)scale(0.1 -0.1)">
      <defs>
       <path d="M 4.734375 62.203125 
L 4.734375 70.65625 
L 51.078125 70.65625 
L 51.078125 63.8125 
Q 44.234375 56.546875 37.515625 44.484375 
Q 30.8125 32.421875 27.15625 19.671875 
Q 24.515625 10.6875 23.78125 0 
L 14.75 0 
Q 14.890625 8.453125 18.0625 20.40625 
Q 21.234375 32.375 27.171875 43.484375 
Q 33.109375 54.59375 39.796875 62.203125 
z
" id="ArialMT-55"/>
      </defs>
      <use xlink:href="#ArialMT-55"/>
     </g>
    </g>
   </g>
  </g>
 </g>
 <defs>
  <clipPath id="pd67a126957">
   <rect height="163.08" width="334.8" x="41.3625" y="21.935625"/>
  </clipPath>
 </defs>
</svg>
