<?xml version="1.0" encoding="utf-8" standalone="no"?>
<!DOCTYPE svg PUBLIC "-//W3C//DTD SVG 1.1//EN"
  "http://www.w3.org/Graphics/SVG/1.1/DTD/svg11.dtd">
<!-- Created with matplotlib (https://matplotlib.org/) -->
<svg height="211.629219pt" version="1.1" viewBox="0 0 597.19 211.629219" width="597.19pt" xmlns="http://www.w3.org/2000/svg" xmlns:xlink="http://www.w3.org/1999/xlink">
 <metadata>
  <rdf:RDF xmlns:cc="http://creativecommons.org/ns#" xmlns:dc="http://purl.org/dc/elements/1.1/" xmlns:rdf="http://www.w3.org/1999/02/22-rdf-syntax-ns#">
   <cc:Work>
    <dc:type rdf:resource="http://purl.org/dc/dcmitype/StillImage"/>
    <dc:date>2022-09-25T13:16:15.808028</dc:date>
    <dc:format>image/svg+xml</dc:format>
    <dc:creator>
     <cc:Agent>
      <dc:title>Matplotlib v3.3.2, https://matplotlib.org/</dc:title>
     </cc:Agent>
    </dc:creator>
   </cc:Work>
  </rdf:RDF>
 </metadata>
 <defs>
  <style type="text/css">*{stroke-linecap:butt;stroke-linejoin:round;}</style>
 </defs>
 <g id="figure_1">
  <g id="patch_1">
   <path d="M 0 211.629219 
L 597.19 211.629219 
L 597.19 0 
L 0 0 
z
" style="fill:#ffffff;"/>
  </g>
  <g id="axes_1">
   <g id="patch_2">
    <path d="M 31.99 184.869375 
L 589.99 184.869375 
L 589.99 21.789375 
L 31.99 21.789375 
z
" style="fill:#eaeaf2;"/>
   </g>
   <g id="matplotlib.axis_1">
    <g id="xtick_1">
     <g id="line2d_1">
      <path clip-path="url(#p2436f7fa60)" d="M 103.300775 184.869375 
L 103.300775 21.789375 
" style="fill:none;stroke:#ffffff;stroke-linecap:round;"/>
     </g>
     <g id="text_1">
      <!-- −10 -->
      <g style="fill:#262626;" transform="translate(93.9714 202.242969)scale(0.11 -0.11)">
       <defs>
        <path d="M 52.828125 31.203125 
L 5.5625 31.203125 
L 5.5625 39.40625 
L 52.828125 39.40625 
z
" id="ArialMT-8722"/>
        <path d="M 37.25 0 
L 28.46875 0 
L 28.46875 56 
Q 25.296875 52.984375 20.140625 49.953125 
Q 14.984375 46.921875 10.890625 45.40625 
L 10.890625 53.90625 
Q 18.265625 57.375 23.78125 62.296875 
Q 29.296875 67.234375 31.59375 71.875 
L 37.25 71.875 
z
" id="ArialMT-49"/>
        <path d="M 4.15625 35.296875 
Q 4.15625 48 6.765625 55.734375 
Q 9.375 63.484375 14.515625 67.671875 
Q 19.671875 71.875 27.484375 71.875 
Q 33.25 71.875 37.59375 69.546875 
Q 41.9375 67.234375 44.765625 62.859375 
Q 47.609375 58.5 49.21875 52.21875 
Q 50.828125 45.953125 50.828125 35.296875 
Q 50.828125 22.703125 48.234375 14.96875 
Q 45.65625 7.234375 40.5 3 
Q 35.359375 -1.21875 27.484375 -1.21875 
Q 17.140625 -1.21875 11.234375 6.203125 
Q 4.15625 15.140625 4.15625 35.296875 
z
M 13.1875 35.296875 
Q 13.1875 17.671875 17.3125 11.828125 
Q 21.4375 6 27.484375 6 
Q 33.546875 6 37.671875 11.859375 
Q 41.796875 17.71875 41.796875 35.296875 
Q 41.796875 52.984375 37.671875 58.78125 
Q 33.546875 64.59375 27.390625 64.59375 
Q 21.34375 64.59375 17.71875 59.46875 
Q 13.1875 52.9375 13.1875 35.296875 
z
" id="ArialMT-48"/>
       </defs>
       <use xlink:href="#ArialMT-8722"/>
       <use x="58.398438" xlink:href="#ArialMT-49"/>
       <use x="114.013672" xlink:href="#ArialMT-48"/>
      </g>
     </g>
    </g>
    <g id="xtick_2">
     <g id="line2d_2">
      <path clip-path="url(#p2436f7fa60)" d="M 207.452092 184.869375 
L 207.452092 21.789375 
" style="fill:none;stroke:#ffffff;stroke-linecap:round;"/>
     </g>
     <g id="text_2">
      <!-- −5 -->
      <g style="fill:#262626;" transform="translate(201.181233 202.242969)scale(0.11 -0.11)">
       <defs>
        <path d="M 4.15625 18.75 
L 13.375 19.53125 
Q 14.40625 12.796875 18.140625 9.390625 
Q 21.875 6 27.15625 6 
Q 33.5 6 37.890625 10.78125 
Q 42.28125 15.578125 42.28125 23.484375 
Q 42.28125 31 38.0625 35.34375 
Q 33.84375 39.703125 27 39.703125 
Q 22.75 39.703125 19.328125 37.765625 
Q 15.921875 35.84375 13.96875 32.765625 
L 5.71875 33.84375 
L 12.640625 70.609375 
L 48.25 70.609375 
L 48.25 62.203125 
L 19.671875 62.203125 
L 15.828125 42.96875 
Q 22.265625 47.46875 29.34375 47.46875 
Q 38.71875 47.46875 45.15625 40.96875 
Q 51.609375 34.46875 51.609375 24.265625 
Q 51.609375 14.546875 45.953125 7.46875 
Q 39.0625 -1.21875 27.15625 -1.21875 
Q 17.390625 -1.21875 11.203125 4.25 
Q 5.03125 9.71875 4.15625 18.75 
z
" id="ArialMT-53"/>
       </defs>
       <use xlink:href="#ArialMT-8722"/>
       <use x="58.398438" xlink:href="#ArialMT-53"/>
      </g>
     </g>
    </g>
    <g id="xtick_3">
     <g id="line2d_3">
      <path clip-path="url(#p2436f7fa60)" d="M 311.60341 184.869375 
L 311.60341 21.789375 
" style="fill:none;stroke:#ffffff;stroke-linecap:round;"/>
     </g>
     <g id="text_3">
      <!-- 0 -->
      <g style="fill:#262626;" transform="translate(308.544895 202.242969)scale(0.11 -0.11)">
       <use xlink:href="#ArialMT-48"/>
      </g>
     </g>
    </g>
    <g id="xtick_4">
     <g id="line2d_4">
      <path clip-path="url(#p2436f7fa60)" d="M 415.754728 184.869375 
L 415.754728 21.789375 
" style="fill:none;stroke:#ffffff;stroke-linecap:round;"/>
     </g>
     <g id="text_4">
      <!-- 5 -->
      <g style="fill:#262626;" transform="translate(412.696212 202.242969)scale(0.11 -0.11)">
       <use xlink:href="#ArialMT-53"/>
      </g>
     </g>
    </g>
    <g id="xtick_5">
     <g id="line2d_5">
      <path clip-path="url(#p2436f7fa60)" d="M 519.906046 184.869375 
L 519.906046 21.789375 
" style="fill:none;stroke:#ffffff;stroke-linecap:round;"/>
     </g>
     <g id="text_5">
      <!-- 10 -->
      <g style="fill:#262626;" transform="translate(513.789015 202.242969)scale(0.11 -0.11)">
       <use xlink:href="#ArialMT-49"/>
       <use x="55.615234" xlink:href="#ArialMT-48"/>
      </g>
     </g>
    </g>
   </g>
   <g id="matplotlib.axis_2">
    <g id="ytick_1">
     <g id="line2d_6">
      <path clip-path="url(#p2436f7fa60)" d="M 31.99 184.869375 
L 589.99 184.869375 
" style="fill:none;stroke:#ffffff;stroke-linecap:round;"/>
     </g>
     <g id="text_6">
      <!-- 0.0 -->
      <g style="fill:#262626;" transform="translate(7.2 188.806172)scale(0.11 -0.11)">
       <defs>
        <path d="M 9.078125 0 
L 9.078125 10.015625 
L 19.09375 10.015625 
L 19.09375 0 
z
" id="ArialMT-46"/>
       </defs>
       <use xlink:href="#ArialMT-48"/>
       <use x="55.615234" xlink:href="#ArialMT-46"/>
       <use x="83.398438" xlink:href="#ArialMT-48"/>
      </g>
     </g>
    </g>
    <g id="ytick_2">
     <g id="line2d_7">
      <path clip-path="url(#p2436f7fa60)" d="M 31.99 144.319853 
L 589.99 144.319853 
" style="fill:none;stroke:#ffffff;stroke-linecap:round;"/>
     </g>
     <g id="text_7">
      <!-- 0.2 -->
      <g style="fill:#262626;" transform="translate(7.2 148.25665)scale(0.11 -0.11)">
       <defs>
        <path d="M 50.34375 8.453125 
L 50.34375 0 
L 3.03125 0 
Q 2.9375 3.171875 4.046875 6.109375 
Q 5.859375 10.9375 9.828125 15.625 
Q 13.8125 20.3125 21.34375 26.46875 
Q 33.015625 36.03125 37.109375 41.625 
Q 41.21875 47.21875 41.21875 52.203125 
Q 41.21875 57.421875 37.46875 61 
Q 33.734375 64.59375 27.734375 64.59375 
Q 21.390625 64.59375 17.578125 60.78125 
Q 13.765625 56.984375 13.71875 50.25 
L 4.6875 51.171875 
Q 5.609375 61.28125 11.65625 66.578125 
Q 17.71875 71.875 27.9375 71.875 
Q 38.234375 71.875 44.234375 66.15625 
Q 50.25 60.453125 50.25 52 
Q 50.25 47.703125 48.484375 43.546875 
Q 46.734375 39.40625 42.65625 34.8125 
Q 38.578125 30.21875 29.109375 22.21875 
Q 21.1875 15.578125 18.9375 13.203125 
Q 16.703125 10.84375 15.234375 8.453125 
z
" id="ArialMT-50"/>
       </defs>
       <use xlink:href="#ArialMT-48"/>
       <use x="55.615234" xlink:href="#ArialMT-46"/>
       <use x="83.398438" xlink:href="#ArialMT-50"/>
      </g>
     </g>
    </g>
    <g id="ytick_3">
     <g id="line2d_8">
      <path clip-path="url(#p2436f7fa60)" d="M 31.99 103.77033 
L 589.99 103.77033 
" style="fill:none;stroke:#ffffff;stroke-linecap:round;"/>
     </g>
     <g id="text_8">
      <!-- 0.4 -->
      <g style="fill:#262626;" transform="translate(7.2 107.707127)scale(0.11 -0.11)">
       <defs>
        <path d="M 32.328125 0 
L 32.328125 17.140625 
L 1.265625 17.140625 
L 1.265625 25.203125 
L 33.9375 71.578125 
L 41.109375 71.578125 
L 41.109375 25.203125 
L 50.78125 25.203125 
L 50.78125 17.140625 
L 41.109375 17.140625 
L 41.109375 0 
z
M 32.328125 25.203125 
L 32.328125 57.46875 
L 9.90625 25.203125 
z
" id="ArialMT-52"/>
       </defs>
       <use xlink:href="#ArialMT-48"/>
       <use x="55.615234" xlink:href="#ArialMT-46"/>
       <use x="83.398438" xlink:href="#ArialMT-52"/>
      </g>
     </g>
    </g>
    <g id="ytick_4">
     <g id="line2d_9">
      <path clip-path="url(#p2436f7fa60)" d="M 31.99 63.220808 
L 589.99 63.220808 
" style="fill:none;stroke:#ffffff;stroke-linecap:round;"/>
     </g>
     <g id="text_9">
      <!-- 0.6 -->
      <g style="fill:#262626;" transform="translate(7.2 67.157605)scale(0.11 -0.11)">
       <defs>
        <path d="M 49.75 54.046875 
L 41.015625 53.375 
Q 39.84375 58.546875 37.703125 60.890625 
Q 34.125 64.65625 28.90625 64.65625 
Q 24.703125 64.65625 21.53125 62.3125 
Q 17.390625 59.28125 14.984375 53.46875 
Q 12.59375 47.65625 12.5 36.921875 
Q 15.671875 41.75 20.265625 44.09375 
Q 24.859375 46.4375 29.890625 46.4375 
Q 38.671875 46.4375 44.84375 39.96875 
Q 51.03125 33.5 51.03125 23.25 
Q 51.03125 16.5 48.125 10.71875 
Q 45.21875 4.9375 40.140625 1.859375 
Q 35.0625 -1.21875 28.609375 -1.21875 
Q 17.625 -1.21875 10.6875 6.859375 
Q 3.765625 14.9375 3.765625 33.5 
Q 3.765625 54.25 11.421875 63.671875 
Q 18.109375 71.875 29.4375 71.875 
Q 37.890625 71.875 43.28125 67.140625 
Q 48.6875 62.40625 49.75 54.046875 
z
M 13.875 23.1875 
Q 13.875 18.65625 15.796875 14.5 
Q 17.71875 10.359375 21.1875 8.171875 
Q 24.65625 6 28.46875 6 
Q 34.03125 6 38.03125 10.484375 
Q 42.046875 14.984375 42.046875 22.703125 
Q 42.046875 30.125 38.078125 34.390625 
Q 34.125 38.671875 28.125 38.671875 
Q 22.171875 38.671875 18.015625 34.390625 
Q 13.875 30.125 13.875 23.1875 
z
" id="ArialMT-54"/>
       </defs>
       <use xlink:href="#ArialMT-48"/>
       <use x="55.615234" xlink:href="#ArialMT-46"/>
       <use x="83.398438" xlink:href="#ArialMT-54"/>
      </g>
     </g>
    </g>
    <g id="ytick_5">
     <g id="line2d_10">
      <path clip-path="url(#p2436f7fa60)" d="M 31.99 22.671286 
L 589.99 22.671286 
" style="fill:none;stroke:#ffffff;stroke-linecap:round;"/>
     </g>
     <g id="text_10">
      <!-- 0.8 -->
      <g style="fill:#262626;" transform="translate(7.2 26.608083)scale(0.11 -0.11)">
       <defs>
        <path d="M 17.671875 38.8125 
Q 12.203125 40.828125 9.5625 44.53125 
Q 6.9375 48.25 6.9375 53.421875 
Q 6.9375 61.234375 12.546875 66.546875 
Q 18.171875 71.875 27.484375 71.875 
Q 36.859375 71.875 42.578125 66.421875 
Q 48.296875 60.984375 48.296875 53.171875 
Q 48.296875 48.1875 45.671875 44.5 
Q 43.0625 40.828125 37.75 38.8125 
Q 44.34375 36.671875 47.78125 31.875 
Q 51.21875 27.09375 51.21875 20.453125 
Q 51.21875 11.28125 44.71875 5.03125 
Q 38.234375 -1.21875 27.640625 -1.21875 
Q 17.046875 -1.21875 10.546875 5.046875 
Q 4.046875 11.328125 4.046875 20.703125 
Q 4.046875 27.6875 7.59375 32.390625 
Q 11.140625 37.109375 17.671875 38.8125 
z
M 15.921875 53.71875 
Q 15.921875 48.640625 19.1875 45.40625 
Q 22.46875 42.1875 27.6875 42.1875 
Q 32.765625 42.1875 36.015625 45.375 
Q 39.265625 48.578125 39.265625 53.21875 
Q 39.265625 58.0625 35.90625 61.359375 
Q 32.5625 64.65625 27.59375 64.65625 
Q 22.5625 64.65625 19.234375 61.421875 
Q 15.921875 58.203125 15.921875 53.71875 
z
M 13.09375 20.65625 
Q 13.09375 16.890625 14.875 13.375 
Q 16.65625 9.859375 20.171875 7.921875 
Q 23.6875 6 27.734375 6 
Q 34.03125 6 38.125 10.046875 
Q 42.234375 14.109375 42.234375 20.359375 
Q 42.234375 26.703125 38.015625 30.859375 
Q 33.796875 35.015625 27.4375 35.015625 
Q 21.234375 35.015625 17.15625 30.90625 
Q 13.09375 26.8125 13.09375 20.65625 
z
" id="ArialMT-56"/>
       </defs>
       <use xlink:href="#ArialMT-48"/>
       <use x="55.615234" xlink:href="#ArialMT-46"/>
       <use x="83.398438" xlink:href="#ArialMT-56"/>
      </g>
     </g>
    </g>
   </g>
   <g id="patch_3">
    <path clip-path="url(#p2436f7fa60)" d="M 57.353636 184.869375 
L 59.335179 184.869375 
L 59.335179 184.646372 
L 57.353636 184.646372 
z
" style="fill:#4c72b0;fill-opacity:0.5;stroke:#4c72b0;stroke-linejoin:miter;"/>
   </g>
   <g id="patch_4">
    <path clip-path="url(#p2436f7fa60)" d="M 59.335159 184.869375 
L 61.316682 184.869375 
L 61.316682 184.643715 
L 59.335159 184.643715 
z
" style="fill:#4c72b0;fill-opacity:0.5;stroke:#4c72b0;stroke-linejoin:miter;"/>
   </g>
   <g id="patch_5">
    <path clip-path="url(#p2436f7fa60)" d="M 61.316682 184.869375 
L 63.298224 184.869375 
L 63.298224 184.60655 
L 61.316682 184.60655 
z
" style="fill:#4c72b0;fill-opacity:0.5;stroke:#4c72b0;stroke-linejoin:miter;"/>
   </g>
   <g id="patch_6">
    <path clip-path="url(#p2436f7fa60)" d="M 63.298224 184.869375 
L 65.279747 184.869375 
L 65.279747 184.565398 
L 63.298224 184.565398 
z
" style="fill:#4c72b0;fill-opacity:0.5;stroke:#4c72b0;stroke-linejoin:miter;"/>
   </g>
   <g id="patch_7">
    <path clip-path="url(#p2436f7fa60)" d="M 65.279767 184.869375 
L 67.261309 184.869375 
L 67.261309 184.541508 
L 65.279767 184.541508 
z
" style="fill:#4c72b0;fill-opacity:0.5;stroke:#4c72b0;stroke-linejoin:miter;"/>
   </g>
   <g id="patch_8">
    <path clip-path="url(#p2436f7fa60)" d="M 67.26129 184.869375 
L 69.242812 184.869375 
L 69.242812 184.545487 
L 67.26129 184.545487 
z
" style="fill:#4c72b0;fill-opacity:0.5;stroke:#4c72b0;stroke-linejoin:miter;"/>
   </g>
   <g id="patch_9">
    <path clip-path="url(#p2436f7fa60)" d="M 69.242812 184.869375 
L 71.224355 184.869375 
L 71.224355 184.481775 
L 69.242812 184.481775 
z
" style="fill:#4c72b0;fill-opacity:0.5;stroke:#4c72b0;stroke-linejoin:miter;"/>
   </g>
   <g id="patch_10">
    <path clip-path="url(#p2436f7fa60)" d="M 71.224375 184.869375 
L 73.205917 184.869375 
L 73.205917 184.463191 
L 71.224375 184.463191 
z
" style="fill:#4c72b0;fill-opacity:0.5;stroke:#4c72b0;stroke-linejoin:miter;"/>
   </g>
   <g id="patch_11">
    <path clip-path="url(#p2436f7fa60)" d="M 73.205897 184.869375 
L 75.18742 184.869375 
L 75.18742 184.412746 
L 73.205897 184.412746 
z
" style="fill:#4c72b0;fill-opacity:0.5;stroke:#4c72b0;stroke-linejoin:miter;"/>
   </g>
   <g id="patch_12">
    <path clip-path="url(#p2436f7fa60)" d="M 75.18742 184.869375 
L 77.168963 184.869375 
L 77.168963 184.375583 
L 75.18742 184.375583 
z
" style="fill:#4c72b0;fill-opacity:0.5;stroke:#4c72b0;stroke-linejoin:miter;"/>
   </g>
   <g id="patch_13">
    <path clip-path="url(#p2436f7fa60)" d="M 77.168963 184.869375 
L 79.150485 184.869375 
L 79.150485 184.289296 
L 77.168963 184.289296 
z
" style="fill:#4c72b0;fill-opacity:0.5;stroke:#4c72b0;stroke-linejoin:miter;"/>
   </g>
   <g id="patch_14">
    <path clip-path="url(#p2436f7fa60)" d="M 79.150505 184.869375 
L 81.132048 184.869375 
L 81.132048 184.216295 
L 79.150505 184.216295 
z
" style="fill:#4c72b0;fill-opacity:0.5;stroke:#4c72b0;stroke-linejoin:miter;"/>
   </g>
   <g id="patch_15">
    <path clip-path="url(#p2436f7fa60)" d="M 81.132028 184.869375 
L 83.11355 184.869375 
L 83.11355 184.111423 
L 81.132028 184.111423 
z
" style="fill:#4c72b0;fill-opacity:0.5;stroke:#4c72b0;stroke-linejoin:miter;"/>
   </g>
   <g id="patch_16">
    <path clip-path="url(#p2436f7fa60)" d="M 83.11355 184.869375 
L 85.095093 184.869375 
L 85.095093 184.070282 
L 83.11355 184.070282 
z
" style="fill:#4c72b0;fill-opacity:0.5;stroke:#4c72b0;stroke-linejoin:miter;"/>
   </g>
   <g id="patch_17">
    <path clip-path="url(#p2436f7fa60)" d="M 85.095113 184.869375 
L 87.076655 184.869375 
L 87.076655 184.087538 
L 85.095113 184.087538 
z
" style="fill:#4c72b0;fill-opacity:0.5;stroke:#4c72b0;stroke-linejoin:miter;"/>
   </g>
   <g id="patch_18">
    <path clip-path="url(#p2436f7fa60)" d="M 87.076636 184.869375 
L 89.058158 184.869375 
L 89.058158 183.977355 
L 87.076636 183.977355 
z
" style="fill:#4c72b0;fill-opacity:0.5;stroke:#4c72b0;stroke-linejoin:miter;"/>
   </g>
   <g id="patch_19">
    <path clip-path="url(#p2436f7fa60)" d="M 89.058158 184.869375 
L 91.039701 184.869375 
L 91.039701 183.893738 
L 89.058158 183.893738 
z
" style="fill:#4c72b0;fill-opacity:0.5;stroke:#4c72b0;stroke-linejoin:miter;"/>
   </g>
   <g id="patch_20">
    <path clip-path="url(#p2436f7fa60)" d="M 91.039701 184.869375 
L 93.021223 184.869375 
L 93.021223 183.710545 
L 91.039701 183.710545 
z
" style="fill:#4c72b0;fill-opacity:0.5;stroke:#4c72b0;stroke-linejoin:miter;"/>
   </g>
   <g id="patch_21">
    <path clip-path="url(#p2436f7fa60)" d="M 93.021243 184.869375 
L 95.002786 184.869375 
L 95.002786 183.626931 
L 93.021243 183.626931 
z
" style="fill:#4c72b0;fill-opacity:0.5;stroke:#4c72b0;stroke-linejoin:miter;"/>
   </g>
   <g id="patch_22">
    <path clip-path="url(#p2436f7fa60)" d="M 95.002766 184.869375 
L 96.984289 184.869375 
L 96.984289 183.557893 
L 95.002766 183.557893 
z
" style="fill:#4c72b0;fill-opacity:0.5;stroke:#4c72b0;stroke-linejoin:miter;"/>
   </g>
   <g id="patch_23">
    <path clip-path="url(#p2436f7fa60)" d="M 96.984289 184.869375 
L 98.965831 184.869375 
L 98.965831 183.336231 
L 96.984289 183.336231 
z
" style="fill:#4c72b0;fill-opacity:0.5;stroke:#4c72b0;stroke-linejoin:miter;"/>
   </g>
   <g id="patch_24">
    <path clip-path="url(#p2436f7fa60)" d="M 98.965851 184.869375 
L 100.947394 184.869375 
L 100.947394 183.361451 
L 98.965851 183.361451 
z
" style="fill:#4c72b0;fill-opacity:0.5;stroke:#4c72b0;stroke-linejoin:miter;"/>
   </g>
   <g id="patch_25">
    <path clip-path="url(#p2436f7fa60)" d="M 100.947374 184.869375 
L 102.928896 184.869375 
L 102.928896 183.175598 
L 100.947374 183.175598 
z
" style="fill:#4c72b0;fill-opacity:0.5;stroke:#4c72b0;stroke-linejoin:miter;"/>
   </g>
   <g id="patch_26">
    <path clip-path="url(#p2436f7fa60)" d="M 102.928896 184.869375 
L 104.910439 184.869375 
L 104.910439 182.88226 
L 102.928896 182.88226 
z
" style="fill:#4c72b0;fill-opacity:0.5;stroke:#4c72b0;stroke-linejoin:miter;"/>
   </g>
   <g id="patch_27">
    <path clip-path="url(#p2436f7fa60)" d="M 104.910439 184.869375 
L 106.891962 184.869375 
L 106.891962 182.758791 
L 104.910439 182.758791 
z
" style="fill:#4c72b0;fill-opacity:0.5;stroke:#4c72b0;stroke-linejoin:miter;"/>
   </g>
   <g id="patch_28">
    <path clip-path="url(#p2436f7fa60)" d="M 106.891982 184.869375 
L 108.873524 184.869375 
L 108.873524 182.618108 
L 106.891982 182.618108 
z
" style="fill:#4c72b0;fill-opacity:0.5;stroke:#4c72b0;stroke-linejoin:miter;"/>
   </g>
   <g id="patch_29">
    <path clip-path="url(#p2436f7fa60)" d="M 108.873504 184.869375 
L 110.855047 184.869375 
L 110.855047 182.156174 
L 108.873504 182.156174 
z
" style="fill:#4c72b0;fill-opacity:0.5;stroke:#4c72b0;stroke-linejoin:miter;"/>
   </g>
   <g id="patch_30">
    <path clip-path="url(#p2436f7fa60)" d="M 110.855047 184.869375 
L 112.836569 184.869375 
L 112.836569 182.003494 
L 110.855047 182.003494 
z
" style="fill:#4c72b0;fill-opacity:0.5;stroke:#4c72b0;stroke-linejoin:miter;"/>
   </g>
   <g id="patch_31">
    <path clip-path="url(#p2436f7fa60)" d="M 112.836589 184.869375 
L 114.818132 184.869375 
L 114.818132 181.715478 
L 112.836589 181.715478 
z
" style="fill:#4c72b0;fill-opacity:0.5;stroke:#4c72b0;stroke-linejoin:miter;"/>
   </g>
   <g id="patch_32">
    <path clip-path="url(#p2436f7fa60)" d="M 114.818112 184.869375 
L 116.799635 184.869375 
L 116.799635 181.434035 
L 114.818112 181.434035 
z
" style="fill:#4c72b0;fill-opacity:0.5;stroke:#4c72b0;stroke-linejoin:miter;"/>
   </g>
   <g id="patch_33">
    <path clip-path="url(#p2436f7fa60)" d="M 116.799635 184.869375 
L 118.781177 184.869375 
L 118.781177 181.181864 
L 116.799635 181.181864 
z
" style="fill:#4c72b0;fill-opacity:0.5;stroke:#4c72b0;stroke-linejoin:miter;"/>
   </g>
   <g id="patch_34">
    <path clip-path="url(#p2436f7fa60)" d="M 118.781177 184.869375 
L 120.7627 184.869375 
L 120.7627 180.722543 
L 118.781177 180.722543 
z
" style="fill:#4c72b0;fill-opacity:0.5;stroke:#4c72b0;stroke-linejoin:miter;"/>
   </g>
   <g id="patch_35">
    <path clip-path="url(#p2436f7fa60)" d="M 120.76272 184.869375 
L 122.744262 184.869375 
L 122.744262 180.246048 
L 120.76272 180.246048 
z
" style="fill:#4c72b0;fill-opacity:0.5;stroke:#4c72b0;stroke-linejoin:miter;"/>
   </g>
   <g id="patch_36">
    <path clip-path="url(#p2436f7fa60)" d="M 122.744243 184.869375 
L 124.725785 184.869375 
L 124.725785 179.843847 
L 122.744243 179.843847 
z
" style="fill:#4c72b0;fill-opacity:0.5;stroke:#4c72b0;stroke-linejoin:miter;"/>
   </g>
   <g id="patch_37">
    <path clip-path="url(#p2436f7fa60)" d="M 124.725785 184.869375 
L 126.707308 184.869375 
L 126.707308 179.225223 
L 124.725785 179.225223 
z
" style="fill:#4c72b0;fill-opacity:0.5;stroke:#4c72b0;stroke-linejoin:miter;"/>
   </g>
   <g id="patch_38">
    <path clip-path="url(#p2436f7fa60)" d="M 126.707328 184.869375 
L 128.68887 184.869375 
L 128.68887 178.783256 
L 126.707328 178.783256 
z
" style="fill:#4c72b0;fill-opacity:0.5;stroke:#4c72b0;stroke-linejoin:miter;"/>
   </g>
   <g id="patch_39">
    <path clip-path="url(#p2436f7fa60)" d="M 128.68885 184.869375 
L 130.670373 184.869375 
L 130.670373 178.11949 
L 128.68885 178.11949 
z
" style="fill:#4c72b0;fill-opacity:0.5;stroke:#4c72b0;stroke-linejoin:miter;"/>
   </g>
   <g id="patch_40">
    <path clip-path="url(#p2436f7fa60)" d="M 130.670373 184.869375 
L 132.651916 184.869375 
L 132.651916 177.46515 
L 130.670373 177.46515 
z
" style="fill:#4c72b0;fill-opacity:0.5;stroke:#4c72b0;stroke-linejoin:miter;"/>
   </g>
   <g id="patch_41">
    <path clip-path="url(#p2436f7fa60)" d="M 132.651916 184.869375 
L 134.633438 184.869375 
L 134.633438 176.735 
L 132.651916 176.735 
z
" style="fill:#4c72b0;fill-opacity:0.5;stroke:#4c72b0;stroke-linejoin:miter;"/>
   </g>
   <g id="patch_42">
    <path clip-path="url(#p2436f7fa60)" d="M 134.633458 184.869375 
L 136.615001 184.869375 
L 136.615001 175.847052 
L 134.633458 175.847052 
z
" style="fill:#4c72b0;fill-opacity:0.5;stroke:#4c72b0;stroke-linejoin:miter;"/>
   </g>
   <g id="patch_43">
    <path clip-path="url(#p2436f7fa60)" d="M 136.614981 184.869375 
L 138.596523 184.869375 
L 138.596523 174.842212 
L 136.614981 174.842212 
z
" style="fill:#4c72b0;fill-opacity:0.5;stroke:#4c72b0;stroke-linejoin:miter;"/>
   </g>
   <g id="patch_44">
    <path clip-path="url(#p2436f7fa60)" d="M 138.596523 184.869375 
L 140.578046 184.869375 
L 140.578046 173.976639 
L 138.596523 173.976639 
z
" style="fill:#4c72b0;fill-opacity:0.5;stroke:#4c72b0;stroke-linejoin:miter;"/>
   </g>
   <g id="patch_45">
    <path clip-path="url(#p2436f7fa60)" d="M 140.578066 184.869375 
L 142.559608 184.869375 
L 142.559608 172.848461 
L 140.578066 172.848461 
z
" style="fill:#4c72b0;fill-opacity:0.5;stroke:#4c72b0;stroke-linejoin:miter;"/>
   </g>
   <g id="patch_46">
    <path clip-path="url(#p2436f7fa60)" d="M 142.559589 184.869375 
L 144.541111 184.869375 
L 144.541111 171.62314 
L 142.559589 171.62314 
z
" style="fill:#4c72b0;fill-opacity:0.5;stroke:#4c72b0;stroke-linejoin:miter;"/>
   </g>
   <g id="patch_47">
    <path clip-path="url(#p2436f7fa60)" d="M 144.541111 184.869375 
L 146.522654 184.869375 
L 146.522654 170.459144 
L 144.541111 170.459144 
z
" style="fill:#4c72b0;fill-opacity:0.5;stroke:#4c72b0;stroke-linejoin:miter;"/>
   </g>
   <g id="patch_48">
    <path clip-path="url(#p2436f7fa60)" d="M 146.522654 184.869375 
L 148.504176 184.869375 
L 148.504176 168.948486 
L 146.522654 168.948486 
z
" style="fill:#4c72b0;fill-opacity:0.5;stroke:#4c72b0;stroke-linejoin:miter;"/>
   </g>
   <g id="patch_49">
    <path clip-path="url(#p2436f7fa60)" d="M 148.504196 184.869375 
L 150.485719 184.869375 
L 150.485719 167.487014 
L 148.504196 167.487014 
z
" style="fill:#4c72b0;fill-opacity:0.5;stroke:#4c72b0;stroke-linejoin:miter;"/>
   </g>
   <g id="patch_50">
    <path clip-path="url(#p2436f7fa60)" d="M 150.485719 184.869375 
L 152.467242 184.869375 
L 152.467242 165.497234 
L 150.485719 165.497234 
z
" style="fill:#4c72b0;fill-opacity:0.5;stroke:#4c72b0;stroke-linejoin:miter;"/>
   </g>
   <g id="patch_51">
    <path clip-path="url(#p2436f7fa60)" d="M 152.467262 184.869375 
L 154.448784 184.869375 
L 154.448784 164.1393 
L 152.467262 164.1393 
z
" style="fill:#4c72b0;fill-opacity:0.5;stroke:#4c72b0;stroke-linejoin:miter;"/>
   </g>
   <g id="patch_52">
    <path clip-path="url(#p2436f7fa60)" d="M 154.448784 184.869375 
L 156.430307 184.869375 
L 156.430307 161.615904 
L 154.448784 161.615904 
z
" style="fill:#4c72b0;fill-opacity:0.5;stroke:#4c72b0;stroke-linejoin:miter;"/>
   </g>
   <g id="patch_53">
    <path clip-path="url(#p2436f7fa60)" d="M 156.430317 184.869375 
L 158.411859 184.869375 
L 158.411859 159.520059 
L 156.430317 159.520059 
z
" style="fill:#4c72b0;fill-opacity:0.5;stroke:#4c72b0;stroke-linejoin:miter;"/>
   </g>
   <g id="patch_54">
    <path clip-path="url(#p2436f7fa60)" d="M 158.411869 184.869375 
L 160.393392 184.869375 
L 160.393392 156.971316 
L 158.411869 156.971316 
z
" style="fill:#4c72b0;fill-opacity:0.5;stroke:#4c72b0;stroke-linejoin:miter;"/>
   </g>
   <g id="patch_55">
    <path clip-path="url(#p2436f7fa60)" d="M 160.393392 184.869375 
L 162.374915 184.869375 
L 162.374915 153.84926 
L 160.393392 153.84926 
z
" style="fill:#4c72b0;fill-opacity:0.5;stroke:#4c72b0;stroke-linejoin:miter;"/>
   </g>
   <g id="patch_56">
    <path clip-path="url(#p2436f7fa60)" d="M 162.374935 184.869375 
L 164.356457 184.869375 
L 164.356457 150.582518 
L 162.374935 150.582518 
z
" style="fill:#4c72b0;fill-opacity:0.5;stroke:#4c72b0;stroke-linejoin:miter;"/>
   </g>
   <g id="patch_57">
    <path clip-path="url(#p2436f7fa60)" d="M 164.356457 184.869375 
L 166.33798 184.869375 
L 166.33798 147.424623 
L 164.356457 147.424623 
z
" style="fill:#4c72b0;fill-opacity:0.5;stroke:#4c72b0;stroke-linejoin:miter;"/>
   </g>
   <g id="patch_58">
    <path clip-path="url(#p2436f7fa60)" d="M 166.338 184.869375 
L 168.319522 184.869375 
L 168.319522 143.941513 
L 166.338 143.941513 
z
" style="fill:#4c72b0;fill-opacity:0.5;stroke:#4c72b0;stroke-linejoin:miter;"/>
   </g>
   <g id="patch_59">
    <path clip-path="url(#p2436f7fa60)" d="M 168.319522 184.869375 
L 170.301045 184.869375 
L 170.301045 139.807976 
L 168.319522 139.807976 
z
" style="fill:#4c72b0;fill-opacity:0.5;stroke:#4c72b0;stroke-linejoin:miter;"/>
   </g>
   <g id="patch_60">
    <path clip-path="url(#p2436f7fa60)" d="M 170.301055 184.869375 
L 172.282598 184.869375 
L 172.282598 134.60613 
L 170.301055 134.60613 
z
" style="fill:#4c72b0;fill-opacity:0.5;stroke:#4c72b0;stroke-linejoin:miter;"/>
   </g>
   <g id="patch_61">
    <path clip-path="url(#p2436f7fa60)" d="M 172.282608 184.869375 
L 174.26413 184.869375 
L 174.26413 130.140489 
L 172.282608 130.140489 
z
" style="fill:#4c72b0;fill-opacity:0.5;stroke:#4c72b0;stroke-linejoin:miter;"/>
   </g>
   <g id="patch_62">
    <path clip-path="url(#p2436f7fa60)" d="M 174.26413 184.869375 
L 176.245653 184.869375 
L 176.245653 125.048566 
L 174.26413 125.048566 
z
" style="fill:#4c72b0;fill-opacity:0.5;stroke:#4c72b0;stroke-linejoin:miter;"/>
   </g>
   <g id="patch_63">
    <path clip-path="url(#p2436f7fa60)" d="M 176.245673 184.869375 
L 178.227196 184.869375 
L 178.227196 118.637202 
L 176.245673 118.637202 
z
" style="fill:#4c72b0;fill-opacity:0.5;stroke:#4c72b0;stroke-linejoin:miter;"/>
   </g>
   <g id="patch_64">
    <path clip-path="url(#p2436f7fa60)" d="M 178.227196 184.869375 
L 180.208718 184.869375 
L 180.208718 111.941774 
L 178.227196 111.941774 
z
" style="fill:#4c72b0;fill-opacity:0.5;stroke:#4c72b0;stroke-linejoin:miter;"/>
   </g>
   <g id="patch_65">
    <path clip-path="url(#p2436f7fa60)" d="M 180.208738 184.869375 
L 182.190261 184.869375 
L 182.190261 105.323336 
L 180.208738 105.323336 
z
" style="fill:#4c72b0;fill-opacity:0.5;stroke:#4c72b0;stroke-linejoin:miter;"/>
   </g>
   <g id="patch_66">
    <path clip-path="url(#p2436f7fa60)" d="M 182.190261 184.869375 
L 184.171803 184.869375 
L 184.171803 96.614677 
L 182.190261 96.614677 
z
" style="fill:#4c72b0;fill-opacity:0.5;stroke:#4c72b0;stroke-linejoin:miter;"/>
   </g>
   <g id="patch_67">
    <path clip-path="url(#p2436f7fa60)" d="M 184.171803 184.869375 
L 186.153326 184.869375 
L 186.153326 87.874604 
L 184.171803 87.874604 
z
" style="fill:#4c72b0;fill-opacity:0.5;stroke:#4c72b0;stroke-linejoin:miter;"/>
   </g>
   <g id="patch_68">
    <path clip-path="url(#p2436f7fa60)" d="M 186.153346 184.869375 
L 188.134869 184.869375 
L 188.134869 77.909779 
L 186.153346 77.909779 
z
" style="fill:#4c72b0;fill-opacity:0.5;stroke:#4c72b0;stroke-linejoin:miter;"/>
   </g>
   <g id="patch_69">
    <path clip-path="url(#p2436f7fa60)" d="M 188.134869 184.869375 
L 190.116391 184.869375 
L 190.116391 67.759117 
L 188.134869 67.759117 
z
" style="fill:#4c72b0;fill-opacity:0.5;stroke:#4c72b0;stroke-linejoin:miter;"/>
   </g>
   <g id="patch_70">
    <path clip-path="url(#p2436f7fa60)" d="M 190.116411 184.869375 
L 192.097934 184.869375 
L 192.097934 55.993004 
L 190.116411 55.993004 
z
" style="fill:#4c72b0;fill-opacity:0.5;stroke:#4c72b0;stroke-linejoin:miter;"/>
   </g>
   <g id="patch_71">
    <path clip-path="url(#p2436f7fa60)" d="M 192.097934 184.869375 
L 194.079456 184.869375 
L 194.079456 44.184414 
L 192.097934 44.184414 
z
" style="fill:#4c72b0;fill-opacity:0.5;stroke:#4c72b0;stroke-linejoin:miter;"/>
   </g>
   <g id="patch_72">
    <path clip-path="url(#p2436f7fa60)" d="M 194.079476 184.869375 
L 196.060999 184.869375 
L 196.060999 29.555089 
L 194.079476 29.555089 
z
" style="fill:#4c72b0;fill-opacity:0.5;stroke:#4c72b0;stroke-linejoin:miter;"/>
   </g>
   <g id="patch_73">
    <path clip-path="url(#p2436f7fa60)" d="M 196.060999 184.869375 
L 198.042542 184.869375 
L 198.042542 172.898902 
L 196.060999 172.898902 
z
" style="fill:#4c72b0;fill-opacity:0.5;stroke:#4c72b0;stroke-linejoin:miter;"/>
   </g>
   <g id="patch_74">
    <path clip-path="url(#p2436f7fa60)" d="M 198.042542 184.869375 
L 200.024064 184.869375 
L 200.024064 184.76451 
L 198.042542 184.76451 
z
" style="fill:#4c72b0;fill-opacity:0.5;stroke:#4c72b0;stroke-linejoin:miter;"/>
   </g>
   <g id="patch_75">
    <path clip-path="url(#p2436f7fa60)" d="M 200.024084 184.869375 
L 202.005607 184.869375 
L 202.005607 184.777784 
L 200.024084 184.777784 
z
" style="fill:#4c72b0;fill-opacity:0.5;stroke:#4c72b0;stroke-linejoin:miter;"/>
   </g>
   <g id="patch_76">
    <path clip-path="url(#p2436f7fa60)" d="M 202.005607 184.869375 
L 203.987129 184.869375 
L 203.987129 184.772474 
L 202.005607 184.772474 
z
" style="fill:#4c72b0;fill-opacity:0.5;stroke:#4c72b0;stroke-linejoin:miter;"/>
   </g>
   <g id="patch_77">
    <path clip-path="url(#p2436f7fa60)" d="M 203.987149 184.869375 
L 205.968672 184.869375 
L 205.968672 184.753891 
L 203.987149 184.753891 
z
" style="fill:#4c72b0;fill-opacity:0.5;stroke:#4c72b0;stroke-linejoin:miter;"/>
   </g>
   <g id="patch_78">
    <path clip-path="url(#p2436f7fa60)" d="M 205.968672 184.869375 
L 207.950195 184.869375 
L 207.950195 184.763183 
L 205.968672 184.763183 
z
" style="fill:#4c72b0;fill-opacity:0.5;stroke:#4c72b0;stroke-linejoin:miter;"/>
   </g>
   <g id="patch_79">
    <path clip-path="url(#p2436f7fa60)" d="M 207.950215 184.869375 
L 209.931737 184.869375 
L 209.931737 184.735307 
L 207.950215 184.735307 
z
" style="fill:#4c72b0;fill-opacity:0.5;stroke:#4c72b0;stroke-linejoin:miter;"/>
   </g>
   <g id="patch_80">
    <path clip-path="url(#p2436f7fa60)" d="M 209.931737 184.869375 
L 211.91328 184.869375 
L 211.91328 184.619824 
L 209.931737 184.619824 
z
" style="fill:#4c72b0;fill-opacity:0.5;stroke:#4c72b0;stroke-linejoin:miter;"/>
   </g>
   <g id="patch_81">
    <path clip-path="url(#p2436f7fa60)" d="M 211.91328 184.869375 
L 213.894802 184.869375 
L 213.894802 184.508321 
L 211.91328 184.508321 
z
" style="fill:#4c72b0;fill-opacity:0.5;stroke:#4c72b0;stroke-linejoin:miter;"/>
   </g>
   <g id="patch_82">
    <path clip-path="url(#p2436f7fa60)" d="M 213.894822 184.869375 
L 215.876345 184.869375 
L 215.876345 184.480445 
L 213.894822 184.480445 
z
" style="fill:#4c72b0;fill-opacity:0.5;stroke:#4c72b0;stroke-linejoin:miter;"/>
   </g>
   <g id="patch_83">
    <path clip-path="url(#p2436f7fa60)" d="M 215.876345 184.869375 
L 217.857868 184.869375 
L 217.857868 184.465844 
L 215.876345 184.465844 
z
" style="fill:#4c72b0;fill-opacity:0.5;stroke:#4c72b0;stroke-linejoin:miter;"/>
   </g>
   <g id="patch_84">
    <path clip-path="url(#p2436f7fa60)" d="M 217.857888 184.869375 
L 219.83941 184.869375 
L 219.83941 184.456552 
L 217.857888 184.456552 
z
" style="fill:#4c72b0;fill-opacity:0.5;stroke:#4c72b0;stroke-linejoin:miter;"/>
   </g>
   <g id="patch_85">
    <path clip-path="url(#p2436f7fa60)" d="M 219.83941 184.869375 
L 221.820933 184.869375 
L 221.820933 184.469826 
L 219.83941 184.469826 
z
" style="fill:#4c72b0;fill-opacity:0.5;stroke:#4c72b0;stroke-linejoin:miter;"/>
   </g>
   <g id="patch_86">
    <path clip-path="url(#p2436f7fa60)" d="M 221.820953 184.869375 
L 223.802475 184.869375 
L 223.802475 184.408766 
L 221.820953 184.408766 
z
" style="fill:#4c72b0;fill-opacity:0.5;stroke:#4c72b0;stroke-linejoin:miter;"/>
   </g>
   <g id="patch_87">
    <path clip-path="url(#p2436f7fa60)" d="M 223.802475 184.869375 
L 225.784018 184.869375 
L 225.784018 184.347708 
L 223.802475 184.347708 
z
" style="fill:#4c72b0;fill-opacity:0.5;stroke:#4c72b0;stroke-linejoin:miter;"/>
   </g>
   <g id="patch_88">
    <path clip-path="url(#p2436f7fa60)" d="M 225.784018 184.869375 
L 227.765541 184.869375 
L 227.765541 184.196381 
L 225.784018 184.196381 
z
" style="fill:#4c72b0;fill-opacity:0.5;stroke:#4c72b0;stroke-linejoin:miter;"/>
   </g>
   <g id="patch_89">
    <path clip-path="url(#p2436f7fa60)" d="M 227.765561 184.869375 
L 229.747083 184.869375 
L 229.747083 184.132666 
L 227.765561 184.132666 
z
" style="fill:#4c72b0;fill-opacity:0.5;stroke:#4c72b0;stroke-linejoin:miter;"/>
   </g>
   <g id="patch_90">
    <path clip-path="url(#p2436f7fa60)" d="M 229.747088 184.869375 
L 231.728611 184.869375 
L 231.728611 184.159214 
L 229.747088 184.159214 
z
" style="fill:#4c72b0;fill-opacity:0.5;stroke:#4c72b0;stroke-linejoin:miter;"/>
   </g>
   <g id="patch_91">
    <path clip-path="url(#p2436f7fa60)" d="M 231.728621 184.869375 
L 233.710144 184.869375 
L 233.710144 184.148594 
L 231.728621 184.148594 
z
" style="fill:#4c72b0;fill-opacity:0.5;stroke:#4c72b0;stroke-linejoin:miter;"/>
   </g>
   <g id="patch_92">
    <path clip-path="url(#p2436f7fa60)" d="M 233.710148 184.869375 
L 235.691691 184.869375 
L 235.691691 183.757013 
L 233.710148 183.757013 
z
" style="fill:#4c72b0;fill-opacity:0.5;stroke:#4c72b0;stroke-linejoin:miter;"/>
   </g>
   <g id="patch_93">
    <path clip-path="url(#p2436f7fa60)" d="M 235.691691 184.869375 
L 237.673214 184.869375 
L 237.673214 183.657455 
L 235.691691 183.657455 
z
" style="fill:#4c72b0;fill-opacity:0.5;stroke:#4c72b0;stroke-linejoin:miter;"/>
   </g>
   <g id="patch_94">
    <path clip-path="url(#p2436f7fa60)" d="M 237.673224 184.869375 
L 239.654746 184.869375 
L 239.654746 183.783558 
L 237.673224 183.783558 
z
" style="fill:#4c72b0;fill-opacity:0.5;stroke:#4c72b0;stroke-linejoin:miter;"/>
   </g>
   <g id="patch_95">
    <path clip-path="url(#p2436f7fa60)" d="M 239.654746 184.869375 
L 241.636289 184.869375 
L 241.636289 183.718518 
L 239.654746 183.718518 
z
" style="fill:#4c72b0;fill-opacity:0.5;stroke:#4c72b0;stroke-linejoin:miter;"/>
   </g>
   <g id="patch_96">
    <path clip-path="url(#p2436f7fa60)" d="M 241.636294 184.869375 
L 243.617817 184.869375 
L 243.617817 183.470291 
L 241.636294 183.470291 
z
" style="fill:#4c72b0;fill-opacity:0.5;stroke:#4c72b0;stroke-linejoin:miter;"/>
   </g>
   <g id="patch_97">
    <path clip-path="url(#p2436f7fa60)" d="M 243.617826 184.869375 
L 245.599349 184.869375 
L 245.599349 183.114546 
L 243.617826 183.114546 
z
" style="fill:#4c72b0;fill-opacity:0.5;stroke:#4c72b0;stroke-linejoin:miter;"/>
   </g>
   <g id="patch_98">
    <path clip-path="url(#p2436f7fa60)" d="M 245.599359 184.869375 
L 247.580882 184.869375 
L 247.580882 183.175607 
L 245.599359 183.175607 
z
" style="fill:#4c72b0;fill-opacity:0.5;stroke:#4c72b0;stroke-linejoin:miter;"/>
   </g>
   <g id="patch_99">
    <path clip-path="url(#p2436f7fa60)" d="M 247.580887 184.869375 
L 249.562429 184.869375 
L 249.562429 183.118533 
L 247.580887 183.118533 
z
" style="fill:#4c72b0;fill-opacity:0.5;stroke:#4c72b0;stroke-linejoin:miter;"/>
   </g>
   <g id="patch_100">
    <path clip-path="url(#p2436f7fa60)" d="M 249.562429 184.869375 
L 251.543952 184.869375 
L 251.543952 183.107909 
L 249.562429 183.107909 
z
" style="fill:#4c72b0;fill-opacity:0.5;stroke:#4c72b0;stroke-linejoin:miter;"/>
   </g>
   <g id="patch_101">
    <path clip-path="url(#p2436f7fa60)" d="M 251.543962 184.869375 
L 253.525485 184.869375 
L 253.525485 182.971187 
L 251.543962 182.971187 
z
" style="fill:#4c72b0;fill-opacity:0.5;stroke:#4c72b0;stroke-linejoin:miter;"/>
   </g>
   <g id="patch_102">
    <path clip-path="url(#p2436f7fa60)" d="M 253.525485 184.869375 
L 255.507027 184.869375 
L 255.507027 183.086675 
L 253.525485 183.086675 
z
" style="fill:#4c72b0;fill-opacity:0.5;stroke:#4c72b0;stroke-linejoin:miter;"/>
   </g>
   <g id="patch_103">
    <path clip-path="url(#p2436f7fa60)" d="M 255.507032 184.869375 
L 257.488555 184.869375 
L 257.488555 183.034902 
L 255.507032 183.034902 
z
" style="fill:#4c72b0;fill-opacity:0.5;stroke:#4c72b0;stroke-linejoin:miter;"/>
   </g>
   <g id="patch_104">
    <path clip-path="url(#p2436f7fa60)" d="M 257.488565 184.869375 
L 259.470087 184.869375 
L 259.470087 182.614115 
L 257.488565 182.614115 
z
" style="fill:#4c72b0;fill-opacity:0.5;stroke:#4c72b0;stroke-linejoin:miter;"/>
   </g>
   <g id="patch_105">
    <path clip-path="url(#p2436f7fa60)" d="M 259.470092 184.869375 
L 261.451635 184.869375 
L 261.451635 182.368551 
L 259.470092 182.368551 
z
" style="fill:#4c72b0;fill-opacity:0.5;stroke:#4c72b0;stroke-linejoin:miter;"/>
   </g>
   <g id="patch_106">
    <path clip-path="url(#p2436f7fa60)" d="M 261.451635 184.869375 
L 263.433158 184.869375 
L 263.433158 182.05926 
L 261.451635 182.05926 
z
" style="fill:#4c72b0;fill-opacity:0.5;stroke:#4c72b0;stroke-linejoin:miter;"/>
   </g>
   <g id="patch_107">
    <path clip-path="url(#p2436f7fa60)" d="M 263.433168 184.869375 
L 265.41469 184.869375 
L 265.41469 182.657919 
L 263.433168 182.657919 
z
" style="fill:#4c72b0;fill-opacity:0.5;stroke:#4c72b0;stroke-linejoin:miter;"/>
   </g>
   <g id="patch_108">
    <path clip-path="url(#p2436f7fa60)" d="M 265.4147 184.869375 
L 267.396223 184.869375 
L 267.396223 182.453499 
L 265.4147 182.453499 
z
" style="fill:#4c72b0;fill-opacity:0.5;stroke:#4c72b0;stroke-linejoin:miter;"/>
   </g>
   <g id="patch_109">
    <path clip-path="url(#p2436f7fa60)" d="M 267.396223 184.869375 
L 269.377765 184.869375 
L 269.377765 181.706178 
L 267.396223 181.706178 
z
" style="fill:#4c72b0;fill-opacity:0.5;stroke:#4c72b0;stroke-linejoin:miter;"/>
   </g>
   <g id="patch_110">
    <path clip-path="url(#p2436f7fa60)" d="M 269.37777 184.869375 
L 271.359293 184.869375 
L 271.359293 181.43007 
L 269.37777 181.43007 
z
" style="fill:#4c72b0;fill-opacity:0.5;stroke:#4c72b0;stroke-linejoin:miter;"/>
   </g>
   <g id="patch_111">
    <path clip-path="url(#p2436f7fa60)" d="M 271.359293 184.869375 
L 273.340836 184.869375 
L 273.340836 182.380495 
L 271.359293 182.380495 
z
" style="fill:#4c72b0;fill-opacity:0.5;stroke:#4c72b0;stroke-linejoin:miter;"/>
   </g>
   <g id="patch_112">
    <path clip-path="url(#p2436f7fa60)" d="M 273.340838 184.869375 
L 275.322361 184.869375 
L 275.322361 181.607942 
L 273.340838 181.607942 
z
" style="fill:#4c72b0;fill-opacity:0.5;stroke:#4c72b0;stroke-linejoin:miter;"/>
   </g>
   <g id="patch_113">
    <path clip-path="url(#p2436f7fa60)" d="M 275.322363 184.869375 
L 277.303906 184.869375 
L 277.303906 181.661042 
L 275.322363 181.661042 
z
" style="fill:#4c72b0;fill-opacity:0.5;stroke:#4c72b0;stroke-linejoin:miter;"/>
   </g>
   <g id="patch_114">
    <path clip-path="url(#p2436f7fa60)" d="M 277.303906 184.869375 
L 279.285428 184.869375 
L 279.285428 181.338479 
L 277.303906 181.338479 
z
" style="fill:#4c72b0;fill-opacity:0.5;stroke:#4c72b0;stroke-linejoin:miter;"/>
   </g>
   <g id="patch_115">
    <path clip-path="url(#p2436f7fa60)" d="M 279.285428 184.869375 
L 281.266971 184.869375 
L 281.266971 181.647768 
L 279.285428 181.647768 
z
" style="fill:#4c72b0;fill-opacity:0.5;stroke:#4c72b0;stroke-linejoin:miter;"/>
   </g>
   <g id="patch_116">
    <path clip-path="url(#p2436f7fa60)" d="M 281.266966 184.869375 
L 283.248509 184.869375 
L 283.248509 181.189814 
L 281.266966 181.189814 
z
" style="fill:#4c72b0;fill-opacity:0.5;stroke:#4c72b0;stroke-linejoin:miter;"/>
   </g>
   <g id="patch_117">
    <path clip-path="url(#p2436f7fa60)" d="M 283.248509 184.869375 
L 285.230031 184.869375 
L 285.230031 181.748647 
L 283.248509 181.748647 
z
" style="fill:#4c72b0;fill-opacity:0.5;stroke:#4c72b0;stroke-linejoin:miter;"/>
   </g>
   <g id="patch_118">
    <path clip-path="url(#p2436f7fa60)" d="M 285.230031 184.869375 
L 287.211574 184.869375 
L 287.211574 180.840708 
L 285.230031 180.840708 
z
" style="fill:#4c72b0;fill-opacity:0.5;stroke:#4c72b0;stroke-linejoin:miter;"/>
   </g>
   <g id="patch_119">
    <path clip-path="url(#p2436f7fa60)" d="M 287.211576 184.869375 
L 289.193099 184.869375 
L 289.193099 179.651348 
L 287.211576 179.651348 
z
" style="fill:#4c72b0;fill-opacity:0.5;stroke:#4c72b0;stroke-linejoin:miter;"/>
   </g>
   <g id="patch_120">
    <path clip-path="url(#p2436f7fa60)" d="M 289.193101 184.869375 
L 291.174644 184.869375 
L 291.174644 181.193797 
L 289.193101 181.193797 
z
" style="fill:#4c72b0;fill-opacity:0.5;stroke:#4c72b0;stroke-linejoin:miter;"/>
   </g>
   <g id="patch_121">
    <path clip-path="url(#p2436f7fa60)" d="M 291.174634 184.869375 
L 293.156177 184.869375 
L 293.156177 180.791591 
L 291.174634 180.791591 
z
" style="fill:#4c72b0;fill-opacity:0.5;stroke:#4c72b0;stroke-linejoin:miter;"/>
   </g>
   <g id="patch_122">
    <path clip-path="url(#p2436f7fa60)" d="M 293.156169 184.869375 
L 295.137712 184.869375 
L 295.137712 180.447794 
L 293.156169 180.447794 
z
" style="fill:#4c72b0;fill-opacity:0.5;stroke:#4c72b0;stroke-linejoin:miter;"/>
   </g>
   <g id="patch_123">
    <path clip-path="url(#p2436f7fa60)" d="M 295.137703 184.869375 
L 297.119246 184.869375 
L 297.119246 180.066832 
L 295.137703 180.066832 
z
" style="fill:#4c72b0;fill-opacity:0.5;stroke:#4c72b0;stroke-linejoin:miter;"/>
   </g>
   <g id="patch_124">
    <path clip-path="url(#p2436f7fa60)" d="M 297.119237 184.869375 
L 299.100779 184.869375 
L 299.100779 180.150455 
L 297.119237 180.150455 
z
" style="fill:#4c72b0;fill-opacity:0.5;stroke:#4c72b0;stroke-linejoin:miter;"/>
   </g>
   <g id="patch_125">
    <path clip-path="url(#p2436f7fa60)" d="M 299.100772 184.869375 
L 301.082315 184.869375 
L 301.082315 180.499562 
L 299.100772 180.499562 
z
" style="fill:#4c72b0;fill-opacity:0.5;stroke:#4c72b0;stroke-linejoin:miter;"/>
   </g>
   <g id="patch_126">
    <path clip-path="url(#p2436f7fa60)" d="M 301.082305 184.869375 
L 303.063847 184.869375 
L 303.063847 180.596463 
L 301.082305 180.596463 
z
" style="fill:#4c72b0;fill-opacity:0.5;stroke:#4c72b0;stroke-linejoin:miter;"/>
   </g>
   <g id="patch_127">
    <path clip-path="url(#p2436f7fa60)" d="M 303.06384 184.869375 
L 305.045382 184.869375 
L 305.045382 180.250012 
L 303.06384 180.250012 
z
" style="fill:#4c72b0;fill-opacity:0.5;stroke:#4c72b0;stroke-linejoin:miter;"/>
   </g>
   <g id="patch_128">
    <path clip-path="url(#p2436f7fa60)" d="M 305.045374 184.869375 
L 307.026916 184.869375 
L 307.026916 180.235409 
L 305.045374 180.235409 
z
" style="fill:#4c72b0;fill-opacity:0.5;stroke:#4c72b0;stroke-linejoin:miter;"/>
   </g>
   <g id="patch_129">
    <path clip-path="url(#p2436f7fa60)" d="M 307.026907 184.869375 
L 309.00845 184.869375 
L 309.00845 179.939399 
L 307.026907 179.939399 
z
" style="fill:#4c72b0;fill-opacity:0.5;stroke:#4c72b0;stroke-linejoin:miter;"/>
   </g>
   <g id="patch_130">
    <path clip-path="url(#p2436f7fa60)" d="M 309.008442 184.869375 
L 310.989984 184.869375 
L 310.989984 179.999132 
L 309.008442 179.999132 
z
" style="fill:#4c72b0;fill-opacity:0.5;stroke:#4c72b0;stroke-linejoin:miter;"/>
   </g>
   <g id="patch_131">
    <path clip-path="url(#p2436f7fa60)" d="M 310.989976 184.869375 
L 312.971518 184.869375 
L 312.971518 177.350962 
L 310.989976 177.350962 
z
" style="fill:#4c72b0;fill-opacity:0.5;stroke:#4c72b0;stroke-linejoin:miter;"/>
   </g>
   <g id="patch_132">
    <path clip-path="url(#p2436f7fa60)" d="M 312.97151 184.869375 
L 314.953053 184.869375 
L 314.953053 180.304435 
L 312.97151 180.304435 
z
" style="fill:#4c72b0;fill-opacity:0.5;stroke:#4c72b0;stroke-linejoin:miter;"/>
   </g>
   <g id="patch_133">
    <path clip-path="url(#p2436f7fa60)" d="M 314.953044 184.869375 
L 316.934587 184.869375 
L 316.934587 179.723031 
L 314.953044 179.723031 
z
" style="fill:#4c72b0;fill-opacity:0.5;stroke:#4c72b0;stroke-linejoin:miter;"/>
   </g>
   <g id="patch_134">
    <path clip-path="url(#p2436f7fa60)" d="M 316.934578 184.869375 
L 318.916121 184.869375 
L 318.916121 179.997805 
L 316.934578 179.997805 
z
" style="fill:#4c72b0;fill-opacity:0.5;stroke:#4c72b0;stroke-linejoin:miter;"/>
   </g>
   <g id="patch_135">
    <path clip-path="url(#p2436f7fa60)" d="M 318.916112 184.869375 
L 320.897655 184.869375 
L 320.897655 180.167711 
L 318.916112 180.167711 
z
" style="fill:#4c72b0;fill-opacity:0.5;stroke:#4c72b0;stroke-linejoin:miter;"/>
   </g>
   <g id="patch_136">
    <path clip-path="url(#p2436f7fa60)" d="M 320.897646 184.869375 
L 322.879188 184.869375 
L 322.879188 180.842032 
L 320.897646 180.842032 
z
" style="fill:#4c72b0;fill-opacity:0.5;stroke:#4c72b0;stroke-linejoin:miter;"/>
   </g>
   <g id="patch_137">
    <path clip-path="url(#p2436f7fa60)" d="M 322.879181 184.869375 
L 324.860723 184.869375 
L 324.860723 180.773007 
L 322.879181 180.773007 
z
" style="fill:#4c72b0;fill-opacity:0.5;stroke:#4c72b0;stroke-linejoin:miter;"/>
   </g>
   <g id="patch_138">
    <path clip-path="url(#p2436f7fa60)" d="M 324.860715 184.869375 
L 326.842257 184.869375 
L 326.842257 179.061988 
L 324.860715 179.061988 
z
" style="fill:#4c72b0;fill-opacity:0.5;stroke:#4c72b0;stroke-linejoin:miter;"/>
   </g>
   <g id="patch_139">
    <path clip-path="url(#p2436f7fa60)" d="M 326.842249 184.869375 
L 328.823791 184.869375 
L 328.823791 180.613719 
L 326.842249 180.613719 
z
" style="fill:#4c72b0;fill-opacity:0.5;stroke:#4c72b0;stroke-linejoin:miter;"/>
   </g>
   <g id="patch_140">
    <path clip-path="url(#p2436f7fa60)" d="M 328.823784 184.869375 
L 330.805326 184.869375 
L 330.805326 180.211516 
L 328.823784 180.211516 
z
" style="fill:#4c72b0;fill-opacity:0.5;stroke:#4c72b0;stroke-linejoin:miter;"/>
   </g>
   <g id="patch_141">
    <path clip-path="url(#p2436f7fa60)" d="M 330.805317 184.869375 
L 332.786859 184.869375 
L 332.786859 181.665025 
L 330.805317 181.665025 
z
" style="fill:#4c72b0;fill-opacity:0.5;stroke:#4c72b0;stroke-linejoin:miter;"/>
   </g>
   <g id="patch_142">
    <path clip-path="url(#p2436f7fa60)" d="M 332.786861 184.869375 
L 334.768384 184.869375 
L 334.768384 179.055343 
L 332.786861 179.055343 
z
" style="fill:#4c72b0;fill-opacity:0.5;stroke:#4c72b0;stroke-linejoin:miter;"/>
   </g>
   <g id="patch_143">
    <path clip-path="url(#p2436f7fa60)" d="M 334.768386 184.869375 
L 336.749929 184.869375 
L 336.749929 180.666818 
L 334.768386 180.666818 
z
" style="fill:#4c72b0;fill-opacity:0.5;stroke:#4c72b0;stroke-linejoin:miter;"/>
   </g>
   <g id="patch_144">
    <path clip-path="url(#p2436f7fa60)" d="M 336.749929 184.869375 
L 338.731452 184.869375 
L 338.731452 180.80619 
L 336.749929 180.80619 
z
" style="fill:#4c72b0;fill-opacity:0.5;stroke:#4c72b0;stroke-linejoin:miter;"/>
   </g>
   <g id="patch_145">
    <path clip-path="url(#p2436f7fa60)" d="M 338.731452 184.869375 
L 340.712994 184.869375 
L 340.712994 181.515028 
L 338.731452 181.515028 
z
" style="fill:#4c72b0;fill-opacity:0.5;stroke:#4c72b0;stroke-linejoin:miter;"/>
   </g>
   <g id="patch_146">
    <path clip-path="url(#p2436f7fa60)" d="M 340.712989 184.869375 
L 342.694532 184.869375 
L 342.694532 181.625203 
L 340.712989 181.625203 
z
" style="fill:#4c72b0;fill-opacity:0.5;stroke:#4c72b0;stroke-linejoin:miter;"/>
   </g>
   <g id="patch_147">
    <path clip-path="url(#p2436f7fa60)" d="M 342.694532 184.869375 
L 344.676054 184.869375 
L 344.676054 181.188482 
L 342.694532 181.188482 
z
" style="fill:#4c72b0;fill-opacity:0.5;stroke:#4c72b0;stroke-linejoin:miter;"/>
   </g>
   <g id="patch_148">
    <path clip-path="url(#p2436f7fa60)" d="M 344.676054 184.869375 
L 346.657597 184.869375 
L 346.657597 181.063711 
L 344.676054 181.063711 
z
" style="fill:#4c72b0;fill-opacity:0.5;stroke:#4c72b0;stroke-linejoin:miter;"/>
   </g>
   <g id="patch_149">
    <path clip-path="url(#p2436f7fa60)" d="M 346.6576 184.869375 
L 348.639122 184.869375 
L 348.639122 181.544227 
L 346.6576 181.544227 
z
" style="fill:#4c72b0;fill-opacity:0.5;stroke:#4c72b0;stroke-linejoin:miter;"/>
   </g>
   <g id="patch_150">
    <path clip-path="url(#p2436f7fa60)" d="M 348.639125 184.869375 
L 350.620667 184.869375 
L 350.620667 182.146872 
L 348.639125 182.146872 
z
" style="fill:#4c72b0;fill-opacity:0.5;stroke:#4c72b0;stroke-linejoin:miter;"/>
   </g>
   <g id="patch_151">
    <path clip-path="url(#p2436f7fa60)" d="M 350.620667 184.869375 
L 352.60219 184.869375 
L 352.60219 181.630508 
L 350.620667 181.630508 
z
" style="fill:#4c72b0;fill-opacity:0.5;stroke:#4c72b0;stroke-linejoin:miter;"/>
   </g>
   <g id="patch_152">
    <path clip-path="url(#p2436f7fa60)" d="M 352.602195 184.869375 
L 354.583737 184.869375 
L 354.583737 181.333178 
L 352.602195 181.333178 
z
" style="fill:#4c72b0;fill-opacity:0.5;stroke:#4c72b0;stroke-linejoin:miter;"/>
   </g>
   <g id="patch_153">
    <path clip-path="url(#p2436f7fa60)" d="M 354.583737 184.869375 
L 356.56526 184.869375 
L 356.56526 182.292883 
L 354.583737 182.292883 
z
" style="fill:#4c72b0;fill-opacity:0.5;stroke:#4c72b0;stroke-linejoin:miter;"/>
   </g>
   <g id="patch_154">
    <path clip-path="url(#p2436f7fa60)" d="M 356.56527 184.869375 
L 358.546793 184.869375 
L 358.546793 182.377837 
L 356.56527 182.377837 
z
" style="fill:#4c72b0;fill-opacity:0.5;stroke:#4c72b0;stroke-linejoin:miter;"/>
   </g>
   <g id="patch_155">
    <path clip-path="url(#p2436f7fa60)" d="M 358.546803 184.869375 
L 360.528325 184.869375 
L 360.528325 181.962359 
L 358.546803 181.962359 
z
" style="fill:#4c72b0;fill-opacity:0.5;stroke:#4c72b0;stroke-linejoin:miter;"/>
   </g>
   <g id="patch_156">
    <path clip-path="url(#p2436f7fa60)" d="M 360.528325 184.869375 
L 362.509868 184.869375 
L 362.509868 182.42032 
L 360.528325 182.42032 
z
" style="fill:#4c72b0;fill-opacity:0.5;stroke:#4c72b0;stroke-linejoin:miter;"/>
   </g>
   <g id="patch_157">
    <path clip-path="url(#p2436f7fa60)" d="M 362.509873 184.869375 
L 364.491396 184.869375 
L 364.491396 182.30483 
L 362.509873 182.30483 
z
" style="fill:#4c72b0;fill-opacity:0.5;stroke:#4c72b0;stroke-linejoin:miter;"/>
   </g>
   <g id="patch_158">
    <path clip-path="url(#p2436f7fa60)" d="M 364.491405 184.869375 
L 366.472928 184.869375 
L 366.472928 182.868976 
L 364.491405 182.868976 
z
" style="fill:#4c72b0;fill-opacity:0.5;stroke:#4c72b0;stroke-linejoin:miter;"/>
   </g>
   <g id="patch_159">
    <path clip-path="url(#p2436f7fa60)" d="M 366.472933 184.869375 
L 368.454476 184.869375 
L 368.454476 182.924732 
L 366.472933 182.924732 
z
" style="fill:#4c72b0;fill-opacity:0.5;stroke:#4c72b0;stroke-linejoin:miter;"/>
   </g>
   <g id="patch_160">
    <path clip-path="url(#p2436f7fa60)" d="M 368.454476 184.869375 
L 370.435998 184.869375 
L 370.435998 182.890215 
L 368.454476 182.890215 
z
" style="fill:#4c72b0;fill-opacity:0.5;stroke:#4c72b0;stroke-linejoin:miter;"/>
   </g>
   <g id="patch_161">
    <path clip-path="url(#p2436f7fa60)" d="M 370.436008 184.869375 
L 372.417531 184.869375 
L 372.417531 182.920745 
L 370.436008 182.920745 
z
" style="fill:#4c72b0;fill-opacity:0.5;stroke:#4c72b0;stroke-linejoin:miter;"/>
   </g>
   <g id="patch_162">
    <path clip-path="url(#p2436f7fa60)" d="M 372.417531 184.869375 
L 374.399074 184.869375 
L 374.399074 183.150391 
L 372.417531 183.150391 
z
" style="fill:#4c72b0;fill-opacity:0.5;stroke:#4c72b0;stroke-linejoin:miter;"/>
   </g>
   <g id="patch_163">
    <path clip-path="url(#p2436f7fa60)" d="M 374.399078 184.869375 
L 376.380601 184.869375 
L 376.380601 183.320294 
L 374.399078 183.320294 
z
" style="fill:#4c72b0;fill-opacity:0.5;stroke:#4c72b0;stroke-linejoin:miter;"/>
   </g>
   <g id="patch_164">
    <path clip-path="url(#p2436f7fa60)" d="M 376.380611 184.869375 
L 378.362134 184.869375 
L 378.362134 183.184899 
L 376.380611 183.184899 
z
" style="fill:#4c72b0;fill-opacity:0.5;stroke:#4c72b0;stroke-linejoin:miter;"/>
   </g>
   <g id="patch_165">
    <path clip-path="url(#p2436f7fa60)" d="M 378.362144 184.869375 
L 380.343666 184.869375 
L 380.343666 183.737099 
L 378.362144 183.737099 
z
" style="fill:#4c72b0;fill-opacity:0.5;stroke:#4c72b0;stroke-linejoin:miter;"/>
   </g>
   <g id="patch_166">
    <path clip-path="url(#p2436f7fa60)" d="M 380.343671 184.869375 
L 382.325214 184.869375 
L 382.325214 183.524718 
L 380.343671 183.524718 
z
" style="fill:#4c72b0;fill-opacity:0.5;stroke:#4c72b0;stroke-linejoin:miter;"/>
   </g>
   <g id="patch_167">
    <path clip-path="url(#p2436f7fa60)" d="M 382.325214 184.869375 
L 384.306737 184.869375 
L 384.306737 183.64949 
L 382.325214 183.64949 
z
" style="fill:#4c72b0;fill-opacity:0.5;stroke:#4c72b0;stroke-linejoin:miter;"/>
   </g>
   <g id="patch_168">
    <path clip-path="url(#p2436f7fa60)" d="M 384.306747 184.869375 
L 386.288269 184.869375 
L 386.288269 183.784886 
L 384.306747 183.784886 
z
" style="fill:#4c72b0;fill-opacity:0.5;stroke:#4c72b0;stroke-linejoin:miter;"/>
   </g>
   <g id="patch_169">
    <path clip-path="url(#p2436f7fa60)" d="M 386.288269 184.869375 
L 388.269812 184.869375 
L 388.269812 183.78887 
L 386.288269 183.78887 
z
" style="fill:#4c72b0;fill-opacity:0.5;stroke:#4c72b0;stroke-linejoin:miter;"/>
   </g>
   <g id="patch_170">
    <path clip-path="url(#p2436f7fa60)" d="M 388.269817 184.869375 
L 390.251339 184.869375 
L 390.251339 183.922936 
L 388.269817 183.922936 
z
" style="fill:#4c72b0;fill-opacity:0.5;stroke:#4c72b0;stroke-linejoin:miter;"/>
   </g>
   <g id="patch_171">
    <path clip-path="url(#p2436f7fa60)" d="M 390.251349 184.869375 
L 392.232872 184.869375 
L 392.232872 184.006562 
L 390.251349 184.006562 
z
" style="fill:#4c72b0;fill-opacity:0.5;stroke:#4c72b0;stroke-linejoin:miter;"/>
   </g>
   <g id="patch_172">
    <path clip-path="url(#p2436f7fa60)" d="M 392.232882 184.869375 
L 394.214405 184.869375 
L 394.214405 183.267198 
L 392.232882 183.267198 
z
" style="fill:#4c72b0;fill-opacity:0.5;stroke:#4c72b0;stroke-linejoin:miter;"/>
   </g>
   <g id="patch_173">
    <path clip-path="url(#p2436f7fa60)" d="M 394.21442 184.869375 
L 396.195942 184.869375 
L 396.195942 182.742873 
L 394.21442 182.742873 
z
" style="fill:#4c72b0;fill-opacity:0.5;stroke:#4c72b0;stroke-linejoin:miter;"/>
   </g>
   <g id="patch_174">
    <path clip-path="url(#p2436f7fa60)" d="M 396.195942 184.869375 
L 398.177485 184.869375 
L 398.177485 181.436724 
L 396.195942 181.436724 
z
" style="fill:#4c72b0;fill-opacity:0.5;stroke:#4c72b0;stroke-linejoin:miter;"/>
   </g>
   <g id="patch_175">
    <path clip-path="url(#p2436f7fa60)" d="M 398.177485 184.869375 
L 400.159007 184.869375 
L 400.159007 172.752827 
L 398.177485 172.752827 
z
" style="fill:#4c72b0;fill-opacity:0.5;stroke:#4c72b0;stroke-linejoin:miter;"/>
   </g>
   <g id="patch_176">
    <path clip-path="url(#p2436f7fa60)" d="M 400.159027 184.869375 
L 402.14055 184.869375 
L 402.14055 173.660772 
L 400.159027 173.660772 
z
" style="fill:#4c72b0;fill-opacity:0.5;stroke:#4c72b0;stroke-linejoin:miter;"/>
   </g>
   <g id="patch_177">
    <path clip-path="url(#p2436f7fa60)" d="M 402.14055 184.869375 
L 404.122073 184.869375 
L 404.122073 174.053683 
L 402.14055 174.053683 
z
" style="fill:#4c72b0;fill-opacity:0.5;stroke:#4c72b0;stroke-linejoin:miter;"/>
   </g>
   <g id="patch_178">
    <path clip-path="url(#p2436f7fa60)" d="M 404.122093 184.869375 
L 406.103615 184.869375 
L 406.103615 169.430334 
L 404.122093 169.430334 
z
" style="fill:#4c72b0;fill-opacity:0.5;stroke:#4c72b0;stroke-linejoin:miter;"/>
   </g>
   <g id="patch_179">
    <path clip-path="url(#p2436f7fa60)" d="M 406.103615 184.869375 
L 408.085138 184.869375 
L 408.085138 170.997998 
L 406.103615 170.997998 
z
" style="fill:#4c72b0;fill-opacity:0.5;stroke:#4c72b0;stroke-linejoin:miter;"/>
   </g>
   <g id="patch_180">
    <path clip-path="url(#p2436f7fa60)" d="M 408.085158 184.869375 
L 410.06668 184.869375 
L 410.06668 172.272307 
L 408.085158 172.272307 
z
" style="fill:#4c72b0;fill-opacity:0.5;stroke:#4c72b0;stroke-linejoin:miter;"/>
   </g>
   <g id="patch_181">
    <path clip-path="url(#p2436f7fa60)" d="M 410.06668 184.869375 
L 412.048223 184.869375 
L 412.048223 173.60375 
L 410.06668 173.60375 
z
" style="fill:#4c72b0;fill-opacity:0.5;stroke:#4c72b0;stroke-linejoin:miter;"/>
   </g>
   <g id="patch_182">
    <path clip-path="url(#p2436f7fa60)" d="M 412.048223 184.869375 
L 414.029746 184.869375 
L 414.029746 176.492125 
L 412.048223 176.492125 
z
" style="fill:#4c72b0;fill-opacity:0.5;stroke:#4c72b0;stroke-linejoin:miter;"/>
   </g>
   <g id="patch_183">
    <path clip-path="url(#p2436f7fa60)" d="M 414.029766 184.869375 
L 416.011288 184.869375 
L 416.011288 177.852715 
L 414.029766 177.852715 
z
" style="fill:#4c72b0;fill-opacity:0.5;stroke:#4c72b0;stroke-linejoin:miter;"/>
   </g>
   <g id="patch_184">
    <path clip-path="url(#p2436f7fa60)" d="M 416.011288 184.869375 
L 417.992811 184.869375 
L 417.992811 178.682343 
L 416.011288 178.682343 
z
" style="fill:#4c72b0;fill-opacity:0.5;stroke:#4c72b0;stroke-linejoin:miter;"/>
   </g>
   <g id="patch_185">
    <path clip-path="url(#p2436f7fa60)" d="M 417.992831 184.869375 
L 419.974354 184.869375 
L 419.974354 178.954461 
L 417.992831 178.954461 
z
" style="fill:#4c72b0;fill-opacity:0.5;stroke:#4c72b0;stroke-linejoin:miter;"/>
   </g>
   <g id="patch_186">
    <path clip-path="url(#p2436f7fa60)" d="M 419.974354 184.869375 
L 421.955876 184.869375 
L 421.955876 179.58896 
L 419.974354 179.58896 
z
" style="fill:#4c72b0;fill-opacity:0.5;stroke:#4c72b0;stroke-linejoin:miter;"/>
   </g>
   <g id="patch_187">
    <path clip-path="url(#p2436f7fa60)" d="M 421.955896 184.869375 
L 423.937419 184.869375 
L 423.937419 180.052224 
L 421.955896 180.052224 
z
" style="fill:#4c72b0;fill-opacity:0.5;stroke:#4c72b0;stroke-linejoin:miter;"/>
   </g>
   <g id="patch_188">
    <path clip-path="url(#p2436f7fa60)" d="M 423.937419 184.869375 
L 425.918961 184.869375 
L 425.918961 180.482325 
L 423.937419 180.482325 
z
" style="fill:#4c72b0;fill-opacity:0.5;stroke:#4c72b0;stroke-linejoin:miter;"/>
   </g>
   <g id="patch_189">
    <path clip-path="url(#p2436f7fa60)" d="M 425.918961 184.869375 
L 427.900484 184.869375 
L 427.900484 181.95174 
L 425.918961 181.95174 
z
" style="fill:#4c72b0;fill-opacity:0.5;stroke:#4c72b0;stroke-linejoin:miter;"/>
   </g>
   <g id="patch_190">
    <path clip-path="url(#p2436f7fa60)" d="M 427.900504 184.869375 
L 429.882027 184.869375 
L 429.882027 183.528696 
L 427.900504 183.528696 
z
" style="fill:#4c72b0;fill-opacity:0.5;stroke:#4c72b0;stroke-linejoin:miter;"/>
   </g>
   <g id="patch_191">
    <path clip-path="url(#p2436f7fa60)" d="M 429.882027 184.869375 
L 431.863549 184.869375 
L 431.863549 183.754355 
L 429.882027 183.754355 
z
" style="fill:#4c72b0;fill-opacity:0.5;stroke:#4c72b0;stroke-linejoin:miter;"/>
   </g>
   <g id="patch_192">
    <path clip-path="url(#p2436f7fa60)" d="M 431.863569 184.869375 
L 433.845092 184.869375 
L 433.845092 183.811434 
L 431.863569 183.811434 
z
" style="fill:#4c72b0;fill-opacity:0.5;stroke:#4c72b0;stroke-linejoin:miter;"/>
   </g>
   <g id="patch_193">
    <path clip-path="url(#p2436f7fa60)" d="M 433.845092 184.869375 
L 435.826614 184.869375 
L 435.826614 183.884441 
L 433.845092 183.884441 
z
" style="fill:#4c72b0;fill-opacity:0.5;stroke:#4c72b0;stroke-linejoin:miter;"/>
   </g>
   <g id="patch_194">
    <path clip-path="url(#p2436f7fa60)" d="M 435.826634 184.869375 
L 437.808157 184.869375 
L 437.808157 183.953466 
L 435.826634 183.953466 
z
" style="fill:#4c72b0;fill-opacity:0.5;stroke:#4c72b0;stroke-linejoin:miter;"/>
   </g>
   <g id="patch_195">
    <path clip-path="url(#p2436f7fa60)" d="M 437.808157 184.869375 
L 439.7897 184.869375 
L 439.7897 184.022495 
L 437.808157 184.022495 
z
" style="fill:#4c72b0;fill-opacity:0.5;stroke:#4c72b0;stroke-linejoin:miter;"/>
   </g>
   <g id="patch_196">
    <path clip-path="url(#p2436f7fa60)" d="M 439.7897 184.869375 
L 441.771222 184.869375 
L 441.771222 184.107445 
L 439.7897 184.107445 
z
" style="fill:#4c72b0;fill-opacity:0.5;stroke:#4c72b0;stroke-linejoin:miter;"/>
   </g>
   <g id="patch_197">
    <path clip-path="url(#p2436f7fa60)" d="M 441.771242 184.869375 
L 443.752765 184.869375 
L 443.752765 184.143285 
L 441.771242 184.143285 
z
" style="fill:#4c72b0;fill-opacity:0.5;stroke:#4c72b0;stroke-linejoin:miter;"/>
   </g>
   <g id="patch_198">
    <path clip-path="url(#p2436f7fa60)" d="M 443.752765 184.869375 
L 445.734287 184.869375 
L 445.734287 184.188417 
L 443.752765 184.188417 
z
" style="fill:#4c72b0;fill-opacity:0.5;stroke:#4c72b0;stroke-linejoin:miter;"/>
   </g>
   <g id="patch_199">
    <path clip-path="url(#p2436f7fa60)" d="M 445.734307 184.869375 
L 447.71583 184.869375 
L 447.71583 184.333104 
L 445.734307 184.333104 
z
" style="fill:#4c72b0;fill-opacity:0.5;stroke:#4c72b0;stroke-linejoin:miter;"/>
   </g>
   <g id="patch_200">
    <path clip-path="url(#p2436f7fa60)" d="M 447.71583 184.869375 
L 449.697353 184.869375 
L 449.697353 184.367616 
L 447.71583 184.367616 
z
" style="fill:#4c72b0;fill-opacity:0.5;stroke:#4c72b0;stroke-linejoin:miter;"/>
   </g>
   <g id="patch_201">
    <path clip-path="url(#p2436f7fa60)" d="M 449.697363 184.869375 
L 451.678905 184.869375 
L 451.678905 184.477793 
L 449.697363 184.477793 
z
" style="fill:#4c72b0;fill-opacity:0.5;stroke:#4c72b0;stroke-linejoin:miter;"/>
   </g>
   <g id="patch_202">
    <path clip-path="url(#p2436f7fa60)" d="M 451.678915 184.869375 
L 453.660438 184.869375 
L 453.660438 184.455225 
L 451.678915 184.455225 
z
" style="fill:#4c72b0;fill-opacity:0.5;stroke:#4c72b0;stroke-linejoin:miter;"/>
   </g>
   <g id="patch_203">
    <path clip-path="url(#p2436f7fa60)" d="M 453.660438 184.869375 
L 455.64196 184.869375 
L 455.64196 184.489737 
L 453.660438 184.489737 
z
" style="fill:#4c72b0;fill-opacity:0.5;stroke:#4c72b0;stroke-linejoin:miter;"/>
   </g>
   <g id="patch_204">
    <path clip-path="url(#p2436f7fa60)" d="M 455.64198 184.869375 
L 457.623503 184.869375 
L 457.623503 184.529559 
L 455.64198 184.529559 
z
" style="fill:#4c72b0;fill-opacity:0.5;stroke:#4c72b0;stroke-linejoin:miter;"/>
   </g>
   <g id="patch_205">
    <path clip-path="url(#p2436f7fa60)" d="M 457.623503 184.869375 
L 459.605026 184.869375 
L 459.605026 184.561417 
L 457.623503 184.561417 
z
" style="fill:#4c72b0;fill-opacity:0.5;stroke:#4c72b0;stroke-linejoin:miter;"/>
   </g>
   <g id="patch_206">
    <path clip-path="url(#p2436f7fa60)" d="M 459.605046 184.869375 
L 461.586568 184.869375 
L 461.586568 184.62115 
L 459.605046 184.62115 
z
" style="fill:#4c72b0;fill-opacity:0.5;stroke:#4c72b0;stroke-linejoin:miter;"/>
   </g>
   <g id="patch_207">
    <path clip-path="url(#p2436f7fa60)" d="M 461.586568 184.869375 
L 463.568091 184.869375 
L 463.568091 184.629115 
L 461.586568 184.629115 
z
" style="fill:#4c72b0;fill-opacity:0.5;stroke:#4c72b0;stroke-linejoin:miter;"/>
   </g>
   <g id="patch_208">
    <path clip-path="url(#p2436f7fa60)" d="M 463.568101 184.869375 
L 465.549643 184.869375 
L 465.549643 184.660974 
L 463.568101 184.660974 
z
" style="fill:#4c72b0;fill-opacity:0.5;stroke:#4c72b0;stroke-linejoin:miter;"/>
   </g>
   <g id="patch_209">
    <path clip-path="url(#p2436f7fa60)" d="M 465.549653 184.869375 
L 467.531176 184.869375 
L 467.531176 184.639734 
L 465.549653 184.639734 
z
" style="fill:#4c72b0;fill-opacity:0.5;stroke:#4c72b0;stroke-linejoin:miter;"/>
   </g>
   <g id="patch_210">
    <path clip-path="url(#p2436f7fa60)" d="M 467.531176 184.869375 
L 469.512699 184.869375 
L 469.512699 184.674247 
L 467.531176 184.674247 
z
" style="fill:#4c72b0;fill-opacity:0.5;stroke:#4c72b0;stroke-linejoin:miter;"/>
   </g>
   <g id="patch_211">
    <path clip-path="url(#p2436f7fa60)" d="M 469.512719 184.869375 
L 471.494241 184.869375 
L 471.494241 184.695485 
L 469.512719 184.695485 
z
" style="fill:#4c72b0;fill-opacity:0.5;stroke:#4c72b0;stroke-linejoin:miter;"/>
   </g>
   <g id="patch_212">
    <path clip-path="url(#p2436f7fa60)" d="M 471.494241 184.869375 
L 473.475764 184.869375 
L 473.475764 184.708759 
L 471.494241 184.708759 
z
" style="fill:#4c72b0;fill-opacity:0.5;stroke:#4c72b0;stroke-linejoin:miter;"/>
   </g>
   <g id="patch_213">
    <path clip-path="url(#p2436f7fa60)" d="M 473.475784 184.869375 
L 475.457306 184.869375 
L 475.457306 184.723361 
L 473.475784 184.723361 
z
" style="fill:#4c72b0;fill-opacity:0.5;stroke:#4c72b0;stroke-linejoin:miter;"/>
   </g>
   <g id="patch_214">
    <path clip-path="url(#p2436f7fa60)" d="M 475.457306 184.869375 
L 477.438829 184.869375 
L 477.438829 184.736635 
L 475.457306 184.736635 
z
" style="fill:#4c72b0;fill-opacity:0.5;stroke:#4c72b0;stroke-linejoin:miter;"/>
   </g>
   <g id="patch_215">
    <path clip-path="url(#p2436f7fa60)" d="M 477.438849 184.869375 
L 479.420372 184.869375 
L 479.420372 184.756546 
L 477.438849 184.756546 
z
" style="fill:#4c72b0;fill-opacity:0.5;stroke:#4c72b0;stroke-linejoin:miter;"/>
   </g>
   <g id="patch_216">
    <path clip-path="url(#p2436f7fa60)" d="M 479.420392 184.869375 
L 481.401934 184.869375 
L 481.401934 184.772475 
L 479.420392 184.772475 
z
" style="fill:#4c72b0;fill-opacity:0.5;stroke:#4c72b0;stroke-linejoin:miter;"/>
   </g>
   <g id="patch_217">
    <path clip-path="url(#p2436f7fa60)" d="M 481.401914 184.869375 
L 483.383437 184.869375 
L 483.383437 184.761855 
L 481.401914 184.761855 
z
" style="fill:#4c72b0;fill-opacity:0.5;stroke:#4c72b0;stroke-linejoin:miter;"/>
   </g>
   <g id="patch_218">
    <path clip-path="url(#p2436f7fa60)" d="M 483.383437 184.869375 
L 485.36498 184.869375 
L 485.36498 184.77513 
L 483.383437 184.77513 
z
" style="fill:#4c72b0;fill-opacity:0.5;stroke:#4c72b0;stroke-linejoin:miter;"/>
   </g>
   <g id="patch_219">
    <path clip-path="url(#p2436f7fa60)" d="M 485.364999 184.869375 
L 487.346542 184.869375 
L 487.346542 184.788404 
L 485.364999 184.788404 
z
" style="fill:#4c72b0;fill-opacity:0.5;stroke:#4c72b0;stroke-linejoin:miter;"/>
   </g>
   <g id="patch_220">
    <path clip-path="url(#p2436f7fa60)" d="M 487.346522 184.869375 
L 489.328045 184.869375 
L 489.328045 184.803004 
L 487.346522 184.803004 
z
" style="fill:#4c72b0;fill-opacity:0.5;stroke:#4c72b0;stroke-linejoin:miter;"/>
   </g>
   <g id="patch_221">
    <path clip-path="url(#p2436f7fa60)" d="M 489.328045 184.869375 
L 491.309587 184.869375 
L 491.309587 184.806987 
L 489.328045 184.806987 
z
" style="fill:#4c72b0;fill-opacity:0.5;stroke:#4c72b0;stroke-linejoin:miter;"/>
   </g>
   <g id="patch_222">
    <path clip-path="url(#p2436f7fa60)" d="M 491.309587 184.869375 
L 493.29111 184.869375 
L 493.29111 184.805659 
L 491.309587 184.805659 
z
" style="fill:#4c72b0;fill-opacity:0.5;stroke:#4c72b0;stroke-linejoin:miter;"/>
   </g>
   <g id="patch_223">
    <path clip-path="url(#p2436f7fa60)" d="M 493.29113 184.869375 
L 495.272672 184.869375 
L 495.272672 184.821589 
L 493.29113 184.821589 
z
" style="fill:#4c72b0;fill-opacity:0.5;stroke:#4c72b0;stroke-linejoin:miter;"/>
   </g>
   <g id="patch_224">
    <path clip-path="url(#p2436f7fa60)" d="M 495.272653 184.869375 
L 497.254175 184.869375 
L 497.254175 184.820261 
L 495.272653 184.820261 
z
" style="fill:#4c72b0;fill-opacity:0.5;stroke:#4c72b0;stroke-linejoin:miter;"/>
   </g>
   <g id="patch_225">
    <path clip-path="url(#p2436f7fa60)" d="M 497.254175 184.869375 
L 499.235718 184.869375 
L 499.235718 184.821589 
L 497.254175 184.821589 
z
" style="fill:#4c72b0;fill-opacity:0.5;stroke:#4c72b0;stroke-linejoin:miter;"/>
   </g>
   <g id="patch_226">
    <path clip-path="url(#p2436f7fa60)" d="M 499.235738 184.869375 
L 501.21728 184.869375 
L 501.21728 184.821589 
L 499.235738 184.821589 
z
" style="fill:#4c72b0;fill-opacity:0.5;stroke:#4c72b0;stroke-linejoin:miter;"/>
   </g>
   <g id="patch_227">
    <path clip-path="url(#p2436f7fa60)" d="M 501.21726 184.869375 
L 503.198783 184.869375 
L 503.198783 184.83619 
L 501.21726 184.83619 
z
" style="fill:#4c72b0;fill-opacity:0.5;stroke:#4c72b0;stroke-linejoin:miter;"/>
   </g>
   <g id="patch_228">
    <path clip-path="url(#p2436f7fa60)" d="M 503.198783 184.869375 
L 505.180326 184.869375 
L 505.180326 184.832208 
L 503.198783 184.832208 
z
" style="fill:#4c72b0;fill-opacity:0.5;stroke:#4c72b0;stroke-linejoin:miter;"/>
   </g>
   <g id="patch_229">
    <path clip-path="url(#p2436f7fa60)" d="M 505.180326 184.869375 
L 507.161848 184.869375 
L 507.161848 184.837517 
L 505.180326 184.837517 
z
" style="fill:#4c72b0;fill-opacity:0.5;stroke:#4c72b0;stroke-linejoin:miter;"/>
   </g>
   <g id="patch_230">
    <path clip-path="url(#p2436f7fa60)" d="M 507.161868 184.869375 
L 509.143411 184.869375 
L 509.143411 184.83619 
L 507.161868 184.83619 
z
" style="fill:#4c72b0;fill-opacity:0.5;stroke:#4c72b0;stroke-linejoin:miter;"/>
   </g>
   <g id="patch_231">
    <path clip-path="url(#p2436f7fa60)" d="M 509.143391 184.869375 
L 511.124913 184.869375 
L 511.124913 184.845482 
L 509.143391 184.845482 
z
" style="fill:#4c72b0;fill-opacity:0.5;stroke:#4c72b0;stroke-linejoin:miter;"/>
   </g>
   <g id="patch_232">
    <path clip-path="url(#p2436f7fa60)" d="M 511.124913 184.869375 
L 513.106456 184.869375 
L 513.106456 184.852119 
L 511.124913 184.852119 
z
" style="fill:#4c72b0;fill-opacity:0.5;stroke:#4c72b0;stroke-linejoin:miter;"/>
   </g>
   <g id="patch_233">
    <path clip-path="url(#p2436f7fa60)" d="M 513.106476 184.869375 
L 515.088018 184.869375 
L 515.088018 184.852119 
L 513.106476 184.852119 
z
" style="fill:#4c72b0;fill-opacity:0.5;stroke:#4c72b0;stroke-linejoin:miter;"/>
   </g>
   <g id="patch_234">
    <path clip-path="url(#p2436f7fa60)" d="M 515.087999 184.869375 
L 517.069521 184.869375 
L 517.069521 184.852119 
L 515.087999 184.852119 
z
" style="fill:#4c72b0;fill-opacity:0.5;stroke:#4c72b0;stroke-linejoin:miter;"/>
   </g>
   <g id="patch_235">
    <path clip-path="url(#p2436f7fa60)" d="M 517.069521 184.869375 
L 519.051064 184.869375 
L 519.051064 184.852119 
L 517.069521 184.852119 
z
" style="fill:#4c72b0;fill-opacity:0.5;stroke:#4c72b0;stroke-linejoin:miter;"/>
   </g>
   <g id="patch_236">
    <path clip-path="url(#p2436f7fa60)" d="M 519.051064 184.869375 
L 521.032586 184.869375 
L 521.032586 184.856101 
L 519.051064 184.856101 
z
" style="fill:#4c72b0;fill-opacity:0.5;stroke:#4c72b0;stroke-linejoin:miter;"/>
   </g>
   <g id="patch_237">
    <path clip-path="url(#p2436f7fa60)" d="M 521.032606 184.869375 
L 523.014149 184.869375 
L 523.014149 184.856101 
L 521.032606 184.856101 
z
" style="fill:#4c72b0;fill-opacity:0.5;stroke:#4c72b0;stroke-linejoin:miter;"/>
   </g>
   <g id="patch_238">
    <path clip-path="url(#p2436f7fa60)" d="M 523.014129 184.869375 
L 524.995672 184.869375 
L 524.995672 184.854774 
L 523.014129 184.854774 
z
" style="fill:#4c72b0;fill-opacity:0.5;stroke:#4c72b0;stroke-linejoin:miter;"/>
   </g>
   <g id="patch_239">
    <path clip-path="url(#p2436f7fa60)" d="M 524.995672 184.869375 
L 526.977194 184.869375 
L 526.977194 184.861411 
L 524.995672 184.861411 
z
" style="fill:#4c72b0;fill-opacity:0.5;stroke:#4c72b0;stroke-linejoin:miter;"/>
   </g>
   <g id="patch_240">
    <path clip-path="url(#p2436f7fa60)" d="M 526.977214 184.869375 
L 528.958757 184.869375 
L 528.958757 184.861411 
L 526.977214 184.861411 
z
" style="fill:#4c72b0;fill-opacity:0.5;stroke:#4c72b0;stroke-linejoin:miter;"/>
   </g>
   <g id="patch_241">
    <path clip-path="url(#p2436f7fa60)" d="M 528.958737 184.869375 
L 530.940259 184.869375 
L 530.940259 184.854773 
L 528.958737 184.854773 
z
" style="fill:#4c72b0;fill-opacity:0.5;stroke:#4c72b0;stroke-linejoin:miter;"/>
   </g>
   <g id="patch_242">
    <path clip-path="url(#p2436f7fa60)" d="M 530.940259 184.869375 
L 532.921802 184.869375 
L 532.921802 184.865393 
L 530.940259 184.865393 
z
" style="fill:#4c72b0;fill-opacity:0.5;stroke:#4c72b0;stroke-linejoin:miter;"/>
   </g>
   <g id="patch_243">
    <path clip-path="url(#p2436f7fa60)" d="M 532.921802 184.869375 
L 534.903325 184.869375 
L 534.903325 184.857428 
L 532.921802 184.857428 
z
" style="fill:#4c72b0;fill-opacity:0.5;stroke:#4c72b0;stroke-linejoin:miter;"/>
   </g>
   <g id="patch_244">
    <path clip-path="url(#p2436f7fa60)" d="M 534.903345 184.869375 
L 536.884887 184.869375 
L 536.884887 184.864065 
L 534.903345 184.864065 
z
" style="fill:#4c72b0;fill-opacity:0.5;stroke:#4c72b0;stroke-linejoin:miter;"/>
   </g>
   <g id="patch_245">
    <path clip-path="url(#p2436f7fa60)" d="M 536.884867 184.869375 
L 538.86641 184.869375 
L 538.86641 184.860083 
L 536.884867 184.860083 
z
" style="fill:#4c72b0;fill-opacity:0.5;stroke:#4c72b0;stroke-linejoin:miter;"/>
   </g>
   <g id="patch_246">
    <path clip-path="url(#p2436f7fa60)" d="M 538.86641 184.869375 
L 540.847933 184.869375 
L 540.847933 184.862738 
L 538.86641 184.862738 
z
" style="fill:#4c72b0;fill-opacity:0.5;stroke:#4c72b0;stroke-linejoin:miter;"/>
   </g>
   <g id="patch_247">
    <path clip-path="url(#p2436f7fa60)" d="M 540.847952 184.869375 
L 542.829495 184.869375 
L 542.829495 184.864065 
L 540.847952 184.864065 
z
" style="fill:#4c72b0;fill-opacity:0.5;stroke:#4c72b0;stroke-linejoin:miter;"/>
   </g>
   <g id="patch_248">
    <path clip-path="url(#p2436f7fa60)" d="M 542.829475 184.869375 
L 544.810998 184.869375 
L 544.810998 184.864065 
L 542.829475 184.864065 
z
" style="fill:#4c72b0;fill-opacity:0.5;stroke:#4c72b0;stroke-linejoin:miter;"/>
   </g>
   <g id="patch_249">
    <path clip-path="url(#p2436f7fa60)" d="M 544.810998 184.869375 
L 546.79254 184.869375 
L 546.79254 184.868048 
L 544.810998 184.868048 
z
" style="fill:#4c72b0;fill-opacity:0.5;stroke:#4c72b0;stroke-linejoin:miter;"/>
   </g>
   <g id="patch_250">
    <path clip-path="url(#p2436f7fa60)" d="M 546.79254 184.869375 
L 548.774063 184.869375 
L 548.774063 184.869375 
L 546.79254 184.869375 
z
" style="fill:#4c72b0;fill-opacity:0.5;stroke:#4c72b0;stroke-linejoin:miter;"/>
   </g>
   <g id="patch_251">
    <path clip-path="url(#p2436f7fa60)" d="M 548.774083 184.869375 
L 550.755625 184.869375 
L 550.755625 184.865393 
L 548.774083 184.865393 
z
" style="fill:#4c72b0;fill-opacity:0.5;stroke:#4c72b0;stroke-linejoin:miter;"/>
   </g>
   <g id="patch_252">
    <path clip-path="url(#p2436f7fa60)" d="M 550.755606 184.869375 
L 552.737148 184.869375 
L 552.737148 184.864065 
L 550.755606 184.864065 
z
" style="fill:#4c72b0;fill-opacity:0.5;stroke:#4c72b0;stroke-linejoin:miter;"/>
   </g>
   <g id="patch_253">
    <path clip-path="url(#p2436f7fa60)" d="M 552.737148 184.869375 
L 554.718671 184.869375 
L 554.718671 184.868048 
L 552.737148 184.868048 
z
" style="fill:#4c72b0;fill-opacity:0.5;stroke:#4c72b0;stroke-linejoin:miter;"/>
   </g>
   <g id="patch_254">
    <path clip-path="url(#p2436f7fa60)" d="M 554.718691 184.869375 
L 556.700233 184.869375 
L 556.700233 184.869375 
L 554.718691 184.869375 
z
" style="fill:#4c72b0;fill-opacity:0.5;stroke:#4c72b0;stroke-linejoin:miter;"/>
   </g>
   <g id="patch_255">
    <path clip-path="url(#p2436f7fa60)" d="M 556.700213 184.869375 
L 558.681736 184.869375 
L 558.681736 184.86672 
L 556.700213 184.86672 
z
" style="fill:#4c72b0;fill-opacity:0.5;stroke:#4c72b0;stroke-linejoin:miter;"/>
   </g>
   <g id="patch_256">
    <path clip-path="url(#p2436f7fa60)" d="M 558.681736 184.869375 
L 560.663279 184.869375 
L 560.663279 184.865393 
L 558.681736 184.865393 
z
" style="fill:#4c72b0;fill-opacity:0.5;stroke:#4c72b0;stroke-linejoin:miter;"/>
   </g>
   <g id="patch_257">
    <path clip-path="url(#p2436f7fa60)" d="M 560.663279 184.869375 
L 562.644801 184.869375 
L 562.644801 184.868048 
L 560.663279 184.868048 
z
" style="fill:#4c72b0;fill-opacity:0.5;stroke:#4c72b0;stroke-linejoin:miter;"/>
   </g>
   <g id="patch_258">
    <path clip-path="url(#p2436f7fa60)" d="M 562.644821 184.869375 
L 564.626364 184.869375 
L 564.626364 184.86672 
L 562.644821 184.86672 
z
" style="fill:#4c72b0;fill-opacity:0.5;stroke:#4c72b0;stroke-linejoin:miter;"/>
   </g>
   <g id="patch_259">
    <path d="M 31.99 184.869375 
L 31.99 21.789375 
" style="fill:none;stroke:#ffffff;stroke-linecap:square;stroke-linejoin:miter;stroke-width:1.25;"/>
   </g>
   <g id="patch_260">
    <path d="M 589.99 184.869375 
L 589.99 21.789375 
" style="fill:none;stroke:#ffffff;stroke-linecap:square;stroke-linejoin:miter;stroke-width:1.25;"/>
   </g>
   <g id="patch_261">
    <path d="M 31.99 184.869375 
L 589.99 184.869375 
" style="fill:none;stroke:#ffffff;stroke-linecap:square;stroke-linejoin:miter;stroke-width:1.25;"/>
   </g>
   <g id="patch_262">
    <path d="M 31.99 21.789375 
L 589.99 21.789375 
" style="fill:none;stroke:#ffffff;stroke-linecap:square;stroke-linejoin:miter;stroke-width:1.25;"/>
   </g>
   <g id="text_11">
    <!-- Dequantization -->
    <g style="fill:#262626;" transform="translate(270.964375 15.789375)scale(0.12 -0.12)">
     <defs>
      <path d="M 7.71875 0 
L 7.71875 71.578125 
L 32.375 71.578125 
Q 40.71875 71.578125 45.125 70.5625 
Q 51.265625 69.140625 55.609375 65.4375 
Q 61.28125 60.640625 64.078125 53.1875 
Q 66.890625 45.75 66.890625 36.1875 
Q 66.890625 28.03125 64.984375 21.734375 
Q 63.09375 15.4375 60.109375 11.296875 
Q 57.125 7.171875 53.578125 4.796875 
Q 50.046875 2.4375 45.046875 1.21875 
Q 40.046875 0 33.546875 0 
z
M 17.1875 8.453125 
L 32.46875 8.453125 
Q 39.546875 8.453125 43.578125 9.765625 
Q 47.609375 11.078125 50 13.484375 
Q 53.375 16.84375 55.25 22.53125 
Q 57.125 28.21875 57.125 36.328125 
Q 57.125 47.5625 53.4375 53.59375 
Q 49.75 59.625 44.484375 61.671875 
Q 40.671875 63.140625 32.234375 63.140625 
L 17.1875 63.140625 
z
" id="ArialMT-68"/>
      <path d="M 42.09375 16.703125 
L 51.171875 15.578125 
Q 49.03125 7.625 43.21875 3.21875 
Q 37.40625 -1.171875 28.375 -1.171875 
Q 17 -1.171875 10.328125 5.828125 
Q 3.65625 12.84375 3.65625 25.484375 
Q 3.65625 38.578125 10.390625 45.796875 
Q 17.140625 53.03125 27.875 53.03125 
Q 38.28125 53.03125 44.875 45.953125 
Q 51.46875 38.875 51.46875 26.03125 
Q 51.46875 25.25 51.421875 23.6875 
L 12.75 23.6875 
Q 13.234375 15.140625 17.578125 10.59375 
Q 21.921875 6.0625 28.421875 6.0625 
Q 33.25 6.0625 36.671875 8.59375 
Q 40.09375 11.140625 42.09375 16.703125 
z
M 13.234375 30.90625 
L 42.1875 30.90625 
Q 41.609375 37.453125 38.875 40.71875 
Q 34.671875 45.796875 27.984375 45.796875 
Q 21.921875 45.796875 17.796875 41.75 
Q 13.671875 37.703125 13.234375 30.90625 
z
" id="ArialMT-101"/>
      <path d="M 39.65625 -19.875 
L 39.65625 5.515625 
Q 37.59375 2.640625 33.90625 0.734375 
Q 30.21875 -1.171875 26.078125 -1.171875 
Q 16.84375 -1.171875 10.171875 6.203125 
Q 3.515625 13.578125 3.515625 26.421875 
Q 3.515625 34.234375 6.21875 40.421875 
Q 8.9375 46.625 14.078125 49.828125 
Q 19.234375 53.03125 25.390625 53.03125 
Q 35.015625 53.03125 40.53125 44.921875 
L 40.53125 51.859375 
L 48.4375 51.859375 
L 48.4375 -19.875 
z
M 12.546875 26.078125 
Q 12.546875 16.0625 16.75 11.0625 
Q 20.953125 6.0625 26.8125 6.0625 
Q 32.421875 6.0625 36.46875 10.8125 
Q 40.53125 15.578125 40.53125 25.296875 
Q 40.53125 35.640625 36.25 40.859375 
Q 31.984375 46.09375 26.21875 46.09375 
Q 20.515625 46.09375 16.53125 41.234375 
Q 12.546875 36.375 12.546875 26.078125 
z
" id="ArialMT-113"/>
      <path d="M 40.578125 0 
L 40.578125 7.625 
Q 34.515625 -1.171875 24.125 -1.171875 
Q 19.53125 -1.171875 15.546875 0.578125 
Q 11.578125 2.34375 9.640625 5 
Q 7.71875 7.671875 6.9375 11.53125 
Q 6.390625 14.109375 6.390625 19.734375 
L 6.390625 51.859375 
L 15.1875 51.859375 
L 15.1875 23.09375 
Q 15.1875 16.21875 15.71875 13.8125 
Q 16.546875 10.359375 19.234375 8.375 
Q 21.921875 6.390625 25.875 6.390625 
Q 29.828125 6.390625 33.296875 8.421875 
Q 36.765625 10.453125 38.203125 13.9375 
Q 39.65625 17.4375 39.65625 24.078125 
L 39.65625 51.859375 
L 48.4375 51.859375 
L 48.4375 0 
z
" id="ArialMT-117"/>
      <path d="M 40.4375 6.390625 
Q 35.546875 2.25 31.03125 0.53125 
Q 26.515625 -1.171875 21.34375 -1.171875 
Q 12.796875 -1.171875 8.203125 3 
Q 3.609375 7.171875 3.609375 13.671875 
Q 3.609375 17.484375 5.34375 20.625 
Q 7.078125 23.78125 9.890625 25.6875 
Q 12.703125 27.59375 16.21875 28.5625 
Q 18.796875 29.25 24.03125 29.890625 
Q 34.671875 31.15625 39.703125 32.90625 
Q 39.75 34.71875 39.75 35.203125 
Q 39.75 40.578125 37.25 42.78125 
Q 33.890625 45.75 27.25 45.75 
Q 21.046875 45.75 18.09375 43.578125 
Q 15.140625 41.40625 13.71875 35.890625 
L 5.125 37.0625 
Q 6.296875 42.578125 8.984375 45.96875 
Q 11.671875 49.359375 16.75 51.1875 
Q 21.828125 53.03125 28.515625 53.03125 
Q 35.15625 53.03125 39.296875 51.46875 
Q 43.453125 49.90625 45.40625 47.53125 
Q 47.359375 45.171875 48.140625 41.546875 
Q 48.578125 39.3125 48.578125 33.453125 
L 48.578125 21.734375 
Q 48.578125 9.46875 49.140625 6.21875 
Q 49.703125 2.984375 51.375 0 
L 42.1875 0 
Q 40.828125 2.734375 40.4375 6.390625 
z
M 39.703125 26.03125 
Q 34.90625 24.078125 25.34375 22.703125 
Q 19.921875 21.921875 17.671875 20.9375 
Q 15.4375 19.96875 14.203125 18.09375 
Q 12.984375 16.21875 12.984375 13.921875 
Q 12.984375 10.40625 15.640625 8.0625 
Q 18.3125 5.71875 23.4375 5.71875 
Q 28.515625 5.71875 32.46875 7.9375 
Q 36.421875 10.15625 38.28125 14.015625 
Q 39.703125 17 39.703125 22.796875 
z
" id="ArialMT-97"/>
      <path d="M 6.59375 0 
L 6.59375 51.859375 
L 14.5 51.859375 
L 14.5 44.484375 
Q 20.21875 53.03125 31 53.03125 
Q 35.6875 53.03125 39.625 51.34375 
Q 43.5625 49.65625 45.515625 46.921875 
Q 47.46875 44.1875 48.25 40.4375 
Q 48.734375 37.984375 48.734375 31.890625 
L 48.734375 0 
L 39.9375 0 
L 39.9375 31.546875 
Q 39.9375 36.921875 38.90625 39.578125 
Q 37.890625 42.234375 35.28125 43.8125 
Q 32.671875 45.40625 29.15625 45.40625 
Q 23.53125 45.40625 19.453125 41.84375 
Q 15.375 38.28125 15.375 28.328125 
L 15.375 0 
z
" id="ArialMT-110"/>
      <path d="M 25.78125 7.859375 
L 27.046875 0.09375 
Q 23.34375 -0.6875 20.40625 -0.6875 
Q 15.625 -0.6875 12.984375 0.828125 
Q 10.359375 2.34375 9.28125 4.8125 
Q 8.203125 7.28125 8.203125 15.1875 
L 8.203125 45.015625 
L 1.765625 45.015625 
L 1.765625 51.859375 
L 8.203125 51.859375 
L 8.203125 64.703125 
L 16.9375 69.96875 
L 16.9375 51.859375 
L 25.78125 51.859375 
L 25.78125 45.015625 
L 16.9375 45.015625 
L 16.9375 14.703125 
Q 16.9375 10.9375 17.40625 9.859375 
Q 17.875 8.796875 18.921875 8.15625 
Q 19.96875 7.515625 21.921875 7.515625 
Q 23.390625 7.515625 25.78125 7.859375 
z
" id="ArialMT-116"/>
      <path d="M 6.640625 61.46875 
L 6.640625 71.578125 
L 15.4375 71.578125 
L 15.4375 61.46875 
z
M 6.640625 0 
L 6.640625 51.859375 
L 15.4375 51.859375 
L 15.4375 0 
z
" id="ArialMT-105"/>
      <path d="M 1.953125 0 
L 1.953125 7.125 
L 34.96875 45.015625 
Q 29.34375 44.734375 25.046875 44.734375 
L 3.90625 44.734375 
L 3.90625 51.859375 
L 46.296875 51.859375 
L 46.296875 46.046875 
L 18.21875 13.140625 
L 12.796875 7.125 
Q 18.703125 7.5625 23.875 7.5625 
L 47.859375 7.5625 
L 47.859375 0 
z
" id="ArialMT-122"/>
      <path d="M 3.328125 25.921875 
Q 3.328125 40.328125 11.328125 47.265625 
Q 18.015625 53.03125 27.640625 53.03125 
Q 38.328125 53.03125 45.109375 46.015625 
Q 51.90625 39.015625 51.90625 26.65625 
Q 51.90625 16.65625 48.90625 10.90625 
Q 45.90625 5.171875 40.15625 2 
Q 34.421875 -1.171875 27.640625 -1.171875 
Q 16.75 -1.171875 10.03125 5.8125 
Q 3.328125 12.796875 3.328125 25.921875 
z
M 12.359375 25.921875 
Q 12.359375 15.96875 16.703125 11.015625 
Q 21.046875 6.0625 27.640625 6.0625 
Q 34.1875 6.0625 38.53125 11.03125 
Q 42.875 16.015625 42.875 26.21875 
Q 42.875 35.84375 38.5 40.796875 
Q 34.125 45.75 27.640625 45.75 
Q 21.046875 45.75 16.703125 40.8125 
Q 12.359375 35.890625 12.359375 25.921875 
z
" id="ArialMT-111"/>
     </defs>
     <use xlink:href="#ArialMT-68"/>
     <use x="72.216797" xlink:href="#ArialMT-101"/>
     <use x="127.832031" xlink:href="#ArialMT-113"/>
     <use x="183.447266" xlink:href="#ArialMT-117"/>
     <use x="239.0625" xlink:href="#ArialMT-97"/>
     <use x="294.677734" xlink:href="#ArialMT-110"/>
     <use x="350.292969" xlink:href="#ArialMT-116"/>
     <use x="378.076172" xlink:href="#ArialMT-105"/>
     <use x="400.292969" xlink:href="#ArialMT-122"/>
     <use x="450.292969" xlink:href="#ArialMT-97"/>
     <use x="505.908203" xlink:href="#ArialMT-116"/>
     <use x="533.691406" xlink:href="#ArialMT-105"/>
     <use x="555.908203" xlink:href="#ArialMT-111"/>
     <use x="611.523438" xlink:href="#ArialMT-110"/>
    </g>
   </g>
  </g>
 </g>
 <defs>
  <clipPath id="p2436f7fa60">
   <rect height="163.08" width="558" x="31.99" y="21.789375"/>
  </clipPath>
 </defs>
</svg>
