<?xml version="1.0" encoding="utf-8" standalone="no"?>
<!DOCTYPE svg PUBLIC "-//W3C//DTD SVG 1.1//EN"
  "http://www.w3.org/Graphics/SVG/1.1/DTD/svg11.dtd">
<!-- Created with matplotlib (https://matplotlib.org/) -->
<svg height="211.629219pt" version="1.1" viewBox="0 0 597.19 211.629219" width="597.19pt" xmlns="http://www.w3.org/2000/svg" xmlns:xlink="http://www.w3.org/1999/xlink">
 <metadata>
  <rdf:RDF xmlns:cc="http://creativecommons.org/ns#" xmlns:dc="http://purl.org/dc/elements/1.1/" xmlns:rdf="http://www.w3.org/1999/02/22-rdf-syntax-ns#">
   <cc:Work>
    <dc:type rdf:resource="http://purl.org/dc/dcmitype/StillImage"/>
    <dc:date>2022-09-25T13:16:20.569011</dc:date>
    <dc:format>image/svg+xml</dc:format>
    <dc:creator>
     <cc:Agent>
      <dc:title>Matplotlib v3.3.2, https://matplotlib.org/</dc:title>
     </cc:Agent>
    </dc:creator>
   </cc:Work>
  </rdf:RDF>
 </metadata>
 <defs>
  <style type="text/css">*{stroke-linecap:butt;stroke-linejoin:round;}</style>
 </defs>
 <g id="figure_1">
  <g id="patch_1">
   <path d="M 0 211.629219 
L 597.19 211.629219 
L 597.19 0 
L 0 0 
z
" style="fill:#ffffff;"/>
  </g>
  <g id="axes_1">
   <g id="patch_2">
    <path d="M 31.99 184.869375 
L 589.99 184.869375 
L 589.99 21.789375 
L 31.99 21.789375 
z
" style="fill:#eaeaf2;"/>
   </g>
   <g id="matplotlib.axis_1">
    <g id="xtick_1">
     <g id="line2d_1">
      <path clip-path="url(#pf3eedaea07)" d="M 103.539157 184.869375 
L 103.539157 21.789375 
" style="fill:none;stroke:#ffffff;stroke-linecap:round;"/>
     </g>
     <g id="text_1">
      <!-- −10 -->
      <g style="fill:#262626;" transform="translate(94.209782 202.242969)scale(0.11 -0.11)">
       <defs>
        <path d="M 52.828125 31.203125 
L 5.5625 31.203125 
L 5.5625 39.40625 
L 52.828125 39.40625 
z
" id="ArialMT-8722"/>
        <path d="M 37.25 0 
L 28.46875 0 
L 28.46875 56 
Q 25.296875 52.984375 20.140625 49.953125 
Q 14.984375 46.921875 10.890625 45.40625 
L 10.890625 53.90625 
Q 18.265625 57.375 23.78125 62.296875 
Q 29.296875 67.234375 31.59375 71.875 
L 37.25 71.875 
z
" id="ArialMT-49"/>
        <path d="M 4.15625 35.296875 
Q 4.15625 48 6.765625 55.734375 
Q 9.375 63.484375 14.515625 67.671875 
Q 19.671875 71.875 27.484375 71.875 
Q 33.25 71.875 37.59375 69.546875 
Q 41.9375 67.234375 44.765625 62.859375 
Q 47.609375 58.5 49.21875 52.21875 
Q 50.828125 45.953125 50.828125 35.296875 
Q 50.828125 22.703125 48.234375 14.96875 
Q 45.65625 7.234375 40.5 3 
Q 35.359375 -1.21875 27.484375 -1.21875 
Q 17.140625 -1.21875 11.234375 6.203125 
Q 4.15625 15.140625 4.15625 35.296875 
z
M 13.1875 35.296875 
Q 13.1875 17.671875 17.3125 11.828125 
Q 21.4375 6 27.484375 6 
Q 33.546875 6 37.671875 11.859375 
Q 41.796875 17.71875 41.796875 35.296875 
Q 41.796875 52.984375 37.671875 58.78125 
Q 33.546875 64.59375 27.390625 64.59375 
Q 21.34375 64.59375 17.71875 59.46875 
Q 13.1875 52.9375 13.1875 35.296875 
z
" id="ArialMT-48"/>
       </defs>
       <use xlink:href="#ArialMT-8722"/>
       <use x="58.398438" xlink:href="#ArialMT-49"/>
       <use x="114.013672" xlink:href="#ArialMT-48"/>
      </g>
     </g>
    </g>
    <g id="xtick_2">
     <g id="line2d_2">
      <path clip-path="url(#pf3eedaea07)" d="M 208.187307 184.869375 
L 208.187307 21.789375 
" style="fill:none;stroke:#ffffff;stroke-linecap:round;"/>
     </g>
     <g id="text_2">
      <!-- −5 -->
      <g style="fill:#262626;" transform="translate(201.916447 202.242969)scale(0.11 -0.11)">
       <defs>
        <path d="M 4.15625 18.75 
L 13.375 19.53125 
Q 14.40625 12.796875 18.140625 9.390625 
Q 21.875 6 27.15625 6 
Q 33.5 6 37.890625 10.78125 
Q 42.28125 15.578125 42.28125 23.484375 
Q 42.28125 31 38.0625 35.34375 
Q 33.84375 39.703125 27 39.703125 
Q 22.75 39.703125 19.328125 37.765625 
Q 15.921875 35.84375 13.96875 32.765625 
L 5.71875 33.84375 
L 12.640625 70.609375 
L 48.25 70.609375 
L 48.25 62.203125 
L 19.671875 62.203125 
L 15.828125 42.96875 
Q 22.265625 47.46875 29.34375 47.46875 
Q 38.71875 47.46875 45.15625 40.96875 
Q 51.609375 34.46875 51.609375 24.265625 
Q 51.609375 14.546875 45.953125 7.46875 
Q 39.0625 -1.21875 27.15625 -1.21875 
Q 17.390625 -1.21875 11.203125 4.25 
Q 5.03125 9.71875 4.15625 18.75 
z
" id="ArialMT-53"/>
       </defs>
       <use xlink:href="#ArialMT-8722"/>
       <use x="58.398438" xlink:href="#ArialMT-53"/>
      </g>
     </g>
    </g>
    <g id="xtick_3">
     <g id="line2d_3">
      <path clip-path="url(#pf3eedaea07)" d="M 312.835456 184.869375 
L 312.835456 21.789375 
" style="fill:none;stroke:#ffffff;stroke-linecap:round;"/>
     </g>
     <g id="text_3">
      <!-- 0 -->
      <g style="fill:#262626;" transform="translate(309.776941 202.242969)scale(0.11 -0.11)">
       <use xlink:href="#ArialMT-48"/>
      </g>
     </g>
    </g>
    <g id="xtick_4">
     <g id="line2d_4">
      <path clip-path="url(#pf3eedaea07)" d="M 417.483606 184.869375 
L 417.483606 21.789375 
" style="fill:none;stroke:#ffffff;stroke-linecap:round;"/>
     </g>
     <g id="text_4">
      <!-- 5 -->
      <g style="fill:#262626;" transform="translate(414.42509 202.242969)scale(0.11 -0.11)">
       <use xlink:href="#ArialMT-53"/>
      </g>
     </g>
    </g>
    <g id="xtick_5">
     <g id="line2d_5">
      <path clip-path="url(#pf3eedaea07)" d="M 522.131755 184.869375 
L 522.131755 21.789375 
" style="fill:none;stroke:#ffffff;stroke-linecap:round;"/>
     </g>
     <g id="text_5">
      <!-- 10 -->
      <g style="fill:#262626;" transform="translate(516.014724 202.242969)scale(0.11 -0.11)">
       <use xlink:href="#ArialMT-49"/>
       <use x="55.615234" xlink:href="#ArialMT-48"/>
      </g>
     </g>
    </g>
   </g>
   <g id="matplotlib.axis_2">
    <g id="ytick_1">
     <g id="line2d_6">
      <path clip-path="url(#pf3eedaea07)" d="M 31.99 184.869375 
L 589.99 184.869375 
" style="fill:none;stroke:#ffffff;stroke-linecap:round;"/>
     </g>
     <g id="text_6">
      <!-- 0.0 -->
      <g style="fill:#262626;" transform="translate(7.2 188.806172)scale(0.11 -0.11)">
       <defs>
        <path d="M 9.078125 0 
L 9.078125 10.015625 
L 19.09375 10.015625 
L 19.09375 0 
z
" id="ArialMT-46"/>
       </defs>
       <use xlink:href="#ArialMT-48"/>
       <use x="55.615234" xlink:href="#ArialMT-46"/>
       <use x="83.398438" xlink:href="#ArialMT-48"/>
      </g>
     </g>
    </g>
    <g id="ytick_2">
     <g id="line2d_7">
      <path clip-path="url(#pf3eedaea07)" d="M 31.99 146.110959 
L 589.99 146.110959 
" style="fill:none;stroke:#ffffff;stroke-linecap:round;"/>
     </g>
     <g id="text_7">
      <!-- 0.1 -->
      <g style="fill:#262626;" transform="translate(7.2 150.047756)scale(0.11 -0.11)">
       <use xlink:href="#ArialMT-48"/>
       <use x="55.615234" xlink:href="#ArialMT-46"/>
       <use x="83.398438" xlink:href="#ArialMT-49"/>
      </g>
     </g>
    </g>
    <g id="ytick_3">
     <g id="line2d_8">
      <path clip-path="url(#pf3eedaea07)" d="M 31.99 107.352542 
L 589.99 107.352542 
" style="fill:none;stroke:#ffffff;stroke-linecap:round;"/>
     </g>
     <g id="text_8">
      <!-- 0.2 -->
      <g style="fill:#262626;" transform="translate(7.2 111.289339)scale(0.11 -0.11)">
       <defs>
        <path d="M 50.34375 8.453125 
L 50.34375 0 
L 3.03125 0 
Q 2.9375 3.171875 4.046875 6.109375 
Q 5.859375 10.9375 9.828125 15.625 
Q 13.8125 20.3125 21.34375 26.46875 
Q 33.015625 36.03125 37.109375 41.625 
Q 41.21875 47.21875 41.21875 52.203125 
Q 41.21875 57.421875 37.46875 61 
Q 33.734375 64.59375 27.734375 64.59375 
Q 21.390625 64.59375 17.578125 60.78125 
Q 13.765625 56.984375 13.71875 50.25 
L 4.6875 51.171875 
Q 5.609375 61.28125 11.65625 66.578125 
Q 17.71875 71.875 27.9375 71.875 
Q 38.234375 71.875 44.234375 66.15625 
Q 50.25 60.453125 50.25 52 
Q 50.25 47.703125 48.484375 43.546875 
Q 46.734375 39.40625 42.65625 34.8125 
Q 38.578125 30.21875 29.109375 22.21875 
Q 21.1875 15.578125 18.9375 13.203125 
Q 16.703125 10.84375 15.234375 8.453125 
z
" id="ArialMT-50"/>
       </defs>
       <use xlink:href="#ArialMT-48"/>
       <use x="55.615234" xlink:href="#ArialMT-46"/>
       <use x="83.398438" xlink:href="#ArialMT-50"/>
      </g>
     </g>
    </g>
    <g id="ytick_4">
     <g id="line2d_9">
      <path clip-path="url(#pf3eedaea07)" d="M 31.99 68.594126 
L 589.99 68.594126 
" style="fill:none;stroke:#ffffff;stroke-linecap:round;"/>
     </g>
     <g id="text_9">
      <!-- 0.3 -->
      <g style="fill:#262626;" transform="translate(7.2 72.530923)scale(0.11 -0.11)">
       <defs>
        <path d="M 4.203125 18.890625 
L 12.984375 20.0625 
Q 14.5 12.59375 18.140625 9.296875 
Q 21.78125 6 27 6 
Q 33.203125 6 37.46875 10.296875 
Q 41.75 14.59375 41.75 20.953125 
Q 41.75 27 37.796875 30.921875 
Q 33.84375 34.859375 27.734375 34.859375 
Q 25.25 34.859375 21.53125 33.890625 
L 22.515625 41.609375 
Q 23.390625 41.5 23.921875 41.5 
Q 29.546875 41.5 34.03125 44.421875 
Q 38.53125 47.359375 38.53125 53.46875 
Q 38.53125 58.296875 35.25 61.46875 
Q 31.984375 64.65625 26.8125 64.65625 
Q 21.6875 64.65625 18.265625 61.421875 
Q 14.84375 58.203125 13.875 51.765625 
L 5.078125 53.328125 
Q 6.6875 62.15625 12.390625 67.015625 
Q 18.109375 71.875 26.609375 71.875 
Q 32.46875 71.875 37.390625 69.359375 
Q 42.328125 66.84375 44.9375 62.5 
Q 47.5625 58.15625 47.5625 53.265625 
Q 47.5625 48.640625 45.0625 44.828125 
Q 42.578125 41.015625 37.703125 38.765625 
Q 44.046875 37.3125 47.5625 32.6875 
Q 51.078125 28.078125 51.078125 21.140625 
Q 51.078125 11.765625 44.234375 5.25 
Q 37.40625 -1.265625 26.953125 -1.265625 
Q 17.53125 -1.265625 11.296875 4.34375 
Q 5.078125 9.96875 4.203125 18.890625 
z
" id="ArialMT-51"/>
       </defs>
       <use xlink:href="#ArialMT-48"/>
       <use x="55.615234" xlink:href="#ArialMT-46"/>
       <use x="83.398438" xlink:href="#ArialMT-51"/>
      </g>
     </g>
    </g>
    <g id="ytick_5">
     <g id="line2d_10">
      <path clip-path="url(#pf3eedaea07)" d="M 31.99 29.83571 
L 589.99 29.83571 
" style="fill:none;stroke:#ffffff;stroke-linecap:round;"/>
     </g>
     <g id="text_10">
      <!-- 0.4 -->
      <g style="fill:#262626;" transform="translate(7.2 33.772507)scale(0.11 -0.11)">
       <defs>
        <path d="M 32.328125 0 
L 32.328125 17.140625 
L 1.265625 17.140625 
L 1.265625 25.203125 
L 33.9375 71.578125 
L 41.109375 71.578125 
L 41.109375 25.203125 
L 50.78125 25.203125 
L 50.78125 17.140625 
L 41.109375 17.140625 
L 41.109375 0 
z
M 32.328125 25.203125 
L 32.328125 57.46875 
L 9.90625 25.203125 
z
" id="ArialMT-52"/>
       </defs>
       <use xlink:href="#ArialMT-48"/>
       <use x="55.615234" xlink:href="#ArialMT-46"/>
       <use x="83.398438" xlink:href="#ArialMT-52"/>
      </g>
     </g>
    </g>
   </g>
   <g id="patch_3">
    <path clip-path="url(#pf3eedaea07)" d="M 57.353636 184.869375 
L 59.33517 184.869375 
L 59.33517 184.795435 
L 57.353636 184.795435 
z
" style="fill:#4c72b0;fill-opacity:0.5;stroke:#4c72b0;stroke-linejoin:miter;"/>
   </g>
   <g id="patch_4">
    <path clip-path="url(#pf3eedaea07)" d="M 59.33515 184.869375 
L 61.316684 184.869375 
L 61.316684 184.706198 
L 59.33515 184.706198 
z
" style="fill:#4c72b0;fill-opacity:0.5;stroke:#4c72b0;stroke-linejoin:miter;"/>
   </g>
   <g id="patch_5">
    <path clip-path="url(#pf3eedaea07)" d="M 61.316704 184.869375 
L 63.298238 184.869375 
L 63.298238 184.660304 
L 61.316704 184.660304 
z
" style="fill:#4c72b0;fill-opacity:0.5;stroke:#4c72b0;stroke-linejoin:miter;"/>
   </g>
   <g id="patch_6">
    <path clip-path="url(#pf3eedaea07)" d="M 63.298218 184.869375 
L 65.279752 184.869375 
L 65.279752 184.563417 
L 63.298218 184.563417 
z
" style="fill:#4c72b0;fill-opacity:0.5;stroke:#4c72b0;stroke-linejoin:miter;"/>
   </g>
   <g id="patch_7">
    <path clip-path="url(#pf3eedaea07)" d="M 65.279772 184.869375 
L 67.261306 184.869375 
L 67.261306 184.456332 
L 65.279772 184.456332 
z
" style="fill:#4c72b0;fill-opacity:0.5;stroke:#4c72b0;stroke-linejoin:miter;"/>
   </g>
   <g id="patch_8">
    <path clip-path="url(#pf3eedaea07)" d="M 67.261286 184.869375 
L 69.24282 184.869375 
L 69.24282 184.282956 
L 67.261286 184.282956 
z
" style="fill:#4c72b0;fill-opacity:0.5;stroke:#4c72b0;stroke-linejoin:miter;"/>
   </g>
   <g id="patch_9">
    <path clip-path="url(#pf3eedaea07)" d="M 69.24284 184.869375 
L 71.224374 184.869375 
L 71.224374 184.058587 
L 69.24284 184.058587 
z
" style="fill:#4c72b0;fill-opacity:0.5;stroke:#4c72b0;stroke-linejoin:miter;"/>
   </g>
   <g id="patch_10">
    <path clip-path="url(#pf3eedaea07)" d="M 71.224354 184.869375 
L 73.205889 184.869375 
L 73.205889 183.89541 
L 71.224354 183.89541 
z
" style="fill:#4c72b0;fill-opacity:0.5;stroke:#4c72b0;stroke-linejoin:miter;"/>
   </g>
   <g id="patch_11">
    <path clip-path="url(#pf3eedaea07)" d="M 73.205908 184.869375 
L 75.187442 184.869375 
L 75.187442 183.569055 
L 73.205908 183.569055 
z
" style="fill:#4c72b0;fill-opacity:0.5;stroke:#4c72b0;stroke-linejoin:miter;"/>
   </g>
   <g id="patch_12">
    <path clip-path="url(#pf3eedaea07)" d="M 75.187423 184.869375 
L 77.168957 184.869375 
L 77.168957 183.273296 
L 75.187423 183.273296 
z
" style="fill:#4c72b0;fill-opacity:0.5;stroke:#4c72b0;stroke-linejoin:miter;"/>
   </g>
   <g id="patch_13">
    <path clip-path="url(#pf3eedaea07)" d="M 77.168976 184.869375 
L 79.150511 184.869375 
L 79.150511 182.806711 
L 77.168976 182.806711 
z
" style="fill:#4c72b0;fill-opacity:0.5;stroke:#4c72b0;stroke-linejoin:miter;"/>
   </g>
   <g id="patch_14">
    <path clip-path="url(#pf3eedaea07)" d="M 79.150491 184.869375 
L 81.132025 184.869375 
L 81.132025 182.217742 
L 79.150491 182.217742 
z
" style="fill:#4c72b0;fill-opacity:0.5;stroke:#4c72b0;stroke-linejoin:miter;"/>
   </g>
   <g id="patch_15">
    <path clip-path="url(#pf3eedaea07)" d="M 81.132045 184.869375 
L 83.113579 184.869375 
L 83.113579 181.631324 
L 81.132045 181.631324 
z
" style="fill:#4c72b0;fill-opacity:0.5;stroke:#4c72b0;stroke-linejoin:miter;"/>
   </g>
   <g id="patch_16">
    <path clip-path="url(#pf3eedaea07)" d="M 83.113559 184.869375 
L 85.095093 184.869375 
L 85.095093 180.700702 
L 83.113559 180.700702 
z
" style="fill:#4c72b0;fill-opacity:0.5;stroke:#4c72b0;stroke-linejoin:miter;"/>
   </g>
   <g id="patch_17">
    <path clip-path="url(#pf3eedaea07)" d="M 85.095113 184.869375 
L 87.076647 184.869375 
L 87.076647 179.841471 
L 85.095113 179.841471 
z
" style="fill:#4c72b0;fill-opacity:0.5;stroke:#4c72b0;stroke-linejoin:miter;"/>
   </g>
   <g id="patch_18">
    <path clip-path="url(#pf3eedaea07)" d="M 87.076627 184.869375 
L 89.058161 184.869375 
L 89.058161 178.607442 
L 87.076627 178.607442 
z
" style="fill:#4c72b0;fill-opacity:0.5;stroke:#4c72b0;stroke-linejoin:miter;"/>
   </g>
   <g id="patch_19">
    <path clip-path="url(#pf3eedaea07)" d="M 89.058181 184.869375 
L 91.039715 184.869375 
L 91.039715 176.776796 
L 89.058181 176.776796 
z
" style="fill:#4c72b0;fill-opacity:0.5;stroke:#4c72b0;stroke-linejoin:miter;"/>
   </g>
   <g id="patch_20">
    <path clip-path="url(#pf3eedaea07)" d="M 91.039695 184.869375 
L 93.021229 184.869375 
L 93.021229 174.900256 
L 91.039695 174.900256 
z
" style="fill:#4c72b0;fill-opacity:0.5;stroke:#4c72b0;stroke-linejoin:miter;"/>
   </g>
   <g id="patch_21">
    <path clip-path="url(#pf3eedaea07)" d="M 93.021249 184.869375 
L 95.002783 184.869375 
L 95.002783 172.666765 
L 93.021249 172.666765 
z
" style="fill:#4c72b0;fill-opacity:0.5;stroke:#4c72b0;stroke-linejoin:miter;"/>
   </g>
   <g id="patch_22">
    <path clip-path="url(#pf3eedaea07)" d="M 95.002763 184.869375 
L 96.984297 184.869375 
L 96.984297 169.472058 
L 95.002763 169.472058 
z
" style="fill:#4c72b0;fill-opacity:0.5;stroke:#4c72b0;stroke-linejoin:miter;"/>
   </g>
   <g id="patch_23">
    <path clip-path="url(#pf3eedaea07)" d="M 96.984317 184.869375 
L 98.965851 184.869375 
L 98.965851 166.256953 
L 96.984317 166.256953 
z
" style="fill:#4c72b0;fill-opacity:0.5;stroke:#4c72b0;stroke-linejoin:miter;"/>
   </g>
   <g id="patch_24">
    <path clip-path="url(#pf3eedaea07)" d="M 98.965831 184.869375 
L 100.947365 184.869375 
L 100.947365 162.348345 
L 98.965831 162.348345 
z
" style="fill:#4c72b0;fill-opacity:0.5;stroke:#4c72b0;stroke-linejoin:miter;"/>
   </g>
   <g id="patch_25">
    <path clip-path="url(#pf3eedaea07)" d="M 100.947385 184.869375 
L 102.928919 184.869375 
L 102.928919 157.697789 
L 100.947385 157.697789 
z
" style="fill:#4c72b0;fill-opacity:0.5;stroke:#4c72b0;stroke-linejoin:miter;"/>
   </g>
   <g id="patch_26">
    <path clip-path="url(#pf3eedaea07)" d="M 102.928899 184.869375 
L 104.910433 184.869375 
L 104.910433 153.524017 
L 102.928899 153.524017 
z
" style="fill:#4c72b0;fill-opacity:0.5;stroke:#4c72b0;stroke-linejoin:miter;"/>
   </g>
   <g id="patch_27">
    <path clip-path="url(#pf3eedaea07)" d="M 104.910453 184.869375 
L 106.891987 184.869375 
L 106.891987 146.548183 
L 104.910453 146.548183 
z
" style="fill:#4c72b0;fill-opacity:0.5;stroke:#4c72b0;stroke-linejoin:miter;"/>
   </g>
   <g id="patch_28">
    <path clip-path="url(#pf3eedaea07)" d="M 106.891967 184.869375 
L 108.873501 184.869375 
L 108.873501 139.942048 
L 106.891967 139.942048 
z
" style="fill:#4c72b0;fill-opacity:0.5;stroke:#4c72b0;stroke-linejoin:miter;"/>
   </g>
   <g id="patch_29">
    <path clip-path="url(#pf3eedaea07)" d="M 108.873521 184.869375 
L 110.855055 184.869375 
L 110.855055 131.969303 
L 108.873521 131.969303 
z
" style="fill:#4c72b0;fill-opacity:0.5;stroke:#4c72b0;stroke-linejoin:miter;"/>
   </g>
   <g id="patch_30">
    <path clip-path="url(#pf3eedaea07)" d="M 110.855035 184.869375 
L 112.836569 184.869375 
L 112.836569 124.766551 
L 110.855035 124.766551 
z
" style="fill:#4c72b0;fill-opacity:0.5;stroke:#4c72b0;stroke-linejoin:miter;"/>
   </g>
   <g id="patch_31">
    <path clip-path="url(#pf3eedaea07)" d="M 112.836589 184.869375 
L 114.818123 184.869375 
L 114.818123 114.835676 
L 112.836589 114.835676 
z
" style="fill:#4c72b0;fill-opacity:0.5;stroke:#4c72b0;stroke-linejoin:miter;"/>
   </g>
   <g id="patch_32">
    <path clip-path="url(#pf3eedaea07)" d="M 114.818103 184.869375 
L 116.799637 184.869375 
L 116.799637 106.062341 
L 114.818103 106.062341 
z
" style="fill:#4c72b0;fill-opacity:0.5;stroke:#4c72b0;stroke-linejoin:miter;"/>
   </g>
   <g id="patch_33">
    <path clip-path="url(#pf3eedaea07)" d="M 116.799657 184.869375 
L 118.781191 184.869375 
L 118.781191 96.177361 
L 116.799657 96.177361 
z
" style="fill:#4c72b0;fill-opacity:0.5;stroke:#4c72b0;stroke-linejoin:miter;"/>
   </g>
   <g id="patch_34">
    <path clip-path="url(#pf3eedaea07)" d="M 118.781171 184.869375 
L 120.762705 184.869375 
L 120.762705 86.542245 
L 118.781171 86.542245 
z
" style="fill:#4c72b0;fill-opacity:0.5;stroke:#4c72b0;stroke-linejoin:miter;"/>
   </g>
   <g id="patch_35">
    <path clip-path="url(#pf3eedaea07)" d="M 120.762725 184.869375 
L 122.744259 184.869375 
L 122.744259 75.043338 
L 120.762725 75.043338 
z
" style="fill:#4c72b0;fill-opacity:0.5;stroke:#4c72b0;stroke-linejoin:miter;"/>
   </g>
   <g id="patch_36">
    <path clip-path="url(#pf3eedaea07)" d="M 122.744239 184.869375 
L 124.725773 184.869375 
L 124.725773 65.255244 
L 122.744239 65.255244 
z
" style="fill:#4c72b0;fill-opacity:0.5;stroke:#4c72b0;stroke-linejoin:miter;"/>
   </g>
   <g id="patch_37">
    <path clip-path="url(#pf3eedaea07)" d="M 124.725793 184.869375 
L 126.707327 184.869375 
L 126.707327 54.771096 
L 124.725793 54.771096 
z
" style="fill:#4c72b0;fill-opacity:0.5;stroke:#4c72b0;stroke-linejoin:miter;"/>
   </g>
   <g id="patch_38">
    <path clip-path="url(#pf3eedaea07)" d="M 126.707307 184.869375 
L 128.688841 184.869375 
L 128.688841 48.037479 
L 126.707307 48.037479 
z
" style="fill:#4c72b0;fill-opacity:0.5;stroke:#4c72b0;stroke-linejoin:miter;"/>
   </g>
   <g id="patch_39">
    <path clip-path="url(#pf3eedaea07)" d="M 128.688861 184.869375 
L 130.670395 184.869375 
L 130.670395 39.554804 
L 128.688861 39.554804 
z
" style="fill:#4c72b0;fill-opacity:0.5;stroke:#4c72b0;stroke-linejoin:miter;"/>
   </g>
   <g id="patch_40">
    <path clip-path="url(#pf3eedaea07)" d="M 130.670375 184.869375 
L 132.651909 184.869375 
L 132.651909 36.094933 
L 130.670375 36.094933 
z
" style="fill:#4c72b0;fill-opacity:0.5;stroke:#4c72b0;stroke-linejoin:miter;"/>
   </g>
   <g id="patch_41">
    <path clip-path="url(#pf3eedaea07)" d="M 132.651929 184.869375 
L 134.633463 184.869375 
L 134.633463 31.431629 
L 132.651929 31.431629 
z
" style="fill:#4c72b0;fill-opacity:0.5;stroke:#4c72b0;stroke-linejoin:miter;"/>
   </g>
   <g id="patch_42">
    <path clip-path="url(#pf3eedaea07)" d="M 134.633443 184.869375 
L 136.614977 184.869375 
L 136.614977 29.555089 
L 134.633443 29.555089 
z
" style="fill:#4c72b0;fill-opacity:0.5;stroke:#4c72b0;stroke-linejoin:miter;"/>
   </g>
   <g id="patch_43">
    <path clip-path="url(#pf3eedaea07)" d="M 136.614997 184.869375 
L 138.596531 184.869375 
L 138.596531 31.885466 
L 136.614997 31.885466 
z
" style="fill:#4c72b0;fill-opacity:0.5;stroke:#4c72b0;stroke-linejoin:miter;"/>
   </g>
   <g id="patch_44">
    <path clip-path="url(#pf3eedaea07)" d="M 138.596511 184.869375 
L 140.578045 184.869375 
L 140.578045 35.90371 
L 138.596511 35.90371 
z
" style="fill:#4c72b0;fill-opacity:0.5;stroke:#4c72b0;stroke-linejoin:miter;"/>
   </g>
   <g id="patch_45">
    <path clip-path="url(#pf3eedaea07)" d="M 140.578065 184.869375 
L 142.559599 184.869375 
L 142.559599 40.625656 
L 140.578065 40.625656 
z
" style="fill:#4c72b0;fill-opacity:0.5;stroke:#4c72b0;stroke-linejoin:miter;"/>
   </g>
   <g id="patch_46">
    <path clip-path="url(#pf3eedaea07)" d="M 142.559579 184.869375 
L 144.541113 184.869375 
L 144.541113 48.583104 
L 142.559579 48.583104 
z
" style="fill:#4c72b0;fill-opacity:0.5;stroke:#4c72b0;stroke-linejoin:miter;"/>
   </g>
   <g id="patch_47">
    <path clip-path="url(#pf3eedaea07)" d="M 144.541133 184.869375 
L 146.522667 184.869375 
L 146.522667 58.294708 
L 144.541133 58.294708 
z
" style="fill:#4c72b0;fill-opacity:0.5;stroke:#4c72b0;stroke-linejoin:miter;"/>
   </g>
   <g id="patch_48">
    <path clip-path="url(#pf3eedaea07)" d="M 146.522667 184.869375 
L 148.504201 184.869375 
L 148.504201 68.834948 
L 146.522667 68.834948 
z
" style="fill:#4c72b0;fill-opacity:0.5;stroke:#4c72b0;stroke-linejoin:miter;"/>
   </g>
   <g id="patch_49">
    <path clip-path="url(#pf3eedaea07)" d="M 148.504201 184.869375 
L 150.485735 184.869375 
L 150.485735 79.112575 
L 148.504201 79.112575 
z
" style="fill:#4c72b0;fill-opacity:0.5;stroke:#4c72b0;stroke-linejoin:miter;"/>
   </g>
   <g id="patch_50">
    <path clip-path="url(#pf3eedaea07)" d="M 150.485735 184.869375 
L 152.467269 184.869375 
L 152.467269 92.327394 
L 150.485735 92.327394 
z
" style="fill:#4c72b0;fill-opacity:0.5;stroke:#4c72b0;stroke-linejoin:miter;"/>
   </g>
   <g id="patch_51">
    <path clip-path="url(#pf3eedaea07)" d="M 152.467269 184.869375 
L 154.448803 184.869375 
L 154.448803 102.961971 
L 152.467269 102.961971 
z
" style="fill:#4c72b0;fill-opacity:0.5;stroke:#4c72b0;stroke-linejoin:miter;"/>
   </g>
   <g id="patch_52">
    <path clip-path="url(#pf3eedaea07)" d="M 154.448803 184.869375 
L 156.430337 184.869375 
L 156.430337 114.606208 
L 154.448803 114.606208 
z
" style="fill:#4c72b0;fill-opacity:0.5;stroke:#4c72b0;stroke-linejoin:miter;"/>
   </g>
   <g id="patch_53">
    <path clip-path="url(#pf3eedaea07)" d="M 156.430337 184.869375 
L 158.411871 184.869375 
L 158.411871 125.521246 
L 156.430337 125.521246 
z
" style="fill:#4c72b0;fill-opacity:0.5;stroke:#4c72b0;stroke-linejoin:miter;"/>
   </g>
   <g id="patch_54">
    <path clip-path="url(#pf3eedaea07)" d="M 158.411871 184.869375 
L 160.393405 184.869375 
L 160.393405 134.536797 
L 158.411871 134.536797 
z
" style="fill:#4c72b0;fill-opacity:0.5;stroke:#4c72b0;stroke-linejoin:miter;"/>
   </g>
   <g id="patch_55">
    <path clip-path="url(#pf3eedaea07)" d="M 160.393405 184.869375 
L 162.374939 184.869375 
L 162.374939 143.720625 
L 160.393405 143.720625 
z
" style="fill:#4c72b0;fill-opacity:0.5;stroke:#4c72b0;stroke-linejoin:miter;"/>
   </g>
   <g id="patch_56">
    <path clip-path="url(#pf3eedaea07)" d="M 162.374939 184.869375 
L 164.356473 184.869375 
L 164.356473 151.372115 
L 162.374939 151.372115 
z
" style="fill:#4c72b0;fill-opacity:0.5;stroke:#4c72b0;stroke-linejoin:miter;"/>
   </g>
   <g id="patch_57">
    <path clip-path="url(#pf3eedaea07)" d="M 164.356473 184.869375 
L 166.338007 184.869375 
L 166.338007 156.846207 
L 164.356473 156.846207 
z
" style="fill:#4c72b0;fill-opacity:0.5;stroke:#4c72b0;stroke-linejoin:miter;"/>
   </g>
   <g id="patch_58">
    <path clip-path="url(#pf3eedaea07)" d="M 166.338007 184.869375 
L 168.319541 184.869375 
L 168.319541 162.218313 
L 166.338007 162.218313 
z
" style="fill:#4c72b0;fill-opacity:0.5;stroke:#4c72b0;stroke-linejoin:miter;"/>
   </g>
   <g id="patch_59">
    <path clip-path="url(#pf3eedaea07)" d="M 168.319541 184.869375 
L 170.301075 184.869375 
L 170.301075 166.468574 
L 168.319541 166.468574 
z
" style="fill:#4c72b0;fill-opacity:0.5;stroke:#4c72b0;stroke-linejoin:miter;"/>
   </g>
   <g id="patch_60">
    <path clip-path="url(#pf3eedaea07)" d="M 170.301075 184.869375 
L 172.282609 184.869375 
L 172.282609 169.869803 
L 170.301075 169.869803 
z
" style="fill:#4c72b0;fill-opacity:0.5;stroke:#4c72b0;stroke-linejoin:miter;"/>
   </g>
   <g id="patch_61">
    <path clip-path="url(#pf3eedaea07)" d="M 172.282609 184.869375 
L 174.264143 184.869375 
L 174.264143 172.516336 
L 172.282609 172.516336 
z
" style="fill:#4c72b0;fill-opacity:0.5;stroke:#4c72b0;stroke-linejoin:miter;"/>
   </g>
   <g id="patch_62">
    <path clip-path="url(#pf3eedaea07)" d="M 174.264143 184.869375 
L 176.245677 184.869375 
L 176.245677 174.846713 
L 174.264143 174.846713 
z
" style="fill:#4c72b0;fill-opacity:0.5;stroke:#4c72b0;stroke-linejoin:miter;"/>
   </g>
   <g id="patch_63">
    <path clip-path="url(#pf3eedaea07)" d="M 176.245677 184.869375 
L 178.227211 184.869375 
L 178.227211 176.7513 
L 176.245677 176.7513 
z
" style="fill:#4c72b0;fill-opacity:0.5;stroke:#4c72b0;stroke-linejoin:miter;"/>
   </g>
   <g id="patch_64">
    <path clip-path="url(#pf3eedaea07)" d="M 178.227211 184.869375 
L 180.208745 184.869375 
L 180.208745 178.255591 
L 178.227211 178.255591 
z
" style="fill:#4c72b0;fill-opacity:0.5;stroke:#4c72b0;stroke-linejoin:miter;"/>
   </g>
   <g id="patch_65">
    <path clip-path="url(#pf3eedaea07)" d="M 180.208745 184.869375 
L 182.190279 184.869375 
L 182.190279 179.382535 
L 180.208745 179.382535 
z
" style="fill:#4c72b0;fill-opacity:0.5;stroke:#4c72b0;stroke-linejoin:miter;"/>
   </g>
   <g id="patch_66">
    <path clip-path="url(#pf3eedaea07)" d="M 182.190279 184.869375 
L 184.171813 184.869375 
L 184.171813 180.185674 
L 182.190279 180.185674 
z
" style="fill:#4c72b0;fill-opacity:0.5;stroke:#4c72b0;stroke-linejoin:miter;"/>
   </g>
   <g id="patch_67">
    <path clip-path="url(#pf3eedaea07)" d="M 184.171813 184.869375 
L 186.153367 184.869375 
L 186.153367 181.088268 
L 184.171813 181.088268 
z
" style="fill:#4c72b0;fill-opacity:0.5;stroke:#4c72b0;stroke-linejoin:miter;"/>
   </g>
   <g id="patch_68">
    <path clip-path="url(#pf3eedaea07)" d="M 186.153357 184.869375 
L 188.134891 184.869375 
L 188.134891 181.621125 
L 186.153357 181.621125 
z
" style="fill:#4c72b0;fill-opacity:0.5;stroke:#4c72b0;stroke-linejoin:miter;"/>
   </g>
   <g id="patch_69">
    <path clip-path="url(#pf3eedaea07)" d="M 188.134891 184.869375 
L 190.116425 184.869375 
L 190.116425 182.072412 
L 188.134891 182.072412 
z
" style="fill:#4c72b0;fill-opacity:0.5;stroke:#4c72b0;stroke-linejoin:miter;"/>
   </g>
   <g id="patch_70">
    <path clip-path="url(#pf3eedaea07)" d="M 190.116425 184.869375 
L 192.097959 184.869375 
L 192.097959 182.607838 
L 190.116425 182.607838 
z
" style="fill:#4c72b0;fill-opacity:0.5;stroke:#4c72b0;stroke-linejoin:miter;"/>
   </g>
   <g id="patch_71">
    <path clip-path="url(#pf3eedaea07)" d="M 192.097959 184.869375 
L 194.079493 184.869375 
L 194.079493 183.038729 
L 192.097959 183.038729 
z
" style="fill:#4c72b0;fill-opacity:0.5;stroke:#4c72b0;stroke-linejoin:miter;"/>
   </g>
   <g id="patch_72">
    <path clip-path="url(#pf3eedaea07)" d="M 194.079493 184.869375 
L 196.061027 184.869375 
L 196.061027 183.334488 
L 194.079493 183.334488 
z
" style="fill:#4c72b0;fill-opacity:0.5;stroke:#4c72b0;stroke-linejoin:miter;"/>
   </g>
   <g id="patch_73">
    <path clip-path="url(#pf3eedaea07)" d="M 196.061027 184.869375 
L 198.042561 184.869375 
L 198.042561 184.188619 
L 196.061027 184.188619 
z
" style="fill:#4c72b0;fill-opacity:0.5;stroke:#4c72b0;stroke-linejoin:miter;"/>
   </g>
   <g id="patch_74">
    <path clip-path="url(#pf3eedaea07)" d="M 198.042561 184.869375 
L 200.024095 184.869375 
L 200.024095 184.632258 
L 198.042561 184.632258 
z
" style="fill:#4c72b0;fill-opacity:0.5;stroke:#4c72b0;stroke-linejoin:miter;"/>
   </g>
   <g id="patch_75">
    <path clip-path="url(#pf3eedaea07)" d="M 200.024095 184.869375 
L 202.005629 184.869375 
L 202.005629 184.655205 
L 200.024095 184.655205 
z
" style="fill:#4c72b0;fill-opacity:0.5;stroke:#4c72b0;stroke-linejoin:miter;"/>
   </g>
   <g id="patch_76">
    <path clip-path="url(#pf3eedaea07)" d="M 202.005629 184.869375 
L 203.987163 184.869375 
L 203.987163 184.695999 
L 202.005629 184.695999 
z
" style="fill:#4c72b0;fill-opacity:0.5;stroke:#4c72b0;stroke-linejoin:miter;"/>
   </g>
   <g id="patch_77">
    <path clip-path="url(#pf3eedaea07)" d="M 203.987163 184.869375 
L 205.968697 184.869375 
L 205.968697 184.665403 
L 203.987163 184.665403 
z
" style="fill:#4c72b0;fill-opacity:0.5;stroke:#4c72b0;stroke-linejoin:miter;"/>
   </g>
   <g id="patch_78">
    <path clip-path="url(#pf3eedaea07)" d="M 205.968697 184.869375 
L 207.950231 184.869375 
L 207.950231 184.695999 
L 205.968697 184.695999 
z
" style="fill:#4c72b0;fill-opacity:0.5;stroke:#4c72b0;stroke-linejoin:miter;"/>
   </g>
   <g id="patch_79">
    <path clip-path="url(#pf3eedaea07)" d="M 207.950231 184.869375 
L 209.931765 184.869375 
L 209.931765 184.68835 
L 207.950231 184.68835 
z
" style="fill:#4c72b0;fill-opacity:0.5;stroke:#4c72b0;stroke-linejoin:miter;"/>
   </g>
   <g id="patch_80">
    <path clip-path="url(#pf3eedaea07)" d="M 209.931765 184.869375 
L 211.913299 184.869375 
L 211.913299 184.535371 
L 209.931765 184.535371 
z
" style="fill:#4c72b0;fill-opacity:0.5;stroke:#4c72b0;stroke-linejoin:miter;"/>
   </g>
   <g id="patch_81">
    <path clip-path="url(#pf3eedaea07)" d="M 211.913299 184.869375 
L 213.894833 184.869375 
L 213.894833 184.193719 
L 211.913299 184.193719 
z
" style="fill:#4c72b0;fill-opacity:0.5;stroke:#4c72b0;stroke-linejoin:miter;"/>
   </g>
   <g id="patch_82">
    <path clip-path="url(#pf3eedaea07)" d="M 213.894833 184.869375 
L 215.876367 184.869375 
L 215.876367 184.142726 
L 213.894833 184.142726 
z
" style="fill:#4c72b0;fill-opacity:0.5;stroke:#4c72b0;stroke-linejoin:miter;"/>
   </g>
   <g id="patch_83">
    <path clip-path="url(#pf3eedaea07)" d="M 215.876367 184.869375 
L 217.857901 184.869375 
L 217.857901 184.147825 
L 215.876367 184.147825 
z
" style="fill:#4c72b0;fill-opacity:0.5;stroke:#4c72b0;stroke-linejoin:miter;"/>
   </g>
   <g id="patch_84">
    <path clip-path="url(#pf3eedaea07)" d="M 217.857901 184.869375 
L 219.839435 184.869375 
L 219.839435 184.089183 
L 217.857901 184.089183 
z
" style="fill:#4c72b0;fill-opacity:0.5;stroke:#4c72b0;stroke-linejoin:miter;"/>
   </g>
   <g id="patch_85">
    <path clip-path="url(#pf3eedaea07)" d="M 219.839435 184.869375 
L 221.820969 184.869375 
L 221.820969 184.119779 
L 219.839435 184.119779 
z
" style="fill:#4c72b0;fill-opacity:0.5;stroke:#4c72b0;stroke-linejoin:miter;"/>
   </g>
   <g id="patch_86">
    <path clip-path="url(#pf3eedaea07)" d="M 221.820969 184.869375 
L 223.802503 184.869375 
L 223.802503 183.999945 
L 221.820969 183.999945 
z
" style="fill:#4c72b0;fill-opacity:0.5;stroke:#4c72b0;stroke-linejoin:miter;"/>
   </g>
   <g id="patch_87">
    <path clip-path="url(#pf3eedaea07)" d="M 223.802503 184.869375 
L 225.784037 184.869375 
L 225.784037 183.951502 
L 223.802503 183.951502 
z
" style="fill:#4c72b0;fill-opacity:0.5;stroke:#4c72b0;stroke-linejoin:miter;"/>
   </g>
   <g id="patch_88">
    <path clip-path="url(#pf3eedaea07)" d="M 225.784037 184.869375 
L 227.765571 184.869375 
L 227.765571 183.706736 
L 225.784037 183.706736 
z
" style="fill:#4c72b0;fill-opacity:0.5;stroke:#4c72b0;stroke-linejoin:miter;"/>
   </g>
   <g id="patch_89">
    <path clip-path="url(#pf3eedaea07)" d="M 227.765571 184.869375 
L 229.747105 184.869375 
L 229.747105 183.477264 
L 227.765571 183.477264 
z
" style="fill:#4c72b0;fill-opacity:0.5;stroke:#4c72b0;stroke-linejoin:miter;"/>
   </g>
   <g id="patch_90">
    <path clip-path="url(#pf3eedaea07)" d="M 229.7471 184.869375 
L 231.728634 184.869375 
L 231.728634 183.469619 
L 229.7471 183.469619 
z
" style="fill:#4c72b0;fill-opacity:0.5;stroke:#4c72b0;stroke-linejoin:miter;"/>
   </g>
   <g id="patch_91">
    <path clip-path="url(#pf3eedaea07)" d="M 231.728634 184.869375 
L 233.710169 184.869375 
L 233.710169 183.589452 
L 231.728634 183.589452 
z
" style="fill:#4c72b0;fill-opacity:0.5;stroke:#4c72b0;stroke-linejoin:miter;"/>
   </g>
   <g id="patch_92">
    <path clip-path="url(#pf3eedaea07)" d="M 233.710169 184.869375 
L 235.691703 184.869375 
L 235.691703 182.974987 
L 233.710169 182.974987 
z
" style="fill:#4c72b0;fill-opacity:0.5;stroke:#4c72b0;stroke-linejoin:miter;"/>
   </g>
   <g id="patch_93">
    <path clip-path="url(#pf3eedaea07)" d="M 235.691703 184.869375 
L 237.673237 184.869375 
L 237.673237 182.638434 
L 235.691703 182.638434 
z
" style="fill:#4c72b0;fill-opacity:0.5;stroke:#4c72b0;stroke-linejoin:miter;"/>
   </g>
   <g id="patch_94">
    <path clip-path="url(#pf3eedaea07)" d="M 237.673237 184.869375 
L 239.654771 184.869375 
L 239.654771 182.697076 
L 237.673237 182.697076 
z
" style="fill:#4c72b0;fill-opacity:0.5;stroke:#4c72b0;stroke-linejoin:miter;"/>
   </g>
   <g id="patch_95">
    <path clip-path="url(#pf3eedaea07)" d="M 239.654771 184.869375 
L 241.636305 184.869375 
L 241.636305 182.717473 
L 239.654771 182.717473 
z
" style="fill:#4c72b0;fill-opacity:0.5;stroke:#4c72b0;stroke-linejoin:miter;"/>
   </g>
   <g id="patch_96">
    <path clip-path="url(#pf3eedaea07)" d="M 241.636305 184.869375 
L 243.617839 184.869375 
L 243.617839 182.638434 
L 241.636305 182.638434 
z
" style="fill:#4c72b0;fill-opacity:0.5;stroke:#4c72b0;stroke-linejoin:miter;"/>
   </g>
   <g id="patch_97">
    <path clip-path="url(#pf3eedaea07)" d="M 243.617839 184.869375 
L 245.599373 184.869375 
L 245.599373 181.544636 
L 243.617839 181.544636 
z
" style="fill:#4c72b0;fill-opacity:0.5;stroke:#4c72b0;stroke-linejoin:miter;"/>
   </g>
   <g id="patch_98">
    <path clip-path="url(#pf3eedaea07)" d="M 245.599378 184.869375 
L 247.580912 184.869375 
L 247.580912 181.707821 
L 245.599378 181.707821 
z
" style="fill:#4c72b0;fill-opacity:0.5;stroke:#4c72b0;stroke-linejoin:miter;"/>
   </g>
   <g id="patch_99">
    <path clip-path="url(#pf3eedaea07)" d="M 247.580912 184.869375 
L 249.562446 184.869375 
L 249.562446 181.376359 
L 247.580912 181.376359 
z
" style="fill:#4c72b0;fill-opacity:0.5;stroke:#4c72b0;stroke-linejoin:miter;"/>
   </g>
   <g id="patch_100">
    <path clip-path="url(#pf3eedaea07)" d="M 249.562446 184.869375 
L 251.54398 184.869375 
L 251.54398 181.962778 
L 249.562446 181.962778 
z
" style="fill:#4c72b0;fill-opacity:0.5;stroke:#4c72b0;stroke-linejoin:miter;"/>
   </g>
   <g id="patch_101">
    <path clip-path="url(#pf3eedaea07)" d="M 251.54398 184.869375 
L 253.525514 184.869375 
L 253.525514 180.909773 
L 251.54398 180.909773 
z
" style="fill:#4c72b0;fill-opacity:0.5;stroke:#4c72b0;stroke-linejoin:miter;"/>
   </g>
   <g id="patch_102">
    <path clip-path="url(#pf3eedaea07)" d="M 253.525514 184.869375 
L 255.507048 184.869375 
L 255.507048 181.542086 
L 253.525514 181.542086 
z
" style="fill:#4c72b0;fill-opacity:0.5;stroke:#4c72b0;stroke-linejoin:miter;"/>
   </g>
   <g id="patch_103">
    <path clip-path="url(#pf3eedaea07)" d="M 255.507048 184.869375 
L 257.488582 184.869375 
L 257.488582 181.422252 
L 255.507048 181.422252 
z
" style="fill:#4c72b0;fill-opacity:0.5;stroke:#4c72b0;stroke-linejoin:miter;"/>
   </g>
   <g id="patch_104">
    <path clip-path="url(#pf3eedaea07)" d="M 257.488582 184.869375 
L 259.470116 184.869375 
L 259.470116 181.014309 
L 257.488582 181.014309 
z
" style="fill:#4c72b0;fill-opacity:0.5;stroke:#4c72b0;stroke-linejoin:miter;"/>
   </g>
   <g id="patch_105">
    <path clip-path="url(#pf3eedaea07)" d="M 259.470116 184.869375 
L 261.45165 184.869375 
L 261.45165 180.236667 
L 259.470116 180.236667 
z
" style="fill:#4c72b0;fill-opacity:0.5;stroke:#4c72b0;stroke-linejoin:miter;"/>
   </g>
   <g id="patch_106">
    <path clip-path="url(#pf3eedaea07)" d="M 261.45165 184.869375 
L 263.433184 184.869375 
L 263.433184 179.331542 
L 261.45165 179.331542 
z
" style="fill:#4c72b0;fill-opacity:0.5;stroke:#4c72b0;stroke-linejoin:miter;"/>
   </g>
   <g id="patch_107">
    <path clip-path="url(#pf3eedaea07)" d="M 263.433184 184.869375 
L 265.414718 184.869375 
L 265.414718 180.506929 
L 263.433184 180.506929 
z
" style="fill:#4c72b0;fill-opacity:0.5;stroke:#4c72b0;stroke-linejoin:miter;"/>
   </g>
   <g id="patch_108">
    <path clip-path="url(#pf3eedaea07)" d="M 265.414718 184.869375 
L 267.396252 184.869375 
L 267.396252 180.223918 
L 265.414718 180.223918 
z
" style="fill:#4c72b0;fill-opacity:0.5;stroke:#4c72b0;stroke-linejoin:miter;"/>
   </g>
   <g id="patch_109">
    <path clip-path="url(#pf3eedaea07)" d="M 267.396252 184.869375 
L 269.377786 184.869375 
L 269.377786 180.50183 
L 267.396252 180.50183 
z
" style="fill:#4c72b0;fill-opacity:0.5;stroke:#4c72b0;stroke-linejoin:miter;"/>
   </g>
   <g id="patch_110">
    <path clip-path="url(#pf3eedaea07)" d="M 269.377786 184.869375 
L 271.35932 184.869375 
L 271.35932 177.852738 
L 269.377786 177.852738 
z
" style="fill:#4c72b0;fill-opacity:0.5;stroke:#4c72b0;stroke-linejoin:miter;"/>
   </g>
   <g id="patch_111">
    <path clip-path="url(#pf3eedaea07)" d="M 271.359317 184.869375 
L 273.340851 184.869375 
L 273.340851 179.005187 
L 271.359317 179.005187 
z
" style="fill:#4c72b0;fill-opacity:0.5;stroke:#4c72b0;stroke-linejoin:miter;"/>
   </g>
   <g id="patch_112">
    <path clip-path="url(#pf3eedaea07)" d="M 273.340851 184.869375 
L 275.322385 184.869375 
L 275.322385 179.846571 
L 273.340851 179.846571 
z
" style="fill:#4c72b0;fill-opacity:0.5;stroke:#4c72b0;stroke-linejoin:miter;"/>
   </g>
   <g id="patch_113">
    <path clip-path="url(#pf3eedaea07)" d="M 275.322385 184.869375 
L 277.303919 184.869375 
L 277.303919 178.242843 
L 275.322385 178.242843 
z
" style="fill:#4c72b0;fill-opacity:0.5;stroke:#4c72b0;stroke-linejoin:miter;"/>
   </g>
   <g id="patch_114">
    <path clip-path="url(#pf3eedaea07)" d="M 277.303922 184.869375 
L 279.285456 184.869375 
L 279.285456 178.117919 
L 277.303922 178.117919 
z
" style="fill:#4c72b0;fill-opacity:0.5;stroke:#4c72b0;stroke-linejoin:miter;"/>
   </g>
   <g id="patch_115">
    <path clip-path="url(#pf3eedaea07)" d="M 279.285456 184.869375 
L 281.26699 184.869375 
L 281.26699 178.98479 
L 279.285456 178.98479 
z
" style="fill:#4c72b0;fill-opacity:0.5;stroke:#4c72b0;stroke-linejoin:miter;"/>
   </g>
   <g id="patch_116">
    <path clip-path="url(#pf3eedaea07)" d="M 281.26699 184.869375 
L 283.248524 184.869375 
L 283.248524 178.62529 
L 281.26699 178.62529 
z
" style="fill:#4c72b0;fill-opacity:0.5;stroke:#4c72b0;stroke-linejoin:miter;"/>
   </g>
   <g id="patch_117">
    <path clip-path="url(#pf3eedaea07)" d="M 283.248524 184.869375 
L 285.230058 184.869375 
L 285.230058 177.712516 
L 283.248524 177.712516 
z
" style="fill:#4c72b0;fill-opacity:0.5;stroke:#4c72b0;stroke-linejoin:miter;"/>
   </g>
   <g id="patch_118">
    <path clip-path="url(#pf3eedaea07)" d="M 285.230058 184.869375 
L 287.211592 184.869375 
L 287.211592 177.212786 
L 285.230058 177.212786 
z
" style="fill:#4c72b0;fill-opacity:0.5;stroke:#4c72b0;stroke-linejoin:miter;"/>
   </g>
   <g id="patch_119">
    <path clip-path="url(#pf3eedaea07)" d="M 287.211592 184.869375 
L 289.193126 184.869375 
L 289.193126 179.066379 
L 287.211592 179.066379 
z
" style="fill:#4c72b0;fill-opacity:0.5;stroke:#4c72b0;stroke-linejoin:miter;"/>
   </g>
   <g id="patch_120">
    <path clip-path="url(#pf3eedaea07)" d="M 289.193126 184.869375 
L 291.17466 184.869375 
L 291.17466 174.308738 
L 289.193126 174.308738 
z
" style="fill:#4c72b0;fill-opacity:0.5;stroke:#4c72b0;stroke-linejoin:miter;"/>
   </g>
   <g id="patch_121">
    <path clip-path="url(#pf3eedaea07)" d="M 291.17466 184.869375 
L 293.156194 184.869375 
L 293.156194 177.409104 
L 291.17466 177.409104 
z
" style="fill:#4c72b0;fill-opacity:0.5;stroke:#4c72b0;stroke-linejoin:miter;"/>
   </g>
   <g id="patch_122">
    <path clip-path="url(#pf3eedaea07)" d="M 293.156194 184.869375 
L 295.137728 184.869375 
L 295.137728 176.690113 
L 293.156194 176.690113 
z
" style="fill:#4c72b0;fill-opacity:0.5;stroke:#4c72b0;stroke-linejoin:miter;"/>
   </g>
   <g id="patch_123">
    <path clip-path="url(#pf3eedaea07)" d="M 295.137728 184.869375 
L 297.119262 184.869375 
L 297.119262 176.939973 
L 295.137728 176.939973 
z
" style="fill:#4c72b0;fill-opacity:0.5;stroke:#4c72b0;stroke-linejoin:miter;"/>
   </g>
   <g id="patch_124">
    <path clip-path="url(#pf3eedaea07)" d="M 297.119262 184.869375 
L 299.100796 184.869375 
L 299.100796 173.974734 
L 297.119262 173.974734 
z
" style="fill:#4c72b0;fill-opacity:0.5;stroke:#4c72b0;stroke-linejoin:miter;"/>
   </g>
   <g id="patch_125">
    <path clip-path="url(#pf3eedaea07)" d="M 299.100796 184.869375 
L 301.08233 184.869375 
L 301.08233 177.439704 
L 299.100796 177.439704 
z
" style="fill:#4c72b0;fill-opacity:0.5;stroke:#4c72b0;stroke-linejoin:miter;"/>
   </g>
   <g id="patch_126">
    <path clip-path="url(#pf3eedaea07)" d="M 301.08233 184.869375 
L 303.063864 184.869375 
L 303.063864 176.412196 
L 301.08233 176.412196 
z
" style="fill:#4c72b0;fill-opacity:0.5;stroke:#4c72b0;stroke-linejoin:miter;"/>
   </g>
   <g id="patch_127">
    <path clip-path="url(#pf3eedaea07)" d="M 303.063864 184.869375 
L 305.045398 184.869375 
L 305.045398 176.509083 
L 303.063864 176.509083 
z
" style="fill:#4c72b0;fill-opacity:0.5;stroke:#4c72b0;stroke-linejoin:miter;"/>
   </g>
   <g id="patch_128">
    <path clip-path="url(#pf3eedaea07)" d="M 305.045398 184.869375 
L 307.026932 184.869375 
L 307.026932 176.090941 
L 305.045398 176.090941 
z
" style="fill:#4c72b0;fill-opacity:0.5;stroke:#4c72b0;stroke-linejoin:miter;"/>
   </g>
   <g id="patch_129">
    <path clip-path="url(#pf3eedaea07)" d="M 307.026932 184.869375 
L 309.008466 184.869375 
L 309.008466 175.440781 
L 307.026932 175.440781 
z
" style="fill:#4c72b0;fill-opacity:0.5;stroke:#4c72b0;stroke-linejoin:miter;"/>
   </g>
   <g id="patch_130">
    <path clip-path="url(#pf3eedaea07)" d="M 309.008466 184.869375 
L 310.99 184.869375 
L 310.99 175.59121 
L 309.008466 175.59121 
z
" style="fill:#4c72b0;fill-opacity:0.5;stroke:#4c72b0;stroke-linejoin:miter;"/>
   </g>
   <g id="patch_131">
    <path clip-path="url(#pf3eedaea07)" d="M 310.99 184.869375 
L 312.971534 184.869375 
L 312.971534 174.025727 
L 310.99 174.025727 
z
" style="fill:#4c72b0;fill-opacity:0.5;stroke:#4c72b0;stroke-linejoin:miter;"/>
   </g>
   <g id="patch_132">
    <path clip-path="url(#pf3eedaea07)" d="M 312.971534 184.869375 
L 314.953068 184.869375 
L 314.953068 172.684613 
L 312.971534 172.684613 
z
" style="fill:#4c72b0;fill-opacity:0.5;stroke:#4c72b0;stroke-linejoin:miter;"/>
   </g>
   <g id="patch_133">
    <path clip-path="url(#pf3eedaea07)" d="M 314.953068 184.869375 
L 316.934602 184.869375 
L 316.934602 175.366842 
L 314.953068 175.366842 
z
" style="fill:#4c72b0;fill-opacity:0.5;stroke:#4c72b0;stroke-linejoin:miter;"/>
   </g>
   <g id="patch_134">
    <path clip-path="url(#pf3eedaea07)" d="M 316.934602 184.869375 
L 318.916136 184.869375 
L 318.916136 175.379588 
L 316.934602 175.379588 
z
" style="fill:#4c72b0;fill-opacity:0.5;stroke:#4c72b0;stroke-linejoin:miter;"/>
   </g>
   <g id="patch_135">
    <path clip-path="url(#pf3eedaea07)" d="M 318.916136 184.869375 
L 320.89767 184.869375 
L 320.89767 175.341348 
L 318.916136 175.341348 
z
" style="fill:#4c72b0;fill-opacity:0.5;stroke:#4c72b0;stroke-linejoin:miter;"/>
   </g>
   <g id="patch_136">
    <path clip-path="url(#pf3eedaea07)" d="M 320.897671 184.869375 
L 322.879205 184.869375 
L 322.879205 176.919576 
L 320.897671 176.919576 
z
" style="fill:#4c72b0;fill-opacity:0.5;stroke:#4c72b0;stroke-linejoin:miter;"/>
   </g>
   <g id="patch_137">
    <path clip-path="url(#pf3eedaea07)" d="M 322.879204 184.869375 
L 324.860738 184.869375 
L 324.860738 176.447889 
L 322.879204 176.447889 
z
" style="fill:#4c72b0;fill-opacity:0.5;stroke:#4c72b0;stroke-linejoin:miter;"/>
   </g>
   <g id="patch_138">
    <path clip-path="url(#pf3eedaea07)" d="M 324.860738 184.869375 
L 326.842272 184.869375 
L 326.842272 176.249019 
L 324.860738 176.249019 
z
" style="fill:#4c72b0;fill-opacity:0.5;stroke:#4c72b0;stroke-linejoin:miter;"/>
   </g>
   <g id="patch_139">
    <path clip-path="url(#pf3eedaea07)" d="M 326.842272 184.869375 
L 328.823806 184.869375 
L 328.823806 174.499968 
L 326.842272 174.499968 
z
" style="fill:#4c72b0;fill-opacity:0.5;stroke:#4c72b0;stroke-linejoin:miter;"/>
   </g>
   <g id="patch_140">
    <path clip-path="url(#pf3eedaea07)" d="M 328.823807 184.869375 
L 330.805341 184.869375 
L 330.805341 176.697757 
L 328.823807 176.697757 
z
" style="fill:#4c72b0;fill-opacity:0.5;stroke:#4c72b0;stroke-linejoin:miter;"/>
   </g>
   <g id="patch_141">
    <path clip-path="url(#pf3eedaea07)" d="M 330.805341 184.869375 
L 332.786875 184.869375 
L 332.786875 176.914477 
L 330.805341 176.914477 
z
" style="fill:#4c72b0;fill-opacity:0.5;stroke:#4c72b0;stroke-linejoin:miter;"/>
   </g>
   <g id="patch_142">
    <path clip-path="url(#pf3eedaea07)" d="M 332.786874 184.869375 
L 334.768408 184.869375 
L 334.768408 177.972576 
L 332.786874 177.972576 
z
" style="fill:#4c72b0;fill-opacity:0.5;stroke:#4c72b0;stroke-linejoin:miter;"/>
   </g>
   <g id="patch_143">
    <path clip-path="url(#pf3eedaea07)" d="M 334.768408 184.869375 
L 336.749942 184.869375 
L 336.749942 173.916092 
L 334.768408 173.916092 
z
" style="fill:#4c72b0;fill-opacity:0.5;stroke:#4c72b0;stroke-linejoin:miter;"/>
   </g>
   <g id="patch_144">
    <path clip-path="url(#pf3eedaea07)" d="M 336.749942 184.869375 
L 338.731476 184.869375 
L 338.731476 176.478487 
L 336.749942 176.478487 
z
" style="fill:#4c72b0;fill-opacity:0.5;stroke:#4c72b0;stroke-linejoin:miter;"/>
   </g>
   <g id="patch_145">
    <path clip-path="url(#pf3eedaea07)" d="M 338.731476 184.869375 
L 340.71301 184.869375 
L 340.71301 177.97768 
L 338.731476 177.97768 
z
" style="fill:#4c72b0;fill-opacity:0.5;stroke:#4c72b0;stroke-linejoin:miter;"/>
   </g>
   <g id="patch_146">
    <path clip-path="url(#pf3eedaea07)" d="M 340.71301 184.869375 
L 342.694544 184.869375 
L 342.694544 178.495258 
L 340.71301 178.495258 
z
" style="fill:#4c72b0;fill-opacity:0.5;stroke:#4c72b0;stroke-linejoin:miter;"/>
   </g>
   <g id="patch_147">
    <path clip-path="url(#pf3eedaea07)" d="M 342.694544 184.869375 
L 344.676078 184.869375 
L 344.676078 178.495266 
L 342.694544 178.495266 
z
" style="fill:#4c72b0;fill-opacity:0.5;stroke:#4c72b0;stroke-linejoin:miter;"/>
   </g>
   <g id="patch_148">
    <path clip-path="url(#pf3eedaea07)" d="M 344.676081 184.869375 
L 346.657615 184.869375 
L 346.657615 177.941985 
L 344.676081 177.941985 
z
" style="fill:#4c72b0;fill-opacity:0.5;stroke:#4c72b0;stroke-linejoin:miter;"/>
   </g>
   <g id="patch_149">
    <path clip-path="url(#pf3eedaea07)" d="M 346.657615 184.869375 
L 348.639149 184.869375 
L 348.639149 177.643676 
L 346.657615 177.643676 
z
" style="fill:#4c72b0;fill-opacity:0.5;stroke:#4c72b0;stroke-linejoin:miter;"/>
   </g>
   <g id="patch_150">
    <path clip-path="url(#pf3eedaea07)" d="M 348.639149 184.869375 
L 350.620683 184.869375 
L 350.620683 179.107173 
L 348.639149 179.107173 
z
" style="fill:#4c72b0;fill-opacity:0.5;stroke:#4c72b0;stroke-linejoin:miter;"/>
   </g>
   <g id="patch_151">
    <path clip-path="url(#pf3eedaea07)" d="M 350.620683 184.869375 
L 352.602217 184.869375 
L 352.602217 178.857308 
L 350.620683 178.857308 
z
" style="fill:#4c72b0;fill-opacity:0.5;stroke:#4c72b0;stroke-linejoin:miter;"/>
   </g>
   <g id="patch_152">
    <path clip-path="url(#pf3eedaea07)" d="M 352.602217 184.869375 
L 354.583751 184.869375 
L 354.583751 179.252503 
L 352.602217 179.252503 
z
" style="fill:#4c72b0;fill-opacity:0.5;stroke:#4c72b0;stroke-linejoin:miter;"/>
   </g>
   <g id="patch_153">
    <path clip-path="url(#pf3eedaea07)" d="M 354.583748 184.869375 
L 356.565282 184.869375 
L 356.565282 178.232636 
L 354.583748 178.232636 
z
" style="fill:#4c72b0;fill-opacity:0.5;stroke:#4c72b0;stroke-linejoin:miter;"/>
   </g>
   <g id="patch_154">
    <path clip-path="url(#pf3eedaea07)" d="M 356.565282 184.869375 
L 358.546816 184.869375 
L 358.546816 180.076039 
L 356.565282 180.076039 
z
" style="fill:#4c72b0;fill-opacity:0.5;stroke:#4c72b0;stroke-linejoin:miter;"/>
   </g>
   <g id="patch_155">
    <path clip-path="url(#pf3eedaea07)" d="M 358.546816 184.869375 
L 360.52835 184.869375 
L 360.52835 179.920511 
L 358.546816 179.920511 
z
" style="fill:#4c72b0;fill-opacity:0.5;stroke:#4c72b0;stroke-linejoin:miter;"/>
   </g>
   <g id="patch_156">
    <path clip-path="url(#pf3eedaea07)" d="M 360.52835 184.869375 
L 362.509884 184.869375 
L 362.509884 179.119921 
L 360.52835 179.119921 
z
" style="fill:#4c72b0;fill-opacity:0.5;stroke:#4c72b0;stroke-linejoin:miter;"/>
   </g>
   <g id="patch_157">
    <path clip-path="url(#pf3eedaea07)" d="M 362.509884 184.869375 
L 364.491418 184.869375 
L 364.491418 180.744046 
L 362.509884 180.744046 
z
" style="fill:#4c72b0;fill-opacity:0.5;stroke:#4c72b0;stroke-linejoin:miter;"/>
   </g>
   <g id="patch_158">
    <path clip-path="url(#pf3eedaea07)" d="M 364.491418 184.869375 
L 366.472952 184.869375 
L 366.472952 179.739486 
L 364.491418 179.739486 
z
" style="fill:#4c72b0;fill-opacity:0.5;stroke:#4c72b0;stroke-linejoin:miter;"/>
   </g>
   <g id="patch_159">
    <path clip-path="url(#pf3eedaea07)" d="M 366.472952 184.869375 
L 368.454486 184.869375 
L 368.454486 181.218281 
L 366.472952 181.218281 
z
" style="fill:#4c72b0;fill-opacity:0.5;stroke:#4c72b0;stroke-linejoin:miter;"/>
   </g>
   <g id="patch_160">
    <path clip-path="url(#pf3eedaea07)" d="M 368.454486 184.869375 
L 370.43602 184.869375 
L 370.43602 181.164738 
L 368.454486 181.164738 
z
" style="fill:#4c72b0;fill-opacity:0.5;stroke:#4c72b0;stroke-linejoin:miter;"/>
   </g>
   <g id="patch_161">
    <path clip-path="url(#pf3eedaea07)" d="M 370.43602 184.869375 
L 372.417554 184.869375 
L 372.417554 181.029607 
L 370.43602 181.029607 
z
" style="fill:#4c72b0;fill-opacity:0.5;stroke:#4c72b0;stroke-linejoin:miter;"/>
   </g>
   <g id="patch_162">
    <path clip-path="url(#pf3eedaea07)" d="M 372.417554 184.869375 
L 374.399088 184.869375 
L 374.399088 181.246327 
L 372.417554 181.246327 
z
" style="fill:#4c72b0;fill-opacity:0.5;stroke:#4c72b0;stroke-linejoin:miter;"/>
   </g>
   <g id="patch_163">
    <path clip-path="url(#pf3eedaea07)" d="M 374.399088 184.869375 
L 376.380622 184.869375 
L 376.380622 181.723119 
L 374.399088 181.723119 
z
" style="fill:#4c72b0;fill-opacity:0.5;stroke:#4c72b0;stroke-linejoin:miter;"/>
   </g>
   <g id="patch_164">
    <path clip-path="url(#pf3eedaea07)" d="M 376.380627 184.869375 
L 378.362161 184.869375 
L 378.362161 181.835295 
L 376.380627 181.835295 
z
" style="fill:#4c72b0;fill-opacity:0.5;stroke:#4c72b0;stroke-linejoin:miter;"/>
   </g>
   <g id="patch_165">
    <path clip-path="url(#pf3eedaea07)" d="M 378.362161 184.869375 
L 380.343695 184.869375 
L 380.343695 181.878639 
L 378.362161 181.878639 
z
" style="fill:#4c72b0;fill-opacity:0.5;stroke:#4c72b0;stroke-linejoin:miter;"/>
   </g>
   <g id="patch_166">
    <path clip-path="url(#pf3eedaea07)" d="M 380.343695 184.869375 
L 382.325229 184.869375 
L 382.325229 182.684328 
L 380.343695 182.684328 
z
" style="fill:#4c72b0;fill-opacity:0.5;stroke:#4c72b0;stroke-linejoin:miter;"/>
   </g>
   <g id="patch_167">
    <path clip-path="url(#pf3eedaea07)" d="M 382.325229 184.869375 
L 384.306763 184.869375 
L 384.306763 182.266186 
L 382.325229 182.266186 
z
" style="fill:#4c72b0;fill-opacity:0.5;stroke:#4c72b0;stroke-linejoin:miter;"/>
   </g>
   <g id="patch_168">
    <path clip-path="url(#pf3eedaea07)" d="M 384.306763 184.869375 
L 386.288297 184.869375 
L 386.288297 182.615487 
L 384.306763 182.615487 
z
" style="fill:#4c72b0;fill-opacity:0.5;stroke:#4c72b0;stroke-linejoin:miter;"/>
   </g>
   <g id="patch_169">
    <path clip-path="url(#pf3eedaea07)" d="M 386.288297 184.869375 
L 388.269831 184.869375 
L 388.269831 182.81181 
L 386.288297 182.81181 
z
" style="fill:#4c72b0;fill-opacity:0.5;stroke:#4c72b0;stroke-linejoin:miter;"/>
   </g>
   <g id="patch_170">
    <path clip-path="url(#pf3eedaea07)" d="M 388.269831 184.869375 
L 390.251366 184.869375 
L 390.251366 182.829658 
L 388.269831 182.829658 
z
" style="fill:#4c72b0;fill-opacity:0.5;stroke:#4c72b0;stroke-linejoin:miter;"/>
   </g>
   <g id="patch_171">
    <path clip-path="url(#pf3eedaea07)" d="M 390.251366 184.869375 
L 392.2329 184.869375 
L 392.2329 183.184058 
L 390.251366 183.184058 
z
" style="fill:#4c72b0;fill-opacity:0.5;stroke:#4c72b0;stroke-linejoin:miter;"/>
   </g>
   <g id="patch_172">
    <path clip-path="url(#pf3eedaea07)" d="M 392.2329 184.869375 
L 394.214434 184.869375 
L 394.214434 183.056576 
L 392.2329 183.056576 
z
" style="fill:#4c72b0;fill-opacity:0.5;stroke:#4c72b0;stroke-linejoin:miter;"/>
   </g>
   <g id="patch_173">
    <path clip-path="url(#pf3eedaea07)" d="M 394.214434 184.869375 
L 396.195968 184.869375 
L 396.195968 182.136154 
L 394.214434 182.136154 
z
" style="fill:#4c72b0;fill-opacity:0.5;stroke:#4c72b0;stroke-linejoin:miter;"/>
   </g>
   <g id="patch_174">
    <path clip-path="url(#pf3eedaea07)" d="M 396.195963 184.869375 
L 398.177497 184.869375 
L 398.177497 180.032683 
L 396.195963 180.032683 
z
" style="fill:#4c72b0;fill-opacity:0.5;stroke:#4c72b0;stroke-linejoin:miter;"/>
   </g>
   <g id="patch_175">
    <path clip-path="url(#pf3eedaea07)" d="M 398.177497 184.869375 
L 400.159031 184.869375 
L 400.159031 178.908301 
L 398.177497 178.908301 
z
" style="fill:#4c72b0;fill-opacity:0.5;stroke:#4c72b0;stroke-linejoin:miter;"/>
   </g>
   <g id="patch_176">
    <path clip-path="url(#pf3eedaea07)" d="M 400.159031 184.869375 
L 402.140565 184.869375 
L 402.140565 161.547756 
L 400.159031 161.547756 
z
" style="fill:#4c72b0;fill-opacity:0.5;stroke:#4c72b0;stroke-linejoin:miter;"/>
   </g>
   <g id="patch_177">
    <path clip-path="url(#pf3eedaea07)" d="M 402.140565 184.869375 
L 404.122099 184.869375 
L 404.122099 157.61365 
L 402.140565 157.61365 
z
" style="fill:#4c72b0;fill-opacity:0.5;stroke:#4c72b0;stroke-linejoin:miter;"/>
   </g>
   <g id="patch_178">
    <path clip-path="url(#pf3eedaea07)" d="M 404.122099 184.869375 
L 406.103633 184.869375 
L 406.103633 169.324178 
L 404.122099 169.324178 
z
" style="fill:#4c72b0;fill-opacity:0.5;stroke:#4c72b0;stroke-linejoin:miter;"/>
   </g>
   <g id="patch_179">
    <path clip-path="url(#pf3eedaea07)" d="M 406.103633 184.869375 
L 408.085167 184.869375 
L 408.085167 158.521325 
L 406.103633 158.521325 
z
" style="fill:#4c72b0;fill-opacity:0.5;stroke:#4c72b0;stroke-linejoin:miter;"/>
   </g>
   <g id="patch_180">
    <path clip-path="url(#pf3eedaea07)" d="M 408.085167 184.869375 
L 410.066701 184.869375 
L 410.066701 150.168682 
L 408.085167 150.168682 
z
" style="fill:#4c72b0;fill-opacity:0.5;stroke:#4c72b0;stroke-linejoin:miter;"/>
   </g>
   <g id="patch_181">
    <path clip-path="url(#pf3eedaea07)" d="M 410.066701 184.869375 
L 412.048235 184.869375 
L 412.048235 156.295483 
L 410.066701 156.295483 
z
" style="fill:#4c72b0;fill-opacity:0.5;stroke:#4c72b0;stroke-linejoin:miter;"/>
   </g>
   <g id="patch_182">
    <path clip-path="url(#pf3eedaea07)" d="M 412.048235 184.869375 
L 414.029769 184.869375 
L 414.029769 168.95448 
L 412.048235 168.95448 
z
" style="fill:#4c72b0;fill-opacity:0.5;stroke:#4c72b0;stroke-linejoin:miter;"/>
   </g>
   <g id="patch_183">
    <path clip-path="url(#pf3eedaea07)" d="M 414.029769 184.869375 
L 416.011303 184.869375 
L 416.011303 174.974196 
L 414.029769 174.974196 
z
" style="fill:#4c72b0;fill-opacity:0.5;stroke:#4c72b0;stroke-linejoin:miter;"/>
   </g>
   <g id="patch_184">
    <path clip-path="url(#pf3eedaea07)" d="M 416.011303 184.869375 
L 417.992837 184.869375 
L 417.992837 170.736683 
L 416.011303 170.736683 
z
" style="fill:#4c72b0;fill-opacity:0.5;stroke:#4c72b0;stroke-linejoin:miter;"/>
   </g>
   <g id="patch_185">
    <path clip-path="url(#pf3eedaea07)" d="M 417.992837 184.869375 
L 419.974371 184.869375 
L 419.974371 169.464409 
L 417.992837 169.464409 
z
" style="fill:#4c72b0;fill-opacity:0.5;stroke:#4c72b0;stroke-linejoin:miter;"/>
   </g>
   <g id="patch_186">
    <path clip-path="url(#pf3eedaea07)" d="M 419.974371 184.869375 
L 421.955905 184.869375 
L 421.955905 170.739232 
L 419.974371 170.739232 
z
" style="fill:#4c72b0;fill-opacity:0.5;stroke:#4c72b0;stroke-linejoin:miter;"/>
   </g>
   <g id="patch_187">
    <path clip-path="url(#pf3eedaea07)" d="M 421.955905 184.869375 
L 423.937439 184.869375 
L 423.937439 173.464805 
L 421.955905 173.464805 
z
" style="fill:#4c72b0;fill-opacity:0.5;stroke:#4c72b0;stroke-linejoin:miter;"/>
   </g>
   <g id="patch_188">
    <path clip-path="url(#pf3eedaea07)" d="M 423.937439 184.869375 
L 425.918973 184.869375 
L 425.918973 176.157232 
L 423.937439 176.157232 
z
" style="fill:#4c72b0;fill-opacity:0.5;stroke:#4c72b0;stroke-linejoin:miter;"/>
   </g>
   <g id="patch_189">
    <path clip-path="url(#pf3eedaea07)" d="M 425.918973 184.869375 
L 427.900507 184.869375 
L 427.900507 179.142868 
L 425.918973 179.142868 
z
" style="fill:#4c72b0;fill-opacity:0.5;stroke:#4c72b0;stroke-linejoin:miter;"/>
   </g>
   <g id="patch_190">
    <path clip-path="url(#pf3eedaea07)" d="M 427.900507 184.869375 
L 429.882041 184.869375 
L 429.882041 182.612938 
L 427.900507 182.612938 
z
" style="fill:#4c72b0;fill-opacity:0.5;stroke:#4c72b0;stroke-linejoin:miter;"/>
   </g>
   <g id="patch_191">
    <path clip-path="url(#pf3eedaea07)" d="M 429.882041 184.869375 
L 431.863575 184.869375 
L 431.863575 183.352335 
L 429.882041 183.352335 
z
" style="fill:#4c72b0;fill-opacity:0.5;stroke:#4c72b0;stroke-linejoin:miter;"/>
   </g>
   <g id="patch_192">
    <path clip-path="url(#pf3eedaea07)" d="M 431.863575 184.869375 
L 433.845109 184.869375 
L 433.845109 183.194257 
L 431.863575 183.194257 
z
" style="fill:#4c72b0;fill-opacity:0.5;stroke:#4c72b0;stroke-linejoin:miter;"/>
   </g>
   <g id="patch_193">
    <path clip-path="url(#pf3eedaea07)" d="M 433.845109 184.869375 
L 435.826643 184.869375 
L 435.826643 183.110119 
L 433.845109 183.110119 
z
" style="fill:#4c72b0;fill-opacity:0.5;stroke:#4c72b0;stroke-linejoin:miter;"/>
   </g>
   <g id="patch_194">
    <path clip-path="url(#pf3eedaea07)" d="M 435.826633 184.869375 
L 437.808187 184.869375 
L 437.808187 183.08973 
L 435.826633 183.08973 
z
" style="fill:#4c72b0;fill-opacity:0.5;stroke:#4c72b0;stroke-linejoin:miter;"/>
   </g>
   <g id="patch_195">
    <path clip-path="url(#pf3eedaea07)" d="M 437.808187 184.869375 
L 439.789721 184.869375 
L 439.789721 183.056576 
L 437.808187 183.056576 
z
" style="fill:#4c72b0;fill-opacity:0.5;stroke:#4c72b0;stroke-linejoin:miter;"/>
   </g>
   <g id="patch_196">
    <path clip-path="url(#pf3eedaea07)" d="M 439.789721 184.869375 
L 441.771255 184.869375 
L 441.771255 183.09992 
L 439.789721 183.09992 
z
" style="fill:#4c72b0;fill-opacity:0.5;stroke:#4c72b0;stroke-linejoin:miter;"/>
   </g>
   <g id="patch_197">
    <path clip-path="url(#pf3eedaea07)" d="M 441.771255 184.869375 
L 443.752789 184.869375 
L 443.752789 183.125417 
L 441.771255 183.125417 
z
" style="fill:#4c72b0;fill-opacity:0.5;stroke:#4c72b0;stroke-linejoin:miter;"/>
   </g>
   <g id="patch_198">
    <path clip-path="url(#pf3eedaea07)" d="M 443.752789 184.869375 
L 445.734323 184.869375 
L 445.734323 183.196807 
L 443.752789 183.196807 
z
" style="fill:#4c72b0;fill-opacity:0.5;stroke:#4c72b0;stroke-linejoin:miter;"/>
   </g>
   <g id="patch_199">
    <path clip-path="url(#pf3eedaea07)" d="M 445.734323 184.869375 
L 447.715857 184.869375 
L 447.715857 183.232502 
L 445.734323 183.232502 
z
" style="fill:#4c72b0;fill-opacity:0.5;stroke:#4c72b0;stroke-linejoin:miter;"/>
   </g>
   <g id="patch_200">
    <path clip-path="url(#pf3eedaea07)" d="M 447.715857 184.869375 
L 449.697391 184.869375 
L 449.697391 183.444122 
L 447.715857 183.444122 
z
" style="fill:#4c72b0;fill-opacity:0.5;stroke:#4c72b0;stroke-linejoin:miter;"/>
   </g>
   <g id="patch_201">
    <path clip-path="url(#pf3eedaea07)" d="M 449.697391 184.869375 
L 451.678925 184.869375 
L 451.678925 183.620048 
L 449.697391 183.620048 
z
" style="fill:#4c72b0;fill-opacity:0.5;stroke:#4c72b0;stroke-linejoin:miter;"/>
   </g>
   <g id="patch_202">
    <path clip-path="url(#pf3eedaea07)" d="M 451.678925 184.869375 
L 453.660459 184.869375 
L 453.660459 183.785775 
L 451.678925 183.785775 
z
" style="fill:#4c72b0;fill-opacity:0.5;stroke:#4c72b0;stroke-linejoin:miter;"/>
   </g>
   <g id="patch_203">
    <path clip-path="url(#pf3eedaea07)" d="M 453.660459 184.869375 
L 455.641993 184.869375 
L 455.641993 183.854616 
L 453.660459 183.854616 
z
" style="fill:#4c72b0;fill-opacity:0.5;stroke:#4c72b0;stroke-linejoin:miter;"/>
   </g>
   <g id="patch_204">
    <path clip-path="url(#pf3eedaea07)" d="M 455.641993 184.869375 
L 457.623527 184.869375 
L 457.623527 184.04074 
L 455.641993 184.04074 
z
" style="fill:#4c72b0;fill-opacity:0.5;stroke:#4c72b0;stroke-linejoin:miter;"/>
   </g>
   <g id="patch_205">
    <path clip-path="url(#pf3eedaea07)" d="M 457.623527 184.869375 
L 459.605061 184.869375 
L 459.605061 184.022892 
L 457.623527 184.022892 
z
" style="fill:#4c72b0;fill-opacity:0.5;stroke:#4c72b0;stroke-linejoin:miter;"/>
   </g>
   <g id="patch_206">
    <path clip-path="url(#pf3eedaea07)" d="M 459.605061 184.869375 
L 461.586595 184.869375 
L 461.586595 184.288056 
L 459.605061 184.288056 
z
" style="fill:#4c72b0;fill-opacity:0.5;stroke:#4c72b0;stroke-linejoin:miter;"/>
   </g>
   <g id="patch_207">
    <path clip-path="url(#pf3eedaea07)" d="M 461.586595 184.869375 
L 463.568129 184.869375 
L 463.568129 184.285506 
L 461.586595 184.285506 
z
" style="fill:#4c72b0;fill-opacity:0.5;stroke:#4c72b0;stroke-linejoin:miter;"/>
   </g>
   <g id="patch_208">
    <path clip-path="url(#pf3eedaea07)" d="M 463.568129 184.869375 
L 465.549663 184.869375 
L 465.549663 184.333949 
L 463.568129 184.333949 
z
" style="fill:#4c72b0;fill-opacity:0.5;stroke:#4c72b0;stroke-linejoin:miter;"/>
   </g>
   <g id="patch_209">
    <path clip-path="url(#pf3eedaea07)" d="M 465.549663 184.869375 
L 467.531197 184.869375 
L 467.531197 184.387492 
L 465.549663 184.387492 
z
" style="fill:#4c72b0;fill-opacity:0.5;stroke:#4c72b0;stroke-linejoin:miter;"/>
   </g>
   <g id="patch_210">
    <path clip-path="url(#pf3eedaea07)" d="M 467.531197 184.869375 
L 469.512731 184.869375 
L 469.512731 184.492027 
L 467.531197 184.492027 
z
" style="fill:#4c72b0;fill-opacity:0.5;stroke:#4c72b0;stroke-linejoin:miter;"/>
   </g>
   <g id="patch_211">
    <path clip-path="url(#pf3eedaea07)" d="M 469.512731 184.869375 
L 471.494265 184.869375 
L 471.494265 184.540471 
L 469.512731 184.540471 
z
" style="fill:#4c72b0;fill-opacity:0.5;stroke:#4c72b0;stroke-linejoin:miter;"/>
   </g>
   <g id="patch_212">
    <path clip-path="url(#pf3eedaea07)" d="M 471.494265 184.869375 
L 473.475799 184.869375 
L 473.475799 184.537921 
L 471.494265 184.537921 
z
" style="fill:#4c72b0;fill-opacity:0.5;stroke:#4c72b0;stroke-linejoin:miter;"/>
   </g>
   <g id="patch_213">
    <path clip-path="url(#pf3eedaea07)" d="M 473.475799 184.869375 
L 475.457333 184.869375 
L 475.457333 184.601662 
L 473.475799 184.601662 
z
" style="fill:#4c72b0;fill-opacity:0.5;stroke:#4c72b0;stroke-linejoin:miter;"/>
   </g>
   <g id="patch_214">
    <path clip-path="url(#pf3eedaea07)" d="M 475.457333 184.869375 
L 477.438867 184.869375 
L 477.438867 184.588914 
L 475.457333 184.588914 
z
" style="fill:#4c72b0;fill-opacity:0.5;stroke:#4c72b0;stroke-linejoin:miter;"/>
   </g>
   <g id="patch_215">
    <path clip-path="url(#pf3eedaea07)" d="M 477.438867 184.869375 
L 479.420401 184.869375 
L 479.420401 184.578715 
L 477.438867 184.578715 
z
" style="fill:#4c72b0;fill-opacity:0.5;stroke:#4c72b0;stroke-linejoin:miter;"/>
   </g>
   <g id="patch_216">
    <path clip-path="url(#pf3eedaea07)" d="M 479.420411 184.869375 
L 481.401955 184.869375 
L 481.401955 184.675602 
L 479.420411 184.675602 
z
" style="fill:#4c72b0;fill-opacity:0.5;stroke:#4c72b0;stroke-linejoin:miter;"/>
   </g>
   <g id="patch_217">
    <path clip-path="url(#pf3eedaea07)" d="M 481.401915 184.869375 
L 483.383449 184.869375 
L 483.383449 184.665403 
L 481.401915 184.665403 
z
" style="fill:#4c72b0;fill-opacity:0.5;stroke:#4c72b0;stroke-linejoin:miter;"/>
   </g>
   <g id="patch_218">
    <path clip-path="url(#pf3eedaea07)" d="M 483.383469 184.869375 
L 485.365003 184.869375 
L 485.365003 184.718946 
L 483.383469 184.718946 
z
" style="fill:#4c72b0;fill-opacity:0.5;stroke:#4c72b0;stroke-linejoin:miter;"/>
   </g>
   <g id="patch_219">
    <path clip-path="url(#pf3eedaea07)" d="M 485.364983 184.869375 
L 487.346517 184.869375 
L 487.346517 184.701098 
L 485.364983 184.701098 
z
" style="fill:#4c72b0;fill-opacity:0.5;stroke:#4c72b0;stroke-linejoin:miter;"/>
   </g>
   <g id="patch_220">
    <path clip-path="url(#pf3eedaea07)" d="M 487.346537 184.869375 
L 489.328071 184.869375 
L 489.328071 184.721495 
L 487.346537 184.721495 
z
" style="fill:#4c72b0;fill-opacity:0.5;stroke:#4c72b0;stroke-linejoin:miter;"/>
   </g>
   <g id="patch_221">
    <path clip-path="url(#pf3eedaea07)" d="M 489.328051 184.869375 
L 491.309585 184.869375 
L 491.309585 184.752091 
L 489.328051 184.752091 
z
" style="fill:#4c72b0;fill-opacity:0.5;stroke:#4c72b0;stroke-linejoin:miter;"/>
   </g>
   <g id="patch_222">
    <path clip-path="url(#pf3eedaea07)" d="M 491.309605 184.869375 
L 493.291139 184.869375 
L 493.291139 184.777588 
L 491.309605 184.777588 
z
" style="fill:#4c72b0;fill-opacity:0.5;stroke:#4c72b0;stroke-linejoin:miter;"/>
   </g>
   <g id="patch_223">
    <path clip-path="url(#pf3eedaea07)" d="M 493.291119 184.869375 
L 495.272653 184.869375 
L 495.272653 184.787786 
L 493.291119 184.787786 
z
" style="fill:#4c72b0;fill-opacity:0.5;stroke:#4c72b0;stroke-linejoin:miter;"/>
   </g>
   <g id="patch_224">
    <path clip-path="url(#pf3eedaea07)" d="M 495.272673 184.869375 
L 497.254207 184.869375 
L 497.254207 184.75974 
L 495.272673 184.75974 
z
" style="fill:#4c72b0;fill-opacity:0.5;stroke:#4c72b0;stroke-linejoin:miter;"/>
   </g>
   <g id="patch_225">
    <path clip-path="url(#pf3eedaea07)" d="M 497.254187 184.869375 
L 499.235721 184.869375 
L 499.235721 184.795435 
L 497.254187 184.795435 
z
" style="fill:#4c72b0;fill-opacity:0.5;stroke:#4c72b0;stroke-linejoin:miter;"/>
   </g>
   <g id="patch_226">
    <path clip-path="url(#pf3eedaea07)" d="M 499.235741 184.869375 
L 501.217275 184.869375 
L 501.217275 184.810733 
L 499.235741 184.810733 
z
" style="fill:#4c72b0;fill-opacity:0.5;stroke:#4c72b0;stroke-linejoin:miter;"/>
   </g>
   <g id="patch_227">
    <path clip-path="url(#pf3eedaea07)" d="M 501.217255 184.869375 
L 503.198789 184.869375 
L 503.198789 184.823481 
L 501.217255 184.823481 
z
" style="fill:#4c72b0;fill-opacity:0.5;stroke:#4c72b0;stroke-linejoin:miter;"/>
   </g>
   <g id="patch_228">
    <path clip-path="url(#pf3eedaea07)" d="M 503.198809 184.869375 
L 505.180343 184.869375 
L 505.180343 184.795435 
L 503.198809 184.795435 
z
" style="fill:#4c72b0;fill-opacity:0.5;stroke:#4c72b0;stroke-linejoin:miter;"/>
   </g>
   <g id="patch_229">
    <path clip-path="url(#pf3eedaea07)" d="M 505.180323 184.869375 
L 507.161857 184.869375 
L 507.161857 184.808183 
L 505.180323 184.808183 
z
" style="fill:#4c72b0;fill-opacity:0.5;stroke:#4c72b0;stroke-linejoin:miter;"/>
   </g>
   <g id="patch_230">
    <path clip-path="url(#pf3eedaea07)" d="M 507.161877 184.869375 
L 509.143411 184.869375 
L 509.143411 184.810733 
L 507.161877 184.810733 
z
" style="fill:#4c72b0;fill-opacity:0.5;stroke:#4c72b0;stroke-linejoin:miter;"/>
   </g>
   <g id="patch_231">
    <path clip-path="url(#pf3eedaea07)" d="M 509.143391 184.869375 
L 511.124925 184.869375 
L 511.124925 184.820932 
L 509.143391 184.820932 
z
" style="fill:#4c72b0;fill-opacity:0.5;stroke:#4c72b0;stroke-linejoin:miter;"/>
   </g>
   <g id="patch_232">
    <path clip-path="url(#pf3eedaea07)" d="M 511.124945 184.869375 
L 513.106479 184.869375 
L 513.106479 184.828581 
L 511.124945 184.828581 
z
" style="fill:#4c72b0;fill-opacity:0.5;stroke:#4c72b0;stroke-linejoin:miter;"/>
   </g>
   <g id="patch_233">
    <path clip-path="url(#pf3eedaea07)" d="M 513.106459 184.869375 
L 515.087993 184.869375 
L 515.087993 184.823481 
L 513.106459 184.823481 
z
" style="fill:#4c72b0;fill-opacity:0.5;stroke:#4c72b0;stroke-linejoin:miter;"/>
   </g>
   <g id="patch_234">
    <path clip-path="url(#pf3eedaea07)" d="M 515.088013 184.869375 
L 517.069547 184.869375 
L 517.069547 184.838779 
L 515.088013 184.838779 
z
" style="fill:#4c72b0;fill-opacity:0.5;stroke:#4c72b0;stroke-linejoin:miter;"/>
   </g>
   <g id="patch_235">
    <path clip-path="url(#pf3eedaea07)" d="M 517.069527 184.869375 
L 519.051061 184.869375 
L 519.051061 184.846428 
L 517.069527 184.846428 
z
" style="fill:#4c72b0;fill-opacity:0.5;stroke:#4c72b0;stroke-linejoin:miter;"/>
   </g>
   <g id="patch_236">
    <path clip-path="url(#pf3eedaea07)" d="M 519.051081 184.869375 
L 521.032615 184.869375 
L 521.032615 184.848978 
L 519.051081 184.848978 
z
" style="fill:#4c72b0;fill-opacity:0.5;stroke:#4c72b0;stroke-linejoin:miter;"/>
   </g>
   <g id="patch_237">
    <path clip-path="url(#pf3eedaea07)" d="M 521.032595 184.869375 
L 523.014129 184.869375 
L 523.014129 184.83368 
L 521.032595 184.83368 
z
" style="fill:#4c72b0;fill-opacity:0.5;stroke:#4c72b0;stroke-linejoin:miter;"/>
   </g>
   <g id="patch_238">
    <path clip-path="url(#pf3eedaea07)" d="M 523.014149 184.869375 
L 524.995683 184.869375 
L 524.995683 184.848978 
L 523.014149 184.848978 
z
" style="fill:#4c72b0;fill-opacity:0.5;stroke:#4c72b0;stroke-linejoin:miter;"/>
   </g>
   <g id="patch_239">
    <path clip-path="url(#pf3eedaea07)" d="M 524.995663 184.869375 
L 526.977197 184.869375 
L 526.977197 184.856627 
L 524.995663 184.856627 
z
" style="fill:#4c72b0;fill-opacity:0.5;stroke:#4c72b0;stroke-linejoin:miter;"/>
   </g>
   <g id="patch_240">
    <path clip-path="url(#pf3eedaea07)" d="M 526.977217 184.869375 
L 528.958751 184.869375 
L 528.958751 184.848978 
L 526.977217 184.848978 
z
" style="fill:#4c72b0;fill-opacity:0.5;stroke:#4c72b0;stroke-linejoin:miter;"/>
   </g>
   <g id="patch_241">
    <path clip-path="url(#pf3eedaea07)" d="M 528.958731 184.869375 
L 530.940265 184.869375 
L 530.940265 184.856627 
L 528.958731 184.856627 
z
" style="fill:#4c72b0;fill-opacity:0.5;stroke:#4c72b0;stroke-linejoin:miter;"/>
   </g>
   <g id="patch_242">
    <path clip-path="url(#pf3eedaea07)" d="M 530.940285 184.869375 
L 532.921819 184.869375 
L 532.921819 184.854077 
L 530.940285 184.854077 
z
" style="fill:#4c72b0;fill-opacity:0.5;stroke:#4c72b0;stroke-linejoin:miter;"/>
   </g>
   <g id="patch_243">
    <path clip-path="url(#pf3eedaea07)" d="M 532.921799 184.869375 
L 534.903333 184.869375 
L 534.903333 184.859176 
L 532.921799 184.859176 
z
" style="fill:#4c72b0;fill-opacity:0.5;stroke:#4c72b0;stroke-linejoin:miter;"/>
   </g>
   <g id="patch_244">
    <path clip-path="url(#pf3eedaea07)" d="M 534.903353 184.869375 
L 536.884887 184.869375 
L 536.884887 184.851527 
L 534.903353 184.851527 
z
" style="fill:#4c72b0;fill-opacity:0.5;stroke:#4c72b0;stroke-linejoin:miter;"/>
   </g>
   <g id="patch_245">
    <path clip-path="url(#pf3eedaea07)" d="M 536.884867 184.869375 
L 538.866402 184.869375 
L 538.866402 184.864276 
L 536.884867 184.864276 
z
" style="fill:#4c72b0;fill-opacity:0.5;stroke:#4c72b0;stroke-linejoin:miter;"/>
   </g>
   <g id="patch_246">
    <path clip-path="url(#pf3eedaea07)" d="M 538.866421 184.869375 
L 540.847955 184.869375 
L 540.847955 184.859176 
L 538.866421 184.859176 
z
" style="fill:#4c72b0;fill-opacity:0.5;stroke:#4c72b0;stroke-linejoin:miter;"/>
   </g>
   <g id="patch_247">
    <path clip-path="url(#pf3eedaea07)" d="M 540.847936 184.869375 
L 542.82947 184.869375 
L 542.82947 184.866825 
L 540.847936 184.866825 
z
" style="fill:#4c72b0;fill-opacity:0.5;stroke:#4c72b0;stroke-linejoin:miter;"/>
   </g>
   <g id="patch_248">
    <path clip-path="url(#pf3eedaea07)" d="M 542.829489 184.869375 
L 544.811024 184.869375 
L 544.811024 184.861726 
L 542.829489 184.861726 
z
" style="fill:#4c72b0;fill-opacity:0.5;stroke:#4c72b0;stroke-linejoin:miter;"/>
   </g>
   <g id="patch_249">
    <path clip-path="url(#pf3eedaea07)" d="M 544.811004 184.869375 
L 546.792538 184.869375 
L 546.792538 184.861726 
L 544.811004 184.861726 
z
" style="fill:#4c72b0;fill-opacity:0.5;stroke:#4c72b0;stroke-linejoin:miter;"/>
   </g>
   <g id="patch_250">
    <path clip-path="url(#pf3eedaea07)" d="M 546.792558 184.869375 
L 548.774092 184.869375 
L 548.774092 184.854077 
L 546.792558 184.854077 
z
" style="fill:#4c72b0;fill-opacity:0.5;stroke:#4c72b0;stroke-linejoin:miter;"/>
   </g>
   <g id="patch_251">
    <path clip-path="url(#pf3eedaea07)" d="M 548.774072 184.869375 
L 550.755606 184.869375 
L 550.755606 184.864276 
L 548.774072 184.864276 
z
" style="fill:#4c72b0;fill-opacity:0.5;stroke:#4c72b0;stroke-linejoin:miter;"/>
   </g>
   <g id="patch_252">
    <path clip-path="url(#pf3eedaea07)" d="M 550.755626 184.869375 
L 552.73716 184.869375 
L 552.73716 184.861726 
L 550.755626 184.861726 
z
" style="fill:#4c72b0;fill-opacity:0.5;stroke:#4c72b0;stroke-linejoin:miter;"/>
   </g>
   <g id="patch_253">
    <path clip-path="url(#pf3eedaea07)" d="M 552.73714 184.869375 
L 554.718674 184.869375 
L 554.718674 184.866825 
L 552.73714 184.866825 
z
" style="fill:#4c72b0;fill-opacity:0.5;stroke:#4c72b0;stroke-linejoin:miter;"/>
   </g>
   <g id="patch_254">
    <path clip-path="url(#pf3eedaea07)" d="M 554.718694 184.869375 
L 556.700228 184.869375 
L 556.700228 184.864276 
L 554.718694 184.864276 
z
" style="fill:#4c72b0;fill-opacity:0.5;stroke:#4c72b0;stroke-linejoin:miter;"/>
   </g>
   <g id="patch_255">
    <path clip-path="url(#pf3eedaea07)" d="M 556.700208 184.869375 
L 558.681742 184.869375 
L 558.681742 184.869375 
L 556.700208 184.869375 
z
" style="fill:#4c72b0;fill-opacity:0.5;stroke:#4c72b0;stroke-linejoin:miter;"/>
   </g>
   <g id="patch_256">
    <path clip-path="url(#pf3eedaea07)" d="M 558.681762 184.869375 
L 560.663296 184.869375 
L 560.663296 184.869375 
L 558.681762 184.869375 
z
" style="fill:#4c72b0;fill-opacity:0.5;stroke:#4c72b0;stroke-linejoin:miter;"/>
   </g>
   <g id="patch_257">
    <path clip-path="url(#pf3eedaea07)" d="M 560.663276 184.869375 
L 562.64481 184.869375 
L 562.64481 184.866825 
L 560.663276 184.866825 
z
" style="fill:#4c72b0;fill-opacity:0.5;stroke:#4c72b0;stroke-linejoin:miter;"/>
   </g>
   <g id="patch_258">
    <path clip-path="url(#pf3eedaea07)" d="M 562.64483 184.869375 
L 564.626364 184.869375 
L 564.626364 184.864276 
L 562.64483 184.864276 
z
" style="fill:#4c72b0;fill-opacity:0.5;stroke:#4c72b0;stroke-linejoin:miter;"/>
   </g>
   <g id="patch_259">
    <path d="M 31.99 184.869375 
L 31.99 21.789375 
" style="fill:none;stroke:#ffffff;stroke-linecap:square;stroke-linejoin:miter;stroke-width:1.25;"/>
   </g>
   <g id="patch_260">
    <path d="M 589.99 184.869375 
L 589.99 21.789375 
" style="fill:none;stroke:#ffffff;stroke-linecap:square;stroke-linejoin:miter;stroke-width:1.25;"/>
   </g>
   <g id="patch_261">
    <path d="M 31.99 184.869375 
L 589.99 184.869375 
" style="fill:none;stroke:#ffffff;stroke-linecap:square;stroke-linejoin:miter;stroke-width:1.25;"/>
   </g>
   <g id="patch_262">
    <path d="M 31.99 21.789375 
L 589.99 21.789375 
" style="fill:none;stroke:#ffffff;stroke-linecap:square;stroke-linejoin:miter;stroke-width:1.25;"/>
   </g>
   <g id="text_11">
    <!-- Variational dequantization -->
    <g style="fill:#262626;" transform="translate(242.3875 15.789375)scale(0.12 -0.12)">
     <defs>
      <path d="M 28.171875 0 
L 0.4375 71.578125 
L 10.6875 71.578125 
L 29.296875 19.578125 
Q 31.546875 13.328125 33.0625 7.859375 
Q 34.71875 13.71875 36.921875 19.578125 
L 56.25 71.578125 
L 65.921875 71.578125 
L 37.890625 0 
z
" id="ArialMT-86"/>
      <path d="M 40.4375 6.390625 
Q 35.546875 2.25 31.03125 0.53125 
Q 26.515625 -1.171875 21.34375 -1.171875 
Q 12.796875 -1.171875 8.203125 3 
Q 3.609375 7.171875 3.609375 13.671875 
Q 3.609375 17.484375 5.34375 20.625 
Q 7.078125 23.78125 9.890625 25.6875 
Q 12.703125 27.59375 16.21875 28.5625 
Q 18.796875 29.25 24.03125 29.890625 
Q 34.671875 31.15625 39.703125 32.90625 
Q 39.75 34.71875 39.75 35.203125 
Q 39.75 40.578125 37.25 42.78125 
Q 33.890625 45.75 27.25 45.75 
Q 21.046875 45.75 18.09375 43.578125 
Q 15.140625 41.40625 13.71875 35.890625 
L 5.125 37.0625 
Q 6.296875 42.578125 8.984375 45.96875 
Q 11.671875 49.359375 16.75 51.1875 
Q 21.828125 53.03125 28.515625 53.03125 
Q 35.15625 53.03125 39.296875 51.46875 
Q 43.453125 49.90625 45.40625 47.53125 
Q 47.359375 45.171875 48.140625 41.546875 
Q 48.578125 39.3125 48.578125 33.453125 
L 48.578125 21.734375 
Q 48.578125 9.46875 49.140625 6.21875 
Q 49.703125 2.984375 51.375 0 
L 42.1875 0 
Q 40.828125 2.734375 40.4375 6.390625 
z
M 39.703125 26.03125 
Q 34.90625 24.078125 25.34375 22.703125 
Q 19.921875 21.921875 17.671875 20.9375 
Q 15.4375 19.96875 14.203125 18.09375 
Q 12.984375 16.21875 12.984375 13.921875 
Q 12.984375 10.40625 15.640625 8.0625 
Q 18.3125 5.71875 23.4375 5.71875 
Q 28.515625 5.71875 32.46875 7.9375 
Q 36.421875 10.15625 38.28125 14.015625 
Q 39.703125 17 39.703125 22.796875 
z
" id="ArialMT-97"/>
      <path d="M 6.5 0 
L 6.5 51.859375 
L 14.40625 51.859375 
L 14.40625 44 
Q 17.4375 49.515625 20 51.265625 
Q 22.5625 53.03125 25.640625 53.03125 
Q 30.078125 53.03125 34.671875 50.203125 
L 31.640625 42.046875 
Q 28.421875 43.953125 25.203125 43.953125 
Q 22.3125 43.953125 20.015625 42.21875 
Q 17.71875 40.484375 16.75 37.40625 
Q 15.28125 32.71875 15.28125 27.15625 
L 15.28125 0 
z
" id="ArialMT-114"/>
      <path d="M 6.640625 61.46875 
L 6.640625 71.578125 
L 15.4375 71.578125 
L 15.4375 61.46875 
z
M 6.640625 0 
L 6.640625 51.859375 
L 15.4375 51.859375 
L 15.4375 0 
z
" id="ArialMT-105"/>
      <path d="M 25.78125 7.859375 
L 27.046875 0.09375 
Q 23.34375 -0.6875 20.40625 -0.6875 
Q 15.625 -0.6875 12.984375 0.828125 
Q 10.359375 2.34375 9.28125 4.8125 
Q 8.203125 7.28125 8.203125 15.1875 
L 8.203125 45.015625 
L 1.765625 45.015625 
L 1.765625 51.859375 
L 8.203125 51.859375 
L 8.203125 64.703125 
L 16.9375 69.96875 
L 16.9375 51.859375 
L 25.78125 51.859375 
L 25.78125 45.015625 
L 16.9375 45.015625 
L 16.9375 14.703125 
Q 16.9375 10.9375 17.40625 9.859375 
Q 17.875 8.796875 18.921875 8.15625 
Q 19.96875 7.515625 21.921875 7.515625 
Q 23.390625 7.515625 25.78125 7.859375 
z
" id="ArialMT-116"/>
      <path d="M 3.328125 25.921875 
Q 3.328125 40.328125 11.328125 47.265625 
Q 18.015625 53.03125 27.640625 53.03125 
Q 38.328125 53.03125 45.109375 46.015625 
Q 51.90625 39.015625 51.90625 26.65625 
Q 51.90625 16.65625 48.90625 10.90625 
Q 45.90625 5.171875 40.15625 2 
Q 34.421875 -1.171875 27.640625 -1.171875 
Q 16.75 -1.171875 10.03125 5.8125 
Q 3.328125 12.796875 3.328125 25.921875 
z
M 12.359375 25.921875 
Q 12.359375 15.96875 16.703125 11.015625 
Q 21.046875 6.0625 27.640625 6.0625 
Q 34.1875 6.0625 38.53125 11.03125 
Q 42.875 16.015625 42.875 26.21875 
Q 42.875 35.84375 38.5 40.796875 
Q 34.125 45.75 27.640625 45.75 
Q 21.046875 45.75 16.703125 40.8125 
Q 12.359375 35.890625 12.359375 25.921875 
z
" id="ArialMT-111"/>
      <path d="M 6.59375 0 
L 6.59375 51.859375 
L 14.5 51.859375 
L 14.5 44.484375 
Q 20.21875 53.03125 31 53.03125 
Q 35.6875 53.03125 39.625 51.34375 
Q 43.5625 49.65625 45.515625 46.921875 
Q 47.46875 44.1875 48.25 40.4375 
Q 48.734375 37.984375 48.734375 31.890625 
L 48.734375 0 
L 39.9375 0 
L 39.9375 31.546875 
Q 39.9375 36.921875 38.90625 39.578125 
Q 37.890625 42.234375 35.28125 43.8125 
Q 32.671875 45.40625 29.15625 45.40625 
Q 23.53125 45.40625 19.453125 41.84375 
Q 15.375 38.28125 15.375 28.328125 
L 15.375 0 
z
" id="ArialMT-110"/>
      <path d="M 6.390625 0 
L 6.390625 71.578125 
L 15.1875 71.578125 
L 15.1875 0 
z
" id="ArialMT-108"/>
      <path id="ArialMT-32"/>
      <path d="M 40.234375 0 
L 40.234375 6.546875 
Q 35.296875 -1.171875 25.734375 -1.171875 
Q 19.53125 -1.171875 14.328125 2.25 
Q 9.125 5.671875 6.265625 11.796875 
Q 3.421875 17.921875 3.421875 25.875 
Q 3.421875 33.640625 6 39.96875 
Q 8.59375 46.296875 13.765625 49.65625 
Q 18.953125 53.03125 25.34375 53.03125 
Q 30.03125 53.03125 33.6875 51.046875 
Q 37.359375 49.078125 39.65625 45.90625 
L 39.65625 71.578125 
L 48.390625 71.578125 
L 48.390625 0 
z
M 12.453125 25.875 
Q 12.453125 15.921875 16.640625 10.984375 
Q 20.84375 6.0625 26.5625 6.0625 
Q 32.328125 6.0625 36.34375 10.765625 
Q 40.375 15.484375 40.375 25.140625 
Q 40.375 35.796875 36.265625 40.765625 
Q 32.171875 45.75 26.171875 45.75 
Q 20.3125 45.75 16.375 40.96875 
Q 12.453125 36.1875 12.453125 25.875 
z
" id="ArialMT-100"/>
      <path d="M 42.09375 16.703125 
L 51.171875 15.578125 
Q 49.03125 7.625 43.21875 3.21875 
Q 37.40625 -1.171875 28.375 -1.171875 
Q 17 -1.171875 10.328125 5.828125 
Q 3.65625 12.84375 3.65625 25.484375 
Q 3.65625 38.578125 10.390625 45.796875 
Q 17.140625 53.03125 27.875 53.03125 
Q 38.28125 53.03125 44.875 45.953125 
Q 51.46875 38.875 51.46875 26.03125 
Q 51.46875 25.25 51.421875 23.6875 
L 12.75 23.6875 
Q 13.234375 15.140625 17.578125 10.59375 
Q 21.921875 6.0625 28.421875 6.0625 
Q 33.25 6.0625 36.671875 8.59375 
Q 40.09375 11.140625 42.09375 16.703125 
z
M 13.234375 30.90625 
L 42.1875 30.90625 
Q 41.609375 37.453125 38.875 40.71875 
Q 34.671875 45.796875 27.984375 45.796875 
Q 21.921875 45.796875 17.796875 41.75 
Q 13.671875 37.703125 13.234375 30.90625 
z
" id="ArialMT-101"/>
      <path d="M 39.65625 -19.875 
L 39.65625 5.515625 
Q 37.59375 2.640625 33.90625 0.734375 
Q 30.21875 -1.171875 26.078125 -1.171875 
Q 16.84375 -1.171875 10.171875 6.203125 
Q 3.515625 13.578125 3.515625 26.421875 
Q 3.515625 34.234375 6.21875 40.421875 
Q 8.9375 46.625 14.078125 49.828125 
Q 19.234375 53.03125 25.390625 53.03125 
Q 35.015625 53.03125 40.53125 44.921875 
L 40.53125 51.859375 
L 48.4375 51.859375 
L 48.4375 -19.875 
z
M 12.546875 26.078125 
Q 12.546875 16.0625 16.75 11.0625 
Q 20.953125 6.0625 26.8125 6.0625 
Q 32.421875 6.0625 36.46875 10.8125 
Q 40.53125 15.578125 40.53125 25.296875 
Q 40.53125 35.640625 36.25 40.859375 
Q 31.984375 46.09375 26.21875 46.09375 
Q 20.515625 46.09375 16.53125 41.234375 
Q 12.546875 36.375 12.546875 26.078125 
z
" id="ArialMT-113"/>
      <path d="M 40.578125 0 
L 40.578125 7.625 
Q 34.515625 -1.171875 24.125 -1.171875 
Q 19.53125 -1.171875 15.546875 0.578125 
Q 11.578125 2.34375 9.640625 5 
Q 7.71875 7.671875 6.9375 11.53125 
Q 6.390625 14.109375 6.390625 19.734375 
L 6.390625 51.859375 
L 15.1875 51.859375 
L 15.1875 23.09375 
Q 15.1875 16.21875 15.71875 13.8125 
Q 16.546875 10.359375 19.234375 8.375 
Q 21.921875 6.390625 25.875 6.390625 
Q 29.828125 6.390625 33.296875 8.421875 
Q 36.765625 10.453125 38.203125 13.9375 
Q 39.65625 17.4375 39.65625 24.078125 
L 39.65625 51.859375 
L 48.4375 51.859375 
L 48.4375 0 
z
" id="ArialMT-117"/>
      <path d="M 1.953125 0 
L 1.953125 7.125 
L 34.96875 45.015625 
Q 29.34375 44.734375 25.046875 44.734375 
L 3.90625 44.734375 
L 3.90625 51.859375 
L 46.296875 51.859375 
L 46.296875 46.046875 
L 18.21875 13.140625 
L 12.796875 7.125 
Q 18.703125 7.5625 23.875 7.5625 
L 47.859375 7.5625 
L 47.859375 0 
z
" id="ArialMT-122"/>
     </defs>
     <use xlink:href="#ArialMT-86"/>
     <use x="59.324219" xlink:href="#ArialMT-97"/>
     <use x="114.939453" xlink:href="#ArialMT-114"/>
     <use x="148.240234" xlink:href="#ArialMT-105"/>
     <use x="170.457031" xlink:href="#ArialMT-97"/>
     <use x="226.072266" xlink:href="#ArialMT-116"/>
     <use x="253.855469" xlink:href="#ArialMT-105"/>
     <use x="276.072266" xlink:href="#ArialMT-111"/>
     <use x="331.6875" xlink:href="#ArialMT-110"/>
     <use x="387.302734" xlink:href="#ArialMT-97"/>
     <use x="442.917969" xlink:href="#ArialMT-108"/>
     <use x="465.134766" xlink:href="#ArialMT-32"/>
     <use x="492.917969" xlink:href="#ArialMT-100"/>
     <use x="548.533203" xlink:href="#ArialMT-101"/>
     <use x="604.148438" xlink:href="#ArialMT-113"/>
     <use x="659.763672" xlink:href="#ArialMT-117"/>
     <use x="715.378906" xlink:href="#ArialMT-97"/>
     <use x="770.994141" xlink:href="#ArialMT-110"/>
     <use x="826.609375" xlink:href="#ArialMT-116"/>
     <use x="854.392578" xlink:href="#ArialMT-105"/>
     <use x="876.609375" xlink:href="#ArialMT-122"/>
     <use x="926.609375" xlink:href="#ArialMT-97"/>
     <use x="982.224609" xlink:href="#ArialMT-116"/>
     <use x="1010.007812" xlink:href="#ArialMT-105"/>
     <use x="1032.224609" xlink:href="#ArialMT-111"/>
     <use x="1087.839844" xlink:href="#ArialMT-110"/>
    </g>
   </g>
  </g>
 </g>
 <defs>
  <clipPath id="pf3eedaea07">
   <rect height="163.08" width="558" x="31.99" y="21.789375"/>
  </clipPath>
 </defs>
</svg>
