<?xml version="1.0" encoding="UTF-8" standalone="no"?>
<!-- Created with Inkscape (http://www.inkscape.org/) -->

<svg
   version="1.1"
   id="svg1"
   width="279.67599"
   height="245.52133"
   viewBox="0 0 279.67599 245.52133"
   xmlns="http://www.w3.org/2000/svg"
   xmlns:svg="http://www.w3.org/2000/svg">
  <defs
     id="defs1">
    <clipPath
       clipPathUnits="userSpaceOnUse"
       id="clipPath24">
      <path
         d="M 0,0 H 194.26303 V 161.39557 H 0 Z"
         id="path24" />
    </clipPath>
    <clipPath
       clipPathUnits="userSpaceOnUse"
       id="clipPath26">
      <path
         d="M 0,0 H 194.26303 V 161.39557 H 0 Z"
         id="path26" />
    </clipPath>
  </defs>
  <g
     id="g1">
    <path
       id="path1"
       d="M 0,0 V 161.39557 M 32.37717,0 V 161.39557 M 64.75433,0 V 161.39557 M 97.13152,0 V 161.39557 M 129.50868,0 V 161.39557 M 161.88586,0 V 161.39557 M 194.26303,0 v 161.39557"
       style="fill:none;stroke:#bfbfbf;stroke-width:0.3985;stroke-linecap:butt;stroke-linejoin:miter;stroke-miterlimit:10;stroke-dasharray:none;stroke-opacity:1"
       transform="matrix(1.3333333,0,0,-1.3333333,12.914667,223.89867)" />
    <path
       id="path2"
       d="M 0,80.49825 H 194.26303 M 0,161.39557 h 194.26303"
       style="fill:none;stroke:#bfbfbf;stroke-width:0.3985;stroke-linecap:butt;stroke-linejoin:miter;stroke-miterlimit:10;stroke-dasharray:none;stroke-opacity:1"
       transform="matrix(1.3333333,0,0,-1.3333333,12.914667,223.89867)" />
    <path
       id="path3"
       d="m 0,-2.12589 v 4.25178 m 32.37717,-4.25178 v 4.25178 m 32.37716,-4.25178 v 4.25178 m 32.37719,-4.25178 v 4.25178 m 32.37716,-4.25178 v 4.25178 m 32.37718,-4.25178 v 4.25178 m 32.37717,-4.25178 v 4.25178"
       style="fill:none;stroke:#808080;stroke-width:0.19925;stroke-linecap:butt;stroke-linejoin:miter;stroke-miterlimit:10;stroke-dasharray:none;stroke-opacity:1"
       transform="matrix(1.3333333,0,0,-1.3333333,12.914667,223.89867)" />
    <path
       id="path4"
       d="m 95.00558,80.49825 h 4.25185 m -4.25185,80.89732 h 4.25185"
       style="fill:none;stroke:#808080;stroke-width:0.19925;stroke-linecap:butt;stroke-linejoin:miter;stroke-miterlimit:10;stroke-dasharray:none;stroke-opacity:1"
       transform="matrix(1.3333333,0,0,-1.3333333,12.914667,223.89867)" />
    <path
       id="path5"
       d="M 0,0 H 192.27051"
       style="fill:none;stroke:#000000;stroke-width:0.3985;stroke-linecap:butt;stroke-linejoin:miter;stroke-miterlimit:10;stroke-dasharray:none;stroke-opacity:1"
       transform="matrix(1.3333333,0,0,-1.3333333,12.914667,223.89867)" />
    <path
       id="path6"
       d="M 1.99252,0 -1.19551,1.59401 0,0 -1.19551,-1.59401"
       style="fill:#000000;fill-opacity:1;fill-rule:nonzero;stroke:none"
       transform="matrix(1.3333333,0,0,-1.3333333,269.27535,223.89867)" />
    <path
       id="path7"
       d="M 97.13152,0 V 159.40305"
       style="fill:none;stroke:#000000;stroke-width:0.3985;stroke-linecap:butt;stroke-linejoin:miter;stroke-miterlimit:10;stroke-dasharray:none;stroke-opacity:1"
       transform="matrix(1.3333333,0,0,-1.3333333,12.914667,223.89867)" />
    <path
       id="path8"
       d="M 1.99252,0 -1.19551,1.59401 0,0 -1.19551,-1.59401"
       style="fill:#000000;fill-opacity:1;fill-rule:nonzero;stroke:none"
       transform="matrix(0,-1.3333333,-1.3333333,0,142.42336,11.361267)" />
    <path
       id="path9"
       d="m 6.5637656,-2.2956641 c 0.1757813,0 0.3515625,0 0.3515625,-0.1992187 0,-0.1992188 -0.1757812,-0.1992188 -0.3515625,-0.1992188 h -5.390625 c -0.1640625,0 -0.33984373,0 -0.33984373,0.1992188 0,0.1992187 0.17578123,0.1992187 0.33984373,0.1992187 z m 0,0"
       style="fill:#000000;fill-opacity:1;fill-rule:nonzero;stroke:none"
       aria-label="−"
       transform="matrix(1.3333333,0,0,1.3333333,4.428,239.98667)" />
    <path
       id="path10"
       d="m 1.3118594,-3.2683203 v -0.234375 c 0,-2.5195313 1.2421875,-2.8828125 1.7460937,-2.8828125 0.234375,0 0.65625,0.058594 0.8789063,0.3984375 -0.1523438,0 -0.5507813,0 -0.5507813,0.4453125 0,0.3164062 0.234375,0.4570312 0.4570313,0.4570312 0.1640625,0 0.4570312,-0.082031 0.4570312,-0.46875 0,-0.5976562 -0.4335937,-1.078125 -1.265625,-1.078125 -1.2773437,0 -2.61328123,1.2890625 -2.61328123,3.4804688 0,2.66015624 1.14843753,3.37499999 2.07421873,3.37499999 1.1132813,0 2.0507813,-0.9375 2.0507813,-2.24999999 0,-1.265625 -0.8789063,-2.2265625 -1.9921875,-2.2265625 -0.6679688,0 -1.0429688,0.5039062 -1.2421875,0.984375 z m 1.1835937,3.21093749 c -0.6210937,0 -0.9257812,-0.59765625 -0.984375,-0.75 C 1.3352969,-1.2761328 1.3352969,-2.0730078 1.3352969,-2.2487891 c 0,-0.7734375 0.3164062,-1.7695312 1.21875,-1.7695312 0.1523437,0 0.609375,0 0.9257812,0.609375 0.1757813,0.375 0.1757813,0.8789062 0.1757813,1.3710937 0,0.4804688 0,0.9726563 -0.1640625,1.33593754 -0.3046875,0.59765625 -0.7617188,0.64453125 -0.9960938,0.64453125 z m 0,0"
       style="fill:#000000;fill-opacity:1;fill-rule:nonzero;stroke:none"
       aria-label="6"
       transform="matrix(1.3333333,0,0,1.3333333,14.758667,239.98667)" />
    <path
       id="path11"
       d="m 6.5637422,-2.2956641 c 0.1757812,0 0.3515625,0 0.3515625,-0.1992187 0,-0.1992188 -0.1757813,-0.1992188 -0.3515625,-0.1992188 h -5.390625 c -0.1640625,0 -0.33984376,0 -0.33984376,0.1992188 0,0.1992187 0.17578126,0.1992187 0.33984376,0.1992187 z m 0,0"
       style="fill:#000000;fill-opacity:1;fill-rule:nonzero;stroke:none"
       aria-label="−"
       transform="matrix(1.3333333,0,0,1.3333333,47.596,239.98667)" />
    <path
       id="path12"
       d="m 2.9309531,-1.6394141 v 0.86718754 c 0,0.3515625 -0.023437,0.46875 -0.7617187,0.46875 H 1.9582969 v 0.3046875 c 0.4101562,-0.03515625 0.9375,-0.03515625 1.3476562,-0.03515625 0.421875,0 0.9492188,0 1.359375,0.03515625 v -0.3046875 H 4.4543906 c -0.7382812,0 -0.7617187,-0.1171875 -0.7617187,-0.46875 V -1.6394141 H 4.6887656 V -1.9558203 H 3.6926719 v -4.5234375 c 0,-0.1992188 0,-0.2578125 -0.1523438,-0.2578125 -0.09375,0 -0.1171875,0 -0.1992187,0.1171875 l -3.05859377,4.6640625 v 0.3164062 z m 0.058594,-0.3164062 H 0.56376563 L 2.9895469,-5.6706641 Z m 0,0"
       style="fill:#000000;fill-opacity:1;fill-rule:nonzero;stroke:none"
       aria-label="4"
       transform="matrix(1.3333333,0,0,1.3333333,57.928,239.98667)" />
    <path
       id="path13"
       d="m 6.5627188,-2.2956641 c 0.1757812,0 0.3515625,0 0.3515625,-0.1992187 0,-0.1992188 -0.1757813,-0.1992188 -0.3515625,-0.1992188 h -5.390625 c -0.1640625,0 -0.3398438,0 -0.3398438,0.1992188 0,0.1992187 0.1757813,0.1992187 0.3398438,0.1992187 z m 0,0"
       style="fill:#000000;fill-opacity:1;fill-rule:nonzero;stroke:none"
       aria-label="−"
       transform="matrix(1.3333333,0,0,1.3333333,90.765333,239.98667)" />
    <path
       id="path14"
       d="M 1.2658672,-0.76050781 2.3205547,-1.7917578 c 1.5585937,-1.3710938 2.15625,-1.9101563 2.15625,-2.90625 0,-1.1367188 -0.9023438,-1.9335938 -2.1210938,-1.9335938 -1.125,0 -1.85156246,0.9140625 -1.85156246,1.8046875 0,0.5507813 0.4921875,0.5507813 0.52734376,0.5507813 0.1640625,0 0.515625,-0.1171875 0.515625,-0.5273438 0,-0.2578125 -0.1875,-0.515625 -0.5273438,-0.515625 -0.0820312,0 -0.10546871,0 -0.12890621,0.011719 0.22265621,-0.6445313 0.76171871,-1.0195313 1.33593751,-1.0195313 0.9140625,0 1.3359375,0.8085938 1.3359375,1.6289063 0,0.796875 -0.4921875,1.5820312 -1.0429688,2.203125 L 0.60961719,-0.36207031 C 0.50414844,-0.25660156 0.50414844,-0.23316406 0.50414844,0.00121094 H 4.1955547 l 0.28125,-1.73437504 H 4.2189922 c -0.046875,0.3046875 -0.1171875,0.73828129 -0.2109375,0.89062504 -0.070312,0.0820313 -0.7265625,0.0820313 -0.9492188,0.0820313 z m 0,0"
       style="fill:#000000;fill-opacity:1;fill-rule:nonzero;stroke:none"
       aria-label="2"
       transform="matrix(1.3333333,0,0,1.3333333,101.09733,239.98667)" />
    <path
       id="path15"
       d="m 4.5832031,-3.1862891 c 0,-0.796875 -0.046875,-1.59375 -0.3984375,-2.3320312 -0.4570312,-0.9609375 -1.2773437,-1.1132813 -1.6875,-1.1132813 -0.5976562,0 -1.3359375,0.2578125 -1.73437497,1.1835938 -0.328125,0.6914062 -0.375,1.4648437 -0.375,2.2617187 0,0.75 0.046875,1.640625 0.4453125,2.40234379 0.43359377,0.80859375 1.16015627,1.0078125 1.65234377,1.0078125 0.5390625,0 1.2890625,-0.2109375 1.734375,-1.16015625 C 4.5363281,-1.6276953 4.5832031,-2.4011328 4.5832031,-3.1862891 Z M 2.4855469,0.00121094 c -0.3867188,0 -0.984375,-0.24609375 -1.1601563,-1.20703124 -0.1054687,-0.5976563 -0.1054687,-1.5117188 -0.1054687,-2.0976563 0,-0.6445312 0,-1.3007812 0.082031,-1.8398437 0.1875,-1.1835938 0.9257813,-1.265625 1.1835938,-1.265625 0.328125,0 0.984375,0.1757812 1.171875,1.1601562 0.09375,0.5625 0.09375,1.3125 0.09375,1.9453125 0,0.75 0,1.4179688 -0.1054688,2.0625 -0.1523437,0.93750004 -0.7148437,1.24218754 -1.160156,1.24218754 z m 0,0"
       style="fill:#000000;fill-opacity:1;fill-rule:nonzero;stroke:none"
       aria-label="0"
       transform="matrix(1.3333333,0,0,1.3333333,139.1,239.98667)" />
    <path
       id="path16"
       d="M 1.2657734,-0.76050781 2.3204609,-1.7917578 c 1.5585938,-1.3710938 2.15625,-1.9101563 2.15625,-2.90625 0,-1.1367188 -0.9023437,-1.9335938 -2.1210937,-1.9335938 -1.125,0 -1.85156251,0.9140625 -1.85156251,1.8046875 0,0.5507813 0.4921875,0.5507813 0.52734371,0.5507813 0.1640625,0 0.515625,-0.1171875 0.515625,-0.5273438 0,-0.2578125 -0.1875,-0.515625 -0.5273437,-0.515625 -0.0820313,0 -0.10546876,0 -0.12890626,0.011719 0.22265626,-0.6445313 0.76171876,-1.0195313 1.33593746,-1.0195313 0.9140625,0 1.3359375,0.8085938 1.3359375,1.6289063 0,0.796875 -0.4921875,1.5820312 -1.0429687,2.203125 L 0.60952344,-0.36207031 C 0.50405469,-0.25660156 0.50405469,-0.23316406 0.50405469,0.00121094 H 4.1954609 l 0.28125,-1.73437504 H 4.2188984 c -0.046875,0.3046875 -0.1171875,0.73828129 -0.2109375,0.89062504 -0.070312,0.0820313 -0.7265625,0.0820313 -0.9492187,0.0820313 z m 0,0"
       style="fill:#000000;fill-opacity:1;fill-rule:nonzero;stroke:none"
       aria-label="2"
       transform="matrix(1.3333333,0,0,1.3333333,182.26933,239.98667)" />
    <path
       id="path17"
       d="m 2.9288125,-1.6394141 v 0.86718754 c 0,0.3515625 -0.023437,0.46875 -0.7617188,0.46875 H 1.9561562 v 0.3046875 c 0.4101563,-0.03515625 0.9375,-0.03515625 1.3476563,-0.03515625 0.421875,0 0.9492187,0 1.359375,0.03515625 v -0.3046875 H 4.45225 c -0.7382813,0 -0.7617188,-0.1171875 -0.7617188,-0.46875 V -1.6394141 H 4.686625 V -1.9558203 H 3.6905312 v -4.5234375 c 0,-0.1992188 0,-0.2578125 -0.1523437,-0.2578125 -0.09375,0 -0.1171875,0 -0.1992188,0.1171875 L 0.280375,-1.9558203 v 0.3164062 z m 0.058594,-0.3164062 H 0.561625 l 2.4257812,-3.7148438 z m 0,0"
       style="fill:#000000;fill-opacity:1;fill-rule:nonzero;stroke:none"
       aria-label="4"
       transform="matrix(1.3333333,0,0,1.3333333,225.43867,239.98667)" />
    <path
       id="path18"
       d="m 1.3116016,-3.2683203 v -0.234375 c 0,-2.5195313 1.2421875,-2.8828125 1.7460937,-2.8828125 0.234375,0 0.65625,0.058594 0.8789063,0.3984375 -0.1523438,0 -0.5507813,0 -0.5507813,0.4453125 0,0.3164062 0.234375,0.4570312 0.4570313,0.4570312 0.1640625,0 0.4570312,-0.082031 0.4570312,-0.46875 0,-0.5976562 -0.4335937,-1.078125 -1.265625,-1.078125 -1.2773437,0 -2.61328124,1.2890625 -2.61328124,3.4804688 0,2.66015624 1.14843754,3.37499999 2.07421874,3.37499999 1.1132813,0 2.0507813,-0.9375 2.0507813,-2.24999999 0,-1.265625 -0.8789063,-2.2265625 -1.9921875,-2.2265625 -0.6679688,0 -1.0429688,0.5039062 -1.2421875,0.984375 z m 1.1835937,3.21093749 c -0.6210937,0 -0.9257812,-0.59765625 -0.984375,-0.75 C 1.3350391,-1.2761328 1.3350391,-2.0730078 1.3350391,-2.2487891 c 0,-0.7734375 0.3164062,-1.7695312 1.21875,-1.7695312 0.1523437,0 0.609375,0 0.9257812,0.609375 0.1757813,0.375 0.1757813,0.8789062 0.1757813,1.3710937 0,0.4804688 0,0.9726563 -0.1640625,1.33593754 -0.3046875,0.59765625 -0.7617188,0.64453125 -0.9960938,0.64453125 z m 0,0"
       style="fill:#000000;fill-opacity:1;fill-rule:nonzero;stroke:none"
       aria-label="6"
       transform="matrix(1.3333333,0,0,1.3333333,268.60667,239.98667)" />
    <path
       id="path19"
       d="m 4.5834375,-3.1887578 c 0,-0.796875 -0.046875,-1.59375 -0.3984375,-2.3320313 -0.4570312,-0.9609375 -1.2773437,-1.1132812 -1.6875,-1.1132812 -0.5976562,0 -1.3359375,0.2578125 -1.734375,1.1835937 -0.328125,0.6914063 -0.375,1.4648438 -0.375,2.2617188 0,0.75 0.046875,1.640625 0.4453125,2.40234374 0.4335938,0.80859375 1.1601563,1.0078125 1.6523438,1.0078125 0.5390625,0 1.2890625,-0.2109375 1.734375,-1.16015625 C 4.5365625,-1.6301641 4.5834375,-2.4036016 4.5834375,-3.1887578 Z m -2.0976562,3.18749999 c -0.3867188,0 -0.984375,-0.24609375 -1.1601563,-1.20703129 -0.1054687,-0.5976562 -0.1054687,-1.5117187 -0.1054687,-2.0976562 0,-0.6445313 0,-1.3007813 0.082031,-1.8398438 0.1875,-1.1835937 0.9257813,-1.265625 1.1835938,-1.265625 0.328125,0 0.984375,0.1757813 1.171875,1.1601563 0.09375,0.5625 0.09375,1.3125 0.09375,1.9453125 0,0.75 0,1.4179687 -0.1054688,2.0625 -0.1523437,0.93749999 -0.7148437,1.24218749 -1.160156,1.24218749 z m 0,0"
       style="fill:#000000;fill-opacity:1;fill-rule:nonzero;stroke:none"
       aria-label="0"
       transform="matrix(1.3333333,0,0,1.3333333,117.92,120.84933)" />
    <path
       id="path20"
       d="m 1.9110313,-0.52860156 c 0,-0.29296875 -0.234375,-0.52734374 -0.5273438,-0.52734374 -0.28125,0 -0.52734375,0.23437499 -0.52734375,0.52734374 0,0.29296875 0.24609375,0.52734375 0.52734375,0.52734375 0.2929688,0 0.5273438,-0.234375 0.5273438,-0.52734375 z m 0,0"
       style="fill:#000000;fill-opacity:1;fill-rule:nonzero;stroke:none"
       aria-label="."
       transform="matrix(1.3333333,0,0,1.3333333,124.56133,120.84933)" />
    <path
       id="path21"
       d="m 4.4779922,-2.0051641 c 0,-1.1835937 -0.8203125,-2.1796875 -1.8984375,-2.1796875 -0.4804688,0 -0.9023438,0.1640625 -1.265625,0.5039063 v -1.9335938 c 0.1992187,0.058594 0.5273437,0.1289063 0.84375,0.1289063 1.2304687,0 1.9335937,-0.9140625 1.9335937,-1.0429688 0,-0.058594 -0.035156,-0.1054687 -0.1054687,-0.1054687 -0.011719,0 -0.035156,0 -0.082031,0.023437 -0.1992187,0.09375 -0.6796875,0.2929687 -1.3476562,0.2929687 -0.3984375,0 -0.8554688,-0.070312 -1.3242188,-0.28125 -0.082031,-0.023437 -0.1054687,-0.023437 -0.1289062,-0.023437 -0.09375,0 -0.09375,0.082031 -0.09375,0.234375 v 2.953125 c 0,0.1757813 0,0.2578125 0.140625,0.2578125 0.070312,0 0.082031,-0.035156 0.1289062,-0.09375 0.1054688,-0.1523437 0.4804688,-0.6914062 1.2773438,-0.6914062 0.5273437,0 0.7734375,0.4570312 0.8554687,0.6328125 0.1523438,0.375 0.1757813,0.7617187 0.1757813,1.2539062 0,0.3515625 0,0.9492188 -0.234375,1.37109379 -0.2460938,0.38671875 -0.609375,0.64453125 -1.0664063,0.64453125 -0.7265625,0 -1.30078121,-0.52734375 -1.46484371,-1.11328124 0.0234375,0.011719 0.0585938,0.011719 0.1640625,0.011719 0.32812501,0 0.50390621,-0.2460937 0.50390621,-0.4804687 0,-0.2460938 -0.1757812,-0.4921875 -0.50390621,-0.4921875 -0.140625,0 -0.48046875,0.070312 -0.48046875,0.5273437 0,0.85546879 0.67968746,1.82812504 1.79296876,1.82812504 1.1601562,0 2.1796875,-0.9609375 2.1796872,-2.22656284 z m 0,0"
       style="fill:#000000;fill-opacity:1;fill-rule:nonzero;stroke:none"
       aria-label="5"
       transform="matrix(1.3333333,0,0,1.3333333,128.252,120.84933)" />
    <path
       id="path22"
       d="m 2.9311172,-6.3747891 c 0,-0.234375 0,-0.2578125 -0.234375,-0.2578125 -0.609375,0.6328125 -1.4882813,0.6328125 -1.80468751,0.6328125 v 0.3164063 c 0.19921871,0 0.78515621,0 1.30078121,-0.2578125 v 5.15624999 c 0,0.3515625 -0.035156,0.48046875 -0.9257812,0.48046875 H 0.95064844 V 2.109375e-4 C 1.3022109,-0.03494531 2.1576797,-0.03494531 2.5561172,-0.03494531 c 0.3984375,0 1.265625,0 1.6171875,0.0351562475 V -0.30447656 H 3.8568984 c -0.9023437,0 -0.9257812,-0.1171875 -0.9257812,-0.48046875 z m 0,0"
       style="fill:#000000;fill-opacity:1;fill-rule:nonzero;stroke:none"
       aria-label="1"
       transform="matrix(1.3333333,0,0,1.3333333,128.252,12.988)" />
    <path
       id="path23"
       d="m 0,9.8e-4 1.96204,0.0514 1.96205,0.05797 1.96206,0.06543 1.96205,0.07376 1.96207,0.08321 1.96204,0.09381 1.96207,0.1058 1.96205,0.11925 1.96207,0.13435 1.96204,0.15142 1.96207,0.17062 1.96204,0.19223 1.96206,0.21633 1.96206,0.2435 1.96206,0.27407 1.96205,0.30807 1.96205,0.34672 1.96206,0.38928 1.96205,0.43717 1.96206,0.49055 1.96206,0.55028 1.96206,0.61659 1.96205,0.6899 1.96205,0.77176 1.96206,0.86204 1.96206,0.96187 1.96206,1.07107 1.96206,1.19146 1.96205,1.32251 1.96205,1.46537 1.96206,1.62038 1.96206,1.78864 1.96205,1.96257 1.96205,2.15672 1.96206,2.35572 1.96205,2.56444 1.96206,2.78449 1.96205,3.01102 1.96207,3.23588 1.96205,3.46402 1.96205,3.69054 1.96206,3.90573 1.96207,4.11606 1.96204,4.30534 1.96207,4.47525 1.96205,4.6241 1.96207,4.74219 1.96205,4.82956 1.96204,4.88136 1.96206,4.89427 1.96205,4.8846 1.96207,4.82795 1.96205,4.74058 1.96207,4.62895 1.96205,4.47847 1.96207,4.30534 1.96205,4.12255 1.96205,3.90895 1.96205,3.69215 1.96207,3.47373 1.96205,3.23753 1.96207,3.00613 1.96203,2.78774 1.96207,2.56282 1.96205,2.36058 1.96205,2.16483 1.96207,1.96902 1.96205,1.79268 1.96205,1.6131 1.96205,1.46263 1.96207,1.3267 1.96205,1.1892 1.96207,1.07432 1.96205,0.96268 1.96205,0.86397 1.96205,0.77015 1.96207,0.69248 1.96205,0.61644 1.96207,0.55334 1.96205,0.48862 1.96205,0.43684 1.96205,0.38993 1.96205,0.34625 1.96207,0.30739 1.96205,0.27992 1.96207,0.24107 1.96203,0.22004 1.96207,0.19091 1.96205,0.16665 1.96207,0.15372 1.96205,0.13265 1.96205,0.11974 1.96205,0.10516 1.96207,0.0971 1.96205,0.0841 1.96207,0.0712 1.96205,0.0696 1.96203,0.055 1.96207,0.0502"
       style="fill:none;stroke:#0000ff;stroke-width:0.3985;stroke-linecap:butt;stroke-linejoin:miter;stroke-miterlimit:10;stroke-dasharray:none;stroke-opacity:1"
       transform="matrix(1.3333333,0,0,-1.3333333,12.914667,223.89867)"
       clip-path="url(#clipPath24)" />
    <path
       id="path25"
       d="m 0,0 1.96204,0.05112 1.96205,0.05764 1.96206,0.06499 1.96205,0.0732 1.96207,0.08249 1.96204,0.09291 1.96207,0.10466 1.96205,0.11778 1.96207,0.13249 1.96204,0.14907 1.96207,0.16763 1.96204,0.1884 1.96206,0.2115 1.96206,0.23735 1.96206,0.26631 1.96205,0.29821 1.96205,0.33422 1.96206,0.37349 1.96205,0.41721 1.96206,0.46533 1.96206,0.51842 1.96206,0.57649 1.96205,0.63942 1.96205,0.70836 1.96206,0.78249 1.96206,0.86227 1.96206,0.94673 1.96206,1.03644 1.96205,1.12991 1.96205,1.22673 1.96206,1.32556 1.96206,1.42554 1.96205,1.51865 1.96205,1.61398 1.96206,1.69722 1.96205,1.76959 1.96206,1.8294 1.96205,1.87033 1.96207,1.8851 1.96205,1.87455 1.96205,1.83396 1.96206,1.75747 1.96207,1.64808 1.96204,1.49977 1.96207,1.31608 1.96205,1.09981 1.96207,0.85336 1.96205,0.58336 1.96204,0.29663 1.96206,0.0017 1.96205,-0.2935 1.96207,-0.57993 1.96205,-0.84982 1.96207,-1.09782 1.96205,-1.31426 1.96207,-1.49719 1.96205,-1.64835 1.96205,-1.757 1.96205,-1.83301 1.96207,-1.87843 1.96205,-1.88498 1.96207,-1.86626 1.96203,-1.83052 1.96207,-1.76758 1.96205,-1.69992 1.96205,-1.61949 1.96207,-1.52336 1.96205,-1.42857 1.96205,-1.31946 1.96205,-1.22414 1.96207,-1.13328 1.96205,-1.0343 1.96207,-0.94944 1.96205,-0.86285 1.96205,-0.78418 1.96205,-0.70677 1.96207,-0.64176 1.96205,-0.57629 1.96207,-0.52129 1.96205,-0.46346 1.96205,-0.41686 1.96205,-0.37407 1.96205,-0.33373 1.96207,-0.29754 1.96205,-0.27197 1.96207,-0.23499 1.96203,-0.21512 1.96207,-0.18715 1.96205,-0.16369 1.96207,-0.15129 1.96205,-0.13083 1.96205,-0.11827 1.96205,-0.10404 1.96207,-0.09613 1.96205,-0.08342 1.96207,-0.07063 1.96205,-0.06911 1.96203,-0.05467 1.96207,-0.0499"
       style="fill:none;stroke:#ff0000;stroke-width:0.3985;stroke-linecap:butt;stroke-linejoin:miter;stroke-miterlimit:10;stroke-dasharray:0.3985, 1.99255;stroke-dashoffset:0;stroke-opacity:1"
       transform="matrix(1.3333333,0,0,-1.3333333,12.914667,223.89867)"
       clip-path="url(#clipPath26)" />
    <path
       id="path27"
       d="m 144.40604,115.14983 h 49.65775 v 29.90593 h -49.65775 z"
       style="fill:#ffffff;fill-opacity:1;fill-rule:nonzero;stroke:#000000;stroke-width:0.3985;stroke-linecap:butt;stroke-linejoin:miter;stroke-miterlimit:10;stroke-dasharray:none;stroke-opacity:1"
       transform="matrix(1.3333333,0,0,-1.3333333,12.914667,223.89867)" />
    <path
       id="path28"
       d="m 0,0 h 8.50412 8.50414"
       style="fill:none;stroke:#0000ff;stroke-width:0.3985;stroke-linecap:butt;stroke-linejoin:miter;stroke-miterlimit:10;stroke-dasharray:none;stroke-opacity:1"
       transform="matrix(1.3333333,0,0,-1.3333333,209.704,41.785333)" />
    <path
       id="path29"
       d="m 5.1572266,-3.7146953 c 0.1289062,0 0.4921875,0 0.4921875,-0.3398438 0,-0.234375 -0.2109375,-0.234375 -0.3867188,-0.234375 H 2.9892578 c -1.5,0 -2.61328124,1.640625 -2.61328124,2.8242188 0,0.87890624 0.5859375,1.57031249 1.50000004,1.57031249 1.171875,0 2.4960937,-1.20703129 2.4960937,-2.73046879 0,-0.1757812 0,-0.65625 -0.3046875,-1.0898437 z m -3.2695313,3.60937499 c -0.4921875,0 -0.89062499,-0.36328125 -0.89062499,-1.07812499 0,-0.3046875 0.11718749,-1.1132813 0.46874999,-1.7109375 0.421875,-0.6796875 1.0195313,-0.8203125 1.359375,-0.8203125 0.8320313,0 0.9140625,0.65625 0.9140625,0.9609375 0,0.46875 -0.1992187,1.2890625 -0.5390625,1.79296874 -0.3867187,0.59765625 -0.9257812,0.85546875 -1.3125,0.85546875 z m 0,0"
       style="fill:#000000;fill-opacity:1;fill-rule:nonzero;stroke:none"
       aria-label="σ"
       transform="matrix(1.3333333,0,0,1.3333333,237.16667,45.769333)" />
    <path
       id="path30"
       d="m 3.29375,2.3907734 c 0,-0.035156 0,-0.046875 -0.1640625,-0.2226562 C 1.8875,0.91421094 1.559375,-0.96078906 1.559375,-2.4959453 c 0,-1.7226563 0.3867187,-3.4570313 1.6054687,-4.7109375 C 3.29375,-7.3240703 3.29375,-7.3357891 3.29375,-7.3709453 c 0,-0.070312 -0.035156,-0.1054688 -0.09375,-0.1054688 -0.1054688,0 -0.9960938,0.6796875 -1.5820313,1.9453125 -0.515625,1.1015625 -0.63281245,2.203125 -0.63281245,3.0351563 0,0.7851562 0.11718745,1.99218749 0.65624995,3.11718749 C 2.2390625,1.8399922 3.0945312,2.4962422 3.2,2.4962422 c 0.058594,0 0.09375,-0.035156 0.09375,-0.1054688 z m 0,0"
       style="fill:#000000;fill-opacity:1;fill-rule:nonzero;stroke:none"
       aria-label="("
       transform="matrix(1.3333333,0,0,1.3333333,245.23333,45.769333)" />
    <path
       id="path31"
       d="m 3.3269531,-3.0115703 c 0.058594,-0.2578125 0.2929688,-1.171875 0.984375,-1.171875 0.046875,0 0.2929688,0 0.5039063,0.1289062 -0.28125,0.046875 -0.4804688,0.3046875 -0.4804688,0.5390625 0,0.1640625 0.1054688,0.3515625 0.375,0.3515625 0.2226563,0 0.5390625,-0.1875 0.5390625,-0.5859375 0,-0.515625 -0.5859375,-0.65625 -0.9257812,-0.65625 -0.5742188,0 -0.9257813,0.5273438 -1.0429688,0.7617188 -0.2578125,-0.65625 -0.7851562,-0.7617188 -1.078125,-0.7617188 -1.0429687,0 -1.60546873,1.2890625 -1.60546873,1.5351563 0,0.1054687 0.10546875,0.1054687 0.1171875,0.1054687 0.0820313,0 0.1171875,-0.023437 0.12890625,-0.1171875 0.33984378,-1.0546875 0.99609378,-1.3007812 1.33593748,-1.3007812 0.1875,0 0.5390625,0.09375 0.5390625,0.6679687 0,0.3046875 -0.1640625,0.9726563 -0.5390625,2.3671875 -0.1523437,0.62109379 -0.5039062,1.04296879 -0.9492187,1.04296879 -0.058594,0 -0.28125003,0 -0.49218753,-0.12890625 0.24609375,-0.0585937 0.46875003,-0.26953125 0.46875003,-0.5390625 0,-0.26953124 -0.22265628,-0.35156254 -0.37500003,-0.35156254 -0.29296875,0 -0.5390625,0.25781254 -0.5390625,0.57421879 0,0.45703125 0.4921875,0.65625 0.93750003,0.65625 0.65625,0 1.0078125,-0.69140625 1.0429687,-0.75 0.1171875,0.36328125 0.4804688,0.75 1.078125,0.75 1.0195313,0 1.59375,-1.27734379 1.59375,-1.53515629 0,-0.09375 -0.09375,-0.09375 -0.1289062,-0.09375 -0.082031,0 -0.1054688,0.035156 -0.1289063,0.1054688 -0.328125,1.06640624 -0.9960937,1.31249999 -1.3242187,1.31249999 -0.3867188,0 -0.5390625,-0.328125 -0.5390625,-0.65625 0,-0.22265625 0.058594,-0.44531249 0.1640625,-0.87890629 z m 0,0"
       style="fill:#000000;fill-opacity:1;fill-rule:nonzero;stroke:none"
       aria-label="x"
       transform="matrix(1.3333333,0,0,1.3333333,250.4,45.769333)" />
    <path
       id="path32"
       d="m 2.8829531,-2.4959453 c 0,-0.7734375 -0.1171875,-1.9804688 -0.65625,-3.1054688 -0.5976562,-1.21875 -1.46484372,-1.875 -1.55859372,-1.875 -0.0585938,0 -0.10546875,0.046875 -0.10546875,0.1054688 0,0.035156 0,0.046875 0.19921875,0.234375 0.97265622,0.984375 1.53515622,2.5664062 1.53515622,4.640625 0,1.71093749 -0.3632812,3.45703124 -1.59374997,4.7226562 -0.140625,0.1171875 -0.140625,0.1289063 -0.140625,0.1640625 0,0.058594 0.046875,0.1054688 0.10546875,0.1054688 0.09375,0 0.99609372,-0.6796875 1.58203122,-1.94531251 0.5039063,-1.1015625 0.6328125,-2.20312499 0.6328125,-3.04687499 z m 0,0"
       style="fill:#000000;fill-opacity:1;fill-rule:nonzero;stroke:none"
       aria-label=")"
       transform="matrix(1.3333333,0,0,1.3333333,257.992,45.769333)" />
    <path
       id="path33"
       d="m 0,0 h 8.50412 8.50414"
       style="fill:none;stroke:#ff0000;stroke-width:0.3985;stroke-linecap:butt;stroke-linejoin:miter;stroke-miterlimit:10;stroke-dasharray:0.3985, 1.99255;stroke-dashoffset:0;stroke-opacity:1"
       transform="matrix(1.3333333,0,0,-1.3333333,209.704,59.065333)" />
    <path
       id="path34"
       d="m 5.1567656,-3.7149687 c 0.1289063,0 0.4921875,0 0.4921875,-0.3398438 0,-0.234375 -0.2109375,-0.234375 -0.3867187,-0.234375 H 2.9887969 c -1.5,0 -2.61328128,1.640625 -2.61328128,2.8242188 0,0.8789062 0.5859375,1.57031245 1.49999998,1.57031245 1.171875,0 2.4960938,-1.20703125 2.4960938,-2.73046875 0,-0.1757812 0,-0.65625 -0.3046875,-1.0898437 z m -3.2695312,3.60937495 c -0.4921875,0 -0.89062503,-0.36328125 -0.89062503,-1.07812495 0,-0.3046875 0.11718753,-1.1132813 0.46875003,-1.7109375 0.421875,-0.6796875 1.0195312,-0.8203125 1.359375,-0.8203125 0.8320312,0 0.9140625,0.65625 0.9140625,0.9609375 0,0.46875 -0.1992188,1.2890625 -0.5390625,1.7929687 -0.3867188,0.59765625 -0.9257813,0.85546875 -1.3125,0.85546875 z m 0,0"
       style="fill:#000000;fill-opacity:1;fill-rule:nonzero;stroke:none"
       aria-label="σ"
       transform="matrix(1.3333333,0,0,1.3333333,235.304,63.062667)" />
    <path
       id="path35"
       d="m 2.0276641,-3.2923281 c 0.046875,-0.1171875 0.058594,-0.1757813 0.058594,-0.2226563 0,-0.2109375 -0.1992187,-0.3867187 -0.4101562,-0.3867187 -0.2695313,0 -0.3515625,0.2226562 -0.3867188,0.328125 l -0.91406249,3.02343748 c -0.0117188,0.0117188 -0.0351563,0.10546875 -0.0351563,0.1171875 0,0.0820313 0.2109375,0.15234375 0.26953125,0.15234375 0.046875,0 0.0585938,-0.0234375 0.10546875,-0.12890625 z m 0,0"
       style="fill:#000000;fill-opacity:1;fill-rule:nonzero;stroke:none"
       aria-label="0"
       transform="matrix(1.3333333,0,0,1.3333333,243.37067,58.241333)" />
    <path
       id="path36"
       d="m 3.2932109,2.3905 c 0,-0.035156 0,-0.046875 -0.1640625,-0.2226562 -1.2421875,-1.2539063 -1.5703125,-3.1289063 -1.5703125,-4.6640625 0,-1.7226563 0.3867188,-3.4570313 1.6054688,-4.7109375 0.1289062,-0.1171875 0.1289062,-0.1289063 0.1289062,-0.1640625 0,-0.070312 -0.035156,-0.1054688 -0.09375,-0.1054688 -0.1054687,0 -0.9960937,0.6796875 -1.5820312,1.9453125 -0.515625,1.1015625 -0.63281251,2.203125 -0.63281251,3.0351563 0,0.7851562 0.11718751,1.99218745 0.65625001,3.11718745 0.5976562,1.21875005 1.453125,1.87500005 1.5585937,1.87500005 0.058594,0 0.09375,-0.035156 0.09375,-0.1054688 z m 0,0"
       style="fill:#000000;fill-opacity:1;fill-rule:nonzero;stroke:none"
       aria-label="("
       transform="matrix(1.3333333,0,0,1.3333333,247.09733,63.062667)" />
    <path
       id="path37"
       d="m 3.3274141,-3.0118437 c 0.058594,-0.2578125 0.2929687,-1.171875 0.984375,-1.171875 0.046875,0 0.2929687,0 0.5039062,0.1289062 -0.28125,0.046875 -0.4804687,0.3046875 -0.4804687,0.5390625 0,0.1640625 0.1054687,0.3515625 0.375,0.3515625 0.2226562,0 0.5390625,-0.1875 0.5390625,-0.5859375 0,-0.515625 -0.5859375,-0.65625 -0.9257813,-0.65625 -0.5742187,0 -0.9257812,0.5273438 -1.0429687,0.7617188 -0.2578125,-0.65625 -0.7851563,-0.7617188 -1.078125,-0.7617188 -1.0429688,0 -1.60546879,1.2890625 -1.60546879,1.5351563 0,0.1054687 0.10546875,0.1054687 0.1171875,0.1054687 0.0820313,0 0.1171875,-0.023437 0.12890625,-0.1171875 0.33984374,-1.0546875 0.99609374,-1.3007812 1.33593754,-1.3007812 0.1875,0 0.5390625,0.09375 0.5390625,0.6679687 0,0.3046875 -0.1640625,0.9726563 -0.5390625,2.3671875 -0.1523438,0.62109375 -0.5039063,1.04296875 -0.9492188,1.04296875 -0.058594,0 -0.28124999,0 -0.49218749,-0.12890625 0.24609375,-0.0585938 0.46874999,-0.26953125 0.46874999,-0.5390625 0,-0.2695312 -0.22265624,-0.3515625 -0.37499999,-0.3515625 -0.29296875,0 -0.5390625,0.2578125 -0.5390625,0.57421875 0,0.45703125 0.4921875,0.65625 0.93749999,0.65625 0.65625,0 1.0078125,-0.69140625 1.0429688,-0.75 0.1171875,0.36328125 0.4804687,0.75 1.078125,0.75 1.0195312,0 1.59375,-1.27734375 1.59375,-1.53515625 0,-0.09375 -0.09375,-0.09375 -0.1289063,-0.09375 -0.082031,0 -0.1054687,0.035156 -0.1289062,0.1054688 -0.328125,1.0664062 -0.9960938,1.31249995 -1.3242188,1.31249995 -0.3867187,0 -0.5390625,-0.328125 -0.5390625,-0.65625 0,-0.22265625 0.058594,-0.44531245 0.1640625,-0.87890625 z m 0,0"
       style="fill:#000000;fill-opacity:1;fill-rule:nonzero;stroke:none"
       aria-label="x"
       transform="matrix(1.3333333,0,0,1.3333333,252.26267,63.062667)" />
    <path
       id="path38"
       d="m 2.8834141,-2.4962187 c 0,-0.7734375 -0.1171875,-1.9804688 -0.65625,-3.1054688 -0.5976563,-1.21875 -1.46484379,-1.875 -1.55859379,-1.875 -0.0585938,0 -0.10546875,0.046875 -0.10546875,0.1054688 0,0.035156 0,0.046875 0.19921875,0.234375 0.97265629,0.984375 1.53515629,2.5664062 1.53515629,4.640625 0,1.71093745 -0.3632813,3.4570312 -1.59375004,4.7226562 -0.140625,0.1171875 -0.140625,0.1289063 -0.140625,0.1640625 0,0.058594 0.046875,0.1054688 0.10546875,0.1054688 0.09375,0 0.99609379,-0.6796875 1.58203129,-1.94531255 0.5039062,-1.1015625 0.6328125,-2.20312495 0.6328125,-3.04687495 z m 0,0"
       style="fill:#000000;fill-opacity:1;fill-rule:nonzero;stroke:none"
       aria-label=")"
       transform="matrix(1.3333333,0,0,1.3333333,259.85467,63.062667)" />
  </g>
</svg>
