<?xml version="1.0" encoding="utf-8" standalone="no"?>
<!DOCTYPE svg PUBLIC "-//W3C//DTD SVG 1.1//EN"
  "http://www.w3.org/Graphics/SVG/1.1/DTD/svg11.dtd">
<!-- Created with matplotlib (https://matplotlib.org/) -->
<svg height="701.015469pt" version="1.1" viewBox="0 0 482.841719 701.015469" width="482.841719pt" xmlns="http://www.w3.org/2000/svg" xmlns:xlink="http://www.w3.org/1999/xlink">
 <metadata>
  <rdf:RDF xmlns:cc="http://creativecommons.org/ns#" xmlns:dc="http://purl.org/dc/elements/1.1/" xmlns:rdf="http://www.w3.org/1999/02/22-rdf-syntax-ns#">
   <cc:Work>
    <dc:type rdf:resource="http://purl.org/dc/dcmitype/StillImage"/>
    <dc:date>2023-03-19T13:36:49.358317</dc:date>
    <dc:format>image/svg+xml</dc:format>
    <dc:creator>
     <cc:Agent>
      <dc:title>Matplotlib v3.3.2, https://matplotlib.org/</dc:title>
     </cc:Agent>
    </dc:creator>
   </cc:Work>
  </rdf:RDF>
 </metadata>
 <defs>
  <style type="text/css">*{stroke-linecap:butt;stroke-linejoin:round;}</style>
 </defs>
 <g id="figure_1">
  <g id="patch_1">
   <path d="M 0 701.015469 
L 482.841719 701.015469 
L 482.841719 0 
L 0 0 
z
" style="fill:#ffffff;"/>
  </g>
  <g id="axes_1">
   <g id="patch_2">
    <path d="M 29.241719 203.135625 
L 232.15081 203.135625 
L 232.15081 21.935625 
L 29.241719 21.935625 
z
" style="fill:#eaeaf2;"/>
   </g>
   <g id="matplotlib.axis_1">
    <g id="xtick_1">
     <g id="line2d_1">
      <path clip-path="url(#p801b0b64b6)" d="M 56.91114 203.135625 
L 56.91114 21.935625 
" style="fill:none;stroke:#ffffff;stroke-linecap:round;"/>
     </g>
     <g id="text_1">
      <!-- −4 -->
      <g style="fill:#262626;" transform="translate(50.640281 220.509219)scale(0.11 -0.11)">
       <defs>
        <path d="M 52.828125 31.203125 
L 5.5625 31.203125 
L 5.5625 39.40625 
L 52.828125 39.40625 
z
" id="ArialMT-8722"/>
        <path d="M 32.328125 0 
L 32.328125 17.140625 
L 1.265625 17.140625 
L 1.265625 25.203125 
L 33.9375 71.578125 
L 41.109375 71.578125 
L 41.109375 25.203125 
L 50.78125 25.203125 
L 50.78125 17.140625 
L 41.109375 17.140625 
L 41.109375 0 
z
M 32.328125 25.203125 
L 32.328125 57.46875 
L 9.90625 25.203125 
z
" id="ArialMT-52"/>
       </defs>
       <use xlink:href="#ArialMT-8722"/>
       <use x="58.398438" xlink:href="#ArialMT-52"/>
      </g>
     </g>
    </g>
    <g id="xtick_2">
     <g id="line2d_2">
      <path clip-path="url(#p801b0b64b6)" d="M 93.803702 203.135625 
L 93.803702 21.935625 
" style="fill:none;stroke:#ffffff;stroke-linecap:round;"/>
     </g>
     <g id="text_2">
      <!-- −2 -->
      <g style="fill:#262626;" transform="translate(87.532843 220.509219)scale(0.11 -0.11)">
       <defs>
        <path d="M 50.34375 8.453125 
L 50.34375 0 
L 3.03125 0 
Q 2.9375 3.171875 4.046875 6.109375 
Q 5.859375 10.9375 9.828125 15.625 
Q 13.8125 20.3125 21.34375 26.46875 
Q 33.015625 36.03125 37.109375 41.625 
Q 41.21875 47.21875 41.21875 52.203125 
Q 41.21875 57.421875 37.46875 61 
Q 33.734375 64.59375 27.734375 64.59375 
Q 21.390625 64.59375 17.578125 60.78125 
Q 13.765625 56.984375 13.71875 50.25 
L 4.6875 51.171875 
Q 5.609375 61.28125 11.65625 66.578125 
Q 17.71875 71.875 27.9375 71.875 
Q 38.234375 71.875 44.234375 66.15625 
Q 50.25 60.453125 50.25 52 
Q 50.25 47.703125 48.484375 43.546875 
Q 46.734375 39.40625 42.65625 34.8125 
Q 38.578125 30.21875 29.109375 22.21875 
Q 21.1875 15.578125 18.9375 13.203125 
Q 16.703125 10.84375 15.234375 8.453125 
z
" id="ArialMT-50"/>
       </defs>
       <use xlink:href="#ArialMT-8722"/>
       <use x="58.398438" xlink:href="#ArialMT-50"/>
      </g>
     </g>
    </g>
    <g id="xtick_3">
     <g id="line2d_3">
      <path clip-path="url(#p801b0b64b6)" d="M 130.696264 203.135625 
L 130.696264 21.935625 
" style="fill:none;stroke:#ffffff;stroke-linecap:round;"/>
     </g>
     <g id="text_3">
      <!-- 0 -->
      <g style="fill:#262626;" transform="translate(127.637749 220.509219)scale(0.11 -0.11)">
       <defs>
        <path d="M 4.15625 35.296875 
Q 4.15625 48 6.765625 55.734375 
Q 9.375 63.484375 14.515625 67.671875 
Q 19.671875 71.875 27.484375 71.875 
Q 33.25 71.875 37.59375 69.546875 
Q 41.9375 67.234375 44.765625 62.859375 
Q 47.609375 58.5 49.21875 52.21875 
Q 50.828125 45.953125 50.828125 35.296875 
Q 50.828125 22.703125 48.234375 14.96875 
Q 45.65625 7.234375 40.5 3 
Q 35.359375 -1.21875 27.484375 -1.21875 
Q 17.140625 -1.21875 11.234375 6.203125 
Q 4.15625 15.140625 4.15625 35.296875 
z
M 13.1875 35.296875 
Q 13.1875 17.671875 17.3125 11.828125 
Q 21.4375 6 27.484375 6 
Q 33.546875 6 37.671875 11.859375 
Q 41.796875 17.71875 41.796875 35.296875 
Q 41.796875 52.984375 37.671875 58.78125 
Q 33.546875 64.59375 27.390625 64.59375 
Q 21.34375 64.59375 17.71875 59.46875 
Q 13.1875 52.9375 13.1875 35.296875 
z
" id="ArialMT-48"/>
       </defs>
       <use xlink:href="#ArialMT-48"/>
      </g>
     </g>
    </g>
    <g id="xtick_4">
     <g id="line2d_4">
      <path clip-path="url(#p801b0b64b6)" d="M 167.588826 203.135625 
L 167.588826 21.935625 
" style="fill:none;stroke:#ffffff;stroke-linecap:round;"/>
     </g>
     <g id="text_4">
      <!-- 2 -->
      <g style="fill:#262626;" transform="translate(164.530311 220.509219)scale(0.11 -0.11)">
       <use xlink:href="#ArialMT-50"/>
      </g>
     </g>
    </g>
    <g id="xtick_5">
     <g id="line2d_5">
      <path clip-path="url(#p801b0b64b6)" d="M 204.481388 203.135625 
L 204.481388 21.935625 
" style="fill:none;stroke:#ffffff;stroke-linecap:round;"/>
     </g>
     <g id="text_5">
      <!-- 4 -->
      <g style="fill:#262626;" transform="translate(201.422873 220.509219)scale(0.11 -0.11)">
       <use xlink:href="#ArialMT-52"/>
      </g>
     </g>
    </g>
   </g>
   <g id="matplotlib.axis_2">
    <g id="ytick_1">
     <g id="line2d_6">
      <path clip-path="url(#p801b0b64b6)" d="M 29.241719 189.197163 
L 232.15081 189.197163 
" style="fill:none;stroke:#ffffff;stroke-linecap:round;"/>
     </g>
     <g id="text_6">
      <!-- −1 -->
      <g style="fill:#262626;" transform="translate(7.2 193.13396)scale(0.11 -0.11)">
       <defs>
        <path d="M 37.25 0 
L 28.46875 0 
L 28.46875 56 
Q 25.296875 52.984375 20.140625 49.953125 
Q 14.984375 46.921875 10.890625 45.40625 
L 10.890625 53.90625 
Q 18.265625 57.375 23.78125 62.296875 
Q 29.296875 67.234375 31.59375 71.875 
L 37.25 71.875 
z
" id="ArialMT-49"/>
       </defs>
       <use xlink:href="#ArialMT-8722"/>
       <use x="58.398438" xlink:href="#ArialMT-49"/>
      </g>
     </g>
    </g>
    <g id="ytick_2">
     <g id="line2d_7">
      <path clip-path="url(#p801b0b64b6)" d="M 29.241719 161.32024 
L 232.15081 161.32024 
" style="fill:none;stroke:#ffffff;stroke-linecap:round;"/>
     </g>
     <g id="text_7">
      <!-- 0 -->
      <g style="fill:#262626;" transform="translate(13.624688 165.257037)scale(0.11 -0.11)">
       <use xlink:href="#ArialMT-48"/>
      </g>
     </g>
    </g>
    <g id="ytick_3">
     <g id="line2d_8">
      <path clip-path="url(#p801b0b64b6)" d="M 29.241719 133.443317 
L 232.15081 133.443317 
" style="fill:none;stroke:#ffffff;stroke-linecap:round;"/>
     </g>
     <g id="text_8">
      <!-- 1 -->
      <g style="fill:#262626;" transform="translate(13.624688 137.380114)scale(0.11 -0.11)">
       <use xlink:href="#ArialMT-49"/>
      </g>
     </g>
    </g>
    <g id="ytick_4">
     <g id="line2d_9">
      <path clip-path="url(#p801b0b64b6)" d="M 29.241719 105.566394 
L 232.15081 105.566394 
" style="fill:none;stroke:#ffffff;stroke-linecap:round;"/>
     </g>
     <g id="text_9">
      <!-- 2 -->
      <g style="fill:#262626;" transform="translate(13.624688 109.503191)scale(0.11 -0.11)">
       <use xlink:href="#ArialMT-50"/>
      </g>
     </g>
    </g>
    <g id="ytick_5">
     <g id="line2d_10">
      <path clip-path="url(#p801b0b64b6)" d="M 29.241719 77.689471 
L 232.15081 77.689471 
" style="fill:none;stroke:#ffffff;stroke-linecap:round;"/>
     </g>
     <g id="text_10">
      <!-- 3 -->
      <g style="fill:#262626;" transform="translate(13.624688 81.626268)scale(0.11 -0.11)">
       <defs>
        <path d="M 4.203125 18.890625 
L 12.984375 20.0625 
Q 14.5 12.59375 18.140625 9.296875 
Q 21.78125 6 27 6 
Q 33.203125 6 37.46875 10.296875 
Q 41.75 14.59375 41.75 20.953125 
Q 41.75 27 37.796875 30.921875 
Q 33.84375 34.859375 27.734375 34.859375 
Q 25.25 34.859375 21.53125 33.890625 
L 22.515625 41.609375 
Q 23.390625 41.5 23.921875 41.5 
Q 29.546875 41.5 34.03125 44.421875 
Q 38.53125 47.359375 38.53125 53.46875 
Q 38.53125 58.296875 35.25 61.46875 
Q 31.984375 64.65625 26.8125 64.65625 
Q 21.6875 64.65625 18.265625 61.421875 
Q 14.84375 58.203125 13.875 51.765625 
L 5.078125 53.328125 
Q 6.6875 62.15625 12.390625 67.015625 
Q 18.109375 71.875 26.609375 71.875 
Q 32.46875 71.875 37.390625 69.359375 
Q 42.328125 66.84375 44.9375 62.5 
Q 47.5625 58.15625 47.5625 53.265625 
Q 47.5625 48.640625 45.0625 44.828125 
Q 42.578125 41.015625 37.703125 38.765625 
Q 44.046875 37.3125 47.5625 32.6875 
Q 51.078125 28.078125 51.078125 21.140625 
Q 51.078125 11.765625 44.234375 5.25 
Q 37.40625 -1.265625 26.953125 -1.265625 
Q 17.53125 -1.265625 11.296875 4.34375 
Q 5.078125 9.96875 4.203125 18.890625 
z
" id="ArialMT-51"/>
       </defs>
       <use xlink:href="#ArialMT-51"/>
      </g>
     </g>
    </g>
    <g id="ytick_6">
     <g id="line2d_11">
      <path clip-path="url(#p801b0b64b6)" d="M 29.241719 49.812548 
L 232.15081 49.812548 
" style="fill:none;stroke:#ffffff;stroke-linecap:round;"/>
     </g>
     <g id="text_11">
      <!-- 4 -->
      <g style="fill:#262626;" transform="translate(13.624688 53.749345)scale(0.11 -0.11)">
       <use xlink:href="#ArialMT-52"/>
      </g>
     </g>
    </g>
    <g id="ytick_7">
     <g id="line2d_12">
      <path clip-path="url(#p801b0b64b6)" d="M 29.241719 21.935625 
L 232.15081 21.935625 
" style="fill:none;stroke:#ffffff;stroke-linecap:round;"/>
     </g>
     <g id="text_12">
      <!-- 5 -->
      <g style="fill:#262626;" transform="translate(13.624688 25.872422)scale(0.11 -0.11)">
       <defs>
        <path d="M 4.15625 18.75 
L 13.375 19.53125 
Q 14.40625 12.796875 18.140625 9.390625 
Q 21.875 6 27.15625 6 
Q 33.5 6 37.890625 10.78125 
Q 42.28125 15.578125 42.28125 23.484375 
Q 42.28125 31 38.0625 35.34375 
Q 33.84375 39.703125 27 39.703125 
Q 22.75 39.703125 19.328125 37.765625 
Q 15.921875 35.84375 13.96875 32.765625 
L 5.71875 33.84375 
L 12.640625 70.609375 
L 48.25 70.609375 
L 48.25 62.203125 
L 19.671875 62.203125 
L 15.828125 42.96875 
Q 22.265625 47.46875 29.34375 47.46875 
Q 38.71875 47.46875 45.15625 40.96875 
Q 51.609375 34.46875 51.609375 24.265625 
Q 51.609375 14.546875 45.953125 7.46875 
Q 39.0625 -1.21875 27.15625 -1.21875 
Q 17.390625 -1.21875 11.203125 4.25 
Q 5.03125 9.71875 4.15625 18.75 
z
" id="ArialMT-53"/>
       </defs>
       <use xlink:href="#ArialMT-53"/>
      </g>
     </g>
    </g>
   </g>
   <g id="line2d_13">
    <path clip-path="url(#p801b0b64b6)" d="M 38.464859 161.133664 
L 55.637073 160.85174 
L 67.45451 160.444383 
L 76.502235 159.917761 
L 84.072781 159.25872 
L 90.72009 158.456225 
L 96.628808 157.52219 
L 102.168232 156.425453 
L 107.523008 155.142184 
L 112.877785 153.634982 
L 118.601856 151.794246 
L 125.618459 149.288212 
L 144.4525 142.41269 
L 150.361218 140.584046 
L 155.900642 139.108119 
L 161.255418 137.909516 
L 166.794842 136.894388 
L 172.703561 136.036497 
L 179.350869 135.304245 
L 186.736768 134.718315 
L 195.599845 134.245891 
L 206.678693 133.889312 
L 221.819784 133.641361 
L 222.927669 133.629894 
L 222.927669 133.629894 
" style="fill:none;stroke:#4c72b0;stroke-linecap:round;stroke-width:2;"/>
   </g>
   <g id="line2d_14">
    <path clip-path="url(#p801b0b64b6)" d="M 38.464859 161.134913 
L 56.006368 160.850618 
L 68.1931 160.439507 
L 77.794768 159.90202 
L 86.288551 159.207581 
L 94.413039 158.319121 
L 103.645412 157.073709 
L 118.047913 155.110018 
L 123.587337 154.603508 
L 128.388171 154.378217 
L 133.004357 154.378217 
L 137.805191 154.603507 
L 143.159968 155.089609 
L 149.807276 155.931191 
L 171.411029 158.831296 
L 179.535517 159.59855 
L 188.213947 160.189241 
L 198.18491 160.637569 
L 210.740937 160.965887 
L 222.927669 161.134913 
L 222.927669 161.134913 
" style="fill:none;stroke:#dd8452;stroke-linecap:round;stroke-width:2;"/>
   </g>
   <g id="patch_3">
    <path d="M 29.241719 203.135625 
L 29.241719 21.935625 
" style="fill:none;stroke:#ffffff;stroke-linecap:square;stroke-linejoin:miter;stroke-width:1.25;"/>
   </g>
   <g id="patch_4">
    <path d="M 232.15081 203.135625 
L 232.15081 21.935625 
" style="fill:none;stroke:#ffffff;stroke-linecap:square;stroke-linejoin:miter;stroke-width:1.25;"/>
   </g>
   <g id="patch_5">
    <path d="M 29.241719 203.135625 
L 232.15081 203.135625 
" style="fill:none;stroke:#ffffff;stroke-linecap:square;stroke-linejoin:miter;stroke-width:1.25;"/>
   </g>
   <g id="patch_6">
    <path d="M 29.241719 21.935625 
L 232.15081 21.935625 
" style="fill:none;stroke:#ffffff;stroke-linecap:square;stroke-linejoin:miter;stroke-width:1.25;"/>
   </g>
   <g id="text_13">
    <!-- Sigmoid -->
    <g style="fill:#262626;" transform="translate(109.020327 15.935625)scale(0.12 -0.12)">
     <defs>
      <path d="M 4.5 23 
L 13.421875 23.78125 
Q 14.0625 18.40625 16.375 14.96875 
Q 18.703125 11.53125 23.578125 9.40625 
Q 28.46875 7.28125 34.578125 7.28125 
Q 39.984375 7.28125 44.140625 8.890625 
Q 48.296875 10.5 50.3125 13.296875 
Q 52.34375 16.109375 52.34375 19.4375 
Q 52.34375 22.796875 50.390625 25.3125 
Q 48.4375 27.828125 43.953125 29.546875 
Q 41.0625 30.671875 31.203125 33.03125 
Q 21.34375 35.40625 17.390625 37.5 
Q 12.25 40.1875 9.734375 44.15625 
Q 7.234375 48.140625 7.234375 53.078125 
Q 7.234375 58.5 10.296875 63.203125 
Q 13.375 67.921875 19.28125 70.359375 
Q 25.203125 72.796875 32.421875 72.796875 
Q 40.375 72.796875 46.453125 70.234375 
Q 52.546875 67.671875 55.8125 62.6875 
Q 59.078125 57.71875 59.328125 51.421875 
L 50.25 50.734375 
Q 49.515625 57.515625 45.28125 60.984375 
Q 41.0625 64.453125 32.8125 64.453125 
Q 24.21875 64.453125 20.28125 61.296875 
Q 16.359375 58.15625 16.359375 53.71875 
Q 16.359375 49.859375 19.140625 47.359375 
Q 21.875 44.875 33.421875 42.265625 
Q 44.96875 39.65625 49.265625 37.703125 
Q 55.515625 34.8125 58.484375 30.390625 
Q 61.46875 25.984375 61.46875 20.21875 
Q 61.46875 14.5 58.203125 9.4375 
Q 54.9375 4.390625 48.796875 1.578125 
Q 42.671875 -1.21875 35.015625 -1.21875 
Q 25.296875 -1.21875 18.71875 1.609375 
Q 12.15625 4.4375 8.421875 10.125 
Q 4.6875 15.828125 4.5 23 
z
" id="ArialMT-83"/>
      <path d="M 6.640625 61.46875 
L 6.640625 71.578125 
L 15.4375 71.578125 
L 15.4375 61.46875 
z
M 6.640625 0 
L 6.640625 51.859375 
L 15.4375 51.859375 
L 15.4375 0 
z
" id="ArialMT-105"/>
      <path d="M 4.984375 -4.296875 
L 13.53125 -5.5625 
Q 14.0625 -9.515625 16.5 -11.328125 
Q 19.78125 -13.765625 25.4375 -13.765625 
Q 31.546875 -13.765625 34.859375 -11.328125 
Q 38.1875 -8.890625 39.359375 -4.5 
Q 40.046875 -1.8125 39.984375 6.78125 
Q 34.234375 0 25.640625 0 
Q 14.9375 0 9.078125 7.71875 
Q 3.21875 15.4375 3.21875 26.21875 
Q 3.21875 33.640625 5.90625 39.90625 
Q 8.59375 46.1875 13.6875 49.609375 
Q 18.796875 53.03125 25.6875 53.03125 
Q 34.859375 53.03125 40.828125 45.609375 
L 40.828125 51.859375 
L 48.921875 51.859375 
L 48.921875 7.03125 
Q 48.921875 -5.078125 46.453125 -10.125 
Q 44 -15.1875 38.640625 -18.109375 
Q 33.296875 -21.046875 25.484375 -21.046875 
Q 16.21875 -21.046875 10.5 -16.875 
Q 4.78125 -12.703125 4.984375 -4.296875 
z
M 12.25 26.859375 
Q 12.25 16.65625 16.296875 11.96875 
Q 20.359375 7.28125 26.46875 7.28125 
Q 32.515625 7.28125 36.609375 11.9375 
Q 40.71875 16.609375 40.71875 26.5625 
Q 40.71875 36.078125 36.5 40.90625 
Q 32.28125 45.75 26.3125 45.75 
Q 20.453125 45.75 16.34375 40.984375 
Q 12.25 36.234375 12.25 26.859375 
z
" id="ArialMT-103"/>
      <path d="M 6.59375 0 
L 6.59375 51.859375 
L 14.453125 51.859375 
L 14.453125 44.578125 
Q 16.890625 48.390625 20.9375 50.703125 
Q 25 53.03125 30.171875 53.03125 
Q 35.9375 53.03125 39.625 50.640625 
Q 43.3125 48.25 44.828125 43.953125 
Q 50.984375 53.03125 60.84375 53.03125 
Q 68.5625 53.03125 72.703125 48.75 
Q 76.859375 44.484375 76.859375 35.59375 
L 76.859375 0 
L 68.109375 0 
L 68.109375 32.671875 
Q 68.109375 37.9375 67.25 40.25 
Q 66.40625 42.578125 64.15625 43.984375 
Q 61.921875 45.40625 58.890625 45.40625 
Q 53.421875 45.40625 49.796875 41.765625 
Q 46.1875 38.140625 46.1875 30.125 
L 46.1875 0 
L 37.40625 0 
L 37.40625 33.6875 
Q 37.40625 39.546875 35.25 42.46875 
Q 33.109375 45.40625 28.21875 45.40625 
Q 24.515625 45.40625 21.359375 43.453125 
Q 18.21875 41.5 16.796875 37.734375 
Q 15.375 33.984375 15.375 26.90625 
L 15.375 0 
z
" id="ArialMT-109"/>
      <path d="M 3.328125 25.921875 
Q 3.328125 40.328125 11.328125 47.265625 
Q 18.015625 53.03125 27.640625 53.03125 
Q 38.328125 53.03125 45.109375 46.015625 
Q 51.90625 39.015625 51.90625 26.65625 
Q 51.90625 16.65625 48.90625 10.90625 
Q 45.90625 5.171875 40.15625 2 
Q 34.421875 -1.171875 27.640625 -1.171875 
Q 16.75 -1.171875 10.03125 5.8125 
Q 3.328125 12.796875 3.328125 25.921875 
z
M 12.359375 25.921875 
Q 12.359375 15.96875 16.703125 11.015625 
Q 21.046875 6.0625 27.640625 6.0625 
Q 34.1875 6.0625 38.53125 11.03125 
Q 42.875 16.015625 42.875 26.21875 
Q 42.875 35.84375 38.5 40.796875 
Q 34.125 45.75 27.640625 45.75 
Q 21.046875 45.75 16.703125 40.8125 
Q 12.359375 35.890625 12.359375 25.921875 
z
" id="ArialMT-111"/>
      <path d="M 40.234375 0 
L 40.234375 6.546875 
Q 35.296875 -1.171875 25.734375 -1.171875 
Q 19.53125 -1.171875 14.328125 2.25 
Q 9.125 5.671875 6.265625 11.796875 
Q 3.421875 17.921875 3.421875 25.875 
Q 3.421875 33.640625 6 39.96875 
Q 8.59375 46.296875 13.765625 49.65625 
Q 18.953125 53.03125 25.34375 53.03125 
Q 30.03125 53.03125 33.6875 51.046875 
Q 37.359375 49.078125 39.65625 45.90625 
L 39.65625 71.578125 
L 48.390625 71.578125 
L 48.390625 0 
z
M 12.453125 25.875 
Q 12.453125 15.921875 16.640625 10.984375 
Q 20.84375 6.0625 26.5625 6.0625 
Q 32.328125 6.0625 36.34375 10.765625 
Q 40.375 15.484375 40.375 25.140625 
Q 40.375 35.796875 36.265625 40.765625 
Q 32.171875 45.75 26.171875 45.75 
Q 20.3125 45.75 16.375 40.96875 
Q 12.453125 36.1875 12.453125 25.875 
z
" id="ArialMT-100"/>
     </defs>
     <use xlink:href="#ArialMT-83"/>
     <use x="66.699219" xlink:href="#ArialMT-105"/>
     <use x="88.916016" xlink:href="#ArialMT-103"/>
     <use x="144.53125" xlink:href="#ArialMT-109"/>
     <use x="227.832031" xlink:href="#ArialMT-111"/>
     <use x="283.447266" xlink:href="#ArialMT-105"/>
     <use x="305.664062" xlink:href="#ArialMT-100"/>
    </g>
   </g>
   <g id="legend_1">
    <g id="patch_7">
     <path d="M 147.064091 61.855313 
L 224.45081 61.855313 
Q 226.65081 61.855313 226.65081 59.655313 
L 226.65081 29.635625 
Q 226.65081 27.435625 224.45081 27.435625 
L 147.064091 27.435625 
Q 144.864091 27.435625 144.864091 29.635625 
L 144.864091 59.655313 
Q 144.864091 61.855313 147.064091 61.855313 
z
" style="fill:#eaeaf2;opacity:0.8;stroke:#cccccc;stroke-linejoin:miter;"/>
    </g>
    <g id="line2d_15">
     <path d="M 149.264091 35.859219 
L 171.264091 35.859219 
" style="fill:none;stroke:#4c72b0;stroke-linecap:round;stroke-width:2;"/>
    </g>
    <g id="line2d_16"/>
    <g id="text_14">
     <!-- ActFn -->
     <g style="fill:#262626;" transform="translate(180.064091 39.709219)scale(0.11 -0.11)">
      <defs>
       <path d="M -0.140625 0 
L 27.34375 71.578125 
L 37.546875 71.578125 
L 66.84375 0 
L 56.0625 0 
L 47.703125 21.6875 
L 17.78125 21.6875 
L 9.90625 0 
z
M 20.515625 29.390625 
L 44.78125 29.390625 
L 37.3125 49.21875 
Q 33.890625 58.25 32.234375 64.0625 
Q 30.859375 57.171875 28.375 50.390625 
z
" id="ArialMT-65"/>
       <path d="M 40.4375 19 
L 49.078125 17.875 
Q 47.65625 8.9375 41.8125 3.875 
Q 35.984375 -1.171875 27.484375 -1.171875 
Q 16.84375 -1.171875 10.375 5.78125 
Q 3.90625 12.75 3.90625 25.734375 
Q 3.90625 34.125 6.6875 40.421875 
Q 9.46875 46.734375 15.15625 49.875 
Q 20.84375 53.03125 27.546875 53.03125 
Q 35.984375 53.03125 41.359375 48.75 
Q 46.734375 44.484375 48.25 36.625 
L 39.703125 35.296875 
Q 38.484375 40.53125 35.375 43.15625 
Q 32.28125 45.796875 27.875 45.796875 
Q 21.234375 45.796875 17.078125 41.03125 
Q 12.9375 36.28125 12.9375 25.984375 
Q 12.9375 15.53125 16.9375 10.796875 
Q 20.953125 6.0625 27.390625 6.0625 
Q 32.5625 6.0625 36.03125 9.234375 
Q 39.5 12.40625 40.4375 19 
z
" id="ArialMT-99"/>
       <path d="M 25.78125 7.859375 
L 27.046875 0.09375 
Q 23.34375 -0.6875 20.40625 -0.6875 
Q 15.625 -0.6875 12.984375 0.828125 
Q 10.359375 2.34375 9.28125 4.8125 
Q 8.203125 7.28125 8.203125 15.1875 
L 8.203125 45.015625 
L 1.765625 45.015625 
L 1.765625 51.859375 
L 8.203125 51.859375 
L 8.203125 64.703125 
L 16.9375 69.96875 
L 16.9375 51.859375 
L 25.78125 51.859375 
L 25.78125 45.015625 
L 16.9375 45.015625 
L 16.9375 14.703125 
Q 16.9375 10.9375 17.40625 9.859375 
Q 17.875 8.796875 18.921875 8.15625 
Q 19.96875 7.515625 21.921875 7.515625 
Q 23.390625 7.515625 25.78125 7.859375 
z
" id="ArialMT-116"/>
       <path d="M 8.203125 0 
L 8.203125 71.578125 
L 56.5 71.578125 
L 56.5 63.140625 
L 17.671875 63.140625 
L 17.671875 40.96875 
L 51.265625 40.96875 
L 51.265625 32.515625 
L 17.671875 32.515625 
L 17.671875 0 
z
" id="ArialMT-70"/>
       <path d="M 6.59375 0 
L 6.59375 51.859375 
L 14.5 51.859375 
L 14.5 44.484375 
Q 20.21875 53.03125 31 53.03125 
Q 35.6875 53.03125 39.625 51.34375 
Q 43.5625 49.65625 45.515625 46.921875 
Q 47.46875 44.1875 48.25 40.4375 
Q 48.734375 37.984375 48.734375 31.890625 
L 48.734375 0 
L 39.9375 0 
L 39.9375 31.546875 
Q 39.9375 36.921875 38.90625 39.578125 
Q 37.890625 42.234375 35.28125 43.8125 
Q 32.671875 45.40625 29.15625 45.40625 
Q 23.53125 45.40625 19.453125 41.84375 
Q 15.375 38.28125 15.375 28.328125 
L 15.375 0 
z
" id="ArialMT-110"/>
      </defs>
      <use xlink:href="#ArialMT-65"/>
      <use x="66.699219" xlink:href="#ArialMT-99"/>
      <use x="116.699219" xlink:href="#ArialMT-116"/>
      <use x="144.482422" xlink:href="#ArialMT-70"/>
      <use x="205.566406" xlink:href="#ArialMT-110"/>
     </g>
    </g>
    <g id="line2d_17">
     <path d="M 149.264091 51.419063 
L 171.264091 51.419063 
" style="fill:none;stroke:#dd8452;stroke-linecap:round;stroke-width:2;"/>
    </g>
    <g id="line2d_18"/>
    <g id="text_15">
     <!-- Gradient -->
     <g style="fill:#262626;" transform="translate(180.064091 55.269063)scale(0.11 -0.11)">
      <defs>
       <path d="M 41.21875 28.078125 
L 41.21875 36.46875 
L 71.53125 36.53125 
L 71.53125 9.96875 
Q 64.546875 4.390625 57.125 1.578125 
Q 49.703125 -1.21875 41.890625 -1.21875 
Q 31.34375 -1.21875 22.71875 3.296875 
Q 14.109375 7.8125 9.71875 16.359375 
Q 5.328125 24.90625 5.328125 35.453125 
Q 5.328125 45.90625 9.6875 54.953125 
Q 14.0625 64.015625 22.265625 68.40625 
Q 30.46875 72.796875 41.15625 72.796875 
Q 48.921875 72.796875 55.1875 70.28125 
Q 61.46875 67.78125 65.03125 63.28125 
Q 68.609375 58.796875 70.453125 51.5625 
L 61.921875 49.21875 
Q 60.296875 54.6875 57.90625 57.8125 
Q 55.515625 60.9375 51.0625 62.8125 
Q 46.625 64.703125 41.21875 64.703125 
Q 34.71875 64.703125 29.984375 62.71875 
Q 25.25 60.75 22.34375 57.515625 
Q 19.4375 54.296875 17.828125 50.4375 
Q 15.09375 43.796875 15.09375 36.03125 
Q 15.09375 26.46875 18.390625 20.015625 
Q 21.6875 13.578125 27.984375 10.453125 
Q 34.28125 7.328125 41.359375 7.328125 
Q 47.515625 7.328125 53.375 9.6875 
Q 59.234375 12.0625 62.25 14.75 
L 62.25 28.078125 
z
" id="ArialMT-71"/>
       <path d="M 6.5 0 
L 6.5 51.859375 
L 14.40625 51.859375 
L 14.40625 44 
Q 17.4375 49.515625 20 51.265625 
Q 22.5625 53.03125 25.640625 53.03125 
Q 30.078125 53.03125 34.671875 50.203125 
L 31.640625 42.046875 
Q 28.421875 43.953125 25.203125 43.953125 
Q 22.3125 43.953125 20.015625 42.21875 
Q 17.71875 40.484375 16.75 37.40625 
Q 15.28125 32.71875 15.28125 27.15625 
L 15.28125 0 
z
" id="ArialMT-114"/>
       <path d="M 40.4375 6.390625 
Q 35.546875 2.25 31.03125 0.53125 
Q 26.515625 -1.171875 21.34375 -1.171875 
Q 12.796875 -1.171875 8.203125 3 
Q 3.609375 7.171875 3.609375 13.671875 
Q 3.609375 17.484375 5.34375 20.625 
Q 7.078125 23.78125 9.890625 25.6875 
Q 12.703125 27.59375 16.21875 28.5625 
Q 18.796875 29.25 24.03125 29.890625 
Q 34.671875 31.15625 39.703125 32.90625 
Q 39.75 34.71875 39.75 35.203125 
Q 39.75 40.578125 37.25 42.78125 
Q 33.890625 45.75 27.25 45.75 
Q 21.046875 45.75 18.09375 43.578125 
Q 15.140625 41.40625 13.71875 35.890625 
L 5.125 37.0625 
Q 6.296875 42.578125 8.984375 45.96875 
Q 11.671875 49.359375 16.75 51.1875 
Q 21.828125 53.03125 28.515625 53.03125 
Q 35.15625 53.03125 39.296875 51.46875 
Q 43.453125 49.90625 45.40625 47.53125 
Q 47.359375 45.171875 48.140625 41.546875 
Q 48.578125 39.3125 48.578125 33.453125 
L 48.578125 21.734375 
Q 48.578125 9.46875 49.140625 6.21875 
Q 49.703125 2.984375 51.375 0 
L 42.1875 0 
Q 40.828125 2.734375 40.4375 6.390625 
z
M 39.703125 26.03125 
Q 34.90625 24.078125 25.34375 22.703125 
Q 19.921875 21.921875 17.671875 20.9375 
Q 15.4375 19.96875 14.203125 18.09375 
Q 12.984375 16.21875 12.984375 13.921875 
Q 12.984375 10.40625 15.640625 8.0625 
Q 18.3125 5.71875 23.4375 5.71875 
Q 28.515625 5.71875 32.46875 7.9375 
Q 36.421875 10.15625 38.28125 14.015625 
Q 39.703125 17 39.703125 22.796875 
z
" id="ArialMT-97"/>
       <path d="M 42.09375 16.703125 
L 51.171875 15.578125 
Q 49.03125 7.625 43.21875 3.21875 
Q 37.40625 -1.171875 28.375 -1.171875 
Q 17 -1.171875 10.328125 5.828125 
Q 3.65625 12.84375 3.65625 25.484375 
Q 3.65625 38.578125 10.390625 45.796875 
Q 17.140625 53.03125 27.875 53.03125 
Q 38.28125 53.03125 44.875 45.953125 
Q 51.46875 38.875 51.46875 26.03125 
Q 51.46875 25.25 51.421875 23.6875 
L 12.75 23.6875 
Q 13.234375 15.140625 17.578125 10.59375 
Q 21.921875 6.0625 28.421875 6.0625 
Q 33.25 6.0625 36.671875 8.59375 
Q 40.09375 11.140625 42.09375 16.703125 
z
M 13.234375 30.90625 
L 42.1875 30.90625 
Q 41.609375 37.453125 38.875 40.71875 
Q 34.671875 45.796875 27.984375 45.796875 
Q 21.921875 45.796875 17.796875 41.75 
Q 13.671875 37.703125 13.234375 30.90625 
z
" id="ArialMT-101"/>
      </defs>
      <use xlink:href="#ArialMT-71"/>
      <use x="77.783203" xlink:href="#ArialMT-114"/>
      <use x="111.083984" xlink:href="#ArialMT-97"/>
      <use x="166.699219" xlink:href="#ArialMT-100"/>
      <use x="222.314453" xlink:href="#ArialMT-105"/>
      <use x="244.53125" xlink:href="#ArialMT-101"/>
      <use x="300.146484" xlink:href="#ArialMT-110"/>
      <use x="355.761719" xlink:href="#ArialMT-116"/>
     </g>
    </g>
   </g>
  </g>
  <g id="axes_2">
   <g id="patch_8">
    <path d="M 272.732628 203.135625 
L 475.641719 203.135625 
L 475.641719 21.935625 
L 272.732628 21.935625 
z
" style="fill:#eaeaf2;"/>
   </g>
   <g id="matplotlib.axis_3">
    <g id="xtick_6">
     <g id="line2d_19">
      <path clip-path="url(#p176e3ac1c0)" d="M 300.402049 203.135625 
L 300.402049 21.935625 
" style="fill:none;stroke:#ffffff;stroke-linecap:round;"/>
     </g>
     <g id="text_16">
      <!-- −4 -->
      <g style="fill:#262626;" transform="translate(294.13119 220.509219)scale(0.11 -0.11)">
       <use xlink:href="#ArialMT-8722"/>
       <use x="58.398438" xlink:href="#ArialMT-52"/>
      </g>
     </g>
    </g>
    <g id="xtick_7">
     <g id="line2d_20">
      <path clip-path="url(#p176e3ac1c0)" d="M 337.294611 203.135625 
L 337.294611 21.935625 
" style="fill:none;stroke:#ffffff;stroke-linecap:round;"/>
     </g>
     <g id="text_17">
      <!-- −2 -->
      <g style="fill:#262626;" transform="translate(331.023752 220.509219)scale(0.11 -0.11)">
       <use xlink:href="#ArialMT-8722"/>
       <use x="58.398438" xlink:href="#ArialMT-50"/>
      </g>
     </g>
    </g>
    <g id="xtick_8">
     <g id="line2d_21">
      <path clip-path="url(#p176e3ac1c0)" d="M 374.187173 203.135625 
L 374.187173 21.935625 
" style="fill:none;stroke:#ffffff;stroke-linecap:round;"/>
     </g>
     <g id="text_18">
      <!-- 0 -->
      <g style="fill:#262626;" transform="translate(371.128658 220.509219)scale(0.11 -0.11)">
       <use xlink:href="#ArialMT-48"/>
      </g>
     </g>
    </g>
    <g id="xtick_9">
     <g id="line2d_22">
      <path clip-path="url(#p176e3ac1c0)" d="M 411.079735 203.135625 
L 411.079735 21.935625 
" style="fill:none;stroke:#ffffff;stroke-linecap:round;"/>
     </g>
     <g id="text_19">
      <!-- 2 -->
      <g style="fill:#262626;" transform="translate(408.02122 220.509219)scale(0.11 -0.11)">
       <use xlink:href="#ArialMT-50"/>
      </g>
     </g>
    </g>
    <g id="xtick_10">
     <g id="line2d_23">
      <path clip-path="url(#p176e3ac1c0)" d="M 447.972297 203.135625 
L 447.972297 21.935625 
" style="fill:none;stroke:#ffffff;stroke-linecap:round;"/>
     </g>
     <g id="text_20">
      <!-- 4 -->
      <g style="fill:#262626;" transform="translate(444.913782 220.509219)scale(0.11 -0.11)">
       <use xlink:href="#ArialMT-52"/>
      </g>
     </g>
    </g>
   </g>
   <g id="matplotlib.axis_4">
    <g id="ytick_8">
     <g id="line2d_24">
      <path clip-path="url(#p176e3ac1c0)" d="M 272.732628 189.197163 
L 475.641719 189.197163 
" style="fill:none;stroke:#ffffff;stroke-linecap:round;"/>
     </g>
     <g id="text_21">
      <!-- −1 -->
      <g style="fill:#262626;" transform="translate(250.690909 193.13396)scale(0.11 -0.11)">
       <use xlink:href="#ArialMT-8722"/>
       <use x="58.398438" xlink:href="#ArialMT-49"/>
      </g>
     </g>
    </g>
    <g id="ytick_9">
     <g id="line2d_25">
      <path clip-path="url(#p176e3ac1c0)" d="M 272.732628 161.32024 
L 475.641719 161.32024 
" style="fill:none;stroke:#ffffff;stroke-linecap:round;"/>
     </g>
     <g id="text_22">
      <!-- 0 -->
      <g style="fill:#262626;" transform="translate(257.115597 165.257037)scale(0.11 -0.11)">
       <use xlink:href="#ArialMT-48"/>
      </g>
     </g>
    </g>
    <g id="ytick_10">
     <g id="line2d_26">
      <path clip-path="url(#p176e3ac1c0)" d="M 272.732628 133.443317 
L 475.641719 133.443317 
" style="fill:none;stroke:#ffffff;stroke-linecap:round;"/>
     </g>
     <g id="text_23">
      <!-- 1 -->
      <g style="fill:#262626;" transform="translate(257.115597 137.380114)scale(0.11 -0.11)">
       <use xlink:href="#ArialMT-49"/>
      </g>
     </g>
    </g>
    <g id="ytick_11">
     <g id="line2d_27">
      <path clip-path="url(#p176e3ac1c0)" d="M 272.732628 105.566394 
L 475.641719 105.566394 
" style="fill:none;stroke:#ffffff;stroke-linecap:round;"/>
     </g>
     <g id="text_24">
      <!-- 2 -->
      <g style="fill:#262626;" transform="translate(257.115597 109.503191)scale(0.11 -0.11)">
       <use xlink:href="#ArialMT-50"/>
      </g>
     </g>
    </g>
    <g id="ytick_12">
     <g id="line2d_28">
      <path clip-path="url(#p176e3ac1c0)" d="M 272.732628 77.689471 
L 475.641719 77.689471 
" style="fill:none;stroke:#ffffff;stroke-linecap:round;"/>
     </g>
     <g id="text_25">
      <!-- 3 -->
      <g style="fill:#262626;" transform="translate(257.115597 81.626268)scale(0.11 -0.11)">
       <use xlink:href="#ArialMT-51"/>
      </g>
     </g>
    </g>
    <g id="ytick_13">
     <g id="line2d_29">
      <path clip-path="url(#p176e3ac1c0)" d="M 272.732628 49.812548 
L 475.641719 49.812548 
" style="fill:none;stroke:#ffffff;stroke-linecap:round;"/>
     </g>
     <g id="text_26">
      <!-- 4 -->
      <g style="fill:#262626;" transform="translate(257.115597 53.749345)scale(0.11 -0.11)">
       <use xlink:href="#ArialMT-52"/>
      </g>
     </g>
    </g>
    <g id="ytick_14">
     <g id="line2d_30">
      <path clip-path="url(#p176e3ac1c0)" d="M 272.732628 21.935625 
L 475.641719 21.935625 
" style="fill:none;stroke:#ffffff;stroke-linecap:round;"/>
     </g>
     <g id="text_27">
      <!-- 5 -->
      <g style="fill:#262626;" transform="translate(257.115597 25.872422)scale(0.11 -0.11)">
       <use xlink:href="#ArialMT-53"/>
      </g>
     </g>
    </g>
   </g>
   <g id="line2d_31">
    <path clip-path="url(#p176e3ac1c0)" d="M 281.955768 189.19463 
L 317.777375 189.074387 
L 327.932985 188.829534 
L 334.395646 188.461262 
L 339.19648 187.969769 
L 343.074077 187.349589 
L 346.213084 186.634955 
L 348.982795 185.792316 
L 351.56786 184.778147 
L 353.968277 183.596475 
L 356.184046 182.264694 
L 358.399816 180.670069 
L 360.615585 178.786858 
L 362.831355 176.598691 
L 365.047124 174.103683 
L 367.447541 171.075245 
L 370.4019 166.961764 
L 375.018087 160.065371 
L 379.449626 153.57632 
L 382.219338 149.894778 
L 384.619755 147.044603 
L 386.835524 144.727806 
L 389.051294 142.718804 
L 391.267063 141.006639 
L 393.482833 139.56887 
L 395.88325 138.287153 
L 398.283666 137.253039 
L 400.868731 136.37073 
L 403.82309 135.599405 
L 407.146744 134.964829 
L 411.024341 134.452049 
L 415.825175 134.047151 
L 422.103188 133.750664 
L 431.335561 133.556668 
L 448.323127 133.461317 
L 466.418578 133.445851 
L 466.418578 133.445851 
" style="fill:none;stroke:#4c72b0;stroke-linecap:round;stroke-width:2;"/>
   </g>
   <g id="line2d_32">
    <path clip-path="url(#p176e3ac1c0)" d="M 281.955768 161.315176 
L 312.053304 161.188246 
L 321.839619 160.94056 
L 328.117633 160.575261 
L 332.918467 160.07795 
L 336.796063 159.450812 
L 339.93507 158.728859 
L 342.704782 157.87882 
L 345.289846 156.858029 
L 347.690263 155.672649 
L 349.906033 154.343263 
L 352.121802 152.763164 
L 354.337572 150.918002 
L 356.737989 148.623937 
L 359.5077 145.648397 
L 367.447541 136.856898 
L 369.109368 135.453427 
L 370.586548 134.479052 
L 371.87908 133.875249 
L 373.171612 133.527643 
L 374.279497 133.444015 
L 375.387382 133.561 
L 376.679914 133.946255 
L 377.972446 134.585009 
L 379.449626 135.594497 
L 381.111453 137.029815 
L 383.142575 139.104109 
L 386.466229 142.889844 
L 390.713121 147.666553 
L 393.298185 150.24389 
L 395.698602 152.326967 
L 397.914372 153.972517 
L 400.130141 155.362594 
L 402.530558 156.606218 
L 405.115622 157.680175 
L 407.885334 158.576542 
L 410.839694 159.300697 
L 414.347995 159.923415 
L 418.410239 160.412844 
L 423.580368 160.798549 
L 430.412324 161.070294 
L 440.752582 161.238531 
L 461.802392 161.311893 
L 466.418578 161.315176 
L 466.418578 161.315176 
" style="fill:none;stroke:#dd8452;stroke-linecap:round;stroke-width:2;"/>
   </g>
   <g id="patch_9">
    <path d="M 272.732628 203.135625 
L 272.732628 21.935625 
" style="fill:none;stroke:#ffffff;stroke-linecap:square;stroke-linejoin:miter;stroke-width:1.25;"/>
   </g>
   <g id="patch_10">
    <path d="M 475.641719 203.135625 
L 475.641719 21.935625 
" style="fill:none;stroke:#ffffff;stroke-linecap:square;stroke-linejoin:miter;stroke-width:1.25;"/>
   </g>
   <g id="patch_11">
    <path d="M 272.732628 203.135625 
L 475.641719 203.135625 
" style="fill:none;stroke:#ffffff;stroke-linecap:square;stroke-linejoin:miter;stroke-width:1.25;"/>
   </g>
   <g id="patch_12">
    <path d="M 272.732628 21.935625 
L 475.641719 21.935625 
" style="fill:none;stroke:#ffffff;stroke-linecap:square;stroke-linejoin:miter;stroke-width:1.25;"/>
   </g>
   <g id="text_28">
    <!-- Tanh -->
    <g style="fill:#262626;" transform="translate(361.180298 15.935625)scale(0.12 -0.12)">
     <defs>
      <path d="M 25.921875 0 
L 25.921875 63.140625 
L 2.34375 63.140625 
L 2.34375 71.578125 
L 59.078125 71.578125 
L 59.078125 63.140625 
L 35.40625 63.140625 
L 35.40625 0 
z
" id="ArialMT-84"/>
      <path d="M 6.59375 0 
L 6.59375 71.578125 
L 15.375 71.578125 
L 15.375 45.90625 
Q 21.53125 53.03125 30.90625 53.03125 
Q 36.671875 53.03125 40.921875 50.75 
Q 45.171875 48.484375 47 44.484375 
Q 48.828125 40.484375 48.828125 32.859375 
L 48.828125 0 
L 40.046875 0 
L 40.046875 32.859375 
Q 40.046875 39.453125 37.1875 42.453125 
Q 34.328125 45.453125 29.109375 45.453125 
Q 25.203125 45.453125 21.75 43.421875 
Q 18.3125 41.40625 16.84375 37.9375 
Q 15.375 34.46875 15.375 28.375 
L 15.375 0 
z
" id="ArialMT-104"/>
     </defs>
     <use xlink:href="#ArialMT-84"/>
     <use x="49.958984" xlink:href="#ArialMT-97"/>
     <use x="105.574219" xlink:href="#ArialMT-110"/>
     <use x="161.189453" xlink:href="#ArialMT-104"/>
    </g>
   </g>
   <g id="legend_2">
    <g id="patch_13">
     <path d="M 390.555 61.855313 
L 467.941719 61.855313 
Q 470.141719 61.855313 470.141719 59.655313 
L 470.141719 29.635625 
Q 470.141719 27.435625 467.941719 27.435625 
L 390.555 27.435625 
Q 388.355 27.435625 388.355 29.635625 
L 388.355 59.655313 
Q 388.355 61.855313 390.555 61.855313 
z
" style="fill:#eaeaf2;opacity:0.8;stroke:#cccccc;stroke-linejoin:miter;"/>
    </g>
    <g id="line2d_33">
     <path d="M 392.755 35.859219 
L 414.755 35.859219 
" style="fill:none;stroke:#4c72b0;stroke-linecap:round;stroke-width:2;"/>
    </g>
    <g id="line2d_34"/>
    <g id="text_29">
     <!-- ActFn -->
     <g style="fill:#262626;" transform="translate(423.555 39.709219)scale(0.11 -0.11)">
      <use xlink:href="#ArialMT-65"/>
      <use x="66.699219" xlink:href="#ArialMT-99"/>
      <use x="116.699219" xlink:href="#ArialMT-116"/>
      <use x="144.482422" xlink:href="#ArialMT-70"/>
      <use x="205.566406" xlink:href="#ArialMT-110"/>
     </g>
    </g>
    <g id="line2d_35">
     <path d="M 392.755 51.419063 
L 414.755 51.419063 
" style="fill:none;stroke:#dd8452;stroke-linecap:round;stroke-width:2;"/>
    </g>
    <g id="line2d_36"/>
    <g id="text_30">
     <!-- Gradient -->
     <g style="fill:#262626;" transform="translate(423.555 55.269063)scale(0.11 -0.11)">
      <use xlink:href="#ArialMT-71"/>
      <use x="77.783203" xlink:href="#ArialMT-114"/>
      <use x="111.083984" xlink:href="#ArialMT-97"/>
      <use x="166.699219" xlink:href="#ArialMT-100"/>
      <use x="222.314453" xlink:href="#ArialMT-105"/>
      <use x="244.53125" xlink:href="#ArialMT-101"/>
      <use x="300.146484" xlink:href="#ArialMT-110"/>
      <use x="355.761719" xlink:href="#ArialMT-116"/>
     </g>
    </g>
   </g>
  </g>
  <g id="axes_3">
   <g id="patch_14">
    <path d="M 29.241719 438.695625 
L 232.15081 438.695625 
L 232.15081 257.495625 
L 29.241719 257.495625 
z
" style="fill:#eaeaf2;"/>
   </g>
   <g id="matplotlib.axis_5">
    <g id="xtick_11">
     <g id="line2d_37">
      <path clip-path="url(#p1607f7aa57)" d="M 56.91114 438.695625 
L 56.91114 257.495625 
" style="fill:none;stroke:#ffffff;stroke-linecap:round;"/>
     </g>
     <g id="text_31">
      <!-- −4 -->
      <g style="fill:#262626;" transform="translate(50.640281 456.069219)scale(0.11 -0.11)">
       <use xlink:href="#ArialMT-8722"/>
       <use x="58.398438" xlink:href="#ArialMT-52"/>
      </g>
     </g>
    </g>
    <g id="xtick_12">
     <g id="line2d_38">
      <path clip-path="url(#p1607f7aa57)" d="M 93.803702 438.695625 
L 93.803702 257.495625 
" style="fill:none;stroke:#ffffff;stroke-linecap:round;"/>
     </g>
     <g id="text_32">
      <!-- −2 -->
      <g style="fill:#262626;" transform="translate(87.532843 456.069219)scale(0.11 -0.11)">
       <use xlink:href="#ArialMT-8722"/>
       <use x="58.398438" xlink:href="#ArialMT-50"/>
      </g>
     </g>
    </g>
    <g id="xtick_13">
     <g id="line2d_39">
      <path clip-path="url(#p1607f7aa57)" d="M 130.696264 438.695625 
L 130.696264 257.495625 
" style="fill:none;stroke:#ffffff;stroke-linecap:round;"/>
     </g>
     <g id="text_33">
      <!-- 0 -->
      <g style="fill:#262626;" transform="translate(127.637749 456.069219)scale(0.11 -0.11)">
       <use xlink:href="#ArialMT-48"/>
      </g>
     </g>
    </g>
    <g id="xtick_14">
     <g id="line2d_40">
      <path clip-path="url(#p1607f7aa57)" d="M 167.588826 438.695625 
L 167.588826 257.495625 
" style="fill:none;stroke:#ffffff;stroke-linecap:round;"/>
     </g>
     <g id="text_34">
      <!-- 2 -->
      <g style="fill:#262626;" transform="translate(164.530311 456.069219)scale(0.11 -0.11)">
       <use xlink:href="#ArialMT-50"/>
      </g>
     </g>
    </g>
    <g id="xtick_15">
     <g id="line2d_41">
      <path clip-path="url(#p1607f7aa57)" d="M 204.481388 438.695625 
L 204.481388 257.495625 
" style="fill:none;stroke:#ffffff;stroke-linecap:round;"/>
     </g>
     <g id="text_35">
      <!-- 4 -->
      <g style="fill:#262626;" transform="translate(201.422873 456.069219)scale(0.11 -0.11)">
       <use xlink:href="#ArialMT-52"/>
      </g>
     </g>
    </g>
   </g>
   <g id="matplotlib.axis_6">
    <g id="ytick_15">
     <g id="line2d_42">
      <path clip-path="url(#p1607f7aa57)" d="M 29.241719 424.757163 
L 232.15081 424.757163 
" style="fill:none;stroke:#ffffff;stroke-linecap:round;"/>
     </g>
     <g id="text_36">
      <!-- −1 -->
      <g style="fill:#262626;" transform="translate(7.2 428.69396)scale(0.11 -0.11)">
       <use xlink:href="#ArialMT-8722"/>
       <use x="58.398438" xlink:href="#ArialMT-49"/>
      </g>
     </g>
    </g>
    <g id="ytick_16">
     <g id="line2d_43">
      <path clip-path="url(#p1607f7aa57)" d="M 29.241719 396.88024 
L 232.15081 396.88024 
" style="fill:none;stroke:#ffffff;stroke-linecap:round;"/>
     </g>
     <g id="text_37">
      <!-- 0 -->
      <g style="fill:#262626;" transform="translate(13.624688 400.817037)scale(0.11 -0.11)">
       <use xlink:href="#ArialMT-48"/>
      </g>
     </g>
    </g>
    <g id="ytick_17">
     <g id="line2d_44">
      <path clip-path="url(#p1607f7aa57)" d="M 29.241719 369.003317 
L 232.15081 369.003317 
" style="fill:none;stroke:#ffffff;stroke-linecap:round;"/>
     </g>
     <g id="text_38">
      <!-- 1 -->
      <g style="fill:#262626;" transform="translate(13.624688 372.940114)scale(0.11 -0.11)">
       <use xlink:href="#ArialMT-49"/>
      </g>
     </g>
    </g>
    <g id="ytick_18">
     <g id="line2d_45">
      <path clip-path="url(#p1607f7aa57)" d="M 29.241719 341.126394 
L 232.15081 341.126394 
" style="fill:none;stroke:#ffffff;stroke-linecap:round;"/>
     </g>
     <g id="text_39">
      <!-- 2 -->
      <g style="fill:#262626;" transform="translate(13.624688 345.063191)scale(0.11 -0.11)">
       <use xlink:href="#ArialMT-50"/>
      </g>
     </g>
    </g>
    <g id="ytick_19">
     <g id="line2d_46">
      <path clip-path="url(#p1607f7aa57)" d="M 29.241719 313.249471 
L 232.15081 313.249471 
" style="fill:none;stroke:#ffffff;stroke-linecap:round;"/>
     </g>
     <g id="text_40">
      <!-- 3 -->
      <g style="fill:#262626;" transform="translate(13.624688 317.186268)scale(0.11 -0.11)">
       <use xlink:href="#ArialMT-51"/>
      </g>
     </g>
    </g>
    <g id="ytick_20">
     <g id="line2d_47">
      <path clip-path="url(#p1607f7aa57)" d="M 29.241719 285.372548 
L 232.15081 285.372548 
" style="fill:none;stroke:#ffffff;stroke-linecap:round;"/>
     </g>
     <g id="text_41">
      <!-- 4 -->
      <g style="fill:#262626;" transform="translate(13.624688 289.309345)scale(0.11 -0.11)">
       <use xlink:href="#ArialMT-52"/>
      </g>
     </g>
    </g>
    <g id="ytick_21">
     <g id="line2d_48">
      <path clip-path="url(#p1607f7aa57)" d="M 29.241719 257.495625 
L 232.15081 257.495625 
" style="fill:none;stroke:#ffffff;stroke-linecap:round;"/>
     </g>
     <g id="text_42">
      <!-- 5 -->
      <g style="fill:#262626;" transform="translate(13.624688 261.432422)scale(0.11 -0.11)">
       <use xlink:href="#ArialMT-53"/>
      </g>
     </g>
    </g>
   </g>
   <g id="line2d_49">
    <path clip-path="url(#p1607f7aa57)" d="M 38.464859 396.88024 
L 130.60394 396.88024 
L 130.788588 396.740716 
L 222.927669 257.495625 
L 222.927669 257.495625 
" style="fill:none;stroke:#4c72b0;stroke-linecap:round;stroke-width:2;"/>
   </g>
   <g id="line2d_50">
    <path clip-path="url(#p1607f7aa57)" d="M 38.464859 396.88024 
L 130.60394 396.88024 
L 130.788588 369.003317 
L 222.927669 369.003317 
L 222.927669 369.003317 
" style="fill:none;stroke:#dd8452;stroke-linecap:round;stroke-width:2;"/>
   </g>
   <g id="patch_15">
    <path d="M 29.241719 438.695625 
L 29.241719 257.495625 
" style="fill:none;stroke:#ffffff;stroke-linecap:square;stroke-linejoin:miter;stroke-width:1.25;"/>
   </g>
   <g id="patch_16">
    <path d="M 232.15081 438.695625 
L 232.15081 257.495625 
" style="fill:none;stroke:#ffffff;stroke-linecap:square;stroke-linejoin:miter;stroke-width:1.25;"/>
   </g>
   <g id="patch_17">
    <path d="M 29.241719 438.695625 
L 232.15081 438.695625 
" style="fill:none;stroke:#ffffff;stroke-linecap:square;stroke-linejoin:miter;stroke-width:1.25;"/>
   </g>
   <g id="patch_18">
    <path d="M 29.241719 257.495625 
L 232.15081 257.495625 
" style="fill:none;stroke:#ffffff;stroke-linecap:square;stroke-linejoin:miter;stroke-width:1.25;"/>
   </g>
   <g id="text_43">
    <!-- ReLU -->
    <g style="fill:#262626;" transform="translate(115.356889 251.495625)scale(0.12 -0.12)">
     <defs>
      <path d="M 7.859375 0 
L 7.859375 71.578125 
L 39.59375 71.578125 
Q 49.171875 71.578125 54.140625 69.640625 
Q 59.125 67.71875 62.109375 62.828125 
Q 65.09375 57.953125 65.09375 52.046875 
Q 65.09375 44.4375 60.15625 39.203125 
Q 55.21875 33.984375 44.921875 32.5625 
Q 48.6875 30.765625 50.640625 29 
Q 54.78125 25.203125 58.5 19.484375 
L 70.953125 0 
L 59.03125 0 
L 49.5625 14.890625 
Q 45.40625 21.34375 42.71875 24.75 
Q 40.046875 28.171875 37.921875 29.53125 
Q 35.796875 30.90625 33.59375 31.453125 
Q 31.984375 31.78125 28.328125 31.78125 
L 17.328125 31.78125 
L 17.328125 0 
z
M 17.328125 39.984375 
L 37.703125 39.984375 
Q 44.1875 39.984375 47.84375 41.328125 
Q 51.515625 42.671875 53.421875 45.625 
Q 55.328125 48.578125 55.328125 52.046875 
Q 55.328125 57.125 51.640625 60.390625 
Q 47.953125 63.671875 39.984375 63.671875 
L 17.328125 63.671875 
z
" id="ArialMT-82"/>
      <path d="M 7.328125 0 
L 7.328125 71.578125 
L 16.796875 71.578125 
L 16.796875 8.453125 
L 52.046875 8.453125 
L 52.046875 0 
z
" id="ArialMT-76"/>
      <path d="M 54.6875 71.578125 
L 64.15625 71.578125 
L 64.15625 30.21875 
Q 64.15625 19.4375 61.71875 13.078125 
Q 59.28125 6.734375 52.90625 2.75 
Q 46.53125 -1.21875 36.1875 -1.21875 
Q 26.125 -1.21875 19.71875 2.25 
Q 13.328125 5.71875 10.59375 12.28125 
Q 7.859375 18.84375 7.859375 30.21875 
L 7.859375 71.578125 
L 17.328125 71.578125 
L 17.328125 30.28125 
Q 17.328125 20.953125 19.0625 16.53125 
Q 20.796875 12.109375 25.015625 9.71875 
Q 29.25 7.328125 35.359375 7.328125 
Q 45.796875 7.328125 50.234375 12.0625 
Q 54.6875 16.796875 54.6875 30.28125 
z
" id="ArialMT-85"/>
     </defs>
     <use xlink:href="#ArialMT-82"/>
     <use x="72.216797" xlink:href="#ArialMT-101"/>
     <use x="127.832031" xlink:href="#ArialMT-76"/>
     <use x="183.447266" xlink:href="#ArialMT-85"/>
    </g>
   </g>
   <g id="legend_3">
    <g id="patch_19">
     <path d="M 36.941719 297.415313 
L 114.328437 297.415313 
Q 116.528437 297.415313 116.528437 295.215313 
L 116.528437 265.195625 
Q 116.528437 262.995625 114.328437 262.995625 
L 36.941719 262.995625 
Q 34.741719 262.995625 34.741719 265.195625 
L 34.741719 295.215313 
Q 34.741719 297.415313 36.941719 297.415313 
z
" style="fill:#eaeaf2;opacity:0.8;stroke:#cccccc;stroke-linejoin:miter;"/>
    </g>
    <g id="line2d_51">
     <path d="M 39.141719 271.419219 
L 61.141719 271.419219 
" style="fill:none;stroke:#4c72b0;stroke-linecap:round;stroke-width:2;"/>
    </g>
    <g id="line2d_52"/>
    <g id="text_44">
     <!-- ActFn -->
     <g style="fill:#262626;" transform="translate(69.941719 275.269219)scale(0.11 -0.11)">
      <use xlink:href="#ArialMT-65"/>
      <use x="66.699219" xlink:href="#ArialMT-99"/>
      <use x="116.699219" xlink:href="#ArialMT-116"/>
      <use x="144.482422" xlink:href="#ArialMT-70"/>
      <use x="205.566406" xlink:href="#ArialMT-110"/>
     </g>
    </g>
    <g id="line2d_53">
     <path d="M 39.141719 286.979063 
L 61.141719 286.979063 
" style="fill:none;stroke:#dd8452;stroke-linecap:round;stroke-width:2;"/>
    </g>
    <g id="line2d_54"/>
    <g id="text_45">
     <!-- Gradient -->
     <g style="fill:#262626;" transform="translate(69.941719 290.829063)scale(0.11 -0.11)">
      <use xlink:href="#ArialMT-71"/>
      <use x="77.783203" xlink:href="#ArialMT-114"/>
      <use x="111.083984" xlink:href="#ArialMT-97"/>
      <use x="166.699219" xlink:href="#ArialMT-100"/>
      <use x="222.314453" xlink:href="#ArialMT-105"/>
      <use x="244.53125" xlink:href="#ArialMT-101"/>
      <use x="300.146484" xlink:href="#ArialMT-110"/>
      <use x="355.761719" xlink:href="#ArialMT-116"/>
     </g>
    </g>
   </g>
  </g>
  <g id="axes_4">
   <g id="patch_20">
    <path d="M 272.732628 438.695625 
L 475.641719 438.695625 
L 475.641719 257.495625 
L 272.732628 257.495625 
z
" style="fill:#eaeaf2;"/>
   </g>
   <g id="matplotlib.axis_7">
    <g id="xtick_16">
     <g id="line2d_55">
      <path clip-path="url(#pf9d80bc002)" d="M 300.402049 438.695625 
L 300.402049 257.495625 
" style="fill:none;stroke:#ffffff;stroke-linecap:round;"/>
     </g>
     <g id="text_46">
      <!-- −4 -->
      <g style="fill:#262626;" transform="translate(294.13119 456.069219)scale(0.11 -0.11)">
       <use xlink:href="#ArialMT-8722"/>
       <use x="58.398438" xlink:href="#ArialMT-52"/>
      </g>
     </g>
    </g>
    <g id="xtick_17">
     <g id="line2d_56">
      <path clip-path="url(#pf9d80bc002)" d="M 337.294611 438.695625 
L 337.294611 257.495625 
" style="fill:none;stroke:#ffffff;stroke-linecap:round;"/>
     </g>
     <g id="text_47">
      <!-- −2 -->
      <g style="fill:#262626;" transform="translate(331.023752 456.069219)scale(0.11 -0.11)">
       <use xlink:href="#ArialMT-8722"/>
       <use x="58.398438" xlink:href="#ArialMT-50"/>
      </g>
     </g>
    </g>
    <g id="xtick_18">
     <g id="line2d_57">
      <path clip-path="url(#pf9d80bc002)" d="M 374.187173 438.695625 
L 374.187173 257.495625 
" style="fill:none;stroke:#ffffff;stroke-linecap:round;"/>
     </g>
     <g id="text_48">
      <!-- 0 -->
      <g style="fill:#262626;" transform="translate(371.128658 456.069219)scale(0.11 -0.11)">
       <use xlink:href="#ArialMT-48"/>
      </g>
     </g>
    </g>
    <g id="xtick_19">
     <g id="line2d_58">
      <path clip-path="url(#pf9d80bc002)" d="M 411.079735 438.695625 
L 411.079735 257.495625 
" style="fill:none;stroke:#ffffff;stroke-linecap:round;"/>
     </g>
     <g id="text_49">
      <!-- 2 -->
      <g style="fill:#262626;" transform="translate(408.02122 456.069219)scale(0.11 -0.11)">
       <use xlink:href="#ArialMT-50"/>
      </g>
     </g>
    </g>
    <g id="xtick_20">
     <g id="line2d_59">
      <path clip-path="url(#pf9d80bc002)" d="M 447.972297 438.695625 
L 447.972297 257.495625 
" style="fill:none;stroke:#ffffff;stroke-linecap:round;"/>
     </g>
     <g id="text_50">
      <!-- 4 -->
      <g style="fill:#262626;" transform="translate(444.913782 456.069219)scale(0.11 -0.11)">
       <use xlink:href="#ArialMT-52"/>
      </g>
     </g>
    </g>
   </g>
   <g id="matplotlib.axis_8">
    <g id="ytick_22">
     <g id="line2d_60">
      <path clip-path="url(#pf9d80bc002)" d="M 272.732628 424.757163 
L 475.641719 424.757163 
" style="fill:none;stroke:#ffffff;stroke-linecap:round;"/>
     </g>
     <g id="text_51">
      <!-- −1 -->
      <g style="fill:#262626;" transform="translate(250.690909 428.69396)scale(0.11 -0.11)">
       <use xlink:href="#ArialMT-8722"/>
       <use x="58.398438" xlink:href="#ArialMT-49"/>
      </g>
     </g>
    </g>
    <g id="ytick_23">
     <g id="line2d_61">
      <path clip-path="url(#pf9d80bc002)" d="M 272.732628 396.88024 
L 475.641719 396.88024 
" style="fill:none;stroke:#ffffff;stroke-linecap:round;"/>
     </g>
     <g id="text_52">
      <!-- 0 -->
      <g style="fill:#262626;" transform="translate(257.115597 400.817037)scale(0.11 -0.11)">
       <use xlink:href="#ArialMT-48"/>
      </g>
     </g>
    </g>
    <g id="ytick_24">
     <g id="line2d_62">
      <path clip-path="url(#pf9d80bc002)" d="M 272.732628 369.003317 
L 475.641719 369.003317 
" style="fill:none;stroke:#ffffff;stroke-linecap:round;"/>
     </g>
     <g id="text_53">
      <!-- 1 -->
      <g style="fill:#262626;" transform="translate(257.115597 372.940114)scale(0.11 -0.11)">
       <use xlink:href="#ArialMT-49"/>
      </g>
     </g>
    </g>
    <g id="ytick_25">
     <g id="line2d_63">
      <path clip-path="url(#pf9d80bc002)" d="M 272.732628 341.126394 
L 475.641719 341.126394 
" style="fill:none;stroke:#ffffff;stroke-linecap:round;"/>
     </g>
     <g id="text_54">
      <!-- 2 -->
      <g style="fill:#262626;" transform="translate(257.115597 345.063191)scale(0.11 -0.11)">
       <use xlink:href="#ArialMT-50"/>
      </g>
     </g>
    </g>
    <g id="ytick_26">
     <g id="line2d_64">
      <path clip-path="url(#pf9d80bc002)" d="M 272.732628 313.249471 
L 475.641719 313.249471 
" style="fill:none;stroke:#ffffff;stroke-linecap:round;"/>
     </g>
     <g id="text_55">
      <!-- 3 -->
      <g style="fill:#262626;" transform="translate(257.115597 317.186268)scale(0.11 -0.11)">
       <use xlink:href="#ArialMT-51"/>
      </g>
     </g>
    </g>
    <g id="ytick_27">
     <g id="line2d_65">
      <path clip-path="url(#pf9d80bc002)" d="M 272.732628 285.372548 
L 475.641719 285.372548 
" style="fill:none;stroke:#ffffff;stroke-linecap:round;"/>
     </g>
     <g id="text_56">
      <!-- 4 -->
      <g style="fill:#262626;" transform="translate(257.115597 289.309345)scale(0.11 -0.11)">
       <use xlink:href="#ArialMT-52"/>
      </g>
     </g>
    </g>
    <g id="ytick_28">
     <g id="line2d_66">
      <path clip-path="url(#pf9d80bc002)" d="M 272.732628 257.495625 
L 475.641719 257.495625 
" style="fill:none;stroke:#ffffff;stroke-linecap:round;"/>
     </g>
     <g id="text_57">
      <!-- 5 -->
      <g style="fill:#262626;" transform="translate(257.115597 261.432422)scale(0.11 -0.11)">
       <use xlink:href="#ArialMT-53"/>
      </g>
     </g>
    </g>
   </g>
   <g id="line2d_67">
    <path clip-path="url(#pf9d80bc002)" d="M 281.955768 410.818702 
L 374.09485 396.894193 
L 374.464144 396.461668 
L 466.418578 257.495625 
L 466.418578 257.495625 
" style="fill:none;stroke:#4c72b0;stroke-linecap:round;stroke-width:2;"/>
   </g>
   <g id="line2d_68">
    <path clip-path="url(#pf9d80bc002)" d="M 281.955768 394.092548 
L 374.09485 394.092548 
L 374.279497 369.003317 
L 466.418578 369.003317 
L 466.418578 369.003317 
" style="fill:none;stroke:#dd8452;stroke-linecap:round;stroke-width:2;"/>
   </g>
   <g id="patch_21">
    <path d="M 272.732628 438.695625 
L 272.732628 257.495625 
" style="fill:none;stroke:#ffffff;stroke-linecap:square;stroke-linejoin:miter;stroke-width:1.25;"/>
   </g>
   <g id="patch_22">
    <path d="M 475.641719 438.695625 
L 475.641719 257.495625 
" style="fill:none;stroke:#ffffff;stroke-linecap:square;stroke-linejoin:miter;stroke-width:1.25;"/>
   </g>
   <g id="patch_23">
    <path d="M 272.732628 438.695625 
L 475.641719 438.695625 
" style="fill:none;stroke:#ffffff;stroke-linecap:square;stroke-linejoin:miter;stroke-width:1.25;"/>
   </g>
   <g id="patch_24">
    <path d="M 272.732628 257.495625 
L 475.641719 257.495625 
" style="fill:none;stroke:#ffffff;stroke-linecap:square;stroke-linejoin:miter;stroke-width:1.25;"/>
   </g>
   <g id="text_58">
    <!-- LeakyReLU -->
    <g style="fill:#262626;" transform="translate(342.838111 251.495625)scale(0.12 -0.12)">
     <defs>
      <path d="M 6.640625 0 
L 6.640625 71.578125 
L 15.4375 71.578125 
L 15.4375 30.765625 
L 36.234375 51.859375 
L 47.609375 51.859375 
L 27.78125 32.625 
L 49.609375 0 
L 38.765625 0 
L 21.625 26.515625 
L 15.4375 20.5625 
L 15.4375 0 
z
" id="ArialMT-107"/>
      <path d="M 6.203125 -19.96875 
L 5.21875 -11.71875 
Q 8.109375 -12.5 10.25 -12.5 
Q 13.1875 -12.5 14.9375 -11.515625 
Q 16.703125 -10.546875 17.828125 -8.796875 
Q 18.65625 -7.46875 20.515625 -2.25 
Q 20.75 -1.515625 21.296875 -0.09375 
L 1.609375 51.859375 
L 11.078125 51.859375 
L 21.875 21.828125 
Q 23.96875 16.109375 25.640625 9.8125 
Q 27.15625 15.875 29.25 21.625 
L 40.328125 51.859375 
L 49.125 51.859375 
L 29.390625 -0.875 
Q 26.21875 -9.421875 24.46875 -12.640625 
Q 22.125 -17 19.09375 -19.015625 
Q 16.0625 -21.046875 11.859375 -21.046875 
Q 9.328125 -21.046875 6.203125 -19.96875 
z
" id="ArialMT-121"/>
     </defs>
     <use xlink:href="#ArialMT-76"/>
     <use x="55.615234" xlink:href="#ArialMT-101"/>
     <use x="111.230469" xlink:href="#ArialMT-97"/>
     <use x="166.845703" xlink:href="#ArialMT-107"/>
     <use x="216.845703" xlink:href="#ArialMT-121"/>
     <use x="266.845703" xlink:href="#ArialMT-82"/>
     <use x="339.0625" xlink:href="#ArialMT-101"/>
     <use x="394.677734" xlink:href="#ArialMT-76"/>
     <use x="450.292969" xlink:href="#ArialMT-85"/>
    </g>
   </g>
   <g id="legend_4">
    <g id="patch_25">
     <path d="M 280.432628 297.415313 
L 357.819347 297.415313 
Q 360.019347 297.415313 360.019347 295.215313 
L 360.019347 265.195625 
Q 360.019347 262.995625 357.819347 262.995625 
L 280.432628 262.995625 
Q 278.232628 262.995625 278.232628 265.195625 
L 278.232628 295.215313 
Q 278.232628 297.415313 280.432628 297.415313 
z
" style="fill:#eaeaf2;opacity:0.8;stroke:#cccccc;stroke-linejoin:miter;"/>
    </g>
    <g id="line2d_69">
     <path d="M 282.632628 271.419219 
L 304.632628 271.419219 
" style="fill:none;stroke:#4c72b0;stroke-linecap:round;stroke-width:2;"/>
    </g>
    <g id="line2d_70"/>
    <g id="text_59">
     <!-- ActFn -->
     <g style="fill:#262626;" transform="translate(313.432628 275.269219)scale(0.11 -0.11)">
      <use xlink:href="#ArialMT-65"/>
      <use x="66.699219" xlink:href="#ArialMT-99"/>
      <use x="116.699219" xlink:href="#ArialMT-116"/>
      <use x="144.482422" xlink:href="#ArialMT-70"/>
      <use x="205.566406" xlink:href="#ArialMT-110"/>
     </g>
    </g>
    <g id="line2d_71">
     <path d="M 282.632628 286.979063 
L 304.632628 286.979063 
" style="fill:none;stroke:#dd8452;stroke-linecap:round;stroke-width:2;"/>
    </g>
    <g id="line2d_72"/>
    <g id="text_60">
     <!-- Gradient -->
     <g style="fill:#262626;" transform="translate(313.432628 290.829063)scale(0.11 -0.11)">
      <use xlink:href="#ArialMT-71"/>
      <use x="77.783203" xlink:href="#ArialMT-114"/>
      <use x="111.083984" xlink:href="#ArialMT-97"/>
      <use x="166.699219" xlink:href="#ArialMT-100"/>
      <use x="222.314453" xlink:href="#ArialMT-105"/>
      <use x="244.53125" xlink:href="#ArialMT-101"/>
      <use x="300.146484" xlink:href="#ArialMT-110"/>
      <use x="355.761719" xlink:href="#ArialMT-116"/>
     </g>
    </g>
   </g>
  </g>
  <g id="axes_5">
   <g id="patch_26">
    <path d="M 29.241719 674.255625 
L 232.15081 674.255625 
L 232.15081 493.055625 
L 29.241719 493.055625 
z
" style="fill:#eaeaf2;"/>
   </g>
   <g id="matplotlib.axis_9">
    <g id="xtick_21">
     <g id="line2d_73">
      <path clip-path="url(#p0e8c107804)" d="M 56.91114 674.255625 
L 56.91114 493.055625 
" style="fill:none;stroke:#ffffff;stroke-linecap:round;"/>
     </g>
     <g id="text_61">
      <!-- −4 -->
      <g style="fill:#262626;" transform="translate(50.640281 691.629219)scale(0.11 -0.11)">
       <use xlink:href="#ArialMT-8722"/>
       <use x="58.398438" xlink:href="#ArialMT-52"/>
      </g>
     </g>
    </g>
    <g id="xtick_22">
     <g id="line2d_74">
      <path clip-path="url(#p0e8c107804)" d="M 93.803702 674.255625 
L 93.803702 493.055625 
" style="fill:none;stroke:#ffffff;stroke-linecap:round;"/>
     </g>
     <g id="text_62">
      <!-- −2 -->
      <g style="fill:#262626;" transform="translate(87.532843 691.629219)scale(0.11 -0.11)">
       <use xlink:href="#ArialMT-8722"/>
       <use x="58.398438" xlink:href="#ArialMT-50"/>
      </g>
     </g>
    </g>
    <g id="xtick_23">
     <g id="line2d_75">
      <path clip-path="url(#p0e8c107804)" d="M 130.696264 674.255625 
L 130.696264 493.055625 
" style="fill:none;stroke:#ffffff;stroke-linecap:round;"/>
     </g>
     <g id="text_63">
      <!-- 0 -->
      <g style="fill:#262626;" transform="translate(127.637749 691.629219)scale(0.11 -0.11)">
       <use xlink:href="#ArialMT-48"/>
      </g>
     </g>
    </g>
    <g id="xtick_24">
     <g id="line2d_76">
      <path clip-path="url(#p0e8c107804)" d="M 167.588826 674.255625 
L 167.588826 493.055625 
" style="fill:none;stroke:#ffffff;stroke-linecap:round;"/>
     </g>
     <g id="text_64">
      <!-- 2 -->
      <g style="fill:#262626;" transform="translate(164.530311 691.629219)scale(0.11 -0.11)">
       <use xlink:href="#ArialMT-50"/>
      </g>
     </g>
    </g>
    <g id="xtick_25">
     <g id="line2d_77">
      <path clip-path="url(#p0e8c107804)" d="M 204.481388 674.255625 
L 204.481388 493.055625 
" style="fill:none;stroke:#ffffff;stroke-linecap:round;"/>
     </g>
     <g id="text_65">
      <!-- 4 -->
      <g style="fill:#262626;" transform="translate(201.422873 691.629219)scale(0.11 -0.11)">
       <use xlink:href="#ArialMT-52"/>
      </g>
     </g>
    </g>
   </g>
   <g id="matplotlib.axis_10">
    <g id="ytick_29">
     <g id="line2d_78">
      <path clip-path="url(#p0e8c107804)" d="M 29.241719 660.317163 
L 232.15081 660.317163 
" style="fill:none;stroke:#ffffff;stroke-linecap:round;"/>
     </g>
     <g id="text_66">
      <!-- −1 -->
      <g style="fill:#262626;" transform="translate(7.2 664.25396)scale(0.11 -0.11)">
       <use xlink:href="#ArialMT-8722"/>
       <use x="58.398438" xlink:href="#ArialMT-49"/>
      </g>
     </g>
    </g>
    <g id="ytick_30">
     <g id="line2d_79">
      <path clip-path="url(#p0e8c107804)" d="M 29.241719 632.44024 
L 232.15081 632.44024 
" style="fill:none;stroke:#ffffff;stroke-linecap:round;"/>
     </g>
     <g id="text_67">
      <!-- 0 -->
      <g style="fill:#262626;" transform="translate(13.624688 636.377037)scale(0.11 -0.11)">
       <use xlink:href="#ArialMT-48"/>
      </g>
     </g>
    </g>
    <g id="ytick_31">
     <g id="line2d_80">
      <path clip-path="url(#p0e8c107804)" d="M 29.241719 604.563317 
L 232.15081 604.563317 
" style="fill:none;stroke:#ffffff;stroke-linecap:round;"/>
     </g>
     <g id="text_68">
      <!-- 1 -->
      <g style="fill:#262626;" transform="translate(13.624688 608.500114)scale(0.11 -0.11)">
       <use xlink:href="#ArialMT-49"/>
      </g>
     </g>
    </g>
    <g id="ytick_32">
     <g id="line2d_81">
      <path clip-path="url(#p0e8c107804)" d="M 29.241719 576.686394 
L 232.15081 576.686394 
" style="fill:none;stroke:#ffffff;stroke-linecap:round;"/>
     </g>
     <g id="text_69">
      <!-- 2 -->
      <g style="fill:#262626;" transform="translate(13.624688 580.623191)scale(0.11 -0.11)">
       <use xlink:href="#ArialMT-50"/>
      </g>
     </g>
    </g>
    <g id="ytick_33">
     <g id="line2d_82">
      <path clip-path="url(#p0e8c107804)" d="M 29.241719 548.809471 
L 232.15081 548.809471 
" style="fill:none;stroke:#ffffff;stroke-linecap:round;"/>
     </g>
     <g id="text_70">
      <!-- 3 -->
      <g style="fill:#262626;" transform="translate(13.624688 552.746268)scale(0.11 -0.11)">
       <use xlink:href="#ArialMT-51"/>
      </g>
     </g>
    </g>
    <g id="ytick_34">
     <g id="line2d_83">
      <path clip-path="url(#p0e8c107804)" d="M 29.241719 520.932548 
L 232.15081 520.932548 
" style="fill:none;stroke:#ffffff;stroke-linecap:round;"/>
     </g>
     <g id="text_71">
      <!-- 4 -->
      <g style="fill:#262626;" transform="translate(13.624688 524.869345)scale(0.11 -0.11)">
       <use xlink:href="#ArialMT-52"/>
      </g>
     </g>
    </g>
    <g id="ytick_35">
     <g id="line2d_84">
      <path clip-path="url(#p0e8c107804)" d="M 29.241719 493.055625 
L 232.15081 493.055625 
" style="fill:none;stroke:#ffffff;stroke-linecap:round;"/>
     </g>
     <g id="text_72">
      <!-- 5 -->
      <g style="fill:#262626;" transform="translate(13.624688 496.992422)scale(0.11 -0.11)">
       <use xlink:href="#ArialMT-53"/>
      </g>
     </g>
    </g>
   </g>
   <g id="line2d_85">
    <path clip-path="url(#p0e8c107804)" d="M 38.464859 660.12933 
L 55.452425 659.8454 
L 66.71592 659.448387 
L 75.394351 658.926472 
L 82.226307 658.303065 
L 87.950378 657.570239 
L 92.935859 656.717818 
L 97.367398 655.740399 
L 101.244995 654.669722 
L 104.937944 653.417982 
L 108.261598 652.055854 
L 111.400605 650.523327 
L 114.354964 648.822149 
L 117.124676 646.959858 
L 119.70974 644.95045 
L 122.110157 642.814838 
L 124.510574 640.382424 
L 126.910991 637.611962 
L 129.126761 634.714046 
L 131.527178 631.184523 
L 222.927669 493.055625 
L 222.927669 493.055625 
" style="fill:none;stroke:#4c72b0;stroke-linecap:round;stroke-width:2;"/>
   </g>
   <g id="line2d_86">
    <path clip-path="url(#p0e8c107804)" d="M 38.464859 632.252407 
L 55.452425 631.968478 
L 66.71592 631.571464 
L 75.394351 631.049549 
L 82.226307 630.426142 
L 87.950378 629.693316 
L 92.935859 628.840895 
L 97.367398 627.863475 
L 101.244995 626.792799 
L 104.937944 625.541059 
L 108.261598 624.178932 
L 111.400605 622.646404 
L 114.354964 620.945227 
L 117.124676 619.082934 
L 119.70974 617.073527 
L 122.110157 614.937915 
L 124.510574 612.505501 
L 126.910991 609.735039 
L 129.126761 606.837122 
L 130.788588 604.563317 
L 222.927669 604.563317 
L 222.927669 604.563317 
" style="fill:none;stroke:#dd8452;stroke-linecap:round;stroke-width:2;"/>
   </g>
   <g id="patch_27">
    <path d="M 29.241719 674.255625 
L 29.241719 493.055625 
" style="fill:none;stroke:#ffffff;stroke-linecap:square;stroke-linejoin:miter;stroke-width:1.25;"/>
   </g>
   <g id="patch_28">
    <path d="M 232.15081 674.255625 
L 232.15081 493.055625 
" style="fill:none;stroke:#ffffff;stroke-linecap:square;stroke-linejoin:miter;stroke-width:1.25;"/>
   </g>
   <g id="patch_29">
    <path d="M 29.241719 674.255625 
L 232.15081 674.255625 
" style="fill:none;stroke:#ffffff;stroke-linecap:square;stroke-linejoin:miter;stroke-width:1.25;"/>
   </g>
   <g id="patch_30">
    <path d="M 29.241719 493.055625 
L 232.15081 493.055625 
" style="fill:none;stroke:#ffffff;stroke-linecap:square;stroke-linejoin:miter;stroke-width:1.25;"/>
   </g>
   <g id="text_73">
    <!-- ELU -->
    <g style="fill:#262626;" transform="translate(119.024389 487.055625)scale(0.12 -0.12)">
     <defs>
      <path d="M 7.90625 0 
L 7.90625 71.578125 
L 59.671875 71.578125 
L 59.671875 63.140625 
L 17.390625 63.140625 
L 17.390625 41.21875 
L 56.984375 41.21875 
L 56.984375 32.8125 
L 17.390625 32.8125 
L 17.390625 8.453125 
L 61.328125 8.453125 
L 61.328125 0 
z
" id="ArialMT-69"/>
     </defs>
     <use xlink:href="#ArialMT-69"/>
     <use x="66.699219" xlink:href="#ArialMT-76"/>
     <use x="122.314453" xlink:href="#ArialMT-85"/>
    </g>
   </g>
   <g id="legend_5">
    <g id="patch_31">
     <path d="M 36.941719 532.975312 
L 114.328437 532.975312 
Q 116.528437 532.975312 116.528437 530.775313 
L 116.528437 500.755625 
Q 116.528437 498.555625 114.328437 498.555625 
L 36.941719 498.555625 
Q 34.741719 498.555625 34.741719 500.755625 
L 34.741719 530.775313 
Q 34.741719 532.975312 36.941719 532.975312 
z
" style="fill:#eaeaf2;opacity:0.8;stroke:#cccccc;stroke-linejoin:miter;"/>
    </g>
    <g id="line2d_87">
     <path d="M 39.141719 506.979219 
L 61.141719 506.979219 
" style="fill:none;stroke:#4c72b0;stroke-linecap:round;stroke-width:2;"/>
    </g>
    <g id="line2d_88"/>
    <g id="text_74">
     <!-- ActFn -->
     <g style="fill:#262626;" transform="translate(69.941719 510.829219)scale(0.11 -0.11)">
      <use xlink:href="#ArialMT-65"/>
      <use x="66.699219" xlink:href="#ArialMT-99"/>
      <use x="116.699219" xlink:href="#ArialMT-116"/>
      <use x="144.482422" xlink:href="#ArialMT-70"/>
      <use x="205.566406" xlink:href="#ArialMT-110"/>
     </g>
    </g>
    <g id="line2d_89">
     <path d="M 39.141719 522.539062 
L 61.141719 522.539062 
" style="fill:none;stroke:#dd8452;stroke-linecap:round;stroke-width:2;"/>
    </g>
    <g id="line2d_90"/>
    <g id="text_75">
     <!-- Gradient -->
     <g style="fill:#262626;" transform="translate(69.941719 526.389063)scale(0.11 -0.11)">
      <use xlink:href="#ArialMT-71"/>
      <use x="77.783203" xlink:href="#ArialMT-114"/>
      <use x="111.083984" xlink:href="#ArialMT-97"/>
      <use x="166.699219" xlink:href="#ArialMT-100"/>
      <use x="222.314453" xlink:href="#ArialMT-105"/>
      <use x="244.53125" xlink:href="#ArialMT-101"/>
      <use x="300.146484" xlink:href="#ArialMT-110"/>
      <use x="355.761719" xlink:href="#ArialMT-116"/>
     </g>
    </g>
   </g>
  </g>
  <g id="axes_6">
   <g id="patch_32">
    <path d="M 272.732628 674.255625 
L 475.641719 674.255625 
L 475.641719 493.055625 
L 272.732628 493.055625 
z
" style="fill:#eaeaf2;"/>
   </g>
   <g id="matplotlib.axis_11">
    <g id="xtick_26">
     <g id="line2d_91">
      <path clip-path="url(#p78a4ede6c5)" d="M 300.402049 674.255625 
L 300.402049 493.055625 
" style="fill:none;stroke:#ffffff;stroke-linecap:round;"/>
     </g>
     <g id="text_76">
      <!-- −4 -->
      <g style="fill:#262626;" transform="translate(294.13119 691.629219)scale(0.11 -0.11)">
       <use xlink:href="#ArialMT-8722"/>
       <use x="58.398438" xlink:href="#ArialMT-52"/>
      </g>
     </g>
    </g>
    <g id="xtick_27">
     <g id="line2d_92">
      <path clip-path="url(#p78a4ede6c5)" d="M 337.294611 674.255625 
L 337.294611 493.055625 
" style="fill:none;stroke:#ffffff;stroke-linecap:round;"/>
     </g>
     <g id="text_77">
      <!-- −2 -->
      <g style="fill:#262626;" transform="translate(331.023752 691.629219)scale(0.11 -0.11)">
       <use xlink:href="#ArialMT-8722"/>
       <use x="58.398438" xlink:href="#ArialMT-50"/>
      </g>
     </g>
    </g>
    <g id="xtick_28">
     <g id="line2d_93">
      <path clip-path="url(#p78a4ede6c5)" d="M 374.187173 674.255625 
L 374.187173 493.055625 
" style="fill:none;stroke:#ffffff;stroke-linecap:round;"/>
     </g>
     <g id="text_78">
      <!-- 0 -->
      <g style="fill:#262626;" transform="translate(371.128658 691.629219)scale(0.11 -0.11)">
       <use xlink:href="#ArialMT-48"/>
      </g>
     </g>
    </g>
    <g id="xtick_29">
     <g id="line2d_94">
      <path clip-path="url(#p78a4ede6c5)" d="M 411.079735 674.255625 
L 411.079735 493.055625 
" style="fill:none;stroke:#ffffff;stroke-linecap:round;"/>
     </g>
     <g id="text_79">
      <!-- 2 -->
      <g style="fill:#262626;" transform="translate(408.02122 691.629219)scale(0.11 -0.11)">
       <use xlink:href="#ArialMT-50"/>
      </g>
     </g>
    </g>
    <g id="xtick_30">
     <g id="line2d_95">
      <path clip-path="url(#p78a4ede6c5)" d="M 447.972297 674.255625 
L 447.972297 493.055625 
" style="fill:none;stroke:#ffffff;stroke-linecap:round;"/>
     </g>
     <g id="text_80">
      <!-- 4 -->
      <g style="fill:#262626;" transform="translate(444.913782 691.629219)scale(0.11 -0.11)">
       <use xlink:href="#ArialMT-52"/>
      </g>
     </g>
    </g>
   </g>
   <g id="matplotlib.axis_12">
    <g id="ytick_36">
     <g id="line2d_96">
      <path clip-path="url(#p78a4ede6c5)" d="M 272.732628 660.317163 
L 475.641719 660.317163 
" style="fill:none;stroke:#ffffff;stroke-linecap:round;"/>
     </g>
     <g id="text_81">
      <!-- −1 -->
      <g style="fill:#262626;" transform="translate(250.690909 664.25396)scale(0.11 -0.11)">
       <use xlink:href="#ArialMT-8722"/>
       <use x="58.398438" xlink:href="#ArialMT-49"/>
      </g>
     </g>
    </g>
    <g id="ytick_37">
     <g id="line2d_97">
      <path clip-path="url(#p78a4ede6c5)" d="M 272.732628 632.44024 
L 475.641719 632.44024 
" style="fill:none;stroke:#ffffff;stroke-linecap:round;"/>
     </g>
     <g id="text_82">
      <!-- 0 -->
      <g style="fill:#262626;" transform="translate(257.115597 636.377037)scale(0.11 -0.11)">
       <use xlink:href="#ArialMT-48"/>
      </g>
     </g>
    </g>
    <g id="ytick_38">
     <g id="line2d_98">
      <path clip-path="url(#p78a4ede6c5)" d="M 272.732628 604.563317 
L 475.641719 604.563317 
" style="fill:none;stroke:#ffffff;stroke-linecap:round;"/>
     </g>
     <g id="text_83">
      <!-- 1 -->
      <g style="fill:#262626;" transform="translate(257.115597 608.500114)scale(0.11 -0.11)">
       <use xlink:href="#ArialMT-49"/>
      </g>
     </g>
    </g>
    <g id="ytick_39">
     <g id="line2d_99">
      <path clip-path="url(#p78a4ede6c5)" d="M 272.732628 576.686394 
L 475.641719 576.686394 
" style="fill:none;stroke:#ffffff;stroke-linecap:round;"/>
     </g>
     <g id="text_84">
      <!-- 2 -->
      <g style="fill:#262626;" transform="translate(257.115597 580.623191)scale(0.11 -0.11)">
       <use xlink:href="#ArialMT-50"/>
      </g>
     </g>
    </g>
    <g id="ytick_40">
     <g id="line2d_100">
      <path clip-path="url(#p78a4ede6c5)" d="M 272.732628 548.809471 
L 475.641719 548.809471 
" style="fill:none;stroke:#ffffff;stroke-linecap:round;"/>
     </g>
     <g id="text_85">
      <!-- 3 -->
      <g style="fill:#262626;" transform="translate(257.115597 552.746268)scale(0.11 -0.11)">
       <use xlink:href="#ArialMT-51"/>
      </g>
     </g>
    </g>
    <g id="ytick_41">
     <g id="line2d_101">
      <path clip-path="url(#p78a4ede6c5)" d="M 272.732628 520.932548 
L 475.641719 520.932548 
" style="fill:none;stroke:#ffffff;stroke-linecap:round;"/>
     </g>
     <g id="text_86">
      <!-- 4 -->
      <g style="fill:#262626;" transform="translate(257.115597 524.869345)scale(0.11 -0.11)">
       <use xlink:href="#ArialMT-52"/>
      </g>
     </g>
    </g>
    <g id="ytick_42">
     <g id="line2d_102">
      <path clip-path="url(#p78a4ede6c5)" d="M 272.732628 493.055625 
L 475.641719 493.055625 
" style="fill:none;stroke:#ffffff;stroke-linecap:round;"/>
     </g>
     <g id="text_87">
      <!-- 5 -->
      <g style="fill:#262626;" transform="translate(257.115597 496.992422)scale(0.11 -0.11)">
       <use xlink:href="#ArialMT-53"/>
      </g>
     </g>
    </g>
   </g>
   <g id="line2d_103">
    <path clip-path="url(#p78a4ede6c5)" d="M 281.955768 633.373121 
L 293.034616 633.928575 
L 302.636284 634.630463 
L 311.314714 635.483954 
L 319.993145 636.560639 
L 331.256639 638.206978 
L 340.858307 639.543392 
L 345.843789 640.023527 
L 349.906033 640.198699 
L 353.414334 640.127638 
L 356.553341 639.840396 
L 359.5077 639.337918 
L 362.277412 638.63125 
L 364.862477 637.7423 
L 367.447541 636.612749 
L 370.032606 635.227496 
L 372.61767 633.575772 
L 375.202734 631.651739 
L 377.787799 629.454824 
L 380.557511 626.803647 
L 383.51187 623.650362 
L 386.650877 619.95641 
L 389.974531 615.696397 
L 393.66748 610.597945 
L 397.914372 604.345087 
L 403.0845 596.311456 
L 409.916456 585.24705 
L 425.057548 560.148209 
L 437.98287 538.971305 
L 449.984955 519.741704 
L 463.464219 498.579016 
L 466.418578 493.98851 
L 466.418578 493.98851 
" style="fill:none;stroke:#4c72b0;stroke-linecap:round;stroke-width:2;"/>
   </g>
   <g id="line2d_104">
    <path clip-path="url(#p78a4ede6c5)" d="M 281.955768 633.180301 
L 296.35827 633.716499 
L 312.422599 634.55514 
L 324.978626 635.144482 
L 331.256639 635.216565 
L 336.057473 635.05473 
L 340.119717 634.700938 
L 343.812667 634.154458 
L 347.136321 633.441263 
L 350.275328 632.547216 
L 353.414334 631.418765 
L 356.553341 630.044352 
L 359.692348 628.423618 
L 363.016002 626.454053 
L 366.708951 624.001453 
L 371.325138 620.655757 
L 382.77328 612.240783 
L 386.466229 609.865678 
L 389.789883 607.980311 
L 392.92889 606.445742 
L 396.067897 605.158816 
L 399.206904 604.114903 
L 402.345911 603.2992 
L 405.669565 602.659815 
L 409.362514 602.182785 
L 413.424758 601.889792 
L 418.225592 601.78029 
L 424.134311 601.882053 
L 432.997388 602.286408 
L 458.848033 603.570099 
L 466.418578 603.823253 
L 466.418578 603.823253 
" style="fill:none;stroke:#dd8452;stroke-linecap:round;stroke-width:2;"/>
   </g>
   <g id="patch_33">
    <path d="M 272.732628 674.255625 
L 272.732628 493.055625 
" style="fill:none;stroke:#ffffff;stroke-linecap:square;stroke-linejoin:miter;stroke-width:1.25;"/>
   </g>
   <g id="patch_34">
    <path d="M 475.641719 674.255625 
L 475.641719 493.055625 
" style="fill:none;stroke:#ffffff;stroke-linecap:square;stroke-linejoin:miter;stroke-width:1.25;"/>
   </g>
   <g id="patch_35">
    <path d="M 272.732628 674.255625 
L 475.641719 674.255625 
" style="fill:none;stroke:#ffffff;stroke-linecap:square;stroke-linejoin:miter;stroke-width:1.25;"/>
   </g>
   <g id="patch_36">
    <path d="M 272.732628 493.055625 
L 475.641719 493.055625 
" style="fill:none;stroke:#ffffff;stroke-linecap:square;stroke-linejoin:miter;stroke-width:1.25;"/>
   </g>
   <g id="text_88">
    <!-- Swish -->
    <g style="fill:#262626;" transform="translate(358.182173 487.055625)scale(0.12 -0.12)">
     <defs>
      <path d="M 16.15625 0 
L 0.296875 51.859375 
L 9.375 51.859375 
L 17.625 21.921875 
L 20.703125 10.796875 
Q 20.90625 11.625 23.390625 21.484375 
L 31.640625 51.859375 
L 40.671875 51.859375 
L 48.4375 21.78125 
L 51.03125 11.859375 
L 54 21.875 
L 62.890625 51.859375 
L 71.4375 51.859375 
L 55.21875 0 
L 46.09375 0 
L 37.84375 31.0625 
L 35.84375 39.890625 
L 25.34375 0 
z
" id="ArialMT-119"/>
      <path d="M 3.078125 15.484375 
L 11.765625 16.84375 
Q 12.5 11.625 15.84375 8.84375 
Q 19.1875 6.0625 25.203125 6.0625 
Q 31.25 6.0625 34.171875 8.515625 
Q 37.109375 10.984375 37.109375 14.3125 
Q 37.109375 17.28125 34.515625 19 
Q 32.71875 20.171875 25.53125 21.96875 
Q 15.875 24.421875 12.140625 26.203125 
Q 8.40625 27.984375 6.46875 31.125 
Q 4.546875 34.28125 4.546875 38.09375 
Q 4.546875 41.546875 6.125 44.5 
Q 7.71875 47.46875 10.453125 49.421875 
Q 12.5 50.921875 16.03125 51.96875 
Q 19.578125 53.03125 23.640625 53.03125 
Q 29.734375 53.03125 34.34375 51.265625 
Q 38.96875 49.515625 41.15625 46.5 
Q 43.359375 43.5 44.1875 38.484375 
L 35.59375 37.3125 
Q 35.015625 41.3125 32.203125 43.546875 
Q 29.390625 45.796875 24.265625 45.796875 
Q 18.21875 45.796875 15.625 43.796875 
Q 13.03125 41.796875 13.03125 39.109375 
Q 13.03125 37.40625 14.109375 36.03125 
Q 15.1875 34.625 17.484375 33.6875 
Q 18.796875 33.203125 25.25 31.453125 
Q 34.578125 28.953125 38.25 27.359375 
Q 41.9375 25.78125 44.03125 22.75 
Q 46.140625 19.734375 46.140625 15.234375 
Q 46.140625 10.84375 43.578125 6.953125 
Q 41.015625 3.078125 36.171875 0.953125 
Q 31.34375 -1.171875 25.25 -1.171875 
Q 15.140625 -1.171875 9.84375 3.03125 
Q 4.546875 7.234375 3.078125 15.484375 
z
" id="ArialMT-115"/>
     </defs>
     <use xlink:href="#ArialMT-83"/>
     <use x="66.699219" xlink:href="#ArialMT-119"/>
     <use x="138.916016" xlink:href="#ArialMT-105"/>
     <use x="161.132812" xlink:href="#ArialMT-115"/>
     <use x="211.132812" xlink:href="#ArialMT-104"/>
    </g>
   </g>
   <g id="legend_6">
    <g id="patch_37">
     <path d="M 280.432628 532.975312 
L 357.819347 532.975312 
Q 360.019347 532.975312 360.019347 530.775313 
L 360.019347 500.755625 
Q 360.019347 498.555625 357.819347 498.555625 
L 280.432628 498.555625 
Q 278.232628 498.555625 278.232628 500.755625 
L 278.232628 530.775313 
Q 278.232628 532.975312 280.432628 532.975312 
z
" style="fill:#eaeaf2;opacity:0.8;stroke:#cccccc;stroke-linejoin:miter;"/>
    </g>
    <g id="line2d_105">
     <path d="M 282.632628 506.979219 
L 304.632628 506.979219 
" style="fill:none;stroke:#4c72b0;stroke-linecap:round;stroke-width:2;"/>
    </g>
    <g id="line2d_106"/>
    <g id="text_89">
     <!-- ActFn -->
     <g style="fill:#262626;" transform="translate(313.432628 510.829219)scale(0.11 -0.11)">
      <use xlink:href="#ArialMT-65"/>
      <use x="66.699219" xlink:href="#ArialMT-99"/>
      <use x="116.699219" xlink:href="#ArialMT-116"/>
      <use x="144.482422" xlink:href="#ArialMT-70"/>
      <use x="205.566406" xlink:href="#ArialMT-110"/>
     </g>
    </g>
    <g id="line2d_107">
     <path d="M 282.632628 522.539062 
L 304.632628 522.539062 
" style="fill:none;stroke:#dd8452;stroke-linecap:round;stroke-width:2;"/>
    </g>
    <g id="line2d_108"/>
    <g id="text_90">
     <!-- Gradient -->
     <g style="fill:#262626;" transform="translate(313.432628 526.389063)scale(0.11 -0.11)">
      <use xlink:href="#ArialMT-71"/>
      <use x="77.783203" xlink:href="#ArialMT-114"/>
      <use x="111.083984" xlink:href="#ArialMT-97"/>
      <use x="166.699219" xlink:href="#ArialMT-100"/>
      <use x="222.314453" xlink:href="#ArialMT-105"/>
      <use x="244.53125" xlink:href="#ArialMT-101"/>
      <use x="300.146484" xlink:href="#ArialMT-110"/>
      <use x="355.761719" xlink:href="#ArialMT-116"/>
     </g>
    </g>
   </g>
  </g>
 </g>
 <defs>
  <clipPath id="p801b0b64b6">
   <rect height="181.2" width="202.909091" x="29.241719" y="21.935625"/>
  </clipPath>
  <clipPath id="p176e3ac1c0">
   <rect height="181.2" width="202.909091" x="272.732628" y="21.935625"/>
  </clipPath>
  <clipPath id="p1607f7aa57">
   <rect height="181.2" width="202.909091" x="29.241719" y="257.495625"/>
  </clipPath>
  <clipPath id="pf9d80bc002">
   <rect height="181.2" width="202.909091" x="272.732628" y="257.495625"/>
  </clipPath>
  <clipPath id="p0e8c107804">
   <rect height="181.2" width="202.909091" x="29.241719" y="493.055625"/>
  </clipPath>
  <clipPath id="p78a4ede6c5">
   <rect height="181.2" width="202.909091" x="272.732628" y="493.055625"/>
  </clipPath>
 </defs>
</svg>
